<?xml version="1.0" encoding="UTF-8"?>
<svg width="16px" height="16px" viewBox="0 0 16 16" version="1.1" xmlns="http://www.w3.org/2000/svg" xmlns:xlink="http://www.w3.org/1999/xlink">
    <!-- Generator: Sketch 48.2 (47327) - http://www.bohemiancoding.com/sketch -->
    <title>attach</title>
    <desc>Created with Sketch.</desc>
    <defs></defs>
    <g id="Icon" stroke="none" stroke-width="1" fill="none" fill-rule="evenodd">
        <g id="attach" fill="#FFFFFF" fill-rule="nonzero">
            <path d="M7,11 L7,3 L7,3 C7,2.44771525 7.44771525,2 8,2 L10,2 C10.5522847,2 11,2.44771525 11,3 L11,12 C11,13.1045695 10.1045695,14 9,14 L6,14 C4.8954305,14 4,13.1045695 4,12 L4,5 C4,4.44771525 3.55228475,4 3,4 L3,4 C2.44771525,4 2,4.44771525 2,5 L2,12 C2,14.209139 3.790861,16 6,16 L9,16 C11.209139,16 13,14.209139 13,12 L13,3 C13,1.34314575 11.6568542,-3.04359188e-16 10,0 L8,0 C6.34314575,3.04359188e-16 5,1.34314575 5,3 L5,12 C5,12.5522847 5.44771525,13 6,13 L9,13 C9.55228475,13 10,12.5522847 10,12 L10,5 C10,4.44771525 9.55228475,4 9,4 L9,4 C8.44771525,4 8,4.44771525 8,5 L8,11 L7,11 Z" id="Line"></path>
        </g>
    </g>
</svg>