<?xml version="1.0" encoding="UTF-8"?>
<svg width="16px" height="16px" viewBox="0 0 16 16" version="1.1" xmlns="http://www.w3.org/2000/svg" xmlns:xlink="http://www.w3.org/1999/xlink">
    <!-- Generator: Sketch 48.1 (47250) - http://www.bohemiancoding.com/sketch -->
    <title>bold</title>
    <desc>Created with Sketch.</desc>
    <defs></defs>
    <g id="Icon" stroke="none" stroke-width="1" fill="none" fill-rule="evenodd">
        <g id="bold" fill="#FFFFFF">
            <path d="M6.90234375,0.72265625 L8.90234375,0.72265625 C10.3867262,0.72265625 11.4674445,1.01073931 12.1445312,1.58691406 C12.821618,2.16308882 13.1601562,3.0794208 13.1601562,4.3359375 C13.1601562,5.16276455 12.9811216,5.8544894 12.6230469,6.41113281 C12.2649722,6.96777622 11.7766958,7.30468691 11.1582031,7.421875 L11.1582031,7.51953125 C11.9654988,7.72135518 12.5481753,8.09895557 12.90625,8.65234375 C13.2643247,9.20573193 13.4433594,9.94140166 13.4433594,10.859375 C13.4433594,12.1549544 13.0966832,13.1689417 12.4033203,13.9013672 C11.7099575,14.6337927 10.7610737,15 9.55664062,15 L7.55664062,15 L3.25976562,15 L3.25976562,0.72265625 L6.90234375,0.72265625 Z M6.75976562,6.46484375 L7.98046875,6.46484375 C8.54036738,6.46484375 8.93424365,6.31510566 9.16210938,6.015625 C9.3899751,5.71614434 9.50390625,5.27018525 9.50390625,4.67773438 C9.50390625,4.0852835 9.37369922,3.66048306 9.11328125,3.40332031 C8.85286328,3.14615757 8.44271113,3.01757812 7.8828125,3.01757812 L6.75976562,3.01757812 L6.75976562,6.46484375 Z M6.75976562,8.68164062 L6.75976562,12.6757812 L8.09765625,12.6757812 C8.65104443,12.6757812 9.06282417,12.5065121 9.33300781,12.1679688 C9.60319146,11.8294254 9.73828125,11.3053421 9.73828125,10.5957031 C9.73828125,9.31965508 9.17839102,8.68164062 8.05859375,8.68164062 L6.75976562,8.68164062 Z" id="B"></path>
        </g>
    </g>
</svg>