<?xml version="1.0" encoding="UTF-8"?>
<svg width="16px" height="16px" viewBox="0 0 16 16" version="1.1" xmlns="http://www.w3.org/2000/svg" xmlns:xlink="http://www.w3.org/1999/xlink">
    <g id="Page-1" stroke="none" stroke-width="1" fill="none" fill-rule="evenodd">
        <g id="clapboard" fill="#FFFFFF" fill-rule="nonzero">
            <path d="M14,7 L2,7 L2,14 L14,14 L14,7 L14,7 Z M2.5,5 L4.5,5 L6,2 L8,2 L6.5,5 L8.5,5 L10,2 L12,2 L10.5,5 L12.5,5 L14,2 L3,2 L4,2 L2.5,5 Z M0,1.15068054 C0,0.515177227 0.444630861,0 1.00087166,0 L14.9991283,0 C15.5518945,0 16,0.514227152 16,1.15068054 L16,14.8493195 C16,15.4848228 15.5553691,16 14.9991283,16 L1.00087166,16 C0.448105505,16 0,15.4857728 0,14.8493195 L0,1.15068054 Z"></path>
        </g>
    </g>
</svg>