<?xml version="1.0" encoding="UTF-8"?>
<svg width="16px" height="16px" viewBox="0 0 16 16" version="1.1" xmlns="http://www.w3.org/2000/svg" xmlns:xlink="http://www.w3.org/1999/xlink">
    <g id="Page-1" stroke="none" stroke-width="1" fill="none" fill-rule="evenodd">
        <g id="clock" fill="#FFFFFF">
            <path d="M2,8 C2,11.3081704 4.68974164,14 8,14 C11.3081704,14 14,11.3102584 14,8 C14,4.69182956 11.3102584,2 8,2 C4.69182956,2 2,4.68974164 2,8 Z M0,8 C0,3.581722 3.59071231,0 8,0 C12.418278,0 16,3.59071231 16,8 C16,12.418278 12.4092877,16 8,16 C3.581722,16 0,12.4092877 0,8 Z" id="Rectangle" fill-rule="nonzero"></path>
            <path d="M8.71153715,8.70682845 C8.89025712,8.52777327 9,8.28130552 9,8.00922203 L9,3.99077797 C9,3.45097518 8.55228475,3 8,3 C7.44386482,3 7,3.44358641 7,3.99077797 L7,7 L3.99077797,7 C3.45097518,7 3,7.44771525 3,8 C3,8.55613518 3.44358641,9 3.99077797,9 L8.00922203,9 C8.27762494,9 8.52406685,8.88931059 8.70402912,8.71011452 Z" id="Arrows"></path>
        </g>
    </g>
</svg>