<?xml version="1.0" encoding="UTF-8"?>
<svg width="16px" height="16px" viewBox="0 0 16 16" version="1.1" xmlns="http://www.w3.org/2000/svg" xmlns:xlink="http://www.w3.org/1999/xlink">
    <path d="M12.1887853,8.56635604 C13.2686032,7.97038148 14,6.82060418 14,5.5 C14,3.56700338 12.4329966,2 10.5,2 C8.56700338,2 7,3.56700338 7,5.5 C7,5.66976067 7.01208598,5.83669851 7.03544443,6 L3.50000009,6 C2.67157288,6 2,6.67157288 2,7.5 C2,8.32842712 2.67157288,9 3.5,9 L2.91462088,10.9512637 C1.26029476,10.672709 0,9.23353333 0,7.5 C0,5.56700338 1.56700338,4 3.5,4 C4.08115916,4 4.62923561,4.14164391 5.11159022,4.3922926 C5.6241617,1.88566926 7.84187003,0 10.5,0 C13.5375661,0 16,2.46243388 16,5.5 C16,7.70542529 14.7019309,9.60767031 12.828132,10.4843959 L12.1887853,8.56635604 L12.1887853,8.56635604 Z" id="Cloud" fill="#FFFFFF"></path>
    <polygon id="Arrow" points="7 11.8284271 7 16.2426407 9 16.2426407 9 11.8284271 10.8284271 13.6568542 12.2426407 12.2426407 8 8 3.75735931 12.2426407 5.17157288 13.6568542" fill="#FFFFFF"></polygon>
</svg>