<?xml version="1.0" encoding="UTF-8"?>
<svg width="16px" height="16px" viewBox="0 0 16 16" version="1.1" xmlns="http://www.w3.org/2000/svg" xmlns:xlink="http://www.w3.org/1999/xlink">
    <g id="Page-1" stroke="none" stroke-width="1" fill="none" fill-rule="evenodd">
        <g id="copy" fill-rule="nonzero" fill="#FFFFFF">
            <path d="M6,14 L14,14 L14,6 L6,6 L6,14 Z M4,5.19447708 C4,4.53478561 4.54679728,4 5.19447708,4 L14.8055229,4 C15.4652144,4 16,4.54679728 16,5.19447708 L16,14.8055229 C16,15.4652144 15.4532027,16 14.8055229,16 L5.19447708,16 C4.53478561,16 4,15.4532027 4,14.8055229 L4,5.19447708 Z M12,2 L2,2 L2,12 L1,12 C0.443864822,12 0,11.5511774 0,10.9975267 L0,1.00247329 C0,0.455760956 0.448822582,8.8817842e-16 1.00247329,8.8817842e-16 L10.9975267,8.8817842e-16 C11.544239,8.8817842e-16 12,0.44771525 12,1 L12,2 Z" id="Rectangle"></path>
        </g>
    </g>
</svg>