<?xml version="1.0" encoding="UTF-8"?>
<svg width="16px" height="16px" viewBox="0 0 16 16" version="1.1" xmlns="http://www.w3.org/2000/svg" xmlns:xlink="http://www.w3.org/1999/xlink">
    <!-- Generator: Sketch 48.1 (47250) - http://www.bohemiancoding.com/sketch -->
    <title>calendar</title>
    <desc>Created with Sketch.</desc>
    <defs></defs>
    <g id="Icon" stroke="none" stroke-width="1" fill="none" fill-rule="evenodd">
        <g id="calendar" fill="#FFFFFF" fill-rule="nonzero">
            <path d="M0,0.793442488 C0,0.355236302 0.364244461,0 0.793442488,0 L15.2065575,0 C15.6447637,0 16,0.364244461 16,0.793442488 L16,15.2065575 C16,15.6447637 15.6357555,16 15.2065575,16 L0.793442488,16 C0.355236302,16 0,15.6357555 0,15.2065575 L0,0.793442488 Z M2,14 L14,14 L14,5 L2,5 L2,14 Z M4,9 L6,9 L6,7 L4,7 L4,9 Z M4,12 L6,12 L6,10 L4,10 L4,12 Z M7,12 L9,12 L9,10 L7,10 L7,12 Z M10,12 L12,12 L12,10 L10,10 L10,12 Z M7,9 L9,9 L9,7 L7,7 L7,9 Z M10,9 L12,9 L12,7 L10,7 L10,9 Z" id="Square"></path>
        </g>
    </g>
</svg>