<?xml version="1.0" encoding="UTF-8" standalone="no"?>
<svg
   xmlns:dc="http://purl.org/dc/elements/1.1/"
   xmlns:cc="http://creativecommons.org/ns#"
   xmlns:rdf="http://www.w3.org/1999/02/22-rdf-syntax-ns#"
   xmlns:svg="http://www.w3.org/2000/svg"
   xmlns="http://www.w3.org/2000/svg"
   xmlns:sodipodi="http://sodipodi.sourceforge.net/DTD/sodipodi-0.dtd"
   xmlns:inkscape="http://www.inkscape.org/namespaces/inkscape"
   width="16px"
   height="16px"
   viewBox="0 0 16 16"
   version="1.1"
   id="svg2"
   inkscape:version="0.91 r13725"
   sodipodi:docname="drop.svg">
  <metadata
     id="metadata15">
    <rdf:RDF>
      <cc:Work
         rdf:about="">
        <dc:format>image/svg+xml</dc:format>
        <dc:type
           rdf:resource="http://purl.org/dc/dcmitype/StillImage" />
        <dc:title>drop</dc:title>
      </cc:Work>
    </rdf:RDF>
  </metadata>
  <sodipodi:namedview
     pagecolor="#ffffff"
     bordercolor="#666666"
     borderopacity="1"
     objecttolerance="10"
     gridtolerance="10"
     guidetolerance="10"
     inkscape:pageopacity="0"
     inkscape:pageshadow="2"
     inkscape:window-width="1081"
     inkscape:window-height="480"
     id="namedview13"
     showgrid="false"
     inkscape:zoom="14.75"
     inkscape:cx="1.0508475"
     inkscape:cy="8"
     inkscape:window-x="75"
     inkscape:window-y="34"
     inkscape:window-maximized="0"
     inkscape:current-layer="svg2" />
  <!-- Generator: Sketch 48.1 (47250) - http://www.bohemiancoding.com/sketch -->
  <title
     id="title4">drop</title>
  <desc
     id="desc6">Created with Sketch.</desc>
  <defs
     id="defs8" />
  <g
     id="Icon"
     stroke="none"
     stroke-width="1"
     fill="none"
     fill-rule="evenodd"
     style="fill:#ffffff">
    <g
       id="drop"
       fill="#000000"
       fill-rule="nonzero"
       style="fill:#ffffff">
      <path
         d="M6.6176506,4.83925591 C5.98880478,5.70419472 5.44613958,6.53632564 5.01641393,7.30983182 C4.34751042,8.51385812 4,9.50151933 4,10.1052632 C4,12.5172683 5.59315983,14 8,14 C10.4068402,14 12,12.5172683 12,10.1052632 C12,9.50151933 11.6524896,8.51385812 10.9835861,7.30983182 C10.5538604,6.53632564 10.0111952,5.70419472 9.3823494,4.83925591 C8.94019064,4.23109368 8.47363539,3.63116436 8,3.05339624 C7.52636466,3.63116431 7.05980938,4.23109365 6.6176506,4.83925591 Z M8,16 C4.6862915,16 2,13.8105263 2,10.1052632 C2,6.4 8,0 8,0 C8,0 14,6.4 14,10.1052632 C14,13.8105263 11.3137085,16 8,16 Z"
         id="Oval"
         style="fill:#ffffff" />
    </g>
  </g>
</svg>
