<?xml version="1.0" encoding="UTF-8"?>
<svg width="16px" height="16px" viewBox="0 0 16 16" version="1.1" xmlns="http://www.w3.org/2000/svg" xmlns:xlink="http://www.w3.org/1999/xlink">
    <g id="eye-hide" stroke="none" stroke-width="1" fill="none" fill-rule="evenodd">
        <path d="M2.26362616,5.09205329 L4.13548648,6.96391361 C4.04711451,7.29436687 4,7.64168134 4,8 C4,10.209139 5.790861,12 8,12 C8.35831866,12 8.70563313,11.9528855 9.03608639,11.8645135 L10.6609449,13.489372 C9.90848105,13.8178935 9.04529378,14 8,14 C4,14 2.66666667,11.3333333 0,8 C0.84619777,6.94225279 1.55813604,5.95163532 2.26362616,5.09205329 Z M5.33905514,2.51062802 C6.09151895,2.18210652 6.95470622,2 8,2 C12,2 13.3333333,4.66666667 16,8 C15.1538022,9.05774721 14.441864,10.0483647 13.7363738,10.9079467 L11.8645135,9.03608639 C11.9528855,8.70563313 12,8.35831866 12,8 C12,5.790861 10.209139,4 8,4 C7.64168134,4 7.29436687,4.04711451 6.96391361,4.13548648 L5.33905514,2.51062802 Z M1,2.41421356 L2.41421356,1 L15.3137085,13.8994949 L13.8994949,15.3137085 L1,2.41421356 Z" fill="#FFFFFF" fill-rule="nonzero"></path>
    </g>
</svg>