<?xml version="1.0" encoding="UTF-8"?>
<svg width="16px" height="16px" viewBox="0 0 16 16" version="1.1" xmlns="http://www.w3.org/2000/svg" xmlns:xlink="http://www.w3.org/1999/xlink">
    <g id="Icon" stroke="none" stroke-width="1" fill="none" fill-rule="evenodd">
        <g id="eye" fill="#FFFFFF" fill-rule="nonzero">
            <path d="M0,8 C2.66666667,4.66666667 4,2 8,2 C12,2 13.3333333,4.66666667 16,8 C13.3333333,11.3333333 12,14 8,14 C4,14 2.66666667,11.3333333 0,8 Z M8,12 C10.209139,12 12,10.209139 12,8 C12,5.790861 10.209139,4 8,4 C5.790861,4 4,5.790861 4,8 C4,10.209139 5.790861,12 8,12 Z M8,10 C6.8954305,10 6,9.1045695 6,8 C6,6.8954305 6.8954305,6 8,6 C9.1045695,6 10,6.8954305 10,8 C10,9.1045695 9.1045695,10 8,10 Z" id="Combined-Shape"></path>
        </g>
    </g>
</svg>