<?xml version="1.0" encoding="UTF-8"?>
<svg width="16px" height="16px" viewBox="0 0 16 16" version="1.1" xmlns="http://www.w3.org/2000/svg" xmlns:xlink="http://www.w3.org/1999/xlink">
    <path d="M2,2 L5,2 L5,5 L2,5 L2,2 Z M7,2 L10,2 L10,5 L7,5 L7,2 Z M12,2 L15,2 L15,5 L12,5 L12,2 Z M2,7 L5,7 L5,10 L2,10 L2,7 Z M7,7 L10,7 L10,10 L7,10 L7,7 Z M12,7 L15,7 L15,10 L12,10 L12,7 Z M2,12 L5,12 L5,15 L2,15 L2,12 Z M7,12 L10,12 L10,15 L7,15 L7,12 Z M12,12 L15,12 L15,15 L12,15 L12,12 Z" id="Grid" fill="#FFFFFF"></path>
</svg>