<?xml version="1.0" encoding="UTF-8"?>
<svg width="16px" height="16px" viewBox="0 0 16 16" version="1.1" xmlns="http://www.w3.org/2000/svg" xmlns:xlink="http://www.w3.org/1999/xlink">
    <g id="Icons" stroke="none" stroke-width="1" fill="none" fill-rule="evenodd">
        <g id="grid" fill-rule="nonzero" fill="#FFFFFF">
            <path d="M2,5 L5,5 L5,2 L2,2 L2,5 Z M0,1.00292933 C0,0.449026756 0.437881351,0 1.00292933,0 L5.99707067,0 C6.55097324,0 7,0.437881351 7,1.00292933 L7,5.99707067 C7,6.55097324 6.56211865,7 5.99707067,7 L1.00292933,7 C0.449026756,7 0,6.56211865 0,5.99707067 L0,1.00292933 Z M11,5 L14,5 L14,2 L11,2 L11,5 Z M9,1.00292933 C9,0.449026756 9.43788135,0 10.0029293,0 L14.9970707,0 C15.5509732,0 16,0.437881351 16,1.00292933 L16,5.99707067 C16,6.55097324 15.5621186,7 14.9970707,7 L10.0029293,7 C9.44902676,7 9,6.56211865 9,5.99707067 L9,1.00292933 Z M11,14 L14,14 L14,11 L11,11 L11,14 Z M9,10.0029293 C9,9.44902676 9.43788135,9 10.0029293,9 L14.9970707,9 C15.5509732,9 16,9.43788135 16,10.0029293 L16,14.9970707 C16,15.5509732 15.5621186,16 14.9970707,16 L10.0029293,16 C9.44902676,16 9,15.5621186 9,14.9970707 L9,10.0029293 Z M2,14 L5,14 L5,11 L2,11 L2,14 Z M0,10.0029293 C0,9.44902676 0.437881351,9 1.00292933,9 L5.99707067,9 C6.55097324,9 7,9.43788135 7,10.0029293 L7,14.9970707 C7,15.5509732 6.56211865,16 5.99707067,16 L1.00292933,16 C0.449026756,16 0,15.5621186 0,14.9970707 L0,10.0029293 Z" id="Combined-Shape"></path>
        </g>
    </g>
</svg>