<?xml version="1.0" encoding="UTF-8"?>
<svg width="16px" height="16px" viewBox="0 0 16 16" version="1.1" xmlns="http://www.w3.org/2000/svg" xmlns:xlink="http://www.w3.org/1999/xlink">
    <g id="Page-1" stroke="none" stroke-width="1" fill="none" fill-rule="evenodd">
        <g id="h1" fill="#FFFFFF">
            <path d="M8.0625,14 L5.9375,14 L5.9375,8.9921875 L3.1328125,8.9921875 L3.1328125,14 L1.0078125,14 L1.0078125,2.578125 L3.1328125,2.578125 L3.1328125,7.1171875 L5.9375,7.1171875 L5.9375,2.578125 L8.0625,2.578125 L8.0625,14 Z M14.765625,14 L12.671875,14 L12.671875,7.296875 C12.671875,6.56770469 12.708333,5.72917141 12.78125,4.78125 C12.7447915,4.83333359 12.6106782,4.99218617 12.3789062,5.2578125 C12.1471343,5.52343883 11.6953159,5.99999656 11.0234375,6.6875 L9.8359375,5.390625 L12.875,2.578125 L14.765625,2.578125 L14.765625,14 Z" id="H1"></path>
        </g>
    </g>
</svg>