<?xml version="1.0" encoding="UTF-8"?>
<svg width="16px" height="16px" viewBox="0 0 16 16" version="1.1" xmlns="http://www.w3.org/2000/svg" xmlns:xlink="http://www.w3.org/1999/xlink">
    <g id="Page-1" stroke="none" stroke-width="1" fill="none" fill-rule="evenodd">
        <g id="h2" fill="#FFFFFF">
            <path d="M8.0625,14 L5.9375,14 L5.9375,8.9921875 L3.1328125,8.9921875 L3.1328125,14 L1.0078125,14 L1.0078125,2.578125 L3.1328125,2.578125 L3.1328125,7.1171875 L5.9375,7.1171875 L5.9375,2.578125 L8.0625,2.578125 L8.0625,14 Z M15.7734375,14 L9.6484375,14 L9.6484375,12.4140625 L11.6796875,9.5390625 C12.236982,8.74739188 12.6197906,8.16015816 12.828125,7.77734375 C13.0364594,7.39452934 13.1901037,7.02734551 13.2890625,6.67578125 C13.3880213,6.32421699 13.4375,5.96093938 13.4375,5.5859375 C13.4375,5.14843531 13.3398447,4.82031359 13.1445312,4.6015625 C12.9492178,4.38281141 12.6953141,4.2734375 12.3828125,4.2734375 C12.1067695,4.2734375 11.8489595,4.34635344 11.609375,4.4921875 C11.3697905,4.63802156 11.0781267,4.90103977 10.734375,5.28125 L9.546875,4.03125 C10.0937527,3.41145523 10.6015602,2.98698031 11.0703125,2.7578125 C11.5390648,2.52864469 12.0468723,2.4140625 12.59375,2.4140625 C13.5156296,2.4140625 14.2356745,2.68489313 14.7539062,3.2265625 C15.272138,3.76823187 15.53125,4.52082852 15.53125,5.484375 C15.53125,5.92187719 15.4843755,6.33593555 15.390625,6.7265625 C15.2968745,7.11718945 15.1549489,7.50911262 14.9648438,7.90234375 C14.7747386,8.29557488 14.5364598,8.70442496 14.25,9.12890625 C13.9635402,9.55338754 13.2239643,10.5260341 12.03125,12.046875 L12.03125,12.109375 L15.7734375,12.109375 L15.7734375,14 Z" id="H2"></path>
        </g>
    </g>
</svg>