<?xml version="1.0" encoding="UTF-8"?>
<svg width="16px" height="16px" viewBox="0 0 16 16" version="1.1" xmlns="http://www.w3.org/2000/svg" xmlns:xlink="http://www.w3.org/1999/xlink">
    <g id="Page-1" stroke="none" stroke-width="1" fill="none" fill-rule="evenodd">
        <g id="h3" fill="#FFFFFF">
            <path d="M8.0625,14 L5.9375,14 L5.9375,8.9921875 L3.1328125,8.9921875 L3.1328125,14 L1.0078125,14 L1.0078125,2.578125 L3.1328125,2.578125 L3.1328125,7.1171875 L5.9375,7.1171875 L5.9375,2.578125 L8.0625,2.578125 L8.0625,14 Z M15.546875,5.1484375 C15.546875,5.86719109 15.3697934,6.47004965 15.015625,6.95703125 C14.6614566,7.44401285 14.1614616,7.78124906 13.515625,7.96875 L13.515625,8.03125 C14.2343786,8.14583391 14.7903626,8.42708109 15.1835938,8.875 C15.5768249,9.32291891 15.7734375,9.93228781 15.7734375,10.703125 C15.7734375,11.7552136 15.4466179,12.5937469 14.7929688,13.21875 C14.1393196,13.8437531 13.2447973,14.15625 12.109375,14.15625 C11.0989533,14.15625 10.2500034,13.9765643 9.5625,13.6171875 L9.5625,11.7109375 C9.90625172,11.9192719 10.2786438,12.0833327 10.6796875,12.203125 C11.0807312,12.3229173 11.466144,12.3828125 11.8359375,12.3828125 C12.4401072,12.3828125 12.8958318,12.243491 13.203125,11.9648438 C13.5104182,11.6861965 13.6640625,11.2447947 13.6640625,10.640625 C13.6640625,9.4999943 12.9635487,8.9296875 11.5625,8.9296875 L10.9140625,8.9296875 L10.9140625,7.34375 L11.53125,7.34375 C12.1510448,7.34375 12.6263004,7.19791813 12.9570312,6.90625 C13.2877621,6.61458187 13.453125,6.17969039 13.453125,5.6015625 C13.453125,5.14843523 13.3476573,4.80599074 13.1367188,4.57421875 C12.9257802,4.34244676 12.6276061,4.2265625 12.2421875,4.2265625 C11.6536429,4.2265625 11.080732,4.47656 10.5234375,4.9765625 L9.5625,3.5703125 C10.3333372,2.79947531 11.3046816,2.4140625 12.4765625,2.4140625 C13.440109,2.4140625 14.1927056,2.65754965 14.734375,3.14453125 C15.2760444,3.63151285 15.546875,4.29947492 15.546875,5.1484375 Z" id="H3"></path>
        </g>
    </g>
</svg>