<?xml version="1.0" encoding="UTF-8"?>
<svg width="16px" height="16px" viewBox="0 0 16 16" version="1.1" xmlns="http://www.w3.org/2000/svg" xmlns:xlink="http://www.w3.org/1999/xlink">
    <g id="Page-1" stroke="none" stroke-width="1" fill="none" fill-rule="evenodd">
        <g id="h4" fill="#FFFFFF">
            <path d="M8.0625,14 L5.9375,14 L5.9375,8.9921875 L3.1328125,8.9921875 L3.1328125,14 L1.0078125,14 L1.0078125,2.578125 L3.1328125,2.578125 L3.1328125,7.1171875 L5.9375,7.1171875 L5.9375,2.578125 L8.0625,2.578125 L8.0625,14 Z M16.2421875,11.6015625 L15.0859375,11.6015625 L15.0859375,14 L13.0859375,14 L13.0859375,11.6015625 L9.359375,11.6015625 L9.359375,9.875 L12.8125,2.578125 L15.0859375,2.578125 L15.0859375,9.84375 L16.2421875,9.84375 L16.2421875,11.6015625 Z M13.0859375,9.84375 L13.0859375,7.4375 L13.125,6.375 L13.1796875,5.359375 L13.1171875,5.359375 C12.9348949,5.92708617 12.7369802,6.44010187 12.5234375,6.8984375 L11.1484375,9.84375 L13.0859375,9.84375 Z" id="H4"></path>
        </g>
    </g>
</svg>