<?xml version="1.0" encoding="UTF-8"?>
<svg width="16px" height="16px" viewBox="0 0 16 16" version="1.1" xmlns="http://www.w3.org/2000/svg" xmlns:xlink="http://www.w3.org/1999/xlink">
    <!-- Generator: Sketch 48.1 (47250) - http://www.bohemiancoding.com/sketch -->
    <title>highlight</title>
    <desc>Created with Sketch.</desc>
    <defs></defs>
    <g id="Icon" stroke="none" stroke-width="1" fill="none" fill-rule="evenodd">
        <g id="highlight" fill="#FFFFFF">
            <path d="M0,0 L16,0 L16,16 L0,16 L0,0 Z M10.9415499,15.3359375 L10.1212374,11.7324219 L6.40053432,11.7324219 L5.58022182,15.3359375 L2.92397182,15.3359375 L6.45912807,1 L10.0626437,1 L13.6075656,15.3359375 L10.9415499,15.3359375 Z M9.62319057,9.37890625 L8.86147182,6.05859375 C8.81589867,5.85676982 8.71336063,5.35058999 8.55385463,4.54003906 C8.39434862,3.72948813 8.29832094,3.18750137 8.26576869,2.9140625 C8.18113285,3.47396113 8.07371205,4.09081694 7.94350307,4.76464844 C7.81329408,5.43847993 7.4747558,6.97655049 6.92787807,9.37890625 L9.62319057,9.37890625 Z" id="A"></path>
        </g>
    </g>
</svg>