<?xml version="1.0" encoding="UTF-8"?>
<svg width="20px" height="20px" viewBox="0 0 20 20" version="1.1" xmlns="http://www.w3.org/2000/svg" xmlns:xlink="http://www.w3.org/1999/xlink">
    <path d="M1.5,1 L5.5,1 C5.77614237,1 6,1.22385763 6,1.5 L6,5.5 C6,5.77614237 5.77614237,6 5.5,6 L1.5,6 C1.22385763,6 1,5.77614237 1,5.5 L1,1.5 L1,1.5 C1,1.22385763 1.22385763,1 1.5,1 L1.5,1 Z M8.5,1 L12.5,1 C12.7761424,1 13,1.22385763 13,1.5 L13,5.5 C13,5.77614237 12.7761424,6 12.5,6 L8.5,6 C8.22385763,6 8,5.77614237 8,5.5 L8,1.5 L8,1.5 C8,1.22385763 8.22385763,1 8.5,1 Z M15.5,1 L19.5,1 C19.7761424,1 20,1.22385763 20,1.5 L20,5.5 C20,5.77614237 19.7761424,6 19.5,6 L15.5,6 C15.2238576,6 15,5.77614237 15,5.5 L15,1.5 L15,1.5 C15,1.22385763 15.2238576,1 15.5,1 Z M1.5,8 L5.5,8 C5.77614237,8 6,8.22385763 6,8.5 L6,12.5 C6,12.7761424 5.77614237,13 5.5,13 L1.5,13 C1.22385763,13 1,12.7761424 1,12.5 L1,8.5 C1,8.22385763 1.22385763,8 1.5,8 L1.5,8 Z M8.5,8 L12.5,8 C12.7761424,8 13,8.22385763 13,8.5 L13,12.5 C13,12.7761424 12.7761424,13 12.5,13 L8.5,13 C8.22385763,13 8,12.7761424 8,12.5 L8,8.5 C8,8.22385763 8.22385763,8 8.5,8 Z M15.5,8 L19.5,8 C19.7761424,8 20,8.22385763 20,8.5 L20,12.5 C20,12.7761424 19.7761424,13 19.5,13 L15.5,13 C15.2238576,13 15,12.7761424 15,12.5 L15,8.5 C15,8.22385763 15.2238576,8 15.5,8 Z M1.5,15 L5.5,15 C5.77614237,15 6,15.2238576 6,15.5 L6,19.5 C6,19.7761424 5.77614237,20 5.5,20 L1.5,20 C1.22385763,20 1,19.7761424 1,19.5 L1,15.5 C1,15.2238576 1.22385763,15 1.5,15 L1.5,15 Z M8.5,15 L12.5,15 C12.7761424,15 13,15.2238576 13,15.5 L13,19.5 C13,19.7761424 12.7761424,20 12.5,20 L8.5,20 C8.22385763,20 8,19.7761424 8,19.5 L8,15.5 C8,15.2238576 8.22385763,15 8.5,15 Z M15.5,15 L19.5,15 C19.7761424,15 20,15.2238576 20,15.5 L20,19.5 C20,19.7761424 19.7761424,20 19.5,20 L15.5,20 C15.2238576,20 15,19.7761424 15,19.5 L15,15.5 C15,15.2238576 15.2238576,15 15.5,15 Z" id="Combined-Shape" fill="#FFFFFF"></path>
</svg>