<?xml version="1.0" encoding="UTF-8"?>
<svg width="20px" height="20px" viewBox="0 0 20 20" version="1.1" xmlns="http://www.w3.org/2000/svg" xmlns:xlink="http://www.w3.org/1999/xlink">
    <g id="publishing" stroke="none" stroke-width="1" fill="none" fill-rule="evenodd">
        <path d="M12,0 L12,2 L2,2 L2,18 L18,18 L18,8 L20,8 L20,19 C20,19.5522847 19.5522847,20 19,20 L1,20 C0.44771525,20 6.76353751e-17,19.5522847 0,19 L0,1 C-6.76353751e-17,0.44771525 0.44771525,1.01453063e-16 1,0 L12,0 Z" id="Rectangle-9" fill="#FFFFFF" fill-rule="nonzero"></path>
        <polygon id="Combined-Shape" fill="#FFFFFF" points="18 3.3137085 10.4142136 10.8994949 9 9.48528137 16.4852814 2 14 2 14 0 20 5.5109106e-16 20 6 18 6"></polygon>
    </g>
</svg>