<?xml version="1.0" encoding="UTF-8"?>
<svg width="16px" height="16px" viewBox="0 0 16 16" version="1.1" xmlns="http://www.w3.org/2000/svg" xmlns:xlink="http://www.w3.org/1999/xlink">
    <g id="Page-1" stroke="none" stroke-width="1" fill="none" fill-rule="evenodd">
        <g id="link2" fill="#FFFFFF">
            <path d="M7,5 L2,5 L2,11 L7,11 L7,12.0046024 C7,12.5543453 6.56211865,13 5.99707067,13 L1.00292933,13 C0.449026756,13 0,12.5443356 0,12.0046024 L0,3.99539757 C0,3.44565467 0.437881351,3 1.00292933,3 L5.99707067,3 C6.55097324,3 7,3.4556644 7,3.99539757 L7,5 Z M9,11 L14,11 L14,5 L9,5 L9,3.99539757 C9,3.44565467 9.43788135,3 10.0029293,3 L14.9970707,3 C15.5509732,3 16,3.4556644 16,3.99539757 L16,12.0046024 C16,12.5543453 15.5621186,13 14.9970707,13 L10.0029293,13 C9.44902676,13 9,12.5443356 9,12.0046024 L9,11 Z M4,7 L12,7 L12,9 L4,9 L4,7 Z" id="Chain"></path>
        </g>
    </g>
</svg>