<?xml version="1.0" encoding="UTF-8"?>
<svg width="16px" height="16px" viewBox="0 0 16 16" version="1.1" xmlns="http://www.w3.org/2000/svg" xmlns:xlink="http://www.w3.org/1999/xlink">
    <!-- Generator: Sketch 47.1 (45422) - http://www.bohemiancoding.com/sketch -->
    <title>lock-open</title>
    <desc>Created with Sketch.</desc>
    <defs></defs>
    <g id="Icons" stroke="none" stroke-width="1" fill="none" fill-rule="evenodd">
        <g id="lock-open" fill-rule="nonzero" fill="#FFFFFF">
            <path d="M4,14 L12,14 L12,9 L4,9 L4,14 Z M2,7.99754465 C2,7.44661595 2.45576096,7 3.00247329,7 L12.9975267,7 C13.5511774,7 14,7.4463114 14,7.99754465 L14,15.0024554 C14,15.553384 13.544239,16 12.9975267,16 L3.00247329,16 C2.44882258,16 2,15.5536886 2,15.0024554 L2,7.99754465 Z M6,4 L6,7 L4,7 L4,4 C4,3.50464455 4.09471762,2.82267772 4.38942308,2.11538462 C4.92415853,0.832019536 6.46418295,2.22044605e-16 8,0 C9.53581705,0 11.0758415,0.832019536 11.6105769,2.11538462 C11.9052824,2.82267772 12,3.50464455 12,4 L10,4 C10,3.94959103 9.99291893,3.83062902 9.97044523,3.66881837 C9.932615,3.39644075 9.86501203,3.12602888 9.76442308,2.88461538 C9.51790853,2.29298046 8.65168295,2 8,2 C7.34831705,2 6.48209147,2.29298046 6.23557692,2.88461538 C6.13498797,3.12602888 6.067385,3.39644075 6.02955477,3.66881837 C6.00708107,3.83062902 6,3.94959103 6,4 Z" id="Combined-Shape"></path>
        </g>
    </g>
</svg>