<?xml version="1.0" encoding="UTF-8"?>
<svg width="16px" height="16px" viewBox="0 0 16 16" version="1.1" xmlns="http://www.w3.org/2000/svg" xmlns:xlink="http://www.w3.org/1999/xlink">
    <!-- Generator: Sketch 47.1 (45422) - http://www.bohemiancoding.com/sketch -->
    <title>lock</title>
    <desc>Created with Sketch.</desc>
    <defs></defs>
    <g id="Icons" stroke="none" stroke-width="1" fill="none" fill-rule="evenodd">
        <g id="lock" fill-rule="nonzero" fill="#FFFFFF">
            <path d="M4,13 L12,13 L12,8 L4,8 L4,13 Z M2,6.99754465 C2,6.44661595 2.45576096,6 3.00247329,6 L12.9975267,6 C13.5511774,6 14,6.4463114 14,6.99754465 L14,14.0024554 C14,14.553384 13.544239,15 12.9975267,15 L3.00247329,15 C2.44882258,15 2,14.5536886 2,14.0024554 L2,6.99754465 Z M6,5 L6,6 L4,6 L4,5 C4,4.50464455 4.09471762,3.82267772 4.38942308,3.11538462 C4.92415853,1.83201954 6.46418295,1 8,1 C9.53581705,1 11.0758415,1.83201954 11.6105769,3.11538462 C11.9052824,3.82267772 12,4.50464455 12,5 L12,6 L10,6 L10,5 C10,4.94959103 9.99291893,4.83062902 9.97044523,4.66881837 C9.932615,4.39644075 9.86501203,4.12602888 9.76442308,3.88461538 C9.51790853,3.29298046 8.65168295,3 8,3 C7.34831705,3 6.48209147,3.29298046 6.23557692,3.88461538 C6.13498797,4.12602888 6.067385,4.39644075 6.02955477,4.66881837 C6.00708107,4.83062902 6,4.94959103 6,5 Z" id="Combined-Shape"></path>
        </g>
    </g>
</svg>