<?xml version="1.0" encoding="UTF-8"?>
<svg width="16px" height="16px" viewBox="0 0 16 16" version="1.1" xmlns="http://www.w3.org/2000/svg" xmlns:xlink="http://www.w3.org/1999/xlink">
    <!-- Generator: Sketch 48.1 (47250) - http://www.bohemiancoding.com/sketch -->
    <title>map-marker</title>
    <desc>Created with Sketch.</desc>
    <defs></defs>
    <g id="Icon" stroke="none" stroke-width="1" fill="none" fill-rule="evenodd">
        <g id="map-marker" fill="#FFFFFF">
            <path d="M8,16 C4.6862915,16 2,13.8105263 2,10.1052632 C2,6.4 8,0 8,0 C8,0 14,6.4 14,10.1052632 C14,13.8105263 11.3137085,16 8,16 Z M8,12 C9.1045695,12 10,11.1045695 10,10 C10,8.8954305 9.1045695,8 8,8 C6.8954305,8 6,8.8954305 6,10 C6,11.1045695 6.8954305,12 8,12 Z" id="Path" transform="translate(8.000000, 8.000000) scale(1, -1) translate(-8.000000, -8.000000) "></path>
        </g>
    </g>
</svg>