<?xml version="1.0" encoding="UTF-8"?>
<svg width="28px" height="28px" viewBox="0 0 28 28" version="1.1" xmlns="http://www.w3.org/2000/svg" xmlns:xlink="http://www.w3.org/1999/xlink">
    <path d="M16,4 L4.99180311,4 C4.45530558,4 4,4.44404538 4,4.99180311 L4,23.0081969 C4,23.5446944 4.44404538,24 4.99180311,24 L23.0081969,24 C23.5446944,24 24,23.5559546 24,23.0081969 L24,12 L22,12 L22,22 L6,22 L6,6 L16,6 L16,4 Z" id="shape" fill="#FFFFFF" fill-rule="nonzero"></path>
    <path d="M22,10 C24.209139,10 26,8.63157895 26,6.31578947 C26,4 22,0 22,0 C22,0 18,4 18,6.31578947 C18,8.63157895 19.790861,10 22,10 Z" id="mode" fill="#00BFFF"></path>
</svg>
