<?xml version="1.0" encoding="UTF-8"?>
<svg width="28px" height="28px" viewBox="0 0 28 28" version="1.1" xmlns="http://www.w3.org/2000/svg" xmlns:xlink="http://www.w3.org/1999/xlink">
    <path d="M16,4 L4.99180311,4 C4.45530558,4 4,4.44404538 4,4.99180311 L4,23.0081969 C4,23.5446944 4.44404538,24 4.99180311,24 L23.0081969,24 C23.5446944,24 24,23.5559546 24,23.0081969 L24,12 L22,12 L22,22 L6,22 L6,6 L16,6 L16,4 Z" id="shape" fill-rule="nonzero" fill="#FFFFFF"></path>
    <path d="M18,4 L20,4 L20,10 L18,10 L18,4 Z M18,0 L20,0 L20,2 L18,2 L18,0 Z M26,0 L28,0 L28,6 L26,6 L26,0 Z M26,8 L28,8 L28,10 L26,10 L26,8 Z M22,0 L24,0 L24,10 L22,10 L22,0 Z" id="mode" fill="#FFFFFF"></path>
</svg>