<?xml version="1.0" encoding="UTF-8" standalone="no"?>
<!-- Generator: Adobe Illustrator 16.0.0, SVG Export Plug-In . SVG Version: 6.00 Build 0)  -->

<svg
   xmlns:dc="http://purl.org/dc/elements/1.1/"
   xmlns:cc="http://creativecommons.org/ns#"
   xmlns:rdf="http://www.w3.org/1999/02/22-rdf-syntax-ns#"
   xmlns:svg="http://www.w3.org/2000/svg"
   xmlns="http://www.w3.org/2000/svg"
   xmlns:sodipodi="http://sodipodi.sourceforge.net/DTD/sodipodi-0.dtd"
   xmlns:inkscape="http://www.inkscape.org/namespaces/inkscape"
   version="1.1"
   id="Capa_1"
   x="0px"
   y="0px"
   width="15.999998"
   height="16.001644"
   viewBox="0 0 1.5109998 1.5111553"
   xml:space="preserve"
   inkscape:version="0.91 r13725"
   sodipodi:docname="nut-icon.svg"><metadata
     id="metadata47"><rdf:RDF><cc:Work
         rdf:about=""><dc:format>image/svg+xml</dc:format><dc:type
           rdf:resource="http://purl.org/dc/dcmitype/StillImage" /><dc:title></dc:title></cc:Work></rdf:RDF></metadata><defs
     id="defs45" /><sodipodi:namedview
     pagecolor="#ffffff"
     bordercolor="#666666"
     borderopacity="1"
     objecttolerance="10"
     gridtolerance="10"
     guidetolerance="10"
     inkscape:pageopacity="0"
     inkscape:pageshadow="2"
     inkscape:window-width="1626"
     inkscape:window-height="792"
     id="namedview43"
     showgrid="false"
     fit-margin-top="0"
     fit-margin-left="0"
     fit-margin-right="0"
     fit-margin-bottom="0"
     inkscape:zoom="0.4609375"
     inkscape:cx="264.65679"
     inkscape:cy="256.00001"
     inkscape:window-x="75"
     inkscape:window-y="34"
     inkscape:window-maximized="0"
     inkscape:current-layer="Capa_1" /><g
     id="g3"
     transform="matrix(0.03125321,0,0,0.03125321,-6.250642e-5,0)"><g
       id="g5"><g
         id="g7"><circle
           cx="24.177999"
           cy="24.176001"
           r="4.1669998"
           id="circle9"
           style="fill:#ffffff" /><path
           d="m 47.369,20.046 -5.824,-1.092 c -0.354,-1.178 -0.818,-2.308 -1.393,-3.371 l 3.37,-4.927 C 43.834,10.2 43.769,9.514 43.378,9.124 L 39.223,4.968 C 38.832,4.577 38.147,4.514 37.693,4.825 l -4.93,3.372 C 31.669,7.607 30.504,7.134 29.289,6.777 L 28.203,0.983 C 28.101,0.44 27.573,0 27.019,0 L 21.143,0 C 20.59,0 20.061,0.44 19.958,0.983 L 18.86,6.834 C 17.695,7.19 16.578,7.654 15.526,8.226 L 10.66,4.897 C 10.204,4.585 9.518,4.649 9.128,5.04 L 4.972,9.196 C 4.581,9.587 4.518,10.272 4.829,10.728 l 3.35,4.896 c -0.564,1.052 -1.021,2.168 -1.371,3.331 l -5.824,1.091 c -0.542,0.103 -0.982,0.632 -0.982,1.185 l 0,5.876 c 0,0.553 0.44,1.082 0.982,1.186 l 5.82,1.091 c 0.355,1.188 0.823,2.328 1.401,3.399 l -3.312,4.842 c -0.312,0.456 -0.248,1.142 0.143,1.531 l 4.155,4.155 c 0.391,0.392 1.076,0.454 1.532,0.145 l 4.84,-3.313 c 1.041,0.563 2.146,1.021 3.299,1.375 l 1.097,5.853 c 0.103,0.543 0.632,0.981 1.185,0.981 l 5.877,0 c 0.554,0 1.081,-0.438 1.185,-0.981 l 1.087,-5.795 c 1.2,-0.354 2.354,-0.821 3.438,-1.401 l 4.901,3.354 c 0.456,0.312 1.142,0.248 1.532,-0.145 l 4.153,-4.153 c 0.393,-0.392 0.455,-1.075 0.145,-1.532 l -3.335,-4.873 c 0.589,-1.084 1.062,-2.237 1.423,-3.44 l 5.819,-1.091 c 0.541,-0.104 0.98,-0.633 0.98,-1.186 l 0,-5.876 c 0.004,-0.555 -0.437,-1.084 -0.98,-1.187 z M 24.178,34.261 c -5.568,0 -10.083,-4.515 -10.083,-10.086 0,-5.567 4.515,-10.083 10.083,-10.083 5.57,0 10.086,4.516 10.086,10.083 0,5.571 -4.518,10.086 -10.086,10.086 z"
           id="path11"
           inkscape:connector-curvature="0"
           style="fill:#ffffff" /></g></g></g><g
     id="g13"
     transform="translate(-0.002,-46.840845)" /><g
     id="g15"
     transform="translate(-0.002,-46.840845)" /><g
     id="g17"
     transform="translate(-0.002,-46.840845)" /><g
     id="g19"
     transform="translate(-0.002,-46.840845)" /><g
     id="g21"
     transform="translate(-0.002,-46.840845)" /><g
     id="g23"
     transform="translate(-0.002,-46.840845)" /><g
     id="g25"
     transform="translate(-0.002,-46.840845)" /><g
     id="g27"
     transform="translate(-0.002,-46.840845)" /><g
     id="g29"
     transform="translate(-0.002,-46.840845)" /><g
     id="g31"
     transform="translate(-0.002,-46.840845)" /><g
     id="g33"
     transform="translate(-0.002,-46.840845)" /><g
     id="g35"
     transform="translate(-0.002,-46.840845)" /><g
     id="g37"
     transform="translate(-0.002,-46.840845)" /><g
     id="g39"
     transform="translate(-0.002,-46.840845)" /><g
     id="g41"
     transform="translate(-0.002,-46.840845)" /></svg>