<?xml version="1.0" encoding="UTF-8"?>
<svg width="16px" height="16px" viewBox="0 0 16 16" version="1.1" xmlns="http://www.w3.org/2000/svg" xmlns:xlink="http://www.w3.org/1999/xlink">
    <g id="Page-1" stroke="none" stroke-width="1" fill="none" fill-rule="evenodd">
        <g id="img" fill-rule="nonzero" fill="#FFFFFF">
            <path d="M14,10.5857864 L14,2 L2,2 L2,14 L4.58578644,14 L11,7.58578644 L14,10.5857864 Z M14,13.4142136 L11,10.4142136 L7.41421356,14 L14,14 L14,13.4142136 L14,13.4142136 Z M0,1.15068054 C0,0.515177227 0.444630861,0 1.00087166,0 L14.9991283,0 C15.5518945,0 16,0.514227152 16,1.15068054 L16,14.8493195 C16,15.4848228 15.5553691,16 14.9991283,16 L1.00087166,16 C0.448105505,16 0,15.4857728 0,14.8493195 L0,1.15068054 Z M4,6 C4,4.8954305 4.88772964,4 6,4 C7.1045695,4 8,4.88772964 8,6 C8,7.1045695 7.11227036,8 6,8 C4.8954305,8 4,7.11227036 4,6 Z" id="Combined-Shape"></path>
        </g>
    </g>
</svg>