<?xml version="1.0" encoding="UTF-8"?>
<svg width="16px" height="16px" viewBox="0 0 16 16" version="1.1" xmlns="http://www.w3.org/2000/svg" xmlns:xlink="http://www.w3.org/1999/xlink">
    <!-- Generator: Sketch 48.1 (47250) - http://www.bohemiancoding.com/sketch -->
    <title>rtl</title>
    <desc>Created with Sketch.</desc>
    <defs></defs>
    <g id="Icon" stroke="none" stroke-width="1" fill="none" fill-rule="evenodd">
        <g id="rtl" fill="#FFFFFF">
            <path d="M1.93701172,9.04052734 L1.93701172,13.2080078 L-0.0551757812,13.2080078 L-0.0551757812,2.5 L2.55224609,2.5 C3.65576724,2.5 4.46996808,2.76122786 4.99487305,3.28369141 C5.51977802,3.80615496 5.78222656,4.60448682 5.78222656,5.67871094 C5.78222656,7.03125676 5.32568816,7.97607153 4.41259766,8.51318359 L6.47070313,13.2080078 L4.33935547,13.2080078 L2.64746094,9.04052734 L1.93701172,9.04052734 Z M1.93701172,7.32666016 L2.44970703,7.32666016 C2.91845937,7.32666016 3.25537007,7.19360485 3.46044922,6.92749023 C3.66552837,6.66137562 3.76806641,6.26465107 3.76806641,5.73730469 C3.76806641,5.19042695 3.65942491,4.80102655 3.44213867,4.5690918 C3.22485243,4.33715704 2.88916243,4.22119141 2.43505859,4.22119141 L1.93701172,4.22119141 L1.93701172,7.32666016 Z M9.57955217,13.2080078 L7.59468889,13.2080078 L7.59468889,4.25048828 L5.54390764,4.25048828 L5.54390764,2.5 L11.6303334,2.5 L11.6303334,4.25048828 L9.57955217,4.25048828 L9.57955217,13.2080078 Z M11.6190653,13.2080078 L11.6190653,2.5 L13.6112528,2.5 L13.6112528,11.4648438 L16.3724833,11.4648438 L16.3724833,13.2080078 L11.6190653,13.2080078 Z" id="RTL"></path>
        </g>
    </g>
</svg>