<?xml version="1.0" encoding="UTF-8"?>
<svg width="16px" height="16px" viewBox="0 0 16 16" version="1.1" xmlns="http://www.w3.org/2000/svg" xmlns:xlink="http://www.w3.org/1999/xlink">
    <!-- Generator: Sketch 48.2 (47327) - http://www.bohemiancoding.com/sketch -->
    <title>magnifier</title>
    <desc>Created with Sketch.</desc>
    <defs></defs>
    <g id="Icon" stroke="none" stroke-width="1" fill="none" fill-rule="evenodd">
        <g id="magnifier" fill="#FFFFFF" fill-rule="nonzero">
            <path d="M12.4199285,10.8391071 L15.6913254,14.110504 C16.1028915,14.5220701 16.1028915,15.1893506 15.6913254,15.6009167 C15.2797593,16.0124828 14.6124788,16.0124828 14.2009127,15.6009167 L10.9435171,12.3435211 C9.80152404,13.1958512 8.38480305,13.7004523 6.85022615,13.7004523 C3.06695072,13.7004523 0,10.6335016 0,6.85022615 C0,3.06695072 3.06695072,0 6.85022615,0 C10.6335016,0 13.7004523,3.06695072 13.7004523,6.85022615 C13.7004523,8.33837139 13.2259247,9.71568476 12.4199285,10.8391071 Z M6.85022615,11.5926904 C9.46941684,11.5926904 11.5926904,9.46941684 11.5926904,6.85022615 C11.5926904,4.23103547 9.46941684,2.10776189 6.85022615,2.10776189 C4.23103547,2.10776189 2.10776189,4.23103547 2.10776189,6.85022615 C2.10776189,9.46941684 4.23103547,11.5926904 6.85022615,11.5926904 Z" id="Oval-"></path>
        </g>
    </g>
</svg>