<?xml version="1.0" encoding="UTF-8"?>
<svg width="16px" height="16px" viewBox="0 0 16 16" version="1.1" xmlns="http://www.w3.org/2000/svg" xmlns:xlink="http://www.w3.org/1999/xlink">
    <g id="Page-1" stroke="none" stroke-width="1" fill="none" fill-rule="evenodd">
        <g id="settings" fill="#FFFFFF">
            <path d="M1,0 L3,0 L3,10 L1,10 L1,0 Z M0,14 C0,12.8954305 0.887729645,12 2,12 C3.1045695,12 4,12.8877296 4,14 C4,15.1045695 3.11227036,16 2,16 C0.8954305,16 0,15.1122704 0,14 Z M7,0 L9,0 L9,4 L7,4 L7,0 Z M6,8 C6,6.8954305 6.88772964,6 8,6 C9.1045695,6 10,6.88772964 10,8 C10,9.1045695 9.11227036,10 8,10 C6.8954305,10 6,9.11227036 6,8 Z M7,12 L9,12 L9,16 L7,16 L7,12 Z M13,6 L15,6 L15,16 L13,16 L13,6 Z M12,2 C12,0.8954305 12.8877296,0 14,0 C15.1045695,0 16,0.887729645 16,2 C16,3.1045695 15.1122704,4 14,4 C12.8954305,4 12,3.11227036 12,2 Z" id="Combined-Shape"></path>
        </g>
    </g>
</svg>