<?xml version="1.0" encoding="UTF-8"?>
<svg width="16px" height="16px" viewBox="0 0 16 16" version="1.1" xmlns="http://www.w3.org/2000/svg" xmlns:xlink="http://www.w3.org/1999/xlink">
    <!-- Generator: Sketch 48.1 (47250) - http://www.bohemiancoding.com/sketch -->
    <title>timer</title>
    <desc>Created with Sketch.</desc>
    <defs></defs>
    <g id="Icon" stroke="none" stroke-width="1" fill="none" fill-rule="evenodd">
        <g id="timer" fill="#FFFFFF" fill-rule="nonzero">
            <path d="M7,9 L3,9 L3,7 L7,7 L7,3 L9,3 L9,9 L7,9 Z M0,8 C0,3.581722 3.59071231,0 8,0 C12.418278,0 16,3.59071231 16,8 C16,12.418278 12.4092877,16 8,16 C3.581722,16 0,12.4092877 0,8 Z M2,8 C2,11.3081704 4.68974164,14 8,14 C11.3081704,14 14,11.3102584 14,8 C14,4.69182956 11.3102584,2 8,2 C4.69182956,2 2,4.68974164 2,8 Z" id="Combined-Shape"></path>
        </g>
    </g>
</svg>