<?xml version="1.0" encoding="UTF-8"?>
<svg width="16px" height="16px" viewBox="0 0 16 16" version="1.1" xmlns="http://www.w3.org/2000/svg" xmlns:xlink="http://www.w3.org/1999/xlink">
    <!-- Generator: Sketch 48.1 (47250) - http://www.bohemiancoding.com/sketch -->
    <title>uppercase</title>
    <desc>Created with Sketch.</desc>
    <defs></defs>
    <g id="Icon" stroke="none" stroke-width="1" fill="none" fill-rule="evenodd">
        <g id="uppercase" fill="#FFFFFF">
            <path d="M8.01757813,15.3359375 L7.19726563,11.7324219 L3.4765625,11.7324219 L2.65625,15.3359375 L1.42108547e-14,15.3359375 L3.53515625,1 L7.13867188,1 L10.6835938,15.3359375 L8.01757813,15.3359375 Z M6.69921875,9.37890625 L5.9375,6.05859375 C5.89192686,5.85676982 5.78938882,5.35058999 5.62988281,4.54003906 C5.47037681,3.72948813 5.37434912,3.18750137 5.34179688,2.9140625 C5.25716104,3.47396113 5.14974023,4.09081694 5.01953125,4.76464844 C4.88932227,5.43847993 4.55078398,6.97655049 4.00390625,9.37890625 L6.69921875,9.37890625 Z" id="A"></path>
            <path d="M15.3978912,15.161262 L14.9242352,13.8028523 L14.8706137,13.8028523 C14.5190937,14.3867331 14.1556631,14.7888899 13.7803112,15.0093346 C13.4049593,15.2297794 12.931308,15.3400002 12.3593432,15.3400002 C11.6265132,15.3400002 11.0500885,15.0659378 10.6300519,14.5178048 C10.2100152,13.9696718 10,13.2070635 10,12.2299569 C10,11.1813547 10.2874676,10.4023622 10.8624114,9.89295599 C11.4373552,9.38354981 12.2967791,9.10204009 13.4407088,9.04841838 L14.7633709,8.99479695 L14.7633709,8.27984447 C14.7633709,7.35040161 14.3612141,6.88568715 13.5568886,6.88568715 C12.9610919,6.88568715 12.2759359,7.11804438 11.5014002,7.58276581 L10.6792049,5.93837512 C11.6682274,5.31278858 12.7436243,5 13.9054279,5 C14.9599881,5 15.7628121,5.30236229 16.313924,5.90709595 C16.865036,6.51182961 17.1405878,7.36827453 17.1405878,8.4764564 L17.1405878,15.161262 L15.3978912,15.161262 Z M13.3334659,13.4811237 C13.7683975,13.4811237 14.1154439,13.2860032 14.3746154,12.8957564 C14.633787,12.5055095 14.7633709,11.9856847 14.7633709,11.3362663 L14.7633709,10.4961971 L14.0305446,10.5319448 C13.4883696,10.5617346 13.0906812,10.7166394 12.8374676,10.9966639 C12.584254,11.2766883 12.4576491,11.6937398 12.4576491,12.2478307 C12.4576491,13.0700302 12.7495851,13.4811237 13.3334659,13.4811237 Z" id="a"></path>
        </g>
    </g>
</svg>