<svg enable-background="new 0 0 64 64" height="64" viewBox="0 0 64 64" width="64" xmlns="http://www.w3.org/2000/svg"><path d="m33 2c7.746 0 15.028 3.017 20.505 8.494 10.138 10.137 11.31 26.396 2.74 37.849l-4.245 4.246v-8.589h-2v11l1 1h11v-2h-8.582l4.292-4.293.092-.106c9.211-12.247 7.972-29.667-2.883-40.521-5.855-5.855-13.639-9.08-21.919-9.08z"/><path d="m7.755 15.657 4.245-4.246v8.589h2v-11l-1-1h-11v2h8.582l-4.292 4.293-.092.106c-9.211 12.247-7.971 29.667 2.883 40.521 5.855 5.855 13.639 9.08 21.919 9.08v-2c-7.746 0-15.028-3.017-20.505-8.494-10.138-10.137-11.309-26.396-2.74-37.849z"/></svg>