<svg enable-background="new 0 0 64 64" height="64" viewBox="0 0 64 64" width="64" xmlns="http://www.w3.org/2000/svg"><path d="m37 31h4v2h-4z"/><path d="m43 31h4v2h-4z"/><path d="m55 31h4v2h-4z"/><path d="m49 31h4v2h-4z"/><path d="m31.949 33h3.051v-2h-3.051c-.52-8.355-7.464-15-15.949-15-8.822 0-16 7.178-16 16s7.178 16 16 16c8.485 0 15.429-6.645 15.949-15zm-15.949 13c-7.72 0-14-6.28-14-14s6.28-14 14-14 14 6.28 14 14-6.28 14-14 14z"/><path d="m53.293 23.707 7.707 7.707v1.172l-7.707 7.707 1.561 1.414 9.146-9v-1.414l-9.146-9z"/></svg>