<svg enable-background="new 0 0 64 64" height="64" viewBox="0 0 64 64" width="64" xmlns="http://www.w3.org/2000/svg"><path d="m8.182 50.243c-.794-1.036-1.528-2.134-2.181-3.265l-1.732 1c.696 1.206 1.479 2.377 2.325 3.481z"/><path d="m4.296 15.977 1.73 1.001c.651-1.125 1.386-2.221 2.184-3.258l-1.584-1.22c-.852 1.106-1.636 2.276-2.33 3.477z"/><path d="m0 32c0 .692.022 1.379.065 2.061l1.996-.127c-.04-.64-.061-1.285-.061-1.934 0-.666.021-1.336.065-1.991l-1.996-.132c-.046.699-.069 1.413-.069 2.123z"/><path d="m.267 36.146c.18 1.385.452 2.767.809 4.108l1.934-.515c-.335-1.257-.59-2.552-.758-3.85z"/><path d="m.274 27.793 1.982.26c.17-1.294.428-2.589.766-3.848l-1.932-.519c-.36 1.344-.635 2.726-.816 4.107z"/><path d="m1.7 21.683 1.893.645c.421-1.234.928-2.452 1.506-3.62l-1.793-.888c-.618 1.245-1.158 2.545-1.606 3.863z"/><path d="m5.074 45.245c-.576-1.168-1.081-2.389-1.5-3.627l-1.894.64c.447 1.322.986 2.625 1.602 3.872z"/><path d="m22.38 3.576-.641-1.895c-1.318.446-2.621.985-3.872 1.601l.885 1.794c1.172-.577 2.393-1.082 3.628-1.5z"/><path d="m15.973 59.703 1.002-1.73c-1.126-.652-2.222-1.388-3.258-2.186l-1.221 1.585c1.106.851 2.275 1.635 3.477 2.331z"/><path d="m27.794 63.726.26-1.983c-1.296-.17-2.591-.428-3.849-.765l-.518 1.932c1.342.359 2.724.634 4.107.816z"/><path d="m21.683 62.3.645-1.894c-1.233-.419-2.452-.926-3.624-1.506l-.887 1.792c1.248.62 2.55 1.161 3.866 1.608z"/><path d="m17.02 6.002-1-1.731c-1.205.696-2.376 1.479-3.48 2.327l1.217 1.587c1.035-.796 2.134-1.53 3.263-2.183z"/><path d="m28.108 2.25-.258-1.983c-1.381.179-2.763.451-4.107.809l.514 1.933c1.261-.336 2.556-.591 3.851-.759z"/><path d="m10.917 7.926c-1.049.919-2.045 1.914-2.961 2.958l1.502 1.319c.859-.979 1.794-1.912 2.777-2.774z"/><path d="m10.88 56.042 1.32-1.502c-.979-.862-1.912-1.796-2.772-2.778l-1.504 1.318c.917 1.046 1.911 2.043 2.956 2.962z"/><path d="m32 62c-.65 0-1.297-.021-1.937-.062l-.127 1.996c.683.044 1.371.066 2.064.066z"/><path d="m32 0c-.693 0-1.381.022-2.063.065l.127 1.996c.639-.04 1.286-.061 1.936-.061 16.542 0 30 13.458 30 30 0 6.265-1.91 12.263-5.524 17.352l-4.476 4.476v-8.828h-2v11l1 1h11v-2h-8.344l4.292-4.293.106-.126c3.89-5.444 5.946-11.869 5.946-18.581 0-17.645-14.355-32-32-32z"/></svg>