<svg enable-background="new 0 0 64 64" height="64" viewBox="0 0 64 64" width="64" xmlns="http://www.w3.org/2000/svg"><path d="m32.001 64h.002c8.547 0 16.582-3.329 22.625-9.373 6.043-6.043 9.371-14.08 9.371-22.626 0-8.549-3.328-16.585-9.372-22.629-6.043-6.043-14.079-9.372-22.628-9.372 0 0-.001 0-.002 0-8.547 0-16.582 3.329-22.625 9.373-6.043 6.043-9.372 14.079-9.371 22.626 0 8.549 3.328 16.585 9.372 22.629 6.043 6.043 14.079 9.372 22.628 9.372zm-21.215-53.213c5.666-5.666 13.199-8.787 21.213-8.787h.002c8.013 0 15.547 3.121 21.212 8.786 5.666 5.666 8.786 13.2 8.786 21.215 0 8.013-3.12 15.546-8.785 21.212s-13.198 8.787-21.211 8.787h-.002c-.001 0-.001 0-.002 0-8.013 0-15.547-3.121-21.212-8.786-5.666-5.666-8.787-13.201-8.786-21.215-.001-8.013 3.12-15.547 8.785-21.212z"/><path d="m42 41v-24h-2v23h-23v2h24z"/></svg>