<svg enable-background="new 0 0 64 64" height="64" viewBox="0 0 64 64" width="64" xmlns="http://www.w3.org/2000/svg"><path d="m31 17h2v4h-2z"/><path d="m31 5h2v4h-2z"/><path d="m31 11h2v4h-2z"/><path d="m31 23h2v4h-2z"/><path d="m16 48c0 8.822 7.178 16 16 16s16-7.178 16-16c0-8.484-6.644-15.429-15-15.949v-3.051h-2v3.051c-8.356.52-15 7.465-15 15.949zm16-14c7.72 0 14 6.28 14 14s-6.28 14-14 14-14-6.28-14-14 6.28-14 14-14z"/><path d="m40.293 10.707 1.414-1.561-9-9.146h-1.414l-9 9.146 1.414 1.488 7.707-7.634h1.172z"/></svg>