<svg enable-background="new 0 0 64 64" height="64" viewBox="0 0 64 64" width="64" xmlns="http://www.w3.org/2000/svg"><path d="m33 0v2c.644 0 1.288.021 1.932.064l.133-1.995c-.682-.046-1.377-.069-2.065-.069z"/><path d="m37.206.285-.27 1.981c1.329.181 2.656.457 3.944.819l.541-1.925c-1.375-.387-2.794-.681-4.215-.875z"/><path d="m63.166 38.167-1.945-.461c-.311 1.307-.714 2.601-1.199 3.844l1.863.728c.519-1.331.95-2.714 1.281-4.111z"/><path d="m63.991 31.767-2-.048c-.031 1.338-.158 2.687-.375 4.01l1.973.324c.232-1.414.368-2.856.402-4.286z"/><path d="m54.386 48.532h2v4.17h-2z" transform="matrix(-.7071 -.7071 .7071 -.7071 58.7588 125.5721)"/><path d="m43.474 1.816-.674 1.883c1.261.452 2.502.997 3.688 1.619l.93-1.771c-1.269-.666-2.596-1.248-3.944-1.731z"/><path d="m61.032 44.255-1.808-.855c-.572 1.209-1.236 2.391-1.973 3.51l1.67 1.1c.788-1.198 1.498-2.461 2.111-3.755z"/><path d="m61.511 25.701c.244 1.317.398 2.664.459 4.003l1.998-.09c-.064-1.431-.229-2.87-.49-4.277z"/><path d="m56.926 14.605c.759 1.104 1.445 2.272 2.041 3.471l1.791-.891c-.638-1.282-1.372-2.531-2.184-3.713z"/><path d="m59.801 19.912c.511 1.237.939 2.522 1.274 3.821l1.938-.499c-.358-1.389-.816-2.763-1.362-4.085z"/><path d="m54.388 8.562-1.381 1.446c.168.161.335.324.498.486.786.785 1.533 1.623 2.222 2.489l1.566-1.244c-.736-.926-1.535-1.821-2.377-2.663-.176-.173-.351-.345-.528-.514z"/><path d="m48.234 6.316c1.136.702 2.235 1.494 3.269 2.352l1.277-1.538c-1.104-.917-2.279-1.763-3.493-2.515z"/><path d="m52 53.172v-9.172h-2v11l1 1h11v-2h-9.172z"/><path d="m31 62c-.644 0-1.288-.021-1.932-.064l-.133 1.995c.682.046 1.377.069 2.065.069z"/><path d="m11.22 56.87c1.104.917 2.279 1.763 3.493 2.515l1.053-1.701c-1.136-.702-2.235-1.494-3.269-2.352z"/><path d="m.032 34.386c.064 1.431.229 2.87.49 4.277l1.967-.364c-.244-1.317-.398-2.664-.459-4.003z"/><path d="m.987 40.767c.358 1.389.816 2.763 1.362 4.085l1.85-.764c-.511-1.237-.939-2.522-1.274-3.821z"/><path d="m2.779 26.294c.311-1.307.714-2.601 1.199-3.844l-1.863-.728c-.52 1.33-.95 2.713-1.281 4.111z"/><path d="m17.513 58.682-.93 1.771c1.268.666 2.595 1.249 3.943 1.731l.674-1.883c-1.261-.451-2.502-.996-3.687-1.619z"/><path d="m.009 32.233 2 .048c.031-1.338.158-2.687.375-4.01l-1.973-.324c-.232 1.414-.368 2.856-.402 4.286z"/><path d="m2.968 19.745 1.808.855c.572-1.209 1.236-2.391 1.973-3.51l-1.67-1.1c-.788 1.198-1.498 2.461-2.111 3.755z"/><path d="m3.242 46.814c.638 1.282 1.372 2.531 2.184 3.713l1.648-1.133c-.759-1.104-1.445-2.272-2.041-3.471z"/><path d="m9.612 55.438 1.381-1.446c-.168-.161-.335-.324-.498-.486-.786-.785-1.533-1.623-2.222-2.489l-1.566 1.243c.736.926 1.535 1.821 2.377 2.663.176.174.351.346.528.515z"/><path d="m7.614 11.298h2v4.17h-2z" transform="matrix(-.7071 -.7071 .7071 -.7071 5.2412 28.9376)"/><path d="m23.119 60.915-.541 1.925c1.376.388 2.795.682 4.216.875l.27-1.981c-1.33-.182-2.657-.457-3.945-.819z"/><path d="m2 8v2h9.172l.828.828v9.172h2v-11l-1-1z"/></svg>