<svg enable-background="new 0 0 64 64" height="64" viewBox="0 0 64 64" width="64" xmlns="http://www.w3.org/2000/svg"><path d="m31.967 61.554-13.26-13.261-1.414 1.577 13.967 14.13h1.414l14.001-14.163-1.414-1.495z"/><path d="m31.325 0-14.032 14.163 1.414 1.479 13.325-13.293 13.293 13.31 1.414-1.537-14-14.122z"/><path d="m37.968 31.968c0-3.309-2.691-6-6-6s-6 2.691-6 6 2.691 6 6 6 6-2.692 6-6zm-10 0c0-2.206 1.794-4 4-4s4 1.794 4 4-1.794 4-4 4-4-1.795-4-4z"/><path d="m48.293 18.707 13.293 13.293-13.293 13.293 1.561 1.414 14.146-14v-1.414l-14.146-14z"/><path d="m15.675 18.675-1.561-1.414-14.114 13.967v1.414l14.179 14.033 1.487-1.414-13.289-13.326z"/></svg>