<svg enable-background="new 0 0 64 64" height="64" viewBox="0 0 64 64" width="64" xmlns="http://www.w3.org/2000/svg"><path d="m6.198 49.601 4.388 4.399h-8.586v2h11l1-1v-11h-2v8.59l-4.246-4.247c-8.569-11.453-7.396-27.712 2.741-37.849 5.477-5.477 12.759-8.494 20.505-8.494v-2c-8.28 0-16.064 3.225-21.919 9.08-10.854 10.854-12.094 28.274-2.883 40.521z"/><path d="m53.414 10h8.586v-2h-11l-1 1v11h2v-8.59l4.246 4.247c8.569 11.453 7.396 27.712-2.741 37.849-5.477 5.477-12.759 8.494-20.505 8.494v2c8.28 0 16.064-3.225 21.919-9.08 10.854-10.854 12.094-28.273 2.883-40.521z"/></svg>