<svg enable-background="new 0 0 64 64" height="64" viewBox="0 0 64 64" width="64" xmlns="http://www.w3.org/2000/svg"><path d="m31 0c-.68 0-1.375.023-2.064.068l.132 1.996c.643-.043 1.287-.064 1.932-.064z"/><path d="m.411 36.055 1.974-.326c-.218-1.317-.344-2.667-.376-4.009l-1.999.047c.033 1.435.168 2.878.401 4.288z"/><path d="m.031 29.613 1.998.09c.06-1.339.214-2.686.458-4.004l-1.967-.363c-.259 1.407-.424 2.847-.489 4.277z"/><path d="m.986 23.231 1.937.5c.335-1.3.764-2.586 1.275-3.82l-1.849-.764c-.545 1.321-1.004 2.695-1.363 4.084z"/><path d="m6.528 49.616h4.17v2h-4.17z" transform="matrix(.707 .7072 -.7072 .707 38.3172 8.7373)"/><path d="m26.793.284c-1.419.194-2.838.488-4.215.875l.541 1.926c1.289-.362 2.616-.638 3.944-.818z"/><path d="m20.526 1.815c-1.35.483-2.676 1.065-3.943 1.732l.931 1.77c1.185-.622 2.425-1.167 3.686-1.619z"/><path d="m2.967 44.256c.613 1.295 1.323 2.558 2.109 3.754l1.671-1.1c-.736-1.118-1.399-2.299-1.973-3.51z"/><path d="m3.241 17.186 1.791.891c.595-1.196 1.282-2.364 2.042-3.471l-1.648-1.133c-.813 1.183-1.548 2.432-2.185 3.713z"/><path d="m.833 38.167c.33 1.393.761 2.775 1.281 4.109l1.863-.727c-.487-1.248-.89-2.541-1.198-3.844z"/><path d="m15.766 6.316-1.053-1.701c-1.219.755-2.394 1.601-3.494 2.516l1.278 1.537c1.029-.855 2.128-1.647 3.269-2.352z"/><path d="m9.081 9.08c-.84.841-1.639 1.735-2.374 2.66l1.566 1.244c.688-.865 1.435-1.703 2.224-2.492.164-.165.329-.325.496-.484l-1.381-1.447c-.179.17-.357.344-.531.519z"/><path d="m33 62v2c.68 0 1.375-.023 2.064-.068l-.132-1.996c-.643.043-1.287.064-1.932.064z"/><path d="m61.885 21.724-1.863.727c.487 1.248.89 2.541 1.198 3.844l1.946-.461c-.329-1.394-.76-2.776-1.281-4.11z"/><path d="m63.014 40.769-1.937-.5c-.335 1.3-.764 2.586-1.275 3.82l1.849.764c.545-1.321 1.004-2.695 1.363-4.084z"/><path d="m61.616 28.271c.218 1.317.344 2.667.376 4.009l1.999-.047c-.034-1.436-.169-2.878-.402-4.288z"/><path d="m61.512 38.301 1.967.363c.26-1.407.425-2.847.49-4.277l-1.998-.09c-.06 1.339-.215 2.685-.459 4.004z"/><path d="m49.287 59.385c1.219-.755 2.394-1.601 3.494-2.516l-1.278-1.537c-1.029.854-2.128 1.646-3.269 2.352z"/><path d="m54.388 55.439c.179-.171.357-.345.531-.52.84-.841 1.639-1.735 2.374-2.66l-1.566-1.244c-.688.865-1.435 1.703-2.224 2.492-.164.165-.329.325-.496.484z"/><path d="m60.759 46.814-1.791-.891c-.595 1.196-1.282 2.364-2.042 3.471l1.648 1.133c.813-1.183 1.548-2.432 2.185-3.713z"/><path d="m40.88 60.915c-1.289.362-2.616.638-3.944.818l.271 1.982c1.419-.194 2.838-.488 4.215-.875z"/><path d="m46.486 58.683c-1.185.622-2.425 1.167-3.686 1.619l.674 1.883c1.35-.483 2.676-1.065 3.943-1.732z"/><path d="m61.033 19.744c-.613-1.295-1.323-2.558-2.109-3.754l-1.671 1.1c.736 1.118 1.399 2.299 1.973 3.51z"/><path d="m53.302 12.384h4.17v2h-4.17z" transform="matrix(-.707 -.7072 .7072 -.707 85.0837 62.0145)"/><path d="m2 54v2h11l1-1v-11h-2v9.172l-.828.828z"/><path d="m50 9v11h2v-9.172l.828-.828h9.172v-2h-11z"/></svg>