<svg enable-background="new 0 0 64 64" height="64" viewBox="0 0 64 64" width="64" xmlns="http://www.w3.org/2000/svg"><path d="m32 0c-8.548 0-16.583 3.33-22.627 9.375-6.045 6.042-9.374 14.078-9.374 22.625s3.329 16.583 9.374 22.626c6.044 6.045 14.079 9.374 22.627 9.374 8.547 0 16.583-3.33 22.627-9.375 6.045-6.043 9.374-14.079 9.374-22.626s-3.329-16.583-9.374-22.626c-6.044-6.044-14.08-9.373-22.627-9.373zm21.213 53.212c-5.666 5.667-13.2 8.788-21.213 8.788-8.014 0-15.547-3.121-21.213-8.789-5.667-5.665-8.788-13.198-8.788-21.211s3.121-15.546 8.788-21.212c5.666-5.667 13.199-8.788 21.213-8.788 8.013 0 15.547 3.122 21.213 8.789 5.667 5.665 8.788 13.198 8.788 21.211s-3.121 15.546-8.788 21.212z"/><path d="m29 43h2v4h-2z"/><path d="m32 15c-5.972 0-9 2.019-9 6h2c0-1.862.796-4 7-4 4.252 0 7 2.355 7 6 0 2.764-3.933 5.345-5.447 6.105-.186.094-4.553 2.352-4.553 8.895v1h2v-1c0-5.259 3.312-7.036 3.447-7.105.268-.134 6.553-3.33 6.553-7.895 0-4.71-3.701-8-9-8z"/></svg>