<svg enable-background="new 0 0 64 64" height="64" viewBox="0 0 64 64" width="64" xmlns="http://www.w3.org/2000/svg"><path d="m31 55h2v4h-2z"/><path d="m31 49h2v4h-2z"/><path d="m31 37h2v4h-2z"/><path d="m31 43h2v4h-2z"/><path d="m48 16c0-8.822-7.178-16-16-16s-16 7.178-16 16c0 8.484 6.644 15.429 15 15.949v3.051h2v-3.051c8.356-.52 15-7.465 15-15.949zm-16 14c-7.72 0-14-6.28-14-14s6.28-14 14-14 14 6.28 14 14-6.28 14-14 14z"/><path d="m23.707 53.293-1.414 1.561 9 9.146h1.414l9-9.146-1.414-1.488-7.707 7.634h-1.172z"/></svg>