<svg enable-background="new 0 0 64 64" height="64" viewBox="0 0 64 64" width="64" xmlns="http://www.w3.org/2000/svg"><path d="m5 31h4v2h-4z"/><path d="m23 31h4v2h-4z"/><path d="m17 31h4v2h-4z"/><path d="m11 31h4v2h-4z"/><path d="m48 16c-8.485 0-15.429 6.645-15.949 15h-3.051v2h3.051c.52 8.355 7.464 15 15.949 15 8.822 0 16-7.178 16-16s-7.178-16-16-16zm0 30c-7.72 0-14-6.28-14-14s6.28-14 14-14 14 6.28 14 14-6.28 14-14 14z"/><path d="m9.146 22.293-9.146 9v1.414l9.146 9 1.488-1.414-7.634-7.707v-1.172l7.634-7.707z"/></svg>