<svg enable-background="new 0 0 64 64" height="64" viewBox="0 0 64 64" width="64" xmlns="http://www.w3.org/2000/svg"><path d="m32 0c-8.547 0-16.582 3.329-22.626 9.373-6.045 6.044-9.374 14.08-9.374 22.627s3.329 16.583 9.374 22.627c6.044 6.044 14.079 9.373 22.626 9.373s16.582-3.329 22.626-9.374c6.045-6.043 9.374-14.079 9.374-22.626s-3.329-16.583-9.374-22.627c-6.044-6.044-14.079-9.373-22.626-9.373zm-21.212 53.213c-5.667-5.667-8.788-13.2-8.788-21.213 0-7.678 2.872-14.911 8.098-20.488l42.391 42.391c-5.577 5.225-12.81 8.097-20.489 8.097-8.013 0-15.546-3.12-21.212-8.787zm43.114-.725-42.39-42.39c5.576-5.226 12.809-8.098 20.488-8.098 8.013 0 15.546 3.121 21.212 8.788 5.667 5.666 8.788 13.199 8.788 21.212 0 7.678-2.872 14.911-8.098 20.488z"/></svg>