<svg enable-background="new 0 0 64 64" height="64" viewBox="0 0 64 64" width="64" xmlns="http://www.w3.org/2000/svg"><path d="m32 0c-8.548 0-16.583 3.33-22.627 9.375-6.045 6.042-9.374 14.078-9.374 22.625s3.329 16.583 9.374 22.626c6.044 6.045 14.079 9.374 22.627 9.374 8.547 0 16.583-3.33 22.627-9.375 6.045-6.043 9.374-14.079 9.374-22.626s-3.329-16.583-9.374-22.626c-6.044-6.044-14.08-9.373-22.627-9.373zm21.213 53.212c-5.666 5.667-13.2 8.788-21.213 8.788-8.014 0-15.547-3.121-21.213-8.789-5.667-5.665-8.788-13.198-8.788-21.211s3.121-15.546 8.788-21.212c5.666-5.667 13.199-8.788 21.213-8.788 8.013 0 15.547 3.122 21.213 8.789 5.667 5.665 8.788 13.198 8.788 21.211s-3.121 15.546-8.788 21.212z"/><path d="m31 25h2v22h-2z"/><path d="m31 17h2v4h-2z"/></svg>