<svg enable-background="new 0 0 64 64" height="64" viewBox="0 0 64 64" width="64" xmlns="http://www.w3.org/2000/svg"><path d="m32 0c-17.645 0-32 14.355-32 32 0 6.712 2.056 13.137 5.945 18.581l4.404 4.419h-8.349v2h11l1-1v-11h-2v8.828l-4.476-4.476c-3.614-5.089-5.524-11.087-5.524-17.352 0-16.542 13.458-30 30-30 .65 0 1.297.021 1.937.062l.127-1.996c-.683-.044-1.371-.066-2.064-.066z"/><path d="m53.083 7.926-1.318 1.504c.983.862 1.918 1.795 2.777 2.774l1.502-1.319c-.916-1.045-1.912-2.04-2.961-2.959z"/><path d="m62.32 42.258-1.895-.641c-.419 1.238-.924 2.459-1.5 3.627l1.793.885c.616-1.246 1.155-2.548 1.602-3.871z"/><path d="m48.027 59.703c1.202-.696 2.371-1.48 3.477-2.331l-1.221-1.585c-1.036.798-2.132 1.533-3.258 2.186z"/><path d="m46.98 6.002c1.129.653 2.228 1.387 3.264 2.182l1.217-1.587c-1.104-.848-2.275-1.631-3.48-2.327z"/><path d="m61.935 30.009c.044.655.065 1.325.065 1.991 0 .649-.021 1.294-.062 1.934l1.996.127c.044-.682.066-1.369.066-2.061 0-.71-.023-1.424-.069-2.123z"/><path d="m42.317 62.3c1.315-.448 2.617-.988 3.866-1.607l-.887-1.792c-1.172.58-2.391 1.086-3.624 1.506z"/><path d="m36.206 63.726c1.383-.182 2.765-.457 4.106-.817l-.518-1.932c-1.258.337-2.553.595-3.849.765z"/><path d="m35.892 2.25c1.295.168 2.591.423 3.852.758l.514-1.933c-1.345-.358-2.727-.63-4.107-.809z"/><path d="m62.909 23.687-1.932.519c.338 1.258.596 2.553.766 3.848l1.982-.26c-.18-1.382-.455-2.764-.816-4.107z"/><path d="m51.8 54.54 1.32 1.502c1.045-.919 2.039-1.916 2.956-2.962l-1.504-1.318c-.86.981-1.793 1.916-2.772 2.778z"/><path d="m63.733 36.146-1.984-.257c-.168 1.298-.423 2.593-.758 3.85l1.934.515c.356-1.342.629-2.724.808-4.108z"/><path d="m55.79 13.72c.798 1.037 1.532 2.133 2.184 3.258l1.73-1.001c-.694-1.201-1.479-2.371-2.33-3.477z"/><path d="m58.901 18.707c.578 1.168 1.085 2.386 1.506 3.62l1.893-.645c-.448-1.317-.988-2.617-1.605-3.863z"/><path d="m41.62 3.576c1.235.418 2.456.923 3.628 1.5l.885-1.794c-1.251-.616-2.554-1.155-3.872-1.601z"/><path d="m59.731 47.979-1.732-1c-.652 1.13-1.387 2.229-2.181 3.265l1.588 1.217c.847-1.106 1.629-2.277 2.325-3.482z"/><path d="m32 62v2c.693 0 1.381-.022 2.063-.065l-.127-1.996c-.639.04-1.286.061-1.936.061z"/></svg>