<svg enable-background="new 0 0 64 64" height="64" viewBox="0 0 64 64" width="64" xmlns="http://www.w3.org/2000/svg"><path d="m18.335 42.449 1.42 1.409 12.247-12.339 12.339 12.247 1.408-1.42-12.339-12.246 12.247-12.34-1.42-1.409-12.247 12.339-12.339-12.247-1.408 1.42 12.339 12.246z"/><path d="m31.999 64h.002c8.548 0 16.584-3.33 22.627-9.373 6.044-6.043 9.371-14.08 9.371-22.628s-3.328-16.584-9.371-22.627c-6.044-6.043-14.079-9.372-22.627-9.372 0 0-.001 0-.002 0-8.548 0-16.584 3.329-22.627 9.373-6.044 6.044-9.371 14.081-9.371 22.628s3.328 16.584 9.371 22.627c6.044 6.043 14.079 9.372 22.627 9.372zm-21.213-53.213c5.666-5.666 13.2-8.787 21.215-8.787h.002c8.012 0 15.546 3.121 21.211 8.786 5.666 5.666 8.785 13.2 8.785 21.213s-3.119 15.548-8.785 21.214-13.199 8.787-21.213 8.787h-.002c-.001 0-.001 0-.002 0-8.012 0-15.546-3.121-21.211-8.786-5.666-5.666-8.785-13.2-8.785-21.213 0-8.014 3.119-15.548 8.785-21.214z"/></svg>