<svg enable-background="new 0 0 64 64" height="64" viewBox="0 0 64 64" width="64" xmlns="http://www.w3.org/2000/svg"><path d="m8.707 25.707-1.561-1.414-7.146 7v1.414l7.146 7 1.488-1.414-5.22-5.293h23.586v-2h-23.586z"/><path d="m37 33h23.586l-5.293 5.293 1.561 1.414 7.146-7v-1.414l-7.146-7-1.488 1.414 5.22 5.293h-23.586z"/><path d="m31.293 0-7 7.146 1.414 1.488 5.293-5.22v23.586h2v-23.586l5.293 5.293 1.414-1.561-7-7.146z"/><path d="m31 37v23.586l-5.293-5.293-1.414 1.561 7 7.146h1.414l7-7.146-1.414-1.488-5.293 5.22v-23.586z"/></svg>