<svg enable-background="new 0 0 64 64" height="64" viewBox="0 0 64 64" width="64" xmlns="http://www.w3.org/2000/svg"><path d="m25.707 46 24-24.146-1.414-1.488-23.293 23.257-11.293-11.311-1.414 1.551 12 12.137z"/><path d="m31.999 64h.002c8.548 0 16.583-3.33 22.627-9.373s9.372-14.08 9.371-22.628c0-8.548-3.328-16.584-9.372-22.627-6.043-6.043-14.078-9.372-22.626-9.372-.001 0-.001 0-.002 0-8.548 0-16.583 3.329-22.627 9.373-6.043 6.044-9.372 14.08-9.371 22.628 0 8.548 3.328 16.584 9.372 22.627 6.043 6.043 14.078 9.372 22.626 9.372zm-21.212-53.213c5.665-5.666 13.199-8.787 21.214-8.787h.002c8.012 0 15.545 3.121 21.211 8.786 5.666 5.666 8.786 13.2 8.785 21.213 0 8.014-3.12 15.548-8.785 21.214s-13.199 8.787-21.213 8.787h-.002c-.001 0-.001 0-.002 0-8.012 0-15.545-3.121-21.211-8.786-5.665-5.666-8.786-13.199-8.785-21.213-.001-8.014 3.12-15.548 8.786-21.214z"/></svg>