<svg enable-background="new 0 0 64 64" height="64" viewBox="0 0 64 64" width="64" xmlns="http://www.w3.org/2000/svg"><path d="m22.414 9h-22.414v46h64v-38h-33.586zm39.586 44h-60v-42h19.586l8 8h32.414z"/><path d="m27 39.556c-.59-.344-1.268-.556-1.998-.556-2.207 0-4.002 1.794-4.002 4s1.795 4 4.002 4c2.204 0 3.998-1.794 3.998-4v-10.181l8-1.6v6.336c-.59-.343-1.268-.555-1.998-.555-2.207 0-4.002 1.794-4.002 4s1.795 4 4.002 4c2.204 0 3.998-1.794 3.998-4v-16.22l-12 2.4zm-1.998 5.444c-1.104 0-2.002-.897-2.002-2s.898-2 2.002-2c1.102 0 1.998.897 1.998 2s-.896 2-1.998 2zm10-2c-1.104 0-2.002-.897-2.002-2s.898-2 2.002-2c1.102 0 1.998.897 1.998 2s-.896 2-1.998 2zm1.998-15.78v1.961l-8 1.6v-1.961z"/></svg>