<svg enable-background="new 0 0 64 64" height="64" viewBox="0 0 64 64" width="64" xmlns="http://www.w3.org/2000/svg"><path d="m54 0h-44v64h44zm-2 2v6h-40v-6zm0 8v40h-40v-40zm-40 52v-10h40v10z"/><path d="m31.529 39.882.471.251.471-.251c.429-.229 10.529-5.698 10.529-12.882 0-3.42-2.579-6-6-6-2.085 0-3.924 1.068-5 2.687-1.076-1.619-2.915-2.687-5-2.687-3.421 0-6 2.58-6 6 0 7.184 10.1 12.653 10.529 12.882zm-4.529-16.882c2.206 0 4 1.794 4 4h2c0-2.206 1.794-4 4-4 2.317 0 4 1.682 4 4 0 5.203-7.086 9.724-9 10.85-1.914-1.126-9-5.647-9-10.85 0-2.318 1.683-4 4-4z"/><path d="m28 4h8v2h-8z"/><path d="m32 54c-1.654 0-3 1.346-3 3s1.346 3 3 3 3-1.346 3-3-1.346-3-3-3zm0 4c-.552 0-1-.449-1-1s.448-1 1-1 1 .449 1 1-.448 1-1 1z"/></svg>