<svg enable-background="new 0 0 64 64" height="64" viewBox="0 0 64 64" width="64" xmlns="http://www.w3.org/2000/svg"><path d="m32.001-.113c-8.579 0-16.644 3.34-22.709 9.406-6.066 6.066-9.405 14.13-9.404 22.708 0 8.578 3.34 16.585 9.404 22.651 6.065 6.065 14.129 9.348 22.707 9.348h.002.003c17.706 0 32.11-14.351 32.109-32.057.001-8.578-3.34-16.614-9.405-22.68-6.064-6.064-14.129-9.376-22.707-9.376zm22.69 12.325c-.865 1.239-3.196 3.974-7.954 6.067-2.694-7.871-7.166-13.263-9.865-15.995 6.192 1.001 11.9 3.901 16.422 8.422.487.487.948.992 1.397 1.506zm-21.14 49.862c-.183.009-.367.008-.551.014v-19.071c4.938.098 8.832.9 11.838 1.957-3.503 10.18-10.147 16.133-11.287 17.1zm-14.39-17.101c3.06-1.08 6.947-1.861 11.839-1.957v19.073c-.184-.006-.369-.006-.552-.016-1.143-.969-7.785-6.923-11.287-17.1zm11.287-43.046c.183-.009.368-.01.552-.016v19.072c-4.938-.098-8.832-.9-11.838-1.957 3.502-10.176 10.141-16.129 11.286-17.099zm14.391 17.1c-3.06 1.08-6.947 1.861-11.839 1.957v-19.073c.184.006.369.006.552.016 1.144.969 7.785 6.924 11.287 17.1zm-11.839 3.956c5.105-.094 9.197-.897 12.445-2.027.87 3.02 1.443 6.375 1.533 10.043h-13.978zm-2 0v8.017h-13.979c.09-3.669.663-7.023 1.533-10.043 3.249 1.129 7.341 1.932 12.446 2.026zm-15.979 8.017h-13.109c.203-6.287 2.322-12.238 6.085-17.183 1.224 1.62 3.836 4.343 8.651 6.406-.929 3.221-1.537 6.82-1.627 10.777zm0 2c.09 3.957.697 7.556 1.627 10.777-4.815 2.063-7.428 4.786-8.651 6.406-3.762-4.945-5.882-10.896-6.085-17.183zm2 0h13.979v8.017c-5.105.094-9.197.897-12.445 2.027-.87-3.021-1.444-6.375-1.534-10.044zm15.979 8.017v-8.017h13.979c-.09 3.669-.663 7.023-1.533 10.043-3.249-1.129-7.341-1.932-12.446-2.026zm15.979-8.017h13.109c-.211 6.435-2.445 12.365-6.094 17.171-1.229-1.622-3.84-4.336-8.643-6.394.93-3.221 1.538-6.82 1.628-10.777zm0-2c-.09-3.957-.697-7.556-1.627-10.777 4.815-2.063 7.428-4.786 8.651-6.406 3.762 4.945 5.882 10.896 6.086 17.184h-13.11zm-21.852-28.716c-2.699 2.732-7.17 8.125-9.865 15.997-1.497-.655-2.722-1.357-3.698-2.021-2.351-1.597-3.651-3.189-4.251-4.052.448-.512.908-1.016 1.394-1.501 4.521-4.522 10.229-7.421 16.42-8.423zm-17.818 49.504c.865-1.238 3.196-3.974 7.954-6.067 2.695 7.871 7.166 13.263 9.865 15.996-6.191-1.001-11.9-3.901-16.422-8.422-.487-.487-.948-.993-1.397-1.507zm22.695 11.212v.113zm4.872-1.287c2.699-2.733 7.168-8.125 9.862-15.993 1.497.655 2.722 1.357 3.698 2.021 2.34 1.589 3.639 3.175 4.242 4.039-4.509 5.163-10.745 8.779-17.802 9.933z"/></svg>