<svg enable-background="new 0 0 64 64" height="64" viewBox="0 0 64 64" width="64" xmlns="http://www.w3.org/2000/svg"><path d="m32.2 41.6 1.8 2.4h-2c-3.942 0-7-4.301-7-8h-2c0 4.721 3.849 10 9 10h2l-1.8 2.4 1.7 1.199 3.1-4v-1.199l-3.1-4z"/><path d="m34 26h-2l1.8-2.4-1.7-1.2-3.1 4v1.2l3.1 4 1.65-1.199-1.75-2.401h2c3.942 0 7 4.301 7 8h2c0-4.721-3.849-10-9-10z"/><path d="m40.781 4h-3.781v-4h-10v4h-3.781l-.75 3h-13.469v57h46v-57h-13.469zm-16 2h4.219v-4h6v4h4.219l1.5 6h-17.438zm28.219 3v53h-42v-53h10.969l-1.25 5h22.562l-1.25-5z"/></svg>