<svg enable-background="new 0 0 64 64" height="64" viewBox="0 0 64 64" width="64" xmlns="http://www.w3.org/2000/svg"><path d="m32 0c-17.645 0-32 14.355-32 32s14.355 32 32 32 32-14.355 32-32-14.355-32-32-32zm29.167 25h-14.802c-1.566-3.201-4.164-5.799-7.365-7.365v-14.802c10.928 2.623 19.544 11.239 22.167 22.167zm.833 7c0 1.704-.15 3.373-.425 5h-14.387c.52-1.575.812-3.253.812-5s-.292-3.425-.812-5h14.387c.275 1.627.425 3.296.425 5zm-30 14c-7.72 0-14-6.28-14-14s6.28-14 14-14 14 6.28 14 14-6.28 14-14 14zm-15.188-9h-14.387c-.275-1.627-.425-3.296-.425-5s.15-3.373.425-5h14.387c-.52 1.575-.812 3.253-.812 5s.292 3.425.812 5zm20.188-34.575v14.387c-1.575-.521-3.253-.812-5-.812s-3.425.291-5 .812v-14.387c1.627-.275 3.296-.425 5-.425s3.373.15 5 .425zm-12 .408v14.802c-3.201 1.566-5.799 4.164-7.365 7.365h-14.802c2.623-10.928 11.239-19.544 22.167-22.167zm-22.167 36.167h14.802c1.566 3.201 4.164 5.799 7.365 7.365v14.802c-10.928-2.623-19.544-11.239-22.167-22.167zm24.167 22.575v-14.387c1.575.521 3.253.812 5 .812s3.425-.291 5-.812v14.387c-1.627.275-3.296.425-5 .425s-3.373-.15-5-.425zm12-.408v-14.802c3.201-1.566 5.799-4.164 7.365-7.365h14.802c-2.623 10.928-11.239 19.544-22.167 22.167z"/></svg>