<svg enable-background="new 0 0 64 64" height="64" viewBox="0 0 64 64" width="64" xmlns="http://www.w3.org/2000/svg"><path d="m8 15h14v-9h-10v-2h-2v4h10v5h-14v8h-6v32h64v-32h-56zm54 36h-60v-28h60z"/><path d="m4 28h4v2h-4z"/><path d="m10 28h4v2h-4z"/><path d="m16 28h4v2h-4z"/><path d="m22 28h4v2h-4z"/><path d="m28 28h4v2h-4z"/><path d="m34 28h4v2h-4z"/><path d="m40 28h4v2h-4z"/><path d="m46 28h4v2h-4z"/><path d="m52 28h4v2h-4z"/><path d="m4 44h4v2h-4z"/><path d="m10 44h4v2h-4z"/><path d="m16 44h26v2h-26z"/><path d="m50 44h4v2h-4z"/><path d="m56 44h4v2h-4z"/><path d="m44 44h4v2h-4z"/><path d="m8 36h4v2h-4z"/><path d="m14 36h4v2h-4z"/><path d="m20 36h4v2h-4z"/><path d="m26 36h4v2h-4z"/><path d="m32 36h4v2h-4z"/><path d="m38 36h4v2h-4z"/><path d="m44 36h4v2h-4z"/><path d="m50 36h4v2h-4z"/><path d="m56 36h4v2h-4z"/></svg>