<svg enable-background="new 0 0 64 64" height="64" viewBox="0 0 64 64" width="64" xmlns="http://www.w3.org/2000/svg"><path d="m60 40h-.139l-6-40h-43.722l-6 40h-.139v24h56zm-48.139-38h40.277l5.7 38h-15.838v1c0 5.514-4.486 10-10 10s-10-4.486-10-10v-1h-15.839zm46.139 60h-52v-20h14.042c.509 6.15 5.678 11 11.958 11s11.449-4.85 11.958-11h14.042z"/><path d="m29 28c1.57 0 3.016-.525 4.184-1.401l7.109 7.108 1.414-1.414-7.109-7.108c.876-1.169 1.402-2.616 1.402-4.185 0-3.859-3.14-7-7-7s-7 3.141-7 7 3.14 7 7 7zm0-12c2.757 0 5 2.243 5 5s-2.243 5-5 5-5-2.243-5-5 2.243-5 5-5z"/></svg>