<svg enable-background="new 0 0 64 64" height="64" viewBox="0 0 64 64" width="64" xmlns="http://www.w3.org/2000/svg"><path d="m33 64v-7.025c7.032-.278 13.323-3.473 17.7-8.407l7.671 6.21 1.259-1.555-7.66-6.201c3.155-4.185 5.03-9.388 5.03-15.022 0-5.452-1.76-10.499-4.733-14.612l7.339-5.592-1.212-1.592-7.363 5.61c-4.387-5.15-10.82-8.503-18.031-8.789v-7.025h-2v7.025c-7.032.278-13.323 3.473-17.7 8.407l-7.671-6.21-1.259 1.555 7.66 6.201c-3.155 4.185-5.03 9.388-5.03 15.022 0 5.452 1.76 10.499 4.733 14.612l-7.339 5.592 1.212 1.592 7.363-5.61c4.387 5.15 10.82 8.504 18.031 8.789v7.025zm-8-32c0-3.859 3.14-7 7-7s7 3.141 7 7-3.14 7-7 7-7-3.141-7-7zm8 22.975v-14.034c2.022-.226 3.841-1.124 5.234-2.465l10.912 8.833c-4.008 4.484-9.741 7.39-16.146 7.666zm22-22.975c0 5.157-1.707 9.924-4.584 13.764l-10.901-8.824c.936-1.419 1.485-3.116 1.485-4.94 0-1.812-.542-3.497-1.467-4.91l11.143-8.49c2.717 3.776 4.324 8.403 4.324 13.4zm-5.562-14.972-11.18 8.518c-1.396-1.354-3.225-2.261-5.258-2.487v-14.034c6.564.283 12.42 3.329 16.438 8.003zm-18.438-8.003v14.033c-2.022.226-3.841 1.124-5.234 2.465l-10.912-8.833c4.008-4.483 9.741-7.389 16.146-7.665zm-22 22.975c0-5.157 1.707-9.924 4.584-13.764l10.901 8.824c-.936 1.419-1.485 3.116-1.485 4.94 0 1.812.542 3.497 1.467 4.91l-11.143 8.49c-2.717-3.776-4.324-8.403-4.324-13.4zm5.562 14.972 11.18-8.518c1.396 1.354 3.225 2.261 5.258 2.487v14.033c-6.564-.282-12.42-3.328-16.438-8.002z"/></svg>