<svg enable-background="new 0 0 64 64" height="64" viewBox="0 0 64 64" width="64" xmlns="http://www.w3.org/2000/svg"><path d="m48 4c-7.357 0-13.639 4.146-16 9.929-2.361-5.783-8.643-9.929-16-9.929-10.015 0-16 8.644-16 17 0 8.589 5.326 17.755 15.83 27.242 7.738 6.989 15.59 11.577 15.668 11.623l.502.291.502-.291c.079-.046 7.93-4.634 15.668-11.623 10.504-9.487 15.83-18.653 15.83-27.242 0-8.356-5.985-17-16-17zm-16 53.833c-3.969-2.423-30-19.005-30-36.833 0-7.373 5.237-15 14-15 7.214 0 15 4.971 15 13h2c0-8.029 7.786-13 15-13 8.763 0 14 7.627 14 15 0 17.818-26.032 34.409-30 36.833z"/></svg>