<svg enable-background="new 0 0 64 64" height="64" viewBox="0 0 64 64" width="64" xmlns="http://www.w3.org/2000/svg"><path d="m22.414 9h-22.414v46h64v-38h-33.586zm39.586 44h-60v-42h19.586l8 8h32.414z"/><path d="m21 33c0 7.184 10.1 12.653 10.529 12.883l.471.251.471-.251c.429-.23 10.529-5.699 10.529-12.883 0-3.421-2.579-6-6-6-2.085 0-3.924 1.068-5 2.687-1.076-1.619-2.915-2.687-5-2.687-3.421 0-6 2.579-6 6zm10 0h2c0-2.206 1.794-4 4-4 2.317 0 4 1.683 4 4 0 5.202-7.086 9.724-9 10.85-1.914-1.126-9-5.647-9-10.85 0-2.317 1.683-4 4-4 2.206 0 4 1.794 4 4z"/></svg>