<svg enable-background="new 0 0 64 64" height="64" viewBox="0 0 64 64" width="64" xmlns="http://www.w3.org/2000/svg"><path d="m59 32c0-14.888-12.112-27-27-27s-27 12.112-27 27c0 10.687 6.241 19.942 15.271 24.315l-5.978 5.978 1.414 1.414 6.538-6.538c3.028 1.178 6.316 1.831 9.755 1.831s6.727-.653 9.755-1.831l6.538 6.538 1.414-1.414-5.978-5.978c9.03-4.373 15.271-13.628 15.271-24.315zm-27 25c-13.785 0-25-11.215-25-25s11.215-25 25-25 25 11.215 25 25-11.215 25-25 25z"/><path d="m33 20h-2v12.618l8.553 4.277.894-1.79-7.447-3.723z"/><path d="m-.086 7.671 2.472 12.357 14.642-14.642-12.357-2.471zm13.058-1.057-9.357 9.357-1.529-7.642 3.243-3.243z"/><path d="m46.972 5.386 14.643 14.643 2.472-12.357-4.757-4.757zm13.414 10.586-9.357-9.357 7.643-1.529 3.243 3.243z"/></svg>