<svg enable-background="new 0 0 64 64" height="64" viewBox="0 0 64 64" width="64" xmlns="http://www.w3.org/2000/svg"><path d="m54 0h-44v21.142l-10 4.193v38.665h64v-38.665l-10-4.193zm-2 2v29.716l-20 12.537-20-12.537v-29.716zm-42 28.462-6.835-4.285 6.835-2.866zm-8 31.538v-34.193l30 18.807 30-18.807v34.193zm58.835-35.823-6.835 4.285v-7.151z"/><path d="m31.529 31.882.471.251.471-.251c.429-.229 10.529-5.698 10.529-12.882 0-3.42-2.579-6-6-6-2.085 0-3.924 1.068-5 2.687-1.076-1.619-2.915-2.687-5-2.687-3.421 0-6 2.58-6 6 0 7.184 10.1 12.653 10.529 12.882zm-4.529-16.882c2.206 0 4 1.794 4 4h2c0-2.206 1.794-4 4-4 2.317 0 4 1.682 4 4 0 5.203-7.086 9.724-9 10.85-1.914-1.126-9-5.647-9-10.85 0-2.318 1.683-4 4-4z"/></svg>