<svg enable-background="new 0 0 64 64" height="64" viewBox="0 0 64 64" width="64" xmlns="http://www.w3.org/2000/svg"><path d="m40 64v-6h2v-6h2v-6l.001-5.558c6.271-4.083 9.999-10.935 9.999-18.442 0-12.131-9.869-22-22-22s-22 9.869-22 22c0 7.459 3.817 14.514 10 18.55v3.45 2 6h2v6h2v6zm-2-2h-12v-4h12zm-16.476-22.852c-5.875-3.618-9.524-10.188-9.524-17.148 0-11.028 8.972-20 20-20s20 8.972 20 20c0 6.995-3.561 13.366-9.523 17.041l-.477.293v4.666h-4.839l2.828-18.852-1.979-.297-.108.722-2.809 2.106-3.093-3.093-3.094 3.094-2.809-2.106-.108-.722-1.979.297 2.829 18.851h-4.839v-4.559zm7.337 4.852-2.341-15.61 2.574 1.931 2.906-2.907 2.906 2.906 2.574-1.931-2.341 15.611zm-6.861 2h20v4h-20zm2 6h16v4h-16z"/></svg>