<svg enable-background="new 0 0 64 64" height="64" viewBox="0 0 64 64" width="64" xmlns="http://www.w3.org/2000/svg"><path d="m55.978 33.05c-.52-11.14-10.15-20.05-21.912-20.05-10.404 0-19.648 6.823-21.871 16h-.862c-6.249 0-11.333 4.935-11.333 11 0 6.168 4.832 11 11 11h44c5.047 0 9-3.953 9-9 0-4.716-3.452-8.477-8.022-8.95zm-.978 15.95h-44c-5.047 0-9-3.953-9-9 0-4.962 4.187-9 9.333-9h2.491l.157-.81c1.682-8.659 10.317-15.19 20.085-15.19 10.992 0 19.934 8.523 19.934 19v1h1c3.925 0 7 3.075 7 7s-3.075 7-7 7z"/><path d="m32.2 37.6 1.8 2.4h-2c-3.942 0-7-4.3-7-8h-2c0 4.721 3.849 10 9 10h2l-1.8 2.4 1.7 1.2 3.1-4v-1.2l-3.1-4z"/><path d="m34 22h-2l1.8-2.4-1.7-1.2-3.1 4v1.2l3.1 4 1.65-1.2-1.75-2.4h2c3.942 0 7 4.3 7 8h2c0-4.721-3.849-10-9-10z"/></svg>