<svg enable-background="new 0 0 64 64" height="64" viewBox="0 0 64 64" width="64" xmlns="http://www.w3.org/2000/svg"><path d="m2 36c0 8.523 7.477 16 16 16 4.778 0 8.713-2.557 10.979-6.785-.17 5.418-1.456 16.785-5.979 16.785v2h18v-2c-4.48 0-5.785-11.173-5.975-16.645 2.436 4.015 6.842 6.645 11.975 6.645 9.265 0 15-8.306 15-16 0-7.979-4.992-16.455-14.836-25.192-7.245-6.431-14.597-10.636-14.67-10.677l-.494-.281-.494.281c-.073.041-7.425 4.246-14.67 10.677-9.844 8.737-14.836 17.213-14.836 25.192zm30-33.84c3.791 2.27 28 17.413 28 33.84 0 6.733-4.97 14-13 14-6.841 0-12-5.159-12-12h-2v6c0 1.624.142 13.261 4.083 18h-10.166c3.941-4.739 4.083-16.376 4.083-18v-6l-1.997-.085c-.51 6.016-4.111 12.085-11.003 12.085-7.458 0-14-6.542-14-14 0-16.418 24.212-31.57 28-33.84z"/></svg>