<svg enable-background="new 0 0 64 64" height="64" viewBox="0 0 64 64" width="64" xmlns="http://www.w3.org/2000/svg"><path d="m32 64.001c8.547 0 16.582-3.329 22.626-9.374 6.045-6.044 9.374-14.08 9.374-22.627s-3.329-16.583-9.374-22.627c-6.044-6.045-14.079-9.374-22.626-9.374s-16.582 3.329-22.626 9.374c-6.045 6.044-9.374 14.08-9.374 22.627s3.329 16.583 9.374 22.627c6.044 6.045 14.079 9.374 22.626 9.374zm21.212-53.214c5.667 5.666 8.788 13.2 8.788 21.213 0 7.678-2.872 14.912-8.098 20.488l-42.39-42.39c5.576-5.226 12.809-8.099 20.488-8.099 8.013 0 15.546 3.121 21.212 8.788zm-43.114.725 42.391 42.391c-5.576 5.226-12.81 8.099-20.488 8.099-8.013 0-15.546-3.121-21.212-8.788-5.668-5.667-8.789-13.201-8.789-21.214 0-7.678 2.872-14.912 8.098-20.488z"/></svg>