<svg enable-background="new 0 0 64 64" height="64" viewBox="0 0 64 64" width="64" xmlns="http://www.w3.org/2000/svg"><path d="m22.414 9h-22.414v46h64v-38h-33.586zm39.586 44h-60v-42h19.586l8 8h32.414z"/><path d="m24.203 35.081c-2.133.446-3.203 2.635-3.203 3.919 0 2.542 1.458 4 4 4h14c2.505 0 4-1.495 4-4 0-1.255-1.021-3.373-3.058-3.886-.467-3.542-3.725-6.114-7.942-6.114-3.69 0-6.845 3.021-7.797 6.081zm7.797-4.081c2.908 0 6 1.752 6 5v1h1c1.398 0 2 1.518 2 2 0 1.383-.617 2-2 2h-14c-1.439 0-2-.561-2-2 0-.482.602-2 2-2h.824l.157-.81c.476-2.45 3.152-5.19 6.019-5.19z"/></svg>