<svg enable-background="new 0 0 64 64" height="64" viewBox="0 0 64 64" width="64" xmlns="http://www.w3.org/2000/svg"><path d="m24.927 37.071c1.888 1.889 4.4 2.929 7.071 2.929h.002c5.514 0 10-4.486 10-10 0-2.671-1.039-5.183-2.928-7.072-1.888-1.888-4.399-2.928-7.074-2.928-2.671 0-5.182 1.04-7.071 2.929-1.888 1.888-2.927 4.4-2.927 7.071s1.039 5.182 2.927 7.071zm7.075-15.071c2.137 0 4.146.832 5.656 2.342 1.51 1.511 2.342 3.52 2.342 5.658 0 1.846-.635 3.542-1.688 4.897l-11.214-11.213c1.397-1.088 3.102-1.684 4.904-1.684zm-6.318 3.098 11.213 11.213c-1.355 1.054-3.053 1.689-4.899 1.689-2.137 0-4.146-.832-5.656-2.343-1.511-1.511-2.342-3.52-2.342-5.657 0-1.8.596-3.505 1.684-4.902z"/><path d="m54 0h-44v64h44zm-2 2v6h-40v-6zm0 8v40h-40v-40zm-40 52v-10h40v10z"/><path d="m28 4h8v2h-8z"/><path d="m32 54c-1.654 0-3 1.346-3 3s1.346 3 3 3 3-1.346 3-3-1.346-3-3-3zm0 4c-.551 0-1-.449-1-1s.449-1 1-1 1 .449 1 1-.449 1-1 1z"/></svg>