<svg enable-background="new 0 0 64 64" height="64" viewBox="0 0 64 64" width="64" xmlns="http://www.w3.org/2000/svg"><path d="m25 23h22v2h-22z"/><path d="m25 33h22v2h-22z"/><path d="m25 43h22v2h-22z"/><path d="m25 53h22v2h-22z"/><path d="m17 23h4v2h-4z"/><path d="m17 33h4v2h-4z"/><path d="m17 43h4v2h-4z"/><path d="m17 53h4v2h-4z"/><path d="m27 0v4h-3.781l-.75 3h-13.469v57h46v-57h-13.469l-.75-3h-3.781v-4zm16.281 14-1.25-5h10.969v53h-42v-53h10.969l-1.25 5zm-4.062-8 1.5 6h-17.438l1.5-6h4.219v-4h6v4z"/></svg>