<svg enable-background="new 0 0 64 64" height="64" viewBox="0 0 64 64" width="64" xmlns="http://www.w3.org/2000/svg"><path d="m32.001-.113c-8.579 0-16.644 3.34-22.709 9.406-6.066 6.066-9.405 14.13-9.404 22.708 0 8.578 3.34 16.585 9.404 22.651 6.065 6.065 14.129 9.348 22.707 9.348h.002.003c17.706 0 32.11-14.351 32.109-32.057.001-8.578-3.34-16.614-9.405-22.68-6.064-6.064-14.129-9.376-22.707-9.376zm-.001 62.226v1-1.113c-.001 0-.001 0-.002 0-8.043 0-15.605-3.076-21.292-8.762-5.686-5.688-8.818-13.221-8.818-21.265-.001-8.044 3.13-15.592 8.818-21.28s13.25-8.812 21.295-8.812c8.044 0 15.605 3.136 21.293 8.823 5.688 5.688 8.817 13.251 8.817 21.295.001 16.602-13.111 30.113-30.111 30.114z"/><path d="m32 9c-6.144 0-11.919 2.393-16.263 6.738-4.344 4.344-6.737 10.119-6.737 16.262h2c0-5.608 2.185-10.882 6.151-14.849 3.966-3.966 9.24-6.151 14.849-6.151s10.883 2.185 14.85 6.152c3.965 3.967 6.15 9.24 6.15 14.848h2c0-6.142-2.393-11.918-6.736-16.263s-10.12-6.737-16.264-6.737z"/><path d="m30.757 32.293-6-6.947-1.514 1.308 6.072 7.032c-.2.409-.317.857-.315 1.327.004.801.318 1.553.888 2.117.565.561 1.316.87 2.112.87.807 0 1.562-.315 2.131-.888 1.163-1.175 1.155-3.078-.019-4.242-.879-.871-2.255-1.057-3.355-.577zm1.953 3.411c-.376.378-1.035.381-1.414.006-.189-.188-.295-.439-.296-.706s.102-.518.291-.708c.188-.192.44-.296.709-.296.266 0 .516.103.704.291.392.387.394 1.021.006 1.413z"/></svg>