<svg enable-background="new 0 0 64 64" height="64" viewBox="0 0 64 64" width="64" xmlns="http://www.w3.org/2000/svg"><path d="m58 28c0 13.851-12.149 26-26 26-9.265 0-12.178-3.573-12.2-3.6l-1.6 1.2c.13.174 3.223 4.11 12.8 4.375v6.025h-9v2h9 2 9v-2h-9v-6.027c14.495-.569 27-13.392 27-27.973 0-14.916-13.084-28-28-28v2c13.851 0 26 12.149 26 26z"/><path d="m32 49c11.58 0 21-9.42 21-21s-9.42-21-21-21-21 9.42-21 21 9.42 21 21 21zm0-40c10.477 0 19 8.523 19 19s-8.523 19-19 19-19-8.523-19-19 8.523-19 19-19z"/></svg>