<svg enable-background="new 0 0 64 64" height="64" viewBox="0 0 64 64" width="64" xmlns="http://www.w3.org/2000/svg"><path d="m56 0h-33.414l-14.586 14.586v49.414h48zm-34 3.414v10.586h-10.586zm32 58.586h-44v-46h14v-14h30z"/><path d="m22 31c-.44 0-.829.289-.957.71s.036.877.402 1.122l5.382 3.588-1.909 6.29c-.122.402.021.838.357 1.09.337.253.794.267 1.146.038l5.569-3.637 5.388 3.629c.169.114.364.17.559.17.205 0 .41-.063.584-.188.34-.245.491-.675.38-1.078l-1.744-6.303 5.397-3.599c.366-.245.53-.7.402-1.122-.127-.421-.516-.71-.956-.71h-6.307l-2.757-7.351c-.147-.395-.568-.633-.948-.649-.421.005-.794.273-.933.671l-2.553 7.329zm8.157 1.329 1.877-5.389 2.029 5.411c.147.39.52.649.937.649h3.697l-3.252 2.168c-.359.24-.524.683-.409 1.099l1.216 4.392-3.693-2.488c-.334-.224-.77-.228-1.105-.008l-3.822 2.497 1.326-4.369c.128-.422-.035-.878-.402-1.123l-3.253-2.168h3.91c.426 0 .805-.269.944-.671z"/></svg>