<svg enable-background="new 0 0 64 64" height="64" viewBox="0 0 64 64" width="64" xmlns="http://www.w3.org/2000/svg"><path d="m8 0v2c16 0 31.173 7.065 41.472 19.386 8.095 9.679 12.579 21.972 12.579 34.614h2c0-13.11-4.649-25.858-13.044-35.897-10.681-12.776-26.007-20.103-43.007-20.103z"/><path d="m50.769 56h2c0-24.657-19.769-44.718-44.769-44.718v2c24 0 42.769 19.163 42.769 42.718z"/><path d="m8 22.564v2c17 0 31.486 14.102 31.486 31.436h2c0-18.437-15.486-33.436-33.486-33.436z"/><path d="m30.205 56c0-12.216-10.205-22.154-22.205-22.154v2c11 0 20.205 9.041 20.205 20.154z"/><path d="m16.103 56c0-4.439-3.612-8.051-8.052-8.051s-8.051 3.612-8.051 8.051 3.611 8.051 8.051 8.051 8.052-3.612 8.052-8.051zm-14.103 0c0-3.336 2.715-6.051 6.051-6.051 3.337 0 6.052 2.715 6.052 6.051s-2.715 6.051-6.052 6.051c-3.336 0-6.051-2.715-6.051-6.051z"/></svg>