<svg enable-background="new 0 0 64 64" height="64" viewBox="0 0 64 64" width="64" xmlns="http://www.w3.org/2000/svg"><path d="m43.414 16-5.414-5.414-15.921 15.921-1.354 6.768 6.768-1.354zm-2.828 0-1.586 1.586-2.586-2.586 1.586-1.586zm-17.311 14.725.646-3.232 11.079-11.079 2.586 2.586-11.079 11.079z"/><path d="m54 0h-44v21.142l-10 4.193v38.665h64v-38.665l-10-4.193zm-2 2v29.716l-20 12.537-20-12.537v-29.716zm-42 28.462-6.835-4.285 6.835-2.866zm-8 31.538v-34.193l30 18.807 30-18.807v34.193zm58.835-35.823-6.835 4.285v-7.151z"/></svg>