<svg enable-background="new 0 0 64 64" height="64" viewBox="0 0 64 64" width="64" xmlns="http://www.w3.org/2000/svg"><path d="m49 0h-34v64h34zm-2 2v6h-30v-6zm0 8v40h-30v-40zm-30 52v-10h30v10z"/><path d="m28 4h8v2h-8z"/><path d="m32 54c-1.654 0-3 1.346-3 3s1.346 3 3 3 3-1.346 3-3-1.346-3-3-3zm0 4c-.551 0-1-.449-1-1s.449-1 1-1 1 .449 1 1-.449 1-1 1z"/><path d="m25 37h14c2.505 0 4-1.495 4-4 0-1.255-1.021-3.373-3.058-3.886-.467-3.542-3.725-6.114-7.942-6.114-3.69 0-6.845 3.022-7.797 6.081-2.133.446-3.203 2.634-3.203 3.919 0 2.542 1.458 4 4 4zm0-6h.825l.157-.81c.476-2.45 3.15-5.19 6.018-5.19 2.909 0 6 1.752 6 5v1h1c1.398 0 2 1.518 2 2 0 1.383-.617 2-2 2h-14c-1.439 0-2-.561-2-2 0-.482.602-2 2-2z"/></svg>