<svg enable-background="new 0 0 64 64" height="64" viewBox="0 0 64 64" width="64" xmlns="http://www.w3.org/2000/svg"><path d="m60 40h-.139l-6-40h-43.722l-6 40h-.139v24h56zm-48.139-38h40.277l5.7 38h-15.838v1c0 5.514-4.486 10-10 10s-10-4.486-10-10v-1h-15.839zm46.139 60h-52v-20h14.042c.509 6.15 5.678 11 11.958 11s11.449-4.85 11.958-11h14.042z"/><path d="m24.918 30.71c-.122.402.021.838.357 1.09s.795.269 1.147.037l5.569-3.637 5.388 3.629c.169.114.364.171.559.171.205 0 .41-.062.584-.188.339-.244.491-.675.379-1.078l-1.745-6.303 5.398-3.599c.367-.244.53-.7.402-1.122-.126-.422-.516-.71-.956-.71h-6.307l-2.756-7.352c-.147-.395-.544-.69-.948-.648-.421.005-.794.273-.933.671l-2.554 7.329h-6.502c-.44 0-.83.288-.957.71-.128.422.036.878.402 1.122l5.382 3.588zm.385-9.71h3.91c.425 0 .804-.27.944-.671l1.877-5.389 2.029 5.411c.147.39.52.649.937.649h3.697l-3.252 2.168c-.359.239-.524.683-.409 1.099l1.216 4.392-3.693-2.487c-.333-.226-.768-.229-1.105-.008l-3.822 2.496 1.326-4.369c.128-.422-.036-.878-.402-1.122z"/></svg>