<svg enable-background="new 0 0 64 64" height="64" viewBox="0 0 64 64" width="64" xmlns="http://www.w3.org/2000/svg"><path d="m60 40h-.139l-6-40h-43.722l-6 40h-.139v24h56zm-48.139-38h40.277l5.7 38h-15.838v1c0 5.514-4.486 10-10 10s-10-4.486-10-10v-1h-15.839zm46.139 60h-52v-20h14.041c.51 6.15 5.679 11 11.959 11s11.449-4.85 11.959-11h14.041z"/><path d="m25.707 31.707 6.293-6.293 6.293 6.293 1.414-1.414-6.293-6.293 6.293-6.293-1.414-1.414-6.293 6.293-6.293-6.293-1.414 1.414 6.293 6.293-6.293 6.293z"/></svg>