<svg enable-background="new 0 0 64 64" height="64" viewBox="0 0 64 64" width="64" xmlns="http://www.w3.org/2000/svg"><path d="m40.781 4h-3.781v-4h-10v4h-3.781l-.75 3h-13.469v57h46v-57h-13.469zm-16 2h4.219v-4h6v4h4.219l1.5 6h-17.438zm28.219 3v53h-42v-53h10.969l-1.25 5h22.562l-1.25-5z"/><path d="m42 33h-6.307l-2.757-7.352c-.148-.395-.511-.658-.948-.648-.421.005-.794.273-.933.671l-2.553 7.329h-6.502c-.44 0-.829.288-.957.71s.036.878.402 1.122l5.382 3.588-1.909 6.29c-.122.402.021.838.357 1.09.337.253.794.27 1.146.037l5.569-3.637 5.388 3.629c.17.114.365.171.56.171.205 0 .41-.062.584-.188.34-.244.491-.675.38-1.078l-1.744-6.303 5.397-3.599c.366-.244.53-.7.402-1.122s-.517-.71-.957-.71zm-6.555 4.168c-.359.239-.524.683-.409 1.099l1.216 4.392-3.693-2.487c-.334-.226-.77-.229-1.105-.008l-3.822 2.496 1.326-4.369c.128-.422-.035-.878-.402-1.122l-3.253-2.169h3.91c.426 0 .805-.27.944-.671l1.877-5.389 2.029 5.411c.147.39.52.649.937.649h3.697z"/></svg>