<svg enable-background="new 0 0 64 64" height="64" viewBox="0 0 64 64" width="64" xmlns="http://www.w3.org/2000/svg"><path d="m31.713 11.339-3.263-6.698-28.758 14.911 18.82 40.777 13.435-6.237 12.519 6.259 19.852-41.794-28.758-14.911zm-12.225 46.332-17.18-37.223 25.242-13.089 3.036 6.232-15.928 31.856 15.001 7.501zm42.195-38.228-18.148 38.206-26.193-13.096 19.098-38.199z"/><path d="m34.122 42.498 12.934-5.879-1.177-14.117-12.934 5.879zm10-17 .823 9.883-9.066 4.121-.823-9.883z"/><path d="m36.5 8.882h2v2.236h-2z" transform="matrix(.8944 .4472 -.4472 .8944 8.4311 -15.7148)"/><path d="m5.382 21h2.236v2h-2.236z" transform="matrix(-.4472 -.8944 .8944 -.4472 -10.2705 37.6525)"/><path d="m41.5 52.882h2v2.236h-2z" transform="matrix(-.8944 -.4472 .4472 -.8944 56.3636 121.3056)"/></svg>