<svg enable-background="new 0 0 64 64" height="64" viewBox="0 0 64 64" width="64" xmlns="http://www.w3.org/2000/svg"><path d="m53 32c0-6.993-3.449-13.181-8.721-17h.721v-15h-26v15h.721c-5.272 3.819-8.721 10.007-8.721 17s3.449 13.181 8.721 17h-.721v15h26v-15h-.721c5.272-3.819 8.721-10.007 8.721-17zm-32-30h22v12.146c-3.204-1.982-6.964-3.146-11-3.146s-7.796 1.164-11 3.146zm22 60h-22v-12.146c3.204 1.982 6.964 3.146 11 3.146s7.796-1.164 11-3.146zm-11-11c-10.477 0-19-8.523-19-19s8.523-19 19-19 19 8.523 19 19-8.523 19-19 19z"/><path d="m33 20h-2v12.618l8.553 4.277.894-1.79-7.447-3.723z"/></svg>