<svg enable-background="new 0 0 64 64" height="64" viewBox="0 0 64 64" width="64" xmlns="http://www.w3.org/2000/svg"><path d="m22.414 9h-22.414v46h64v-38h-33.586zm39.586 44h-60v-42h19.586l8 8h32.414z"/><path d="m22 36c-.001 2.671 1.039 5.183 2.928 7.071 1.887 1.889 4.399 2.929 7.07 2.929h.002c5.514 0 10-4.486 10-10 .001-2.672-1.039-5.184-2.928-7.071-1.888-1.889-4.399-2.929-7.074-2.929-2.671 0-5.183 1.04-7.07 2.929-1.889 1.888-2.929 4.4-2.928 7.071zm9.998 8c-2.137 0-4.146-.832-5.656-2.343-1.511-1.511-2.342-3.52-2.342-5.657 0-1.8.596-3.505 1.684-4.902l11.214 11.214c-1.356 1.053-3.053 1.688-4.9 1.688zm.004-16c2.137 0 4.146.832 5.656 2.343s2.342 3.519 2.342 5.657c0 1.846-.635 3.542-1.688 4.897l-11.213-11.212c1.396-1.089 3.101-1.685 4.903-1.685z"/></svg>