<svg enable-background="new 0 0 64 64" height="64" viewBox="0 0 64 64" width="64" xmlns="http://www.w3.org/2000/svg"><path d="m22 12h-2v8h-8v2h8v8h2v-8h8v-2h-8z"/><path d="m41 39.586-4.484-4.484c3.394-3.732 5.484-8.671 5.484-14.102 0-11.58-9.421-21-21-21s-21 9.42-21 21 9.421 21 21 21c5.431 0 10.37-2.089 14.102-5.484l4.484 4.484-3 3 20.414 20.414 7.414-7.414-20.414-20.414zm-39-18.586c0-10.477 8.523-19 19-19s19 8.523 19 19-8.523 19-19 19-19-8.523-19-19zm55 40.586-17.586-17.586 4.586-4.586 17.586 17.586z"/></svg>