<svg enable-background="new 0 0 64 64" height="64" viewBox="0 0 64 64" width="64" xmlns="http://www.w3.org/2000/svg"><path d="m49.5 22.125c-1.541 0-3.06.246-4.508.723.944-1.948 1.445-4.097 1.445-6.285 0-7.961-6.477-14.438-14.438-14.438s-14.437 6.477-14.437 14.437c0 2.188.502 4.338 1.446 6.285-1.449-.477-2.969-.723-4.509-.723-7.995 0-14.5 6.505-14.5 14.5s6.505 14.5 14.5 14.5c5.602 0 11.503-2.51 14.498-6.833-.043 4.905-1.196 17.709-5.997 17.709v2h9 9v-2c-4.796 0-5.953-12.803-5.998-17.708 2.995 4.323 8.896 6.833 14.498 6.833 7.995 0 14.5-6.505 14.5-14.5s-6.505-14.5-14.5-14.5zm0 27c-6.974 0-14.5-4.253-14.5-11.125h-2v6c0 1.624.142 13.261 4.083 18h-5.083-5.083c3.941-4.739 4.083-16.376 4.083-18v-6h-2c0 6.872-7.526 11.125-14.5 11.125-6.893 0-12.5-5.607-12.5-12.5s5.607-12.5 12.5-12.5c2.382 0 4.709.684 6.728 1.977l1.301-1.49c-1.913-2.248-2.967-5.106-2.967-8.049 0-6.858 5.58-12.438 12.438-12.438s12.438 5.579 12.438 12.438c0 2.943-1.053 5.802-2.966 8.049l1.301 1.49c2.017-1.293 4.343-1.977 6.727-1.977 6.893 0 12.5 5.607 12.5 12.5s-5.607 12.5-12.5 12.5z"/></svg>