<svg enable-background="new 0 0 64 64" height="64" viewBox="0 0 64 64" width="64" xmlns="http://www.w3.org/2000/svg"><path d="m32 13.929c-2.361-5.783-8.643-9.929-16-9.929-10.016 0-16 8.644-16 17 0 8.589 5.326 17.755 15.83 27.242 7.737 6.989 15.59 11.577 15.668 11.623l.502.291.502-.291c.078-.046 7.931-4.634 15.668-11.623 10.504-9.487 15.83-18.653 15.83-27.242 0-8.356-5.984-17-16-17-7.357 0-13.639 4.146-16 9.929zm-30 7.071c0-7.373 5.236-15 14-15 7.214 0 15 4.971 15 13v.469l5.519 4.599-7.933 7.932 6 6-6 6 6 6-5.777 5.777c-8.12-5.46-26.809-19.67-26.809-34.777zm60 0c0 17.818-26.032 34.409-30 36.833-.34-.208-.852-.526-1.485-.934l6.899-6.899-6-6 6-6-6-6 8.067-8.067-6.454-5.379c.287-7.762 7.896-12.554 14.973-12.554 8.764 0 14 7.627 14 15z"/></svg>