<svg enable-background="new 0 0 64 64" height="64" viewBox="0 0 64 64" width="64" xmlns="http://www.w3.org/2000/svg"><path d="m41.707 40.293-8.707-8.707v-19.586h-2v20.414l9.293 9.293z"/><path d="m4 31h4v2h-4z"/><path d="m56 31h4v2h-4z"/><path d="m31 56h2v4h-2z"/><path d="m31 4h2v4h-2z"/><path d="m32 0v2c16.542 0 30 13.458 30 30s-13.458 30-30 30-30-13.458-30-30c0-6.265 1.91-12.263 5.525-17.352l4.475-4.476v8.828h2v-11l-1-1h-11v2h8.344l-4.292 4.293-.106.126c-3.89 5.444-5.946 11.869-5.946 18.581 0 17.645 14.355 32 32 32s32-14.355 32-32-14.355-32-32-32z"/></svg>