<svg enable-background="new 0 0 64 64" height="64" viewBox="0 0 64 64" width="64" xmlns="http://www.w3.org/2000/svg"><path d="m41 37.586-4.15-4.15 7.559-7.436h3.591c5.019 0 11-2.342 11-13.5v-1.573l-8.778 4.115-3.038-3.164 3.84-8.878h-1.524c-11.158 0-13.5 6.011-13.5 11v3.59l-7.442 7.554-12.144-12.144 3.198-3.198-11.767-7.061-3.104 3.104 7.061 11.768 3.198-3.199 12.154 12.154-24.366 24.73-.178.18-1.992 6.831 2.968 2.793 6.857-1.696 24.98-24.567 4.163 4.161-3 3 20.414 20.414 7.414-7.414-20.414-20.414zm-33.741-31.431.896-.896 8.232 4.939-4.189 4.189zm2.173 51.44-5.268 1.304-1.282-1.207 1.508-5.169 33.61-34.113v-4.41c0-5.6 3.261-8.521 9.958-8.896l-3.142 7.236 4.962 5.117 7.174-3.362c-.405 6.575-3.412 9.905-8.952 9.905h-4.409zm47.568 1.991-17.586-17.586 4.586-4.586 17.586 17.586z"/></svg>