<svg enable-background="new 0 0 64 64" height="64" viewBox="0 0 64 64" width="64" xmlns="http://www.w3.org/2000/svg"><path d="m28 13.586-14-14-14.414 14.414 14 14-4 4 32.414 32.414 22.414-22.414-32.414-32.414zm-25.586.414 11.586-11.586 12.586 12.586-11.586 11.586zm39.586 47.586-29.586-29.586 2.586-2.586 14.414-14.414 2.586-2.586 29.586 29.586z"/><path d="m5.136 16.5h12.728v2h-12.728z" transform="matrix(-.7071 -.7071 .7071 -.7071 7.2574 38.0061)"/><path d="m16.5 5.136h2v12.728h-2z" transform="matrix(.7071 -.7071 .7071 .7071 -3.0061 15.7426)"/></svg>