<svg enable-background="new 0 0 64 64" height="64" viewBox="0 0 64 64" width="64" xmlns="http://www.w3.org/2000/svg"><path d="m22.414 9h-22.414v46h64v-38h-33.586zm39.586 44h-60v-42h19.586l8 8h32.414z"/><path d="m22 33c-.44 0-.83.288-.957.71-.128.422.036.878.402 1.122l5.382 3.588-1.91 6.29c-.122.402.021.838.357 1.09.336.253.795.268 1.147.037l5.569-3.637 5.388 3.629c.17.114.365.171.56.171.205 0 .41-.062.584-.188.339-.244.491-.675.379-1.078l-1.745-6.303 5.398-3.599c.367-.244.53-.7.402-1.122-.126-.422-.516-.71-.956-.71h-6.307l-2.756-7.352c-.147-.39-.52-.648-.937-.648-.004 0-.008 0-.012 0-.421.005-.794.273-.933.671l-2.553 7.329zm8.157 1.329 1.877-5.389 2.029 5.411c.147.39.52.649.937.649h3.697l-3.252 2.168c-.359.239-.524.683-.409 1.099l1.216 4.392-3.693-2.487c-.333-.226-.769-.229-1.105-.008l-3.822 2.496 1.326-4.369c.128-.422-.036-.878-.402-1.122l-3.253-2.169h3.91c.425 0 .804-.27.944-.671z"/></svg>