<svg enable-background="new 0 0 64 64" height="64" viewBox="0 0 64 64" width="64" xmlns="http://www.w3.org/2000/svg"><path d="m32 40h2l-1.8 2.4 1.7 1.2 3.1-4v-1.2l-3.1-4-1.65 1.2 1.75 2.4h-2c-3.942 0-7-4.3-7-8h-2c0 4.721 3.849 10 9 10z"/><path d="m33.8 24.4-1.8-2.4h2c3.942 0 7 4.3 7 8h2c0-4.721-3.849-10-9-10h-2l1.8-2.4-1.7-1.2-3.1 4v1.2l3.1 4z"/><path d="m54 0h-44v64h44zm-2 2v6h-40v-6zm0 8v40h-40v-40zm-40 52v-10h40v10z"/><path d="m28 4h8v2h-8z"/><path d="m32 54c-1.654 0-3 1.346-3 3s1.346 3 3 3 3-1.346 3-3-1.346-3-3-3zm0 4c-.551 0-1-.449-1-1s.449-1 1-1 1 .449 1 1-.449 1-1 1z"/></svg>