<svg enable-background="new 0 0 64 64" height="64" viewBox="0 0 64 64" width="64" xmlns="http://www.w3.org/2000/svg"><path d="m53 5h-8v4h-26v-4h-8v4h-11v50h64v-50h-11zm-6 2h4v6h-4zm-34 0h4v6h-4zm-11 50v-38h60v38zm60-46v6h-60v-6h9v4h8v-4h26v4h8v-4z"/><path d="m31.998 28c-2.671 0-5.182 1.04-7.071 2.929-1.888 1.888-2.927 4.4-2.927 7.071s1.039 5.183 2.927 7.071 4.4 2.929 7.071 2.929h.002c5.514 0 10-4.486 10-10 0-2.672-1.039-5.184-2.928-7.071-1.888-1.889-4.399-2.929-7.074-2.929zm0 18c-2.137 0-4.146-.832-5.656-2.343-1.511-1.511-2.342-3.52-2.342-5.657 0-1.8.596-3.505 1.684-4.902l11.213 11.214c-1.355 1.053-3.053 1.688-4.899 1.688zm6.314-3.103-11.214-11.212c1.397-1.089 3.102-1.685 4.904-1.685 2.137 0 4.146.832 5.656 2.343s2.342 3.519 2.342 5.657c0 1.846-.635 3.542-1.688 4.897z"/></svg>