<svg enable-background="new 0 0 64 64" height="64" viewBox="0 0 64 64" width="64" xmlns="http://www.w3.org/2000/svg"><path d="m32 48c20.273 0 31.345-14.779 31.807-15.409l.433-.591-.434-.591c-.461-.63-11.533-15.409-31.806-15.409s-31.345 14.779-31.807 15.409l-.433.591.434.591c.461.63 11.533 15.409 31.806 15.409zm0-30c16.983 0 27.434 11.265 29.719 14-2.285 2.735-12.736 14-29.719 14s-27.434-11.265-29.719-14c2.285-2.735 12.736-14 29.719-14z"/><path d="m32 40c4.411 0 8-3.589 8-8s-3.589-8-8-8-8 3.589-8 8 3.589 8 8 8zm0-14c3.309 0 6 2.691 6 6s-2.691 6-6 6-6-2.691-6-6 2.691-6 6-6z"/></svg>