<svg enable-background="new 0 0 64 64" height="64" viewBox="0 0 64 64" width="64" xmlns="http://www.w3.org/2000/svg"><path d="m43 14h-22v16h22zm-4 2c1.103 0 2 .897 2 2s-.897 2-2 2-2-.897-2-2 .897-2 2-2zm-3.443 0c-.345.591-.557 1.268-.557 2 0 2.206 1.794 4 4 4 .732 0 1.409-.212 2-.556v5.254l-6.062-5.051-1.855 1.856-4-5-6.083 6.083v-8.586zm-12.557 11.414 5.917-5.917 4 5 2.145-2.144 4.376 3.647h-16.438z"/><path d="m54 21.142v-21.142h-44v21.142l-10 4.193v38.665h64v-38.665zm6.836 5.035-6.836 4.285v-7.151zm-8.836-24.177v29.716l-20 12.537-20-12.537v-29.716zm-42 28.462-6.836-4.285 6.836-2.866zm-8 31.538v-34.193l30 18.807 30-18.807v34.193z"/></svg>