<svg enable-background="new 0 0 64 64" height="64" viewBox="0 0 64 64" width="64" xmlns="http://www.w3.org/2000/svg"><path d="m25.002 41c2.204 0 3.998-1.794 3.998-4v-10.18l8-1.6v6.336c-.59-.344-1.268-.556-1.998-.556-2.207 0-4.002 1.794-4.002 4s1.795 4 4.002 4c2.204 0 3.998-1.794 3.998-4v-16.22l-12 2.4v12.376c-.59-.344-1.268-.556-1.998-.556-2.207 0-4.002 1.794-4.002 4s1.795 4 4.002 4zm10-4c-1.104 0-2.002-.897-2.002-2s.898-2 2.002-2c1.102 0 1.998.897 1.998 2s-.896 2-1.998 2zm1.998-15.78v1.96l-8 1.6v-1.96zm-11.998 13.78c1.102 0 1.998.897 1.998 2s-.896 2-1.998 2c-1.104 0-2.002-.897-2.002-2s.898-2 2.002-2z"/><path d="m54 0h-44v64h44zm-2 2v6h-40v-6zm0 8v40h-40v-40zm-40 52v-10h40v10z"/><path d="m28 4h8v2h-8z"/><path d="m32 54c-1.654 0-3 1.346-3 3s1.346 3 3 3 3-1.346 3-3-1.346-3-3-3zm0 4c-.552 0-1-.449-1-1s.448-1 1-1 1 .449 1 1-.448 1-1 1z"/></svg>