<svg enable-background="new 0 0 64 64" height="64" viewBox="0 0 64 64" width="64" xmlns="http://www.w3.org/2000/svg"><path d="m32 64c7.747 0 15.029-3.017 20.506-8.496 5.478-5.476 8.494-12.758 8.494-20.504s-3.017-15.028-8.495-20.504c-5.239-5.243-12.134-8.223-19.505-8.472v-4.024h5v-2h-6-1-5v2h5v4.024c-7.371.248-14.266 3.229-19.506 8.471-5.477 5.476-8.494 12.758-8.494 20.505s3.017 15.028 8.494 20.504c5.477 5.479 12.759 8.496 20.506 8.496zm-19.092-48.091c4.863-4.864 11.255-7.638 18.092-7.885v2.976h2v-2.976c6.837.248 13.229 3.021 18.092 7.885 4.863 4.862 7.637 11.254 7.884 18.091h-2.976v2h2.976c-.248 6.836-3.021 13.228-7.884 18.09-4.863 4.864-11.255 7.638-18.092 7.886v-2.976h-2v2.976c-6.837-.248-13.229-3.021-18.092-7.886-4.863-4.862-7.636-11.254-7.884-18.09h2.976v-2h-2.976c.247-6.837 3.021-13.229 7.884-18.091z"/><path d="m13.979 17.98h4v2h-4z" transform="matrix(.7072 .707 -.707 .7072 18.0964 -5.7403)"/><path d="m46.021 50.021h4.001v2h-4.001z" transform="matrix(.7071 .7071 -.7071 .7071 50.1423 -19.0123)"/><path d="m47.022 16.98h2v4h-2z" transform="matrix(.7071 .7071 -.7071 .7071 27.4857 -28.3974)"/><path d="m14.98 49.02h2v4.002h-2z" transform="matrix(.7071 .7071 -.7071 .7071 40.7576 3.6445)"/><path d="m32 39c2.206 0 4-1.794 4-4 0-1.858-1.28-3.411-3-3.858v-10.142h-2v10.142c-1.72.447-3 2-3 3.858 0 2.206 1.794 4 4 4zm0-6c1.103 0 2 .897 2 2s-.897 2-2 2-2-.897-2-2 .897-2 2-2z"/></svg>