<svg enable-background="new 0 0 64 64" height="64" viewBox="0 0 64 64" width="64" xmlns="http://www.w3.org/2000/svg"><path d="m8 64h48v-64h-33.414l-14.586 14.586zm46-2h-44v-46h14v-14h30zm-42.586-48 10.586-10.586v10.586z"/><path d="m21 33c0 7.184 10.1 12.653 10.529 12.882l.471.251.471-.251c.429-.229 10.529-5.698 10.529-12.882 0-3.42-2.58-6-6-6-2.084 0-3.924 1.068-5 2.687-1.076-1.619-2.916-2.687-5-2.687-3.42 0-6 2.58-6 6zm10 0h2c0-2.206 1.794-4 4-4 2.318 0 4 1.682 4 4 0 5.203-7.086 9.724-9 10.85-1.914-1.126-9-5.647-9-10.85 0-2.318 1.682-4 4-4 2.206 0 4 1.794 4 4z"/></svg>