<svg enable-background="new 0 0 64 64" height="64" viewBox="0 0 64 64" width="64" xmlns="http://www.w3.org/2000/svg"><path d="m55.978 33.05c-.52-11.14-10.15-20.05-21.912-20.05-10.404 0-19.648 6.823-21.871 16h-.862c-6.249 0-11.333 4.935-11.333 11 0 6.168 4.832 11 11 11h44c5.047 0 9-3.953 9-9 0-4.716-3.452-8.477-8.022-8.95zm-.978 15.95h-44c-5.047 0-9-3.953-9-9 0-4.962 4.187-9 9.333-9h2.491l.157-.81c1.682-8.659 10.317-15.19 20.085-15.19 10.992 0 19.934 8.523 19.934 19v1h1c3.925 0 7 3.075 7 7s-3.075 7-7 7z"/><path d="m31.998 24c-2.671 0-5.183 1.04-7.07 2.929-1.889 1.888-2.929 4.4-2.928 7.071-.001 2.671 1.039 5.182 2.928 7.071 1.887 1.889 4.399 2.929 7.07 2.929h.002c5.514 0 10-4.486 10-10 .001-2.671-1.039-5.183-2.928-7.072-1.888-1.888-4.399-2.928-7.074-2.928zm0 18c-2.137 0-4.146-.832-5.656-2.343-1.511-1.511-2.342-3.52-2.342-5.657 0-1.8.596-3.505 1.684-4.902l11.214 11.213c-1.356 1.054-3.053 1.689-4.9 1.689zm6.314-3.103-11.213-11.213c1.396-1.088 3.101-1.684 4.903-1.684 2.137 0 4.146.832 5.656 2.342 1.511 1.511 2.342 3.52 2.342 5.658 0 1.846-.635 3.542-1.688 4.897z"/></svg>