<svg enable-background="new 0 0 64 64" height="64" viewBox="0 0 64 64" width="64" xmlns="http://www.w3.org/2000/svg"><path d="m47 22.289 12.041 40.993 1.918-.563-3.562-12.129 5.828-1.943-4.55-15.925-5.945 1.981-3.845-13.09-1.885.554v-10.167h-2.334l-4.999-12h-13.146l-4.136 5.135-9.137-.147-2.003 7.012h-2.245v52h38zm10.325 12.99 3.45 12.075-3.943 1.314-3.538-12.045zm-29.846-33.279h10.854l4.167 10h-16.766l-1.764-5.646zm-12.728 5.012 7.367.119 1.523 4.869h-10.315zm30.249 54.988h-34v-48h34z"/><path d="m21 22h2v34h-2z"/><path d="m33 22h2v34h-2z"/></svg>