<svg enable-background="new 0 0 64 64" height="64" viewBox="0 0 64 64" width="64" xmlns="http://www.w3.org/2000/svg"><path d="m31.998 26c-2.671 0-5.183 1.04-7.07 2.929-1.889 1.888-2.929 4.4-2.928 7.071-.001 2.671 1.039 5.183 2.928 7.071 1.887 1.889 4.399 2.929 7.07 2.929h.002c5.514 0 10-4.486 10-10 .001-2.672-1.039-5.184-2.928-7.071-1.888-1.889-4.399-2.929-7.074-2.929zm0 18c-2.137 0-4.146-.832-5.656-2.343-1.511-1.511-2.342-3.52-2.342-5.657 0-1.8.596-3.505 1.684-4.902l11.214 11.214c-1.356 1.053-3.053 1.688-4.9 1.688zm6.314-3.103-11.213-11.213c1.396-1.088 3.101-1.684 4.903-1.684 2.137 0 4.146.832 5.656 2.343s2.342 3.519 2.342 5.657c0 1.846-.635 3.542-1.688 4.897z"/><path d="m40.781 4h-3.781v-4h-10v4h-3.781l-.75 3h-13.469v57h46v-57h-13.469zm-16 2h4.219v-4h6v4h4.219l1.5 6h-17.438zm28.219 3v53h-42v-53h10.969l-1.25 5h22.562l-1.25-5z"/></svg>