<svg enable-background="new 0 0 64 64" height="64" viewBox="0 0 64 64" width="64" xmlns="http://www.w3.org/2000/svg"><path d="m53 5h-8v4h-26v-4h-8v4h-11v50h64v-50h-11zm-6 2h4v6h-4zm-34 0h4v6h-4zm-11 50v-38h60v38zm60-46v6h-60v-6h9v4h8v-4h26v4h8v-4z"/><path d="m37 29c-2.085 0-3.924 1.068-5 2.687-1.076-1.619-2.915-2.687-5-2.687-3.421 0-6 2.58-6 6 0 7.184 10.1 12.653 10.529 12.882l.471.251.471-.251c.429-.229 10.529-5.698 10.529-12.882 0-3.42-2.579-6-6-6zm-5 16.85c-1.914-1.126-9-5.647-9-10.85 0-2.318 1.683-4 4-4 2.206 0 4 1.794 4 4h2c0-2.206 1.794-4 4-4 2.317 0 4 1.682 4 4 0 5.203-7.086 9.724-9 10.85z"/></svg>