<svg enable-background="new 0 0 64 64" height="64" viewBox="0 0 64 64" width="64" xmlns="http://www.w3.org/2000/svg"><path d="m32 32h2l-1.8 2.4 1.7 1.2 3.1-4v-1.2l-3.1-4-1.65 1.2 1.75 2.4h-2c-3.942 0-7-4.3-7-8h-2c0 4.721 3.849 10 9 10z"/><path d="m33.8 16.4-1.8-2.4h2c3.942 0 7 4.3 7 8h2c0-4.721-3.849-10-9-10h-2l1.8-2.4-1.7-1.2-3.1 4v1.2l3.1 4z"/><path d="m54 0h-44v21.142l-10 4.193v38.665h64v-38.665l-10-4.193zm-2 2v29.716l-20 12.537-20-12.537v-29.716zm-42 28.462-6.835-4.285 6.835-2.866zm-8 31.538v-34.193l30 18.807 30-18.807v34.193zm58.835-35.823-6.835 4.285v-7.151z"/></svg>