<svg enable-background="new 0 0 64 64" height="64" viewBox="0 0 64 64" width="64" xmlns="http://www.w3.org/2000/svg"><path d="m49 0h-34v64h34zm-2 2v6h-30v-6zm0 8v40h-30v-40zm-30 52v-10h30v10z"/><path d="m28 4h8v2h-8z"/><path d="m32 54c-1.654 0-3 1.346-3 3s1.346 3 3 3 3-1.346 3-3-1.346-3-3-3zm0 4c-.552 0-1-.449-1-1s.448-1 1-1 1 .449 1 1-.448 1-1 1z"/><path d="m29 34c1.569 0 3.016-.526 4.185-1.402l7.108 7.109 1.414-1.414-7.108-7.109c.876-1.168 1.401-2.614 1.401-4.184 0-3.86-3.141-7-7-7s-7 3.14-7 7 3.141 7 7 7zm0-12c2.757 0 5 2.243 5 5s-2.243 5-5 5-5-2.243-5-5 2.243-5 5-5z"/></svg>