<svg enable-background="new 0 0 64 64" height="64" viewBox="0 0 64 64" width="64" xmlns="http://www.w3.org/2000/svg"><path d="m8 64h48v-64h-33.414l-14.586 14.586zm46-2h-44v-46h14v-14h30zm-42.586-48 10.586-10.586v10.586z"/><path d="m22 36c0 2.671 1.039 5.182 2.927 7.071s4.4 2.929 7.071 2.929h.002c5.514 0 10-4.486 10-10 0-2.672-1.039-5.183-2.928-7.072-1.888-1.888-4.399-2.928-7.074-2.928-2.671 0-5.182 1.04-7.07 2.929s-2.928 4.4-2.928 7.071zm9.998 8c-2.137 0-4.146-.832-5.656-2.343-1.511-1.511-2.342-3.52-2.342-5.657 0-1.8.596-3.505 1.685-4.902l11.212 11.214c-1.355 1.054-3.053 1.688-4.899 1.688zm.003-16c2.137 0 4.146.832 5.657 2.342 1.511 1.511 2.342 3.52 2.342 5.658 0 1.846-.635 3.542-1.689 4.897l-11.212-11.213c1.396-1.088 3.1-1.684 4.902-1.684z"/></svg>