<svg enable-background="new 0 0 64 64" height="64" viewBox="0 0 64 64" width="64" xmlns="http://www.w3.org/2000/svg"><path d="m41 37.586-17.586-17.586 12-12-5.305-5.302-.688.486c-.025.018-2.537 1.769-5.671 1.769-2.244 0-4.277-.896-6.043-2.66l-.707-.707-17.414 17.414 12.414 12.414 10-10 17.586 17.586-3 3 20.414 20.414 7.414-7.414-20.414-20.414zm-38.586-18.586 14.612-14.612c1.983 1.703 4.241 2.565 6.724 2.565 2.722 0 4.992-1.057 6.103-1.687l2.733 2.734-20.586 20.586zm54.586 40.586-17.586-17.586 4.586-4.586 17.586 17.586z"/></svg>