<svg enable-background="new 0 0 64 64" height="64" viewBox="0 0 64 64" width="64" xmlns="http://www.w3.org/2000/svg"><path d="m33 0c-13.417 0-27 2.748-27 8v48c0 5.252 13.583 8 27 8s27-2.748 27-8v-48c0-5.252-13.583-8-27-8zm0 62c-15.489 0-25-3.495-25-6v-12.775c4.254 3.145 14.672 4.775 25 4.775s20.746-1.63 25-4.775v12.775c0 2.505-9.511 6-25 6zm0-16c-15.489 0-25-3.495-25-6v-12.775c4.254 3.145 14.672 4.775 25 4.775s20.746-1.63 25-4.775v12.775c0 2.505-9.511 6-25 6zm0-16c-15.489 0-25-3.495-25-6v-12.775c4.254 3.145 14.672 4.775 25 4.775s20.746-1.63 25-4.775v12.775c0 2.505-9.511 6-25 6zm0-16c-15.489 0-25-3.495-25-6s9.511-6 25-6 25 3.495 25 6-9.511 6-25 6z"/></svg>