<svg enable-background="new 0 0 64 64" height="64" viewBox="0 0 64 64" width="64" xmlns="http://www.w3.org/2000/svg"><path d="m53 5h-8v4h-26v-4h-8v4h-11v50h64v-50h-11zm-6 2h4v6h-4zm-34 0h4v6h-4zm-11 50v-38h60v38zm60-46v6h-60v-6h9v4h8v-4h26v4h8v-4z"/><path d="m42 35h-6.307l-2.757-7.351c-.148-.395-.511-.677-.948-.649-.421.005-.794.273-.933.671l-2.553 7.329h-6.502c-.44 0-.829.289-.957.71s.036.877.402 1.122l5.382 3.588-1.909 6.29c-.122.402.021.838.357 1.09.337.254.794.268 1.146.038l5.569-3.637 5.388 3.629c.169.114.364.17.559.17.205 0 .41-.063.584-.188.34-.245.491-.675.38-1.078l-1.744-6.303 5.397-3.599c.366-.245.53-.7.402-1.122-.127-.421-.516-.71-.956-.71zm-6.555 4.168c-.359.24-.524.683-.409 1.099l1.216 4.392-3.693-2.488c-.334-.224-.77-.228-1.105-.008l-3.822 2.497 1.326-4.369c.128-.422-.035-.878-.402-1.123l-3.253-2.168h3.91c.426 0 .805-.269.944-.671l1.877-5.389 2.029 5.411c.147.39.52.649.937.649h3.697z"/></svg>