<svg enable-background="new 0 0 64 64" height="64" viewBox="0 0 64 64" width="64" xmlns="http://www.w3.org/2000/svg"><path d="m0 64h64.414l-64.414-64.414zm2-9h6v-2h-6v-6h4v-2h-4v-6h6v-2h-6v-6h4v-2h-4v-6h6v-2h-6v-16.586l57.586 57.586h-57.586z"/><path d="m13 27.586v27.414h27.414zm2 4.828 20.586 20.586h-20.586z"/><path d="m64.375 46.375-2.472-9.886-36.903-36.903-7.414 7.414 36.903 36.903zm-2.75-2.75-6.114-1.528-29.097-29.097 4.586-4.586 29.097 29.097zm-36.625-41.211 4.586 4.586-4.586 4.586-4.586-4.586z"/></svg>