<svg enable-background="new 0 0 64 64" height="64" viewBox="0 0 64 64" width="64" xmlns="http://www.w3.org/2000/svg"><path d="m8 64h48v-64h-33.414l-14.586 14.586zm46-2h-44v-46h14v-14h30zm-42.586-48 10.586-10.586v10.586z"/><path d="m25.002 39c-2.207 0-4.002 1.794-4.002 4s1.795 4 4.002 4c2.205 0 3.998-1.794 3.998-4v-10.18l8-1.6v6.336c-.59-.344-1.267-.556-1.998-.556-2.207 0-4.002 1.794-4.002 4s1.795 4 4.002 4c2.205 0 3.998-1.794 3.998-4v-16.22l-12 2.4v12.375c-.59-.343-1.267-.555-1.998-.555zm0 6c-1.104 0-2.002-.897-2.002-2s.898-2 2.002-2c1.102 0 1.998.897 1.998 2s-.896 2-1.998 2zm10-2c-1.104 0-2.002-.897-2.002-2s.898-2 2.002-2c1.102 0 1.998.897 1.998 2s-.896 2-1.998 2zm1.998-15.78v1.96l-8 1.6v-1.96z"/></svg>