<svg enable-background="new 0 0 64 64" height="64" viewBox="0 0 64 64" width="64" xmlns="http://www.w3.org/2000/svg"><path d="m36 33c0-3.859-3.14-7-7-7s-7 3.141-7 7 3.14 7 7 7c1.57 0 3.016-.525 4.184-1.401l7.109 7.108 1.414-1.414-7.109-7.108c.876-1.169 1.402-2.616 1.402-4.185zm-12 0c0-2.757 2.243-5 5-5s5 2.243 5 5-2.243 5-5 5-5-2.243-5-5z"/><path d="m40.781 4h-3.781v-4h-10v4h-3.781l-.75 3h-13.469v57h46v-57h-13.469zm-16 2h4.219v-4h6v4h4.219l1.5 6h-17.438zm28.219 3v53h-42v-53h10.969l-1.25 5h22.562l-1.25-5z"/></svg>