<svg enable-background="new 0 0 64 64" height="64" viewBox="0 0 64 64" width="64" xmlns="http://www.w3.org/2000/svg"><path d="m53.861 0h-43.722l-6 40h-.139v24h56v-24h-.139zm-42 2h40.277l5.7 38h-51.677zm46.139 60h-52v-20h52z"/><path d="m48 56c2.206 0 4-1.794 4-4s-1.794-4-4-4-4 1.794-4 4 1.794 4 4 4zm0-6c1.103 0 2 .897 2 2s-.897 2-2 2-2-.897-2-2 .897-2 2-2z"/><path d="m39.942 20.114c-.467-3.542-3.725-6.114-7.942-6.114-3.69 0-6.845 3.022-7.797 6.081-2.133.446-3.203 2.634-3.203 3.919 0 2.542 1.458 4 4 4h14c2.505 0 4-1.495 4-4 0-1.255-1.021-3.373-3.058-3.886zm-.942 5.886h-14c-1.439 0-2-.561-2-2 0-.482.602-2 2-2h.824l.157-.81c.476-2.45 3.152-5.19 6.019-5.19 2.908 0 6 1.752 6 5v1h1c1.398 0 2 1.518 2 2 0 1.383-.617 2-2 2z"/></svg>