<svg enable-background="new 0 0 64 64" height="64" viewBox="0 0 64 64" width="64" xmlns="http://www.w3.org/2000/svg"><path d="m17 45v13h-4v6h38v-6h-3v-13c0-3.148-5.141-6.879-13.68-12.5 8.539-5.621 13.68-9.352 13.68-12.5v-14h3v-6h-38v6h4v14c0 3.148 5.141 6.879 13.68 12.5-8.539 5.621-13.68 9.352-13.68 12.5zm32 17h-34v-2h34zm-34-60h34v2h-34zm4 18v-14h27v14c0 2.389-7.343 7.269-13.5 11.304-6.157-4.035-13.5-8.915-13.5-11.304zm13.5 13.696c6.157 4.035 13.5 8.915 13.5 11.304v13h-27v-13c0-2.389 7.343-7.269 13.5-11.304z"/></svg>