<svg enable-background="new 0 0 64 64" height="64" viewBox="0 0 64 64" width="64" xmlns="http://www.w3.org/2000/svg"><path d="m8 64h48v-64h-33.414l-14.586 14.586zm46-2h-44v-46h14v-14h30zm-42.586-48 10.586-10.586v10.586z"/><path d="m21 28v16h22v-16zm20 4c0 1.103-.897 2-2 2s-2-.897-2-2 .897-2 2-2 2 .897 2 2zm-5.443-2c-.345.591-.557 1.268-.557 2 0 2.206 1.794 4 4 4 .731 0 1.409-.212 2-.556v5.254l-6.062-5.051-1.855 1.856-4-5-6.083 6.083v-8.586zm-12.557 11.414 5.917-5.917 4 5 2.145-2.144 4.376 3.647h-16.438z"/></svg>