<svg enable-background="new 0 0 64 64" height="64" viewBox="0 0 64 64" width="64" xmlns="http://www.w3.org/2000/svg"><path d="m25.002 33c2.204 0 3.998-1.794 3.998-4v-10.18l8-1.6v6.336c-.59-.344-1.268-.556-1.998-.556-2.207 0-4.002 1.794-4.002 4s1.795 4 4.002 4c2.204 0 3.998-1.794 3.998-4v-16.22l-12 2.4v12.376c-.59-.344-1.268-.556-1.998-.556-2.207 0-4.002 1.794-4.002 4s1.795 4 4.002 4zm10-4c-1.104 0-2.002-.897-2.002-2s.898-2 2.002-2c1.102 0 1.998.897 1.998 2s-.896 2-1.998 2zm1.998-15.78v1.96l-8 1.6v-1.96zm-11.998 13.78c1.102 0 1.998.897 1.998 2s-.896 2-1.998 2c-1.104 0-2.002-.897-2.002-2s.898-2 2.002-2z"/><path d="m54 0h-44v21.142l-10 4.193v38.665h64v-38.665l-10-4.193zm-2 2v29.716l-20 12.537-20-12.537v-29.716zm-42 28.462-6.836-4.285 6.836-2.866zm-8 31.538v-34.193l30 18.807 30-18.807v34.193zm58.836-35.823-6.836 4.285v-7.151z"/></svg>