<svg enable-background="new 0 0 64 64" height="64" viewBox="0 0 64 64" width="64" xmlns="http://www.w3.org/2000/svg"><path d="m33 7.025v-7.025h-2v7.025c-12.99.515-23.46 10.985-23.975 23.975h-7.025v2h7.025c.515 12.99 10.985 23.46 23.975 23.975v7.025h2v-7.025c12.99-.515 23.46-10.985 23.975-23.975h7.025v-2h-7.025c-.515-12.99-10.985-23.46-23.975-23.975zm0 47.95v-6.975h-2v6.975c-11.889-.512-21.463-10.086-21.975-21.975h6.975v-2h-6.975c.512-11.889 10.086-21.463 21.975-21.975v6.975h2v-6.975c11.889.512 21.463 10.086 21.975 21.975h-6.975v2h6.975c-.512 11.889-10.086 21.463-21.975 21.975z"/></svg>