<svg enable-background="new 0 0 64 64" height="64" viewBox="0 0 64 64" width="64" xmlns="http://www.w3.org/2000/svg"><path d="m32 64.292c7.824 0 15.18-3.047 20.713-8.581 5.533-5.532 8.58-12.888 8.58-20.712s-3.047-15.18-8.58-20.712c-4.094-4.094-9.188-6.823-14.729-7.968.006-.105.016-.212.016-.319 0-3.309-2.691-6-6-6s-6 2.691-6 6c0 .107.01.213.016.32-5.542 1.145-10.635 3.874-14.729 7.968-5.533 5.532-8.579 12.888-8.579 20.712s3.047 15.18 8.58 20.712c5.531 5.533 12.887 8.58 20.712 8.58zm0-62.292c2.2 0 3.989 1.785 3.998 3.983-1.314-.178-2.648-.275-3.998-.275s-2.684.097-3.998.275c.009-2.198 1.798-3.983 3.998-3.983zm-19.299 13.702c4.918-4.918 11.384-7.723 18.299-7.97v4.268h2v-4.268c6.915.248 13.38 3.052 18.299 7.97 4.918 4.918 7.722 11.384 7.969 18.298h-4.268v2h4.268c-.248 6.914-3.051 13.38-7.969 18.298-4.919 4.918-11.384 7.723-18.299 7.97v-4.268h-2v4.268c-6.915-.248-13.381-3.052-18.299-7.97s-7.722-11.384-7.969-18.298h4.268v-2h-4.268c.247-6.914 3.051-13.38 7.969-18.298z"/><path d="m37.362 40.932.56-.544 8-19-1.31-1.31-19 8-.544.56-7 18 1.294 1.294zm-.707-2.691-8.896-8.896 15.367-6.471zm-10.279-7.45 8.833 8.833-14.454 5.621z"/></svg>