<svg enable-background="new 0 0 64 64" height="64" viewBox="0 0 64 64" width="64" xmlns="http://www.w3.org/2000/svg"><path d="m49 0h-34v64h34zm-2 2v6h-30v-6zm0 8v40h-30v-40zm-30 52v-10h30v10z"/><path d="m28 4h8v2h-8z"/><path d="m32 54c-1.654 0-3 1.346-3 3s1.346 3 3 3 3-1.346 3-3-1.346-3-3-3zm0 4c-.551 0-1-.449-1-1s.449-1 1-1 1 .449 1 1-.449 1-1 1z"/><path d="m43 38v-16h-22v16zm-20-2.586 5.917-5.917 4 5 2.145-2.144 4.376 3.647h-16.438zm16-11.414c1.103 0 2 .897 2 2s-.897 2-2 2-2-.897-2-2 .897-2 2-2zm-3.443 0c-.345.591-.557 1.268-.557 2 0 2.206 1.794 4 4 4 .732 0 1.409-.212 2-.557v5.255l-6.062-5.051-1.855 1.856-4-5-6.083 6.083v-8.586z"/></svg>