<svg enable-background="new 0 0 64 64" height="64" viewBox="0 0 64 64" width="64" xmlns="http://www.w3.org/2000/svg"><path d="m32 0c-8.548 0-16.583 3.329-22.627 9.374-6.045 6.044-9.374 14.079-9.374 22.626s3.329 16.582 9.374 22.626c6.044 6.045 14.079 9.374 22.627 9.374 8.547 0 16.583-3.329 22.627-9.374 6.045-6.044 9.374-14.079 9.374-22.626s-3.329-16.582-9.374-22.626c-6.044-6.045-14.08-9.374-22.627-9.374zm21.213 53.212c-5.666 5.667-13.2 8.788-21.213 8.788-8.014 0-15.547-3.121-21.213-8.788-5.667-5.666-8.788-13.199-8.788-21.212s3.121-15.546 8.788-21.212c5.666-5.667 13.199-8.788 21.213-8.788 8.013 0 15.547 3.121 21.213 8.788 5.667 5.666 8.788 13.199 8.788 21.212s-3.121 15.546-8.788 21.212z"/><path d="m32 8c-6.411 0-12.438 2.497-16.97 7.03-4.534 4.532-7.03 10.56-7.03 16.97s2.496 12.438 7.03 16.97c4.532 4.533 10.559 7.03 16.97 7.03 6.41 0 12.438-2.496 16.97-7.03 4.534-4.532 7.03-10.56 7.03-16.97s-2.496-12.438-7.03-16.97c-4.532-4.534-10.56-7.03-16.97-7.03zm15.556 39.556c-4.156 4.156-9.68 6.444-15.556 6.444-5.877 0-11.401-2.288-15.556-6.444-4.156-4.156-6.444-9.68-6.444-15.556s2.288-11.4 6.444-15.556c4.155-4.156 9.679-6.444 15.556-6.444 5.876 0 11.4 2.288 15.556 6.444s6.444 9.68 6.444 15.556-2.288 11.4-6.444 15.556z"/><path d="m32 16c-4.273 0-8.292 1.664-11.313 4.687-3.023 3.021-4.687 7.04-4.687 11.313s1.664 8.292 4.687 11.313c3.021 3.023 7.04 4.687 11.313 4.687s8.292-1.664 11.313-4.687c3.023-3.021 4.687-7.04 4.687-11.313s-1.664-8.292-4.687-11.313c-3.021-3.023-7.04-4.687-11.313-4.687zm9.899 25.899c-2.644 2.645-6.16 4.101-9.899 4.101s-7.255-1.456-9.899-4.101-4.101-6.16-4.101-9.899 1.456-7.255 4.101-9.899 6.16-4.101 9.899-4.101 7.255 1.456 9.899 4.101 4.101 6.16 4.101 9.899-1.456 7.255-4.101 9.899z"/><path d="m32 24c-2.137 0-4.146.832-5.656 2.344-1.512 1.51-2.344 3.519-2.344 5.656s.832 4.146 2.344 5.656c1.51 1.512 3.519 2.344 5.656 2.344s4.146-.832 5.656-2.344c1.512-1.51 2.344-3.519 2.344-5.656s-.832-4.146-2.344-5.656c-1.51-1.512-3.519-2.344-5.656-2.344zm4.242 12.242c-1.134 1.134-2.639 1.758-4.242 1.758s-3.108-.624-4.242-1.758-1.758-2.639-1.758-4.242.624-3.108 1.758-4.242 2.639-1.758 4.242-1.758 3.108.624 4.242 1.758 1.758 2.639 1.758 4.242-.624 3.108-1.758 4.242z"/></svg>