<svg enable-background="new 0 0 64 64" height="64" viewBox="0 0 64 64" width="64" xmlns="http://www.w3.org/2000/svg"><path d="m0 4.863v50.017l32 4.129 32-4.129v-50.017l-32 4.129zm2 2.274 29 3.742v45.983l-29-3.741zm60 45.984-29 3.742v-45.984l9-1.162v18.9l5-2.5 5 2.5v-20.189l10-1.291zm-18-43.661 6-.774v16.696l-3-1.5-3 1.5z"/><path d="m6.948 16h19.105v2h-19.105z" transform="matrix(.9945 .1047 -.1047 .9945 1.8703 -1.6339)"/><path d="m6.948 26h19.105v2h-19.105z" transform="matrix(-.9945 -.1047 .1047 -.9945 30.0829 55.5789)"/><path d="m6.948 36h19.105v2h-19.105z" transform="matrix(-.9945 -.1047 .1047 -.9945 29.036 75.524)"/><path d="m6.948 46h19.105v2h-19.105z" transform="matrix(-.9945 -.1047 .1047 -.9945 27.9892 95.4691)"/><path d="m46.5 27.448h2v19.105h-2z" transform="matrix(-.1045 -.9945 .9945 -.1045 15.6654 88.1058)"/><path d="m46.5 37.448h2v19.105h-2z" transform="matrix(-.1045 -.9945 .9945 -.1045 5.7201 99.1507)"/></svg>