<svg enable-background="new 0 0 64 64" height="64" viewBox="0 0 64 64" width="64" xmlns="http://www.w3.org/2000/svg"><path d="m13 6.08v-6.08h-2v6.08c-3.387.488-6 3.4-6 6.92s2.613 6.432 6 6.92v44.08h2v-44.08c3.387-.488 6-3.4 6-6.92s-2.613-6.432-6-6.92zm-1 11.92c-2.757 0-5-2.243-5-5s2.243-5 5-5 5 2.243 5 5-2.243 5-5 5z"/><path d="m53 44.08v-44.08h-2v44.08c-3.387.488-6 3.4-6 6.92s2.613 6.432 6 6.92v6.08h2v-6.08c3.387-.488 6-3.4 6-6.92s-2.613-6.432-6-6.92zm-1 11.92c-2.757 0-5-2.243-5-5s2.243-5 5-5 5 2.243 5 5-2.243 5-5 5z"/><path d="m33 25.08v-25.08h-2v25.08c-3.387.488-6 3.4-6 6.92s2.613 6.432 6 6.92v25.08h2v-25.08c3.387-.488 6-3.4 6-6.92s-2.613-6.432-6-6.92zm-1 11.92c-2.757 0-5-2.243-5-5s2.243-5 5-5 5 2.243 5 5-2.243 5-5 5z"/></svg>