<svg enable-background="new 0 0 64 64" height="64" viewBox="0 0 64 64" width="64" xmlns="http://www.w3.org/2000/svg"><path d="m16 23h22v2h-22z"/><path d="m16 33h22v2h-22z"/><path d="m16 43h22v2h-22z"/><path d="m16 53h22v2h-22z"/><path d="m8 23h4v2h-4z"/><path d="m8 33h4v2h-4z"/><path d="m8 43h4v2h-4z"/><path d="m8 53h4v2h-4z"/><path d="m46 7h-13.469l-.75-3h-3.781v-4h-10v4h-3.781l-.75 3h-13.469v57h46zm-30.219-1h4.219v-4h6v4h4.219l1.5 6h-17.438zm28.219 56h-42v-53h10.969l-1.25 5h22.562l-1.25-5h10.969z"/><path d="m64 2h-10v4h-4v11h2v-9h2v45.236l5 10 5-10zm-2 50.764-3 6-3-6v-48.764h6z"/></svg>