<svg enable-background="new 0 0 64 64" height="64" viewBox="0 0 64 64" width="64" xmlns="http://www.w3.org/2000/svg"><path d="m51 0c-7.168 0-13 5.832-13 13 0 2.702.83 5.213 2.246 7.294l-21.644 13.774c-1.978-1.895-4.653-3.068-7.602-3.068-6.065 0-11 4.935-11 11s4.935 11 11 11c4.134 0 7.739-2.295 9.618-5.676l18.397 7.359c-.002.106-.015.211-.015.317 0 4.963 4.037 9 9 9s9-4.037 9-9-4.037-9-9-9c-4.149 0-7.642 2.826-8.679 6.651l-17.899-7.159c.369-1.099.578-2.27.578-3.492 0-2.39-.774-4.598-2.074-6.403l21.587-13.737c2.375 2.54 5.744 4.14 9.487 4.14 7.168 0 13-5.832 13-13s-5.832-13-13-13zm-3 48c3.859 0 7 3.141 7 7s-3.141 7-7 7-7-3.141-7-7 3.141-7 7-7zm-37 3c-4.963 0-9-4.037-9-9s4.037-9 9-9 9 4.037 9 9-4.037 9-9 9zm40-27c-6.065 0-11-4.935-11-11s4.935-11 11-11 11 4.935 11 11-4.935 11-11 11z"/></svg>