<svg enable-background="new 0 0 64 64" height="64" viewBox="0 0 64 64" width="64" xmlns="http://www.w3.org/2000/svg"><path d="m37 19.001c0-2.757-2.243-5.001-5-5.001s-5 2.244-5 5.001c0 2.756 2.243 4.999 5 4.999s5-2.243 5-4.999zm-8 0c0-1.655 1.346-3.001 3-3.001s3 1.346 3 3.001c0 1.654-1.346 2.999-3 2.999s-3-1.345-3-2.999z"/><path d="m31.976 48.582.776-.948c.543-.663 13.292-16.351 13.248-26.615-.035-8.281-6.315-15.019-14-15.019-7.72 0-14 6.739-14 15.023 0 10.26 12.664 25.945 13.203 26.607zm.024-40.582c6.587 0 11.97 5.844 12 13.028.035 8.158-9.24 20.763-12.019 24.354-2.764-3.595-11.981-16.199-11.981-24.359 0-7.181 5.383-13.023 12-13.023z"/><path d="m43 36v2h8.409l9.9 18h-58.618l9.9-18h8.409v-2h-9.591l-12.1 22h65.382l-12.1-22z"/></svg>