<svg enable-background="new 0 0 64 64" height="64" viewBox="0 0 64 64" width="64" xmlns="http://www.w3.org/2000/svg"><path d="m39 22c0-3.86-3.14-7-7-7s-7 3.14-7 7 3.14 7 7 7 7-3.14 7-7zm-12 0c0-2.757 2.243-5 5-5s5 2.243 5 5-2.243 5-5 5-5-2.243-5-5z"/><path d="m31.962 64.543.763-.895c.872-1.02 21.345-25.191 21.275-40.917-.054-12.534-9.923-22.731-22-22.731-12.131 0-22 10.199-22 22.735 0 15.721 20.336 39.89 21.202 40.911zm.038-62.543c10.979 0 19.951 9.304 20 20.74.06 13.328-16.274 34.091-20.033 38.69-3.739-4.604-19.967-25.36-19.967-38.695 0-11.433 8.972-20.735 20-20.735z"/></svg>