<svg enable-background="new 0 0 64 64" height="64" viewBox="0 0 64 64" width="64" xmlns="http://www.w3.org/2000/svg"><path d="m29 26c1.57 0 3.016-.526 4.185-1.401l7.108 7.108 1.414-1.414-7.108-7.108c.875-1.169 1.401-2.615 1.401-4.185 0-3.86-3.14-7-7-7s-7 3.14-7 7 3.14 7 7 7zm0-12c2.757 0 5 2.243 5 5s-2.243 5-5 5-5-2.243-5-5 2.243-5 5-5z"/><path d="m54 0h-44v21.142l-10 4.193v38.665h64v-38.665l-10-4.193zm-2 2v29.716l-20 12.537-20-12.537v-29.716zm-42 28.462-6.835-4.285 6.835-2.866zm-8 31.538v-34.193l30 18.807 30-18.807v34.193zm58.835-35.823-6.835 4.285v-7.151z"/></svg>