<svg enable-background="new 0 0 64 64" height="64" viewBox="0 0 64 64" width="64" xmlns="http://www.w3.org/2000/svg"><path d="m49 0h-34v64h34zm-2 2v6h-30v-6zm0 8v40h-30v-40zm-30 52v-10h30v10z"/><path d="m28 4h8v2h-8z"/><path d="m32 54c-1.654 0-3 1.346-3 3s1.346 3 3 3 3-1.346 3-3-1.346-3-3-3zm0 4c-.551 0-1-.449-1-1s.449-1 1-1 1 .449 1 1-.449 1-1 1z"/><path d="m27.493 39.921 15.921-15.921-5.414-5.414-15.921 15.921-1.354 6.768zm13.093-15.921-1.586 1.586-2.586-2.586 1.586-1.586zm-16.665 11.493 11.079-11.079 2.586 2.586-11.079 11.079-3.232.646z"/></svg>