<svg enable-background="new 0 0 64 64" height="64" viewBox="0 0 64 64" width="64" xmlns="http://www.w3.org/2000/svg"><path d="m50 26h-17v-4h14v-9h-10v-2h-2v4h10v5h-14v6h-17c-7.72 0-14 6.28-14 14s6.28 14 14 14c4.601 0 8.851-2.232 11.478-6h13.045c2.627 3.768 6.877 6 11.478 6 7.72 0 14-6.28 14-14s-6.281-14-14.001-14zm0 26c-4.101 0-7.877-2.071-10.102-5.54l-.294-.46h-15.208l-.295.46c-2.224 3.469-6 5.54-10.101 5.54-6.617 0-12-5.383-12-12s5.383-12 12-12h36c6.617 0 12 5.383 12 12s-5.383 12-12 12z"/><path d="m15 32h-2v7h-7v2h7v7h2v-7h7v-2h-7z"/><path d="m50 31.99c-4.411 0-8 3.589-8 8s3.589 8 8 8 8-3.589 8-8-3.589-8-8-8zm5.911 7.01h-4.911v-4.919c2.511.423 4.491 2.407 4.911 4.919zm-6.911-4.919v4.919h-4.911c.42-2.512 2.4-4.496 4.911-4.919zm-4.908 6.919h4.908v4.9c-2.504-.423-4.481-2.398-4.908-4.9zm6.908 4.9v-4.9h4.908c-.427 2.502-2.404 4.477-4.908 4.9z"/></svg>