<svg enable-background="new 0 0 64 64" height="64" viewBox="0 0 64 64" width="64" xmlns="http://www.w3.org/2000/svg"><path d="m39.942 35.114c-.467-3.542-3.725-6.114-7.942-6.114-3.69 0-6.845 3.021-7.797 6.081-2.133.446-3.203 2.635-3.203 3.919 0 2.542 1.458 4 4 4h14c2.505 0 4-1.495 4-4 0-1.255-1.021-3.373-3.058-3.886zm-.942 5.886h-14c-1.439 0-2-.561-2-2 0-.482.602-2 2-2h.825l.157-.81c.476-2.45 3.15-5.19 6.018-5.19 2.909 0 6 1.752 6 5v1h1c1.398 0 2 1.518 2 2 0 1.383-.617 2-2 2z"/><path d="m40.781 4h-3.781v-4h-10v4h-3.781l-.75 3h-13.469v57h46v-57h-13.469zm-16 2h4.219v-4h6v4h4.219l1.5 6h-17.438zm28.219 3v53h-42v-53h10.969l-1.25 5h22.562l-1.25-5z"/></svg>