<svg enable-background="new 0 0 64 64" height="64" viewBox="0 0 64 64" width="64" xmlns="http://www.w3.org/2000/svg"><path d="m32 0c-8.547 0-16.583 3.33-22.626 9.375-6.045 6.042-9.374 14.078-9.374 22.625s3.329 16.583 9.374 22.626c6.043 6.045 14.078 9.374 22.626 9.374s16.583-3.33 22.627-9.375c6.044-6.042 9.373-14.078 9.373-22.625s-3.329-16.583-9.374-22.626c-6.043-6.045-14.079-9.374-22.626-9.374zm21.213 53.212c-5.667 5.667-13.2 8.788-21.213 8.788s-15.546-3.121-21.212-8.789c-5.668-5.665-8.788-13.198-8.788-21.211s3.121-15.546 8.788-21.212c5.665-5.667 13.198-8.788 21.212-8.788s15.547 3.122 21.213 8.789c5.667 5.665 8.787 13.198 8.787 21.211s-3.12 15.546-8.787 21.212z"/><path d="m33 12h-2v20.414l9.293 9.293 1.414-1.414-8.707-8.707z"/><path d="m4 31h4v2h-4z"/><path d="m56 31h4v2h-4z"/><path d="m31 56h2v4h-2z"/><path d="m31 4h2v4h-2z"/></svg>