<svg enable-background="new 0 0 64 64" height="64" viewBox="0 0 64 64" width="64" xmlns="http://www.w3.org/2000/svg"><path d="m53.144 20.271 6.27-6.271-9.414-9.414-6.27 6.27-4.73-1.577v-9.279h-14v9.279l-4.73 1.576-6.27-6.269-9.414 9.414 6.27 6.271-1.577 4.729h-9.279v14h9.279l1.577 4.729-6.27 6.271 9.414 9.414 6.27-6.27 4.73 1.577v9.279h14v-9.279l4.73-1.576 6.27 6.27 9.414-9.415-6.27-6.271 1.577-4.729h9.279v-14h-9.279zm8.856 16.729h-8.721l-2.423 7.271 5.73 5.729-6.586 6.586-5.73-5.73-7.27 2.423v8.721h-10v-8.721l-7.27-2.424-5.73 5.731-6.586-6.586 5.73-5.729-2.423-7.271h-8.721v-10h8.721l2.423-7.271-5.73-5.729 6.586-6.586 5.73 5.73 7.27-2.423v-8.721h10v8.721l7.27 2.424 5.73-5.731 6.586 6.586-5.73 5.729 2.423 7.271h8.721z"/><path d="m32 25c-3.86 0-7 3.141-7 7s3.14 7 7 7 7-3.141 7-7-3.14-7-7-7zm0 12c-2.757 0-5-2.243-5-5s2.243-5 5-5 5 2.243 5 5-2.243 5-5 5z"/></svg>