<svg enable-background="new 0 0 64 64" height="64" viewBox="0 0 64 64" width="64" xmlns="http://www.w3.org/2000/svg"><path d="m52.986 0c-.003 0-.006 0-.008 0-2.401 0-4.683.758-6.599 2.197l-13.104 13.105c-2.118 2.162-3.283 4.896-3.281 7.702.001 1.529.311 3.011.92 4.4.059.135.12.268.185.4l1.795-.884c-.051-.104-.1-.209-.146-.316l-.917.399.916-.401c-.499-1.137-.752-2.349-.753-3.603-.001-2.278.961-4.517 2.703-6.295l12.939-12.95c1.555-1.15 3.401-1.754 5.343-1.754h.007c2.401 0 4.66.928 6.359 2.625 1.702 1.699 2.639 3.954 2.641 6.358.001 1.942-.604 3.787-1.754 5.344l-11.94 11.955-.092.108c-1.719 2.292-4.343 3.61-7.2 3.61-.002 0-.004 0-.007 0-1.247 0-2.455-.254-3.59-.748l-.799 1.836c1.389.603 2.865.912 4.39.912h.008c3.468 0 6.654-1.59 8.753-4.351l11.943-11.96.092-.108c1.438-1.917 2.198-4.201 2.196-6.604-.002-2.938-1.148-5.691-3.227-7.768-2.078-2.074-4.838-3.209-7.773-3.209z"/><path d="m31.255 37.402c.498 1.135.75 2.346.751 3.598.001 1.942-.605 3.789-1.755 5.346l-11.94 11.956-.092.098c-1.717 2.291-4.341 3.6-7.198 3.6-.002 0-.004 0-.007 0-2.401 0-4.66-.928-6.359-2.625-1.702-1.699-2.639-3.954-2.641-6.358-.001-2.278.96-4.515 2.703-6.292l12.939-12.961c1.556-1.152 3.402-1.764 5.344-1.764h.007c1.248 0 2.456.254 3.59.749l.801-1.833c-1.389-.607-2.866-.916-4.392-.916-.002 0-.005 0-.008 0-2.402 0-4.684.768-6.599 2.208l-13.104 13.11c-2.118 2.16-3.283 4.896-3.281 7.703.002 2.938 1.148 5.692 3.227 7.769 2.078 2.075 4.838 3.21 7.773 3.21h.008c3.468 0 6.654-1.58 8.752-4.34l11.943-11.956.092-.105c1.438-1.917 2.198-4.199 2.196-6.602-.001-1.529-.31-3.009-.919-4.397z"/><path d="m19.272 31h25.455v2h-25.455z" transform="matrix(-.7066 .7076 -.7076 -.7066 77.2548 31.9693)"/></svg>