<svg enable-background="new 0 0 64 64" height="64" viewBox="0 0 64 64" width="64" xmlns="http://www.w3.org/2000/svg"><path d="m17.355 45.23-9.062 9.063 1.414 1.414 9.727-9.727c3.687 1.224 7.877 2.02 12.566 2.02 20.273 0 31.345-14.779 31.807-15.409l.433-.591-.434-.591c-.334-.456-6.236-8.328-17.162-12.639l9.062-9.063-1.414-1.414-9.727 9.727c-3.686-1.224-7.876-2.02-12.565-2.02-20.273 0-31.345 14.779-31.807 15.409l-.433.591.434.591c.333.456 6.236 8.328 17.161 12.639zm44.364-13.23c-2.285 2.735-12.736 14-29.719 14-4.024 0-7.678-.637-10.947-1.639l6.05-6.049c1.354 1.054 3.051 1.688 4.897 1.688 4.411 0 8-3.589 8-8 0-1.846-.635-3.542-1.688-4.897l6.749-6.749c9.283 3.455 15.034 9.702 16.658 11.646zm-35.719 0c0-3.309 2.691-6 6-6 1.294 0 2.49.416 3.471 1.115l-8.355 8.356c-.7-.981-1.116-2.177-1.116-3.471zm12 0c0 3.309-2.691 6-6 6-1.294 0-2.49-.416-3.471-1.115l8.355-8.356c.7.981 1.116 2.177 1.116 3.471zm-6-14c4.024 0 7.678.637 10.947 1.639l-6.05 6.049c-1.354-1.054-3.051-1.688-4.897-1.688-4.411 0-8 3.589-8 8 0 1.846.635 3.542 1.688 4.897l-6.749 6.749c-9.283-3.455-15.034-9.702-16.658-11.646 2.285-2.735 12.736-14 29.719-14z"/></svg>