<svg enable-background="new 0 0 64 64" height="64" viewBox="0 0 64 64" width="64" xmlns="http://www.w3.org/2000/svg"><path d="m60 40h-.139l-6-40h-43.722l-6 40h-.139v24h56zm-48.139-38h40.277l5.7 38h-15.838v1c0 5.514-4.486 10-10 10s-10-4.486-10-10v-1h-15.839zm46.139 60h-52v-20h14.042c.509 6.15 5.678 11 11.958 11s11.449-4.85 11.958-11h14.042z"/><path d="m32 34h2l-1.8 2.4 1.7 1.199 3.1-4v-1.199l-3.1-4-1.65 1.2 1.75 2.4h-2c-3.942 0-7-4.301-7-8h-2c0 4.721 3.849 10 9 10z"/><path d="m33.8 18.4-1.8-2.4h2c3.942 0 7 4.301 7 8h2c0-4.721-3.849-10-9-10h-2l1.8-2.4-1.7-1.2-3.1 4v1.2l3.1 4z"/></svg>