<svg enable-background="new 0 0 64 64" height="64" viewBox="0 0 64 64" width="64" xmlns="http://www.w3.org/2000/svg"><path d="m41.707 40.293-8.707-8.707v-19.586h-2v20.414l9.293 9.293z"/><path d="m4 31h4v2h-4z"/><path d="m56 31h4v2h-4z"/><path d="m31 56h2v4h-2z"/><path d="m31 4h2v4h-2z"/><path d="m53.651 9h8.349v-2h-11l-1 1v11h2v-8.828l4.475 4.476c3.615 5.089 5.525 11.087 5.525 17.352 0 16.542-13.458 30-30 30s-30-13.458-30-30 13.458-30 30-30v-2c-17.645 0-32 14.355-32 32s14.355 32 32 32 32-14.355 32-32c0-6.712-2.056-13.137-5.945-18.581z"/></svg>