<svg enable-background="new 0 0 64 64" height="64" viewBox="0 0 64 64" width="64" xmlns="http://www.w3.org/2000/svg"><path d="m11 64.618v-50.033l14.586-14.585h27.414v64.617l-5-2.499-4 2-4-2-4 2-4-2-4 2-4-2-4 2-4-2zm29-4.736 4 2 4-2 3 1.499v-59.381h-24.586l-13.414 13.413v45.969l3-1.5 4 2 4-2 4 2 4-2 4 2z"/><path d="m27 16h-15v-2h13v-13h2z"/><path d="m25 20h2v28h-2z"/><path d="m32.522 38.016c-.368 0-.599-.015-.641-.019l-9.881.003v-2h9.953c.115.006 4.605.284 7.207-2.146 1.242-1.159 1.871-2.793 1.871-4.854s-.629-3.695-1.871-4.854c-2.6-2.428-7.093-2.146-7.137-2.148l-6.023.002v-2h5.953c.148-.014 5.317-.346 8.563 2.676 1.669 1.553 2.515 3.681 2.515 6.324s-.846 4.771-2.515 6.324c-2.613 2.434-6.474 2.692-7.994 2.692z"/><path d="m22 41h11v2h-11z"/></svg>