<svg enable-background="new 0 0 64 64" height="64" viewBox="0 0 64 64" width="64" xmlns="http://www.w3.org/2000/svg"><path d="m36 52h-4c-5.151 0-9-5.279-9-10h2c0 3.7 3.058 8 7 8h4z"/><path d="m33.8 55.6-1.6-1.2 2.55-3.4-2.55-3.4 1.6-1.2 3 4v1.2z"/><path d="m43 42h-2c0-3.7-3.058-8-7-8h-4v-2h4c5.151 0 9 5.279 9 10z"/><path d="m32.2 37.6-3-4v-1.2l3-4 1.6 1.2-2.55 3.4 2.55 3.4z"/><path d="m55 64h-46v-47h46zm-44-2h42v-43h-42z"/><path d="m43 24h-2v-13c0-4.962-4.037-9-9-9s-9 4.038-9 9v13h-2v-13c0-6.065 4.935-11 11-11s11 4.935 11 11z"/></svg>