<svg enable-background="new 0 0 64 64" height="64" viewBox="0 0 64 64" width="64" xmlns="http://www.w3.org/2000/svg"><path d="m20 64c-3.859 0-7-3.14-7-7s3.141-7 7-7 7 3.14 7 7-3.141 7-7 7zm0-12c-2.757 0-5 2.243-5 5s2.243 5 5 5 5-2.243 5-5-2.243-5-5-5z"/><path d="m44 64c-3.859 0-7-3.14-7-7s3.141-7 7-7 7 3.14 7 7-3.141 7-7 7zm0-12c-2.757 0-5 2.243-5 5s2.243 5 5 5 5-2.243 5-5-2.243-5-5-5z"/><path d="m26 56h12v2h-12z"/><path d="m13.003 57.073-3.933-54.073h-9.07v-2h10.93l4.067 55.927z"/><path d="m13.069 43.998-.138-1.996 42.263-2.948 6.546-28.054h-50.74v-2h53.26l-7.454 31.946z"/><path d="m40 36h-4c-5.151 0-9-5.279-9-10h2c0 3.7 3.058 8 7 8h4z"/><path d="m37.8 39.6-1.6-1.2 2.55-3.4-2.55-3.4 1.6-1.2 3 4v1.2z"/><path d="m47 26h-2c0-3.7-3.058-8-7-8h-4v-2h4c5.151 0 9 5.279 9 10z"/><path d="m36.2 21.6-3-4v-1.2l3-4 1.6 1.2-2.55 3.4 2.55 3.4z"/></svg>