<svg enable-background="new 0 0 64 64" height="64" viewBox="0 0 64 64" width="64" xmlns="http://www.w3.org/2000/svg"><path d="m11 64.618v-50.033l14.586-14.585h27.414v64.617l-5-2.499-4 2-4-2-4 2-4-2-4 2-4-2-4 2-4-2zm29-4.736 4 2 4-2 3 1.499v-59.381h-24.586l-13.414 13.413v45.969l3-1.5 4 2 4-2 4 2 4-2 4 2z"/><path d="m27 16h-15v-2h13v-13h2z"/><path d="m34 47c-4.562 0-10-2.256-10-13 0-8.075 3.271-12 10-12 7.585 0 8.837 3.324 8.955 3.703l-1.91.594c-.002 0-.984-2.297-7.045-2.297-5.533 0-8 3.084-8 10 0 7.402 2.617 11 8 11 6.202 0 7.019-3.194 7.026-3.228l1.948.455c-.046.195-1.203 4.773-8.974 4.773z"/><path d="m21 32h15v2h-15z"/><path d="m21 36h15v2h-15z"/></svg>