<svg enable-background="new 0 0 64 64" height="64" viewBox="0 0 64 64" width="64" xmlns="http://www.w3.org/2000/svg"><path d="m52.728 60h-41.456l-11.647-36h64.75zm-40-2h38.545l10.353-32h-59.251z"/><path d="m17 4.23h2.001v21.541h-2.001z" transform="matrix(.9284 .3715 -.3715 .9284 6.8601 -5.6132)"/><path d="m35.23 14h21.541v2.001h-21.541z" transform="matrix(.3714 .9285 -.9285 .3714 42.8432 -33.2808)"/><path d="m39 49h-14c-2.542 0-4-1.458-4-4 0-1.285 1.07-3.473 3.203-3.919.952-3.059 4.107-6.081 7.797-6.081 4.217 0 7.475 2.572 7.942 6.114 2.037.513 3.058 2.631 3.058 3.886 0 2.505-1.495 4-4 4zm-14-6c-1.398 0-2 1.518-2 2 0 1.439.561 2 2 2h14c1.383 0 2-.617 2-2 0-.482-.602-2-2-2h-1v-1c0-3.248-3.092-5-6-5-2.867 0-5.543 2.74-6.019 5.19l-.157.81z"/></svg>