<svg enable-background="new 0 0 64 64" height="64" viewBox="0 0 64 64" width="64" xmlns="http://www.w3.org/2000/svg"><path d="m64 28h-64v-11h64zm-62-2h60v-7h-60z"/><path d="m59 59h-54v-33h54zm-52-2h50v-29h-50z"/><path d="m31 18h2v40h-2z"/><path d="m31.982 19c-.371 0-3.717-.034-7.03-1.219-4.548-1.628-6.952-4.664-6.952-8.781 0-3.127 2.208-5.07 5.762-5.07 4.369 0 9.238 2.903 9.238 7.07v7.992zm-8.22-13.07c-1.406 0-3.762.399-3.762 3.07 0 6.648 8.12 7.772 11 7.962v-5.962c0-2.855-3.891-5.07-7.238-5.07z"/><path d="m32.018 19-1.018-.008v-7.992c0-4.167 4.869-7.07 9.238-7.07 3.554 0 5.762 1.943 5.762 5.07 0 4.117-2.404 7.153-6.952 8.781-3.314 1.185-6.659 1.219-7.03 1.219zm8.22-13.07c-3.347 0-7.238 2.215-7.238 5.07v5.96c1.198-.082 3.315-.326 5.374-1.062 3.733-1.336 5.626-3.657 5.626-6.898 0-2.671-2.356-3.07-3.762-3.07z"/></svg>