<svg enable-background="new 0 0 64 64" height="64" viewBox="0 0 64 64" width="64" xmlns="http://www.w3.org/2000/svg"><path d="m29 13h2v39h-2z"/><path d="m33 13h2v39h-2z"/><path d="m31.988 47c-4.086 0-6.97-.812-8.572-2.413-1.416-1.416-1.416-2.99-1.416-3.583l2-.004c0 .438 0 1.342.831 2.172.834.834 2.752 1.828 7.157 1.828 3.776 0 6.395-.725 7.782-2.154 1.329-1.368 1.275-3.163 1.24-4.352-.005-.182-.01-.348-.01-.494 0-.06-.245-6-9.012-6-8.414 0-8.963-7.083-8.998-7.92-.052-.455-.271-3.188 1.632-5.383 1.552-1.79 4.03-2.697 7.365-2.697 9.886 0 10 6.93 10 7h-2 1l-1 .008c-.003-.204-.175-5.008-8-5.008-2.718 0-4.683.67-5.84 1.991-1.445 1.649-1.172 3.851-1.169 3.872l.01.137c.002.241.128 6 7 6 10.712 0 11.012 7.92 11.012 8 0 .128.004.274.009.435.04 1.338.114 3.829-1.804 5.805-1.778 1.831-4.879 2.76-9.217 2.76z"/><path d="m32 64c-8.547 0-16.583-3.329-22.626-9.374-6.045-6.044-9.374-14.079-9.374-22.626s3.329-16.582 9.374-22.626c6.043-6.045 14.079-9.374 22.626-9.374s16.583 3.329 22.627 9.374c6.044 6.044 9.373 14.079 9.373 22.626s-3.329 16.582-9.374 22.626c-6.043 6.045-14.079 9.374-22.626 9.374zm0-62c-8.013 0-15.546 3.121-21.212 8.788-5.667 5.666-8.788 13.199-8.788 21.212s3.121 15.546 8.788 21.212c5.666 5.667 13.199 8.788 21.212 8.788s15.546-3.121 21.213-8.788c5.667-5.666 8.787-13.199 8.787-21.212s-3.121-15.546-8.788-21.212c-5.666-5.667-13.199-8.788-21.212-8.788z"/></svg>