<svg enable-background="new 0 0 64 64" height="64" viewBox="0 0 64 64" width="64" xmlns="http://www.w3.org/2000/svg"><path d="m32 64c-8.547 0-16.583-3.329-22.626-9.374-6.045-6.044-9.374-14.079-9.374-22.626s3.329-16.582 9.374-22.626c6.043-6.045 14.079-9.374 22.626-9.374s16.583 3.329 22.627 9.374c6.044 6.044 9.373 14.079 9.373 22.626s-3.329 16.582-9.374 22.626c-6.043 6.045-14.079 9.374-22.626 9.374zm0-62c-8.013 0-15.546 3.121-21.212 8.788-5.667 5.666-8.788 13.199-8.788 21.212s3.121 15.546 8.788 21.212c5.666 5.667 13.199 8.788 21.212 8.788s15.546-3.121 21.213-8.788c5.667-5.666 8.787-13.199 8.787-21.212s-3.121-15.546-8.788-21.212c-5.666-5.667-13.199-8.788-21.212-8.788z"/><path d="m24 16h2v32h-2z"/><path d="m42.293 48.707-17.731-17.73 16.754-15.706 1.368 1.458-15.246 14.294 16.269 16.27z"/><path d="m20 30h19v2h-19z"/></svg>