<svg enable-background="new 0 0 64 64" height="64" viewBox="0 0 64 64" width="64" xmlns="http://www.w3.org/2000/svg"><path d="m44 58c-11.028 0-20-8.972-20-20s8.972-20 20-20 20 8.972 20 20-8.972 20-20 20zm0-38c-9.925 0-18 8.075-18 18s8.075 18 18 18 18-8.075 18-18-8.075-18-18-18z"/><path d="m44 52c-7.72 0-14-6.28-14-14s6.28-14 14-14 14 6.28 14 14-6.28 14-14 14zm0-26c-6.617 0-12 5.383-12 12s5.383 12 12 12 12-5.383 12-12-5.383-12-12-12z"/><path d="m39 58h-39v-8h30v2h-28v4h37z"/><path d="m30 52h-28v-8h25v2h-23v4h26z"/><path d="m27 46h-23v-8h22v2h-20v4h21z"/><path d="m26 40h-26v-8h26v2h-24v4h24z"/><path d="m26 34h-24v-8h27v2h-25v4h22z"/><path d="m29 28h-29v-8h35v2h-33v4h27z"/><path d="m35 22h-33v-8h39v6h-2v-4h-35v4h31z"/><path d="m39 16h-39v-8h39zm-37-2h35v-4h-35z"/></svg>