<svg enable-background="new 0 0 64 64" height="64" viewBox="0 0 64 64" width="64" xmlns="http://www.w3.org/2000/svg"><path d="m29 46c-3.859 0-7-3.14-7-7s3.141-7 7-7 7 3.14 7 7-3.141 7-7 7zm0-12c-2.757 0-5 2.243-5 5s2.243 5 5 5 5-2.243 5-5-2.243-5-5-5z"/><path d="m31.343 46h11.314v2h-11.314z" transform="matrix(.7071 .7071 -.7071 .7071 44.0711 -12.397)"/><path d="m55 64h-46v-47h46zm-44-2h42v-43h-42z"/><path d="m43 24h-2v-13c0-4.962-4.037-9-9-9s-9 4.038-9 9v13h-2v-13c0-6.065 4.935-11 11-11s11 4.935 11 11z"/></svg>