<svg enable-background="new 0 0 64 64" height="64" viewBox="0 0 64 64" width="64" xmlns="http://www.w3.org/2000/svg"><path d="m62 56h-62v-42h62v12h-2v-10h-58v38h58v-10h2z"/><path d="m55 15h-2v-5h-47v-2h49z"/><path d="m2 14h-2c0-3.309 2.691-6 6-6v2c-2.206 0-4 1.794-4 4z"/><path d="m64 45h-20.875c-5.514 0-10-4.486-10-10s4.486-10 10-10h20.875zm-20.875-18c-4.411 0-8 3.589-8 8s3.589 8 8 8h18.875v-16z"/><path d="m44 39c-2.206 0-4-1.794-4-4s1.794-4 4-4 4 1.794 4 4-1.794 4-4 4zm0-6c-1.103 0-2 .897-2 2s.897 2 2 2 2-.897 2-2-.897-2-2-2z"/></svg>