<svg enable-background="new 0 0 64 64" height="64" viewBox="0 0 64 64" width="64" xmlns="http://www.w3.org/2000/svg"><path d="m28 63.999c-7.48 0-14.511-2.912-19.799-8.2s-8.2-12.32-8.199-19.799c-.001-7.488 2.899-14.519 8.165-19.797 5.276-5.289 12.319-8.202 19.831-8.202h1l.002 26.999 26.999.001v1c.001 7.479-2.911 14.51-8.199 19.798s-12.318 8.2-19.797 8.2c-.001 0-.002 0-.003 0zm-1-53.979c-6.601.246-12.753 2.921-17.417 7.596-4.89 4.9-7.582 11.429-7.581 18.384-.001 6.945 2.703 13.474 7.613 18.385 4.91 4.91 11.439 7.614 18.383 7.614h.002.002c6.944 0 13.473-2.704 18.383-7.614 4.674-4.674 7.349-10.814 7.595-17.384l-26.98-.001z"/><path d="m64 29h-29v-29h1c7.515 0 14.558 2.913 19.834 8.202 5.267 5.279 8.167 12.31 8.166 19.798zm-27-2h24.981c-.245-6.579-2.908-12.72-7.563-17.385-4.665-4.677-10.817-7.352-17.418-7.596z"/></svg>