<svg enable-background="new 0 0 64 64" height="64" viewBox="0 0 64 64" width="64" xmlns="http://www.w3.org/2000/svg"><path d="m32 64c-8.548 0-16.583-3.329-22.627-9.374-6.045-6.044-9.374-14.079-9.374-22.626s3.329-16.582 9.374-22.626c6.044-6.045 14.079-9.374 22.627-9.374 8.547 0 16.583 3.329 22.627 9.374 6.045 6.044 9.374 14.079 9.374 22.626s-3.329 16.582-9.374 22.626c-6.044 6.045-14.08 9.374-22.627 9.374zm0-62c-8.014 0-15.547 3.121-21.213 8.788-5.667 5.666-8.788 13.199-8.788 21.212s3.121 15.546 8.788 21.212c5.666 5.667 13.199 8.788 21.213 8.788 8.013 0 15.547-3.121 21.213-8.788 5.667-5.666 8.788-13.199 8.788-21.212s-3.121-15.546-8.788-21.212c-5.666-5.667-13.2-8.788-21.213-8.788z"/><path d="m23 16h2v32h-2z"/><path d="m30.09 32.022c-.425 0-.694-.022-.737-.026l-5.353.004v-2h5.443c.126.009 3.759.299 5.92-1.682 1.09-.999 1.643-2.452 1.643-4.318s-.553-3.319-1.643-4.318c-2.162-1.98-5.793-1.69-5.831-1.686l-5.532.004v-2h5.443c.094-.013 4.438-.378 7.261 2.198 1.527 1.394 2.302 3.346 2.302 5.802s-.774 4.408-2.302 5.802c-2.163 1.974-5.221 2.22-6.614 2.22z"/><path d="m30.961 48.026c-.479 0-.783-.026-.831-.03l-6.13.004v-2h6.221c.129.008 4.338.348 6.857-1.96 1.276-1.169 1.924-2.865 1.924-5.04 0-2.179-.65-3.877-1.932-5.047-2.533-2.312-6.719-1.963-6.759-1.957l-6.311.004v-2h6.221c.113-.013 5.021-.426 8.198 2.476 1.714 1.564 2.583 3.76 2.583 6.524s-.869 4.96-2.583 6.524c-2.437 2.224-5.886 2.502-7.458 2.502z"/><path d="m29 13h2v39h-2z"/></svg>