<svg enable-background="new 0 0 64 64" height="64" viewBox="0 0 64 64" width="64" xmlns="http://www.w3.org/2000/svg"><path d="m20 64c-3.859 0-7-3.14-7-7s3.141-7 7-7 7 3.14 7 7-3.141 7-7 7zm0-12c-2.757 0-5 2.243-5 5s2.243 5 5 5 5-2.243 5-5-2.243-5-5-5z"/><path d="m44 64c-3.859 0-7-3.14-7-7s3.141-7 7-7 7 3.14 7 7-3.141 7-7 7zm0-12c-2.757 0-5 2.243-5 5s2.243 5 5 5 5-2.243 5-5-2.243-5-5-5z"/><path d="m26 56h12v2h-12z"/><path d="m13.003 57.073-3.933-54.073h-9.07v-2h10.93l4.067 55.927z"/><path d="m13.069 43.998-.138-1.996 42.263-2.948 6.546-28.054h-50.74v-2h53.26l-7.454 31.946z"/><path d="m43 32h-14c-2.542 0-4-1.458-4-4 0-1.285 1.07-3.473 3.203-3.919.952-3.059 4.107-6.081 7.797-6.081 4.217 0 7.475 2.572 7.942 6.114 2.037.513 3.058 2.631 3.058 3.886 0 2.505-1.495 4-4 4zm-14-6c-1.398 0-2 1.518-2 2 0 1.439.561 2 2 2h14c1.383 0 2-.617 2-2 0-.482-.602-2-2-2h-1v-1c0-3.248-3.092-5-6-5-2.867 0-5.543 2.74-6.019 5.19l-.157.81z"/></svg>