<svg enable-background="new 0 0 64 64" height="64" viewBox="0 0 64 64" width="64" xmlns="http://www.w3.org/2000/svg"><path d="m11 64.618v-50.033l14.586-14.585h27.414v64.617l-5-2.499-4 2-4-2-4 2-4-2-4 2-4-2-4 2-4-2zm29-4.736 4 2 4-2 3 1.499v-59.381h-24.586l-13.414 13.413v45.969l3-1.5 4 2 4-2 4 2 4-2 4 2z"/><path d="m27 16h-15v-2h13v-13h2z"/><path d="m32 45c-2.667 0-4.613-.598-5.785-1.775-1.225-1.231-1.217-2.696-1.215-3.179l2-.046c-.002.418-.006 1.172.633 1.813.772.777 2.282 1.187 4.367 1.187 2.397 0 4.093-.489 5.04-1.455 1.006-1.025.979-2.43.963-3.27l-.003-.275c0-.039-.321-4-6-4-4.907 0-7-1.495-7-5v-.147c-.002-1.211-.006-2.87 1.285-4.163 1.134-1.137 3.004-1.69 5.715-1.69 2.563 0 4.482.646 5.706 1.919 1.324 1.378 1.301 2.947 1.293 3.121l-1.998-.08.999.04-1-.026c0-.038.002-.922-.766-1.699-.824-.835-2.288-1.275-4.234-1.275-2.123 0-3.569.371-4.3 1.103-.705.706-.702 1.743-.7 2.746v.151c0 1.337 0 3 5 3 6.642 0 8 4.732 8 6l.003.237c.019 1.001.059 3.084-1.536 4.709-1.337 1.363-3.513 2.054-6.467 2.054z"/><path d="m33 21h2v27h-2z"/><path d="m29 21h2v27h-2z"/></svg>