<svg enable-background="new 0 0 64 64" height="64" viewBox="0 0 64 64" width="64" xmlns="http://www.w3.org/2000/svg"><path d="m52.728 60h-41.456l-11.647-36h64.75zm-40-2h38.545l10.353-32h-59.251z"/><path d="m17 4.23h2.001v21.541h-2.001z" transform="matrix(.9284 .3715 -.3715 .9284 6.8601 -5.6132)"/><path d="m35.23 14h21.541v2.001h-21.541z" transform="matrix(.3714 .9285 -.9285 .3714 42.8432 -33.2808)"/><path d="m35 52h-4c-5.151 0-9-5.279-9-10h2c0 3.7 3.058 8 7 8h4z"/><path d="m32.8 55.6-1.6-1.2 2.55-3.4-2.55-3.4 1.6-1.2 3 4v1.2z"/><path d="m42 42h-2c0-3.7-3.058-8-7-8h-4v-2h4c5.151 0 9 5.279 9 10z"/><path d="m31.2 37.6-3-4v-1.2l3-4 1.6 1.2-2.55 3.4 2.55 3.4z"/></svg>