<svg enable-background="new 0 0 64 64" height="64" viewBox="0 0 64 64" width="64" xmlns="http://www.w3.org/2000/svg"><path d="m32 64c-8.548 0-16.583-3.329-22.627-9.374-6.045-6.044-9.374-14.079-9.374-22.626s3.329-16.582 9.374-22.626c6.044-6.045 14.079-9.374 22.627-9.374 8.547 0 16.583 3.329 22.627 9.374 6.045 6.044 9.374 14.079 9.374 22.626s-3.329 16.582-9.374 22.626c-6.044 6.045-14.08 9.374-22.627 9.374zm0-62c-8.014 0-15.547 3.121-21.213 8.788-5.667 5.666-8.788 13.199-8.788 21.212s3.121 15.546 8.788 21.212c5.666 5.667 13.199 8.788 21.213 8.788 8.013 0 15.547-3.121 21.213-8.788 5.667-5.666 8.788-13.199 8.788-21.212s-3.121-15.546-8.788-21.212c-5.666-5.667-13.2-8.788-21.213-8.788z"/><path d="m23 16h2v32h-2z"/><path d="m31.832 36.029c-.531 0-.869-.028-.923-.033l-11.909.004v-2h12c.14.01 4.92.395 7.795-2.238 1.463-1.341 2.205-3.28 2.205-5.762 0-2.486-.744-4.428-2.213-5.769-2.89-2.638-7.649-2.24-7.696-2.235l-7.091.004v-2h7c.139-.018 5.602-.474 9.136 2.755 1.9 1.735 2.864 4.173 2.864 7.245s-.964 5.51-2.864 7.245c-2.71 2.476-6.555 2.784-8.304 2.784z"/><path d="m19 40h13v2h-13z"/></svg>