<svg enable-background="new 0 0 64 64" height="64" viewBox="0 0 64 64" width="64" xmlns="http://www.w3.org/2000/svg"><path d="m11 64.618v-50.033l14.586-14.585h27.414v64.617l-5-2.499-4 2-4-2-4 2-4-2-4 2-4-2-4 2-4-2zm29-4.736 4 2 4-2 3 1.499v-59.381h-24.586l-13.414 13.413v45.969l3-1.5 4 2 4-2 4 2 4-2 4 2z"/><path d="m27 16h-15v-2h13v-13h2z"/><path d="m22 20h20v2h-20z"/><path d="m19 25h26v2h-26z"/><path d="m24.879 48h-2.879v-2h2.879c1.451 0 2.035-2.65 2.121-3.09v-15.91h2l-.011 16.148c-.271 1.802-1.442 4.852-4.11 4.852z"/><path d="m42 48h-2.003c-3.299 0-4.697-2.48-4.976-3.792l-.021-.208v-17h2v16.876c.125.438.752 2.124 2.997 2.124h2.003z"/></svg>