<svg enable-background="new 0 0 64 64" height="64" viewBox="0 0 64 64" width="64" xmlns="http://www.w3.org/2000/svg"><path d="m24 64.414-7.414-7.414.707-.707c1.324-1.324 1.707-2.287 1.707-4.293 0-4.056-2.944-7-7-7-2.006 0-2.969.383-4.293 1.707l-.707.707-7.414-7.414 40.414-40.414 7.414 7.414-.707.707c-1.324 1.324-1.707 2.287-1.707 4.293 0 4.056 2.944 7 7 7 2.006 0 2.969-.383 4.293-1.707l.707-.707 7.414 7.414zm-4.614-7.443 4.614 4.615 37.586-37.586-4.614-4.614c-1.422 1.192-2.791 1.614-4.972 1.614-5.131 0-9-3.869-9-9 0-2.181.422-3.55 1.614-4.971l-4.614-4.615-37.586 37.586 4.614 4.614c1.422-1.192 2.791-1.614 4.972-1.614 5.131 0 9 3.869 9 9 0 2.181-.422 3.55-1.614 4.971z"/><path d="m25.172 16h5.657v2h-5.657z" transform="matrix(.7071 .7071 -.7071 .7071 20.2218 -14.8198)"/><path d="m44.172 35h5.657v2h-5.657z" transform="matrix(.7071 .7071 -.7071 .7071 39.2218 -22.6899)"/><path d="m31.172 22h5.657v2h-5.657z" transform="matrix(.7071 .7071 -.7071 .7071 26.2218 -17.3051)"/><path d="m38.172 29h5.657v2h-5.657z" transform="matrix(.7071 .7071 -.7071 .7071 33.2218 -20.2046)"/></svg>