<svg enable-background="new 0 0 64 64" height="64" viewBox="0 0 64 64" width="64" xmlns="http://www.w3.org/2000/svg"><path d="m11 64.618v-50.033l14.586-14.585h27.414v64.617l-5-2.499-4 2-4-2-4 2-4-2-4 2-4-2-4 2-4-2zm29-4.736 4 2 4-2 3 1.499v-59.381h-24.586l-13.414 13.413v45.969l3-1.5 4 2 4-2 4 2 4-2 4 2z"/><path d="m27 16h-15v-2h13v-13h2z"/><path d="m34.388 50.676-13.388-12.236v-2.44h7c.117.005 4.538.294 7.119-2.108 1.248-1.162 1.881-2.808 1.881-4.892 0-2.819-1.473-4.847-4.376-6.026-2.299-.934-4.613-.974-4.637-.974h-6.987v-2h7c3.812.048 11 1.989 11 9 0 2.667-.851 4.809-2.527 6.364-3.229 2.996-8.328 2.647-8.548 2.633l-4.443.002 12.256 11.2z"/><path d="m21 20h22v2h-22z"/><path d="m21 25h22v2h-22z"/></svg>