<svg enable-background="new 0 0 64 64" height="64" viewBox="0 0 64 64" width="64" xmlns="http://www.w3.org/2000/svg"><path d="m11 64.618v-50.033l14.586-14.585h27.414v64.617l-5-2.499-4 2-4-2-4 2-4-2-4 2-4-2-4 2-4-2zm29-4.736 4 2 4-2 3 1.499v-59.381h-24.586l-13.414 13.413v45.969l3-1.5 4 2 4-2 4 2 4-2 4 2z"/><path d="m27 16h-15v-2h13v-13h2z"/><path d="m33 48h-2v-11.68l-9.814-13.739 1.628-1.162 10.186 14.261z"/><path d="m36 20.398h2v17.205h-2z" transform="matrix(.8139 .581 -.581 .8139 23.735 -16.1003)"/><path d="m23 37h18v2h-18z"/><path d="m34 32h7v2h-7z"/><path d="m23 32h7v2h-7z"/></svg>