<svg enable-background="new 0 0 64 64" height="64" viewBox="0 0 64 64" width="64" xmlns="http://www.w3.org/2000/svg"><path d="m20 64c-3.859 0-7-3.14-7-7s3.141-7 7-7 7 3.14 7 7-3.141 7-7 7zm0-12c-2.757 0-5 2.243-5 5s2.243 5 5 5 5-2.243 5-5-2.243-5-5-5z"/><path d="m44 64c-3.859 0-7-3.14-7-7s3.141-7 7-7 7 3.14 7 7-3.141 7-7 7zm0-12c-2.757 0-5 2.243-5 5s2.243 5 5 5 5-2.243 5-5-2.243-5-5-5z"/><path d="m26 56h12v2h-12z"/><path d="m13.003 57.073-3.933-54.073h-9.07v-2h10.93l4.067 55.927z"/><path d="m13.069 43.998-.138-1.996 42.263-2.948 6.546-28.054h-50.74v-2h53.26l-7.454 31.946z"/><path d="m36.707 35.707h-1.414l-8-8 1.414-1.414 7.293 7.293 7.293-7.293 1.414 1.414z"/><path d="m35 15h2v20h-2z"/></svg>