<svg enable-background="new 0 0 64 64" height="64" viewBox="0 0 64 64" width="64" xmlns="http://www.w3.org/2000/svg"><path d="m54 51h-54v-28h54zm-52-2h50v-24h-50z"/><path d="m64 41h-9v-2h7v-24h-50v7h-2v-9h54z"/><path d="m46 47h-37v-1c0-1.558-.484-3-4-3h-1v-12h1c3.516 0 4-1.442 4-3v-1h37v1c0 2.479 1.632 3 3 3h1v12h-1c-1.368 0-3 .521-3 3zm-35.073-2h33.143c.361-2.481 2.084-3.63 3.931-3.923v-8.154c-1.847-.292-3.569-1.441-3.931-3.923h-33.143c-.281 1.839-1.459 3.668-4.927 3.96v8.08c3.468.292 4.646 2.121 4.927 3.96z"/><path d="m27 43c-3.309 0-6-2.691-6-6s2.691-6 6-6 6 2.691 6 6-2.691 6-6 6zm0-10c-2.206 0-4 1.794-4 4s1.794 4 4 4 4-1.794 4-4-1.794-4-4-4z"/></svg>