<svg enable-background="new 0 0 64 64" height="64" viewBox="0 0 64 64" width="64" xmlns="http://www.w3.org/2000/svg"><path d="m56 38c-2.206 0-4-1.794-4-4s1.794-4 4-4 4 1.794 4 4-1.794 4-4 4zm0-6c-1.103 0-2 .897-2 2s.897 2 2 2 2-.897 2-2-.897-2-2-2z"/><path d="m22 8c-2.206 0-4-1.794-4-4s1.794-4 4-4 4 1.794 4 4-1.794 4-4 4zm0-6c-1.103 0-2 .897-2 2s.897 2 2 2 2-.897 2-2-.897-2-2-2z"/><path d="m40 54c-2.206 0-4-1.794-4-4s1.794-4 4-4 4 1.794 4 4-1.794 4-4 4zm0-6c-1.103 0-2 .897-2 2s.897 2 2 2 2-.897 2-2-.897-2-2-2z"/><path d="m7 35c-2.206 0-4-1.794-4-4s1.794-4 4-4 4 1.794 4 4-1.794 4-4 4zm0-6c-1.103 0-2 .897-2 2s.897 2 2 2 2-.897 2-2-.897-2-2-2z"/><path d="m13 4.47h2v25.06h-2z" transform="matrix(.8778 .479 -.479 .8778 9.8525 -4.6286)"/><path d="m47.5 33.861h2v16.279h-2z" transform="matrix(.7372 .6757 -.6757 .7372 41.1246 -21.7327)"/><path d="m64 64h-64v-8h64zm-62-2h60v-4h-60z"/><path d="m9.338 25.5h43.324v2h-43.324z" transform="matrix(.3231 .9463 -.9463 .3231 46.0608 -11.4002)"/></svg>