<svg enable-background="new 0 0 64 64" height="64" viewBox="0 0 64 64" width="64" xmlns="http://www.w3.org/2000/svg"><path d="m64 60h-64v-56h64zm-62-2h60v-52h-60z"/><path d="m58 54h-48v-44h48zm-46-2h44v-40h-44z"/><path d="m6 16h6v2h-6z"/><path d="m6 26h6v2h-6z"/><path d="m6 36h6v2h-6z"/><path d="m6 46h6v2h-6z"/><path d="m44 36c-2.206 0-4-1.794-4-4s1.794-4 4-4 4 1.794 4 4-1.794 4-4 4zm0-6c-1.103 0-2 .897-2 2s.897 2 2 2 2-.897 2-2-.897-2-2-2z"/><path d="m44 42c-5.514 0-10-4.486-10-10s4.486-10 10-10 10 4.486 10 10-4.486 10-10 10zm0-18c-4.411 0-8 3.589-8 8s3.589 8 8 8 8-3.589 8-8-3.589-8-8-8z"/><path d="m35 31h6v2h-6z"/><path d="m43 23h2v6h-2z"/><path d="m47 31h6v2h-6z"/><path d="m43 35h2v6h-2z"/><path d="m45.172 35h5.657v2h-5.657z" transform="matrix(.7071 .7071 -.7071 .7071 39.5147 -23.397)"/><path d="m47 25.172h2v5.657h-2z" transform="matrix(.7071 .7071 -.7071 .7071 33.8579 -25.7401)"/><path d="m37.172 27h5.657v2h-5.657z" transform="matrix(.7071 .7071 -.7071 .7071 31.5147 -20.0833)"/><path d="m39.013 33.181h2v5.638h-2z" transform="matrix(.7095 .7047 -.7047 .7095 36.9899 -17.7393)"/></svg>