<svg enable-background="new 0 0 64 64" height="64" viewBox="0 0 64 64" width="64" xmlns="http://www.w3.org/2000/svg"><path d="m32 64c-8.547 0-16.583-3.329-22.626-9.374-6.045-6.044-9.374-14.079-9.374-22.626s3.329-16.582 9.374-22.626c6.043-6.045 14.079-9.374 22.626-9.374s16.583 3.329 22.627 9.374c6.044 6.044 9.373 14.079 9.373 22.626s-3.329 16.582-9.374 22.626c-6.043 6.045-14.079 9.374-22.626 9.374zm0-62c-8.013 0-15.546 3.121-21.212 8.788-5.667 5.666-8.788 13.199-8.788 21.212s3.121 15.546 8.788 21.212c5.666 5.667 13.199 8.788 21.212 8.788s15.546-3.121 21.213-8.788c5.667-5.666 8.787-13.199 8.787-21.212s-3.121-15.546-8.788-21.212c-5.666-5.667-13.199-8.788-21.212-8.788z"/><path d="m32 48c-8.383 0-13-5.683-13-16s4.617-16 13-16c9.669 0 10.921 4.563 10.97 4.758l-1.94.484c-.004-.009-1.085-3.242-9.03-3.242-9.092 0-11 7.613-11 14s1.908 14 11 14c7.945 0 9.026-3.233 9.036-3.267l1.934.509c-.049.195-1.301 4.758-10.97 4.758z"/><path d="m27.5 12.461h1.999v38.079h-1.999z" transform="matrix(.9192 .3937 -.3937 .9192 14.7025 -8.6762)"/><path d="m32.5 12.461h1.999v38.079h-1.999z" transform="matrix(.9192 .3937 -.3937 .9192 15.1063 -10.6446)"/></svg>