<svg enable-background="new 0 0 64 64" height="64" viewBox="0 0 64 64" width="64" xmlns="http://www.w3.org/2000/svg"><path d="m32 64c-8.547 0-16.583-3.329-22.626-9.374-6.045-6.044-9.374-14.079-9.374-22.626s3.329-16.582 9.374-22.626c6.043-6.045 14.079-9.374 22.626-9.374s16.583 3.329 22.627 9.374c6.044 6.044 9.373 14.079 9.373 22.626s-3.329 16.582-9.374 22.626c-6.043 6.045-14.079 9.374-22.626 9.374zm0-62c-8.013 0-15.546 3.121-21.212 8.788-5.667 5.666-8.788 13.199-8.788 21.212s3.121 15.546 8.788 21.212c5.666 5.667 13.199 8.788 21.212 8.788s15.546-3.121 21.213-8.788c5.667-5.666 8.787-13.199 8.787-21.212s-3.121-15.546-8.788-21.212c-5.666-5.667-13.199-8.788-21.212-8.788z"/><path d="m31 17h2v35h-2z"/><path d="m18 16h28v2h-28z"/><path d="m31 19.938h2v16.125h-2z" transform="matrix(.4961 .8682 -.8682 .4961 40.4344 -13.6757)"/><path d="m31 25.938h2v16.125h-2z" transform="matrix(.4961 .8682 -.8682 .4961 45.6438 -10.6525)"/></svg>