<svg enable-background="new 0 0 64 64" height="64" viewBox="0 0 64 64" width="64" xmlns="http://www.w3.org/2000/svg"><path d="m64 49h-64v-34h64zm-62-2h60v-30h-60z"/><path d="m55 45h-46v-1c0-2.206-1.794-4-4-4h-1v-16h1c2.206 0 4-1.794 4-4v-1h46v1c0 2.206 1.794 4 4 4h1v16h-1c-2.206 0-4 1.794-4 4zm-44.083-2h42.166c.423-2.509 2.408-4.494 4.917-4.917v-12.166c-2.509-.422-4.494-2.408-4.917-4.917h-42.166c-.423 2.509-2.408 4.494-4.917 4.917v12.167c2.509.422 4.494 2.407 4.917 4.916z"/><path d="m32 41c-4.963 0-9-4.038-9-9s4.037-9 9-9 9 4.038 9 9-4.037 9-9 9zm0-16c-3.859 0-7 3.14-7 7s3.141 7 7 7 7-3.14 7-7-3.141-7-7-7z"/></svg>