<svg enable-background="new 0 0 64 64" height="64" viewBox="0 0 64 64" width="64" xmlns="http://www.w3.org/2000/svg"><path d="m32 64c-8.548 0-16.583-3.329-22.627-9.374-6.045-6.044-9.374-14.079-9.374-22.626s3.329-16.582 9.374-22.626c6.044-6.045 14.079-9.374 22.627-9.374 8.547 0 16.583 3.329 22.627 9.374 6.045 6.044 9.374 14.079 9.374 22.626s-3.329 16.582-9.374 22.626c-6.044 6.045-14.08 9.374-22.627 9.374zm0-62c-8.014 0-15.547 3.121-21.213 8.788-5.667 5.666-8.788 13.199-8.788 21.212s3.121 15.546 8.788 21.212c5.666 5.667 13.199 8.788 21.213 8.788 8.013 0 15.547-3.121 21.213-8.788 5.667-5.666 8.788-13.199 8.788-21.212s-3.121-15.546-8.788-21.212c-5.666-5.667-13.2-8.788-21.213-8.788z"/><path d="m35.317 50.731-15.317-14.296v-2.435h8c.139.01 4.92.395 7.795-2.238 1.463-1.341 2.205-3.28 2.205-5.762 0-3.287-1.642-5.625-4.879-6.949-2.538-1.039-5.096-1.051-5.121-1.051h-8v-2h8c4.15 0 12 2.09 12 10 0 3.072-.964 5.51-2.864 7.245-3.533 3.228-8.996 2.772-9.227 2.751l-5.444.003 14.218 13.27z"/><path d="m20 16h24v2h-24z"/><path d="m20 22h24v2h-24z"/></svg>