<svg enable-background="new 0 0 64 64" height="64" viewBox="0 0 64 64" width="64" xmlns="http://www.w3.org/2000/svg"><path d="m11 64.618v-50.033l14.586-14.585h27.414v64.617l-5-2.499-4 2-4-2-4 2-4-2-4 2-4-2-4 2-4-2zm29-4.736 4 2 4-2 3 1.499v-59.381h-24.586l-13.414 13.413v45.969l3-1.5 4 2 4-2 4 2 4-2 4 2z"/><path d="m27 16h-15v-2h13v-13h2z"/><path d="m31 21h2v27h-2z"/><path d="m21 20h22v2h-22z"/><path d="m31 23.169h2v11.662h-2z" transform="matrix(.5146 .8574 -.8574 .5146 40.3963 -13.3616)"/><path d="m31 28.169h2v11.662h-2z" transform="matrix(.5146 .8574 -.8574 .5146 44.6834 -10.9348)"/></svg>