<svg enable-background="new 0 0 64 64" height="64" viewBox="0 0 64 64" width="64" xmlns="http://www.w3.org/2000/svg"><path d="m52.728 60h-41.456l-11.647-36h64.75zm-40-2h38.545l10.353-32h-59.251z"/><path d="m17 4.23h2.001v21.541h-2.001z" transform="matrix(.9284 .3715 -.3715 .9284 6.8601 -5.6132)"/><path d="m35.23 14h21.541v2.001h-21.541z" transform="matrix(.3714 .9285 -.9285 .3714 42.8432 -33.2808)"/><path d="m29 47c-3.859 0-7-3.14-7-7s3.141-7 7-7 7 3.14 7 7-3.141 7-7 7zm0-12c-2.757 0-5 2.243-5 5s2.243 5 5 5 5-2.243 5-5-2.243-5-5-5z"/><path d="m31.343 47h11.314v2h-11.314z" transform="matrix(.7071 .7071 -.7071 .7071 44.7782 -12.1041)"/></svg>