<svg enable-background="new 0 0 64 64" height="64" viewBox="0 0 64 64" width="64" xmlns="http://www.w3.org/2000/svg"><path d="m32 64c-8.548 0-16.583-3.329-22.627-9.374-6.045-6.044-9.374-14.079-9.374-22.626s3.329-16.582 9.374-22.626c6.044-6.045 14.079-9.374 22.627-9.374 8.547 0 16.583 3.329 22.627 9.374 6.045 6.044 9.374 14.079 9.374 22.626s-3.329 16.582-9.374 22.626c-6.044 6.045-14.08 9.374-22.627 9.374zm0-62c-8.014 0-15.547 3.121-21.213 8.788-5.667 5.666-8.788 13.199-8.788 21.212s3.121 15.546 8.788 21.212c5.666 5.667 13.199 8.788 21.213 8.788 8.013 0 15.547-3.121 21.213-8.788 5.667-5.666 8.788-13.199 8.788-21.212s-3.121-15.546-8.788-21.212c-5.666-5.667-13.2-8.788-21.213-8.788z"/><path d="m41.781 49h-2.575l-7-30h-.412l-7 30h-2.575l-8.189-32.758 1.94-.484 7.513 30.054 6.723-28.812h3.588l6.723 28.812 7.513-30.054 1.94.484z"/><path d="m13 29h38v2h-38z"/><path d="m13 35h38v2h-38z"/></svg>