<svg enable-background="new 0 0 64 64" height="64" viewBox="0 0 64 64" width="64" xmlns="http://www.w3.org/2000/svg"><path d="m11 64.618v-50.033l14.586-14.585h27.414v64.617l-5-2.499-4 2-4-2-4 2-4-2-4 2-4-2-4 2-4-2zm29-4.736 4 2 4-2 3 1.499v-59.381h-24.586l-13.414 13.413v45.969l3-1.5 4 2 4-2 4 2 4-2 4 2z"/><path d="m27 16h-15v-2h13v-13h2z"/><path d="m25 22h2v26h-2z"/><path d="m31 35h-5v-2h5c.202-.001 5-.07 5-4 0-4.943-4.796-5-5-5h-5v-2h5c2.421 0 7 1.463 7 7 0 4.746-4.579 6-7 6z"/><path d="m32 48h-6v-2h6c.243-.001 6-.084 6-5 0-1.889-.53-3.359-1.576-4.372-1.75-1.693-4.362-1.629-4.392-1.629l-5.032.001v-2h5c.106-.001 3.464-.085 5.815 2.191 1.45 1.404 2.185 3.358 2.185 5.809 0 5.537-5.233 7-8 7z"/><path d="m31 20h2v30h-2z"/></svg>