<svg enable-background="new 0 0 64 64" height="64" viewBox="0 0 64 64" width="64" xmlns="http://www.w3.org/2000/svg"><path d="m11 64.618v-50.033l14.586-14.585h27.414v64.617l-5-2.499-4 2-4-2-4 2-4-2-4 2-4-2-4 2-4-2zm29-4.736 4 2 4-2 3 1.499v-59.381h-24.586l-13.414 13.413v45.969l3-1.5 4 2 4-2 4 2 4-2 4 2z"/><path d="m27 16h-15v-2h13v-13h2z"/><path d="m38 48h-12v-22c0-3.926 2.711-5.916 8.059-5.916 4.344 0 5.678 2.183 5.816 2.432l-1.737.991c-.036-.059-.926-1.423-4.079-1.423-5.339 0-6.059 1.979-6.059 3.916v20h10z"/><path d="m22 33h12v2h-12z"/><path d="m22 46h5v2h-5z"/></svg>