<svg enable-background="new 0 0 64 64" height="64" viewBox="0 0 64 64" width="64" xmlns="http://www.w3.org/2000/svg"><path d="m20 64c-3.86 0-7-3.14-7-7s3.14-7 7-7 7 3.14 7 7-3.14 7-7 7zm0-12c-2.757 0-5 2.243-5 5s2.243 5 5 5 5-2.243 5-5-2.243-5-5-5z"/><path d="m44 64c-3.86 0-7-3.14-7-7s3.14-7 7-7 7 3.14 7 7-3.14 7-7 7zm0-12c-2.757 0-5 2.243-5 5s2.243 5 5 5 5-2.243 5-5-2.243-5-5-5z"/><path d="m26 56h12v2h-12z"/><path d="m13.002 57.073-3.932-54.073h-9.07v-2h10.93l4.068 55.927z"/><path d="m13.07 43.998-.14-1.996 42.264-2.948 6.546-28.054h-50.74v-2h53.26l-7.454 31.946z"/></svg>