<svg enable-background="new 0 0 64 64" height="64" viewBox="0 0 64 64" width="64" xmlns="http://www.w3.org/2000/svg"><path d="m34.293 39.293c-2.734 2.735-7.843 3.743-10.586 1-1.303-1.303-2.05-3.232-2.05-5.293s.747-3.99 2.05-5.293l28-28-1.414-1.414-28 28c-1.675 1.675-2.636 4.12-2.636 6.707 0 2.224.714 4.338 1.976 5.953l-13.88 13.88c-.79-.524-1.735-.833-2.753-.833-2.757 0-5 2.243-5 5s2.243 5 5 5 5-2.243 5-5c0-1.018-.309-1.962-.833-2.753l13.887-13.887c1.423 1.078 3.138 1.562 4.896 1.562 2.843 0 5.79-1.248 7.758-3.216l28-28-1.414-1.414zm-29.293 22.707c-1.654 0-3-1.346-3-3s1.346-3 3-3 3 1.346 3 3-1.346 3-3 3z"/></svg>