<svg enable-background="new 0 0 64 64" height="64" viewBox="0 0 64 64" width="64" xmlns="http://www.w3.org/2000/svg"><path d="m17.5 50c6.341 0 11.5-5.159 11.5-11.5s-5.159-11.5-11.5-11.5-11.5 5.159-11.5 11.5 5.159 11.5 11.5 11.5zm-8.363-7h3.863v3.863c-1.634-.882-2.98-2.229-3.863-3.863zm5.863 4.655v-4.655h5v4.655c-.798.219-1.634.345-2.5.345s-1.702-.126-2.5-.345zm0-6.655v-5h5v5zm7 5.863v-3.863h3.863c-.883 1.634-2.229 2.981-3.863 3.863zm4.655-5.863h-4.655v-5h4.655c.218.798.345 1.634.345 2.5s-.127 1.702-.345 2.5zm-.792-7h-3.863v-3.863c1.634.882 2.98 2.229 3.863 3.863zm-5.863-4.655v4.655h-5v-4.655c.798-.219 1.634-.345 2.5-.345s1.702.126 2.5.345zm-7 .792v3.863h-3.863c.883-1.634 2.229-2.981 3.863-3.863zm-4.655 5.863h4.655v5h-4.655c-.218-.798-.345-1.634-.345-2.5s.127-1.702.345-2.5z"/><path d="m58 34h-25v17h25zm-2 15h-21v-13h21z"/><path d="m58 26h-7v6h7zm-2 4h-3v-2h3z"/><path d="m49 26h-7v6h7zm-2 4h-3v-2h3z"/><path d="m40 26h-7v6h7zm-2 4h-3v-2h3z"/><path d="m60 7h-56v13h-4v37h64v-37h-4zm-2 2v2h-52v-2zm-52 4h52v7h-52zm56 42h-60v-33h60z"/></svg>