<svg enable-background="new 0 0 64 64" height="64" viewBox="0 0 64 64" width="64" xmlns="http://www.w3.org/2000/svg"><path d="m46 40c-4.962 0-9 4.038-9 9s4.038 9 9 9 9-4.038 9-9v-49.237l-30 6.428v43.165c-1.651-2.044-4.174-3.356-7-3.356-4.962 0-9 4.038-9 9s4.038 9 9 9 9-4.038 9-9v-31.191l26-5.571v25.119c-1.651-2.045-4.174-3.357-7-3.357zm-28 22c-3.86 0-7-3.14-7-7s3.14-7 7-7 7 3.14 7 7-3.14 7-7 7zm9-40.237v-13.954l26-5.572v13.955zm19 34.237c-3.86 0-7-3.14-7-7s3.14-7 7-7 7 3.14 7 7-3.14 7-7 7z"/></svg>