<svg enable-background="new 0 0 64 64" height="64" viewBox="0 0 64 64" width="64" xmlns="http://www.w3.org/2000/svg"><path d="m31.998 0c-8.548 0-16.583 3.329-22.627 9.374-6.044 6.043-9.372 14.08-9.371 22.626 0 8.548 3.328 16.583 9.372 22.628 6.043 6.044 14.078 9.372 22.627 9.372h.001.003c17.644-.001 31.998-14.357 31.997-32.001 0-8.547-3.327-16.583-9.37-22.627-6.044-6.043-14.078-9.372-22.632-9.372zm.002 62v1-1c-.002 0-.002 0-.003 0-8.012 0-15.546-3.121-21.211-8.786-5.666-5.667-8.786-13.2-8.786-21.214-.001-8.013 3.119-15.546 8.785-21.212 5.666-5.667 13.199-8.788 21.219-8.788 8.013 0 15.546 3.12 21.211 8.786 5.666 5.666 8.784 13.2 8.784 21.213.001 16.541-12.999 30-29.999 30.001z"/><path d="m32 23c-4.961 0-8.999 4.037-9 8.998 0 4.964 4.038 9.002 9.001 9.002 4.962-.002 8.999-4.04 8.999-9 0-4.962-4.038-9-9-9zm.001 16c-3.86 0-7.001-3.141-7.001-7.002.001-3.858 3.141-6.998 7-6.998 3.86 0 7 3.14 7 7 0 3.858-3.14 6.999-6.999 7z"/><path d="m32 49v-2c-8.271 0-15-6.729-15-15h-2c0 9.374 7.626 17 17 17z"/><path d="m32 15v2c8.271 0 15 6.729 15 15h2c0-9.374-7.626-17-17-17z"/><path d="m10 32h-2c0 13.233 11 24 24 24v-2c-12 0-22-9.869-22-22z"/><path d="m32 8v2c12.131 0 22 9.869 22 22h2c0-13.233-10.767-24-24-24z"/></svg>