<svg enable-background="new 0 0 64 64" height="64" viewBox="0 0 64 64" width="64" xmlns="http://www.w3.org/2000/svg"><path d="m31.998 0c-8.548 0-16.583 3.329-22.627 9.374-6.044 6.043-9.372 14.08-9.371 22.626 0 8.548 3.328 16.583 9.372 22.628 6.043 6.044 14.078 9.372 22.627 9.372h.001.003c17.644-.001 31.998-14.357 31.997-32.001 0-8.547-3.327-16.583-9.37-22.627-6.044-6.043-14.078-9.372-22.632-9.372zm-21.213 10.788c1.971-1.972 4.172-3.627 6.537-4.958l11.415 19.976c-.613.324-1.182.74-1.686 1.245-.503.503-.912 1.065-1.23 1.664l-19.577-12.121c1.254-2.089 2.774-4.039 4.541-5.806zm21.215 26.212c-1.335 0-2.59-.521-3.535-1.464-1.95-1.95-1.95-5.123 0-7.072.945-.944 2.2-1.464 3.535-1.464s2.59.52 3.535 1.464c1.95 1.95 1.95 5.123 0 7.072-.945.944-2.2 1.464-3.535 1.464zm0 25v1-1c-.002 0-.002 0-.003 0-8.012 0-15.546-3.121-21.211-8.786-5.666-5.667-8.786-13.2-8.786-21.214 0-4.827 1.139-9.477 3.278-13.652l19.859 12.293c-.435 2.213.203 4.597 1.914 6.309 1.322 1.322 3.08 2.05 4.949 2.05.462 0 .918-.045 1.361-.132l12.279 19.837c-4.095 2.101-8.64 3.295-13.64 3.295zm15.394-4.263-12.105-19.554c.604-.322 1.163-.735 1.66-1.232.503-.503.912-1.065 1.23-1.664l19.558 12.107c-2.545 4.238-6.105 7.798-10.343 10.343zm11.312-12.095-19.843-12.284c.435-2.213-.203-4.597-1.914-6.309-1.322-1.321-3.08-2.049-4.949-2.049-.457 0-.907.045-1.346.13l-11.558-20.228c3.979-1.899 8.365-2.902 12.908-2.902 8.013 0 15.546 3.12 21.211 8.786 5.666 5.666 8.785 13.2 8.785 21.213 0 4.911-1.193 9.546-3.294 13.643z"/></svg>