<svg enable-background="new 0 0 64 64" height="64" viewBox="0 0 64 64" width="64" xmlns="http://www.w3.org/2000/svg"><path d="m45 0c-8.271 0-15 6.729-15 15 0 1.676.288 3.282.798 4.789l-26.212 26.211 4 4-4 4 10 10h5.828l21.586-21.586 3.586 3.586-6.293 6.293 1.414 1.414 7.707-7.707-6.414-6.414-22.414 22.414h-4.172l-8-8 2.586-2.586 4 4 26.212-26.211c1.506.509 3.112.797 4.788.797 8.271 0 15-6.729 15-15s-6.729-15-15-15zm-37.586 46 16.586-16.586 6.586 6.586-16.586 16.586zm24.586-11.414-6.586-6.586 6.223-6.222c1.442 2.833 3.753 5.143 6.586 6.586zm13-6.586c-7.168 0-13-5.832-13-13s5.832-13 13-13 13 5.832 13 13-5.832 13-13 13z"/></svg>