<svg enable-background="new 0 0 64 64" height="64" viewBox="0 0 64 64" width="64" xmlns="http://www.w3.org/2000/svg"><path d="m0 64h64v-64h-64zm2-62h60v60h-60z"/><path d="m52 16h4v28.382l-5.447 2.724-.553.894v4l1.447.895 6-3 .553-.895v-1-3-29-1-9h-6zm4 32.382-4 2v-1.764l4-2v1.382zm-2-40.382h2v6h-2z"/><path d="m27.5 4c-12.958 0-23.5 10.542-23.5 23.5s10.542 23.5 23.5 23.5 23.5-10.542 23.5-23.5-10.542-23.5-23.5-23.5zm0 45c-11.855 0-21.5-9.645-21.5-21.5s9.645-21.5 21.5-21.5 21.5 9.645 21.5 21.5-9.645 21.5-21.5 21.5z"/><path d="m27.5 20.5c-3.86 0-7 3.14-7 7s3.14 7 7 7 7-3.14 7-7-3.14-7-7-7zm0 12c-2.757 0-5-2.243-5-5s2.243-5 5-5 5 2.243 5 5-2.243 5-5 5z"/><path d="m4 60h8v-5h-8zm2-3h4v1h-4z"/><path d="m14 60h8v-5h-8zm2-3h4v1h-4z"/></svg>