<svg enable-background="new 0 0 64 64" height="64" viewBox="0 0 64 64" width="64" xmlns="http://www.w3.org/2000/svg"><path d="m20 55c7.72 0 14-6.28 14-14s-6.28-14-14-14-14 6.28-14 14 6.28 14 14 14zm-10.376-8h4.376v4.376c-1.813-1.052-3.324-2.563-4.376-4.376zm6.376 5.3v-5.3h8v5.3c-1.253.445-2.596.7-4 .7s-2.747-.255-4-.7zm0-7.3v-8h8v8zm10 6.376v-4.376h4.376c-1.052 1.813-2.563 3.324-4.376 4.376zm5.3-6.376h-5.3v-8h5.3c.445 1.253.7 2.596.7 4s-.255 2.747-.7 4zm-.924-10h-4.376v-4.376c1.813 1.052 3.324 2.563 4.376 4.376zm-6.376-5.3v5.3h-8v-5.3c1.253-.445 2.596-.7 4-.7s2.747.255 4 .7zm-10 .924v4.376h-4.376c1.052-1.813 2.563-3.324 4.376-4.376zm-5.3 6.376h5.3v8h-5.3c-.445-1.253-.7-2.596-.7-4s.255-2.747.7-4z"/><path d="m49 27h-7v6h7zm-2 4h-3v-2h3z"/><path d="m58 27h-7v6h7zm-2 4h-3v-2h3z"/><path d="m52 43c-3.309 0-6 2.691-6 6s2.691 6 6 6 6-2.691 6-6-2.691-6-6-6zm0 10c-2.206 0-4-1.794-4-4 0-1.858 1.279-3.411 3-3.858v2.858h2v-2.858c1.721.447 3 2 3 3.858 0 2.206-1.794 4-4 4z"/><path d="m10 17h-3v-.223l46.247-11.808-.494-1.938-47.753 12.192v1.777h-3v4h-2v40h64v-40h-54zm-6 2h4v2h-4zm58 40h-60v-36h60z"/></svg>