<svg enable-background="new 0 0 64 64" height="64" viewBox="0 0 64 64" width="64" xmlns="http://www.w3.org/2000/svg"><path d="m51 25c0-8.744-5.945-16.107-14-18.31v-6.69h-10v6.69c-8.055 2.203-14 9.566-14 18.31v18.586l-7 7v5.414h16.059c.5 4.493 4.316 8 8.941 8s8.441-3.507 8.941-8h18.059v-5.414l-7-7zm-2 15h-34v-4h34zm-20-38h6v4.261c-.979-.157-1.977-.261-3-.261s-2.021.104-3 .261zm3 6c9.374 0 17 7.626 17 17v9h-34v-9c0-9.374 7.626-17 17-17zm-1 54c-3.52 0-6.433-2.613-6.92-6h13.84c-.487 3.387-3.4 6-6.92 6zm25-10.586v2.586h-48v-2.586l7-7v-2.414h34v2.414z"/></svg>