<svg enable-background="new 0 0 64 64" height="64" viewBox="0 0 64 64" width="64" xmlns="http://www.w3.org/2000/svg"><path d="m0 54h64v-44h-64zm8.344-2 2.4-8h42.512l2.4 8zm-6.344-40h60v40h-4.256l-3-10h-45.488l-3 10h-4.256z"/><path d="m16 24c-3.859 0-7 3.14-7 7s3.141 7 7 7 7-3.14 7-7-3.141-7-7-7zm0 12c-2.757 0-5-2.243-5-5s2.243-5 5-5 5 2.243 5 5-2.243 5-5 5z"/><path d="m48 24c-3.859 0-7 3.14-7 7s3.141 7 7 7 7-3.14 7-7-3.141-7-7-7zm0 12c-2.757 0-5-2.243-5-5s2.243-5 5-5 5 2.243 5 5-2.243 5-5 5z"/><path d="m61 14h-57v6h57zm-2 4h-53v-2h53z"/><path d="m25 35h14v-8h-14zm2-6h10v4h-10z"/></svg>