<svg enable-background="new 0 0 64 64" height="64" viewBox="0 0 64 64" width="64" xmlns="http://www.w3.org/2000/svg"><path d="m60 22c2.206 0 4-1.794 4-4s-1.794-4-4-4c-1.858 0-3.411 1.28-3.857 3h-18.143v-5h-12v5h-18.143c-.446-1.72-1.999-3-3.857-3-2.206 0-4 1.794-4 4s1.794 4 4 4c1.858 0 3.411-1.28 3.857-3h9.435c-10.38 4.905-11.995 17.387-12.245 21h-5.047v12h12v-12h-4.955c.127-1.847.616-5.979 2.49-10.084 3.17-6.946 8.711-10.599 16.465-10.887v4.971h12v-4.972c7.732.288 13.264 3.922 16.44 10.832 1.889 4.111 2.384 8.281 2.514 10.14h-4.954v12h12v-12h-5.047c-.25-3.613-1.865-16.095-12.245-21h9.435c.446 1.72 1.999 3 3.857 3zm0-6c1.103 0 2 .897 2 2s-.897 2-2 2-2-.897-2-2 .897-2 2-2zm-56 4c-1.103 0-2-.897-2-2s.897-2 2-2 2 .897 2 2-.897 2-2 2zm6 30h-8v-8h8zm26-28h-8v-8h8zm26 28h-8v-8h8z"/></svg>