<svg enable-background="new 0 0 64 64" height="64" viewBox="0 0 64 64" width="64" xmlns="http://www.w3.org/2000/svg"><path d="m53.296 30 4.763 13.336 1.883-.672-15.237-42.664h-2.41l-15.236 42.664 1.883.672 4.762-13.336zm-9.796-27.427 9.081 25.427h-18.162z"/><path d="m18.854 37 2.201 6.328 1.889-.656-8.233-23.672h-2.422l-8.233 23.672 1.889.656 2.201-6.328zm-5.354-15.394 4.659 13.394h-9.318z"/><path d="m56.854 63.707 7.146-7v-1.414l-7.146-7-1.488 1.414 5.22 5.293h-57.172l5.293-5.293-1.561-1.414-7.146 7v1.414l7.146 7 1.488-1.414-5.22-5.293h57.172l-5.22 5.293z"/></svg>