<svg enable-background="new 0 0 64 64" height="64" viewBox="0 0 64 64" width="64" xmlns="http://www.w3.org/2000/svg"><path d="m13.419 36h18.162l5.478 15.336 1.883-.672-15.237-42.664h-2.41l-15.236 42.664 1.883.672zm9.081-25.427 8.367 23.427h-16.734z"/><path d="m50 39c-2.767 0-8 1.254-8 6 0 3.813 2.187 6 6 6 2.735 0 4.612-.897 5.986-2.521.39 1.242 2.014 2.521 3.014 2.521v-2c-1 0-.996-1.67-1-2v-10c0-2.319-1.765-6-6.5-6-4.449 0-6.227 2.302-6.3 2.4l1.591 1.211c.053-.065 1.325-1.611 4.709-1.611 3.302 0 4.5 2.393 4.5 4v2zm-2 10c-1.717 0-4-.415-4-4 0-3.936 5.757-3.999 6-4h4v2c0 4.959-3.263 6-6 6z"/><path d="m64 0h-64v64h64zm-2 62h-60v-60h60z"/><path d="m6 54h52v2h-52z"/></svg>