<svg enable-background="new 0 0 64 64" height="64" viewBox="0 0 64 64" width="64" xmlns="http://www.w3.org/2000/svg"><path d="m59.856 49.517c1.047-.976 1.922-2.107 2.599-3.364l-1.762-.948c-.572 1.064-1.312 2.022-2.2 2.848z"/><path d="m61.466 20.604 1.902-.618c-.44-1.356-1.1-2.626-1.959-3.774l-1.602 1.199c.728.971 1.287 2.045 1.659 3.193z"/><path d="m59.996 14.615c-1.034-.991-2.215-1.8-3.508-2.403l-.846 1.812c1.095.51 2.094 1.195 2.969 2.034z"/><path d="m61.415 43.551 1.893.645c.46-1.348.692-2.759.692-4.196v-.05l-2 .05c0 1.216-.197 2.411-.585 3.551z"/><path d="m19 51h4v2h-4z"/><path d="m27 11h4v2h-4z"/><path d="m25 51h3v2h-3z"/><path d="m21 11h4v2h-4z"/><path d="m12.837 52.995 4.163.005v-2l-4.013-.004z"/><path d="m15 11h4v2h-4z"/><path d="m30 51h4v2h-4z"/><path d="m12.86 13.001-.023-2c-1.436.017-2.844.268-4.187.744l.67 1.885c1.134-.402 2.326-.614 3.54-.629z"/><path d="m42 51h4v2h-4z"/><path d="m48 51v2h3c.404 0 .804-.019 1.198-.054l-.182-1.992c-.333.03-.672.046-1.016.046z"/><path d="m38 11h4v2h-4z"/><path d="m36 51h4v2h-4z"/><path d="m33 11h4v2h-4z"/><path d="m44 11h4v2h-4z"/><path d="m62 28h2v4h-2z"/><path d="m62 34h2v4h-2z"/><path d="m54.3 52.577c1.383-.362 2.688-.947 3.882-1.739l-1.107-1.666c-1.009.67-2.112 1.165-3.28 1.471z"/><path d="m53.949 13.399.535-1.927c-1.129-.313-2.301-.472-3.484-.472h-1v2h1c1.002 0 1.994.134 2.949.399z"/><path d="m0 35h2v4h-2z"/><path d="m6.539 51.283c1.242.713 2.584 1.211 3.988 1.482l.379-1.964c-1.188-.229-2.321-.65-3.371-1.252z"/><path d="m63.857 22.063-1.979.295c.081.539.122 1.091.122 1.642v2h2v-2c0-.649-.048-1.3-.143-1.937z"/><path d="m0 29h2v4h-2z"/><path d="m4.781 50.073 1.266-1.549c-.939-.767-1.74-1.675-2.381-2.7l-1.695 1.061c.756 1.209 1.702 2.282 2.81 3.188z"/><path d="m7.677 14.372-.969-1.749c-1.249.691-2.37 1.58-3.332 2.639l1.48 1.345c.815-.898 1.764-1.649 2.821-2.235z"/><path d="m.027 40.848c.093 1.432.417 2.825.966 4.142l1.846-.769c-.463-1.113-.737-2.291-.815-3.502z"/><path d="m3.755 18.038-1.68-1.086c-.778 1.203-1.348 2.516-1.692 3.903l1.941.482c.291-1.172.773-2.282 1.431-3.299z"/><path d="m2 24c0-.296.012-.59.035-.88l-1.994-.16c-.027.343-.041.69-.041 1.04v3h2z"/></svg>