<svg enable-background="new 0 0 64 64" height="64" viewBox="0 0 64 64" width="64" xmlns="http://www.w3.org/2000/svg"><path d="m0 14.586v44.828l22.414-22.414zm2 4.828 17.586 17.586-17.586 17.586z"/><path d="m64 55h-1.586l-.121-.121-.121.121h-.172v.172l-1.121 1.121 3.121 3.121z"/><path d="m62 38h2v4h-2z"/><path d="m62 44h2v3h-2z"/><path d="m62 32h2v4h-2z"/><path d="m62 49h2v4h-2z"/><path d="m62 27h2v3h-2z"/><path d="m62 21h2v4h-2z"/><path d="m64 14.586-3.121 3.121 1.121 1.121v.172h.172l.121.121.121-.121h1.586z"/><path d="m50.019 27.114h2v3.736h-2z" transform="matrix(-.7071 -.7071 .7071 -.7071 66.6011 85.55)"/><path d="m57.944 19.188h2v3.736h-2z" transform="matrix(-.7071 -.7071 .7071 -.7071 85.7345 77.6247)"/><path d="m46.056 31.076h2v3.736h-2z" transform="matrix(-.7071 -.7071 .7071 -.7071 57.0339 89.5129)"/><path d="m53.981 23.151h2v3.736h-2z" transform="matrix(.7071 .7071 -.7071 .7071 33.7947 -31.5495)"/><path d="m41.586 37 2.121 2.121 1.414-1.414-.707-.707.707-.707-1.414-1.414z"/><path d="m53.982 47.114h2v3.736h-2z" transform="matrix(.7071 -.7071 .7071 .7071 -18.5314 53.2241)"/><path d="m57.944 51.076h2v3.736h-2z" transform="matrix(.7071 -.7071 .7071 .7071 -20.1729 57.187)"/><path d="m49.151 44.019h3.736v2h-3.736z" transform="matrix(.7071 .7071 -.7071 .7071 46.7764 -22.8901)"/><path d="m45.188 40.056h3.736v2h-3.736z" transform="matrix(.7071 .7071 -.7071 .7071 42.8135 -21.2487)"/><path d="m31 59h2v2h-2z"/><path d="m31 41h2v4h-2z"/><path d="m31 29h2v4h-2z"/><path d="m31 35h2v4h-2z"/><path d="m31 47h2v4h-2z"/><path d="m31 53h2v4h-2z"/><path d="m31 17h2v4h-2z"/><path d="m31 23h2v4h-2z"/><path d="m31 13h2v2h-2z"/><path d="m56 10.151c-5.755-6.563-14.161-10.151-24-10.151-10.925 0-20.093 4.41-25.813 12.419l1.627 1.162c5.335-7.468 13.924-11.581 24.186-11.581 9.509 0 17.577 3.538 22.957 10h-8.957v2h11l1-1v-11h-2z"/></svg>