<svg enable-background="new 0 0 64 64" height="64" viewBox="0 0 64 64" width="64" xmlns="http://www.w3.org/2000/svg"><path d="m13 53h38c7.168 0 13-5.832 13-13v-16c0-7.168-5.832-13-13-13h-38c-7.168 0-13 5.832-13 13v16c0 7.168 5.832 13 13 13zm0-2c-2.309 0-4.45-.718-6.222-1.938l25.222-15.88 25.222 15.88c-1.772 1.22-3.913 1.938-6.222 1.938zm49-27v16c0 3.002-1.212 5.725-3.169 7.712l-24.954-15.712 24.954-15.712c1.957 1.987 3.169 4.71 3.169 7.712zm-11-11c2.309 0 4.45.718 6.222 1.938l-25.222 15.88-25.222-15.88c1.772-1.22 3.913-1.938 6.222-1.938zm-49 11c0-3.002 1.212-5.725 3.169-7.712l24.954 15.712-24.954 15.712c-1.957-1.987-3.169-4.71-3.169-7.712z"/></svg>