<svg enable-background="new 0 0 64 64" height="64" viewBox="0 0 64 64" width="64" xmlns="http://www.w3.org/2000/svg"><path d="m26 22.414 22.414-22.414h-44.828zm0-2.828-17.586-17.586h35.172z"/><path d="m8 62.414.121-.121-.121-.121v-.172h-.172l-1.121-1.121-3.121 3.121h4.414z"/><path d="m21 62h4v2h-4z"/><path d="m33 62h3v2h-3z"/><path d="m38 62h4v2h-4z"/><path d="m16 62h3v2h-3z"/><path d="m10 62h4v2h-4z"/><path d="m27 62h4v2h-4z"/><path d="m44.172 62h-.172v.172l-.121.121.121.121v1.586h4.414l-3.121-3.121z"/><path d="m36.113 53.981h3.736v2h-3.736z" transform="matrix(-.7071 -.7071 .7071 -.7071 25.9601 120.715)"/><path d="m40.076 57.944h3.736v2h-3.736z" transform="matrix(-.7071 -.7071 .7071 -.7071 29.923 130.2822)"/><path d="m28.188 46.056h3.736v2h-3.736z" transform="matrix(-.7071 -.7071 .7071 -.7071 18.0348 101.5816)"/><path d="m32.151 50.019h3.736v2h-3.736z" transform="matrix(-.7071 -.7071 .7071 -.7071 21.9977 111.1489)"/><path d="m25.293 45.121.707-.707.707.707 1.414-1.414-2.121-2.121-2.121 2.121z"/><path d="m20.944 45.188h2v3.736h-2z" transform="matrix(-.7071 -.7071 .7071 -.7071 4.1868 95.8465)"/><path d="m12.151 53.982h3.736v2h-3.736z" transform="matrix(-.7071 .7071 -.7071 -.7071 62.8089 83.9466)"/><path d="m9.056 57.076h2v3.736h-2z" transform="matrix(.7071 .7071 -.7071 .7071 44.6252 10.154)"/><path d="m16.113 50.019h3.736v2h-3.736z" transform="matrix(-.7071 .7071 -.7071 -.7071 66.7713 74.3805)"/><path d="m2 30.5h2v2h-2z"/><path d="m6 31h4v2h-4z"/><path d="m24 31h4v2h-4z"/><path d="m30 31h4v2h-4z"/><path d="m36 31h4v2h-4z"/><path d="m18 31h4v2h-4z"/><path d="m42 31h4v2h-4z"/><path d="m12 31h4v2h-4z"/><path d="m48 30.5h2v2h-2z"/><path d="m51.581 6.187-1.162 1.627c7.468 5.335 11.581 13.924 11.581 24.186 0 9.509-3.538 17.577-10 22.957v-8.957h-2v11l1 1h11v-2h-8.151c6.563-5.755 10.151-14.161 10.151-24 0-10.925-4.41-20.093-12.419-25.813z"/></svg>