<svg enable-background="new 0 0 64 64" height="64" viewBox="0 0 64 64" width="64" xmlns="http://www.w3.org/2000/svg"><path d="m43.289 0-8.233 23.672 1.889.656 2.201-6.328h10.709l2.201 6.328 1.889-.656-8.234-23.672zm-3.448 16 4.659-13.394 4.659 13.394z"/><path d="m27 27h34v2h-34z"/><path d="m49.854 51 2.201 6.328 1.889-.656-8.233-23.672h-2.422l-8.233 23.672 1.889.656 2.201-6.328zm-5.354-15.394 4.659 13.394h-9.318z"/><path d="m27 60h34v2h-34z"/><path d="m18.293 34.707 1.414-1.561-7-7.146h-1.414l-7 7.146 1.414 1.488 5.293-5.22v30.172l-5.293-5.293-1.414 1.561 7 7.146h1.414l7-7.146-1.414-1.488-5.293 5.22v-30.172z"/></svg>