<svg enable-background="new 0 0 64 64" height="64" viewBox="0 0 64 64" width="64" xmlns="http://www.w3.org/2000/svg"><path d="m21.293 33.293-3.813 3.813c-.997.285-4.52 1.424-8.08 4.094-6.493 4.869-9.271 20.951-9.386 21.634l-.197 1.166h1.183c16.555 0 24.948-15.679 25.823-17.41l3.948-3.953 33.579-40.701-2.286-2.286zm.704 2.118 6.589 6.589-2.586 2.586-6.586-6.587zm-19.783 26.558c.767-3.791 3.48-15.49 8.386-19.169 2.956-2.217 5.936-3.301 7.113-3.673l7.062 7.062c-1.569 2.888-8.981 15.085-22.561 15.78zm27.718-21.451-6.447-6.446 36.823-30.38z"/></svg>