<svg enable-background="new 0 0 64 64" height="64" viewBox="0 0 64 64" width="64" xmlns="http://www.w3.org/2000/svg"><path d="m32 5c-17.645 0-32 9.196-32 20.5 0 7.923 7.058 14.806 17.353 18.217-2.022.867-3.353 2.442-3.353 4.283 0 2.804 3.075 5 7 5 1.458 0 2.799-.305 3.909-.829.433.394 1.091 1.246 1.091 2.829 0 1.841-.857 1.989-1 2v2c1.038 0 3-.836 3-4 0-1.952-.729-3.212-1.409-3.966.884-.837 1.409-1.883 1.409-3.034 0-.805-.26-1.557-.715-2.225 1.54.147 3.113.225 4.715.225 17.645 0 32-9.196 32-20.5s-14.355-20.5-32-20.5zm-16 43c0-1.626 2.29-3 5-3s5 1.374 5 3-2.29 3-5 3-5-1.374-5-3zm16-4c-16.542 0-30-8.299-30-18.5s13.458-18.5 30-18.5 30 8.299 30 18.5-13.458 18.5-30 18.5z"/></svg>