<svg enable-background="new 0 0 64 64" height="64" viewBox="0 0 64 64" width="64" xmlns="http://www.w3.org/2000/svg"><path d="m54 0h-.411l-.292.289s-2.571 2.54-4.004 4.004l-11.293 11.293-4-4-5.414 5.414 4.506 4.507-30.092 32.097v1.981l-3.414 3.415 5.414 5.414 3.414-3.414h1.981l32.098-30.092 4.507 4.506 5.414-5.414-4-4 15.586-15.586v-.414c0-4.953-5.047-10-10-10zm-44.396 59h-2.018l-2.586 2.586-2.586-2.586 2.586-2.586v-2.019l29.507-31.475 6.572 6.572zm37.396-26.414-15.586-15.586 2.586-2.586 15.586 15.586zm0-8-7.586-7.586 11.3-11.301c1.13-1.153 2.96-2.97 3.682-3.685 3.568.265 7.323 4.019 7.589 7.586z"/></svg>