<svg enable-background="new 0 0 64 64" height="64" viewBox="0 0 64 64" width="64" xmlns="http://www.w3.org/2000/svg"><path d="m30.295 30 4.763 13.336 1.884-.672-15.237-42.664h-2.409l-15.238 42.664 1.884.672 4.763-13.336zm-9.795-27.427 9.081 25.427h-18.162z"/><path d="m49.289 7-8.233 23.672 1.889.656 2.201-6.328h10.709l2.201 6.328 1.889-.656-8.234-23.672zm-3.448 16 4.659-13.394 4.659 13.394z"/><path d="m2 46h36v2h-36z"/><path d="m40 34h22v2h-22z"/><path d="m52 64v-21.586l5.293 5.293 1.414-1.561-7-7.146h-1.414l-7 7.146 1.414 1.488 5.293-5.22v21.586z"/></svg>