<svg enable-background="new 0 0 64 64" height="64" viewBox="0 0 64 64" width="64" xmlns="http://www.w3.org/2000/svg"><path d="m21.295 8-15.237 42.664 1.884.672 4.763-13.336h19.591l4.763 13.336 1.884-.672-15.238-42.664zm-7.876 28 9.081-25.427 9.081 25.427z"/><path d="m56 47v-10c0-2.319-1.765-6-6.5-6-4.449 0-6.227 2.302-6.3 2.4l1.591 1.211c.053-.065 1.325-1.611 4.709-1.611 3.302 0 4.5 2.393 4.5 4v2h-4c-2.767 0-8 1.254-8 6 0 3.813 2.187 6 6 6 2.735 0 4.612-.897 5.986-2.521.39 1.242 2.014 2.521 3.014 2.521v-2c-1 0-.997-1.67-1-2zm-8 2c-1.717 0-4-.415-4-4 0-3.936 5.756-3.999 6-4h4v2c0 4.959-3.263 6-6 6z"/><path d="m0 64h64v-64h-64zm2-62h60v60h-60z"/></svg>