<svg enable-background="new 0 0 64 64" height="64" viewBox="0 0 64 64" width="64" xmlns="http://www.w3.org/2000/svg"><path d="m19 60v-2h-1.743l-.699-1.233-1.74.987 1.275 2.246z"/><path d="m2.311 36.358h4.161v2h-4.161z" transform="matrix(-.4936 -.8697 .8697 -.4936 -25.9311 59.6169)"/><path d="m8.473 47.214h4.161v2h-4.161z" transform="matrix(.4936 .8697 -.8697 .4936 47.276 15.2383)"/><path d="m11.554 52.642h4.161v2h-4.161z" transform="matrix(.4936 .8697 -.8697 .4936 53.5568 15.3074)"/><path d="m5.392 41.786h4.161v2h-4.161z" transform="matrix(.4937 .8696 -.8696 .4937 40.9921 15.1653)"/><path d="m.201 32 1.267 2.233 1.74-.987-.708-1.246.708-1.246-1.74-.987z"/><path d="m6.473 19.134h2v4.161h-2z" transform="matrix(-.8697 -.4937 .4937 -.8697 3.4986 43.352)"/><path d="m12.634 8.278h2v4.161h-2z" transform="matrix(-.8697 -.4937 .4937 -.8697 20.3779 26.0969)"/><path d="m3.392 24.561h2v4.161h-2z" transform="matrix(-.8697 -.4937 .4937 -.8697 -4.9414 51.979)"/><path d="m9.553 13.705h2v4.161h-2z" transform="matrix(-.8697 -.4937 .4937 -.8697 11.9384 34.724)"/><path d="m14.818 6.246 1.74.987.699-1.233h1.743v-2h-2.907z"/><path d="m27 4h4v2h-4z"/><path d="m33 4h4v2h-4z"/><path d="m21 4h4v2h-4z"/><path d="m39 4h4v2h-4z"/><path d="m45 4v2h1.743l.699 1.233 1.74-.987-1.275-2.246z"/><path d="m54.447 20.214h4.161v2h-4.161z" transform="matrix(-.4937 -.8696 .8696 -.4937 65.9849 80.846)"/><path d="m48.285 9.358h4.161v2h-4.161z" transform="matrix(-.4936 -.8697 .8697 -.4936 66.217 59.2738)"/><path d="m51.366 14.786h4.161v2h-4.161z" transform="matrix(-.4936 -.8697 .8697 -.4936 66.0983 70.0601)"/><path d="m57.528 25.642h4.161v2h-4.161z" transform="matrix(-.4936 -.8697 .8697 -.4936 65.8598 91.6331)"/><path d="m63.799 32-1.267-2.233-1.74.987.708 1.246-.708 1.246 1.74.987z"/><path d="m49.366 51.561h2v4.161h-2z" transform="matrix(-.8697 -.4937 .4937 -.8697 67.6852 125.1554)"/><path d="m52.447 46.134h2v4.161h-2z" transform="matrix(.8697 .4937 -.4937 .8697 30.7683 -20.1001)"/><path d="m55.527 40.705h2v4.161h-2z" transform="matrix(.8697 .4937 -.4937 .8697 28.4901 -22.3285)"/><path d="m58.608 35.278h2v4.161h-2z" transform="matrix(.8697 .4937 -.4937 .8697 26.2123 -24.557)"/><path d="m45 60h2.907l1.275-2.246-1.74-.987-.699 1.233h-1.743z"/><path d="m39 58h4v2h-4z"/><path d="m27 58h4v2h-4z"/><path d="m33 58h4v2h-4z"/><path d="m21 58h4v2h-4z"/></svg>