<svg enable-background="new 0 0 64 64" height="64" viewBox="0 0 64 64" width="64" xmlns="http://www.w3.org/2000/svg"><path d="m16 0h4v2h-4z"/><path d="m22 0h4v2h-4z"/><path d="m28 0h4v2h-4z"/><path d="m4 0h4v2h-4z"/><path d="m10 0h4v2h-4z"/><path d="m48 62h4v2h-4z"/><path d="m62 32h2v4h-2z"/><path d="m46 0h4v2h-4z"/><path d="m62 44h2v4h-2z"/><path d="m62 26h2v4h-2z"/><path d="m52 0h4v2h-4z"/><path d="m0 6h2v4h-2z"/><path d="m0 0h2v4h-2z"/><path d="m0 24h2v4h-2z"/><path d="m62 50h2v4h-2z"/><path d="m42 62h4v2h-4z"/><path d="m62 56h2v4h-2z"/><path d="m0 12h2v4h-2z"/><path d="m0 18h2v4h-2z"/><path d="m60 62h4v2h-4z"/><path d="m62 38h2v4h-2z"/><path d="m54 62h4v2h-4z"/><path d="m62 14h2v4h-2z"/><path d="m62 20h2v4h-2z"/><path d="m40 0h4v2h-4z"/><path d="m58 0h4v2h-4z"/><path d="m62 2h2v4h-2z"/><path d="m62 8h2v4h-2z"/><path d="m36 62h4v2h-4z"/><path d="m34 0h4v2h-4z"/><path d="m32 32h-32v32h32zm-2 30h-28v-28h28z"/><path d="m41.707 23.707 14.293-14.293v8.586h2v-11l-1-1h-11v2h8.586l-14.293 14.293z"/></svg>