<svg enable-background="new 0 0 64 64" height="64" viewBox="0 0 64 64" width="64" xmlns="http://www.w3.org/2000/svg"><path d="m56 37c0-2.319-1.765-6-6.5-6-4.449 0-6.227 2.302-6.3 2.4l1.591 1.211c.053-.065 1.325-1.611 4.709-1.611 3.302 0 4.5 2.393 4.5 4v2h-4c-2.326 0-6.386.896-7.622 4h-6.174l-12.499-35h-2.41l-12.499 35h-2.796v2h2.081l-2.022 5.664 1.883.672 2.262-6.336h24.592l2.263 6.336 1.883-.672-2.023-5.664h5.081c0 3.813 2.187 6 6 6 2.735 0 4.612-.897 5.986-2.521.39 1.242 2.014 2.521 3.014 2.521v-2c-1 0-.996-1.67-1-2v-2h2v-2h-2zm-33.5-26.427 8.367 23.427h-16.734zm-11.581 32.427 2.5-7h18.162l2.5 7zm37.081 6c-1.717 0-4-.415-4-4h9.777c-.77 3.243-3.459 4-5.777 4zm-3.329-6c1.521-1.951 5.138-1.999 5.329-2h4v2z"/><path d="m0 64h64v-64h-64zm2-62h60v60h-60z"/></svg>