<svg enable-background="new 0 0 64 64" height="64" viewBox="0 0 64 64" width="64" xmlns="http://www.w3.org/2000/svg"><path d="m0 30h2v-28h60v60h-28v2h30v-64h-64z"/><path d="m32 32h-3v2h1v1h2z"/><path d="m23 32h4v2h-4z"/><path d="m5 32h4v2h-4z"/><path d="m17 32h4v2h-4z"/><path d="m11 32h4v2h-4z"/><path d="m2 34h1v-2h-3v3h2z"/><path d="m0 49h2v4h-2z"/><path d="m0 43h2v4h-2z"/><path d="m0 37h2v4h-2z"/><path d="m0 55h2v4h-2z"/><path d="m3 62h-1v-1h-2v3h3z"/><path d="m17 62h4v2h-4z"/><path d="m11 62h4v2h-4z"/><path d="m23 62h4v2h-4z"/><path d="m5 62h4v2h-4z"/><path d="m29 64h3v-3h-2v1h-1z"/><path d="m30 43h2v4h-2z"/><path d="m30 37h2v4h-2z"/><path d="m30 49h2v4h-2z"/><path d="m30 55h2v4h-2z"/><path d="m40 12v11l1 1h11v-2h-8.586l14.293-14.293-1.414-1.414-14.293 14.293v-8.586z"/></svg>