<svg enable-background="new 0 0 64 64" height="64" viewBox="0 0 64 64" width="64" xmlns="http://www.w3.org/2000/svg"><path d="m22 5h42v2h-42z"/><path d="m22 15h34v2h-34z"/><path d="m22 25h42v2h-42z"/><path d="m22 35h36v2h-36z"/><path d="m57 47h1v1h2v-3h-3z"/><path d="m39 45h4v2h-4z"/><path d="m27 45h4v2h-4z"/><path d="m45 45h4v2h-4z"/><path d="m33 45h4v2h-4z"/><path d="m51 45h4v2h-4z"/><path d="m24 47h1v-2h-3v3h2z"/><path d="m22 50h2v3h-2z"/><path d="m22 57h3v-2h-1v-1h-2z"/><path d="m51 55h4v2h-4z"/><path d="m45 55h4v2h-4z"/><path d="m39 55h4v2h-4z"/><path d="m33 55h4v2h-4z"/><path d="m27 55h4v2h-4z"/><path d="m58 55h-1v2h3v-3h-2z"/><path d="m58 50h2v3h-2z"/><path d="m9.293 57.293 1.561 1.414 7.146-7v-1.414l-7.146-7-1.488 1.414 5.22 5.293h-14.586v2h14.586z"/></svg>