<svg enable-background="new 0 0 64 64" height="64" viewBox="0 0 64 64" width="64" xmlns="http://www.w3.org/2000/svg"><path d="m19.003 49.118c-1.261-.387-2.493-.835-3.66-1.332l-.783 1.84c1.231.524 2.529.997 3.857 1.404z"/><path d="m24.711 50.432c-1.298-.206-2.586-.471-3.828-.788l-.494 1.938c1.301.331 2.649.608 4.008.825z"/><path d="m28.348 11.134c-1.367.102-2.733.262-4.059.476l.319 1.975c1.269-.205 2.577-.358 3.888-.456z"/><path d="m34.371 13.058.099-1.997c-1.344-.067-2.728-.079-4.083-.035l.065 1.999c1.3-.041 2.627-.03 3.919.033z"/><path d="m30.558 50.978c-1.308-.04-2.622-.134-3.906-.282l-.228 1.987c1.339.153 2.71.252 4.073.293z"/><path d="m36.616 52.785-.188-1.991c-1.289.121-2.605.19-3.912.204l.021 2c1.363-.015 2.735-.087 4.079-.213z"/><path d="m42.669 51.811-.45-1.948c-1.249.288-2.543.525-3.846.705l.273 1.981c1.362-.188 2.716-.436 4.023-.738z"/><path d="m40.556 11.755c-1.326-.239-2.688-.424-4.049-.549l-.184 1.991c1.304.12 2.609.297 3.878.526z"/><path d="m46.508 13.266c-1.272-.423-2.6-.794-3.946-1.102l-.445 1.95c1.284.293 2.549.646 3.76 1.049z"/><path d="m7.434 45.487 1.234-1.574c-1.042-.816-1.982-1.691-2.795-2.602l-1.491 1.333c.891.998 1.918 1.954 3.052 2.843z"/><path d="m7.134 21.4-1.367-1.46c-1.059.992-1.991 2.05-2.771 3.146l1.63 1.159c.703-.987 1.546-1.944 2.508-2.845z"/><path d="m22.278 11.981c-1.349.28-2.683.624-3.967 1.021l.592 1.91c1.223-.378 2.495-.706 3.781-.973z"/><path d="m.353 28.86 1.95.442c.267-1.176.712-2.341 1.324-3.464l-1.756-.957c-.701 1.285-1.211 2.623-1.518 3.979z"/><path d="m16.368 13.658c-1.311.48-2.581 1.026-3.777 1.624l.894 1.789c1.129-.564 2.331-1.081 3.572-1.535z"/><path d="m10.775 16.261c-1.228.712-2.381 1.493-3.429 2.322l1.24 1.568c.973-.769 2.047-1.496 3.192-2.161z"/><path d="m13.578 46.975c-1.187-.588-2.314-1.238-3.351-1.933l-1.113 1.662c1.108.742 2.312 1.437 3.577 2.063z"/><path d="m3.062 41.005 1.623-1.169c-.758-1.052-1.366-2.154-1.806-3.273l-1.861.731c.501 1.275 1.189 2.523 2.044 3.711z"/><path d="m57.441 21.959c.925.936 1.724 1.925 2.375 2.942l1.685-1.078c-.727-1.135-1.615-2.236-2.638-3.271z"/><path d="m62.584 38.221-1.812-.849c-.511 1.09-1.183 2.159-1.998 3.175l1.561 1.251c.914-1.14 1.671-2.343 2.249-3.577z"/><path d="m63.819 29.745c-.223-1.382-.655-2.751-1.285-4.069l-1.805.861c.547 1.146.922 2.333 1.115 3.526z"/><path d="m64 32.014v-.134l-2 .12c0 1.223-.187 2.447-.556 3.639l1.911.591c.428-1.383.645-2.806.645-4.216z"/><path d="m2.326 34.794c-.216-.917-.326-1.857-.326-2.794 0-.293.01-.584.031-.873l-1.995-.144c-.024.337-.036.676-.036 1.017 0 1.091.128 2.185.379 3.252z"/><path d="m52.179 15.679c-1.179-.627-2.438-1.205-3.74-1.715l-.73 1.862c1.231.482 2.419 1.027 3.531 1.619z"/><path d="m54.064 47.235-1.058-1.697c-1.062.662-2.21 1.279-3.413 1.833l.838 1.816c1.278-.589 2.501-1.246 3.633-1.952z"/><path d="m48.542 49.996-.735-1.86c-1.184.468-2.427.886-3.694 1.242l.541 1.926c1.332-.375 2.64-.815 3.888-1.308z"/><path d="m57.33 19.136c-1.02-.864-2.15-1.681-3.36-2.429l-1.052 1.701c1.125.696 2.175 1.454 3.119 2.254z"/><path d="m58.941 43.367-1.429-1.399c-.857.875-1.835 1.714-2.906 2.493l1.177 1.617c1.161-.844 2.223-1.756 3.158-2.711z"/></svg>