<svg enable-background="new 0 0 64 64" height="64" viewBox="0 0 64 64" width="64" xmlns="http://www.w3.org/2000/svg"><path d="m50 22h4v2h-4z"/><path d="m56 22h3v2h-3z"/><path d="m45 22h3v2h-3z"/><path d="m64 22h-3v2h1v1h2z"/><path d="m62 55h2v4h-2z"/><path d="m62 50h2v3h-2z"/><path d="m62 38h2v4h-2z"/><path d="m62 33h2v3h-2z"/><path d="m62 27h2v4h-2z"/><path d="m62 44h2v4h-2z"/><path d="m62 62h-1v2h3v-3h-2z"/><path d="m27 62h4v2h-4z"/><path d="m33 62h3v2h-3z"/><path d="m38 62h4v2h-4z"/><path d="m55 62h4v2h-4z"/><path d="m44 62h4v2h-4z"/><path d="m50 62h3v2h-3z"/><path d="m22 64h3v-2h-1v-1h-2z"/><path d="m22 50h2v4h-2z"/><path d="m22 56h2v3h-2z"/><path d="m22 45h2v3h-2z"/><path d="m22 43h2v-2-17h17 2v-2h-1v-22h-42v42h22zm-20-41h38v20h-18v18h-20z"/></svg>