<svg enable-background="new 0 0 64 64" height="64" viewBox="0 0 64 64" width="64" xmlns="http://www.w3.org/2000/svg"><path d="m62 51h-1v2h3v-3h-2z"/><path d="m55 51h4v2h-4z"/><path d="m30 51h4v2h-4z"/><path d="m11 51h4v2h-4z"/><path d="m36 51h4v2h-4z"/><path d="m42 51h4v2h-4z"/><path d="m24 51h4v2h-4z"/><path d="m49 51h4v2h-4z"/><path d="m17 51h5v2h-5z"/><path d="m5 51h4v2h-4z"/><path d="m3 51h-1v-1h-2v3h3z"/><path d="m0 44h2v4h-2z"/><path d="m0 39h2v3h-2z"/><path d="m0 27h2v4h-2z"/><path d="m0 33h2v4h-2z"/><path d="m0 22h2v3h-2z"/><path d="m0 16h2v4h-2z"/><path d="m2 13h1v-2h-3v3h2z"/><path d="m55 11h4v2h-4z"/><path d="m24 11h4v2h-4z"/><path d="m49 11h4v2h-4z"/><path d="m5 11h4v2h-4z"/><path d="m11 11h4v2h-4z"/><path d="m17 11h5v2h-5z"/><path d="m30 11h4v2h-4z"/><path d="m42 11h4v2h-4z"/><path d="m36 11h4v2h-4z"/><path d="m61 13h1v1h2v-3h-3z"/><path d="m62 22h2v3h-2z"/><path d="m62 33h2v4h-2z"/><path d="m62 39h2v3h-2z"/><path d="m62 44h2v4h-2z"/><path d="m62 16h2v4h-2z"/><path d="m62 27h2v4h-2z"/></svg>