<svg enable-background="new 0 0 64 64" height="64" viewBox="0 0 64 64" width="64" xmlns="http://www.w3.org/2000/svg"><path d="m60-1.236-20.307 18.169-36.394-6.239 17.15 37.326c-3.657.195-6.449 2.309-6.449 4.98 0 2.804 3.075 5 7 5 1.458 0 2.799-.305 3.909-.829.433.394 1.091 1.246 1.091 2.829 0 1.841-.857 1.989-1 2v2c1.038 0 3-.836 3-4 0-1.952-.729-3.212-1.409-3.966.884-.837 1.409-1.883 1.409-3.034 0-.514-.105-1.007-.298-1.471l32.298-9.787zm-44 54.236c0-1.626 2.29-3 5-3s5 1.374 5 3-2.29 3-5 3-5-1.374-5-3zm42-12.742-31.559 9.563c-.933-.819-2.231-1.41-3.73-1.671l-16.01-34.844 33.606 5.762 17.693-15.832z"/></svg>