<svg enable-background="new 0 0 64 64" height="64" viewBox="0 0 64 64" width="64" xmlns="http://www.w3.org/2000/svg"><path d="m22 28h42v2h-42z"/><path d="m22 38h34v2h-34z"/><path d="m22 48h42v2h-42z"/><path d="m22 58h36v2h-36z"/><path d="m60 8h-3v2h1v1h2z"/><path d="m45 8h4v2h-4z"/><path d="m39 8h4v2h-4z"/><path d="m51 8h4v2h-4z"/><path d="m33 8h4v2h-4z"/><path d="m27 8h4v2h-4z"/><path d="m24 10h1v-2h-3v3h2z"/><path d="m22 13h2v3h-2z"/><path d="m22 20h3v-2h-1v-1h-2z"/><path d="m27 18h4v2h-4z"/><path d="m33 18h4v2h-4z"/><path d="m39 18h4v2h-4z"/><path d="m51 18h4v2h-4z"/><path d="m45 18h4v2h-4z"/><path d="m57 20h3v-3h-2v1h-1z"/><path d="m58 13h2v3h-2z"/><path d="m9.293 20.293 1.561 1.414 7.146-7v-1.414l-7.146-7-1.488 1.414 5.22 5.293h-14.586v2h14.586z"/></svg>