<svg enable-background="new 0 0 64 64" height="64" viewBox="0 0 64 64" width="64" xmlns="http://www.w3.org/2000/svg"><path d="m32 5.91-32.601 14.127 15.6 6.239-15.6 6.761 15.6 6.239-15.6 6.761 32.601 13.04 32.601-13.04-15.601-6.76 15.601-6.24-15.601-6.76 15.601-6.24zm27.399 40.053-27.399 10.96-27.399-10.96 13.015-5.64 14.384 5.754 14.384-5.753zm0-13-12.984 5.194-.018-.008-.008.018-14.389 5.756-14.39-5.756-.008-.019-.019.008-12.982-5.193 13.015-5.64 14.384 5.754 14.384-5.753zm-13.002-7.814-.008.018-14.389 5.756-14.39-5.756-.008-.019-.019.008-12.982-5.193 27.399-11.873 27.399 11.873-12.984 5.194z"/></svg>