<svg enable-background="new 0 0 64 64" height="64" viewBox="0 0 64 64" width="64" xmlns="http://www.w3.org/2000/svg"><path d="m12.289 11-8.233 23.672 1.889.656 2.201-6.328h10.709l2.201 6.328 1.889-.656-8.234-23.672zm-3.448 16 4.659-13.394 4.659 13.394z"/><path d="m41.056 34.672 1.889.656 2.201-6.328h10.709l2.201 6.328 1.889-.656-8.234-23.672h-2.422zm14.103-7.672h-9.317l4.658-13.394z"/><path d="m31 6h2v2h-2z"/><path d="m31 34h2v4h-2z"/><path d="m31 22h2v4h-2z"/><path d="m31 16h2v4h-2z"/><path d="m31 28h2v4h-2z"/><path d="m31 10h2v4h-2z"/><path d="m31 40h2v2h-2z"/><path d="m55.854 63.707 7.146-7v-1.414l-7.146-7-1.488 1.414 5.22 5.293h-55.172l5.293-5.293-1.561-1.414-7.146 7v1.414l7.146 7 1.488-1.414-5.22-5.293h55.172l-5.22 5.293z"/></svg>