<svg enable-background="new 0 0 64 64" height="64" viewBox="0 0 64 64" width="64" xmlns="http://www.w3.org/2000/svg"><path d="m42 58h4v-12h-4v-2.748l7.139-13.258-17.139-31.064-17.139 31.064 7.139 13.258v2.748h-4v12h4v6h20zm-10-32.125c1.654 0 3 1.346 3 3s-1.346 3-3 3-3-1.346-3-3 1.346-3 3-3zm-14.861 4.131 13.861-25.123v19.094c-2.279.464-4 2.484-4 4.898 0 2.757 2.243 5 5 5s5-2.243 5-5c0-2.414-1.721-4.435-4-4.898v-19.094l13.861 25.123-6.861 12.742v3.252h-16v-3.252zm2.861 25.994v-8h24v8h-2-20zm20 6h-16v-4h16z"/></svg>