<svg enable-background="new 0 0 64 64" height="64" viewBox="0 0 64 64" width="64" xmlns="http://www.w3.org/2000/svg"><path d="m42 24h3v-2h-3v-3h-2v3h-18v18h-3v2h3v3h2v-3h18zm-18 16v-16h16v16z"/><path d="m17 0h4v2h-4z"/><path d="m2 2h1v-2h-3v3h2z"/><path d="m23 0h4v2h-4z"/><path d="m7 40h4v2h-4z"/><path d="m11 0h4v2h-4z"/><path d="m13 40h4v2h-4z"/><path d="m0 17h2v4h-2z"/><path d="m5 0h4v2h-4z"/><path d="m0 5h2v4h-2z"/><path d="m1 40h4v2h-4z"/><path d="m0 11h2v4h-2z"/><path d="m0 23h2v4h-2z"/><path d="m35 0h4v2h-4z"/><path d="m40 13h2v4h-2z"/><path d="m29 0h4v2h-4z"/><path d="m0 35h2v4h-2z"/><path d="m40 7h2v4h-2z"/><path d="m0 29h2v4h-2z"/><path d="m40 1h2v4h-2z"/><path d="m64 61h-2v1h-1v2h3z"/><path d="m62 55h2v4h-2z"/><path d="m59 22h4v2h-4z"/><path d="m62 37h2v4h-2z"/><path d="m62 43h2v4h-2z"/><path d="m62 49h2v4h-2z"/><path d="m31 62h4v2h-4z"/><path d="m37 62h4v2h-4z"/><path d="m25 62h4v2h-4z"/><path d="m62 31h2v4h-2z"/><path d="m22 47h2v4h-2z"/><path d="m43 62h4v2h-4z"/><path d="m22 59h2v4h-2z"/><path d="m55 62h4v2h-4z"/><path d="m62 25h2v4h-2z"/><path d="m49 62h4v2h-4z"/><path d="m47 22h4v2h-4z"/><path d="m53 22h4v2h-4z"/><path d="m22 53h2v4h-2z"/></svg>