<svg enable-background="new 0 0 64 64" height="64" viewBox="0 0 64 64" width="64" xmlns="http://www.w3.org/2000/svg"><path d="m12 53.414 8.414-8.414h1.586v-2h-1v-1h-2v1.586l-8.414 8.414h-10.586v12h12zm-2 8.586h-8v-8h8z"/><path d="m52 10.586-8.414 8.414h-1.586v2h1v1h2v-1.586l8.414-8.414h10.586v-12h-12zm2-8.586h8v8h-8z"/><path d="m24 19h4v2h-4z"/><path d="m36 19h4v2h-4z"/><path d="m30 19h4v2h-4z"/><path d="m21 21h1v-2h-3v3h2z"/><path d="m19 36h2v4h-2z"/><path d="m19 24h2v4h-2z"/><path d="m19 30h2v4h-2z"/><path d="m24 43h4v2h-4z"/><path d="m30 43h4v2h-4z"/><path d="m36 43h4v2h-4z"/><path d="m43 43h-1v2h3v-3h-2z"/><path d="m43 30h2v4h-2z"/><path d="m43 36h2v4h-2z"/><path d="m43 24h2v4h-2z"/><path d="m25 33h6v6h2v-6h6v-2h-6v-6h-2v6h-6z"/></svg>