<svg enable-background="new 0 0 64 64" height="64" viewBox="0 0 64 64" width="64" xmlns="http://www.w3.org/2000/svg"><path d="m32 64c17.645 0 32-14.355 32-32s-14.355-32-32-32-32 14.355-32 32 14.355 32 32 32zm-30-32c0-.673.03-1.338.074-2h28.926v4h-28.926c-.044-.662-.074-1.327-.074-2zm29 29.975c-3.426-.113-6.707-.802-9.751-1.975h9.751zm0-57.975h-9.751c3.044-1.173 6.325-1.861 9.751-1.975zm0 2v4h-19.368c1.649-1.528 3.471-2.87 5.43-4zm0 6v4h-24.358c.897-1.417 1.907-2.756 3.022-4zm0 6v4h-27.28c.49-1.383 1.079-2.719 1.758-4zm0 6v4h-28.726c.183-1.364.457-2.699.817-4zm0 12v4h-27.908c-.36-1.301-.634-2.636-.817-4zm0 6v4h-25.521c-.679-1.281-1.268-2.617-1.758-4zm0 6v4h-21.336c-1.115-1.244-2.125-2.583-3.022-4zm0 6v4h-13.938c-1.959-1.13-3.781-2.472-5.43-4zm31-22c0 16.207-12.92 29.444-29 29.975v-59.95c16.08.531 29 13.768 29 29.975z"/></svg>