<svg enable-background="new 0 0 64 64" height="64" viewBox="0 0 64 64" width="64" xmlns="http://www.w3.org/2000/svg"><path d="m23.202 62.761.055.206c.109-.029.211-.07.319-.1 2.687.734 5.509 1.133 8.424 1.133 17.645 0 32-14.355 32-32s-14.355-32-32-32c-2.916 0-5.739.399-8.425 1.134-.108-.03-.21-.071-.318-.1l-.055.205c-13.379 3.833-23.202 16.167-23.202 30.761s9.823 26.928 23.202 30.761zm-21.202-30.761c0-.673.03-1.338.074-2h41.85c.039.662.076 1.326.076 2s-.037 1.338-.076 2h-41.85c-.044-.662-.074-1.327-.074-2zm27.894-26c1.894 1.133 3.642 2.468 5.204 4h-23.466c1.649-1.528 3.471-2.87 5.43-4zm-8.645-2c.754-.29 1.522-.551 2.303-.781.771.23 1.526.49 2.264.781zm15.686 8c1.046 1.244 1.985 2.582 2.817 4h-33.11c.897-1.417 1.907-2.756 3.022-4zm3.892 6c.626 1.283 1.177 2.614 1.625 4h-38.732c.49-1.383 1.079-2.719 1.758-4zm-10.933 40h-12.832c-1.959-1.13-3.781-2.472-5.43-4h23.466c-1.562 1.532-3.31 2.867-5.204 4zm-4.08 2c-.738.291-1.492.55-2.263.78-.781-.229-1.549-.49-2.302-.78zm11.121-8h-27.271c-1.115-1.244-2.125-2.583-3.022-4h33.11c-.832 1.418-1.771 2.756-2.817 4zm3.892-6h-35.348c-.679-1.281-1.268-2.617-1.758-4h38.731c-.448 1.386-.999 2.717-1.625 4zm2.184-22c.326 1.299.563 2.636.727 4h-41.464c.183-1.364.457-2.699.817-4zm.727 12c-.164 1.364-.401 2.701-.727 4h-39.919c-.36-1.301-.634-2.636-.817-4zm-11.738-34c16.542 0 30 13.458 30 30s-13.458 30-30 30c-1.645 0-3.258-.139-4.832-.395 11.407-4.788 18.832-16.19 18.832-29.605s-7.425-24.818-18.833-29.605c1.574-.256 3.187-.395 4.833-.395z"/></svg>