<svg enable-background="new 0 0 64 64" height="64" viewBox="0 0 64 64" width="64" xmlns="http://www.w3.org/2000/svg"><path d="m31.999 0c-8.547 0-16.583 3.328-22.627 9.373-6.044 6.044-9.373 14.079-9.373 22.626 0 8.548 3.329 16.583 9.373 22.628 6.044 6.044 14.08 9.372 22.627 9.372 8.548 0 16.584-3.328 22.628-9.372 6.044-6.045 9.373-14.08 9.373-22.628 0-8.547-3.329-16.582-9.373-22.626-6.044-6.045-14.08-9.373-22.628-9.373zm21.214 53.213c-5.666 5.666-13.2 8.786-21.214 8.786-8.013 0-15.547-3.12-21.213-8.786-5.666-5.667-8.787-13.2-8.787-21.214 0-8.013 3.121-15.546 8.787-21.212 5.666-5.667 13.2-8.787 21.213-8.787 8.014 0 15.548 3.12 21.214 8.787 5.666 5.666 8.787 13.199 8.787 21.212 0 8.014-3.121 15.547-8.787 21.214z"/><path d="m32 27c-1.336 0-2.592.521-3.536 1.465-.944.943-1.464 2.198-1.464 3.534s.52 2.592 1.464 3.536 2.2 1.465 3.536 1.465c1.335 0 2.591-.521 3.535-1.465s1.464-2.2 1.464-3.536-.52-2.591-1.464-3.534c-.944-.944-2.2-1.465-3.535-1.465zm2.121 7.121c-1.133 1.134-3.108 1.132-4.243 0-.566-.566-.878-1.32-.878-2.122 0-.801.312-1.554.878-2.12.567-.567 1.32-.879 2.122-.879.801 0 1.555.312 2.121.879s.878 1.319.878 2.12c0 .802-.311 1.556-.878 2.122z"/><path d="m15.181 14.017-1.427-.263.263 1.427c.158.862 3.939 21.161 8.79 26.011 2.455 2.455 5.72 3.808 9.192 3.808s6.737-1.353 9.192-3.808c2.456-2.456 3.808-5.72 3.809-9.192 0-3.473-1.353-6.737-3.809-9.193-4.85-4.85-25.148-8.632-26.01-8.79zm24.596 25.76c-2.078 2.078-4.84 3.222-7.778 3.222s-5.7-1.145-7.778-3.222c-3.388-3.387-6.658-16.983-7.96-23.517 6.532 1.303 20.129 4.573 23.517 7.96 2.077 2.079 3.222 4.842 3.222 7.78s-1.145 5.7-3.223 7.777z"/></svg>