<svg enable-background="new 0 0 64 64" height="64" viewBox="0 0 64 64" width="64" xmlns="http://www.w3.org/2000/svg"><path d="m56.976 28.073c-.537-10.048-9.74-18.073-20.976-18.073-4.097 0-7.938 1.156-11.156 3.157-2.647-3.251-6.59-5.157-10.844-5.157-.843 0-1.718.084-2.599.25l-1.454.274.796 1.247c.822 1.289 1.257 2.773 1.257 4.291 0 4.411-3.589 8-8 8-.89 0-1.781-.154-2.649-.459l-1.392-.489.062 1.474c.104 2.479.857 4.883 2.181 6.95.85 1.327 1.938 2.509 3.182 3.484-.244.949-.384 1.945-.384 2.978 0 5.794 4.206 10 10 10h41c4.71 0 8-3.29 8-8 0-4.493-2.783-9.282-7.024-9.927zm-53.091.387c-.885-1.383-1.473-2.942-1.73-4.573.612.117 1.228.175 1.845.175 5.514 0 10-4.486 10-10 0-1.394-.292-2.763-.853-4.03.289-.021.573-.032.853-.032 3.591 0 6.929 1.581 9.197 4.291-3.457 2.653-5.989 6.375-7.008 10.709h-1.189c-3.88 0-7.243 2.448-8.9 6.009-.849-.746-1.608-1.6-2.215-2.549zm52.115 15.54h-41c-4.71 0-8-3.29-8-8 0-4.962 3.589-9 8-9h2.829l.153-.815c1.546-8.22 9.123-14.185 18.018-14.185 10.477 0 19 7.626 19 17v1h1c3.536 0 6 4.216 6 8 0 3.645-2.355 6-6 6z"/><path d="m19 48h2v14h-2z"/><path d="m29 48h2v14h-2z"/><path d="m39 48h2v14h-2z"/><path d="m49 48h2v14h-2z"/></svg>