<svg enable-background="new 0 0 64 64" height="64" viewBox="0 0 64 64" width="64" xmlns="http://www.w3.org/2000/svg"><path d="m48 15c0 .09-.183 9-16 9-15.705 0-15.995-8.639-16.003-9.083-.373-4.468-4.195-12.917-15.997-12.917v2c12.878 0 13.964 10.633 14 11 0 .117.027 2.899 2.363 5.647 1.962 2.31 4.889 3.864 8.707 4.68-7.055 2.777-12.07 9.644-12.07 17.673 0 10.477 8.523 19 19 19s19-8.523 19-19c0-8.029-5.015-14.896-12.07-17.673 3.818-.815 6.744-2.37 8.707-4.68 2.336-2.748 2.363-5.53 2.36-5.564.002-.027.25-2.774 2.085-5.528 2.457-3.686 6.467-5.555 11.918-5.555v-2c-11.802 0-15.624 8.449-16 13zm1 28c0 9.374-7.626 17-17 17s-17-7.626-17-17 7.626-17 17-17 17 7.626 17 17z"/></svg>