<svg enable-background="new 0 0 64 64" height="64" viewBox="0 0 64 64" width="64" xmlns="http://www.w3.org/2000/svg"><path d="m32 0c-17.645 0-32 14.355-32 32s14.355 32 32 32 32-14.355 32-32-14.355-32-32-32zm30 32c0 .673-.03 1.338-.074 2h-59.852c-.044-.662-.074-1.327-.074-2s.03-1.338.074-2h59.852c.044.662.074 1.327.074 2zm-50.368 22h40.735c-1.649 1.528-3.471 2.87-5.43 4h-29.875c-1.959-1.13-3.781-2.472-5.43-4zm-1.968-2c-1.115-1.244-2.125-2.583-3.022-4h50.717c-.897 1.417-1.907 2.756-3.022 4zm-4.185-6c-.679-1.281-1.268-2.617-1.758-4h56.56c-.49 1.383-1.079 2.719-1.758 4zm-2.387-6c-.36-1.301-.634-2.636-.817-4h59.451c-.183 1.364-.457 2.699-.817 4zm-.818-12c.183-1.364.457-2.699.817-4h57.816c.36 1.301.634 2.636.817 4zm1.446-6c.49-1.383 1.079-2.719 1.758-4h53.043c.679 1.281 1.268 2.617 1.758 4zm2.922-6c.897-1.417 1.907-2.756 3.022-4h44.673c1.115 1.244 2.125 2.583 3.022 4zm4.99-6c1.649-1.528 3.471-2.87 5.43-4h29.875c1.959 1.13 3.781 2.472 5.43 4zm31.119-6h-21.502c3.34-1.287 6.963-2 10.751-2s7.411.713 10.751 2zm-21.502 56h21.503c-3.34 1.287-6.963 2-10.751 2s-7.412-.713-10.752-2z"/></svg>