<svg enable-background="new 0 0 64 64" height="64" viewBox="0 0 64 64" width="64" xmlns="http://www.w3.org/2000/svg"><path d="m54.848.53-1.696-1.06c-.406.649-9.746 15.782-10.133 31.53h-22.038c-.387-15.748-9.727-30.881-10.133-31.53l-1.696 1.06c.097.154 9.428 15.267 9.829 30.47h-11.981v2h11.981c-.401 15.188-9.732 30.316-9.829 30.47l1.696 1.061c.406-.649 9.746-15.782 10.133-31.53h22.037c.387 15.748 9.728 30.881 10.133 31.53l1.696-1.061c-.096-.154-9.427-15.267-9.828-30.47h11.981v-2h-11.981c.401-15.188 9.732-30.316 9.829-30.47z"/></svg>