<svg enable-background="new 0 0 64 64" height="64" viewBox="0 0 64 64" width="64" xmlns="http://www.w3.org/2000/svg"><path d="m32-.001c-8.547 0-16.583 3.329-22.627 9.373-12.477 12.477-12.477 32.778 0 45.255 6.044 6.044 14.08 9.373 22.627 9.373s16.583-3.329 22.627-9.373c12.477-12.477 12.477-32.778 0-45.255-6.044-6.044-14.08-9.373-22.627-9.373zm21.213 53.214c-5.667 5.666-13.2 8.787-21.213 8.787s-15.546-3.121-21.213-8.787c-11.697-11.697-11.697-30.729 0-42.427 5.667-5.666 13.2-8.787 21.213-8.787s15.546 3.121 21.213 8.787c11.697 11.697 11.697 30.73 0 42.427z"/><path d="m32 36.999c1.335 0 2.591-.52 3.535-1.464 1.95-1.949 1.95-5.122 0-7.071-.944-.944-2.2-1.464-3.535-1.464s-2.591.52-3.535 1.464c-1.95 1.949-1.95 5.122 0 7.071.944.944 2.2 1.464 3.535 1.464zm-2.121-7.121c.566-.566 1.32-.878 2.121-.878s1.555.312 2.121.878c1.17 1.17 1.17 3.073 0 4.243-1.133 1.133-3.109 1.133-4.242 0-1.17-1.17-1.17-3.073 0-4.243z"/><path d="m22.808 22.807c-5.068 5.069-5.068 13.316 0 18.385 2.455 2.455 5.719 3.807 9.192 3.808 3.472 0 6.737-1.353 9.192-3.809 4.851-4.851 8.632-25.148 8.791-26.011l.263-1.427-1.427.263c-.861.159-21.161 3.94-26.011 8.791zm16.97 16.97c-2.077 2.078-4.84 3.223-7.778 3.223s-5.701-1.145-7.778-3.223c-4.289-4.288-4.289-11.268 0-15.557 3.388-3.388 16.985-6.658 23.518-7.96-1.302 6.533-4.573 20.129-7.962 23.517z"/></svg>