<svg enable-background="new 0 0 64 64" height="64" viewBox="0 0 64 64" width="64" xmlns="http://www.w3.org/2000/svg"><path d="m55.979 22.058c-.499-11.322-9.973-20.058-21.979-20.058-10.599 0-19.63 6.68-21.811 16h-1.189c-5.962 0-11 5.495-11 12 0 6.271 4.729 11 11 11h44c5.131 0 9-3.869 9-9 0-4.53-3.182-9.361-8.021-9.942zm-.979 16.942h-44c-5.131 0-9-3.869-9-9 0-5.42 4.122-10 9-10h2.83l.153-.815c1.654-8.799 10.072-15.185 20.017-15.185 11.215 0 20 8.346 20 19v1h1c4.125 0 7 4.216 7 8 0 3.991-3.009 7-7 7z"/><path d="m10.938 52h16.125v2h-16.125z" transform="matrix(.4961 -.8682 .8682 .4961 -36.4435 43.2013)"/><path d="m.938 52h16.125v2h-16.125z" transform="matrix(.4961 -.8682 .8682 .4961 -41.4821 34.5188)"/><path d="m20.938 52h16.125v2h-16.125z" transform="matrix(.4961 -.8682 .8682 .4961 -31.4049 51.8837)"/><path d="m30.938 52h16.125v2h-16.125z" transform="matrix(.4961 -.8682 .8682 .4961 -26.3663 60.5661)"/><path d="m40.938 52h16.125v2h-16.125z" transform="matrix(.4961 -.8682 .8682 .4961 -21.3277 69.2485)"/></svg>