<svg enable-background="new 0 0 64 64" height="64" viewBox="0 0 64 64" width="64" xmlns="http://www.w3.org/2000/svg"><path d="m31.999-.001c-8.547 0-16.583 3.329-22.627 9.373-12.477 12.477-12.477 32.777 0 45.254 6.044 6.044 14.08 9.373 22.627 9.373 8.548 0 16.584-3.329 22.628-9.373 12.477-12.477 12.477-32.777 0-45.254-6.044-6.044-14.08-9.373-22.628-9.373zm21.214 53.213c-5.666 5.666-13.2 8.787-21.214 8.787-8.013 0-15.547-3.121-21.213-8.787-11.696-11.697-11.696-30.729 0-42.426 5.666-5.666 13.2-8.787 21.213-8.787 8.014 0 15.548 3.121 21.214 8.787 11.696 11.697 11.696 30.729 0 42.426z"/><path d="m32 26.999c-1.336 0-2.592.521-3.536 1.465-1.949 1.949-1.949 5.121 0 7.07.944.944 2.2 1.465 3.536 1.465 1.335 0 2.591-.521 3.535-1.465 1.949-1.949 1.949-5.121 0-7.07-.944-.944-2.2-1.465-3.535-1.465zm2.121 7.121c-1.134 1.134-3.109 1.132-4.243 0-1.17-1.17-1.17-3.072 0-4.242.567-.566 1.32-.879 2.122-.879.801 0 1.555.312 2.121.879 1.17 1.17 1.17 3.072 0 4.242z"/><path d="m41.192 22.807c-2.456-2.455-5.721-3.808-9.192-3.808-3.473 0-6.737 1.353-9.192 3.808-2.456 2.455-3.808 5.72-3.809 9.192 0 3.473 1.353 6.737 3.809 9.192 4.851 4.851 25.148 8.633 26.011 8.791l1.427.263-.263-1.427c-.159-.862-3.94-21.161-8.791-26.011zm-16.97 16.97c-2.078-2.078-3.223-4.84-3.223-7.778s1.145-5.701 3.223-7.778c2.077-2.077 4.84-3.222 7.778-3.222s5.7 1.145 7.778 3.222c3.388 3.388 6.658 16.984 7.96 23.518-6.532-1.302-20.128-4.573-23.516-7.962z"/></svg>