<svg enable-background="new 0 0 64 64" height="64" viewBox="0 0 64 64" width="64" xmlns="http://www.w3.org/2000/svg"><path d="m32 49c9.374 0 17-7.626 17-17s-7.626-17-17-17-17 7.626-17 17 7.626 17 17 17zm0-32c8.271 0 15 6.729 15 15s-6.729 15-15 15-15-6.729-15-15 6.729-15 15-15z"/><path d="m31 0h2v10h-2z"/><path d="m31 54h2v10h-2z"/><path d="m54 31h10v2h-10z"/><path d="m0 31h10v2h-10z"/><path d="m49.5 9.964h2v7.071h-2z" transform="matrix(.7071 .7071 -.7071 .7071 24.337 -31.7548)"/><path d="m12.5 46.964h2v7.071h-2z" transform="matrix(.7071 .7071 -.7071 .7071 39.663 5.2452)"/><path d="m46.964 49.5h7.071v2h-7.071z" transform="matrix(-.7071 -.7071 .7071 -.7071 50.5 121.9178)"/><path d="m9.964 12.5h7.071v2h-7.071z" transform="matrix(.7071 .7071 -.7071 .7071 13.5 -5.5919)"/></svg>