<svg enable-background="new 0 0 64 64" height="64" viewBox="0 0 64 64" width="64" xmlns="http://www.w3.org/2000/svg"><path d="m51 0c-10.543 0-16.73 12.155-19 37.817-2.27-25.662-8.457-37.817-19-37.817-8.505 0-13 4.841-13 14 0 6.341 5.077 11.491 5.293 11.707l1.414-1.414c-.047-.047-4.707-4.772-4.707-10.293 0-8.075 3.598-12 11-12 12.112 0 18 20.28 18 62h2c0-41.72 5.888-62 18-62 7.402 0 11 3.925 11 12 0 5.502-4.661 10.246-4.708 10.294l1.415 1.413c.216-.216 5.293-5.366 5.293-11.707 0-9.159-4.495-14-13-14z"/></svg>