<svg enable-background="new 0 0 64 64" height="64" viewBox="0 0 64 64" width="64" xmlns="http://www.w3.org/2000/svg"><path d="m40.798 1.239-.055-.206c-.109.029-.211.07-.319.1-2.687-.734-5.509-1.133-8.424-1.133-17.645 0-32 14.355-32 32s14.355 32 32 32c2.916 0 5.739-.399 8.425-1.134.108.03.21.071.318.1l.055-.205c13.379-3.833 23.202-16.167 23.202-30.761s-9.823-26.928-23.202-30.761zm-3.966 1.156c-1.138.478-2.248 1-3.303 1.605h-12.28c3.34-1.287 6.963-2 10.751-2 1.645 0 3.258.139 4.832.395zm-25.2 51.605h14.516c1.323 1.477 2.792 2.811 4.382 4h-13.468c-1.959-1.13-3.781-2.472-5.43-4zm-1.968-2c-1.115-1.244-2.125-2.583-3.022-4h15.311c.755 1.403 1.603 2.742 2.55 4zm-4.185-6c-.679-1.281-1.268-2.617-1.758-4h15.749c.416 1.379.92 2.712 1.501 4zm-3.479-14c0-.673.03-1.338.074-2h16.002c-.036.663-.076 1.326-.076 2s.04 1.337.077 2h-16.003c-.044-.662-.074-1.327-.074-2zm16.25 4c.153 1.359.362 2.7.667 4h-15.825c-.36-1.301-.634-2.636-.817-4zm0-8h-15.976c.183-1.364.457-2.699.817-4h15.826c-.305 1.3-.514 2.641-.667 4zm1.219-6h-15.749c.49-1.383 1.079-2.719 1.758-4h15.492c-.581 1.288-1.085 2.621-1.501 4zm2.483-6h-15.31c.897-1.417 1.907-2.756 3.022-4h14.837c-.947 1.258-1.794 2.597-2.549 4zm4.195-6h-14.515c1.649-1.528 3.471-2.87 5.43-4h13.466c-1.589 1.189-3.058 2.523-4.381 4zm5.853 52c-3.788 0-7.411-.713-10.751-2h12.281c1.055.604 2.166 1.128 3.303 1.605-1.574.256-3.187.395-4.833.395zm8.448-1.219c-12.26-3.663-20.448-15.105-20.448-28.781 0-13.677 8.188-25.12 20.449-28.78 12.44 3.658 21.551 15.172 21.551 28.78s-9.111 25.123-21.552 28.781z"/></svg>