<svg enable-background="new 0 0 64 64" height="64" viewBox="0 0 64 64" width="64" xmlns="http://www.w3.org/2000/svg"><path d="m56.976 28.073c-.537-10.048-9.74-18.073-20.976-18.073-1.959 0-3.854.275-5.657.769-2.427-1.807-5.301-2.769-8.343-2.769-7.72 0-14 6.28-14 14 0 2.164.487 3.615 1.247 5.018-2.564 1.994-4.247 5.273-4.247 8.982 0 5.794 4.206 10 10 10h41c4.71 0 8-3.29 8-8 0-4.493-2.783-9.282-7.024-9.927zm-46.976-6.073c0-6.617 5.383-12 12-12 2.119 0 4.143.547 5.943 1.58-5.84 2.384-10.311 7.286-11.754 13.42h-1.189c-1.442 0-2.811.344-4.05.951-.658-1.251-.95-2.333-.95-3.951zm46 22h-41c-4.71 0-8-3.29-8-8 0-4.962 3.589-9 8-9h2.829l.153-.815c1.546-8.22 9.123-14.185 18.018-14.185 10.477 0 19 7.626 19 17v1h1c3.536 0 6 4.216 6 8 0 3.645-2.355 6-6 6z"/><path d="m0 21h6v2h-6z"/><path d="m21 0h2v6h-2z"/><path d="m2.757 6h8.485v2h-8.485z" transform="matrix(.7071 .7071 -.7071 .7071 7 -2.8995)"/><path d="m13.382 60h2.236v2h-2.236z" transform="matrix(.4472 -.8944 .8944 .4472 -46.5447 46.6892)"/><path d="m23.382 60h2.236v2h-2.236z" transform="matrix(.4472 -.8944 .8944 .4472 -41.0168 55.6334)"/><path d="m33.382 60h2.236v2h-2.236z" transform="matrix(.4472 -.8944 .8944 .4472 -35.4889 64.5777)"/><path d="m43.382 60h2.236v2h-2.236z" transform="matrix(.4472 -.8944 .8944 .4472 -29.9611 73.522)"/><path d="m17.5 47.882h2v2.236h-2z" transform="matrix(-.8944 -.4472 .4472 -.8944 13.1334 101.1004)"/><path d="m27.5 47.882h2v2.236h-2z" transform="matrix(-.8944 -.4472 .4472 -.8944 32.0777 105.5725)"/><path d="m37.5 47.882h2v2.236h-2z" transform="matrix(-.8944 -.4472 .4472 -.8944 51.022 110.0447)"/><path d="m47.382 48h2.236v2h-2.236z" transform="matrix(.4472 -.8944 .8944 .4472 -17.0168 70.4663)"/><path d="m9.5 53.882h2v2.236h-2z" transform="matrix(.8944 .4472 -.4472 .8944 25.7053 1.1108)"/><path d="m19.5 53.882h2v2.236h-2z" transform="matrix(-.8944 -.4472 .4472 -.8944 14.239 113.3614)"/><path d="m29.5 53.882h2v2.236h-2z" transform="matrix(.8944 .4472 -.4472 .8944 27.8167 -7.8335)"/><path d="m39.5 53.882h2v2.236h-2z" transform="matrix(.8944 .4472 -.4472 .8944 28.8724 -12.3056)"/></svg>