<svg enable-background="new 0 0 64 64" height="64" viewBox="0 0 64 64" width="64" xmlns="http://www.w3.org/2000/svg"><path d="m40.799 1.238-.055-.206c-.108.029-.211.069-.319.1-2.686-.733-5.508-1.133-8.423-1.133-17.645 0-32 14.355-32 32s14.355 32 32 32c2.916 0 5.738-.399 8.425-1.134.107.03.209.07.317.1l.055-.205c13.379-3.833 23.203-16.167 23.203-30.761s-9.824-26.928-23.203-30.761zm21.203 30.761c0 .673-.03 1.339-.074 2.001h-41.85c-.039-.663-.076-1.326-.076-2.001 0-.674.037-1.337.076-1.999h41.85c.044.661.074 1.326.074 1.999zm-27.892 26.001c-1.894-1.133-3.643-2.468-5.205-4h23.463c-1.648 1.528-3.471 2.87-5.431 4zm8.641 2c-.753.29-1.521.55-2.301.779-.77-.229-1.523-.489-2.26-.779zm-15.683-8c-1.046-1.244-1.985-2.582-2.817-4h33.108c-.897 1.417-1.906 2.756-3.021 4zm-3.892-6c-.626-1.283-1.177-2.614-1.624-4h38.729c-.49 1.383-1.079 2.719-1.758 4zm-2.185-6c-.326-1.299-.562-2.636-.728-4h41.464c-.183 1.364-.457 2.699-.817 4zm-.727-12c.164-1.364.401-2.701.727-4h39.92c.36 1.301.635 2.636.817 4zm1.287-6c.447-1.386.998-2.717 1.624-4h35.35c.679 1.281 1.268 2.617 1.758 4zm2.699-6c.831-1.418 1.771-2.756 2.816-4h27.274c1.114 1.244 2.124 2.583 3.021 4zm4.652-6c1.562-1.532 3.312-2.867 5.205-4h12.834c1.959 1.13 3.78 2.472 5.43 4zm9.284-6c.739-.291 1.494-.551 2.266-.781.782.229 1.551.49 2.305.781zm-6.184 57.999c-16.542 0-30-13.458-30-30s13.458-30 30-30c1.645 0 3.258.139 4.831.395-11.406 4.787-18.831 16.189-18.831 29.605 0 13.415 7.426 24.818 18.833 29.605-1.574.256-3.188.395-4.833.395z"/></svg>