<svg enable-background="new 0 0 64 64" height="64" viewBox="0 0 64 64" width="64" xmlns="http://www.w3.org/2000/svg"><path d="m45 62c-4.411 0-8-3.589-8-8 0-7.645 10.361-25.973 10.459-26.145 5.158-8.8 2.196-20.156-6.604-25.314-4.263-2.501-9.244-3.187-14.025-1.942-4.781 1.248-8.791 4.282-11.29 8.546-4.452 7.596-2.844 17.087 3.335 22.861-5.456.068-9.875 4.522-9.875 9.994 0 5.514 4.486 10 10 10s10-4.486 10-10c0-4.062-2.439-7.562-5.928-9.125l.083-.141c-7.849-4.602-10.491-14.729-5.89-22.578 2.229-3.803 5.805-6.51 10.069-7.622 4.265-1.114 8.708-.496 12.51 1.731 7.849 4.602 10.491 14.729 5.883 22.59-.438.772-10.727 18.975-10.727 27.145 0 5.514 4.486 10 10 10 3.824 0 7.257-2.129 8.96-5.555l-1.791-.891c-1.363 2.743-4.11 4.446-7.169 4.446zm-18-20c0 4.411-3.589 8-8 8s-8-3.589-8-8 3.589-8 8-8 8 3.589 8 8z"/></svg>