<svg enable-background="new 0 0 64 64" height="64" viewBox="0 0 64 64" width="64" xmlns="http://www.w3.org/2000/svg"><path d="m56.975 28.073c-.536-10.048-9.739-18.073-20.975-18.073-1.959 0-3.854.275-5.658.769-2.426-1.807-5.3-2.769-8.342-2.769-7.72 0-14 6.28-14 14 0 2.164.487 3.615 1.247 5.018-2.564 1.993-4.247 5.273-4.247 8.982 0 5.794 4.206 10 10 10h41c4.71 0 8-3.29 8-8 0-4.493-2.783-9.282-7.025-9.927zm-46.975-6.073c0-6.617 5.383-12 12-12 2.119 0 4.143.547 5.943 1.58-5.84 2.384-10.312 7.286-11.754 13.42h-1.189c-1.442 0-2.811.344-4.05.951-.658-1.251-.95-2.333-.95-3.951zm46 22h-41c-4.71 0-8-3.29-8-8 0-4.962 3.589-9 8-9h2.83l.153-.815c1.545-8.22 9.122-14.185 18.017-14.185 10.477 0 19 7.626 19 17v1h1c3.536 0 6 4.216 6 8 0 3.645-2.355 6-6 6z"/><path d="m0 21h6v2h-6z"/><path d="m21 0h2v6h-2z"/><path d="m2.757 6h8.485v2h-8.485z" transform="matrix(.7071 .7071 -.7071 .7071 7 -2.8995)"/><path d="m23 48h2v4h-2z"/><path d="m23 56h2v4h-2z"/><path d="m26 49.586h2v2.828h-2z" transform="matrix(-.7071 -.7071 .7071 -.7071 10.0294 106.1543)"/><path d="m20 55.586h2v2.828h-2z" transform="matrix(-.7071 -.7071 .7071 -.7071 -4.4558 112.1543)"/><path d="m26 55.586h2v2.828h-2z" transform="matrix(-.7071 .7071 -.7071 -.7071 86.397 78.2132)"/><path d="m20 49.586h2v2.828h-2z" transform="matrix(.7071 -.7071 .7071 .7071 -29.9117 29.7868)"/><path d="m26 53h4v2h-4z"/><path d="m18 53h4v2h-4z"/><path d="m43 50h2v4h-2z"/><path d="m43 58h2v4h-2z"/><path d="m46 51.586h2v2.828h-2z" transform="matrix(-.7071 -.7071 .7071 -.7071 42.7574 123.7107)"/><path d="m40 57.586h2v2.828h-2z" transform="matrix(-.7071 -.7071 .7071 -.7071 28.2721 129.7107)"/><path d="m46 57.586h2v2.828h-2z" transform="matrix(-.7071 .7071 -.7071 -.7071 121.9533 67.4853)"/><path d="m40 51.586h2v2.828h-2z" transform="matrix(.7071 -.7071 .7071 .7071 -25.468 44.5147)"/><path d="m46 55h4v2h-4z"/><path d="m38 55h4v2h-4z"/></svg>