<svg enable-background="new 0 0 64 64" height="64" viewBox="0 0 64 64" width="64" xmlns="http://www.w3.org/2000/svg"><path d="m1.707 40.707 7.707-7.707h13.645c.192 1.732.88 3.316 1.916 4.611l-10.389 10.389h-9.586v2h9v9h2v-9.586l10.389-10.389c1.294 1.036 2.878 1.724 4.611 1.916v13.645l-7.707 7.707 1.414 1.414 7.293-7.293 7.293 7.293 1.414-1.414-7.707-7.707v-13.645c1.732-.192 3.316-.88 4.611-1.916l10.389 10.389v9.586h2v-9h9v-2h-9.586l-10.389-10.389c1.036-1.294 1.724-2.878 1.916-4.611h13.645l7.707 7.707 1.414-1.414-7.293-7.293 7.293-7.293-1.414-1.414-7.707 7.707h-13.645c-.192-1.732-.88-3.316-1.916-4.611l10.389-10.389h9.586v-2h-9v-9h-2v9.586l-10.389 10.389c-1.294-1.036-2.878-1.724-4.611-1.916v-13.645l7.707-7.707-1.414-1.414-7.293 7.293-7.293-7.293-1.414 1.414 7.707 7.707v13.645c-1.732.192-3.316.88-4.611 1.916l-10.389-10.389v-9.586h-2v9h-9v2h9.586l10.389 10.389c-1.036 1.294-1.724 2.878-1.916 4.611h-13.645l-7.707-7.707-1.414 1.414 7.293 7.293-7.293 7.293zm30.293-15.707c3.86 0 7 3.14 7 7s-3.14 7-7 7-7-3.14-7-7 3.14-7 7-7z"/></svg>