<svg enable-background="new 0 0 64 64" height="64" viewBox="0 0 64 64" width="64" xmlns="http://www.w3.org/2000/svg"><path d="m32 0c-17.645 0-32 14.355-32 32s14.355 32 32 32 32-14.355 32-32-14.355-32-32-32zm0 62c-16.542 0-30-13.458-30-30s13.458-30 30-30 30 13.458 30 30-13.458 30-30 30z"/><path d="m27 32c0 2.757 2.243 5 5 5s5-2.243 5-5-2.243-5-5-5-5 2.243-5 5zm8 0c0 1.654-1.346 3-3 3s-3-1.346-3-3 1.346-3 3-3 3 1.346 3 3z"/><path d="m19 32c0 7.168 5.832 13 13 13 6.847 0 24.787-11.666 25.547-12.163l1.282-.837-1.282-.837c-.76-.497-18.7-12.163-25.547-12.163-7.168 0-13 5.832-13 13zm13 11c-6.065 0-11-4.935-11-11s4.935-11 11-11c4.796 0 17.299 7.293 23.15 11-5.851 3.707-18.354 11-23.15 11z"/></svg>