<svg enable-background="new 0 0 64 64" height="64" viewBox="0 0 64 64" width="64" xmlns="http://www.w3.org/2000/svg"><path d="m55.979 22.058c-.499-11.322-9.973-20.058-21.979-20.058-10.599 0-19.63 6.68-21.811 16h-1.189c-5.962 0-11 5.495-11 12 0 6.271 4.729 11 11 11h44c5.131 0 9-3.869 9-9 0-4.53-3.182-9.361-8.021-9.942zm-.979 16.942h-44c-5.131 0-9-3.869-9-9 0-5.42 4.122-10 9-10h2.83l.153-.815c1.654-8.799 10.072-15.185 20.017-15.185 11.215 0 20 8.346 20 19v1h1c4.125 0 7 4.216 7 8 0 3.991-3.009 7-7 7z"/><path d="m15.458 49.5h12.083v1.999h-12.083z" transform="matrix(.4138 -.9104 .9104 .4138 -33.3703 49.1758)"/><path d="m5.458 49.5h12.083v1.999h-12.083z" transform="matrix(.4138 -.9104 .9104 .4138 -39.2322 40.0722)"/><path d="m25.458 49.5h12.083v1.999h-12.083z" transform="matrix(.4138 -.9104 .9104 .4138 -27.5083 58.2795)"/><path d="m35.458 49.5h12.083v1.999h-12.083z" transform="matrix(.4138 -.9104 .9104 .4138 -21.6463 67.3832)"/><path d="m50.5 44.458h1.999v12.083h-1.999z" transform="matrix(.9104 .4137 -.4137 .9104 25.505 -16.7812)"/><path d="m15.382 59h2.236v2h-2.236z" transform="matrix(.4472 -.8944 .8944 .4472 -44.5447 47.9252)"/><path d="m5.382 59h2.236v2h-2.236z" transform="matrix(.4472 -.8944 .8944 .4472 -50.0725 38.981)"/><path d="m25.382 59h2.236v2h-2.236z" transform="matrix(.4472 -.8944 .8944 .4472 -39.0168 56.8695)"/><path d="m35.382 59h2.236v2h-2.236z" transform="matrix(.4472 -.8944 .8944 .4472 -33.4889 65.8138)"/><path d="m45.382 59h2.236v2h-2.236z" transform="matrix(.4472 -.8944 .8944 .4472 -27.9611 74.7581)"/></svg>