<svg enable-background="new 0 0 64 64" height="64" viewBox="0 0 64 64" width="64" xmlns="http://www.w3.org/2000/svg"><path d="m55.979 22.058c-.499-11.322-9.973-20.058-21.979-20.058-10.599 0-19.63 6.68-21.811 16h-1.189c-5.962 0-11 5.495-11 12 0 6.271 4.729 11 11 11h7v-2h-7c-5.131 0-9-3.869-9-9 0-5.42 4.122-10 9-10h2.83l.153-.815c1.654-8.799 10.072-15.185 20.017-15.185 11.215 0 20 8.346 20 19v1h1c4.125 0 7 4.216 7 8 0 3.991-3.009 7-7 7h-10v2h10c5.131 0 9-3.869 9-9 0-4.53-3.182-9.361-8.021-9.942z"/><path d="m41 42c0-7.267-7.883-17.205-8.219-17.625l-.736-.92-.788.876c-.378.42-9.257 10.369-9.257 17.669 0 5.215 4.206 9 10 9 5.467 0 9-3.533 9-9zm-9 7c-3.853 0-8-2.19-8-7 0-5.349 5.802-12.821 7.954-15.408 1.94 2.628 7.046 10.056 7.046 15.408 0 4.383-2.617 7-7 7z"/></svg>