<svg enable-background="new 0 0 64 64" height="64" viewBox="0 0 64 64" width="64" xmlns="http://www.w3.org/2000/svg"><path d="m4.349 18.241.009.011c-2.642 2.011-4.358 5.179-4.358 8.748 0 6.065 4.935 11 11 11s11-4.935 11-11c0-5.2-3.631-9.559-8.488-10.699 4.31-1.223 10.622-2.301 19.488-2.301 14.531 0 30.312 9.75 30.47 9.848l1.06-1.695c-.663-.416-16.417-10.153-31.53-10.153-21.127 0-28.354 5.986-28.651 6.241zm15.651 8.759c0 4.963-4.038 9-9 9s-9-4.037-9-9 4.038-9 9-9 9 4.037 9 9z"/><path d="m53 26c-6.065 0-11 4.935-11 11 0 5.2 3.631 9.559 8.488 10.699-4.31 1.223-10.622 2.301-19.488 2.301-14.531 0-30.312-9.75-30.47-9.848l-1.06 1.695c.663.416 16.417 10.153 31.53 10.153 21.127 0 28.354-5.986 28.651-6.241l-.009-.011c2.642-2.011 4.358-5.179 4.358-8.748 0-6.065-4.935-11-11-11zm0 20c-4.962 0-9-4.037-9-9s4.038-9 9-9 9 4.037 9 9-4.038 9-9 9z"/></svg>