<svg enable-background="new 0 0 64 64" height="64" viewBox="0 0 64 64" width="64" xmlns="http://www.w3.org/2000/svg"><path d="m32 0c-17.645 0-32 14.355-32 32s14.355 32 32 32 32-14.355 32-32-14.355-32-32-32zm0 62c-16.542 0-30-13.458-30-30s13.458-30 30-30 30 13.458 30 30-13.458 30-30 30z"/><path d="m27 32c0 2.757 2.243 5 5 5s5-2.243 5-5-2.243-5-5-5-5 2.243-5 5zm8 0c0 1.654-1.346 3-3 3s-3-1.346-3-3 1.346-3 3-3 3 1.346 3 3z"/><path d="m32 5.171-.837 1.282c-.497.761-12.163 18.7-12.163 25.547 0 7.168 5.832 13 13 13s13-5.832 13-13c0-6.847-11.666-24.786-12.163-25.547zm0 37.829c-6.065 0-11-4.935-11-11 0-4.796 7.293-17.299 11-23.15 3.707 5.851 11 18.354 11 23.15 0 6.065-4.935 11-11 11z"/></svg>