<svg enable-background="new 0 0 64 64" height="64" viewBox="0 0 64 64" width="64" xmlns="http://www.w3.org/2000/svg"><path d="m0 36h10v2h-10z"/><path d="m54 36h10v2h-10z"/><path d="m31 4h2v11h-2z"/><path d="m4.343 18h11.314v2h-11.314z" transform="matrix(.7071 .7071 -.7071 .7071 16.364 -1.5061)"/><path d="m48.343 18h11.314v2h-11.314z" transform="matrix(.7071 -.7071 .7071 .7071 2.3812 43.7487)"/><path d="m39.707 53.854-1.414-1.488-6.293 6.257-6.293-6.311-1.414 1.55 7 7.138h1.414z"/><path d="m52 37c0-11.028-8.972-20-20-20s-20 8.972-20 20c0 3.145.743 6.221 2.146 9h-14.146v2h64v-2h-14.146c1.403-2.779 2.146-5.855 2.146-9zm-38 0c0-9.925 8.075-18 18-18s18 8.075 18 18c0 3.176-.842 6.272-2.42 9h-31.159c-1.579-2.728-2.421-5.825-2.421-9z"/></svg>