<svg enable-background="new 0 0 64 64" height="64" viewBox="0 0 64 64" width="64" xmlns="http://www.w3.org/2000/svg"><path d="m32 0c-2.916 0-5.738.399-8.425 1.134-.107-.03-.209-.071-.317-.1l-.055.205c-13.379 3.833-23.203 16.167-23.203 30.761s9.824 26.928 23.203 30.761l.055.206c.108-.029.211-.069.319-.1 2.686.734 5.508 1.133 8.423 1.133 17.645 0 32-14.355 32-32s-14.355-32-32-32zm30 32c0 .673-.03 1.338-.074 2h-16.002c.036-.663.076-1.326.076-2s-.04-1.337-.077-2h16.003c.044.662.074 1.327.074 2zm-24.146 22h14.514c-1.648 1.528-3.47 2.87-5.43 4h-13.466c1.59-1.189 3.059-2.523 4.382-4zm1.646-2c.946-1.258 1.794-2.597 2.549-4h15.31c-.897 1.417-1.907 2.756-3.021 4zm3.53-6c.581-1.288 1.085-2.621 1.501-4h15.749c-.491 1.383-1.079 2.719-1.759 4zm2.053-6c.305-1.3.514-2.641.667-4h15.976c-.183 1.364-.457 2.699-.817 4zm.667-12c-.153-1.359-.362-2.7-.668-4h15.826c.36 1.301.635 2.636.817 4zm-1.22-6c-.415-1.379-.92-2.712-1.501-4h15.492c.68 1.281 1.268 2.617 1.759 4zm-2.482-6c-.755-1.403-1.603-2.742-2.55-4h14.839c1.114 1.244 2.124 2.583 3.021 4zm-4.195-6c-1.323-1.477-2.793-2.811-4.383-4h13.468c1.96 1.13 3.781 2.472 5.43 4zm-5.853-8c3.788 0 7.411.713 10.752 2h-12.282c-1.055-.605-2.165-1.128-3.303-1.605 1.574-.256 3.187-.395 4.833-.395zm-30 30c0-13.608 9.111-25.122 21.552-28.78 12.26 3.663 20.448 15.104 20.448 28.78 0 13.677-8.188 25.12-20.449 28.78-12.441-3.659-21.551-15.172-21.551-28.78zm25.169 29.605c1.138-.478 2.248-1 3.303-1.605h12.28c-3.341 1.287-6.964 2-10.752 2-1.645 0-3.258-.139-4.831-.395z"/></svg>