<svg enable-background="new 0 0 64 64" height="64" viewBox="0 0 64 64" width="64" xmlns="http://www.w3.org/2000/svg"><path d="m56.976 28.073c-.537-10.048-9.74-18.073-20.976-18.073-1.959 0-3.854.275-5.657.769-2.427-1.807-5.301-2.769-8.343-2.769-7.72 0-14 6.28-14 14 0 2.164.487 3.615 1.247 5.018-2.564 1.994-4.247 5.273-4.247 8.982 0 5.794 4.206 10 10 10h41c4.71 0 8-3.29 8-8 0-4.493-2.783-9.282-7.024-9.927zm-46.976-6.073c0-6.617 5.383-12 12-12 2.119 0 4.143.547 5.943 1.58-5.84 2.384-10.311 7.286-11.754 13.42h-1.189c-1.442 0-2.811.344-4.05.951-.658-1.251-.95-2.333-.95-3.951zm46 22h-41c-4.71 0-8-3.29-8-8 0-4.962 3.589-9 8-9h2.829l.153-.815c1.546-8.22 9.123-14.185 18.018-14.185 10.477 0 19 7.626 19 17v1h1c3.536 0 6 4.216 6 8 0 3.645-2.355 6-6 6z"/><path d="m0 21h6v2h-6z"/><path d="m21 0h2v6h-2z"/><path d="m2.757 6h8.485v2h-8.485z" transform="matrix(-.7071 -.7071 .7071 -.7071 7 16.8995)"/><path d="m31.081 47.606-3.598 8.394h3.793l-3.144 5.504 1.736.992 4.856-8.496h-4.207l2.402-5.606z"/><path d="m10.938 54h16.125v2h-16.125z" transform="matrix(.4961 -.8682 .8682 .4961 -38.18 44.209)"/><path d="m34.938 54h16.125v2h-16.125z" transform="matrix(.4961 -.8682 .8682 .4961 -26.0873 65.0468)"/></svg>