<svg enable-background="new 0 0 64 64" height="64" viewBox="0 0 64 64" width="64" xmlns="http://www.w3.org/2000/svg"><path d="m56.975 28.073c-.536-10.048-9.739-18.073-20.975-18.073-1.959 0-3.854.275-5.658.769-2.425-1.807-5.3-2.769-8.342-2.769-7.72 0-14 6.28-14 14 0 2.164.487 3.615 1.247 5.018-2.564 1.993-4.247 5.273-4.247 8.982 0 5.794 4.206 10 10 10v-2c-4.71 0-8-3.29-8-8 0-4.962 3.589-9 8-9h2.83l.153-.815c1.545-8.22 9.122-14.185 18.017-14.185 10.477 0 19 7.626 19 17v1h1c3.536 0 6 4.216 6 8 0 3.645-2.355 6-6 6v2c4.71 0 8-3.29 8-8 0-4.493-2.783-9.282-7.025-9.927zm-40.786-3.073h-1.189c-1.442 0-2.811.344-4.05.951-.658-1.251-.95-2.333-.95-3.951 0-6.617 5.383-12 12-12 2.12 0 4.143.547 5.943 1.58-5.839 2.384-10.312 7.286-11.754 13.42z"/><path d="m0 21h6v2h-6z"/><path d="m21 0h2v6h-2z"/><path d="m2.757 6h8.485v2h-8.485z" transform="matrix(.7071 .7071 -.7071 .7071 7 -2.8995)"/><path d="m17 44h37v2h-37z"/><path d="m17 50h37v2h-37z"/><path d="m17 56h37v2h-37z"/></svg>