<svg enable-background="new 0 0 64 64" height="64" viewBox="0 0 64 64" width="64" xmlns="http://www.w3.org/2000/svg"><path d="m52 37c0-11.028-8.972-20-20-20-.056 0-.11.003-.191.009l-1.514.025.617 1.382c.722 1.617 1.088 3.328 1.088 5.084 0 6.893-5.607 12.5-12.5 12.5-2.074 0-4.128-.519-5.942-1.501l-1.343-.727-.129 1.521c-.043.5-.086 1.093-.086 1.707 0 3.145.743 6.221 2.146 9h-14.146v2h64v-2h-14.146c1.403-2.779 2.146-5.855 2.146-9zm-38 0c0-.027 0-.055 0-.082 1.737.711 3.612 1.082 5.5 1.082 7.995 0 14.5-6.505 14.5-14.5 0-1.522-.237-3.015-.705-4.454 9.323.666 16.705 8.465 16.705 17.954 0 3.176-.842 6.272-2.42 9h-31.159c-1.579-2.728-2.421-5.825-2.421-9z"/><path d="m38.293 60.707 1.414-1.561-7-7.146h-1.414l-7 7.146 1.414 1.488 6.293-6.257z"/></svg>