<svg enable-background="new 0 0 64 64" height="64" viewBox="0 0 64 64" width="64" xmlns="http://www.w3.org/2000/svg"><path d="m11 41h7v-2h-7c-5.131 0-9-3.869-9-9 0-5.42 4.122-10 9-10h2.83l.153-.815c1.654-8.799 10.072-15.185 20.017-15.185 11.215 0 20 8.346 20 19v1h1c4.125 0 7 4.216 7 8 0 3.991-3.009 7-7 7h-9v2h9c5.131 0 9-3.869 9-9 0-4.53-3.182-9.361-8.021-9.942-.499-11.322-9.973-20.058-21.979-20.058-10.599 0-19.63 6.68-21.811 16h-1.189c-5.962 0-11 5.495-11 12 0 6.271 4.729 11 11 11z"/><path d="m21.832 43.555 1.703-2.555h6.465v-2h-6.465l-1.703-2.555-1.664 1.11 1.63 2.445-1.63 2.445z"/><path d="m42.168 36.445-1.703 2.555h-6.465v2h6.465l1.703 2.555 1.664-1.11-1.63-2.445 1.63-2.445z"/><path d="m32 50.202 2.445 1.63 1.11-1.664-2.555-1.703v-6.465h-2v6.465l-2.555 1.703 1.11 1.664z"/><path d="m32 29.798-2.445-1.63-1.11 1.664 2.555 1.703v6.465h2v-6.465l2.555-1.703-1.11-1.664z"/><path d="m25.363 29.904-.576 2.882-2.883.577.393 1.961 3.011-.603 3.985 3.986 1.414-1.414-3.985-3.986.602-3.01z"/><path d="m38.637 50.096.577-2.882 2.882-.577-.393-1.961-3.011.602-3.985-3.985-1.414 1.414 3.985 3.985-.602 3.011z"/><path d="m29.293 41.293-3.986 3.985-3.01-.602-.393 1.961 2.882.576.577 2.883 1.961-.393-.603-3.011 3.986-3.985z"/><path d="m34.707 38.707 3.985-3.985 3.011.602.393-1.961-2.882-.577-.577-2.882-1.961.393.602 3.011-3.985 3.985z"/></svg>