<svg enable-background="new 0 0 64 64" height="64" viewBox="0 0 64 64" width="64" xmlns="http://www.w3.org/2000/svg"><path d="m11 41h44c5.131 0 9-3.869 9-9 0-4.53-3.182-9.361-8.021-9.942-.499-11.322-9.973-20.058-21.979-20.058-10.599 0-19.63 6.68-21.811 16h-1.189c-5.962 0-11 5.495-11 12 0 6.271 4.729 11 11 11zm0-21h2.83l.153-.815c1.654-8.799 10.072-15.185 20.017-15.185 11.215 0 20 8.346 20 19v1h1c4.125 0 7 4.216 7 8 0 3.991-3.009 7-7 7h-44c-5.131 0-9-3.869-9-9 0-5.42 4.122-10 9-10z"/><path d="m21 43h2v5h-2z"/><path d="m21 52h2v5h-2z"/><path d="m24.5 44.379h2v4.243h-2z" transform="matrix(.7071 .7071 -.7071 .7071 40.3492 -4.4117)"/><path d="m17.5 51.379h2v4.243h-2z" transform="matrix(.7071 .7071 -.7071 .7071 43.2487 2.5883)"/><path d="m24.5 51.379h2v4.243h-2z" transform="matrix(-.7071 .7071 -.7071 -.7071 81.3614 73.299)"/><path d="m17.5 44.379h2v4.243h-2z" transform="matrix(.7071 -.7071 .7071 .7071 -27.4619 26.701)"/><path d="m24 49h5v2h-5z"/><path d="m15 49h5v2h-5z"/><path d="m41 48h2v5h-2z"/><path d="m41 57h2v5h-2z"/><path d="m44.5 49.379h2v4.243h-2z" transform="matrix(.7071 .7071 -.7071 .7071 49.7426 -17.0894)"/><path d="m37.5 56.379h2v4.243h-2z" transform="matrix(.7071 .7071 -.7071 .7071 52.6421 -10.0894)"/><path d="m44.5 56.379h2v4.243h-2z" transform="matrix(-.7071 .7071 -.7071 -.7071 119.0391 67.6924)"/><path d="m37.5 49.379h2v4.243h-2z" transform="matrix(.7071 -.7071 .7071 .7071 -25.1396 42.3076)"/><path d="m44 54h5v2h-5z"/><path d="m35 54h5v2h-5z"/></svg>