<svg enable-background="new 0 0 64 64" height="64" viewBox="0 0 64 64" width="64" xmlns="http://www.w3.org/2000/svg"><path d="m55.979 22.058c-.499-11.322-9.973-20.058-21.979-20.058-10.599 0-19.63 6.68-21.811 16h-1.189c-5.962 0-11 5.495-11 12 0 6.271 4.729 11 11 11h44c5.131 0 9-3.869 9-9 0-4.53-3.182-9.361-8.021-9.942zm-.979 16.942h-44c-5.131 0-9-3.869-9-9 0-5.42 4.122-10 9-10h2.83l.153-.815c1.654-8.799 10.072-15.185 20.017-15.185 11.215 0 20 8.346 20 19v1h1c4.125 0 7 4.216 7 8 0 3.991-3.009 7-7 7z"/><path d="m15.5 58.882h2v2.236h-2z" transform="matrix(-.8944 -.4472 .4472 -.8944 4.4252 121.0447)"/><path d="m5.5 58.882h2v2.236h-2z" transform="matrix(-.8944 -.4472 .4472 -.8944 -14.519 116.5725)"/><path d="m25.5 58.882h2v2.236h-2z" transform="matrix(-.8944 -.4472 .4472 -.8944 23.3695 125.5168)"/><path d="m35.5 58.882h2v2.236h-2z" transform="matrix(-.8944 -.4472 .4472 -.8944 42.3138 129.9889)"/><path d="m45.5 58.882h2v2.236h-2z" transform="matrix(-.8944 -.4472 .4472 -.8944 61.2581 134.4611)"/><path d="m22.382 52h2.236v2h-2.236z" transform="matrix(.4472 -.8944 .8944 .4472 -34.4142 50.3167)"/><path d="m12.5 51.882h2v2.236h-2z" transform="matrix(.8944 .4472 -.4472 .8944 25.1276 -.442)"/><path d="m32.382 52h2.236v2h-2.236z" transform="matrix(.4472 -.8944 .8944 .4472 -28.8863 59.261)"/><path d="m42.382 52h2.236v2h-2.236z" transform="matrix(.4472 -.8944 .8944 .4472 -23.3584 68.2053)"/><path d="m52.382 52h2.236v2h-2.236z" transform="matrix(.4472 -.8944 .8944 .4472 -17.8306 77.1495)"/><path d="m17.5 43.882h2v2.236h-2z" transform="matrix(.8944 .4472 -.4472 .8944 22.0777 -3.5227)"/><path d="m7.5 43.882h2v2.236h-2z" transform="matrix(.8944 .4472 -.4472 .8944 21.022 .9495)"/><path d="m27.5 43.882h2v2.236h-2z" transform="matrix(.8944 .4472 -.4472 .8944 23.1334 -7.9948)"/><path d="m37.5 43.882h2v2.236h-2z" transform="matrix(.8944 .4472 -.4472 .8944 24.1892 -12.4669)"/><path d="m47.5 43.882h2v2.236h-2z" transform="matrix(.8944 .4472 -.4472 .8944 25.2449 -16.9391)"/></svg>