<svg enable-background="new 0 0 64 64" height="64" viewBox="0 0 64 64" width="64" xmlns="http://www.w3.org/2000/svg"><path d="m32 0c-17.645 0-32 14.355-32 32s14.355 32 32 32 32-14.355 32-32-14.355-32-32-32zm30 32c0 .673-.03 1.338-.074 2h-28.926v-4h28.926c.044.662.074 1.327.074 2zm-29-29.975c3.426.114 6.707.802 9.752 1.975h-9.752zm0 57.975h9.752c-3.045 1.173-6.326 1.861-9.752 1.975zm0-2v-4h19.367c-1.648 1.528-3.47 2.87-5.43 4zm0-6v-4h24.358c-.897 1.417-1.907 2.756-3.021 4zm0-6v-4h27.28c-.491 1.383-1.079 2.719-1.759 4zm0-6v-4h28.726c-.183 1.364-.457 2.699-.817 4zm0-12v-4h27.908c.36 1.301.635 2.636.817 4zm0-6v-4h25.521c.68 1.281 1.268 2.617 1.759 4zm0-6v-4h21.337c1.114 1.244 2.124 2.583 3.021 4zm0-6v-4h13.938c1.96 1.13 3.781 2.472 5.43 4zm-31 22c0-16.207 12.92-29.444 29-29.975v59.949c-16.08-.53-29-13.767-29-29.974z"/></svg>