<svg enable-background="new 0 0 64 64" height="64" viewBox="0 0 64 64" width="64" xmlns="http://www.w3.org/2000/svg"><path d="m64 46h-14.146c1.403-2.779 2.146-5.855 2.146-9 0-11.028-8.972-20-20-20-.056 0-.109.003-.191.009l-1.514.025.617 1.382c.722 1.618 1.088 3.329 1.088 5.084 0 6.893-5.607 12.5-12.5 12.5-2.074 0-4.129-.519-5.941-1.5l-1.345-.729-.128 1.523c-.045.53-.086 1.103-.086 1.706 0 3.145.743 6.221 2.146 9h-14.146v2h64zm-50-9c0-.027 0-.055 0-.082 1.737.711 3.612 1.082 5.5 1.082 7.995 0 14.5-6.505 14.5-14.5 0-1.522-.236-3.015-.705-4.454 9.322.666 16.705 8.465 16.705 17.954 0 3.176-.842 6.272-2.421 9h-31.158c-1.579-2.727-2.421-5.824-2.421-9z"/><path d="m25.707 52.293-1.414 1.561 7 7.146h1.414l7-7.146-1.414-1.488-6.293 6.257z"/></svg>