<svg enable-background="new 0 0 64 64" height="64" viewBox="0 0 64 64" width="64" xmlns="http://www.w3.org/2000/svg"><path d="m61 24c0-1.535-.196-15-7-15-2.391 0-3.963 1.664-5 3.887v-.887c0-4.15-1.881-12-9-12-4.434 0-6.834 3.045-8.016 6.344-1.193-3.299-3.593-6.344-7.984-6.344-4.509 0-6.913 3.211-8.072 6.612-1.209-2.944-3.595-5.612-7.928-5.612v2c6.896 0 6.999 8.634 7 9.001v39.999h2v-39.991c.004-.409.174-10.009 7-10.009s6.996 9.6 7 10.009v39.991h2v-40c0-.1.08-10 7-10 6.9 0 6.999 9.593 7 10v40c0 .122.015.239.019.36-3.862 3.076-8.539 4.64-14.019 4.64v2c5.914 0 10.576-1.708 14.259-4.363 1.164 5.951 5.874 9.941 6.101 10.132l1.281-1.537c-.053-.044-4.967-4.204-5.578-10.047 11.189-9.876 11.929-28.905 11.937-29.185zm-12 0c0-3.373.919-13 5-13 4.075 0 4.998 9.628 5 12.971-.002.083-.291 8.46-3.694 16.695-1.68 4.065-3.785 7.379-6.306 9.933z"/></svg>