<svg enable-background="new 0 0 64 64" height="64" viewBox="0 0 64 64" width="64" xmlns="http://www.w3.org/2000/svg"><path d="m29 64c17.645 0 32-14.355 32-32s-14.355-32-32-32c-4.17 0-9.019.81-12.352 2.064l-2.084.784 1.971 1.037c8.787 4.624 14.465 13.304 14.465 22.115 0 13.785-11.215 25-25 25l-.69.002-2.511-.059 1.437 1.701c6.003 7.111 15.261 11.356 24.764 11.356zm4-38c0-8.853-5.247-17.561-13.538-22.738 2.884-.784 6.407-1.262 9.538-1.262 16.542 0 30 13.458 30 30s-13.458 30-30 30c-8.175 0-16.152-3.341-21.76-9.028 14.315-.65 25.76-12.499 25.76-26.972z"/></svg>