<svg enable-background="new 0 0 64 64" height="64" viewBox="0 0 64 64" width="64" xmlns="http://www.w3.org/2000/svg"><path d="m51.293 53.707 3.293 3.293h-2.586c-4.824 0-4.996-4.491-5-5v-40c0-4.15-1.881-12-9-12-4.434 0-6.834 3.045-8.016 6.344-1.193-3.299-3.593-6.344-7.984-6.344-4.509 0-6.913 3.211-8.072 6.612-1.209-2.944-3.595-5.612-7.928-5.612v2c6.896 0 6.999 8.634 7 9.001v39.999h2v-39.991c.004-.409.174-10.009 7-10.009s6.996 9.6 7 10.009v39.991h2v-39.999c.001-.408.1-10.001 7-10.001s6.999 9.593 7 10v40c0 2.421 1.463 7 7 7h2.586l-3.293 3.293 1.561 1.414 5.146-5v-1.414l-5.146-5z"/></svg>