<svg enable-background="new 0 0 64 64" height="64" viewBox="0 0 64 64" width="64" xmlns="http://www.w3.org/2000/svg"><path d="m48 39c-5.068 0-10.413 2.228-12.293 8.117-1.92-3.375-1.712-7.015-1.707-7.117v-29c0-3.805-1.672-11-8-11-3.253 0-5.27 1.904-6.467 4.27-.306-1.104-.765-2.137-1.463-2.908-.805-.891-1.867-1.362-3.07-1.362-6.92 0-7 4.95-7 5l2 .013c.008-.309.219-3.013 5-3.013.648 0 1.152.224 1.587.702 1.297 1.432 1.531 4.649 1.491 6.817-.053.529-.078 1.03-.078 1.481v29h2l-.005-28.9c.017-.16.056-.619.079-1.25.239-2.42 1.289-7.85 5.926-7.85 5.913 0 5.999 8.634 6 9l.003 28.929c-.018.237-.346 5.596 3.138 9.897-.083.691-.141 1.405-.141 2.174l.006.24c.099 2.922-.659 5.238-2.251 6.886-1.844 1.907-4.79 2.874-8.755 2.874v2c4.528 0 7.957-1.172 10.192-3.484 1.983-2.052 2.93-4.858 2.812-8.343l-.004-.173c0-.109.014-.202.016-.31 2.716 2.192 6.395 3.31 10.984 3.31 4.411 0 8-3.589 8-8s-3.589-8-8-8zm0 14c-4.738 0-8.352-1.279-10.747-3.795 1.315-7.322 7.783-8.205 10.747-8.205 3.309 0 6 2.691 6 6s-2.691 6-6 6z"/></svg>