<svg height="16" viewBox="0 0 512 512" width="16" xmlns="http://www.w3.org/2000/svg"><path d="m192 104h-96v-48c0-13.255 10.745-24 24-24h48c13.255 0 24 10.745 24 24zm224-48c0-13.255-10.745-24-24-24h-48c-13.255 0-24 10.745-24 24v48h96zm-416 400c0 13.255 10.745 24 24 24h120c13.255 0 24-10.745 24-24v-16h-168zm88-328c-13.255 0-24 10.745-24 24 0 104-64 120-64 264h168v-104c0-13.255 10.745-24 24-24v-160zm256 328c0 13.255 10.745 24 24 24h120c13.255 0 24-10.745 24-24v-16h-168zm-128-328v160h80v-160zm128 288h168c0-144-64-160-64-264 0-13.255-10.745-24-24-24h-104v160c13.255 0 24 10.745 24 24z"/></svg>