<svg height="16" viewBox="0 0 512 512" width="16" xmlns="http://www.w3.org/2000/svg"><path d="m412.6 177.2 99.4-74.8-156.9-102.4-99.1 82.7-99.1-82.7-156.9 102.4 99.4 74.8-99.4 79.6 105.4 68.8v59.3l150.9 90.5 150.9-90.5v-59.7l104.8-68.4zm-284.8 0 128.2-74.4 128.2 74.4-128.2 79.2zm271.2 9.9 85.3 68.3-128.1 83.6-86.4-72.1zm-42.7-166.9 128.1 83.6-85.4 63.5-129.2-75 86.5-72.1zm-200.6 0 86.4 72.1-129.2 75-85.3-63.5 128.1-83.6zm-42.8 166.9 129.2 79.8-86.4 72.1-128-83.6zm278 188.6-134.6 80.8-134.7-80.8v-39.5l35.3 23 99.1-82.7 99.1 82.7 35.8-23.4z"/></svg>