<svg height="16" viewBox="0 0 512 512" width="16" xmlns="http://www.w3.org/2000/svg"><path d="m177.38 206.64-138.35 138.33a24.01 24.01 0 0 0 -7.03 16.97v62.06l-32 56 32 32 56-32h62.06c6.36 0 12.47-2.53 16.97-7.03l138.35-138.33zm225.552 30.47 16.952 16.95c9.37 9.37 9.37 24.57 0 33.94l-40.973 40.97c-9.292 9.312-24.506 9.434-33.94 0l-161.943-161.94c-9.37-9.37-9.37-24.57 0-33.94l40.972-40.97c9.289-9.309 24.502-9.438 33.94 0l16.992 16.99 82.606-82.601c35.19-35.19 92.5-35.5 128 0 40.49 48.08 29.66 98.34 0 128z"/></svg>