<svg height="16" viewBox="0 0 512 512" width="16" xmlns="http://www.w3.org/2000/svg"><path d="m128 144v320c0 26.51-21.49 48-48 48h-32c-26.51 0-48-21.49-48-48v-320c0-26.51 21.49-48 48-48h32c26.51 0 48 21.49 48 48zm384 64v256c0 26.51-21.49 48-48 48h-272c-26.51 0-48-21.49-48-48v-424c0-22.091 17.909-40 40-40h207.432a39.996 39.996 0 0 1 28.284 11.716l48.569 48.569a39.999 39.999 0 0 1 11.715 28.283v74.174c18.641 6.591 32 24.36 32 45.258zm-320-16h240v-96h-24c-13.203 0-24-10.797-24-24v-24h-192zm96 204c0-6.627-5.373-12-12-12h-40c-6.627 0-12 5.373-12 12v40c0 6.627 5.373 12 12 12h40c6.627 0 12-5.373 12-12zm0-128c0-6.627-5.373-12-12-12h-40c-6.627 0-12 5.373-12 12v40c0 6.627 5.373 12 12 12h40c6.627 0 12-5.373 12-12zm128 128c0-6.627-5.373-12-12-12h-40c-6.627 0-12 5.373-12 12v40c0 6.627 5.373 12 12 12h40c6.627 0 12-5.373 12-12zm0-128c0-6.627-5.373-12-12-12h-40c-6.627 0-12 5.373-12 12v40c0 6.627 5.373 12 12 12h40c6.627 0 12-5.373 12-12z"/></svg>