<svg height="16" viewBox="0 0 512 512" width="16" xmlns="http://www.w3.org/2000/svg"><path d="m364.215 192h131.43c5.439 20.419 8.354 41.868 8.354 64s-2.915 43.581-8.354 64h-131.43c5.154-43.049 4.939-86.746 0-128zm-179.001 160c10.678 53.68 33.173 112.514 70.125 151.992.221.001.44.008.661.008s.44-.008.661-.008c37.012-39.543 59.467-98.414 70.125-151.992zm174.13-192h125.385c-31.927-75.976-100.601-132.695-183.779-147.925 30.238 43.12 48.821 96.332 58.394 147.925zm-27.35 32h-151.988c-5.339 41.914-5.345 86.037 0 128h151.989c5.339-41.915 5.345-86.037-.001-128zm-179.338 160h-125.385c31.926 75.976 100.6 132.695 183.778 147.925-30.246-43.136-48.823-96.35-58.393-147.925zm206.688 0c-9.575 51.605-28.163 104.814-58.394 147.925 83.178-15.23 151.852-71.949 183.778-147.925zm-32.558-192c-10.678-53.68-33.174-112.514-70.125-151.992-.221 0-.44-.008-.661-.008s-.44.008-.661.008c-37.012 39.543-59.467 98.414-70.125 151.992zm-310.431 32c-5.44 20.419-8.355 41.868-8.355 64s2.915 43.581 8.355 64h131.43c-4.939-41.254-5.154-84.951 0-128zm136.301-32c9.575-51.602 28.161-104.81 58.394-147.925-83.178 15.23-151.852 71.949-183.779 147.925z"/></svg>