<svg height="16" viewBox="0 0 640 512" width="16" xmlns="http://www.w3.org/2000/svg"><path d="m637.5 204.7c-4.2-4.8-62.8-78.1-73.1-90.5s-15.4-10.2-21.7-9.3-80.5 13.4-89.1 14.8c-8.6 1.5-14 4.9-8.7 12.3 4.7 6.6 53.4 75.7 64.2 90.9l-193.7 46.4-154.2-257.6c-6.1-9.1-7.4-12.3-21.4-11.6-13.9.6-120.8 9.5-128.4 10.1s-16 4-8.4 22 129 279.6 132.4 287.2 12.2 20 32.8 15c21.1-5.1 94.3-24.2 134.3-34.7 21.1 38.3 64.2 115.9 72.2 127 10.6 14.9 18 12.4 34.3 7.4 12.8-3.9 199.6-71.1 208-74.5 8.4-3.5 13.6-5.9 7.9-14.4-4.2-6.2-53.5-72.2-79.3-106.8 17.7-4.7 80.6-21.4 87.3-23.3 7.8-1.8 8.9-5.7 4.6-10.4zm-352.2 72c-2.3.5-110.8 26.5-116.6 27.8s-5.8.7-6.5-1.3-129-266.7-130.8-270-1.7-5.9 0-5.9 102.5-9 106-9.2c3.6-.2 3.2.6 4.5 2.8 0 0 142.2 245.4 144.6 249.7 2.6 4.3 1.1 5.6-1.2 6.1zm306 57.3c1.7 2.7 3.5 4.5-2 6.4-5.4 2-183.7 62.1-187.1 63.6-3.5 1.5-6.2 2-10.6-4.5-4.5-6.4-62.4-106.8-62.4-106.8l188.8-49c4.7-1.5 6.2-2.5 9.2 2.2 2.9 4.7 62.4 85.4 64.1 88.1zm12.1-134.1c-4.2.9-73.6 18.1-73.6 18.1l-56.7-77.8c-1.6-2.2-2.9-4.5 1.1-5s68.4-12.2 71.3-12.8c2.9-.7 5.4-1.5 9 3.4s52.6 67 54.5 69.4c1.8 2.3-1.4 3.8-5.6 4.7z"/></svg>