<svg height="16" viewBox="0 0 512 512" width="16" xmlns="http://www.w3.org/2000/svg"><path d="m256 56c110.532 0 200 89.451 200 200 0 110.532-89.451 200-200 200-110.532 0-200-89.451-200-200 0-110.532 89.451-200 200-200m0-48c-136.967 0-248 111.033-248 248s111.033 248 248 248 248-111.033 248-248-111.033-248-248-248zm64 136c-9.535 0-18.512 2.386-26.37 6.589h.017c12.735 0 23.059 10.324 23.059 23.059s-10.324 23.059-23.059 23.059-23.059-10.324-23.059-23.059v-.017c-4.202 7.857-6.588 16.834-6.588 26.369 0 30.928 25.072 56 56 56s56-25.072 56-56-25.072-56-56-56zm-128 0c-9.535 0-18.512 2.386-26.37 6.589h.017c12.735 0 23.059 10.324 23.059 23.059s-10.324 23.059-23.059 23.059-23.059-10.324-23.059-23.059v-.017c-4.202 7.857-6.588 16.834-6.588 26.369 0 30.928 25.072 56 56 56s56-25.072 56-56-25.072-56-56-56zm195.372 182.219c18.819-25.592-19.856-54.017-38.67-28.438-50.135 68.177-135.229 68.18-185.367 0-18.828-25.601-57.478 2.861-38.67 28.438 69.298 94.231 193.323 94.351 262.707 0z"/></svg>