<svg height="16" viewBox="0 0 448 512" width="16" xmlns="http://www.w3.org/2000/svg"><path d="m444.816 301.639a24.12 24.12 0 0 0 2.661-16.978c-2.725-12.966-15.339-21.245-28.174-18.492l-87.407 25.046-67.896-35.215 67.896-35.215 87.407 25.046c12.835 2.753 25.449-5.526 28.174-18.492s-5.471-25.708-18.305-28.461l-47.477-7.137 53.077-30.956c11.363-6.627 15.257-21.306 8.696-32.785s-21.091-15.412-32.454-8.785l-53.077 30.956 17.621-45.104c4.057-12.606-2.768-26.146-15.247-30.245-12.478-4.099-25.883 2.797-29.94 15.402l-22.232 88.99-60.38 35.215v-70.429l65.175-63.945c8.778-9.852 7.987-25.027-1.766-33.894s-24.775-8.068-33.552 1.784l-29.857 37.967v-61.912c0-13.255-10.637-24-23.758-24s-23.758 10.745-23.758 24v61.912l-29.857-37.967c-8.779-9.852-23.799-10.652-33.552-1.784-9.753 8.867-10.543 24.042-1.766 33.894l65.174 63.945v70.431l-60.38-35.215-22.232-88.99c-4.057-12.605-17.462-19.501-29.94-15.402s-19.304 17.64-15.247 30.245l17.62 45.104-53.077-30.956c-11.363-6.627-25.893-2.694-32.454 8.785s-2.667 26.157 8.696 32.785l53.077 30.956-47.477 7.137c-12.835 2.754-21.031 15.495-18.305 28.461 2.725 12.965 15.339 21.245 28.174 18.492l87.407-25.046 67.896 35.213-67.896 35.215-87.406-25.045c-12.835-2.753-25.449 5.526-28.174 18.492-2.725 12.967 5.47 25.708 18.305 28.461l47.477 7.137-53.077 30.956c-11.363 6.627-15.256 21.305-8.696 32.784s21.091 15.412 32.454 8.785l53.077-30.956-17.62 45.104a24.157 24.157 0 0 0 2.022 19.428c2.831 4.953 7.416 8.909 13.224 10.816 12.478 4.099 25.883-2.797 29.94-15.402l22.232-88.99 60.38-35.215v70.43l-65.175 63.945c-8.778 9.852-7.987 25.027 1.766 33.894 9.754 8.868 24.774 8.068 33.552-1.784l29.857-37.967v61.912c0 13.255 10.637 24 23.758 24s23.758-10.745 23.758-24v-61.912l29.857 37.967a23.59 23.59 0 0 0 17.667 7.945 23.534 23.534 0 0 0 15.885-6.161c9.753-8.867 10.544-24.042 1.766-33.894l-65.175-63.945v-70.431l60.38 35.215 22.232 88.99c4.057 12.605 17.462 19.501 29.94 15.402 12.479-4.099 19.304-17.64 15.247-30.245l-17.621-45.104 53.077 30.956c11.363 6.627 25.893 2.694 32.454-8.785s2.667-26.157-8.696-32.785l-53.077-30.956 47.477-7.137c6.86-1.469 12.394-5.793 15.645-11.481z"/></svg>