<svg height="16" viewBox="0 0 640 512" width="16" xmlns="http://www.w3.org/2000/svg"><path d="m110.3 242.5c2.4 4.2 3.7 9.4 3.7 15.4v.3c0 6.2-1.2 11.9-3.7 16.9s-6.1 9.2-10.5 12.8c-4.6 3.4-10.1 6.1-16.6 8s-13.8 2.8-21.8 2.8c-12.2 0-23.6-1.6-34.1-5s-19.7-8.4-27.3-15.1l21.4-25.4c6.5 5 13.4 8.6 20.5 10.7 7.1 2.2 14.3 3.3 21.4 3.3 3.7 0 6.2-.4 7.9-1.3 1.6-.9 2.4-2.2 2.4-3.7v-.3c0-1.8-1.2-3.1-3.6-4.3s-6.7-2.4-13.1-3.6c-6.7-1.3-13.1-3-19.2-4.8s-11.4-4.2-16-7-8.3-6.4-11-10.7c-3-4.6-4.3-9.9-4.3-16.2v-.3c0-5.6 1-11 3.3-15.9s5.5-9.2 9.8-12.8c4.3-3.7 9.6-6.5 15.9-8.6s13.5-3.1 21.8-3.1c11.6 0 21.8 1.3 30.4 4.2 8.8 2.7 16.5 6.8 23.5 12.3l-19.5 26.9c-5.6-4.2-11.7-7.1-18-9.1-6.4-1.9-12.3-2.8-17.8-2.8-3 0-5.2.4-6.5 1.3-1.5.9-2.1 2.1-2.1 3.6v.3c0 1.6 1 3 3.3 4.2 2.2 1.2 6.4 2.4 12.6 3.6 7.6 1.3 14.5 3 20.8 4.9 6.2 1.9 11.6 4.5 16.2 7.4 4.3 3.3 7.8 6.8 10.2 11.1zm1.5-31.7h35.2v85.8h39.9v-85.8h35.2v-33.8h-110.3zm463.8-41.3-64.3 127.1h38.3l26-51.4 26.1 51.4h38.3zm-179.1 0-59.2 116.5-20.8-30.3c7.3-3.6 13.1-8.3 17.2-14.4 4.3-5.9 6.4-13.4 6.4-22.1v-.3c0-6.1-.9-11.4-2.7-16s-4.5-8.8-8.2-12.3c-4.2-4.2-9.8-7.6-16.6-9.9-7-2.5-15.7-3.7-26.4-3.7h-58v119.7h39.9v-34.1h8.5l22.6 34.1h71.6l26-51.4 26 51.4h38.2zm-96.2 52.7c0 3.7-1.5 6.5-4.2 8.6s-6.5 3.1-11.3 3.1h-17.2v-23.5h17.4c4.8 0 8.5.9 11.1 2.8 2.8 1.9 4.2 4.8 4.2 8.6zm211.9-45.3-26.2 51.5-26.1-51.5h-38.3l64.4 127.1 64.3-127.1z"/></svg>