<svg height="16" viewBox="0 0 576 512" width="16" xmlns="http://www.w3.org/2000/svg"><path d="m75.694 480a48.02 48.02 0 0 1 -42.448-25.571c-21.223-40.129-33.246-85.873-33.246-134.429 0-159.058 128.942-288 288-288s288 128.942 288 288c0 48.556-12.023 94.3-33.246 134.429a48.018 48.018 0 0 1 -42.448 25.571zm436.306-192c-17.673 0-32 14.327-32 32s14.327 32 32 32 32-14.327 32-32-14.327-32-32-32zm-224-160c17.673 0 32-14.327 32-32s-14.327-32-32-32-32 14.327-32 32 14.327 32 32 32zm-224 160c-17.673 0-32 14.327-32 32s14.327 32 32 32 32-14.327 32-32-14.327-32-32-32zm65.608-158.392c-17.673 0-32 14.327-32 32s14.327 32 32 32 32-14.327 32-32-14.327-32-32-32zm316.784 0c-17.673 0-32 14.327-32 32s14.327 32 32 32 32-14.327 32-32-14.327-32-32-32zm-87.078 31.534c-12.627-4.04-26.133 2.92-30.173 15.544l-45.923 143.511c-33.11 2.448-59.218 30.067-59.218 63.803 0 35.346 28.654 64 64 64s64-28.654 64-64c0-19.773-8.971-37.447-23.061-49.187l45.919-143.498c4.039-12.625-2.92-26.133-15.544-30.173z"/></svg>