<svg height="17" viewBox="0 0 17 17" width="17" xmlns="http://www.w3.org/2000/svg"><path d="m14.714 6.791c.504-.512.786-1.181.786-1.903 0-1.503-1.223-2.726-2.725-2.726-.886 0-1.695.434-2.207 1.15-.501-.155-1.026-.249-1.568-.287v-1.025h1v-1h-3v1h1v1.025c-.542.038-1.067.132-1.568.287-.512-.717-1.32-1.15-2.207-1.15-1.502 0-2.725 1.223-2.725 2.726 0 .723.282 1.392.786 1.903-.499.962-.786 2.052-.786 3.209 0 1.707.616 3.271 1.635 4.487l-1.285 1.713.8.6 1.192-1.59c1.239 1.109 2.868 1.79 4.658 1.79s3.419-.681 4.658-1.79l1.192 1.59.8-.6-1.285-1.713c1.019-1.216 1.635-2.78 1.635-4.487 0-1.157-.287-2.247-.786-3.209zm-1.939-3.629c.951 0 1.725.774 1.725 1.726 0 .373-.12.724-.335 1.017-.678-.936-1.581-1.694-2.63-2.202.322-.339.762-.541 1.24-.541zm-10.275 1.726c0-.951.774-1.726 1.725-1.726.478 0 .918.202 1.24.54-1.049.508-1.951 1.267-2.63 2.202-.215-.293-.335-.643-.335-1.016zm6 11.112c-3.309 0-6-2.691-6-6s2.691-6 6-6 6 2.691 6 6-2.691 6-6 6zm.5-6h4v1h-5v-4h1z"/></svg>