<svg height="17" viewBox="0 0 17 17" width="17" xmlns="http://www.w3.org/2000/svg"><path d="m15.291 12.592-1.57-3.127-3.127 1.568.448.895 1.871-.939c-.373 1.907-1.956 3.365-3.913 3.585v-7.574h1.5v-1h-1.5v-1.051c1.14-.232 2-1.241 2-2.449 0-1.379-1.122-2.5-2.5-2.5s-2.5 1.121-2.5 2.5c0 1.208.86 2.217 2 2.449v1.051h-1.5v1h1.5v7.574c-1.955-.22-3.538-1.676-3.912-3.58l1.86.934.448-.895-3.127-1.568-1.57 3.127.894.449.651-1.298c.693 2.245 2.787 3.882 5.256 3.882 2.464 0 4.556-1.63 5.252-3.867l.645 1.283zm-8.291-10.092c0-.827.673-1.5 1.5-1.5s1.5.673 1.5 1.5-.673 1.5-1.5 1.5-1.5-.673-1.5-1.5z"/></svg>