<svg height="17" viewBox="0 0 17 17" width="17" xmlns="http://www.w3.org/2000/svg"><path d="m3.809 5.696h9.383v6.807c0 .623-.502 1.125-1.113 1.125h-.769v2.32c0 .583-.469 1.052-1.051 1.052-.583 0-1.055-.47-1.055-1.052v-2.32h-1.408v2.32c0 .582-.472 1.052-1.055 1.052-.571 0-1.042-.47-1.042-1.052l-.009-2.32h-.757c-.622 0-1.124-.501-1.124-1.125zm-1.452-.194c-.582 0-1.053.471-1.053 1.042v4.396c0 .583.471 1.052 1.053 1.052s1.042-.47 1.042-1.052v-4.396c0-.571-.468-1.042-1.042-1.042zm10.865-.174h-9.454c0-1.625.972-3.036 2.413-3.771l-.727-1.338c-.041-.072-.021-.164.051-.205.071-.031.164-.011.205.062l.735 1.349c.625-.277 1.32-.43 2.055-.43s1.43.153 2.055.429l.735-1.349c.041-.072.134-.092.205-.062.072.041.092.133.051.205l-.727 1.338c1.432.736 2.403 2.147 2.403 3.772zm-6.481-2.105c0-.215-.173-.399-.397-.399-.216 0-.389.184-.389.399 0 .214.173.398.389.398.224.001.397-.183.397-.398zm4.304 0c0-.215-.173-.399-.389-.399-.225 0-.397.184-.397.399 0 .214.173.398.397.398.216.001.389-.183.389-.398zm3.598 2.279c-.573 0-1.042.46-1.042 1.042v4.396c0 .583.469 1.052 1.042 1.052.582 0 1.053-.47 1.053-1.052v-4.396c-.001-.582-.471-1.042-1.053-1.042z"/></svg>