<svg height="17" viewBox="0 0 17 17" width="17" xmlns="http://www.w3.org/2000/svg"><path d="m16.469 2.222h-1.927c-.292 0-.531.234-.531.521v.667l-10.995 4.03v-.27c0-.43-.358-.781-.797-.781h-1.422c-.439 0-.797.351-.797.781v4.688c0 .429.358.781.797.781h1.422c.438 0 .797-.352.797-.781v-.331l1.034.189c-.023.163-.038.326-.038.491 0 1.897 1.561 3.441 3.479 3.441 1.657 0 3.03-1.128 3.38-2.682l3.14.576v.659c0 .287.239.521.531.521h1.927c.292 0 .531-.234.531-.521v-11.458c0-.287-.239-.521-.531-.521zm-8.978 12.426c-1.367 0-2.479-1.095-2.479-2.441 0-.104.027-.205.04-.308l4.84.888c-.264 1.082-1.235 1.861-2.401 1.861zm8.509-.926h-.989v-1.013l-12.995-2.383v1.312h-1.016v-4.25h1.016v1.484l12.995-4.763v-.887h.989z"/></svg>