<svg height="17" viewBox="0 0 17 17" width="17" xmlns="http://www.w3.org/2000/svg"><path d="m14.001 11.125c-.469-.674-.704-1.44-.704-2.278 0-.776.225-1.482.664-2.115.245-.357.633-.756 1.165-1.205-.347-.43-.706-.777-1.063-1.022-.634-.439-1.358-.664-2.176-.664-.501 0-1.093.123-1.767.347-.675.235-1.165.348-1.461.348-.236 0-.706-.102-1.411-.307-.715-.204-1.308-.306-1.808-.306-1.176 0-2.136.491-2.901 1.471-.766.991-1.154 2.258-1.154 3.821 0 1.675.511 3.381 1.501 5.139 1.011 1.757 2.023 2.646 3.075 2.646.337 0 .787-.112 1.349-.348.553-.224 1.042-.337 1.451-.337.419 0 .939.102 1.542.327.614.214 1.083.327 1.431.327.868 0 1.747-.665 2.626-2.003.592-.889 1.001-1.747 1.256-2.554-.602-.183-1.144-.612-1.615-1.287zm-.478 3.293c-.657 1-1.293 1.552-1.79 1.552-.147 0-.459-.047-1.081-.264-.693-.259-1.33-.39-1.892-.39-.541 0-1.155.138-1.838.415-.58.243-.865.269-.961.269-.628 0-1.412-.762-2.204-2.137-.923-1.639-1.372-3.159-1.372-4.648 0-1.336.31-2.387.942-3.206.579-.741 1.251-1.086 2.113-1.086.401 0 .902.088 1.529.267 1.051.305 1.444.346 1.689.346.425 0 1.01-.132 1.777-.399.589-.196 1.077-.296 1.45-.296.609 0 1.135.159 1.61.489.066.046.135.098.204.155-.228.236-.414.461-.562.677-.56.806-.843 1.709-.843 2.686 0 1.048.297 2.006.884 2.85.354.505.748.908 1.182 1.206-.217.499-.498 1.006-.837 1.514zm-4.099-10.454c-.235.072-.582.133-1.062.174.021-1.011.286-1.89.797-2.625.511-.737 1.368-1.237 2.555-1.513.02.092.04.164.05.225 0 .071.011.132.011.204 0 .419-.102.889-.296 1.39-.204.511-.521.981-.951 1.41-.368.367-.736.612-1.104.735z"/></svg>