<svg height="17" viewBox="0 0 17 17" width="17" xmlns="http://www.w3.org/2000/svg"><path d="m8.516 0c-4.687 0-8.5 3.813-8.5 8.5s3.813 8.5 8.5 8.5 8.5-3.813 8.5-8.5-3.814-8.5-8.5-8.5zm4.473 8c.098-1.46.615-2.855 1.497-4.02.86 1.133 1.404 2.515 1.504 4.02zm3.001 1c-.1 1.505-.644 2.888-1.505 4.021-.881-1.166-1.398-2.561-1.495-4.021zm-2.164-5.791c-1.094 1.371-1.733 3.04-1.837 4.791h-2.989v-6.976c1.879.122 3.574.929 4.826 2.185zm-5.826-2.183v6.974h-2.96c-.102-1.752-.741-3.42-1.834-4.791 1.244-1.249 2.927-2.055 4.794-2.183zm-6.959 6.974c.1-1.505.644-2.888 1.505-4.021.881 1.165 1.397 2.56 1.495 4.021zm2.999 1c-.097 1.462-.612 2.856-1.494 4.021-.861-1.133-1.405-2.516-1.505-4.021zm-.835 4.791c1.095-1.371 1.733-3.039 1.835-4.791h2.96v6.974c-1.867-.128-3.55-.934-4.795-2.183zm5.795 2.185v-6.976h2.99c.103 1.751.742 3.42 1.835 4.792-1.252 1.255-2.946 2.062-4.825 2.184z"/></svg>