<svg height="17" viewBox="0 0 17 17" width="17" xmlns="http://www.w3.org/2000/svg"><path d="m15.312 14.125c-.014-.013-1.312-1.294-1.312-3.21v-3.292c0-3.101-2.468-5.623-5.5-5.623s-5.5 2.522-5.5 5.623v3.292c0 1.861-1.306 3.203-1.318 3.216l-.843.853h15.357zm-12.26-.141c.444-.692.948-1.764.948-3.069v-3.292c0-2.549 2.019-4.623 4.5-4.623s4.5 2.074 4.5 4.623v3.292c0 1.32.495 2.383.938 3.069zm5.948-11.984h-1v-1h1zm0 13h1c0 .827-.673 1.5-1.5 1.5s-1.5-.673-1.5-1.5h1c0 .276.225.5.5.5s.5-.224.5-.5z"/></svg>