<svg height="17" viewBox="0 0 17 17" width="17" xmlns="http://www.w3.org/2000/svg"><path d="m16.592 1.152c-.053-.01-1.321-.244-2.981-.244-2.105 0-3.828.366-5.125 1.088-1.518-.765-3.264-1.152-5.196-1.152-1.681 0-2.866.302-2.915.315l-.375.098.001 13.906.624-.161c.011-.002 1.12-.283 2.665-.283 1.447 0 2.771.24 3.96.703v.828h2.5v-.856c1.281-.488 2.747-.611 3.86-.611 1.562 0 2.786.225 2.798.227l.592.11v-13.891zm-15.592 12.755v-11.858c.451-.084 1.277-.205 2.29-.205 1.761 0 3.339.36 4.71 1.044v11.776c-1.403-.617-2.977-.945-4.71-.945-.969 0-1.773.101-2.29.188zm15 .031c-.536-.07-1.393-.154-2.39-.154-1.848 0-3.381.298-4.61.855v-11.773c1.422-.78 3.271-.958 4.61-.958 1.023 0 1.902.097 2.39.164z"/></svg>