<svg height="17" viewBox="0 0 17 17" width="17" xmlns="http://www.w3.org/2000/svg"><path d="m17 7.531c0-.827-.673-1.5-1.5-1.5h-4.808l.285-.914.023-3.617c0-.827-.673-1.5-1.5-1.5h-2c-.827 0-1.5.673-1.5 1.5v3.452l.31 1.08h-4.81c-.827 0-1.5.673-1.5 1.5v3.486h.932l-.766 5.982h16.668l-.766-5.982h.932zm-1.302 8.469h-1.698v-2h-1v2h-1v-3h-1v3h-1v-4h-1v4h-5v-2h-1v2h-1.698l.638-4.982h13.12zm-14.638-5.982h-.06v-2.487c0-.276.224-.5.5-.5h6.165l-.665-2.155v-3.376c0-.276.224-.5.5-.5h2c.276 0 .5.224.5.5v3.393l-.667 2.138h6.167c.276 0 .5.224.5.5v2.486h-14.94zm6.94-8.018h1v1h-1z"/></svg>