<svg height="17" viewBox="0 0 17 17" width="17" xmlns="http://www.w3.org/2000/svg"><path d="m17 9.984-1.958.002-2.051-3.986h-7.949l-2.968 3.999-2.074.001v4.977h2.002c0 .008-.002.015-.002.023 0 1.103.897 2 2 2s2-.897 2-2c0-.008-.002-.015-.002-.023h5.005c-.001.008-.003.015-.003.023 0 1.103.897 2 2 2s2-.897 2-2c0-.008-.002-.015-.002-.023h2.002zm-3.082.003-3.897.004v-2.991h2.36zm-8.374-2.987h3.477v2.992l-5.701.005zm-1.544 9c-.551 0-1-.449-1-1s.449-1 1-1 1 .449 1 1-.449 1-1 1zm9 0c-.551 0-1-.449-1-1s.449-1 1-1 1 .449 1 1-.449 1-1 1zm3-2.023h-1.291c-.35-.582-.981-.977-1.709-.977s-1.359.395-1.709.977h-5.582c-.35-.582-.981-.977-1.709-.977s-1.359.395-1.709.977h-1.291v-2.977l15-.015z"/></svg>