<svg height="17" viewBox="0 0 17 17" width="17" xmlns="http://www.w3.org/2000/svg"><path d="m12.021 4.234v8.498h-1v-8.498c0-1.091-.799-2.266-2.554-2.266-1.941 0-2.459 1.424-2.459 2.266v8.121h.007v1.457c0 .62.693 1.206 1.426 1.206.844 0 1.567-.683 1.567-1.241v-.27h-.003l.008-7.617c0-.874-.247-.874-.466-.874-.369 0-.547.035-.547.823v5.146h-1v-5.146c0-.451 0-1.823 1.547-1.823.669 0 1.466.325 1.466 1.875l-.007 6.43h.002v1.457c0 1.173-1.224 2.241-2.567 2.241-1.292 0-2.426-1.031-2.426-2.206v-.074h-.007v-9.505c0-1.573 1.082-3.266 3.459-3.266 2.333.001 3.554 1.643 3.554 3.266z"/></svg>