<svg height="17" viewBox="0 0 17 17" width="17" xmlns="http://www.w3.org/2000/svg"><path d="m17 6.75c0 2.343-1.906 4.25-4.25 4.25h-2.757v-1h2.757c1.792 0 3.25-1.458 3.25-3.25s-1.458-3.25-3.25-3.25c-.532 0-1.057.141-1.56.417l-.354.195-.265-.306c-.719-.829-1.748-1.306-2.821-1.306-1.661 0-3.099 1.08-3.576 2.688l-.126.422-.435-.072c-.119-.019-.238-.038-.363-.038-1.24 0-2.25 1.009-2.25 2.25s1.01 2.25 2.25 2.25h3.699v1h-3.699c-1.792 0-3.25-1.458-3.25-3.25 0-1.826 1.511-3.335 3.353-3.248.713-1.812 2.431-3.002 4.397-3.002 1.234 0 2.42.494 3.309 1.367.546-.244 1.113-.367 1.691-.367 2.344 0 4.25 1.907 4.25 4.25zm-8 6.98v-7.73h-1v7.73l-1.646-1.646-.707.707 2.853 2.853 2.854-2.854-.707-.707z"/></svg>