<svg height="17" viewBox="0 0 17 17" width="17" xmlns="http://www.w3.org/2000/svg"><path d="m12.75 4.5c-.578 0-1.146.123-1.691.367-.889-.873-2.075-1.367-3.309-1.367-1.966 0-3.684 1.19-4.397 3.002-1.803-.074-3.353 1.421-3.353 3.248 0 1.792 1.458 3.25 3.25 3.25h9.5c2.343 0 4.25-1.907 4.25-4.25s-1.907-4.25-4.25-4.25zm0 7.5h-9.5c-1.241 0-2.25-1.009-2.25-2.25s1.009-2.25 2.25-2.25c.125 0 .244.019.363.038l.435.072.126-.422c.478-1.608 1.915-2.688 3.576-2.688 1.073 0 2.102.477 2.821 1.307l.265.306.354-.195c.503-.277 1.027-.418 1.56-.418 1.792 0 3.25 1.458 3.25 3.25s-1.458 3.25-3.25 3.25z"/></svg>