<svg height="17" viewBox="0 0 17 17" width="17" xmlns="http://www.w3.org/2000/svg"><path d="m13 8h1c0 2.481-2.019 4.5-4.5 4.5s-4.5-2.019-4.5-4.5h1c0 1.93 1.57 3.5 3.5 3.5s3.5-1.57 3.5-3.5zm-5.5-1.5c.553 0 1-.447 1-1s-.447-1-1-1-1 .447-1 1 .447 1 1 1zm4 0c.553 0 1-.447 1-1s-.447-1-1-1-1 .447-1 1 .447 1 1 1zm5.5 1c0 4.136-3.364 7.5-7.5 7.5-1.34 0-2.648-.359-3.803-1.041l-5.5 2.843 2.843-5.499c-.681-1.155-1.04-2.463-1.04-3.803 0-4.136 3.364-7.5 7.5-7.5s7.5 3.364 7.5 7.5zm-1 0c0-3.584-2.916-6.5-6.5-6.5s-6.5 2.916-6.5 6.5c0 1.244.358 2.459 1.036 3.511l.157.243-1.664 3.218 3.217-1.664.243.157c1.053.677 2.266 1.035 3.511 1.035 3.584 0 6.5-2.916 6.5-6.5z"/></svg>