<svg height="17" viewBox="0 0 17 17" width="17" xmlns="http://www.w3.org/2000/svg"><path d="m17 1.5v7.969c0 .827-.673 1.5-1.5 1.5h-.508v-1h.508c.276 0 .5-.225.5-.5v-7.969c0-.275-.224-.5-.5-.5h-14c-.276 0-.5.225-.5.5v7.969c0 .275.224.5.5.5h1.5v2.892l1.779-1.569.661.75-3.44 3.035v-4.108h-.5c-.827 0-1.5-.673-1.5-1.5v-7.969c0-.827.673-1.5 1.5-1.5h14c.827 0 1.5.673 1.5 1.5zm-2.98 8.04v3.043c0 .827-.673 1.5-1.5 1.5h-.5v3.064l-3.667-3.064h-.853c-.827 0-1.5-.673-1.5-1.5v-3.043c0-.827.673-1.5 1.5-1.5h5.02c.827 0 1.5.673 1.5 1.5zm-1 0c0-.275-.224-.5-.5-.5h-5.02c-.276 0-.5.225-.5.5v3.043c0 .275.224.5.5.5h1.217l2.303 1.926v-1.926h1.5c.276 0 .5-.225.5-.5z"/></svg>