<svg height="17" viewBox="0 0 17 17" width="17" xmlns="http://www.w3.org/2000/svg"><path d="m8.94 6.871 1.081-1.34-.004-.003c.855-.971 2.087-1.528 3.378-1.528h1.898l-1.646-1.646.707-.707 2.853 2.853-2.854 2.854-.707-.707 1.647-1.647h-1.898c-.989 0-1.931.425-2.595 1.159l-1.08 1.339zm-3.089 3.825-.011-.008c-.667.833-1.663 1.312-2.733 1.312h-3.107v1h3.107c1.369 0 2.645-.611 3.503-1.676l.011.009.941-1.166-.777-.629zm7.795-.342 1.647 1.646h-1.898c-1.052 0-2.031-.469-2.7-1.281l-4.269-5.265-.01.008c-.85-.926-2.048-1.462-3.309-1.462h-3.107v1h3.107c.998 0 1.948.428 2.611 1.17l4.161 5.132-.005.004c.86 1.076 2.143 1.694 3.52 1.694h1.898l-1.646 1.646.707.707 2.854-2.854-2.854-2.854z"/></svg>