<svg height="17" viewBox="0 0 17 17" width="17" xmlns="http://www.w3.org/2000/svg"><path d="m16.999 1h-2.257c.001-.168.008-.328.008-.5v-.5h-12.5v.5c0 .16.004.333.005.5h-2.254l-.001.499c-.003 1.086.062 2.199.195 3.31.352 2.937 1.271 6.341 2.795 7.087.194.096.395.144.596.144.238 0 .479-.068.707-.206l.209-.14c.833 1.277 1.97 2.139 3.498 2.298v2.008h-2.953v1h7v-1h-3.047v-1.997c1.415-.149 2.585-.935 3.493-2.312l.234.155c.216.13.447.194.681.194.201 0 .404-.048.602-.145 1.524-.746 2.443-4.15 2.795-7.087.133-1.11.198-2.224.195-3.31l-.001-.498zm-13.011 9.834-.229.154c-.112.066-.204.07-.328.01-.785-.385-1.808-2.675-2.243-6.309-.108-.9-.169-1.802-.184-2.689h1.273c.097 2.924.513 6.468 1.792 8.956zm4.512 2.207c-4.54 0-5.199-8.05-5.247-12.041h10.494c-.049 4.721-.838 12.041-5.247 12.041zm7.312-8.352c-.436 3.634-1.458 5.924-2.243 6.309-.123.061-.216.058-.308.003l-.25-.167-.116.174c1.079-2.038 1.707-5.066 1.831-9.008h1.271c-.016.887-.077 1.789-.185 2.689z"/></svg>