<svg height="17" viewBox="0 0 17 17" width="17" xmlns="http://www.w3.org/2000/svg"><path d="m13 11c-.545 0-1.049.157-1.49.412l-2.322-2.454 6.26-6.614-.727-.688-6.221 6.574-6.223-6.574-.726.688 6.26 6.614-2.322 2.453c-.44-.254-.945-.411-1.489-.411-1.654 0-3 1.346-3 3s1.346 3 3 3 3-1.346 3-3c0-.747-.285-1.424-.738-1.949l2.238-2.365 2.238 2.365c-.454.526-.738 1.202-.738 1.949 0 1.654 1.346 3 3 3s3-1.346 3-3-1.346-3-3-3zm-9 5c-1.103 0-2-.897-2-2s.897-2 2-2 2 .897 2 2-.897 2-2 2zm9 0c-1.103 0-2-.897-2-2s.897-2 2-2 2 .897 2 2-.897 2-2 2z"/></svg>