<svg height="17" viewBox="0 0 17 17" width="17" xmlns="http://www.w3.org/2000/svg"><path d="m17 11.5v.5h-6.168v-1h5.152c-.112-1.692-.789-3.231-1.842-4.434l-.806.806-.707-.707.802-.802c-1.202-1.053-2.74-1.726-4.431-1.839v2.976h-1v-2.976c-1.691.113-3.229.786-4.43 1.839l.796.796-.707.707-.8-.8c-1.053 1.203-1.731 2.742-1.842 4.434h5.171v1h-6.188v-.5c0-4.687 3.813-8.5 8.5-8.5s8.5 3.813 8.5 8.5zm-6.5 0c0 1.103-.897 2-2 2s-2-.897-2-2c0-.644.311-1.21.784-1.577l-2.082-3.63.867-.497 2.141 3.733c.095-.014.19-.029.29-.029 1.103 0 2 .897 2 2zm-1 0c0-.551-.449-1-1-1s-1 .449-1 1 .449 1 1 1 1-.449 1-1z"/></svg>