<svg height="17" viewBox="0 0 17 17" width="17" xmlns="http://www.w3.org/2000/svg"><path d="m8.5 0c-4.694 0-8.5 3.806-8.5 8.5s3.806 8.5 8.5 8.5 8.5-3.806 8.5-8.5-3.806-8.5-8.5-8.5zm7.494 8.621c-2.075-.456-3.896-.423-5.469-.092-.251-.627-.536-1.273-.849-1.93 1.681-.648 3.292-1.586 4.548-2.934 1.106 1.308 1.776 2.994 1.776 4.835 0 .041-.006.08-.006.121zm-2.471-5.674c-1.16 1.257-2.688 2.135-4.297 2.74-.76-1.468-1.69-2.96-2.814-4.385.664-.193 1.363-.302 2.088-.302 1.934 0 3.692.742 5.023 1.947zm-8.093-1.282c1.133 1.397 2.062 2.884 2.828 4.353-2.974.92-5.966 1.028-7.114 1.03.474-2.407 2.104-4.4 4.286-5.383zm-4.43 6.835c0-.151.014-.3.022-.449.065.001.134.001.212.001 1.306 0 4.402-.125 7.482-1.114.3.625.578 1.245.82 1.844-3.605 1.101-5.736 3.705-6.513 4.826-1.251-1.34-2.023-3.133-2.023-5.108zm2.758 5.804c.596-.901 2.601-3.518 6.145-4.57.961 2.598 1.405 4.744 1.566 5.651-.911.394-1.914.615-2.969.615-1.798 0-3.449-.637-4.742-1.696zm8.642.59c-.198-1.063-.636-3.042-1.503-5.405 1.444-.28 3.109-.288 5.008.145-.341 2.226-1.658 4.129-3.505 5.26z"/></svg>