<svg height="17" viewBox="0 0 17 17" width="17" xmlns="http://www.w3.org/2000/svg"><path d="m16.853 4.371-5.296-3.454-3.057 2.538-3.046-2.538-5.307 3.454 3.1 2.476-3.099 2.482 3.444 2.243v1.533l4.917 2.939 4.926-2.938v-1.548l3.417-2.23-3.098-2.481zm-5.226-2.214 3.52 2.296-2.232 1.782-3.56-2.19zm.373 4.69-3.5 2.159-3.5-2.159 3.5-2.154zm-10.147-2.394 3.527-2.296 2.265 1.887-3.561 2.191zm-.001 4.792 2.232-1.789 3.562 2.198-2.266 1.89zm10.583 3.293-3.925 2.343-3.917-2.342v-.315l.862.561 3.047-2.54 3.056 2.54.878-.573v.326zm2.713-3.292-3.521 2.298-2.273-1.89 3.561-2.198z"/></svg>