<svg height="17" viewBox="0 0 17 17" width="17" xmlns="http://www.w3.org/2000/svg"><path d="m16.965 8.817c-1.284-3.267-4.687-5.463-8.465-5.463s-7.181 2.196-8.465 5.463c-.046.117-.046.248 0 .365 1.285 3.268 4.687 5.464 8.465 5.464s7.18-2.195 8.465-5.463c.047-.118.047-.248 0-.366zm-8.465 4.829c-3.298 0-6.269-1.859-7.459-4.646 1.189-2.787 4.16-4.646 7.459-4.646s6.27 1.859 7.459 4.646c-1.19 2.786-4.161 4.646-7.459 4.646zm0-8.289c-2.009 0-3.643 1.634-3.643 3.643s1.634 3.643 3.644 3.643c2.008 0 3.643-1.634 3.643-3.643s-1.635-3.643-3.644-3.643zm0 6.286c-1.458 0-2.644-1.186-2.644-2.643s1.187-2.643 2.644-2.643 2.643 1.186 2.643 2.643-1.185 2.643-2.643 2.643zm0-4c-.748 0-1.357.609-1.357 1.357s.609 1.357 1.357 1.357 1.357-.609 1.357-1.357-.609-1.357-1.357-1.357zm0 1.714c-.197 0-.357-.16-.357-.357s.16-.357.357-.357.357.16.357.357-.16.357-.357.357z"/></svg>