<svg height="17" viewBox="0 0 17 17" width="17" xmlns="http://www.w3.org/2000/svg"><path d="m8.5 0c-4.687 0-8.5 3.813-8.5 8.5s3.813 8.5 8.5 8.5 8.5-3.813 8.5-8.5-3.813-8.5-8.5-8.5zm0 16c-4.136 0-7.5-3.364-7.5-7.5s3.364-7.5 7.5-7.5 7.5 3.364 7.5 7.5-3.364 7.5-7.5 7.5zm4.5-3c0 .276-.224.5-.5.5s-.5-.224-.5-.5c0-1.93-1.57-3.5-3.5-3.5s-3.5 1.57-3.5 3.5c0 .276-.224.5-.5.5s-.5-.224-.5-.5c0-2.481 2.019-4.5 4.5-4.5s4.5 2.019 4.5 4.5zm-8.5-7.5c0-.552.448-1 1-1s1 .448 1 1-.448 1-1 1-1-.448-1-1zm6 0c0-.552.448-1 1-1s1 .448 1 1-.448 1-1 1-1-.448-1-1z"/></svg>