<svg height="17" viewBox="0 0 17 17" width="17" xmlns="http://www.w3.org/2000/svg"><path d="m9 3.988v-2.988h-1v2.988c-3.564.105-8 1.282-8 2.487v7.041c0 .827.673 1.5 1.5 1.5h1.79l1.996-3.931c.567.104 1.713.274 3.173.274 1.479 0 2.694-.174 3.288-.277l1.908 3.934h1.845c.827 0 1.5-.673 1.5-1.5v-7.041c0-1.205-4.437-2.383-8-2.487zm7 9.528c0 .275-.225.5-.5.5h-1.218l-1.976-4.07-.386.085c-.015.003-1.515.329-3.462.329-1.941 0-3.315-.323-3.329-.327l-.384-.093-2.068 4.075h-1.177c-.275 0-.5-.225-.5-.5v-6.915c.502-.437 3.38-1.518 7-1.611v.011h1v-.013c3.619.094 6.498 1.175 7 1.612zm-11-6.496h.998v1h-.998v1.02h-1v-1.02h-1v-1h1v-1.02h1zm7.5 2c.827 0 1.5-.673 1.5-1.5s-.673-1.5-1.5-1.5-1.5.672-1.5 1.5.673 1.5 1.5 1.5zm0-2c.275 0 .5.225.5.5s-.225.5-.5.5-.5-.225-.5-.5.225-.5.5-.5z"/></svg>