<svg height="17" viewBox="0 0 17 17" width="17" xmlns="http://www.w3.org/2000/svg"><path d="m7.839 5.611-.034.198.673-.086c.004 0 .021-.003.031-.004l.637.081-.031-.181c1.09-.202 3.308-.725 4.575-1.81.494-.422.766-.99.766-1.6s-.272-1.178-.766-1.601c-.942-.808-2.561-.807-3.503 0-.814.697-1.359 1.726-1.711 2.628-.352-.9-.897-1.926-1.711-2.621-.941-.806-2.558-.805-3.499 0-.494.422-.766.989-.766 1.597s.272 1.174.766 1.595c1.267 1.082 3.485 1.603 4.573 1.804zm2.998-4.243c.291-.249.681-.386 1.101-.386.419 0 .811.137 1.101.386.269.229.416.528.416.841 0 .312-.147.61-.416.84-1.032.883-2.929 1.355-3.966 1.558.245-.888.783-2.399 1.764-3.239zm-6.922.007c.291-.248.681-.385 1.101-.385.419 0 .81.137 1.1.385.976.833 1.514 2.337 1.76 3.223-1.036-.201-2.928-.67-3.961-1.552-.268-.228-.415-.524-.415-.834 0-.311.147-.608.415-.837zm13.085 4.625h-17v4h1v7h15v-7h1zm-10.024 1h3.006l1.066 5.843-1.648-.685-1.301 1.205zm-5.976 0h4.96l.353 2h-5.313zm14 9h-13v-6h4.49l.942 5.343 2.176-2.015 2.752 1.145-.815-4.473h3.455zm1-7h-4.638l-.365-2h5.003z"/></svg>