<svg height="17" viewBox="0 0 17 17" width="17" xmlns="http://www.w3.org/2000/svg"><path d="m17 2.615v1.308h-2.615v2.616h-1.308v-2.616h-2.615v-1.308h2.615v-2.615h1.308v2.615zm-6.61 10.165c0 1.175-.561 2.125-1.43 2.881-1.175 1.012-2.779 1.339-4.291 1.339-1.91 0-4.669-.817-4.669-3.187 0-.48.164-.951.379-1.38.908-1.838 3.748-2.309 5.577-2.36-.336-.439-.653-.949-.653-1.522 0-.337.121-.562.225-.878-.246.03-.48.051-.715.051-1.982 0-3.698-1.461-3.698-3.515 0-1.941 1.501-3.596 3.36-4.004.624-.134 1.266-.205 1.91-.205h4.466l-1.379.807h-1.381c1.013.633 1.523 1.87 1.523 3.014 0 2.707-2.289 2.911-2.289 4.26 0 1.318 3.065 1.839 3.065 4.699zm-2.665-7.927c0-1.553-.839-4.117-2.729-4.117-1.337 0-1.991 1.185-1.991 2.391 0 1.552 1.021 3.984 2.84 3.984 1.398-.001 1.88-1.012 1.88-2.258zm1.225 8.806c0-1.43-1.34-2.227-2.381-2.953-.174-.02-.338-.02-.512-.02-1.674 0-4.168.531-4.168 2.656 0 1.961 2.207 2.718 3.842 2.718 1.522 0 3.219-.613 3.219-2.401z"/></svg>