<svg height="17" viewBox="0 0 17 17" width="17" xmlns="http://www.w3.org/2000/svg"><path d="m15.242 5.42-1.188 8.064c-.118.612-.389.88-.586 1.076-.191.19-.318.316-.318.933v1.007c0 .276-.224.5-.5.5s-.5-.224-.5-.5v-1.007c0-.955.278-1.309.614-1.642.155-.154.248-.247.304-.534l1.185-8.039c.018-.123.051-.54-.273-.585-.112-.016-.203.002-.275.057-.096.071-.164.209-.188.378l-.497 3.316c-.025.171-.138.316-.296.385s-.341.05-.484-.049c-.05.008-.134-.023-.218-.078-.152-.097-.239-.268-.229-.448l.285-5.286c.023-.278-.17-.509-.432-.532-.127-.012-.249.028-.346.109-.098.082-.156.196-.167.321l-.463 4.782c-.026.269-.239.464-.531.451-.081-.005-.163-.01-.246-.011-.269-.006-.485-.223-.49-.491l-.115-6.119c0-.268-.21-.478-.468-.478s-.468.21-.468.468l-.118 6.586c-.004.19-.114.362-.286.443-.062.03-.122.06-.179.092-.147.084-.326.087-.476.008-.15-.078-.251-.227-.268-.395l-.515-5.329c-.011-.131-.07-.245-.166-.326-.097-.081-.228-.118-.345-.109-.126.011-.239.07-.32.167-.08.096-.119.218-.108.343l.503 7.097c.016.218-.113.422-.317.501-.206.08-.438.017-.573-.155l-1.551-1.953c-.203-.34-.562-.435-.84-.274-.136.079-.233.205-.273.356-.04.15-.02.308.06.443l3.529 6.087c.08.139.211.236.367.274.224.054.382.255.382.486v.69c0 .276-.224.5-.5.5s-.5-.224-.5-.5v-.35c-.254-.137-.465-.341-.614-.598l-3.53-6.087c-.213-.366-.27-.793-.16-1.202.108-.41.371-.752.739-.965.758-.437 1.728-.177 2.164.579l.506.634-.389-5.483c-.034-.382.086-.764.338-1.066.252-.3.608-.485.999-.52.397-.036.775.087 1.077.34.146.123.263.269.35.431l.014-.753c0-.802.659-1.46 1.468-1.46s1.468.659 1.468 1.469l.014.746c.088-.163.206-.31.353-.434.303-.254.688-.376 1.078-.34.811.071 1.412.788 1.341 1.598l-.053.978c.026-.023.054-.045.081-.066.288-.216.637-.3 1.018-.248.785.109 1.248.816 1.122 1.717z"/></svg>