<svg height="17" viewBox="0 0 17 17" width="17" xmlns="http://www.w3.org/2000/svg"><path d="m14.5 8.236v3.186c0 .67-.322 1.555-.606 2.335-.185.507-.394 1.082-.394 1.31v.855c0 .276-.224.5-.5.5s-.5-.224-.5-.5v-.855c0-.404.201-.955.454-1.652.256-.702.546-1.498.546-1.992v-3.187c0-.29-.236-.535-.516-.535-.292 0-.454.262-.463.52-.009.272-.209.507-.508.482-.272-.005-.491-.228-.491-.5v-1.562c0-.296-.227-.537-.505-.537-.264 0-.484.22-.502.5-.017.27-.228.485-.515.468-.27-.009-.484-.23-.484-.5v-1.267c0-.295-.224-.535-.5-.535-.259 0-.487.202-.521.461-.034.26-.262.461-.528.434-.263-.017-.468-.235-.468-.499v-3.631c0-.295-.227-.535-.505-.535s-.505.24-.505.535v6.18c0 .206-.126.391-.318.466-.191.075-.41.024-.55-.127l-1.114-1.211c-.459-.462-.607-.374-.748-.287-.246.146-.331.484-.188.74l3.288 7.098c.053.091.165.178.297.211.223.057.378.256.378.485v.832c0 .276-.224.5-.5.5s-.5-.224-.5-.5v-.499c-.233-.134-.427-.33-.565-.574l-3.287-7.098c-.393-.694-.147-1.631.565-2.054.96-.575 1.703.173 1.982.454l.26.282v-4.898c0-.847.676-1.535 1.505-1.535s1.505.688 1.505 1.535v2.325c.162-.058.336-.09.517-.09.791 0 1.44.629 1.496 1.424.158-.059.328-.09.505-.09.83 0 1.505.689 1.505 1.537v.136c.145-.049.3-.075.463-.075.835-.001 1.515.688 1.515 1.534z"/></svg>