<svg height="17" viewBox="0 0 17 17" width="17" xmlns="http://www.w3.org/2000/svg"><path d="m13.753 11.303c-.956.577-1.702-.173-1.982-.454l-.26-.282v4.898c0 .847-.675 1.535-1.505 1.535s-1.505-.688-1.505-1.535v-2.325c-.162.059-.336.091-.517.091-.79 0-1.44-.629-1.496-1.424-.158.059-.328.09-.505.09-.83 0-1.505-.689-1.505-1.537v-.136c-.145.049-.3.075-.463.075-.835 0-1.515-.689-1.515-1.535v-3.186c0-.67.322-1.555.606-2.335.185-.507.394-1.082.394-1.309v-.856c0-.276.224-.5.5-.5s.5.224.5.5v.855c0 .404-.2.955-.454 1.652-.256.703-.546 1.499-.546 1.993v3.186c0 .29.236.535.516.535.292 0 .454-.262.463-.52.01-.27.231-.482.5-.482h.009c.272.005.491.228.491.5v1.562c0 .296.227.537.505.537.264 0 .484-.22.502-.5.016-.269.235-.47.514-.468.27.009.484.23.484.5v1.268c0 .295.225.535.5.535.259 0 .487-.202.521-.461.034-.261.267-.464.528-.435.263.017.468.235.468.499v3.631c0 .295.227.535.505.535s.505-.24.505-.535v-6.18c0-.206.126-.391.318-.466.189-.075.409-.024.55.127l1.114 1.211c.459.462.607.373.748.287.246-.146.331-.484.188-.74l-3.288-7.098c-.053-.091-.164-.178-.297-.211-.222-.056-.378-.255-.378-.485v-.832c0-.276.224-.5.5-.5s.5.224.5.5v.499c.233.134.428.33.564.574l3.288 7.098c.393.694.148 1.631-.565 2.054z"/></svg>