<svg height="17" viewBox="0 0 17 17" width="17" xmlns="http://www.w3.org/2000/svg"><path d="m16.922 7.494c0 .829-.688 1.504-1.535 1.504h-2.325c.059.162.091.337.091.518 0 .791-.629 1.44-1.424 1.496.058.158.089.327.089.504 0 .83-.689 1.506-1.536 1.506h-.136c.049.145.075.3.075.463 0 .835-.69 1.515-1.536 1.515h-3.185c-.67 0-1.555-.322-2.336-.606-.507-.185-1.081-.394-1.309-.394h-.855c-.276 0-.5-.224-.5-.5s.224-.5.5-.5h.855c.403 0 .954.2 1.65.454.704.256 1.501.546 1.995.546h3.185c.291 0 .536-.236.536-.516 0-.292-.262-.454-.52-.463-.272-.01-.487-.236-.482-.509s.228-.491.5-.491h1.562c.296 0 .536-.227.536-.506 0-.264-.219-.483-.498-.501-.271-.017-.478-.244-.47-.515.009-.27.229-.484.5-.484h1.268c.295 0 .535-.225.535-.5 0-.259-.203-.488-.462-.521-.261-.034-.451-.266-.434-.528.018-.264.235-.468.499-.468h3.631c.295 0 .535-.226.535-.504 0-.279-.24-.506-.535-.506h-6.18c-.206 0-.391-.126-.466-.318s-.023-.41.128-.55l1.211-1.113c.46-.459.372-.605.287-.748-.148-.249-.48-.335-.742-.188l-7.097 3.287c-.089.052-.176.164-.211.297-.055.223-.254.378-.484.378h-.832c-.276 0-.5-.224-.5-.5s.224-.5.5-.5h.499c.134-.233.329-.428.573-.564l7.098-3.288c.693-.39 1.632-.146 2.055.565.574.957-.173 1.702-.453 1.982l-.282.26h4.897c.846 0 1.535.676 1.535 1.506z"/></svg>