<svg height="17" viewBox="0 0 17 17" width="17" xmlns="http://www.w3.org/2000/svg"><path d="m13.963 5.6v5.844c0 .777-.383 1.241-.663 1.579-.234.284-.356.443-.356.694v1.783c0 .276-.224.5-.5.5s-.5-.224-.5-.5v-1.783c0-.623.325-1.016.586-1.331.242-.293.434-.524.434-.941v-5.845c0-.312-.268-.606-.551-.606-.329 0-.399.051-.402.053-.066.089-.064.569-.063.956.001.189.002.4-.002.632-.004.274-.213.478-.504.493-.274-.002-.496-.225-.496-.5v-2.12c0-.307-.222-.538-.516-.538-.27 0-.468.201-.492.488v2.003c0 .276-.224.5-.5.5s-.5-.224-.5-.5v-2.011c0-.003-.002-.006-.002-.01v-.773c0-.066-.014-.642-.474-.642-.45 0-.518.402-.518.642v.703c0 .028-.011.054-.016.081v2.594c0 .276-.224.5-.5.5s-.5-.224-.5-.5v-2.684c-.048-.194-.188-.39-.466-.39-.286 0-.527.261-.527.57v3.35c0 .007-.006.013-.006.02v1.101c0 .276-.224.5-.5.5s-.5-.224-.5-.5v-.834c-.176-.064-.431-.116-.577-.083-.118.023-.237.127-.311.271-.059.113-.138.347-.009.637l1.698 3.717c.016.035.027.071.035.108.056.275.312.456.588.431.139-.018.281.03.387.125.105.095.166.23.166.372v1.744c0 .276-.224.5-.5.5s-.5-.224-.5-.5v-1.286c-.536-.139-.969-.561-1.107-1.125l-1.679-3.675c-.22-.496-.207-1.043.032-1.507.214-.413.588-.709 1.001-.793.21-.043.494-.031.775.026v-.72c0-.01.005-.019.006-.029v-1.85c0-.866.686-1.57 1.527-1.57.2 0 .392.04.566.112.199-.644.733-1.057 1.433-1.057.668 0 1.192.422 1.389 1.061.178-.075.373-.116.579-.116.689 0 1.258.444 1.447 1.072.183-.04.369-.049.536-.049.842 0 1.552.735 1.552 1.606z"/></svg>