<svg height="17" viewBox="0 0 17 17" width="17" xmlns="http://www.w3.org/2000/svg"><path d="m14 4.403v7.258c0 .856-.337 1.867-.635 2.758-.179.538-.365 1.093-.365 1.331v.75c0 .276-.224.5-.5.5s-.5-.224-.5-.5v-.75c0-.4.184-.95.417-1.647.259-.78.583-1.749.583-2.442v-7.258c0-.275-.206-.483-.478-.483-.278 0-.512.21-.521.468 0 .003-.002.006-.002.009l.001 3.86c0 .276-.224.5-.5.5s-.5-.224-.5-.5l-.001-4.086c0-.005.003-.009.003-.015v-1.406c0-.232-.14-.483-.446-.483-.274 0-.528.21-.544.45-.001.013-.01.025-.012.039v4.48c0 .276-.224.5-.5.5s-.5-.223-.5-.5v-4.896c0-.022.01-.042.013-.063v-.795c0-.261-.241-.482-.525-.482-.279 0-.497.211-.497.482v.866c.002.015.009.028.009.044v4.896c0 .276-.224.5-.5.5s-.5-.224-.5-.5v-4.592c0-.004-.003-.007-.004-.011-.033-.238-.248-.418-.5-.418-.279 0-.505.217-.505.483v5.705c0 .208-.128.394-.322.467-.191.073-.413.02-.551-.135l-1.117-1.254c-.393-.459-.656-.311-.753-.255-.116.065-.199.171-.232.297-.032.121-.014.248.05.357l3.292 7.009c.046.073.158.155.294.188.225.054.382.255.382.486v.885c0 .276-.224.5-.5.5s-.5-.224-.5-.5v-.546c-.231-.128-.423-.314-.56-.545l-3.291-7.01c-.18-.299-.235-.698-.134-1.081.103-.387.354-.71.706-.91.676-.381 1.422-.206 2 .468l.237.266v-4.392c0-.818.675-1.483 1.505-1.483.174 0 .343.03.5.085.067-.757.71-1.352 1.491-1.352.801 0 1.459.604 1.521 1.367.171-.064.356-.1.548-.1.811 0 1.446.651 1.446 1.483v.262c.163-.059.338-.091.52-.091.828-.001 1.477.65 1.477 1.482z"/></svg>