<svg height="17" viewBox="0 0 17 17" width="17" xmlns="http://www.w3.org/2000/svg"><path d="m16.422 13.5c0 .276-.224.5-.5.5h-.855c-.227 0-.802.209-1.309.394-.781.284-1.666.606-2.336.606h-3.185c-.847 0-1.536-.68-1.536-1.516 0-.163.026-.318.075-.463h-.135c-.847 0-1.536-.676-1.536-1.506 0-.177.031-.346.089-.504-.795-.055-1.424-.704-1.424-1.495 0-.181.032-.355.091-.518h-2.326c-.847 0-1.535-.675-1.535-1.504 0-.83.688-1.506 1.535-1.506h4.897l-.266-.245c-.296-.295-1.043-1.04-.468-1.998.423-.71 1.36-.955 2.088-.547l7.028 3.252c.268.149.471.348.607.583h.5c.276 0 .5.224.5.5s-.224.5-.5.5h-.831c-.229 0-.429-.155-.485-.378-.034-.133-.121-.245-.245-.315l-7.028-3.251c-.294-.164-.627-.08-.775.169-.086.144-.174.29.3.764l1.196 1.098c.152.14.202.357.127.55s-.26.318-.466.318h-6.18c-.294 0-.534.227-.534.506 0 .278.24.504.535.504h3.631c.264 0 .482.204.499.468.017.263-.173.494-.434.528-.259.033-.461.263-.461.522 0 .275.24.5.535.5h1.268c.27 0 .492.215.5.484.008.271-.2.498-.469.515-.28.018-.499.237-.499.501 0 .279.241.506.536.506h1.562c.273 0 .495.219.5.491s-.21.499-.482.509c-.258.009-.52.171-.52.463 0 .279.246.515.536.515h3.185c.494 0 1.291-.29 1.994-.546.696-.254 1.247-.454 1.65-.454h.855c.277 0 .501.224.501.5z"/></svg>