<svg height="17" viewBox="0 0 17 17" width="17" xmlns="http://www.w3.org/2000/svg"><path d="m13.5 12.5c-.827 0-1.5.673-1.5 1.5s.673 1.5 1.5 1.5 1.5-.673 1.5-1.5-.673-1.5-1.5-1.5zm0 2c-.275 0-.5-.225-.5-.5s.225-.5.5-.5.5.225.5.5-.225.5-.5.5zm3.5-11.35-2.923-3.15h-11.151l-2.926 3.087v6.433h.936l-.936 1.172v6.308h17v-6.26l-1.046-1.22h1.046zm-13.645-2.15h10.286l1.854 2h-14.035zm-2.355 15v-4h15v4zm14.906-5h-14.873l1.181-1.48h12.424zm-14.906-2.48v-4.52h15v4.52zm12.5-3.52c-.827 0-1.5.673-1.5 1.5 0 .826.673 1.499 1.5 1.499s1.5-.673 1.5-1.499c0-.827-.673-1.5-1.5-1.5zm0 1.999c-.275 0-.5-.224-.5-.499s.225-.5.5-.5.5.225.5.5-.225.499-.5.499z"/></svg>