<svg height="17" viewBox="0 0 17 17" width="17" xmlns="http://www.w3.org/2000/svg"><path d="m15.981 8.085c-.192-4.493-3.469-8.085-7.481-8.085s-7.289 3.592-7.481 8.085c-.59.201-1.019.756-1.019 1.415v4c0 .827.67 1.5 1.494 1.5h1.506v-1h1v-5h-1v-1h-.978c.225-3.902 3.04-7 6.478-7s6.253 3.098 6.478 7h-.978v1h-1v5h1v1h1.506c.824 0 1.494-.673 1.494-1.5v-4c0-.659-.429-1.214-1.019-1.415zm-13.981 5.915h-.506c-.272 0-.494-.225-.494-.5v-4c0-.275.222-.5.494-.5h.506zm14-.5c0 .275-.222.5-.494.5h-.506v-5h.506c.272 0 .494.225.494.5z"/></svg>