<svg height="17" viewBox="0 0 17 17" width="17" xmlns="http://www.w3.org/2000/svg"><path d="m15.668 6.017c-.957-3.557-3.863-6.017-7.168-6.017-3.295 0-6.212 2.464-7.168 6.017-.747.082-1.332.712-1.332 1.483v4c0 .625.382 1.16.924 1.385.194 1.747 1.663 3.115 3.461 3.115h2.707c.207.581.757 1 1.408 1h3c.827 0 1.5-.673 1.5-1.5s-.673-1.5-1.5-1.5h-3c-.651 0-1.201.419-1.408 1h-2.707c-1.208 0-2.217-.86-2.449-2h1.064v-1h1v-5h-1v-1h-.606c.913-2.961 3.352-5 6.106-5 2.762 0 5.193 2.037 6.106 5h-.606v1h-1v5h1v1h1.506c.824 0 1.494-.673 1.494-1.5v-4c0-.771-.585-1.401-1.332-1.483zm-7.168 8.983h3c.275 0 .5.224.5.5s-.225.5-.5.5h-3c-.275 0-.5-.224-.5-.5s.225-.5.5-.5zm-6.5-3h-.506c-.272 0-.494-.224-.494-.5v-4c0-.276.222-.5.494-.5h.506zm14-.5c0 .276-.222.5-.494.5h-.506v-5h.506c.272 0 .494.224.494.5z"/></svg>