<svg height="17" viewBox="0 0 17 17" width="17" xmlns="http://www.w3.org/2000/svg"><path d="m12.5.658c-1.739 0-3.251.992-4 2.439-.749-1.447-2.261-2.439-4-2.439-2.481 0-4.5 2.019-4.5 4.5 0 .343.048.699.154 1.118l.109.351c1.432 4.354 7.659 9.393 7.924 9.604l.313.252.313-.252c.282-.227 6.926-5.598 7.927-9.614l.112-.368c.101-.402.148-.749.148-1.091 0-2.481-2.019-4.5-4.5-4.5zm3.389 5.322-.113.37c-.809 3.246-5.946 7.727-7.276 8.843-1.282-1.083-6.122-5.337-7.285-8.872l-.1-.316c-.077-.311-.115-.588-.115-.847 0-1.93 1.57-3.5 3.5-3.5s3.5 1.571 3.5 3.5v.252h1v-.252c0-1.93 1.57-3.5 3.5-3.5s3.5 1.57 3.5 3.5c0 .258-.038.527-.111.822z"/></svg>