<svg height="17" viewBox="0 0 17 17" width="17" xmlns="http://www.w3.org/2000/svg"><path d="m.153 6.276c-.105-.419-.153-.775-.153-1.118 0-2.481 2.019-4.5 4.5-4.5 1.739 0 3.251.992 4 2.439.749-1.447 2.261-2.439 4-2.439 2.481 0 4.5 2.019 4.5 4.5 0 .342-.047.688-.147 1.091l-.113.368c-.081.331-.228.721-.453 1.199l-.904-.426c.196-.418.322-.749.395-1.041l.112-.369c.073-.295.11-.564.11-.822 0-1.93-1.57-3.5-3.5-3.5s-3.5 1.571-3.5 3.5h-1c0-1.93-1.57-3.5-3.5-3.5s-3.5 1.571-3.5 3.5c0 .259.038.536.116.847l.1.316c.094.287.235.618.441 1.033l-.896.446c-.228-.46-.386-.833-.498-1.173l-.11-.351zm8.346 8.935c-.806-.633-3.102-2.533-4.976-5.013l-.797.604c2.394 3.167 5.354 5.352 5.478 5.443l.298.218.296-.22c.129-.095 3.187-2.374 5.536-5.438l-.793-.609c-1.848 2.409-4.219 4.366-5.042 5.015zm5.673-7.796-2.832 2-2.832-2-2.833 2-2.837-1.999-3.126 2.202.576.818 2.55-1.798 2.837 2.001 2.833-2 2.832 2 2.832-2 2.539 1.796.578-.816-3.117-2.204z"/></svg>