<svg height="17" viewBox="0 0 17 17" width="17" xmlns="http://www.w3.org/2000/svg"><path d="m8.5 0c-4.687 0-8.5 3.813-8.5 8.5s3.813 8.5 8.5 8.5 8.5-3.813 8.5-8.5-3.813-8.5-8.5-8.5zm0 16c-4.136 0-7.5-3.364-7.5-7.5s3.364-7.5 7.5-7.5 7.5 3.364 7.5 7.5-3.364 7.5-7.5 7.5zm1.158-3.781c0 .568-.462 1.031-1.031 1.031-.571 0-1.033-.463-1.033-1.031 0-.57.462-1.032 1.033-1.032.569 0 1.031.461 1.031 1.032zm1.004-8.004c.448.565.674 1.328.55 1.855-.243 1.027-.842 1.567-1.371 2.043-.543.489-.934.84-.934 1.647h-1c0-1.251.671-1.856 1.264-2.39.461-.415.896-.807 1.066-1.529.034-.143-.039-.6-.36-1.005-.307-.389-.728-.586-1.248-.586-1.779 0-1.869 1.444-1.873 1.609l-1-.027c.024-.893.655-2.582 2.873-2.582.818 0 1.539.343 2.033.965z"/></svg>