<svg height="17" viewBox="0 0 17 17" width="17" xmlns="http://www.w3.org/2000/svg"><path d="m10.311 14.831c0 .898-.73 1.628-1.629 1.628-.902 0-1.631-.73-1.631-1.628 0-.9.729-1.63 1.631-1.63.898 0 1.629.73 1.629 1.63zm1.357-12.458c-.512-.645-1.444-1.414-2.983-1.414-4.098 0-4.245 3.758-4.246 3.796l1 .026c.003-.115.11-2.822 3.246-2.822 1.14 0 1.825.563 2.199 1.035.555.7.7 1.508.624 1.833-.291 1.229-1.011 1.877-1.773 2.563-.935.841-1.9 1.71-1.9 3.558h1c0-1.402.692-2.026 1.569-2.815.804-.724 1.715-1.544 2.077-3.078.149-.634-.083-1.76-.813-2.682z"/></svg>