<svg height="17" viewBox="0 0 17 17" width="17" xmlns="http://www.w3.org/2000/svg"><path d="m17 8c0 2.206-1.794 4-4 4-1.197 0-2.31-.532-3.074-1.452l-.002.001-.014-.018c-.011-.014-.026-.023-.038-.038l.004-.003-3.634-4.482c-.569-.64-1.386-1.008-2.242-1.008-1.654 0-3 1.346-3 3s1.346 3 3 3c.915 0 1.769-.41 2.342-1.125l.009.007.817-1.012.778.628-.823 1.019-.01-.008c-.763.947-1.897 1.491-3.113 1.491-2.206 0-4-1.794-4-4s1.794-4 4-4c1.12 0 2.186.477 2.943 1.301l.008-.006.042.052 3.698 4.56c.573.693 1.409 1.093 2.309 1.093 1.654 0 3-1.346 3-3s-1.346-3-3-3c-.846 0-1.65.362-2.22.989l-.948 1.175-.778-.628.948-1.175-.004-.003c.76-.863 1.855-1.358 3.002-1.358 2.206 0 4 1.794 4 4z"/></svg>