<svg height="17" viewBox="0 0 17 17" width="17" xmlns="http://www.w3.org/2000/svg"><path d="m13 0h-9c-2.2 0-4 1.8-4 4v9c0 2.2 1.8 4 4 4h9c2.2 0 4-1.8 4-4v-9c0-2.2-1.8-4-4-4zm3 13c0 1.654-1.346 3-3 3h-9c-1.654 0-3-1.346-3-3v-6h3.207c-.286.61-.457 1.283-.457 2 0 2.619 2.131 4.75 4.75 4.75s4.75-2.131 4.75-4.75c0-.717-.171-1.39-.457-2h3.207zm-3.75-4c0 2.068-1.682 3.75-3.75 3.75s-3.75-1.682-3.75-3.75 1.682-3.75 3.75-3.75 3.75 1.682 3.75 3.75zm-.098-3c-.872-1.059-2.176-1.75-3.652-1.75s-2.78.691-3.652 1.75h-3.848v-2c0-1.654 1.346-3 3-3h9c1.654 0 3 1.346 3 3v2zm2.302-3.278v1.298c0 .299-.244.543-.542.543h-1.368c-.3-.001-.544-.245-.544-.543v-1.298c0-.299.244-.543.544-.543h1.368c.298 0 .542.244.542.543z"/></svg>