<svg height="17" viewBox="0 0 17 17" width="17" xmlns="http://www.w3.org/2000/svg"><path d="m9.979 12.011-1.573 1.583-.312.312c-.917.906-2.198 1.219-3.364.927-.22.959-1.074 1.667-2.094 1.667-1.177 0-2.136-.959-2.136-2.146 0-1.009.698-1.864 1.646-2.082-.302-1.178.01-2.47.927-3.386l.125-.125 1.573 1.584-.114.114c-.521.51-.51 1.343 0 1.863.51.511 1.344.511 1.854 0l.313-.312 1.573-1.584 1.677-1.666 1.573 1.584zm-1.76-8.646-1.583 1.582-.126-.125c-.51-.51-1.344-.51-1.854 0-.51.511-.51 1.355 0 1.865l3.552 3.552-1.572 1.583-1.677-1.667-1.573-1.582-.313-.312c-.959-.948-1.25-2.313-.886-3.532-.958-.208-1.666-1.062-1.666-2.083 0-1.188.959-2.146 2.136-2.146 1.073 0 1.948.781 2.114 1.792 1.156-.271 2.417.053 3.323.947zm6.406 1.406c.344 1.197.041 2.541-.906 3.489l-.125.125-1.573-1.584.125-.124c.51-.511.51-1.345 0-1.855s-1.344-.51-1.854 0l-3.563 3.564-1.583-1.584 1.677-1.667 1.583-1.582.302-.313c.948-.947 2.302-1.25 3.511-.895.145-1.043 1.041-1.845 2.125-1.845 1.177 0 2.136.959 2.136 2.146-.001 1.083-.813 1.979-1.855 2.125zm-.261 11.729c-1.041 0-1.906-.739-2.104-1.719-1.208.374-2.594.084-3.552-.875l-.114-.125 1.573-1.583.125.124c.51.511 1.344.511 1.854 0 .51-.51.51-1.343 0-1.854l-.312-.313-3.251-3.249 1.583-1.584 3.25 3.251.303.312c.906.906 1.229 2.188.937 3.354 1.042.146 1.844 1.032 1.844 2.114 0 1.188-.958 2.147-2.136 2.147z"/></svg>