<svg height="17" viewBox="0 0 17 17" width="17" xmlns="http://www.w3.org/2000/svg"><path d="m1 4h3v-3h-3zm1-2h1v1h-1zm3 2h3v-3h-3zm1-2h1v1h-1zm3 2h3v-3h-3zm1-2h1v1h-1zm3-1v3h3v-3zm2 2h-1v-1h1zm-14 5h3v-3h-3zm1-2h1v1h-1zm3 2h3v-3h-3zm1-2h1v1h-1zm3 2h3v-3h-3zm1-2h1v1h-1zm3 2h3v-3h-3zm1-2h1v1h-1zm-13 6h3v-3h-3zm1-2h1v1h-1zm3 2h3v-3h-3zm1-2h1v1h-1zm3 2h3v-3h-3zm1-2h1v1h-1zm3 2h3v-3h-3zm1-2h1v1h-1zm-13 6h3v-3h-3zm1-2h1v1h-1zm3 2h3v-3h-3zm1-2h1v1h-1zm3 2h3v-3h-3zm1-2h1v1h-1zm3 2h3v-3h-3zm1-2h1v1h-1z"/></svg>