<svg height="17" viewBox="0 0 17 17" width="17" xmlns="http://www.w3.org/2000/svg"><path d="m17 0v17h-5v-17zm-8 17h1v-1h-1zm-1.777 0h.889v-1h-.889zm-5.334 0h.889v-1h-.889zm1.778 0h.889v-1h-.889zm1.778 0h.889v-1h-.889zm-5.445 0h1v-1h-1zm0-8h1v-1h-1zm0-6h1v-1h-1zm0 8h1v-1h-1zm0-4h1v-1h-1zm0 6h1v-1h-1zm0 2h1v-1h-1zm0-10h1v-1h-1zm0-4h1v-1h-1zm8.111-1h-.889v1h.889zm-1.778 0h-.889v1h.889zm-3.556 0h-.888v1h.889v-1zm1.778 0h-.888v1h.889v-1zm4.445 1h1v-1h-1zm0 14h1v-1h-1zm0-2h1v-1h-1zm0-4h1v-1h-1zm0 2h1v-1h-1zm0-6h1v-1h-1zm0 2h1v-1h-1zm0-4h1v-1h-1z"/></svg>