<svg height="17" viewBox="0 0 17 17" width="17" xmlns="http://www.w3.org/2000/svg"><path d="m17 0v17h-4v-17zm-17 17h3v-17h-3zm11 0h1v-1h-1zm-3.429 0h.857v-1h-.857zm1.715 0h.857v-1h-.857zm-3.429 0h.857v-1h-.857zm-1.857 0h1v-1h-1zm0-14h1v-1h-1zm0 10h1v-1h-1zm0 2h1v-1h-1zm0-4h1v-1h-1zm0-4h1v-1h-1zm0-2h1v-1h-1zm0 4h1v-1h-1zm0-8h1v-1h-1zm1.857 0h.857v-1h-.857zm3.429 0h.857v-1h-.857zm-1.715 0h.857v-1h-.857zm3.429 0h1v-1h-1zm0 4h1v-1h-1zm0-2h1v-1h-1zm0 4h1v-1h-1zm0 2h1v-1h-1zm0 6h1v-1h-1zm0-2h1v-1h-1zm0-2h1v-1h-1z"/></svg>