<svg height="17" viewBox="0 0 17 17" width="17" xmlns="http://www.w3.org/2000/svg"><path d="m0 16h1v1h-1zm14 1h1v-1h-1zm-2 0h1v-1h-1zm-2 0h1v-1h-1zm-2 0h1v-1h-1zm-2 0h1v-1h-1zm-4 0h1v-1h-1zm2 0h1v-1h-1zm12 0h1v-1h-1zm0-6h1v-1h-1zm0 2h1v-1h-1zm0-8h1v-1h-1zm0 4h1v-1h-1zm0-2h1v-1h-1zm0-4h1v-1h-1zm0 12h1v-1h-1zm0-15v1h1v-1zm-12 1h1v-1h-1zm-2 0h1v-1h-1zm10 0h1v-1h-1zm-2 0h1v-1h-1zm-4 0h1v-1h-1zm8 0h1v-1h-1zm-6 0h1v-1h-1zm-8 0h1v-1h-1zm0 12h1v-1h-1zm0 2h1v-1h-1zm0-4h1v-1h-1zm0-6h1v-1h-1zm0 4h1v-1h-1zm0-6h1v-1h-1zm0 4h1v-1h-1z"/></svg>