<svg height="17" viewBox="0 0 17 17" width="17" xmlns="http://www.w3.org/2000/svg"><path d="m0 0h5v17h-5zm7 17h1v-1h-1zm7.222 0h.889v-1h-.889zm-1.778 0h.889v-1h-.889zm-3.555 0h.889v-1h-.889zm1.778 0h.889v-1h-.889zm5.333 0h1v-1h-1zm0-14h1v-1h-1zm0 12h1v-1h-1zm0-8h1v-1h-1zm0-2h1v-1h-1zm0 4h1v-1h-1zm0 2h1v-1h-1zm0 2h1v-1h-1zm0-13v1h1v-1zm-1.777 1h.889v-1h-.889zm-1.778 0h.889v-1h-.889zm-1.778 0h.889v-1h-.889zm-1.778 0h.889v-1h-.889zm-1.889 0h1v-1h-1zm0 14h1v-1h-1zm0-2h1v-1h-1zm0-6h1v-1h-1zm0 4h1v-1h-1zm0-6h1v-1h-1zm0-2h1v-1h-1zm0 6h1v-1h-1z"/></svg>