<svg height="17" viewBox="0 0 17 17" width="17" xmlns="http://www.w3.org/2000/svg"><path d="m8.5 0c-3.032 0-5.5 2.617-5.5 5.833 0 2.354.964 3.67 1.814 4.831.637.868 1.186 1.618 1.186 2.673v2.096c0 .864.673 1.567 1.5 1.567h2c.827 0 1.5-.703 1.5-1.567v-2.126c0-1.045.517-1.735 1.17-2.609.815-1.091 1.83-2.447 1.83-4.865 0-3.216-2.468-5.833-5.5-5.833zm1 16h-2c-.275 0-.5-.254-.5-.567v-1.633h3v1.633c0 .313-.225.567-.5.567zm1.869-5.901c-.587.785-1.19 1.593-1.336 2.701h-3.072c-.152-1.102-.754-1.927-1.34-2.727-.797-1.088-1.621-2.213-1.621-4.24 0-2.665 2.019-4.833 4.5-4.833s4.5 2.168 4.5 4.833c0 2.085-.829 3.194-1.631 4.266z"/></svg>