<svg height="17" viewBox="0 0 17 17" width="17" xmlns="http://www.w3.org/2000/svg"><path d="m12.983 6.94-.938.938-.707-.707.938-.938c.975-.975.975-2.561 0-3.535s-2.561-.975-3.535 0l-2.987 2.988c-.975.975-.975 2.561 0 3.535s2.561.975 3.535 0l.707.707c-.683.683-1.578 1.023-2.475 1.023s-1.792-.341-2.474-1.023c-1.364-1.364-1.364-3.585 0-4.949l2.987-2.987c1.365-1.365 3.584-1.365 4.949 0 1.365 1.363 1.365 3.584 0 4.948zm-6.941 1.094-.13.129.705.709.131-.13c.975-.975 2.561-.975 3.535 0s.975 2.561 0 3.535l-3.023 3.025c-.975.975-2.561.975-3.535 0s-.975-2.561 0-3.535l1.058-1.059-.707-.707-1.058 1.059c-1.364 1.364-1.364 3.585 0 4.949.683.683 1.578 1.023 2.475 1.023s1.792-.341 2.475-1.023l3.023-3.024c1.364-1.364 1.364-3.585 0-4.949-1.366-1.367-3.586-1.364-4.949-.002z"/></svg>