<svg height="17" viewBox="0 0 17 17" width="17" xmlns="http://www.w3.org/2000/svg"><path d="m.698 5.823h3.438v10.323h-3.438zm1.74-4.969c-1.167 0-1.938.771-1.938 1.782 0 .989.74 1.781 1.896 1.781h.021c1.198 0 1.948-.792 1.938-1.781-.011-1.011-.74-1.782-1.917-1.782zm10.114 4.729c-1.829 0-2.643 1.002-3.094 1.709v-1.469h-3.427s.042.969 0 10.323h3.427v-5.761c0-.312.032-.615.114-.843.251-.615.812-1.25 1.762-1.25 1.238 0 1.738.948 1.738 2.333v5.521h3.428v-5.917c0-3.167-1.688-4.646-3.948-4.646z"/></svg>