<svg height="17" viewBox="0 0 17 17" width="17" xmlns="http://www.w3.org/2000/svg"><path d="m17 4v1h-12v-1zm-12 5h12v-1h-12zm0 4h12v-1h-12zm-2.917-9.52h.009v2.383h.356v-2.727h-.314l-.596.319.071.281zm-.444 6.092.219-.201c.574-.554.939-.961.939-1.465 0-.39-.248-.793-.836-.793-.314 0-.582.117-.771.277l.117.26c.127-.105.332-.231.58-.231.406 0 .541.256.541.533-.004.411-.32.764-1.016 1.427l-.289.281v.227h1.74v-.307h-1.224zm.597 2.819v-.009c.336-.121.504-.36.504-.642 0-.331-.243-.65-.78-.65-.294 0-.571.104-.714.21l.097.269c.117-.084.327-.181.546-.181.34 0 .478.193.478.411 0 .323-.34.462-.608.462h-.206v.276h.205c.357 0 .701.164.705.546.005.227-.143.528-.616.528-.257 0-.5-.104-.604-.172l-.101.285c.134.089.402.186.709.186.654 0 .994-.382.994-.818 0-.382-.273-.634-.609-.701z"/></svg>