<svg height="17" viewBox="0 0 17 17" width="17" xmlns="http://www.w3.org/2000/svg"><path d="m17 4v1h-12v-1zm-14 .5c0 .827-.673 1.5-1.5 1.5s-1.5-.673-1.5-1.5.673-1.5 1.5-1.5 1.5.673 1.5 1.5zm-1 0c0-.275-.224-.5-.5-.5s-.5.225-.5.5.224.5.5.5.5-.225.5-.5zm3 4.5h12v-1h-12zm-2-.5c0 .827-.673 1.5-1.5 1.5s-1.5-.673-1.5-1.5.673-1.5 1.5-1.5 1.5.673 1.5 1.5zm-1 0c0-.275-.224-.5-.5-.5s-.5.225-.5.5.224.5.5.5.5-.225.5-.5zm3 4.5h12v-1h-12zm-2-.5c0 .827-.673 1.5-1.5 1.5s-1.5-.673-1.5-1.5.673-1.5 1.5-1.5 1.5.673 1.5 1.5zm-1 0c0-.275-.224-.5-.5-.5s-.5.225-.5.5.224.5.5.5.5-.225.5-.5z"/></svg>