<svg height="17" viewBox="0 0 17 17" width="17" xmlns="http://www.w3.org/2000/svg"><path d="m9.5 10.972c0 .366-.207.672-.5.846v2.154h-1v-2.153c-.294-.174-.5-.48-.5-.847 0-.552.447-1 1-1 .551 0 1 .447 1 1zm5.465-2.512v7.08c0 .827-.673 1.5-1.5 1.5h-9.989c-.827 0-1.5-.673-1.5-1.5v-7.08c0-.827.673-1.5 1.5-1.5h.024v-1.988c0-2.757 2.243-5 5-5s5 2.243 5 5v1.992c.811.018 1.465.681 1.465 1.496zm-10.465-1.5h8v-1.988c0-2.206-1.794-4-4-4s-4 1.794-4 4zm9.465 1.5c0-.264-.207-.474-.465-.493v.004h-10v-.011h-.024c-.275 0-.5.224-.5.5v7.08c0 .276.225.5.5.5h9.989c.275 0 .5-.224.5-.5z"/></svg>