<svg height="17" viewBox="0 0 17 17" width="17" xmlns="http://www.w3.org/2000/svg"><path d="m15 4v.069l-.013-.058-1.015.221c-.139-1.803-1.634-3.232-3.472-3.232-1.841 0-3.339 1.435-3.474 3.242l-1.026-.223v-.019h-6v11h5.348l5.196 1.479 5.456-1.605v-10.874zm-4.5-2c1.379 0 2.5 1.122 2.5 2.5 0 1.806-1.719 4.209-2.5 5.207-.781-.998-2.5-3.401-2.5-5.207 0-1.378 1.121-2.5 2.5-2.5zm-4.5 3.042 1.081.235c.412 2.269 2.406 4.788 2.919 5.406v4.602l-4-1.139zm-5-.042h4v9.017l-4-.017zm10 10.303v-4.621c.514-.619 2.513-3.145 2.921-5.416l1.079-.234v9.094zm.858-10.72c0-.749-.609-1.358-1.358-1.358s-1.358.609-1.358 1.358.609 1.359 1.358 1.359 1.358-.609 1.358-1.359zm-1.716 0c0-.198.161-.358.358-.358s.358.161.358.358-.161.359-.358.359-.358-.161-.358-.359z"/></svg>