<svg height="17" viewBox="0 0 17 17" width="17" xmlns="http://www.w3.org/2000/svg"><path d="m15.664 5.684-.544-.544c.078-.179.127-.368.139-.562.026-.435-.121-.835-.416-1.13l-1.745-1.745c-.206-.206-.437-.31-.687-.31-.449 0-.769.323-1.108.666l-9.036 9.036-.335 2.955.105.104-.972.972 1.193.222.487-.486.104.104 2.954-.333 8.697-8.698.456.456c.072.072.094.144.076.245-.026.141-.129.31-.283.464l-3.016 3.017.707.707 3.016-3.017c.303-.302.497-.645.56-.99.078-.426-.047-.829-.352-1.133zm-10.321 7.993-2.128.241-.235-.235.242-2.126 5.622-5.622 2.121 2.121zm6.329-6.328-2.121-2.121 2.464-2.464c.136-.139.342-.347.376-.354l1.745 1.745c.12.12.129.278.125.361-.01.168-.088.331-.218.462z"/></svg>