<svg height="17" viewBox="0 0 17 17" width="17" xmlns="http://www.w3.org/2000/svg"><path d="m8.5 0c-2.757 0-5 2.243-5 5 0 1.375.555 2.659 1.562 3.616.085.082.18.154.276.226l.103.078c.179.141.369.257.559.371v7.209l2.479-1.901 2.521 1.901v-7.209c.19-.114.381-.231.56-.372l.103-.077c.096-.072.19-.144.276-.226 1.006-.957 1.561-2.241 1.561-3.616 0-2.757-2.243-5-5-5zm1.5 14.493-1.526-1.151-1.474 1.131v-4.225c.482.167.986.252 1.5.252s1.018-.085 1.5-.252zm1.249-6.601c-.057.055-.121.101-.185.147l-.123.094c-1.445 1.135-3.438 1.134-4.881.001l-.124-.095c-.064-.047-.128-.093-.185-.147-.807-.767-1.251-1.793-1.251-2.892 0-2.206 1.794-4 4-4s4 1.794 4 4c0 1.099-.444 2.125-1.251 2.892zm-.299-4.378.184.982-1.823.341 1.146 1.937-.861.51-1.087-1.836-1.09 1.835-.859-.51 1.152-1.94-1.776-.337.186-.982 1.878.355v-1.869h1v1.878z"/></svg>