<svg height="17" viewBox="0 0 17 17" width="17" xmlns="http://www.w3.org/2000/svg"><path d="m11.614 7.021c.688-.754 1.12-1.747 1.12-2.847 0-2.335-1.899-4.234-4.234-4.234s-4.234 1.899-4.234 4.234c0 1.1.432 2.093 1.12 2.847l1.137 7.979h1.477v1.984h1v-1.984h1.477zm-5.614-4.874v1.853h1v-2.674c.309-.164.643-.28 1-.336v4.01h1v-4.01c.357.056.691.172 1 .336v2.674h1v-1.853c.452.557.734 1.256.734 2.026 0 1.784-1.451 3.235-3.234 3.235s-3.234-1.45-3.234-3.234c0-.771.282-1.47.734-2.027zm1.391 11.853-.87-6.104c.593.316 1.26.513 1.979.513s1.386-.197 1.979-.514l-.87 6.105z"/></svg>