<svg height="17" viewBox="0 0 17 17" width="17" xmlns="http://www.w3.org/2000/svg"><path d="m8.5 12c2.481 0 4.5-2.019 4.5-4.5v-3c0-2.311-1.756-4.197-4-4.449v-.051h-1v.051c-2.244.252-4 2.138-4 4.449v3c0 2.481 2.019 4.5 4.5 4.5zm-2.5-9.941v1.941h1v-2.648c.312-.149.646-.25 1-.301v2.949h1v-2.949c.354.051.688.151 1 .301v2.648h1v-1.941c.617.631 1 1.491 1 2.441v.5h-7v-.5c0-.95.383-1.811 1-2.441zm-1 3.941h7v1.5c0 1.93-1.57 3.5-3.5 3.5s-3.5-1.57-3.5-3.5zm10 1v3.25c0 2.067-2.019 3.75-4.5 3.75h-1.5v3h-1v-3h-1.5c-2.481 0-4.5-1.683-4.5-3.75v-3.25h1v3.25c0 1.517 1.57 2.75 3.5 2.75h4c1.93 0 3.5-1.233 3.5-2.75v-3.25z"/></svg>