<svg height="17" viewBox="0 0 17 17" width="17" xmlns="http://www.w3.org/2000/svg"><path d="m10.719 9.577-.01-.01c-.013-.011-.022-.024-.036-.034l-.003.004-1.67-1.282v-5.707c1.14.218 2 1.164 2 2.296l.499.06.501-.06c0-1.68-1.309-3.062-3-3.296v-1.548h-1v1.548c-1.691.234-3 1.616-3 3.296 0 .942.421 1.838 1.151 2.473l-.005.005.04.031 1.814 1.394v5.705c-1.14-.218-2-1.164-2-2.296h-1c0 1.68 1.309 3.062 3 3.296v1.549h1v-1.549c1.691-.234 3-1.616 3-3.296 0-1.006-.469-1.939-1.281-2.579zm-3.897-2.996c-.522-.446-.822-1.077-.822-1.737 0-1.132.86-2.078 2-2.296v4.938zm2.178 7.871v-4.936l1.104.849c.567.447.896 1.096.896 1.791 0 1.132-.86 2.078-2 2.296z"/></svg>