<svg height="17" viewBox="0 0 17 17" width="17" xmlns="http://www.w3.org/2000/svg"><path d="m6 .265v9.222c-.512-.446-1.173-.726-1.904-.726-1.607 0-2.914 1.308-2.914 2.914s1.307 2.914 2.914 2.914c1.57 0 2.845-1.251 2.903-2.807v-.006c.001-.034.01-.066.01-.102s-.008-.067-.009-.101v-6.094l9 1.761v4.666c-.513-.451-1.178-.734-1.914-.734-1.607 0-2.914 1.308-2.914 2.914s1.307 2.914 2.914 2.914c1.585 0 2.872-1.273 2.907-2.849l.007.002v-11.736l-11-2.152zm-1.904 13.324c-1.056 0-1.914-.858-1.914-1.914s.858-1.914 1.914-1.914c1.021 0 1.85.805 1.904 1.812v.203c-.054 1.008-.883 1.813-1.904 1.813zm2.904-9.128v-2.982l9 1.762v2.98zm7.086 11.539c-1.056 0-1.914-.858-1.914-1.914s.858-1.914 1.914-1.914 1.914.858 1.914 1.914-.858 1.914-1.914 1.914z"/></svg>