<svg height="17" viewBox="0 0 17 17" width="17" xmlns="http://www.w3.org/2000/svg"><path d="m1 0v17h15v-17zm14 16h-13v-15h2v1.092c-.581.207-1 .757-1 1.408 0 .827.673 1.5 1.5 1.5s1.5-.673 1.5-1.5c0-.651-.419-1.201-1-1.408v-1.092h3v1.092c-.581.207-1 .757-1 1.408 0 .827.673 1.5 1.5 1.5s1.5-.673 1.5-1.5c0-.651-.419-1.201-1-1.408v-1.092h3v1.092c-.581.207-1 .757-1 1.408 0 .827.673 1.5 1.5 1.5s1.5-.673 1.5-1.5c0-.651-.419-1.201-1-1.408v-1.092h2zm-10-12.5c0 .275-.225.5-.5.5s-.5-.225-.5-.5.225-.5.5-.5.5.225.5.5zm4 0c0 .275-.225.5-.5.5s-.5-.225-.5-.5.225-.5.5-.5.5.225.5.5zm4 0c0 .275-.225.5-.5.5s-.5-.225-.5-.5.225-.5.5-.5.5.225.5.5z"/></svg>