<svg height="17" viewBox="0 0 17 17" width="17" xmlns="http://www.w3.org/2000/svg"><path d="m16.701 9.818-8.868-8.924-.134.133c-.668-.661-1.552-1.026-2.493-1.027 0 0 0 0-.001 0-.948 0-1.841.37-2.512 1.041-.672.671-1.042 1.563-1.042 2.514 0 .941.366 1.825 1.027 2.493l-2.208 2.209c-.303.304-.47.706-.47 1.133 0 .429.166.83.467 1.13l4.811 4.859c.302.302.704.469 1.131.469.429 0 .831-.168 1.133-.471l5.558-5.558zm-14.05-6.264c0-.682.266-1.323.749-1.806.483-.482 1.123-.748 1.805-.748h.001c.674 0 1.306.262 1.786.734l-3.606 3.607c-.473-.481-.735-1.113-.735-1.787zm4.182 11.117c-.113.113-.265.177-.425.177s-.311-.062-.422-.174l-3.636-3.674h8.154zm4.671-4.671h-10.145l-.183-.186c-.114-.113-.176-.263-.176-.423 0-.161.063-.312.177-.427l6.654-6.654 6.468 6.509-1.614.001zm4.184 1.959-.407-.604-.418.598c-.319.457-1.363 2.011-1.363 2.798 0 .965.785 1.75 1.75 1.75s1.75-.786 1.75-1.751c0-.782-1.004-2.334-1.312-2.791zm-.438 3.541c-.413 0-.75-.337-.75-.75 0-.24.349-.92.766-1.591.4.67.734 1.349.734 1.591 0 .413-.337.75-.75.75z"/></svg>