<svg height="17" viewBox="0 0 17 17" width="17" xmlns="http://www.w3.org/2000/svg"><path d="m8.5.5c-4.411 0-8 3.589-8 8 0 4.281 3.352 7.787 7.631 7.982l1.288.059-2.723-2.723c-.283-.283-.439-.66-.439-1.061s.156-.777.439-1.061c.566-.566 1.555-.566 2.121 0l3.719 3.719.34-.223c2.27-1.486 3.624-3.988 3.624-6.692 0-4.411-3.589-8-8-8zm4.16 13.625-3.135-3.135c-.943-.944-2.592-.944-3.535 0-.472.472-.732 1.1-.732 1.768s.26 1.296.732 1.768l.741.741c-3.026-.783-5.231-3.52-5.231-6.767 0-3.86 3.14-7 7-7s7 3.14 7 7c0 2.23-1.054 4.305-2.84 5.625zm-1.16-7.625c-1.103 0-2 .897-2 2s.897 2 2 2 2-.897 2-2-.897-2-2-2zm0 3c-.551 0-1-.449-1-1s.449-1 1-1 1 .449 1 1-.449 1-1 1zm-3-3.5c-.828 0-1.5-.671-1.5-1.5s.672-1.5 1.5-1.5c.829 0 1.5.671 1.5 1.5s-.671 1.5-1.5 1.5zm-2.75-.109c0 .552-.448 1-1 1s-1-.448-1-1 .448-1 1-1 1 .447 1 1z"/></svg>