<svg height="17" viewBox="0 0 17 17" width="17" xmlns="http://www.w3.org/2000/svg"><path d="m0 0v17h17v-17zm16 16h-15v-15h15zm-12-5.768v2.768h1v-2.768c.738-.218 1.281-.894 1.281-1.701s-.543-1.483-1.281-1.701v-2.83h-1v2.83c-.738.218-1.281.894-1.281 1.701s.543 1.484 1.281 1.701zm.5-2.482c.431 0 .781.351.781.781s-.35.781-.781.781-.781-.35-.781-.781.35-.781.781-.781zm3.5.357v4.893h1v-4.893c.738-.218 1.281-.894 1.281-1.701s-.543-1.483-1.281-1.701v-.705h-1v.705c-.738.218-1.281.894-1.281 1.701s.543 1.484 1.281 1.701zm.5-2.482c.431 0 .781.351.781.781s-.35.782-.781.782-.781-.351-.781-.782.35-.781.781-.781zm4 7.792c.982 0 1.781-.799 1.781-1.781 0-.808-.543-1.483-1.281-1.701v-5.935h-1v5.935c-.738.218-1.281.894-1.281 1.701 0 .982.799 1.781 1.781 1.781zm0-2.563c.431 0 .781.351.781.781s-.351.781-.781.781-.781-.351-.781-.781.35-.781.781-.781z"/></svg>