<svg height="17" viewBox="0 0 17 17" width="17" xmlns="http://www.w3.org/2000/svg"><path d="m16.499 1.843-1.403-1.403c-.566-.566-1.555-.566-2.122 0l-7.536 7.536-1.722 5.287 5.249-1.765 7.534-7.534c.283-.283.439-.66.439-1.061s-.156-.777-.439-1.06zm-10.915 8.915.638-1.957 1.92 1.919-1.942.653zm1.248-2.762 3.986-3.986 2.11 2.11-3.986 3.986zm4.693-4.693.729-.729 2.11 2.11-.729.729zm4.267-.046-.72.721-2.11-2.11.72-.721c.19-.189.519-.189.707 0l1.403 1.403c.094.095.146.22.146.354s-.052.258-.146.353zm-.792 4.243h1v9.5h-16v-15h7.5v1h-6.5v13h14z"/></svg>