<svg height="17" viewBox="0 0 17 17" width="17" xmlns="http://www.w3.org/2000/svg"><path d="m7.307 6.862c0-1.946-1.583-3.529-3.529-3.529-1.945 0-3.528 1.583-3.528 3.529 0 1.945 1.583 3.528 3.528 3.528.734 0 1.416-.227 1.981-.611-1.231 3.47-3.99 3.877-4.133 3.896l.123.992c.051-.006 5.125-.703 5.563-7.724l-.013-.001c.001-.027.008-.052.008-.08zm-3.529 2.529c-1.394 0-2.528-1.134-2.528-2.528s1.134-2.529 2.528-2.529c1.395 0 2.529 1.135 2.529 2.529s-1.134 2.528-2.529 2.528zm12.956-2.449c.001-.027.008-.053.008-.08 0-1.946-1.583-3.529-3.528-3.529s-3.528 1.583-3.528 3.529c0 1.945 1.583 3.528 3.528 3.528.734 0 1.416-.227 1.981-.611-1.23 3.47-3.99 3.877-4.133 3.896l.123.992c.051-.006 5.125-.703 5.563-7.724zm-3.52 2.449c-1.394 0-2.528-1.134-2.528-2.528s1.134-2.529 2.528-2.529 2.528 1.135 2.528 2.529-1.134 2.528-2.528 2.528z"/></svg>