<svg height="17" viewBox="0 0 17 17" width="17" xmlns="http://www.w3.org/2000/svg"><path d="m13.169 7.614c-.734 0-1.417.227-1.982.612 1.23-3.472 3.991-3.88 4.134-3.898l-.123-.992c-.051.006-5.126.704-5.563 7.725l.015.001c0 .027-.008.054-.008.081 0 1.945 1.583 3.528 3.528 3.528s3.528-1.583 3.528-3.528-1.584-3.529-3.529-3.529zm0 6.057c-1.395 0-2.528-1.134-2.528-2.528s1.134-2.528 2.528-2.528 2.528 1.134 2.528 2.528-1.134 2.528-2.528 2.528zm-9.436-6.057c-.734 0-1.416.227-1.981.612 1.23-3.472 3.99-3.88 4.133-3.898l-.123-.992c-.051.006-5.125.704-5.564 7.725l.015.001c0 .027-.008.054-.008.081 0 1.945 1.583 3.528 3.528 3.528s3.528-1.583 3.528-3.528-1.582-3.529-3.528-3.529zm0 6.057c-1.395 0-2.528-1.134-2.528-2.528s1.134-2.528 2.528-2.528 2.528 1.134 2.528 2.528-1.133 2.528-2.528 2.528z"/></svg>