<svg height="17" viewBox="0 0 17 17" width="17" xmlns="http://www.w3.org/2000/svg"><path d="m15.581 9.936c.024.161.04.33.04.491 0 1.308-.766 2.517-2.145 3.42-1.347.879-3.121 1.363-5.008 1.363s-3.669-.484-5.008-1.363c-1.388-.903-2.145-2.112-2.145-3.42 0-.177.016-.354.04-.532-.508-.322-.855-.895-.855-1.541 0-1.007.815-1.822 1.822-1.822.452 0 .872.17 1.194.444 1.291-.823 2.976-1.291 4.774-1.324l1.081-3.41c.048-.153.21-.242.371-.21l2.799.661c.233-.532.766-.903 1.379-.903.831 0 1.5.678 1.5 1.501 0 .83-.669 1.508-1.5 1.508-.823 0-1.492-.67-1.5-1.492l-2.541-.597-.935 2.951c1.701.072 3.29.541 4.516 1.339.322-.29.75-.468 1.218-.468 1.007 0 1.822.815 1.822 1.822 0 .678-.371 1.267-.919 1.582zm-14.049-.686c.258-.693.75-1.339 1.451-1.896-.184-.128-.419-.201-.661-.201-.661 0-1.201.54-1.201 1.201 0 .356.161.678.411.896zm13.468 1.177c0-1.08-.662-2.112-1.863-2.896-1.242-.806-2.903-1.257-4.669-1.257s-3.428.452-4.67 1.257c-1.202.783-1.863 1.815-1.863 2.896 0 1.089.661 2.121 1.863 2.904 1.242.806 2.903 1.258 4.669 1.258s3.428-.452 4.669-1.258c1.202-.783 1.864-1.815 1.864-2.904zm-8.903.234c-.605 0-1.121-.492-1.121-1.097 0-.612.516-1.121 1.121-1.121s1.105.509 1.105 1.121c0 .605-.5 1.097-1.105 1.097zm4.984 1.606c.121.12.121.322 0 .443-.54.54-1.379.798-2.573.798h-.016c-1.194 0-2.033-.258-2.573-.798-.121-.121-.121-.323 0-.443.121-.122.314-.122.436 0 .419.419 1.113.62 2.137.62h.016c1.017 0 1.718-.201 2.137-.62.121-.122.314-.122.436 0zm.943-2.703c0 .604-.5 1.097-1.105 1.097s-1.121-.492-1.121-1.097c0-.612.516-1.121 1.121-1.121s1.105.509 1.105 1.121zm1.016-6.273c0 .482.395.878.879.878s.879-.396.879-.878c0-.484-.396-.88-.879-.88-.484 0-.879.396-.879.88zm2.839 5.063c0-.661-.54-1.201-1.201-1.201-.258 0-.5.081-.694.226.694.557 1.185 1.21 1.436 1.92.282-.227.459-.566.459-.945z"/></svg>