<svg height="17" viewBox="0 0 17 17" width="17" xmlns="http://www.w3.org/2000/svg"><path d="m12 11c0-1 0-5 0-6 0-5-3-5-3-5s-3 0-3 5 0 2 0 6c0 0-2 0-2 6 0 0 2.379-2.375 4.312-2.895.004.582.31 1.051.688 1.051s.684-.47.688-1.051c1.933.52 4.312 2.895 4.312 2.895 0-6-2-6-2-6zm-3-9.999c.26.021 1.667.27 1.947 2.999h-3.894c.28-2.729 1.687-2.978 1.947-2.999zm0 11.999c-1.271 0-2.742.868-3.877 1.717.263-2.121.859-2.629.993-2.717h.884v-7h4v7h.884c.134.088.73.596.993 2.717-1.135-.849-2.606-1.717-3.877-1.717z"/></svg>