<svg height="17" viewBox="0 0 17 17" width="17" xmlns="http://www.w3.org/2000/svg"><path d="m9.969 14h-1c0-3.233-2.678-5.863-5.969-5.863v-1c3.843 0 6.969 3.079 6.969 6.863zm-6.969-10.5v1c5.327 0 9.5 4.173 9.5 9.5h1c0-5.888-4.612-10.5-10.5-10.5zm3 9.001c0-.827-.671-1.501-1.497-1.501-.829 0-1.503.674-1.503 1.501s.674 1.5 1.503 1.5c.826 0 1.497-.673 1.497-1.5zm-1 0c0 .275-.223.5-.497.5-.277 0-.503-.225-.503-.5 0-.276.226-.501.503-.501.274 0 .497.225.497.501zm12 2.999v-14c0-.827-.673-1.5-1.5-1.5h-14c-.827 0-1.5.673-1.5 1.5v14c0 .827.673 1.5 1.5 1.5h14c.827 0 1.5-.673 1.5-1.5zm-1.5-14.5c.276 0 .5.225.5.5v14c0 .275-.224.5-.5.5h-14c-.276 0-.5-.225-.5-.5v-14c0-.275.224-.5.5-.5z"/></svg>