<svg height="17" viewBox="0 0 17 17" width="17" xmlns="http://www.w3.org/2000/svg"><path d="m4.492 0h-1.984c-.827 0-1.5.673-1.5 1.5v10.657l2.521 4.956 2.464-4.959v-10.654c-.001-.827-.674-1.5-1.501-1.5zm-1.984 1h1.984c.275 0 .5.225.5.5v1.019h-2.984v-1.019c0-.275.224-.5.5-.5zm-.5 3.55v-1.031h2.984v1.031zm1.94 9.471h-.87l-1.07-2.104v-6.367h1v6.481h1v-6.481h.984v6.37zm4.052-14.021v17h7v-17zm6 16h-5v-.984h2v-1h-2v-1.016h1v-1h-1v-1h2v-1h-2v-.984h1v-1h-1v-1h2v-1h-2v-1.016h1v-1h-1v-1h2v-1h-2v-1h5z"/></svg>