<svg height="17" viewBox="0 0 17 17" width="17" xmlns="http://www.w3.org/2000/svg"><path d="m12.036.015-12.021 12.021 4.95 4.949 12.02-12.02-4.949-4.95zm-10.607 12.021.696-.696 1.414 1.414.707-.707-1.414-1.414.719-.719.707.707.707-.707-.707-.707.707-.707 1.414 1.414.707-.707-1.414-1.414.696-.696.707.707.707-.707-.707-.707.707-.707 1.414 1.414.707-.707-1.414-1.414.718-.718.707.707.707-.707-.707-.707.707-.707 1.415 1.414.707-.707-1.415-1.414.708-.708 3.535 3.536-10.606 10.606-3.536-3.535z"/></svg>