<svg height="17" viewBox="0 0 17 17" width="17" xmlns="http://www.w3.org/2000/svg"><path d="m15.5 0h-12.664l-2.836 2.776v12.724c0 .827.673 1.5 1.5 1.5h14c.827 0 1.5-.673 1.5-1.5v-14c0-.827-.673-1.5-1.5-1.5zm-2.5 1v2h-8v-2zm-10 15v-1h11v1zm13-.5c0 .275-.224.5-.5.5h-.5v-2h-13v2h-.5c-.276 0-.5-.225-.5-.5v-12.304l2.244-2.196h.756v3h10v-3h1.5c.276 0 .5.225.5.5zm-7.5-10.5c-1.93 0-3.5 1.57-3.5 3.5s1.57 3.5 3.5 3.5 3.5-1.57 3.5-3.5-1.57-3.5-3.5-3.5zm0 6c-1.378 0-2.5-1.121-2.5-2.5s1.122-2.5 2.5-2.5 2.5 1.121 2.5 2.5-1.122 2.5-2.5 2.5z"/></svg>