<svg height="17" viewBox="0 0 17 17" width="17" xmlns="http://www.w3.org/2000/svg"><path d="m17 3.5c0-2.273-4.38-3.5-8.5-3.5s-8.5 1.227-8.5 3.5c0 .149.024.318.08.5h-.08v9.5c0 2.273 4.38 3.5 8.5 3.5s8.5-1.227 8.5-3.5v-9.5h-.08c.056-.182.08-.351.08-.5zm-8.5-2.5c4.293 0 7.5 1.32 7.5 2.5 0 .398-.388.835-1.093 1.229-1.419.796-3.814 1.271-6.407 1.271s-4.988-.475-6.407-1.271c-.705-.394-1.093-.831-1.093-1.229 0-1.18 3.207-2.5 7.5-2.5zm0 15c-4.293 0-7.5-1.32-7.5-2.5v-1.633c.175.135.367.271.604.403 1.562.874 4.14 1.396 6.896 1.396.345 0 .687-.008 1.023-.024 2.361-.111 4.505-.607 5.872-1.372 0-.001.001-.001.001-.001.236-.133.43-.268.604-.403v1.634c0 1.18-3.207 2.5-7.5 2.5zm6.407-4.603c-1.42.795-3.814 1.27-6.407 1.27-.324 0-.646-.008-.962-.022-2.214-.102-4.203-.552-5.445-1.247-.704-.396-1.093-.833-1.093-1.231v-1.634c.175.135.368.271.605.403 1.561.874 4.139 1.396 6.895 1.396s5.334-.522 6.895-1.396c.237-.132.43-.268.605-.403v1.634c0 .398-.389.835-1.093 1.23zm-.001-3.334c-1.419.795-3.813 1.27-6.406 1.27s-4.987-.475-6.406-1.27c-.705-.394-1.094-.832-1.094-1.23v-1.634c.175.136.367.271.604.404 1.562.875 4.139 1.397 6.896 1.397s5.334-.522 6.896-1.397c.237-.133.429-.268.604-.404v1.634c0 .398-.389.836-1.094 1.23z"/></svg>