<svg height="17" viewBox="0 0 17 17" width="17" xmlns="http://www.w3.org/2000/svg"><path d="m8.5 5.972c-1.378 0-2.5 1.122-2.5 2.5s1.122 2.5 2.5 2.5 2.5-1.122 2.5-2.5-1.122-2.5-2.5-2.5zm0 4c-.827 0-1.5-.673-1.5-1.5s.673-1.5 1.5-1.5 1.5.673 1.5 1.5-.673 1.5-1.5 1.5zm8.44-.526c.037-.321.06-.645.06-.974s-.023-.653-.06-.974l-2.588-.778c-.119-.402-.278-.787-.474-1.149l1.279-2.377c-.406-.51-.869-.973-1.38-1.38l-2.377 1.28c-.363-.196-.748-.354-1.15-.474l-.776-2.588c-.32-.037-.644-.06-.974-.06s-.654.023-.974.06l-.776 2.588c-.403.119-.789.278-1.15.475l-2.377-1.28c-.511.406-.974.869-1.379 1.38l1.279 2.375c-.196.362-.354.748-.474 1.15l-2.589.778c-.037.32-.06.644-.06.974s.023.654.06.974l2.588.776c.12.403.278.789.474 1.151l-1.279 2.376c.406.511.869.974 1.38 1.38l2.377-1.279c.362.196.748.354 1.15.474l.776 2.588c.321.037.645.06.974.06s.654-.023.974-.06l.776-2.588c.402-.12.788-.278 1.15-.474l2.376 1.279c.511-.407.974-.87 1.38-1.381l-1.278-2.376c.196-.362.354-.748.474-1.15zm-3.392-.027-.154.518c-.1.337-.233.66-.396.959l-.256.475.255.475.952 1.77c-.099.105-.201.207-.306.306l-2.243-1.209-.475.256c-.301.163-.624.295-.96.396l-.518.154-.155.518-.579 1.932c-.072.002-.143.003-.213.003s-.141-.001-.213-.003l-.579-1.932-.155-.518-.518-.154c-.336-.1-.659-.233-.959-.396l-.475-.256-2.245 1.207c-.104-.099-.207-.201-.306-.306l1.208-2.244-.256-.475c-.162-.3-.295-.623-.396-.96l-.153-.517-2.449-.734c-.003-.072-.004-.143-.004-.212 0-.07.001-.141.004-.213l2.448-.734.154-.518c.1-.337.233-.66.396-.959l.256-.475-1.208-2.245c.099-.104.201-.207.305-.306l2.247 1.21.476-.259c.297-.162.619-.295.956-.395l.518-.154.155-.518.579-1.932c.073-.001.144-.002.214-.002s.141.001.213.003l.579 1.932.155.518.518.154c.335.1.659.233.96.396l.475.255 2.244-1.208c.104.099.207.201.306.306l-.953 1.77-.255.475.257.475c.163.3.295.622.395.957l.154.518.518.155 1.932.581c.001.072.002.143.002.213s-.001.141-.004.213z"/></svg>