<svg height="17" viewBox="0 0 17 17" width="17" xmlns="http://www.w3.org/2000/svg"><path d="m16.5 13.5c0 1.656-1.344 3-3 3h-10c-1.656 0-3-1.344-3-3v-10c0-1.656 1.344-3 3-3h10c1.656 0 3 1.344 3 3zm-4.886-4.114c-.583 0-1.114.229-1.51.604l-2.51-1.25c.01-.084.02-.156.02-.24s-.01-.156-.021-.24l2.51-1.249c.396.375.927.604 1.51.604 1.219 0 2.219-.999 2.219-2.229 0-1.219-1-2.219-2.219-2.219-1.229 0-2.229 1-2.229 2.219 0 .083.01.156.021.239l-2.51 1.25c-.395-.365-.926-.594-1.509-.594-1.219 0-2.219.989-2.219 2.219s1 2.219 2.219 2.219c.583 0 1.114-.229 1.51-.594l2.51 1.25c-.011.083-.021.156-.021.239 0 1.219 1 2.219 2.229 2.219 1.219 0 2.219-1 2.219-2.219 0-1.229-1-2.228-2.219-2.228z"/></svg>