<svg height="17" viewBox="0 0 17 17" width="17" xmlns="http://www.w3.org/2000/svg"><path d="m16.5 13.168c0 1.843-1.49 3.332-3.333 3.332-1.844 0-3.333-1.489-3.333-3.332 0-.116.01-.24.02-.354l-3.75-1.876c-.593.552-1.396.896-2.271.896-1.844 0-3.333-1.489-3.333-3.334 0-1.843 1.489-3.332 3.333-3.332.875 0 1.677.343 2.271.895l3.75-1.874c-.01-.116-.02-.24-.02-.354 0-1.845 1.489-3.334 3.333-3.334 1.843 0 3.333 1.489 3.333 3.334 0 1.844-1.49 3.333-3.333 3.333-.875 0-1.677-.344-2.271-.896l-3.75 1.875c.01.115.021.24.021.354 0 .115-.011.24-.021.354l3.75 1.877c.594-.553 1.397-.897 2.271-.897 1.843-.002 3.333 1.487 3.333 3.333z"/></svg>