<svg height="17" viewBox="0 0 17 17" width="17" xmlns="http://www.w3.org/2000/svg"><path d="m8.5 5c-1.93 0-3.5 1.57-3.5 3.5s1.57 3.5 3.5 3.5 3.5-1.57 3.5-3.5-1.57-3.5-3.5-3.5zm0 6c-1.378 0-2.5-1.122-2.5-2.5s1.122-2.5 2.5-2.5 2.5 1.122 2.5 2.5-1.122 2.5-2.5 2.5zm.5-7h-1v-3h1zm-1 9h1v3h-1zm8-5v1h-3v-1zm-12 1h-3v-1h3zm8.036-3.329-.707-.707 2.121-2.121.707.707zm-7.072 5.658.707.707-2.121 2.121-.707-.707zm7.072 0 2.121 2.121-.707.707-2.121-2.121zm-7.072-5.658-2.121-2.121.707-.707 2.121 2.121z"/></svg>