<svg height="17" viewBox="0 0 17 17" width="17" xmlns="http://www.w3.org/2000/svg"><path d="m2.75 12.5c-.965 0-1.75.785-1.75 1.75s.785 1.75 1.75 1.75 1.75-.785 1.75-1.75-.785-1.75-1.75-1.75zm0 2.5c-.414 0-.75-.337-.75-.75s.336-.75.75-.75.75.337.75.75-.336.75-.75.75zm8.5-2.5c-.965 0-1.75.785-1.75 1.75s.785 1.75 1.75 1.75 1.75-.785 1.75-1.75-.785-1.75-1.75-1.75zm0 2.5c-.414 0-.75-.337-.75-.75s.336-.75.75-.75.75.337.75.75-.336.75-.75.75zm2.121-13-.302 2h-13.143l1.118 8.036h11.913l1.038-7.463.236-1.573h2.769v-1zm-.445 3-.139 1h-11.574l-.139-1zm-11.012 6.036-.561-4.036h11.295l-.561 4.036z"/></svg>