<svg height="17" viewBox="0 0 17 17" width="17" xmlns="http://www.w3.org/2000/svg"><path d="m2.75 12.5c-.965 0-1.75.785-1.75 1.75s.785 1.75 1.75 1.75 1.75-.785 1.75-1.75-.785-1.75-1.75-1.75zm0 2.5c-.413 0-.75-.337-.75-.75s.337-.75.75-.75.75.337.75.75-.337.75-.75.75zm8.5-2.5c-.965 0-1.75.785-1.75 1.75s.785 1.75 1.75 1.75 1.75-.785 1.75-1.75-.785-1.75-1.75-1.75zm0 2.5c-.413 0-.75-.337-.75-.75s.337-.75.75-.75.75.337.75.75-.337.75-.75.75zm2.12-13-.301 2h-13.143l1.117 8.036h11.914l1.043-7.5.231-1.536h2.769v-1zm-1.284 9.036h-10.172l-.84-6.036h11.852zm-1.086-1.036h-8v-3.969h1v2.969h6v-2.97h1zm-7-7.031h-1v-1.969h8v1.906h-1v-.906h-6z"/></svg>