<svg height="17" viewBox="0 0 17 17" width="17" xmlns="http://www.w3.org/2000/svg"><path d="m11.5 4c0-1.654-1.346-3-3-3s-3 1.346-3 3c0 1.483 1.084 2.71 2.5 2.949v8.051h-2v1h5v-1h-2v-8.051c1.416-.239 2.5-1.466 2.5-2.949zm-5 0c0-1.103.897-2 2-2s2 .897 2 2-.897 2-2 2-2-.897-2-2zm-1.996-1.808c-.378.46-.577 1.004-.577 1.574s.199 1.114.577 1.574l-.774.636c-.525-.641-.803-1.405-.803-2.209s.278-1.569.803-2.209zm-2.504 1.575c0 1.079.387 2.096 1.119 2.938l-.754.656c-.881-1.012-1.365-2.29-1.365-3.594s.484-2.582 1.365-3.595l.754.656c-.732.843-1.119 1.86-1.119 2.939zm12.073 0c0 .805-.278 1.568-.804 2.209l-.773-.635c.378-.46.577-1.004.577-1.574s-.199-1.114-.577-1.574l.773-.635c.526.64.804 1.404.804 2.209zm1.927 0c0 1.305-.484 2.582-1.365 3.595l-.754-.656c.732-.844 1.119-1.86 1.119-2.939s-.387-2.096-1.119-2.938l.754-.656c.881 1.012 1.365 2.289 1.365 3.594z"/></svg>