<svg height="17" viewBox="0 0 17 17" width="17" xmlns="http://www.w3.org/2000/svg"><path d="m16.199 9.943c.089-.49.134-.975.134-1.443 0-4.788-4.269-8.608-9.277-7.699-.756-.525-1.635-.801-2.556-.801-2.481 0-4.5 2.019-4.5 4.5 0 .921.276 1.8.801 2.557-.089.49-.134.974-.134 1.443 0 4.788 4.27 8.608 9.277 7.699.756.525 1.635.801 2.556.801 2.481 0 4.5-2.019 4.5-4.5 0-.921-.276-1.8-.801-2.557zm-3.699 6.057c-.775 0-1.512-.252-2.133-.729l-.182-.14-.225.047c-.499.103-.99.155-1.461.155-3.768 0-6.833-3.065-6.833-6.833 0-.471.052-.962.156-1.461l.046-.225-.14-.182c-.476-.619-.728-1.358-.728-2.132 0-1.93 1.57-3.5 3.5-3.5.775 0 1.512.252 2.133.729l.182.14.225-.047c.498-.102.989-.155 1.46-.155 3.768 0 6.833 3.065 6.833 6.833 0 .471-.052.962-.156 1.461l-.046.225.14.182c.477.619.729 1.358.729 2.132 0 1.93-1.57 3.5-3.5 3.5zm.219-5.761c0 2.115-2.042 3.094-4 3.094-2.344 0-4.303-1.042-4.303-2.323 0-.572.323-1.093 1.053-1.093 1.115 0 1.219 1.604 3.146 1.604.916 0 1.51-.405 1.51-.937 0-.667-.573-.771-1.5-1l-1.521-.375c-1.52-.365-2.688-.99-2.688-2.74 0-2.114 2.094-2.896 3.896-2.896 1.969 0 3.958.781 3.958 1.979 0 .604-.406 1.136-1.083 1.136-1.011 0-1.042-1.197-2.678-1.197-.916 0-1.5.249-1.5.801 0 .605.594.74 1.387.928l1.082.25c1.48.333 3.241.957 3.241 2.769z"/></svg>