<svg height="17" viewBox="0 0 17 17" width="17" xmlns="http://www.w3.org/2000/svg"><path d="m.882 10.132-.139.875c-.007.035-.027.062-.062.062s-.056-.027-.062-.062l-.119-.875.118-.889c.007-.035.028-.062.062-.062s.055.027.062.062zm.639 0-.18 1.409c-.007.035-.035.062-.069.062-.035 0-.062-.027-.062-.068l-.16-1.403c.16-1.438.16-1.438.16-1.438 0-.034.027-.062.062-.062.034 0 .062.028.069.062zm.632 0-.173 1.646c0 .041-.035.076-.077.076s-.076-.035-.083-.076l-.146-1.646.146-1.701c.007-.049.042-.083.083-.083.042 0 .077.034.077.083zm.639 0-.16 1.694c-.007.056-.048.091-.097.091-.048 0-.09-.035-.09-.091l-.146-1.694.146-1.75c0-.056.042-.09.09-.09.049 0 .09.034.097.09zm.639 0-.146 1.709c-.007.062-.056.111-.111.111s-.104-.049-.104-.111l-.139-1.709.139-1.624c0-.057.049-.105.104-.105.056 0 .104.049.111.105zm.652 0-.146 1.709c0 .068-.056.125-.118.125-.069 0-.118-.057-.125-.125l-.125-1.709c.125-2.64.125-2.64.125-2.64.008-.068.056-.124.125-.124.062 0 .118.056.118.124zm.639.014-.132 1.695c0 .076-.063.131-.132.131-.076 0-.131-.055-.139-.131l-.111-1.695c.111-3.25.111-3.25.111-3.25.007-.076.062-.132.139-.132.069 0 .132.056.132.132zm.674-.014-.125 1.681c-.007.083-.069.146-.153.146-.076 0-.139-.062-.146-.146l-.111-1.681.111-3.514c0-.083.07-.153.146-.153.083 0 .146.07.153.153zm.66 0-.112-3.632c-.006-.09-.076-.167-.166-.167-.083 0-.16.077-.16.167l-.098 3.632.098 1.674c.007.09.077.16.16.16.09 0 .16-.07.167-.16zm.666 0-.104 1.66c0 .097-.076.174-.174.174-.097 0-.167-.077-.173-.174l-.098-1.66.098-3.542c0-.098.076-.174.173-.174.098 0 .174.076.174.174zm.681.007-.098 1.64c0 .104-.083.188-.187.188s-.188-.084-.194-.188l-.083-1.64.083-3.416c.007-.111.09-.195.194-.195s.18.084.187.195zm.673 0-.083-4.07c0-.069-.035-.132-.09-.166-.035-.021-.07-.035-.111-.035-.042 0-.076.014-.111.035-.056.035-.091.097-.091.166l-.007.041-.07 4.021s0 .007.077 1.639v.008c0 .041.014.083.042.117.042.049.097.076.16.076.056 0 .104-.027.139-.062.042-.034.062-.083.062-.139l.007-.166zm.605 1.604c0 .118-.097.215-.215.215s-.215-.097-.223-.215l-.041-.791-.042-.813.083-4.416v-.022c.007-.062.035-.125.084-.166.034-.027.083-.049.138-.049.035 0 .077.014.104.035.062.034.104.104.111.18l.097 4.438zm5.854.223c-5.452 0-5.458 0-5.458 0-.118-.014-.215-.104-.215-.229v-6.245c0-.117.042-.173.195-.229.382-.152.812-.235 1.257-.235 1.812 0 3.299 1.388 3.458 3.159.236-.097.493-.153.764-.153 1.083 0 1.965.883 1.965 1.973-.001 1.084-.883 1.959-1.966 1.959z"/></svg>