<svg height="17" viewBox="0 0 17 17" width="17" xmlns="http://www.w3.org/2000/svg"><path d="m17.02 8h-2.045c-.245-3.194-2.806-5.745-6.004-5.977v-2.062h-1v2.065c-3.172.258-5.702 2.799-5.946 5.974h-2.045v1h2.045c.244 3.175 2.774 5.716 5.945 5.974v2.026h1v-2.023c3.198-.231 5.759-2.782 6.004-5.977h2.045v-1zm-8.049 5.977v-1.977h-1v1.974c-2.621-.252-4.708-2.35-4.946-4.974h1.955v-1h-1.955c.238-2.624 2.325-4.722 4.946-4.974v1.935h1v-1.938c2.647.227 4.764 2.333 5.004 4.977h-1.955v1h1.955c-.24 2.644-2.357 4.75-5.004 4.977z"/></svg>