<svg height="17" viewBox="0 0 17 17" width="17" xmlns="http://www.w3.org/2000/svg"><path d="m9.401 1.304c-.996 0-2.097.169-3.305.546-9.587 2.996-5.316 9.618-4.06 10.272 2.131 1.105-1.151 3.574-1.151 3.574s2.817-.824 6.404-1.192c4.312-.44 9.155-1.068 9.592-3.467.684-3.761-1.559-9.733-7.48-9.733zm6.496 9.554c-.327 1.795-5.989 2.373-8.71 2.65-1.353.139-2.593.34-3.624.538.141-.351.216-.719.185-1.093-.035-.418-.244-1.196-1.244-1.716-.372-.222-1.708-1.95-1.479-3.878.294-2.469 3.082-3.84 5.369-4.555 1.064-.332 2.076-.5 3.007-.5 1.971 0 3.581.732 4.787 2.177 1.627 1.95 2.031 4.608 1.709 6.377zm-11.897-4.358c0-.551.448-1 1-1s1 .449 1 1-.448 1-1 1-1-.449-1-1zm5-.5c0-.553.447-1 1-1 .552 0 1 .447 1 1 0 .551-.448 1-1 1-.553 0-1-.449-1-1zm4.3 2.5c-5.542 6.142-9.6.95-9.6.95 3.2 2.864 9.6-.95 9.6-.95z"/></svg>