<svg height="17" viewBox="0 0 17 17" width="17" xmlns="http://www.w3.org/2000/svg"><path d="m11.5 10.116c3.033 0 5.5-2.269 5.5-5.058s-2.467-5.058-5.5-5.058c-1.912 0-3.693.938-4.684 2.431-.705-.399-1.496-.608-2.316-.608-2.481 0-4.5 1.86-4.5 4.147 0 2.286 2.019 4.146 4.5 4.146.186 0 .375-.013.573-.037.652.588 1.522.921 2.427.921 1.002 0 1.929-.387 2.592-1.07.488.125.951.186 1.408.186zm-1.755-1.331-.212.268c-.471.593-1.231.947-2.033.947-.724 0-1.414-.29-1.895-.797l-.184-.193-.264.046c-.214.037-.431.06-.657.06-1.93 0-3.5-1.411-3.5-3.145 0-1.735 1.57-3.147 3.5-3.147.792 0 1.549.246 2.189.713l.472.343.267-.52c.738-1.433 2.336-2.36 4.072-2.36 2.481 0 4.5 1.82 4.5 4.059 0 2.237-2.019 4.058-4.5 4.058-.453 0-.921-.075-1.429-.231zm1.755 1.715c-1.103 0-2 .897-2 2s.897 2 2 2 2-.897 2-2-.897-2-2-2zm0 3c-.551 0-1-.448-1-1s.449-1 1-1 1 .448 1 1-.449 1-1 1zm3.75.5c-.689 0-1.25.561-1.25 1.25s.561 1.25 1.25 1.25 1.25-.561 1.25-1.25-.561-1.25-1.25-1.25zm-.25 1.25c0-.138.112-.25.25-.25s.25.112.25.25c0 .275-.5.275-.5 0z"/></svg>