<svg height="17" viewBox="0 0 17 17" width="17" xmlns="http://www.w3.org/2000/svg"><path d="m14.568 9.501c0 .276-.224.5-.5.5h-2.291l-3.088 4.99c-.477.8-1.095.921-1.42.921h-.001c-.485 0-.955-.264-1.199-.671-.364-.61-.238-1.446-.087-2.106l.403-2.124h-3.849c-.847 0-1.535-.675-1.535-1.505 0-.548.3-1.029.748-1.292-.153-.209-.25-.455-.25-.729 0-.526.24-.971.621-1.233-.138-.235-.204-.502-.204-.769 0-.575.328-1.062.817-1.305-.133-.256-.162-.516-.162-.69 0-.932.581-1.488 1.553-1.488h5.625c.754 0 1.274.404 1.653.7.219.17.426.332.569.332h2.103c.276 0 .5.224.5.5s-.224.5-.5.5h-2.103c-.487 0-.857-.288-1.184-.542-.322-.253-.627-.49-1.038-.49h-5.625c-.467 0-.553.165-.553.488 0 .158 0 .527 1.027.527h.105c.276 0 .5.224.5.5s-.224.5-.5.5h-1.258c-.307 0-.529.197-.529.468 0 .45.449.517.717.517h.75c.276 0 .5.224.5.5s-.224.5-.5.5h-1.436c-.33 0-.448.25-.448.484 0 .168.366.457.705.513h.966c.276 0 .5.224.5.5s-.224.5-.5.5h-.983c-.007 0-.013.004-.02.004h-.631c-.295 0-.535.227-.535.505s.24.505.535.505h4.453c.149 0 .29.066.385.181s.134.266.106.412l-.52 2.734c-.062.273-.238 1.046-.033 1.39.053.088.182.184.34.184.196 0 .397-.157.566-.44l3.239-5.234c.091-.147.252-.237.425-.237h2.569c.279 0 .502.224.502.5z"/></svg>