<svg height="17" viewBox="0 0 17 17" width="17" xmlns="http://www.w3.org/2000/svg"><path d="m9.104.5v4.042h3.793v2.51h-3.793v4.104c0 .927.042 1.521.146 1.792.094.261.281.468.541.625.354.218.761.323 1.219.323.813 0 1.615-.261 2.417-.793v2.521c-.688.323-1.302.552-1.854.678-.553.135-1.156.197-1.803.197-.729 0-1.374-.094-1.938-.281-.562-.177-1.042-.448-1.437-.781-.395-.343-.676-.708-.822-1.093-.156-.386-.229-.947-.229-1.677v-5.615h-1.771v-2.261c.624-.207 1.166-.5 1.614-.874.449-.386.803-.844 1.074-1.375.27-.542.458-1.219.562-2.042h2.281z"/></svg>