<svg height="17" viewBox="0 0 17 17" width="17" xmlns="http://www.w3.org/2000/svg"><path d="m13.15 12.687c-.72.478-1.42.71-2.141.71-.371 0-.684-.082-.96-.251-.17-.103-.277-.223-.333-.377-.052-.134-.113-.522-.113-1.612v-3.605h3.793v-3.51h-3.792v-4.042h-3.221l-.056.438c-.096.758-.27 1.391-.512 1.878-.245.481-.557.88-.948 1.217-.398.332-.887.596-1.451.783l-.343.114v3.122h1.771v5.115c0 .812.087 1.423.262 1.854.171.453.495.889.969 1.299.464.392 1.005.687 1.601.874.611.202 1.316.306 2.095.306.699 0 1.346-.071 1.914-.21.574-.131 1.214-.364 1.955-.713l.287-.135v-3.771zm-.223 2.617c-.553.245-1.035.413-1.472.514-1.037.253-2.476.256-3.473-.075-.476-.15-.901-.381-1.259-.683-.341-.296-.571-.596-.687-.903-.129-.316-.193-.817-.193-1.489v-6.116h-1.77v-1.411c.543-.216 1.025-.498 1.44-.845.49-.422.892-.936 1.194-1.53.249-.498.43-1.078.547-1.766h1.35v4.042h3.793v1.51h-3.793v4.604c0 1.068.052 1.64.176 1.961.131.363.384.66.75.882.929.571 2.225.502 3.397-.042z"/></svg>