<svg height="17" viewBox="0 0 17 17" width="17" xmlns="http://www.w3.org/2000/svg"><path d="m15.253 5.038c.011.151.011.302.011.454 0 4.605-3.506 9.912-9.913 9.912-1.974 0-3.808-.572-5.351-1.564.281.032.551.042.842.042 1.629 0 3.127-.55 4.325-1.488-1.532-.032-2.815-1.036-3.257-2.417.215.032.431.054.656.054.314 0 .627-.043.918-.118-1.596-.324-2.794-1.726-2.794-3.419 0-.011 0-.033 0-.043.464.258 1.003.42 1.575.442-.938-.626-1.553-1.694-1.553-2.901 0-.647.173-1.241.475-1.759 1.715 2.115 4.293 3.496 7.184 3.646-.055-.259-.087-.529-.087-.799 0-1.919 1.554-3.483 3.484-3.483 1.003 0 1.909.42 2.546 1.1.787-.151 1.541-.442 2.211-.841-.259.809-.809 1.489-1.532 1.919.702-.075 1.381-.269 2.007-.539-.475.69-1.068 1.306-1.747 1.802z"/></svg>