<svg height="17" viewBox="0 0 17 17" width="17" xmlns="http://www.w3.org/2000/svg"><path d="m17 3.236c-.626.27-1.305.464-2.007.539.723-.431 1.273-1.11 1.532-1.919-.669.399-1.424.69-2.211.841-.636-.68-1.542-1.1-2.545-1.1-1.931 0-3.484 1.564-3.484 3.483 0 .27.033.54.086.799-2.891-.15-5.469-1.531-7.184-3.646-.302.517-.475 1.111-.475 1.759 0 1.208.615 2.275 1.553 2.901-.571-.022-1.111-.184-1.575-.442v.043c0 1.692 1.197 3.095 2.794 3.419-.291.075-.604.118-.917.118-.226 0-.442-.021-.657-.054.442 1.381 1.726 2.384 3.257 2.417-1.198.938-2.697 1.488-4.326 1.488-.291 0-.561-.01-.841-.042 1.543.992 3.376 1.564 5.351 1.564 6.407 0 9.913-5.307 9.913-9.912 0-.152 0-.302-.01-.454.678-.496 1.271-1.112 1.746-1.802zm-2.737 2.255c0 3.701-2.765 8.912-8.913 8.912-.492 0-.979-.04-1.458-.118.67-.276 1.305-.646 1.891-1.104.333-.26.466-.702.332-1.103s-.505-.675-.928-.684c-.545-.011-1.055-.197-1.467-.509.004-.001.008-.002.012-.003.452-.116.763-.528.751-.994-.011-.467-.343-.862-.8-.955-.652-.132-1.203-.516-1.559-1.046.035.002.069.004.104.005h.038c.432 0 .817-.278.951-.692.138-.426-.024-.891-.397-1.14-.63-.42-1.03-1.096-1.098-1.841 1.824 1.582 4.146 2.531 6.597 2.658.017.001.035.001.052.001.291 0 .568-.127.759-.349.202-.235.283-.551.22-.854-.044-.209-.066-.41-.066-.595 0-1.369 1.114-2.483 2.484-2.483.698 0 1.342.278 1.815.784.116.124.261.215.417.266-.019.146-.006.297.043.444.063.191.18.352.33.47-.089.164-.132.353-.119.544.01.129.009.257.009.386z"/></svg>