<svg height="17" viewBox="0 0 17 17" width="17" xmlns="http://www.w3.org/2000/svg"><path d="m2.134 5.139 1.402-2.587c1.086-1.648 3.262-2.095 4.871-1.029l-.551.833c-1.149-.759-2.703-.44-3.464.709l-1.402 2.587c-.781 1.188-.464 2.742.687 3.501 1.143.752 2.41.547 3.313-.538l.768.641c-.742.892-1.694 1.352-2.678 1.352-.655 0-1.323-.204-1.954-.62-1.61-1.064-2.056-3.239-.992-4.849zm1.907 2.895-.13.129.705.709.131-.13c.975-.975 2.561-.975 3.535 0s.975 2.561 0 3.535l-3.023 3.024c-.975.975-2.561.975-3.535 0s-.975-2.561 0-3.535l1.058-1.059-.707-.707-1.058 1.06c-1.364 1.364-1.364 3.585 0 4.949.683.683 1.578 1.023 2.475 1.023s1.792-.341 2.475-1.023l3.023-3.024c1.364-1.364 1.364-3.585 0-4.949-1.367-1.367-3.587-1.364-4.949-.002zm6.922-1.034h4.074v-1h-4.074zm-.468 1.347 1.951 1.127.5-.865-1.951-1.127zm.255-7.191-1.58 2.737.865.5 1.58-2.736zm5.117 1.569-.5-.865-4.992 2.882.5.865z"/></svg>