<svg height="17" viewBox="0 0 17 17" width="17" xmlns="http://www.w3.org/2000/svg"><path d="m17 16.488c-.063-2.687-2.778-4.999-6.521-5.609v-1.374c.492-.473.842-1.207 1.071-1.833.332-.166.624-.536.794-1.033.238-.688.146-1.323-.206-1.629.028-.238.046-.481.015-.723-.079-.663.065-1.038.194-1.368.106-.277.229-.591.106-.945-.442-1.273-1.727-1.974-3.618-1.974l-.264.005c-1.313.047-1.707.6-1.971 1.115-.033.062-.077.146-.077.151-1.712.153-1.697 1.569-1.684 2.707l.003.369c0 .205.009.419.026.639-.425.3-.504 1.005-.179 1.737.185.415.452.729.749.892.243.674.625 1.47 1.179 1.965v1.283c-3.798.589-6.554 2.907-6.617 5.625l-.012.512h17.023zm-15.946-.488c.392-2.094 2.859-3.821 6.122-4.204l.441-.052v-2.666l-.216-.15c-.393-.272-.791-.947-1.09-1.851l-.083-.281-.294-.051c-.053-.019-.208-.153-.33-.428-.075-.168-.104-.312-.112-.415l.51.143-.096-.749c-.042-.33-.064-.651-.064-.95l-.003-.38c-.015-1.341.051-1.634.773-1.699.545-.048.752-.449.876-.689.15-.292.28-.543 1.12-.574l.227-.004c.829 0 2.279.169 2.669 1.282 0 .043-.052.177-.09.275-.145.374-.364.939-.254 1.853.024.188-.007.424-.04.675l-.089.805.441-.048c.008.104-.004.269-.075.472-.097.289-.242.438-.237.454h-.36l-.114.342c-.283.853-.65 1.497-1.009 1.768l-.198.15v2.726l.438.055c3.211.401 5.641 2.123 6.03 4.192h-14.893z"/></svg>