<svg height="17" viewBox="0 0 17 17" width="17" xmlns="http://www.w3.org/2000/svg"><path d="m14.94 6c-1.032-.647-2.214-1-3.44-1-.778 0-1.529.144-2.239.404l2.569-2.569c.203.102.428.165.67.165.827 0 1.5-.673 1.5-1.5s-.673-1.5-1.5-1.5-1.5.673-1.5 1.5c0 .22.05.428.136.616l-3.91 3.909c-.081-.014-.164-.025-.25-.025-.827 0-1.5.673-1.5 1.5 0 .085.011.168.025.25l-3.386 3.386c-.188-.086-.395-.136-.615-.136-.827 0-1.5.673-1.5 1.5s.673 1.5 1.5 1.5 1.5-.673 1.5-1.5c0-.242-.063-.467-.165-.669l2.57-2.57c-.262.715-.405 1.473-.405 2.239 0 1.469.612 2.735 1 3.391v2.109h3v-3h-2.336c-.418-.826-.664-1.713-.664-2.5 0-.887.22-1.764.628-2.545.113.027.228.045.348.045.827 0 1.5-.673 1.5-1.5 0-.18-.037-.35-.095-.51 1.644-1.131 3.847-1.268 5.619-.373v2.383h3v-3zm-2.44-5c.276 0 .5.224.5.5s-.224.5-.5.5-.5-.224-.5-.5.224-.5.5-.5zm-11 12c-.276 0-.5-.224-.5-.5s.224-.5.5-.5.5.224.5.5-.224.5-.5.5zm5.5 2h1v1h-1zm-.024-7c-.276 0-.5-.224-.5-.5s.224-.5.5-.5.5.224.5.5-.224.5-.5.5zm9.024 0h-1v-1h1z"/></svg>