<svg height="17" viewBox="0 0 17 17" width="17" xmlns="http://www.w3.org/2000/svg"><path d="m12.991 6.75v-2.25c0-.827-.678-1.5-1.512-1.5h-7.479v-.5c0-.276.225-.5.5-.5h5.541v-1h-5.541c-.827 0-1.5.673-1.5 1.5v.5h-1.488c-.834 0-1.512.673-1.512 1.5v2.001c0 .827.678 1.5 1.512 1.5h.504v5.499c0 .827.673 1.5 1.5 1.5h7.964c.834 0 1.512-.673 1.512-1.5v-2.251l4.008 2.783v-10.065zm3.009 5.371-4.009-2.783v4.162c0 .276-.229.5-.512.5h-7.963c-.275 0-.5-.224-.5-.5v-6.499h-1.504c-.283 0-.512-.224-.512-.5v-2.001c0-.276.229-.5.512-.5h9.968c.282 0 .512.224.512.5v4.163l4.008-2.784z"/></svg>