<svg height="17" viewBox="0 0 17 17" width="17" xmlns="http://www.w3.org/2000/svg"><path d="m3.587 5.933c-.956 0-1.55.5-1.55 1.306v2.161c0 .415.161.804.453 1.098.292.293.682.455 1.097.455h1.743l5.686 5.688v-16.429l-5.63 5.721zm6.429-3.279v11.572l-4.272-4.273h-2.158c-.303 0-.549-.248-.549-.553v-2.161c0-.091 0-.306.55-.306h2.217zm1.989 8.333v-1c.556 0 1.008-.452 1.008-1.008s-.452-1.008-1.008-1.008v-1c1.107 0 2.008.901 2.008 2.008s-.901 2.008-2.008 2.008zm4.024-2c0 2.206-1.794 4-4 4v-1c1.654 0 3-1.346 3-3s-1.346-3-3-3v-1c2.205 0 4 1.795 4 4z"/></svg>