<svg height="17" viewBox="0 0 17 17" width="17" xmlns="http://www.w3.org/2000/svg"><path d="m1.564 2c-.854 0-1.55.69-1.55 1.538h-.014v10.939c0 .848.695 1.538 1.55 1.538h13.492v-1.655h1.958v-12.36zm-.014 13.014c-.303 0-.55-.241-.55-.538v-9.583c.024.007.054.005.078.012.143.042.293.068.453.071.007 0 .012.003.019.003h12.493v3.035h-2.859c-.862 0-1.563.673-1.563 1.5v1c0 .827.701 1.5 1.563 1.5h2.859v3zm9.633-4c-.311 0-.563-.224-.563-.5v-1c0-.276.253-.5.563-.5h4.817v2zm4.817 2.345h-.958v-1.345h.958zm-.958-5.345v-4.035h-13.478c-.273 0-.55-.137-.55-.441.001-.297.248-.538.55-.538h14.436v5.014z"/></svg>