<svg height="17" viewBox="0 0 17 17" width="17" xmlns="http://www.w3.org/2000/svg"><path d="m10.901 12.85.977.213c-.505 2.318-2.511 3.937-4.878 3.937-2.757 0-5-2.243-5-5 0-2.27 1.531-4.259 3.725-4.836l.254.967c-1.754.462-2.979 2.053-2.979 3.869 0 2.206 1.794 4 4 4 1.893 0 3.497-1.295 3.901-3.15zm5.099 2.271v1h-1.868l-.955-4.118h-6.158l-.544-8.082c-.847-.233-1.475-1.001-1.475-1.921 0-1.103.897-2 2-2s2 .897 2 2c0 .938-.65 1.72-1.521 1.936l.27 4.011 3.632-.901.24.971-3.805.943.138 2.042h6.018l.955 4.118h1.073zm-9-12.121c.552 0 1-.449 1-1s-.448-1-1-1-1 .449-1 1 .448 1 1 1z"/></svg>