<svg height="17" viewBox="0 0 17 17" width="17" xmlns="http://www.w3.org/2000/svg"><path d="m2 0h1v1h-1zm3 0h-1v1h1zm2 0h-1v1h1zm2 0h-1v1h1zm2 0h-1v1h1zm2 0h-1v1h1zm1 1h1v-1h-1zm-12 16h1v-1h-1zm2 0h1v-1h-1zm2 0h1v-1h-1zm2 0h1v-1h-1zm2 0h1v-1h-1zm2 0h1v-1h-1zm2 0h1v-1h-1zm2-17v1h1v-1zm0 3h1v-1h-1zm0 2h1v-1h-1zm0 2h1v-1h-1zm0 2h1v-1h-1zm0 2h1v-1h-1zm0 2h1v-1h-1zm0 2h1v-1h-1zm0 2h1v-1h-1zm-16-16h1v-1h-1zm0 2h1v-1h-1zm0 2h1v-1h-1zm0 2h1v-1h-1zm0 2h1v-1h-1zm0 2h1v-1h-1zm0 2h1v-1h-1zm0 2h1v-1h-1zm0 2h1v-1h-1zm8.498-6.957-4.144-4.147-.708.708 4.852 4.854 4.855-4.854-.707-.707z"/></svg>