<svg height="17" viewBox="0 0 17 17" width="17" xmlns="http://www.w3.org/2000/svg"><path d="m2 0h1v1h-1zm3 0h-1v1h1zm2 0h-1v1h1zm2 0h-1v1h1zm2 0h-1v1h1zm2 0h-1v1h1zm1 1h1v-1h-1zm-12 16h1v-1h-1zm2 0h1v-1h-1zm2 0h1v-1h-1zm2 0h1v-1h-1zm2 0h1v-1h-1zm2 0h1v-1h-1zm2 0h1v-1h-1zm2-17v1h1v-1zm0 3h1v-1h-1zm0 2h1v-1h-1zm0 2h1v-1h-1zm0 2h1v-1h-1zm0 2h1v-1h-1zm0 2h1v-1h-1zm0 2h1v-1h-1zm0 2h1v-1h-1zm-16-16h1v-1h-1zm0 2h1v-1h-1zm0 2h1v-1h-1zm0 2h1v-1h-1zm0 2h1v-1h-1zm0 2h1v-1h-1zm0 2h1v-1h-1zm0 2h1v-1h-1zm0 2h1v-1h-1zm13.465-9.071c.021.187.035.377.035.571s-.014.384-.035.571l-.037.328-1.439.432c-.025.065-.051.129-.08.193l.711 1.322-.205.258c-.238.299-.511.572-.811.811l-.258.206-1.322-.712c-.063.028-.128.055-.193.08l-.431 1.438-.327.038c-.188.022-.379.035-.573.035s-.385-.013-.573-.035l-.327-.038-.432-1.438c-.065-.025-.129-.051-.193-.08l-1.323.711-.258-.205c-.299-.238-.572-.511-.81-.811l-.204-.257.711-1.322c-.029-.065-.055-.129-.08-.194l-1.439-.432-.037-.328c-.021-.187-.035-.377-.035-.571s.014-.384.035-.571l.037-.328 1.439-.432c.025-.065.051-.129.08-.193l-.711-1.322.204-.258c.237-.298.51-.571.811-.811l.258-.206 1.322.712c.063-.029.128-.055.193-.08l.432-1.438.327-.038c.376-.044.77-.044 1.146 0l.327.038.432 1.438c.065.024.129.051.193.08l1.322-.712.258.206c.299.238.572.511.81.81l.205.258-.711 1.323c.028.063.055.128.08.192l1.439.433zm-.965.571c0-.045-.001-.09-.003-.135l-1.303-.391-.076-.26c-.052-.175-.123-.348-.211-.512l-.127-.237.642-1.193c-.062-.066-.126-.131-.193-.193l-1.192.642-.239-.128c-.164-.088-.337-.16-.513-.212l-.26-.077-.39-1.301c-.089-.004-.181-.004-.27 0l-.39 1.302-.26.077c-.178.053-.35.124-.512.211l-.237.129-1.194-.643c-.067.063-.131.127-.193.193l.642 1.193-.128.237c-.088.164-.16.336-.212.514l-.077.259-1.301.39c-.002.045-.003.09-.003.135s.001.09.003.134l1.302.391.077.26c.052.177.124.35.212.514l.127.237-.642 1.193c.062.066.126.131.193.193l1.193-.642.237.127c.164.088.337.16.513.212l.26.077.391 1.302c.089.004.181.004.27 0l.391-1.301.259-.077c.177-.052.35-.124.514-.212l.237-.127 1.192.642c.067-.062.131-.127.193-.193l-.642-1.193.127-.237c.088-.164.16-.336.212-.514l.077-.259 1.301-.391c.002-.046.003-.091.003-.136z"/></svg>