<svg height="17" viewBox="0 0 17 17" width="17" xmlns="http://www.w3.org/2000/svg"><path d="m2 0h1v1h-1zm2 1h1v-1h-1zm2 0h1v-1h-1zm2 0h1v-1h-1zm2 0h1v-1h-1zm2 0h1v-1h-1zm2 0h1v-1h-1zm-12 8h1v-1h-1zm2 0h1v-1h-1zm2 0h1v-1h-1zm4 0h1v-1h-1zm2 0h1v-1h-1zm2 0h1v-1h-1zm-12 8h1v-1h-1zm2 0h1v-1h-1zm2 0h1v-1h-1zm2 0h1v-1h-1zm2 0h1v-1h-1zm2 0h1v-1h-1zm2 0h1v-1h-1zm2-17v1h1v-1zm0 3h1v-1h-1zm0 2h1v-1h-1zm0 2h1v-1h-1zm0 2h1v-1h-1zm0 2h1v-1h-1zm0 2h1v-1h-1zm0 2h1v-1h-1zm-8-12h1v-1h-1zm0 2h1v-1h-1zm0 2h1v-1h-1zm0 2h1v-1h-1zm0 2h1v-1h-1zm0 2h1v-1h-1zm0 2h1v-1h-1zm8 2h1v-1h-1zm-16-16h1v-1h-1zm0 2h1v-1h-1zm0 2h1v-1h-1zm0 2h1v-1h-1zm0 2h1v-1h-1zm0 2h1v-1h-1zm0 2h1v-1h-1zm0 2h1v-1h-1zm0 2h1v-1h-1z"/></svg>