<svg height="17" viewBox="0 0 17 17" width="17" xmlns="http://www.w3.org/2000/svg"><path d="m16.5 8.5c0 4.41-3.589 8-8 8s-8-3.59-8-8 3.589-8 8-8 8 3.59 8 8zm-.366 0c0-4.205-3.428-7.634-7.634-7.634s-7.634 3.429-7.634 7.634 3.428 7.634 7.634 7.634 7.634-3.429 7.634-7.634zm-13.902-2.795 3.277 8.974c-2.295-1.117-3.875-3.465-3.875-6.179 0-.99.215-1.938.598-2.795zm10.375 4.67-.679 2.286-2.482-7.374s.411-.027.786-.072c.366-.045.322-.59-.044-.562-1.116.08-1.831.089-1.831.089s-.669-.01-1.803-.09c-.375-.027-.42.535-.045.562.348.036.714.073.714.073l1.071 2.928-1.5 4.5-2.5-7.428s.411-.027.786-.072c.366-.045.322-.59-.044-.562-1.108.08-1.831.089-1.831.089-.125 0-.276-.009-.437-.009 1.223-1.867 3.33-3.099 5.732-3.099 1.786 0 3.411.688 4.634 1.804-.027 0-.062 0-.089 0-.67 0-1.152.581-1.152 1.215 0 .562.33 1.036.678 1.606.269.456.562 1.045.562 1.894.001.587-.239 1.267-.526 2.222zm-1.876 4.501c.009.035.027.07.045.098-.714.25-1.473.393-2.277.393-.669 0-1.321-.1-1.938-.286l2.054-5.981zm4.635-6.376c0 2.535-1.375 4.741-3.42 5.929l2.098-6.054c.348-1.001.527-1.767.527-2.465 0-.249-.018-.482-.054-.705.537.982.849 2.099.849 3.295z"/></svg>