<svg height="17" viewBox="0 0 17 17" width="17" xmlns="http://www.w3.org/2000/svg"><path d="m8.516 0c-4.687 0-8.5 3.813-8.5 8.5s3.813 8.5 8.5 8.5 8.5-3.813 8.5-8.5-3.814-8.5-8.5-8.5zm-7.475 9h2.937c.044 1.024.211 2.031.513 3h-2.603c-.481-.906-.776-1.923-.847-3zm2.937-1h-2.937c.071-1.077.366-2.094.847-3h2.6c-.301.969-.467 1.976-.51 3zm1.569-3h5.896c.33.965.522 1.972.569 3h-7.034c.046-1.028.239-2.035.569-3zm-.569 4h7.035c-.049 1.028-.241 2.035-.572 3h-5.891c-.331-.965-.524-1.972-.572-3zm8.035 0h2.978c-.071 1.077-.366 2.094-.847 3h-2.644c.302-.969.469-1.976.513-3zm0-1c-.043-1.024-.209-2.031-.51-3h2.641c.48.906.775 1.923.847 3zm1.489-4h-2.354c-.392-.955-.916-1.858-1.55-2.7 1.578.457 2.938 1.42 3.904 2.7zm-5.428-2.972c.824.897 1.484 1.9 1.972 2.972h-5.102c.487-1.071 1.146-2.073 1.97-2.97.199-.015.398-.03.602-.03.188 0 .373.015.558.028zm-2.691.285c-.629.838-1.151 1.737-1.54 2.687h-2.314c.955-1.267 2.297-2.224 3.854-2.687zm-3.854 11.687h2.317c.391.951.915 1.851 1.547 2.689-1.561-.461-2.907-1.419-3.864-2.689zm5.397 2.97c-.826-.897-1.488-1.899-1.978-2.97h5.094c-.49 1.072-1.152 2.075-1.979 2.972-.181.013-.363.028-.547.028-.2 0-.395-.015-.59-.03zm2.661-.267c.636-.842 1.164-1.747 1.557-2.703h2.358c-.968 1.283-2.332 2.247-3.915 2.703z"/></svg>