<svg height="17" viewBox="0 0 17 17" width="17" xmlns="http://www.w3.org/2000/svg"><path d="m9.667 0h-7.667v17h13v-11.692zm.333 1.742 3.273 3.258h-3.273zm-7 14.258v-15h3v1h1v-1h2v5h5v10zm2-8h1v1h-1zm1 0v-1h1v1zm0-2v-1h1v1zm-1 0h1v1h-1zm0-2h1v1h-1zm1 0v-1h1v1zm-1-2h1v1h-1zm1 7.389c-1.103 0-2 .897-2 2s.897 2 2 2c.062 0 .121-.007.219-.02.646-.071 1.218-.455 1.531-1.026.166-.303.25-.624.25-.954 0-1.103-.897-2-2-2zm.873 2.475c-.156.285-.441.477-.762.512l-.112.014c-.551 0-.999-.449-.999-1s.449-1 1-1 1 .449 1 1c0 .159-.043.319-.127.474z"/></svg>