<svg height="17" viewBox="0 0 17 17" width="17" xmlns="http://www.w3.org/2000/svg"><path d="m16.604 15.896-5.173-5.173c.975-1.137 1.569-2.61 1.569-4.223 0-3.584-2.916-6.5-6.5-6.5-1.737 0-3.369.676-4.597 1.904-1.228 1.227-1.903 2.86-1.903 4.596 0 3.584 2.916 6.5 6.5 6.5 1.612 0 3.086-.594 4.224-1.569l5.173 5.173zm-10.104-3.896c-3.033 0-5.5-2.467-5.5-5.5 0-1.47.571-2.851 1.61-3.89 1.039-1.038 2.42-1.61 3.89-1.61 3.033 0 5.5 2.467 5.5 5.5s-2.467 5.5-5.5 5.5zm.5-6h2v1h-2v2h-1v-2h-2v-1h2v-2h1z"/></svg>