<svg height="20" viewBox="0 0 100 20" width="100" xmlns="http://www.w3.org/2000/svg"><path d="m1 8.98829792h99l-1 2.00212768h-99zm5.73645859-7.27126856c1.31667329-1.318074 3.39140271-1.87728543 6.22418821-1.67763431.199439 2.83579912-.3591782 4.91273568-1.6758515 6.23080968-1.31667327 1.318074-3.39140268 1.87728543-6.22418821 1.67763431-.19943896-2.83579912.35917821-4.91273568 1.6758515-6.23080968zm10.00000001 16.56594124c-1.3166733-1.318074-1.8752905-3.3950105-1.6758515-6.2308096 2.8327855-.1996512 4.9075149.3595603 6.2241882 1.6776343s1.8752905 3.3950105 1.6758515 6.2308097c-2.8327855.1996511-4.9075149-.3595604-6.2241882-1.6776344zm20 0c-1.3166733-1.318074-1.8752905-3.3950105-1.6758515-6.2308096 2.8327855-.1996512 4.9075149.3595603 6.2241882 1.6776343s1.8752905 3.3950105 1.6758515 6.2308097c-2.8327855.1996511-4.9075149-.3595604-6.2241882-1.6776344zm20 0c-1.3166733-1.318074-1.8752905-3.3950105-1.6758515-6.2308096 2.8327855-.1996512 4.9075149.3595603 6.2241882 1.6776343s1.8752905 3.3950105 1.6758515 6.2308097c-2.8327855.1996511-4.9075149-.3595604-6.2241882-1.6776344zm20 0c-1.3166733-1.318074-1.8752905-3.3950105-1.6758515-6.2308096 2.8327855-.1996512 4.9075149.3595603 6.2241882 1.6776343s1.8752905 3.3950105 1.6758515 6.2308097c-2.8327855.1996511-4.9075149-.3595604-6.2241882-1.6776344zm-50-16.56594124c1.3166733-1.318074 3.3914027-1.87728543 6.2241882-1.67763431.199439 2.83579912-.3591782 4.91273568-1.6758515 6.23080968s-3.3914027 1.87728543-6.2241882 1.67763431c-.199439-2.83579912.3591782-4.91273568 1.6758515-6.23080968zm20 0c1.3166733-1.318074 3.3914027-1.87728543 6.2241882-1.67763431.199439 2.83579912-.3591782 4.91273568-1.6758515 6.23080968s-3.3914027 1.87728543-6.2241882 1.67763431c-.199439-2.83579912.3591782-4.91273568 1.6758515-6.23080968zm20 0c1.3166733-1.318074 3.3914027-1.87728543 6.2241882-1.67763431.199439 2.83579912-.3591782 4.91273568-1.6758515 6.23080968s-3.3914027 1.87728543-6.2241882 1.67763431c-.199439-2.83579912.3591782-4.91273568 1.6758515-6.23080968zm20 0c1.3166733-1.318074 3.3914027-1.87728543 6.2241882-1.67763431.199439 2.83579912-.3591782 4.91273568-1.6758515 6.23080968s-3.3914027 1.87728543-6.2241882 1.67763431c-.199439-2.83579912.3591782-4.91273568 1.6758515-6.23080968z" fill-rule="evenodd"/></svg>