<svg height="20" viewBox="0 0 100 20" width="100" xmlns="http://www.w3.org/2000/svg"><path d="m4.02196418 14.7329178c.82898145-.2174984 1.65782059-.4113647 2.48336117-.6010564.82563262-.1891954 1.65841224-.3178967 2.47924759-.4926985 1.64512716-.3346276 3.26553106-.7293575 4.84950316-1.3400374-.7797711-.4199531-2.2127661.4801651-3.2073762-.0648237 1.012827-.3278894 1.9930378-.6449812 2.9576291-.9572307.2414415-.0780043.482063-.1555495.7218185-.2328837.2416422-.067162.482635-.1341658.7231947-.2010642.4817502-.1316164.962031-.2626156 1.4424822-.3939156 1.9069845-.50629034 3.8279036-.996008 5.7631033-1.41970842 1.941648-.37185269 3.8921354-.72044592 5.8454914-1.06455169l1.4652715-.25762267 1.4711896-.20253402 2.9424576-.40586508c.9807467-.14218573 1.960798-.28446135 2.9401537-.42682687.4891294-.08206996.9805229-.12631308 1.4707953-.18636053l1.4702734-.17819468c1.8519092-.22863366 3.736902-.42772605 5.5030561-.90645228.4644699-.11132954 1.0545992-.20270357 1.5252222-.15397976 1.1580422.1195777 2.3055992.14602294 3.449725.1185889.5721482-.01386744 1.1432024-.04095271 1.7142075-.07684266l.8560826-.05917695.856254-.03873297c2.2832025-.10161109 4.5739686-.26003913 6.8856599-.15802761 2.2889391.17575338 4.5885341.33698254 6.8957304.43671795 1.154769.03117124 2.3062675.14352633 3.4608137.21131505 1.1542135.07331531 2.3099906.13432133 3.4668523.18287542.6926725.02963992 1.3889938.08017331 2.0920461.14747831.6991595.09755567 1.4075308.19597913 2.1252517.29601471 1.4380669.20202485 2.9156536.39753443 4.472205.48201131-1.4387371-.58383021-2.8796706-.45971843-4.3650728-1.00236001 1.4746711-.51559544 3.1204146-.29181211 4.5536081-.14046279 1.2097689.10568051 2.4085563.32294775 3.6118179.50333983l3.60895.57327513 1.8052342.29073127 1.7969323.3557668 3.5961717.68737405c2.6005949.47998746 2.6186689.63843357 1.6881699 1.77010656-.685458.830301-1.9810688 1.4451591-.7687188 2.8579283.6946581.8174689-2.2080425 1.9415419-4.1316275 1.7934794-.7530554-.0587546-1.5103903-.1405829-2.2685514-.2390653-.3785043-.052234-.7570546-.1047161-1.1356509-.1574464-.3815455-.0442324-.7631371-.0887129-1.1447287-.1331934-1.528253-.1880942-3.0547949-.4157616-4.5716671-.6278919-.7098458-.0941746-1.4174305-.2127568-2.1294894-.2944638l-2.1363168-.2336772c-1.4245319-.165647-2.8491098-.3315421-4.2743832-.4975271-.3561539-.0403046-.7115045-.0909181-1.0684428-.1232522l-1.0720051-.0863398-2.1435907-.1740784-4.2845753-.3438646-4.1421088-.1661918-2.0702344-.0835549c-.6900256-.0214681-1.379024-.0691177-2.0700003-.053013-.9284549.0044583-1.927702.0590945-2.6131134.3857976-.7820744.3728104-1.6504783.5400107-2.5425687.592919-.892193.0596754-1.8079469-.0284232-2.6820917-.060533-1.2417725-.0696193-2.411673.0372199-3.6041141.0603461-.6479142.0079486-1.2949165.0159343-1.9414399.0240627-.6467209.0058427-1.2933833-.0075181-1.9383358.026159-1.2903663.0441283-2.5799701.0740679-3.869623.0952029l-1.9343931.0254579c-.6450811.0049246-1.290203.0059694-1.9332637.0461871l-3.8642288.1706457c-.908785.0421942-1.8213423.0847887-2.7328172.1271195-.9106895.0551052-1.8173453.1429385-2.7216405.1910405-1.8079108.1071888-3.5984062.1326006-5.3442179-.0097572-1.555858-.0721987-2.9102531.6161026-4.4717119.6759622-.8655012.0303537-1.7314354.0608129-2.599843.091356-.4359414.0089527-.868507.0458668-1.3026664.0839471-.4341782.0404188-.8692224.0810484-1.3053951.1216937-1.7451769.1782582-3.50922288.4280158-5.2951398.8477652-1.2543373.3250047-2.35935841.3229457-3.30881862-.027406zm-4.02196418-2.2345561c1.300637-.74717 2.69428745-1.3216863 4.12716144-1.81355.71679831-.244577 1.442687-.4741284 2.17384476-.6843029.73669054-.18038713 1.47463631-.36151352 2.21114198-.54188581.76294445-.18547158 1.55782152-.28600308 2.31800082-.47721408.5757672-.14471123 1.1365219-.2584143 1.6820884-.33790173.5469134-.0695894 1.080778-.08512263 1.597987-.07526416 1.0347284.02480152 2.0072389.1959503 2.9155316.53851511-1.2689966.39804408-2.5433165.72711155-3.8232105 1.00744737-1.2769543.3041572-2.5533412.6084818-3.83739243.8572168-.64145555.1276216-1.28409004.2480994-1.92739156.3637341l-.96542993.1701904-.96021906.2038358c-1.28124998.2672451-2.56211731.5346724-3.84134676.8015427-.48378087.1026379-1.02014863.2963505-1.67076576-.0123636z" fill-rule="evenodd"/></svg>