<svg height="100" viewBox="0 0 20 100" width="20" xmlns="http://www.w3.org/2000/svg"><path d="m14.7329178 4.02196418c.3503517.94946021.3524107 2.05448132.027406 3.30881862-.4197494 1.78591692-.669507 3.5499629-.8477652 5.2951398-.0406453.4361727-.0812749.8712169-.1216937 1.3053951-.0380803.4341594-.0749944.866725-.0839471 1.3026664-.0305431.8684076-.0610023 1.7343418-.091356 2.599843-.0598596 1.5614588-.7481609 2.9158539-.6759622 4.4717119.1423578 1.7458117.116946 3.5363071.0097572 5.3442179-.048102.9042952-.1359353 1.810951-.1910405 2.7216405-.0423308.9114749-.0849253 1.8240322-.1271195 2.7328172l-.1706457 3.8642288c-.0402177.6430607-.0412625 1.2881826-.0461871 1.9332637l-.0254579 1.9343931c-.021135 1.2896529-.0510746 2.5792567-.0952029 3.869623-.0336771.6449525-.0203163 1.2916149-.026159 1.9383358-.0081284.6465234-.0161141 1.2935257-.0240627 1.9414399-.0231262 1.1924411-.1299654 2.3623416-.0603461 3.6041141.0321098.8741448.1202084 1.7898987.060533 2.6820917-.0529083.8920904-.2201086 1.7604943-.592919 2.5425687-.3267031.6854114-.3813393 1.6846585-.3857976 2.6131134-.0161047.6909763.0315449 1.3799747.053013 2.0700003l.0835549 2.0702344.1661918 4.1421088.3438646 4.2845753.1740784 2.1435907.0863398 1.0720051c.0323341.3569383.0829476.7122889.1232522 1.0684428.165985 1.4252734.3318801 2.8498513.4975271 4.2743832l.2336772 2.1363168c.081707.7120589.2002892 1.4196436.2944638 2.1294894.2121303 1.5168722.4397977 3.0434141.6278919 4.5716671.0444805.3815916.088961.7631832.1331934 1.1447287.0527303.3785963.1052124.7571466.1574464 1.1356509.0984824.7581611.1803107 1.515496.2390653 2.2685514.1480625 1.923585-.9760105 4.8262856-1.7934794 4.1316275-1.4127692-1.21235-2.0276273.0832608-2.8579283.7687188-1.13167299.930499-1.2901191.912425-1.77010656-1.6881699l-.68737405-3.5961717-.3557668-1.7969323-.29073127-1.8052342-.57327513-3.60895c-.18039208-1.2032616-.39765932-2.402049-.50333983-3.6118179-.15134932-1.4331935-.37513265-3.078937.14046279-4.5536081.54264158 1.4854022.4185298 2.9263357 1.00236001 4.3650728-.08447688-1.5565514-.27998646-3.0341381-.48201131-4.472205-.10003558-.7177209-.19845904-1.4260922-.29601471-2.1252517-.067305-.7030523-.11783839-1.3993736-.14747831-2.0920461-.04855409-1.1568617-.10956011-2.3126388-.18287542-3.4668523-.06778872-1.1545462-.18014381-2.3060447-.21131505-3.4608137-.09973541-2.3071963-.26096457-4.6067913-.43671795-6.8957304-.10201152-2.3116913.05641652-4.6024574.15802761-6.8856599l.03873297-.856254.05917695-.8560826c.03588995-.5710051.06297522-1.1420593.07684266-1.7142075.02743404-1.1441258.0009888-2.2916828-.1185889-3.449725-.04872381-.470623.04265022-1.0607523.15397976-1.5252222.47872623-1.7661541.67781862-3.6511469.90645228-5.5030561l.17819468-1.4702734c.06004745-.4902724.10429057-.9816659.18636053-1.4707953.14236552-.9793557.28464114-1.959407.42682687-2.9401537l.40586508-2.9424576.20253402-1.4711896.25762267-1.4652715c.34410577-1.953356.692699-3.9038434 1.06455169-5.8454914.42370042-1.9351997.91341808-3.8561188 1.41970842-5.7631033.1313-.4804512.2622992-.960732.3939156-1.4424822.0668984-.2405597.1339022-.4815525.2010642-.7231947.0773342-.2397555.1548794-.480377.2328837-.7218185.3122495-.9645913.6293413-1.9448021.9572307-2.9576291.5449888.9946101-.3551294 2.4276051.0648237 3.2073762.6106799-1.5839721 1.0054098-3.204376 1.3400374-4.84950316.1748018-.82083535.3035031-1.65361497.4926985-2.47924759.1896917-.82554058.383558-1.65437972.6010564-2.48336117zm-2.2345561-4.02196418c.3087141.65061713.1150015 1.18698489.0123636 1.67076576-.2668703 1.27922945-.5342976 2.56009678-.8015427 3.84134676l-.2038358.96021906-.1701904.96542993c-.1156347.64330152-.2361125 1.28593601-.3637341 1.92739156-.248735 1.28405123-.5530596 2.56043813-.8572168 3.83739243-.28033582 1.279894-.60940329 2.5542139-1.00744737 3.8232105-.34256481-.9082927-.51371359-1.8808032-.53851511-2.9155316-.00985847-.517209.00567476-1.0510736.07526416-1.597987.07948743-.5455665.1931905-1.1063212.33790173-1.6820884.191211-.7601793.2917425-1.55505637.47721408-2.31800082.18037229-.73650567.36149868-1.47445144.54188581-2.21114198.2101745-.73115776.4397259-1.45704645.6843029-2.17384476.4918637-1.43287399 1.06638-2.82652444 1.81355-4.12716144z" fill-rule="evenodd"/></svg>