<svg height="100" viewBox="0 0 20 100" width="20" xmlns="http://www.w3.org/2000/svg"><path d="m8.98829792 99v-99l2.00212768 1v99zm-7.27126856-5.7364586c-1.318074-1.3166733-1.87728543-3.3914027-1.67763431-6.2241882 2.83579912-.199439 4.91273568.3591782 6.23080968 1.6758515s1.87728543 3.3914027 1.67763431 6.2241882c-2.83579912.199439-4.91273568-.3591782-6.23080968-1.6758515zm16.56594124-10c-1.318074 1.3166733-3.3950105 1.8752905-6.2308096 1.6758515-.1996512-2.8327855.3595603-4.9075149 1.6776343-6.2241882s3.3950105-1.8752905 6.2308097-1.6758515c.1996511 2.8327855-.3595604 4.9075149-1.6776344 6.2241882zm0-20c-1.318074 1.3166733-3.3950105 1.8752905-6.2308096 1.6758515-.1996512-2.8327855.3595603-4.9075149 1.6776343-6.2241882s3.3950105-1.8752905 6.2308097-1.6758515c.1996511 2.8327855-.3595604 4.9075149-1.6776344 6.2241882zm0-20c-1.318074 1.3166733-3.3950105 1.8752905-6.2308096 1.6758515-.1996512-2.8327855.3595603-4.9075149 1.6776343-6.2241882s3.3950105-1.8752905 6.2308097-1.6758515c.1996511 2.8327855-.3595604 4.9075149-1.6776344 6.2241882zm0-20c-1.318074 1.3166733-3.3950105 1.8752905-6.2308096 1.6758515-.1996512-2.8327855.3595603-4.9075149 1.6776343-6.2241882s3.3950105-1.8752905 6.2308097-1.6758515c.1996511 2.8327855-.3595604 4.9075149-1.6776344 6.2241882zm-16.56594124 50c-1.318074-1.3166733-1.87728543-3.3914027-1.67763431-6.2241882 2.83579912-.199439 4.91273568.3591782 6.23080968 1.6758515s1.87728543 3.3914027 1.67763431 6.2241882c-2.83579912.199439-4.91273568-.3591782-6.23080968-1.6758515zm0-20c-1.318074-1.3166733-1.87728543-3.3914027-1.67763431-6.2241882 2.83579912-.199439 4.91273568.3591782 6.23080968 1.6758515s1.87728543 3.3914027 1.67763431 6.2241882c-2.83579912.199439-4.91273568-.3591782-6.23080968-1.6758515zm0-20c-1.318074-1.3166733-1.87728543-3.3914027-1.67763431-6.2241882 2.83579912-.199439 4.91273568.3591782 6.23080968 1.6758515s1.87728543 3.3914027 1.67763431 6.2241882c-2.83579912.199439-4.91273568-.3591782-6.23080968-1.6758515zm0-20c-1.318074-1.3166733-1.87728543-3.39140268-1.67763431-6.22418822 2.83579912-.19943895 4.91273568.35917822 6.23080968 1.6758515 1.318074 1.31667332 1.87728543 3.39140272 1.67763431 6.22418822-2.83579912.199439-4.91273568-.3591782-6.23080968-1.6758515z" fill-rule="evenodd"/></svg>