<svg height="20" viewBox="0 0 100 20" width="100" xmlns="http://www.w3.org/2000/svg"><path d="m0 8v-4c3.40744916 0 4.98480294 1.40209225 7.19599661 4.94000212 1.53880633 2.46209018 2.21145255 3.05999788 3.80400339 3.05999788 1.5925508 0 2.2651971-.5979077 3.8040034-3.05999788 2.2111937-3.53790987 3.7885474-4.94000212 7.1959966-4.94000212s4.9848029 1.40209225 7.1959966 4.94000212c1.5388063 2.46209018 2.2114526 3.05999788 3.8040034 3.05999788s2.2651971-.5979077 3.8040034-3.05999788c2.2111937-3.53790987 3.7885474-4.94000212 7.1959966-4.94000212s4.9848029 1.40209225 7.1959966 4.94000212c1.5388063 2.46209018 2.2114526 3.05999788 3.8040034 3.05999788s2.2651971-.5979077 3.8040034-3.05999788c2.2111937-3.53790987 3.7885474-4.94000212 7.1959966-4.94000212s4.9848029 1.40209225 7.1959966 4.94000212c1.5388063 2.46209018 2.2114526 3.05999788 3.8040034 3.05999788s2.2651971-.5979077 3.8040034-3.05999788c2.2111937-3.53790987 3.7885474-4.94000212 7.1959966-4.94000212s4.9848029 1.40209225 7.1959966 4.94000212c1.5388063 2.46209018 2.2114526 3.05999788 3.8040034 3.05999788h1v4h-1c-3.4074492 0-4.9848029-1.4020923-7.1959966-4.9400021-1.5388063-2.46209015-2.2114526-3.0599979-3.8040034-3.0599979s-2.2651971.59790775-3.8040034 3.0599979c-2.2111937 3.5379098-3.7885474 4.9400021-7.1959966 4.9400021s-4.9848029-1.4020923-7.1959966-4.9400021c-1.5388063-2.46209015-2.2114526-3.0599979-3.8040034-3.0599979s-2.2651971.59790775-3.8040034 3.0599979c-2.2111937 3.5379098-3.7885474 4.9400021-7.1959966 4.9400021s-4.9848029-1.4020923-7.1959966-4.9400021c-1.5388063-2.46209015-2.2114526-3.0599979-3.8040034-3.0599979s-2.2651971.59790775-3.8040034 3.0599979c-2.2111937 3.5379098-3.7885474 4.9400021-7.1959966 4.9400021s-4.9848029-1.4020923-7.1959966-4.9400021c-1.5388063-2.46209015-2.2114526-3.0599979-3.8040034-3.0599979s-2.2651971.59790775-3.8040034 3.0599979c-2.2111937 3.5379098-3.7885474 4.9400021-7.1959966 4.9400021-3.40744916 0-4.98480294-1.4020923-7.19599661-4.9400021-1.53880633-2.46209015-2.21145255-3.0599979-3.80400339-3.0599979z"/></svg>