<svg height="100" viewBox="0 0 20 100" width="20" xmlns="http://www.w3.org/2000/svg"><path d="m12 0h4c0 3.40744916-1.4020923 4.98480294-4.9400021 7.19599661-2.46209015 1.53880633-3.0599979 2.21145255-3.0599979 3.80400339 0 1.5925508.59790775 2.2651971 3.0599979 3.8040034 3.5379098 2.2111937 4.9400021 3.7885474 4.9400021 7.1959966s-1.4020923 4.9848029-4.9400021 7.1959966c-2.46209015 1.5388063-3.0599979 2.2114526-3.0599979 3.8040034s.59790775 2.2651971 3.0599979 3.8040034c3.5379098 2.2111937 4.9400021 3.7885474 4.9400021 7.1959966s-1.4020923 4.9848029-4.9400021 7.1959966c-2.46209015 1.5388063-3.0599979 2.2114526-3.0599979 3.8040034s.59790775 2.2651971 3.0599979 3.8040034c3.5379098 2.2111937 4.9400021 3.7885474 4.9400021 7.1959966s-1.4020923 4.9848029-4.9400021 7.1959966c-2.46209015 1.5388063-3.0599979 2.2114526-3.0599979 3.8040034s.59790775 2.2651971 3.0599979 3.8040034c3.5379098 2.2111937 4.9400021 3.7885474 4.9400021 7.1959966s-1.4020923 4.9848029-4.9400021 7.1959966c-2.46209015 1.5388063-3.0599979 2.2114526-3.0599979 3.8040034v1h-4v-1c0-3.4074492 1.40209225-4.9848029 4.94000212-7.1959966 2.46209018-1.5388063 3.05999788-2.2114526 3.05999788-3.8040034s-.5979077-2.2651971-3.05999788-3.8040034c-3.53790987-2.2111937-4.94000212-3.7885474-4.94000212-7.1959966s1.40209225-4.9848029 4.94000212-7.1959966c2.46209018-1.5388063 3.05999788-2.2114526 3.05999788-3.8040034s-.5979077-2.2651971-3.05999788-3.8040034c-3.53790987-2.2111937-4.94000212-3.7885474-4.94000212-7.1959966s1.40209225-4.9848029 4.94000212-7.1959966c2.46209018-1.5388063 3.05999788-2.2114526 3.05999788-3.8040034s-.5979077-2.2651971-3.05999788-3.8040034c-3.53790987-2.2111937-4.94000212-3.7885474-4.94000212-7.1959966s1.40209225-4.9848029 4.94000212-7.1959966c2.46209018-1.5388063 3.05999788-2.2114526 3.05999788-3.8040034s-.5979077-2.2651971-3.05999788-3.8040034c-3.53790987-2.2111937-4.94000212-3.7885474-4.94000212-7.1959966 0-3.40744916 1.40209225-4.98480294 4.94000212-7.19599661 2.46209018-1.53880633 3.05999788-2.21145255 3.05999788-3.80400339z"/></svg>