<svg height="150" viewBox="0 0 150 150" width="150" xmlns="http://www.w3.org/2000/svg"><path d="m67.0606199 79.3764476c-.0253896-.0143739-.0761275-.0538886-.1367752-.1262568-.0989149-.1180309-.1635544-.2638616-.1812613-.3881527-.0031882-.0223799-.0079781.0267192-.0461093.1556796-.0274242.0927491-.0492178.1858254-.0655799.2788624.0439852.003162.0871873.0073725.1294234.012696.1286073.0162098.2264814.039774.2865399.0623902zm-.4297257-.0798675c-.7668204-.0551257-1.7716498.2083993-2.0458355.4483522-2.7930845 2.4447913-1.4879447 7.800893 2.2466741 10.3797318 5.9584033 4.1140899 14.7288065 1.042269 18.5270986-5.9963857 5.1503878-9.5439431.2435567-22.0795046-9.9943591-27.0639735-12.7924813-6.2284357-28.7502446.6448041-34.7556877 14.3510989-7.1839426 16.394345 1.5458635 36.2312042 18.4129446 43.3751302 19.534926 8.27248 42.7341548-2.503677 50.8358748-22.9439178 9.196059-23.2031006-3.410771-50.3744231-26.9447842-59.6117478-26.2572952-10.3067045-56.7138308 4.404492-66.8709489 31.601488-11.20406046 29.9992997 5.2996764 64.5167416 35.5174993 75.8274296 32.9712675 12.338161 70.6946438-6.322755 82.8884608-40.2855127 13.210995-36.79118-7.201152-78.6616764-44.1109175-92.02765137-1.2982127-.47011618-1.9695175-1.90362992-1.4994013-3.20184256.4701161-1.29821264 1.9036299-1.96951747 3.2018425-1.4994013 39.4716693 14.29370623 61.2677123 59.00292543 47.1143243 98.41856693-13.117007 36.53407-53.7097295 56.614388-89.3468766 43.278629-32.7651189-12.264153-50.63332347-49.6353695-38.4489277-82.2595546 11.1115269-29.7525488 44.4582179-45.8597558 73.3818411-34.5064448 26.0603842 10.2289494 40.0029532 40.2791705 29.7661062 66.1083402-9.105404 22.9724882-35.2311223 35.1080132-57.4339718 25.7057452-19.360721-8.200089-29.3783632-30.9633163-21.0427176-49.9859419 7.0986804-16.2014036 26.060843-24.3686816 41.5240736-16.8399048 12.6770204 6.1719803 18.7773467 21.7565834 12.2058114 33.9339884-5.1128181 9.4746167-17.1464901 13.6893923-25.7682924 7.7363096-6.116947-4.2238903-8.3343372-13.3237335-2.6986676-18.2566441 1.4386812-1.2590577 3.9752369-1.9009324 6.0935175-1.6339424 3.0986812.3905606 5.0880905 2.7644349 4.1056917 6.0869246-.3914958 1.3240454-1.7822168 2.0800263-3.1062622 1.6885305-1.2312964-.3640716-1.9713263-1.5922805-1.7541104-2.8273998z"/></svg>