<svg height="150" viewBox="0 0 150 150" width="150" xmlns="http://www.w3.org/2000/svg"><path d="m51.315701 38.1976465c-.0045925-11.7309892 7.7378289-23.4589455 23.2272642-35.1838691 15.4986202 11.7370548 23.2502266 23.4710768 23.254819 35.202066.0045273 11.5644282-7.5195311 23.1259091-22.5721751 34.6844427-.2168013.1664761-.2931966-9.4727733-.6550891-9.5005736s-.5357334 9.5925239-.8000986 9.3887873c-14.9653009-11.5332129-22.4502077-23.0634973-22.4547204-34.5908533zm0 74.5865105c-.0044893-11.467481 7.3939083-22.9320642 22.195193-34.3937489.3401148-.2633751.4847073 9.183604 1.0320712 9.2098794.547364.0262755.783516-9.4028513 1.167754-9.1042799 14.7202344 11.4383291 22.0825894 22.8737774 22.087065 34.3063464.0045925 11.730989-7.7378289 23.458945-23.2272642 35.183869-15.4986202-11.737055-23.2502266-23.471077-23.254819-35.202066zm-14.1456093-14.1566895c-11.7309892.0045925-23.4589455-7.7378289-35.1838691-23.2272642 11.7370548-15.4986202 23.4710768-23.2502266 35.202066-23.254819 11.4720781-.0044911 22.9412558 7.3998414 34.4075331 22.2129976.2587801.3343152-9.25525.5451105-9.223664 1.0142666s9.566177.5702127 9.349267.8513502c-11.5200327 14.9311383-23.0371437 22.3989612-34.551333 22.4034688zm74.6416193.1135741c-11.498776.0045016-22.9946381-7.4343446-34.4875864-22.3165386-.2320953-.3005396 9.3263733-.4828679 9.3037177-.9107256s-9.5959677-.5312252-9.393953-.7933952c11.5349357-14.9697691 23.0669417-22.4569104 34.5960187-22.4614238 11.730989-.0045925 23.458946 7.7378289 35.183869 23.2272642-11.737054 15.4986202-23.471076 23.2502266-35.202066 23.254819z" fill-rule="evenodd"/></svg>