<svg height="150" viewBox="0 0 150 150" width="150" xmlns="http://www.w3.org/2000/svg"><path d="m94.7977845 38.2170178c-.0039878-10.1862393-6.6531708-20.6750158-20.2551795-31.41192541-13.5914088 10.72487941-20.2308914 21.20649081-20.2269043 31.39137971.0039878 10.1862393 6.6531708 20.6750158 20.2551795 31.4119254 13.5914088-10.7248794 20.2308915-21.2064908 20.2269043-31.3913797zm-43.4820835-.0193713c-.0045925-11.7309892 7.7378289-23.4589455 23.2272642-35.1838691 15.4986202 11.7370548 23.2502266 23.4710768 23.254819 35.202066.0045925 11.7309892-7.7378289 23.4589455-23.2272642 35.1838691-15.4986202-11.7370548-23.2502266-23.4710768-23.254819-35.202066zm67.388741 5.6984371c3.16109-3.1635657 4.481946-8.5537446 3.741385-16.3252437-7.762826-.7406121-13.146431.5809317-16.306582 3.7435581-3.16109 3.1635657-4.481946 8.5537446-3.741386 16.3252438 7.762827.7406121 13.146432-.5809318 16.306583-3.7435582zm-14.687348-14.7021753c4.242324-4.2456466 11.286231-5.6875158 21.13172-4.3256074 1.360843 9.8532016-.079898 16.9026258-4.322221 21.1482724-4.242324 4.2456467-11.286231 5.6875158-21.1317211 4.3256075-1.3608424-9.8532017.0798982-16.9026258 4.3222221-21.1482725zm-61.0346092 2.1287338c-3.1635657-3.1610897-8.5537446-4.4819457-16.3252437-3.7413852-.7406121 7.7628265.5809317 13.1464314 3.7435581 16.3065826 3.1635657 3.1610897 8.5537446 4.4819457 16.3252437 3.7413852.7406121-7.7628265-.5809317-13.1464314-3.7435581-16.3065826zm-14.7021753 14.687348c-4.2456466-4.2423237-5.6875158-11.2862306-4.3256074-21.1317206 9.8532016-1.3608424 16.9026258.0798982 21.1482724 4.322222 4.2456467 4.2423238 5.6875158 11.2862306 4.3256075 21.1317206-9.8532017 1.3608425-16.9026258-.0798982-21.1482725-4.322222zm90.4323765 61.1021709c-3.163566-3.16109-8.553745-4.481946-16.325244-3.741386-.740612 7.762827.580932 13.146432 3.743558 16.306583 3.163566 3.16109 8.553745 4.481946 16.325244 3.741385.740612-7.762826-.580932-13.146431-3.743558-16.306582zm-14.702175 14.687347c-4.245647-4.242323-5.6875161-11.28623-4.3256078-21.13172 9.8532018-1.3608426 16.9026258.079898 21.1482728 4.322222 4.245646 4.242324 5.687515 11.286231 4.325607 21.13172-9.853202 1.360843-16.902626-.079898-21.148272-4.322222zm-61.0362703-2.113906c3.1610897-3.163566 4.4819457-8.553745 3.7413852-16.325244-7.7628265-.740612-13.1464314.580932-16.3065826 3.743558-3.1610897 3.163566-4.4819457 8.553745-3.7413852 16.325244 7.7628265.740612 13.1464314-.580932 16.3065826-3.743558zm-14.687348-14.702175c4.2423238-4.245647 11.2862306-5.6875161 21.1317206-4.325608 1.3608424 9.853202-.0798982 16.902626-4.322222 21.148273-4.2423237 4.245646-11.2862306 5.687515-21.1317206 4.325607-1.3608424-9.853202.0798982-16.902626 4.322222-21.148272zm66.5108918 7.820101c-.0039878-10.186239-6.6531708-20.6750159-20.2551795-31.4119255-13.5914088 10.7248794-20.2308914 21.2064905-20.2269043 31.3913795.0039878 10.18624 6.6531708 20.675016 20.2551795 31.411926 13.5914088-10.72488 20.2308915-21.206491 20.2269043-31.39138zm-43.4820835-.019371c-.0045925-11.73099 7.7378289-23.4589459 23.2272642-35.1838695 15.4986202 11.7370548 23.2502266 23.4710765 23.254819 35.2020665.0045925 11.730989-7.7378289 23.458945-23.2272642 35.183869-15.4986202-11.737055-23.2502266-23.471077-23.254819-35.202066zm-14.126238-57.6387729c-10.1862393.0039877-20.6750158 6.6531707-31.4119254 20.2551794 10.7248794 13.5914089 21.2064908 20.2308915 31.3913797 20.2269043 10.1862393-.0039878 20.6750158-6.6531708 31.4119254-20.2551795-10.7248794-13.5914088-21.2064908-20.2308914-31.3913797-20.2269042zm-.0193713 43.4820834c-11.7309892.0045925-23.4589455-7.7378289-35.1838691-23.2272642 11.7370548-15.4986202 23.4710768-23.2502266 35.202066-23.254819 11.7309892-.0045925 23.4589455 7.7378289 35.1838691 23.2272642-11.7370548 15.4986202-23.4710768 23.2502266-35.202066 23.254819zm74.6609913-43.3685094c-10.18624.0039878-20.6750161 6.6531708-31.4119257 20.2551795 10.7248794 13.5914088 21.2064907 20.2308914 31.3913797 20.2269043 10.186239-.0039878 20.675016-6.6531708 31.411925-20.2551795-10.724879-13.5914088-21.20649-20.2308914-31.391379-20.2269043zm-.019372 43.4820835c-11.730989.0045925-23.4589451-7.7378289-35.1838687-23.2272642 11.7370548-15.4986202 23.4710767-23.2502266 35.2020657-23.254819 11.730989-.0045925 23.458946 7.7378289 35.183869 23.2272642-11.737054 15.4986202-23.471076 23.2502266-35.202066 23.254819z"/></svg>