<svg height="150" viewBox="0 0 150 150" width="150" xmlns="http://www.w3.org/2000/svg"><path d="m26.9763632 129.972632v13.027368h-3.6812544v-11.918656h-11.4392698v-3.676417h12.4736719l3.9854903-4.227727h-8.5794524v-3.676416h12.017318l3.9854903-4.227727h-8.0926749v-3.673371h11.5305406l33.3070574-35.4812168-58.8020258-62.639813v9.1164166h-3.6812544v-13.75838747c0-1.01428891.8214369-1.83668533 1.855839-1.83668533h13.2646852v3.6764166h-9.0358062l58.915282 62.7610507 58.915282-62.7610507h-9.035806v-3.6764166h13.295109c1.003978 0 1.825415.82239642 1.825415 1.83668533v13.75838747h-3.681254v-9.1164166l-58.8020262 62.639813 33.3070572 35.4812168h11.560964v3.673371h-8.092675l3.955067 4.227727h12.017318v3.676416h-8.549029l3.955067 4.227727h12.504096v3.676417h-11.469694v11.918656h-3.650831v-13.027368l-4.228879-4.498813v9.625084h-3.681254v-13.536036l-4.228879-4.498813v10.127659h-3.650831v-13.758387c0-.079194.030424-.152296.030424-.231489l-32.294641-34.4023911-32.2946408 34.4023911c.0304236.079193.0608472.152295.0608472.231489v13.758387h-3.6812544v-10.127659l-4.228879 4.498813v13.536036h-3.6508308v-9.625084z" fill-rule="evenodd"/></svg>