<svg height="150" viewBox="0 0 150 150" width="150" xmlns="http://www.w3.org/2000/svg"><path d="m20.7096321 134.133514-5.3033009 5.303301-10.60660168-10.606602 5.30330088-5.303301c4.0647382-4.064738 8.8391135-6.371847 14.347555-7.293889 3.7997766-.636034 6.6935396-.622967 13.0210778-.248466 9.489684.561656 12.6715881.029046 15.8757935-3.175159 3.1704987-3.170499 3.7425622-6.850555 3.1729364-17.41511-.3694467-6.8519375-.3822285-9.944789.2367848-13.9268709.9055547-5.8253881 3.1955352-10.7901879 7.3077933-14.9024459 4.1417385-4.1417386 9.1123451-6.3931617 14.895681-7.1732413 3.9460778-.5322628 6.9800369-.4311137 13.6734941.1454559 10.1348937.8730126 13.5767627.4087596 16.6752517-2.6897291 3.343372-3.3433725 4.104405-7.0032906 4.162174-17.3607436.037033-6.6395438.199133-9.6458959 1.003106-13.5123183 1.163037-5.5932194 3.543802-10.3629324 7.552234-14.3713644l5.303301-5.30330088 10.606602 10.60660168-5.303301 5.3033009c-3.343373 3.3433725-4.104405 7.0032907-4.162175 17.3607437-.037033 6.6395437-.199133 9.6458959-1.003106 13.5123182-1.163037 5.5932194-3.543802 10.3629324-7.552234 14.3713645-4.141738 4.1417385-9.112345 6.3931616-14.895681 7.1732412-3.946078.5322628-6.9800367.4311137-13.6734939-.1454559-10.134894-.8730126-13.5767626-.4087595-16.6752512 2.6897291-3.1704987 3.1704987-3.7425622 6.8505548-3.1729364 17.4151095.3694467 6.8519376.3822285 9.9447886-.2367848 13.9268706-.9055547 5.825388-3.1955352 10.790188-7.3077932 14.902446-4.0647382 4.064738-8.8391135 6.371847-14.3475551 7.293889-3.7997765.636034-6.6935395.622967-13.0210777.248466-9.4896841-.561656-12.6715881-.029046-15.8757936 3.17516z"/></svg>