<svg height="20" viewBox="0 0 20 20" width="20" xmlns="http://www.w3.org/2000/svg"><path d="m18.5 15h-5.5c-.743 0-1.561-.532-1.863-1.211l-1.137-2.558-1.137 2.558c-.302.679-1.12 1.211-1.863 1.211h-5.5c-.827 0-1.5-.673-1.5-1.5v-6c0-.827.673-1.5 1.5-1.5h17c.827 0 1.5.673 1.5 1.5v6c0 .827-.673 1.5-1.5 1.5zm-8.5-4.963c.169 0 .593.066.863.674l1.188 2.672c.143.323.596.617.949.617h5.5c.276 0 .5-.224.5-.5v-6c0-.276-.224-.5-.5-.5h-17c-.276 0-.5.224-.5.5v6c0 .276.224.5.5.5h5.5c.353 0 .806-.294.949-.617l1.188-2.672c.27-.608.694-.674.863-.674z"/><path d="m17.5 13h-4c-.189 0-.363-.107-.447-.276l-2-4c-.077-.155-.069-.339.022-.486s.252-.237.425-.237h6c.276 0 .5.224.5.5v4c0 .276-.224.5-.5.5zm-3.691-1h3.191v-3h-4.691z"/><path d="m6.5 13h-4c-.276 0-.5-.224-.5-.5v-4c0-.276.224-.5.5-.5h6c.173 0 .334.09.425.237s.099.331.022.486l-2 4c-.085.169-.258.276-.447.276zm-3.5-1h3.191l1.5-3h-4.691z"/></svg>