<svg height="20" viewBox="0 0 20 20" width="20" xmlns="http://www.w3.org/2000/svg"><path d="m9.5 18c-2.488 0-4.834-.542-6.607-1.527-.784-.435-1.419-.937-1.893-1.485v.512c0 .276-.224.5-.5.5s-.5-.224-.5-.5v-3c0-.276.224-.5.5-.5s.5.224.5.5c0 1.146.845 2.246 2.379 3.098 1.627.904 3.801 1.402 6.121 1.402 1.744 0 3.423-.284 4.856-.822 1.364-.512 2.415-1.216 3.039-2.035.167-.22.481-.262.701-.095s.262.481.095.701c-1.504 1.975-4.915 3.251-8.691 3.251z"/><path d="m18.5 9c-.276 0-.5.224-.5.5v.52c-.687-.798-1.708-1.494-3-2.019v-2.5c0-.204-.124-.388-.314-.464l-5-2c-.119-.048-.252-.048-.371 0l-5 2c-.19.076-.314.26-.314.464v2.5c-1.368.556-2.451 1.31-3.144 2.191-.171.217-.133.531.084.702.092.072.201.107.309.107.148 0 .295-.066.393-.191.523-.665 1.331-1.253 2.358-1.72v2.411c0 .204.124.388.314.464l5 2c.06.024.123.036.186.036s.126-.012.186-.036l5-2c.19-.076.314-.26.314-.464v-2.411c.837.382 1.537.848 2.048 1.368.632.643.952 1.33.952 2.042 0 .276.224.5.5.5s.5-.224.5-.5v-3c0-.276-.224-.5-.5-.5zm-9-4.962 3.654 1.462-3.654 1.462-3.654-1.462zm-4.5 2.2 4 1.6v4.923l-4-1.6zm5 6.523v-4.923l4-1.6v4.923z"/></svg>