<svg height="20" viewBox="0 0 20 20" width="20" xmlns="http://www.w3.org/2000/svg"><path d="m17.5 2h-16c-.827 0-1.5.673-1.5 1.5v14c0 .827.673 1.5 1.5 1.5h16c.827 0 1.5-.673 1.5-1.5v-14c0-.827-.673-1.5-1.5-1.5zm.5 1.5v3.5h-2v-2.086c.582-.206 1-.762 1-1.414 0-.175-.031-.343-.086-.5h.586c.276 0 .5.224.5.5zm-2 7c0 .276-.224.5-.5.5s-.5-.224-.5-.5.224-.5.5-.5.5.224.5.5zm-13 3c0-.276.224-.5.5-.5s.5.224.5.5-.224.5-.5.5-.5-.224-.5-.5zm13-10c0 .276-.224.5-.5.5s-.5-.224-.5-.5.224-.5.5-.5.5.224.5.5zm-1 1.414v2.086h-3v-2.086c.582-.206 1-.762 1-1.414 0-.175-.031-.343-.086-.5h1.172c-.056.157-.086.325-.086.5 0 .652.418 1.208 1 1.414zm-3-1.414c0 .276-.224.5-.5.5s-.5-.224-.5-.5.224-.5.5-.5.5.224.5.5zm-1 1.414v2.086h-3v-2.086c.582-.206 1-.762 1-1.414 0-.175-.031-.343-.086-.5h1.172c-.056.157-.086.325-.086.5 0 .652.418 1.208 1 1.414zm-3-1.414c0 .276-.224.5-.5.5s-.5-.224-.5-.5.224-.5.5-.5.5.224.5.5zm-1 1.414v2.086h-3v-2.086c.582-.206 1-.762 1-1.414 0-.175-.031-.343-.086-.5h1.172c-.056.157-.086.325-.086.5 0 .652.418 1.208 1 1.414zm-3-1.414c0 .276-.224.5-.5.5s-.5-.224-.5-.5.224-.5.5-.5.5.224.5.5zm0 5c0 .276-.224.5-.5.5s-.5-.224-.5-.5.224-.5.5-.5.5.224.5.5zm-1 7c0-.276.224-.5.5-.5s.5.224.5.5-.224.5-.5.5-.5-.224-.5-.5zm0 2c0-.276.224-.5.5-.5s.5.224.5.5-.224.5-.5.5-.5-.224-.5-.5zm1.617-1c.238-.266.383-.616.383-1s-.145-.734-.383-1c.238-.266.383-.616.383-1 0-.652-.418-1.208-1-1.414v-2.172c.582-.206 1-.762 1-1.414 0-.175-.031-.343-.086-.5h2.086v2.086c-.582.206-1 .762-1 1.414 0 .384.145.734.383 1-.238.266-.383.616-.383 1s.145.734.383 1c-.238.266-.383.616-.383 1s.145.734.383 1c-.238.266-.383.616-.383 1 0 .175.031.343.086.5h-1.172c.056-.157.086-.325.086-.5 0-.384-.145-.734-.383-1zm3.383-3c0 .276-.224.5-.5.5s-.5-.224-.5-.5.224-.5.5-.5.5.224.5.5zm-1 2c0-.276.224-.5.5-.5s.5.224.5.5-.224.5-.5.5-.5-.224-.5-.5zm0-4c0-.276.224-.5.5-.5s.5.224.5.5-.224.5-.5.5-.5-.224-.5-.5zm0 6c0-.276.224-.5.5-.5s.5.224.5.5-.224.5-.5.5-.5-.224-.5-.5zm1.617-1c.238-.266.383-.616.383-1s-.145-.734-.383-1c.238-.266.383-.616.383-1s-.145-.734-.383-1c.238-.266.383-.616.383-1 0-.652-.418-1.208-1-1.414v-2.086h3v2.086c-.582.206-1 .762-1 1.414 0 .384.145.734.383 1-.238.266-.383.616-.383 1s.145.734.383 1c-.238.266-.383.616-.383 1s.145.734.383 1c-.238.266-.383.616-.383 1 0 .175.031.343.086.5h-1.172c.056-.157.086-.325.086-.5 0-.384-.145-.734-.383-1zm3.383-3c0 .276-.224.5-.5.5s-.5-.224-.5-.5.224-.5.5-.5.5.224.5.5zm-1 2c0-.276.224-.5.5-.5s.5.224.5.5-.224.5-.5.5-.5-.224-.5-.5zm0-4c0-.276.224-.5.5-.5s.5.224.5.5-.224.5-.5.5-.5-.224-.5-.5zm0 6c0-.276.224-.5.5-.5s.5.224.5.5-.224.5-.5.5-.5-.224-.5-.5zm1.617-1c.238-.266.383-.616.383-1s-.145-.734-.383-1c.238-.266.383-.616.383-1s-.145-.734-.383-1c.238-.266.383-.616.383-1 0-.652-.418-1.208-1-1.414v-2.086h2.086c-.056.157-.086.325-.086.5 0 .384.145.734.383 1-.238.266-.383.616-.383 1 0 .652.418 1.208 1 1.414v2.172c-.582.206-1 .762-1 1.414 0 .384.145.734.383 1-.238.266-.383.616-.383 1 0 .175.031.343.086.5h-1.172c.056-.157.086-.325.086-.5 0-.384-.145-.734-.383-1zm2.383 1c0-.276.224-.5.5-.5s.5.224.5.5-.224.5-.5.5-.5-.224-.5-.5zm0-2c0-.276.224-.5.5-.5s.5.224.5.5-.224.5-.5.5-.5-.224-.5-.5zm1-7c0 .276-.224.5-.5.5s-.5-.224-.5-.5.224-.5.5-.5.5.224.5.5zm-14.5-5.5h.586c-.056.157-.086.325-.086.5 0 .652.418 1.208 1 1.414v2.086h-2v-3.5c0-.276.224-.5.5-.5zm-.5 14.5v-9.5h1.086c-.056.157-.086.325-.086.5 0 .652.418 1.208 1 1.414v2.172c-.582.206-1 .762-1 1.414 0 .384.145.734.383 1-.238.266-.383.616-.383 1s.145.734.383 1c-.238.266-.383.616-.383 1 0 .175.031.343.086.5h-.586c-.276 0-.5-.224-.5-.5zm16.5.5h-.586c.056-.157.086-.325.086-.5 0-.384-.145-.734-.383-1 .238-.266.383-.616.383-1 0-.652-.418-1.208-1-1.414v-2.172c.582-.206 1-.762 1-1.414 0-.384-.145-.734-.383-1 .238-.266.383-.616.383-1 0-.175-.031-.343-.086-.5h1.086v9.5c0 .276-.224.5-.5.5z"/></svg>