<svg height="20" viewBox="0 0 20 20" width="20" xmlns="http://www.w3.org/2000/svg"><path d="m9.5 8c-1.378 0-2.5-1.122-2.5-2.5s1.122-2.5 2.5-2.5 2.5 1.122 2.5 2.5-1.122 2.5-2.5 2.5zm0-4c-.827 0-1.5.673-1.5 1.5s.673 1.5 1.5 1.5 1.5-.673 1.5-1.5-.673-1.5-1.5-1.5z"/><path d="m13.985 8.379c-.067-.268-.338-.431-.606-.364l-3.879.97-3.879-.97c-.268-.067-.539.096-.606.364s.096.539.364.606l3.621.905v2.443l-2.9 3.867c-.166.221-.121.534.1.7s.534.121.7-.1l2.6-3.467 2.6 3.467c.098.131.248.2.4.2.104 0 .21-.033.3-.1.221-.166.266-.479.1-.7l-2.9-3.867v-2.443l3.621-.905c.268-.067.431-.338.364-.606z"/><path d="m9.5 20c-2.538 0-4.923-.988-6.718-2.782s-2.782-4.18-2.782-6.717c0-2.538.988-4.923 2.782-6.718s4.18-2.783 6.718-2.783 4.923.988 6.718 2.783 2.782 4.18 2.782 6.718-.988 4.923-2.782 6.717-4.18 2.782-6.718 2.782zm0-18c-4.687 0-8.5 3.813-8.5 8.5s3.813 8.5 8.5 8.5 8.5-3.813 8.5-8.5-3.813-8.5-8.5-8.5z"/></svg>