<svg height="20" viewBox="0 0 20 20" width="20" xmlns="http://www.w3.org/2000/svg"><path d="m9.5 1c-.276 0-.5.224-.5.5v4c0 .276.224.5.5.5s.5-.224.5-.5v-4c0-.276-.224-.5-.5-.5z"/><path d="m9.5 15c-.276 0-.5.224-.5.5v4c0 .276.224.5.5.5s.5-.224.5-.5v-4c0-.276-.224-.5-.5-.5z"/><path d="m5 10.5c0-.276-.224-.5-.5-.5h-4c-.276 0-.5.224-.5.5s.224.5.5.5h4c.276 0 .5-.224.5-.5z"/><path d="m18.5 10h-4c-.276 0-.5.224-.5.5s.224.5.5.5h4c.276 0 .5-.224.5-.5s-.224-.5-.5-.5z"/><path d="m16.21 9c-.216 0-.414-.14-.479-.357-.628-2.111-2.263-3.746-4.374-4.374-.265-.079-.415-.357-.337-.622s.357-.415.622-.337c1.187.353 2.28 1.006 3.161 1.886s1.533 1.974 1.886 3.161c.079.265-.072.543-.337.622-.048.014-.096.021-.143.021z"/><path d="m11.5 17.71c-.216 0-.414-.14-.479-.357-.079-.265.072-.543.337-.622 2.11-.628 3.745-2.263 4.374-4.374.079-.265.357-.415.622-.337s.415.357.337.622c-.353 1.187-1.006 2.28-1.886 3.161s-1.973 1.533-3.161 1.886c-.048.014-.096.021-.143.021z"/><path d="m7.5 17.71c-.047 0-.095-.007-.143-.021-1.187-.353-2.28-1.005-3.161-1.886s-1.533-1.973-1.886-3.161c-.079-.265.072-.543.337-.622s.543.072.622.337c.628 2.11 2.263 3.745 4.374 4.373.265.079.415.357.337.622-.065.217-.264.358-.479.358z"/><path d="m2.79 9c-.047 0-.095-.007-.143-.021-.265-.079-.415-.357-.337-.622.353-1.187 1.006-2.28 1.886-3.161s1.973-1.533 3.161-1.886c.265-.079.543.072.622.337s-.072.543-.337.622c-2.11.628-3.745 2.263-4.373 4.374-.065.217-.264.358-.479.358z"/></svg>