<svg height="20" viewBox="0 0 20 20" width="20" xmlns="http://www.w3.org/2000/svg"><path d="m18.442 4.591c-.032 0-.065-.003-.098-.01-.271-.054-.446-.317-.392-.588.032-.161.048-.327.048-.493 0-1.378-1.122-2.5-2.5-2.5-.296 0-.586.051-.861.152-.259.095-.547-.038-.642-.297s.038-.547.297-.642c.386-.142.791-.213 1.206-.213 1.93 0 3.5 1.57 3.5 3.5 0 .232-.023.463-.068.689-.047.238-.256.402-.49.402z"/><path d="m.56 4.605c-.233 0-.441-.163-.489-.4-.047-.231-.071-.468-.071-.705 0-1.93 1.57-3.5 3.5-3.5.414 0 .82.072 1.205.213.259.095.392.382.297.642s-.382.392-.642.297c-.275-.101-.565-.152-.861-.152-1.378 0-2.5 1.122-2.5 2.5 0 .17.017.34.051.504.055.271-.119.535-.39.59-.034.007-.068.01-.101.01z"/><path d="m16.32 17.113c1.729-1.782 2.68-4.124 2.68-6.613 0-2.538-.988-4.923-2.782-6.717s-4.18-2.783-6.718-2.783-4.923.988-6.717 2.783-2.782 4.18-2.782 6.717c0 2.489.951 4.831 2.68 6.613l-2.034 2.034c-.195.195-.195.512 0 .707.098.098.226.146.354.146s.256-.049.354-.146l2.06-2.06c1.705 1.428 3.836 2.206 6.087 2.206s4.382-.778 6.087-2.206l2.06 2.06c.098.098.226.146.354.146s.256-.049.354-.146c.195-.195.195-.512 0-.707l-2.034-2.034zm-15.32-6.613c0-4.687 3.813-8.5 8.5-8.5s8.5 3.813 8.5 8.5-3.813 8.5-8.5 8.5-8.5-3.813-8.5-8.5z"/><path d="m7 14c-.128 0-.256-.049-.354-.146l-2.5-2.5c-.195-.195-.195-.512 0-.707s.512-.195.707 0l2.146 2.146 6.146-6.146c.195-.195.512-.195.707 0s.195.512 0 .707l-6.5 6.5c-.098.098-.226.146-.354.146z"/></svg>