<svg height="20" viewBox="0 0 20 20" width="20" xmlns="http://www.w3.org/2000/svg"><path d="m15.129 7.25c-.138-.239-.444-.321-.683-.183l-4.92 2.841-3.835-2.685c-.226-.158-.538-.103-.696.123s-.103.538.123.696l4.096 2.868c.001.001.002.001.003.002.008.006.017.011.026.016.002.001.005.003.007.004.009.005.018.01.027.014.002.001.004.002.006.003.01.005.02.01.031.014.006.002.012.005.019.007.005.002.009.003.014.005.007.002.013.004.02.006.004.001.009.002.013.003.007.002.014.003.02.005.005.001.009.002.014.003.006.001.013.002.019.003s.012.001.018.002c.005.001.011.001.016.002.012.001.023.001.035.001.019 0 .038-.001.057-.003h.001c.018-.002.037-.006.055-.01.001 0 .003-.001.004-.001.017-.004.034-.009.051-.016.003-.001.005-.002.007-.003.016-.006.032-.013.047-.021.003-.002.006-.003.009-.005.006-.003.011-.006.017-.009l5.196-3c.239-.138.321-.444.183-.683z"/><path d="m16.354 17.146c-.011-.011-.023-.022-.035-.032 1.73-1.782 2.682-4.125 2.682-6.614 0-2.538-.988-4.923-2.782-6.718s-4.18-2.782-6.718-2.782-4.923.988-6.717 2.782-2.782 4.18-2.782 6.718c0 2.489.952 4.832 2.682 6.614-.012.01-.024.021-.035.032l-2 2c-.195.195-.195.512 0 .707.098.098.226.147.354.147s.256-.049.354-.147l2-2c.02-.02.038-.042.054-.064 1.706 1.431 3.839 2.211 6.093 2.211s4.387-.78 6.093-2.211c.016.023.034.044.054.064l2 2c.098.098.226.146.353.146s.256-.049.354-.147c.195-.195.195-.512 0-.707l-2-2zm-15.354-6.646c0-4.687 3.813-8.5 8.5-8.5s8.5 3.813 8.5 8.5-3.813 8.5-8.5 8.5-8.5-3.813-8.5-8.5z"/><path d="m.56 4.605c-.233 0-.441-.163-.489-.4-.047-.231-.071-.468-.071-.705 0-1.93 1.57-3.5 3.5-3.5.414 0 .82.072 1.205.213.259.095.392.382.297.642s-.382.392-.642.297c-.275-.101-.565-.152-.861-.152-1.378 0-2.5 1.122-2.5 2.5 0 .17.017.34.051.504.055.271-.119.535-.39.59-.034.007-.068.01-.101.01z"/><path d="m18.44 4.605c-.033 0-.067-.003-.101-.01-.271-.055-.445-.32-.39-.59.034-.165.051-.334.051-.504 0-1.379-1.122-2.5-2.5-2.5-.296 0-.586.051-.861.152-.259.095-.547-.038-.642-.297s.038-.547.297-.642c.386-.142.791-.213 1.206-.213 1.93 0 3.5 1.57 3.5 3.5 0 .237-.024.474-.071.705-.048.237-.257.4-.489.4z"/></svg>