<svg height="20" viewBox="0 0 20 20" width="20" xmlns="http://www.w3.org/2000/svg"><path d="m16.5 20h-14c-.827 0-1.5-.673-1.5-1.5v-13c0-.827.673-1.5 1.5-1.5h14c.827 0 1.5.673 1.5 1.5v13c0 .827-.673 1.5-1.5 1.5zm-14-15c-.276 0-.5.224-.5.5v13c0 .276.224.5.5.5h14c.276 0 .5-.224.5-.5v-13c0-.276-.224-.5-.5-.5z"/><path d="m16.5 3h-14c-.276 0-.5-.224-.5-.5s.224-.5.5-.5h14c.276 0 .5.224.5.5s-.224.5-.5.5z"/><path d="m15.5 1h-12c-.276 0-.5-.224-.5-.5s.224-.5.5-.5h12c.276 0 .5.224.5.5s-.224.5-.5.5z"/><path d="m13.817 9.113c-.116-.095-.268-.133-.415-.104l-5 1c-.234.047-.402.252-.402.49v2.695c-.293-.124-.633-.195-1-.195-1.122 0-2 .659-2 1.5s.878 1.5 2 1.5 2-.659 2-1.5v-3.59l4-.8v2.085c-.293-.124-.633-.195-1-.195-1.122 0-2 .659-2 1.5s.878 1.5 2 1.5 2-.659 2-1.5v-4c0-.15-.067-.292-.183-.387zm-6.817 5.887c-.61 0-1-.296-1-.5s.39-.5 1-.5 1 .296 1 .5-.39.5-1 .5zm5-1c-.61 0-1-.296-1-.5s.39-.5 1-.5 1 .296 1 .5-.39.5-1 .5z"/></svg>