<svg height="20" viewBox="0 0 20 20" width="20" xmlns="http://www.w3.org/2000/svg"><path d="m0 .5c0-.276.224-.5.5-.5h19c.276 0 .5.224.5.5s-.224.5-.5.5h-19c-.276 0-.5-.224-.5-.5z"/><path d="m11 11.5v-8c0-.827.673-1.5 1.5-1.5h4c.827 0 1.5.673 1.5 1.5v8c0 .827-.673 1.5-1.5 1.5h-4c-.827 0-1.5-.673-1.5-1.5zm6-8c0-.276-.224-.5-.5-.5h-4c-.276 0-.5.224-.5.5v8c0 .276.224.5.5.5h4c.276 0 .5-.224.5-.5z"/><path d="m2 17.5v-14c0-.827.673-1.5 1.5-1.5h4c.827 0 1.5.673 1.5 1.5v14c0 .827-.673 1.5-1.5 1.5h-4c-.827 0-1.5-.673-1.5-1.5zm6-14c0-.276-.224-.5-.5-.5h-4c-.276 0-.5.224-.5.5v14c0 .276.224.5.5.5h4c.276 0 .5-.224.5-.5z"/></svg>