<svg height="20" viewBox="0 0 20 20" width="20" xmlns="http://www.w3.org/2000/svg"><path d="m16.5 11h-6.5v-2h3.5c.827 0 1.5-.673 1.5-1.5v-4c0-.827-.673-1.5-1.5-1.5h-3.5v-1.5c0-.276-.224-.5-.5-.5s-.5.224-.5.5v1.5h-3.5c-.827 0-1.5.673-1.5 1.5v4c0 .827.673 1.5 1.5 1.5h3.5v2h-6.5c-.827 0-1.5.673-1.5 1.5v4c0 .827.673 1.5 1.5 1.5h6.5v1.5c0 .276.224.5.5.5s.5-.224.5-.5v-1.5h6.5c.827 0 1.5-.673 1.5-1.5v-4c0-.827-.673-1.5-1.5-1.5zm-3-8c.276 0 .5.224.5.5v4c0 .276-.224.5-.5.5h-3.5v-5zm-8 5c-.276 0-.5-.224-.5-.5v-4c0-.276.224-.5.5-.5h3.5v5zm-3 9c-.276 0-.5-.224-.5-.5v-4c0-.276.224-.5.5-.5h6.5v5zm14.5-.5c0 .276-.224.5-.5.5h-6.5v-5h6.5c.276 0 .5.224.5.5z"/></svg>