<svg height="20" viewBox="0 0 20 20" width="20" xmlns="http://www.w3.org/2000/svg"><path d="m19.5 20c.276 0 .5-.224.5-.5v-19c0-.276-.224-.5-.5-.5s-.5.224-.5.5v19c0 .276.224.5.5.5z"/><path d="m7 7.5v-4c0-.827.673-1.5 1.5-1.5h8c.827 0 1.5.673 1.5 1.5v4c0 .827-.673 1.5-1.5 1.5h-8c-.827 0-1.5-.673-1.5-1.5zm1.5-4.5c-.276 0-.5.224-.5.5v4c0 .276.224.5.5.5h8c.276 0 .5-.224.5-.5v-4c0-.276-.224-.5-.5-.5z"/><path d="m1 16.5v-4c0-.827.673-1.5 1.5-1.5h14c.827 0 1.5.673 1.5 1.5v4c0 .827-.673 1.5-1.5 1.5h-14c-.827 0-1.5-.673-1.5-1.5zm1.5-4.5c-.276 0-.5.224-.5.5v4c0 .276.224.5.5.5h14c.276 0 .5-.224.5-.5v-4c0-.276-.224-.5-.5-.5z"/></svg>