<svg height="20" viewBox="0 0 20 20" width="20" xmlns="http://www.w3.org/2000/svg"><path d="m19.5 10h-1.5v-3.5c0-.827-.673-1.5-1.5-1.5h-4c-.827 0-1.5.673-1.5 1.5v3.5h-2v-6.5c0-.827-.673-1.5-1.5-1.5h-4c-.827 0-1.5.673-1.5 1.5v6.5h-1.5c-.276 0-.5.224-.5.5s.224.5.5.5h1.5v6.5c0 .827.673 1.5 1.5 1.5h4c.827 0 1.5-.673 1.5-1.5v-6.5h2v3.5c0 .827.673 1.5 1.5 1.5h4c.827 0 1.5-.673 1.5-1.5v-3.5h1.5c.276 0 .5-.224.5-.5s-.224-.5-.5-.5zm-7.5-3.5c0-.276.224-.5.5-.5h4c.276 0 .5.224.5.5v3.5h-5zm-9-3c0-.276.224-.5.5-.5h4c.276 0 .5.224.5.5v6.5h-5zm5 14c0 .276-.224.5-.5.5h-4c-.276 0-.5-.224-.5-.5v-6.5h5zm9-3c0 .276-.224.5-.5.5h-4c-.276 0-.5-.224-.5-.5v-3.5h5z"/></svg>