<svg height="20" viewBox="0 0 20 20" width="20" xmlns="http://www.w3.org/2000/svg"><path d="m8.5 12h-1.5v-1.5c0-.276-.224-.5-.5-.5s-.5.224-.5.5v1.5h-1.5c-.276 0-.5.224-.5.5s.224.5.5.5h1.5v1.5c0 .276.224.5.5.5s.5-.224.5-.5v-1.5h1.5c.276 0 .5-.224.5-.5s-.224-.5-.5-.5z"/><path d="m13.5 5c-.276 0-.5-.224-.5-.5v-1c0-.276.224-.5.5-.5s.5.224.5.5v1c0 .276-.224.5-.5.5z"/><path d="m18.5 13h-.662l-1.503-3.757c-.217-.543-.754-.994-1.336-1.167v-.576c0-.827-.673-1.5-1.5-1.5s-1.5.673-1.5 1.5v.586c-.186.066-.356.168-.5.297-.266-.238-.616-.383-1-.383h-8c-.827 0-1.5.673-1.5 1.5v7c0 .827.673 1.5 1.5 1.5h1.5c0 1.103.897 2 2 2s2-.897 2-2h6c0 1.103.897 2 2 2s2-.897 2-2h.5c.827 0 1.5-.673 1.5-1.5v-2c0-.827-.673-1.5-1.5-1.5zm-2.538-2 .8 2h-2.262c-.276 0-.5-.224-.5-.5v-1c0-.276.224-.5.5-.5zm-2.462-4c.276 0 .5.224.5.5v.5h-1v-.5c0-.276.224-.5.5-.5zm-7.5 12c-.551 0-1-.449-1-1s.449-1 1-1 1 .449 1 1-.449 1-1 1zm1.731-2c-.346-.597-.992-1-1.731-1s-1.385.403-1.731 1h-1.769c-.276 0-.5-.224-.5-.5v-7c0-.276.224-.5.5-.5h8c.276 0 .5.224.5.5v7.5zm8.269 2c-.551 0-1-.449-1-1s.449-1 1-1 1 .449 1 1-.449 1-1 1zm2.5-2h-.769c-.346-.597-.992-1-1.731-1s-1.385.403-1.731 1h-2.269v-7.5c0-.276.224-.5.5-.5h2c.346 0 .779.293.907.614l.154.386h-1.062c-.827 0-1.5.673-1.5 1.5v1c0 .827.673 1.5 1.5 1.5h4c.276 0 .5.224.5.5v.5h-.543c-.276 0-.5.224-.5.5s.224.5.5.5h.543v.5c0 .276-.224.5-.5.5z"/><path d="m15.5 6c-.128 0-.256-.049-.354-.146-.195-.195-.195-.512 0-.707l1-1c.195-.195.512-.195.707 0s.195.512 0 .707l-1 1c-.098.098-.226.146-.354.146z"/><path d="m11.5 6c-.128 0-.256-.049-.354-.146l-1-1c-.195-.195-.195-.512 0-.707s.512-.195.707 0l1 1c.195.195.195.512 0 .707-.098.098-.226.146-.354.146z"/></svg>