<svg height="20" viewBox="0 0 20 20" width="20" xmlns="http://www.w3.org/2000/svg"><path d="m9.5 6c-1.378 0-2.5-1.122-2.5-2.5s1.122-2.5 2.5-2.5 2.5 1.122 2.5 2.5-1.122 2.5-2.5 2.5zm0-4c-.827 0-1.5.673-1.5 1.5s.673 1.5 1.5 1.5 1.5-.673 1.5-1.5-.673-1.5-1.5-1.5z"/><path d="m18.974 14.342-1-3c-.078-.233-.313-.375-.554-.335s-.42.248-.42.494v3c0 2.635-1.645 4.475-4 4.475-.7 0-1.469-.283-2.058-.756-.607-.488-.942-1.099-.942-1.719v-9.5h1.5c.276 0 .5-.224.5-.5s-.224-.5-.5-.5h-4c-.276 0-.5.224-.5.5s.224.5.5.5h1.5v9.5c0 .621-.334 1.231-.942 1.719-.589.473-1.359.756-2.058.756-2.355 0-4-1.84-4-4.475v-3c0-.245-.178-.454-.42-.494s-.477.103-.554.335l-1 3c-.087.262.054.545.316.632s.545-.054.632-.316l.026-.078c.017 1.459.49 2.795 1.336 3.771.909 1.048 2.21 1.624 3.663 1.624.934 0 1.912-.356 2.684-.977.332-.267.605-.565.816-.885.21.32.483.618.816.885.772.621 1.751.977 2.684.977 1.453 0 2.754-.577 3.663-1.624.847-.976 1.32-2.312 1.336-3.771l.026.078c.087.262.37.404.632.316s.404-.37.316-.632z"/></svg>