<svg height="20" viewBox="0 0 20 20" width="20" xmlns="http://www.w3.org/2000/svg"><path d="m9.5 20c-2.538 0-4.923-.988-6.718-2.782s-2.782-4.18-2.782-6.717c0-2.538.988-4.923 2.782-6.718s4.18-2.783 6.718-2.783 4.923.988 6.718 2.783 2.782 4.18 2.782 6.718-.988 4.923-2.782 6.717-4.18 2.782-6.718 2.782zm0-18c-4.687 0-8.5 3.813-8.5 8.5s3.813 8.5 8.5 8.5 8.5-3.813 8.5-8.5-3.813-8.5-8.5-8.5z"/><path d="m14 11h-9c-1.103 0-2 .897-2 2s.897 2 2 2h9c1.103 0 2-.897 2-2s-.897-2-2-2zm-4 1h2v2h-2zm-1 2h-2v-2h2zm-5-1c0-.551.449-1 1-1h1v2h-1c-.551 0-1-.449-1-1zm10 1h-1v-2h1c.551 0 1 .449 1 1s-.449 1-1 1z"/><path d="m7.853 6.854c.037-.037.069-.08.094-.13.123-.247.023-.547-.224-.671l-2-1c-.247-.123-.547-.023-.671.224s-.023.547.224.671l.49.245c-.457.257-.767.747-.767 1.308 0 .827.673 1.5 1.5 1.5s1.5-.673 1.5-1.5c0-.231-.053-.451-.147-.646zm-1.353 1.146c-.276 0-.5-.224-.5-.5s.224-.5.5-.5.5.224.5.5-.224.5-.5.5z"/><path d="m13.233 6.192.49-.245c.247-.123.347-.424.224-.671s-.424-.347-.671-.224l-2 1c-.247.123-.347.424-.224.671.025.049.057.093.094.13-.094.196-.147.415-.147.646 0 .827.673 1.5 1.5 1.5s1.5-.673 1.5-1.5c0-.561-.31-1.05-.767-1.308zm-.733 1.808c-.276 0-.5-.224-.5-.5s.224-.5.5-.5.5.224.5.5-.224.5-.5.5z"/></svg>