<svg height="20" viewBox="0 0 20 20" width="20" xmlns="http://www.w3.org/2000/svg"><path d="m14 6h1v1h-1z"/><path d="m14 8h1v1h-1z"/><path d="m14 10h1v1h-1z"/><path d="m14 12h1v1h-1z"/><path d="m14 16h1v1h-1z"/><path d="m14 14h1v1h-1z"/><path d="m6 6h1v1h-1z"/><path d="m6 8h1v1h-1z"/><path d="m6 10h1v1h-1z"/><path d="m6 12h1v1h-1z"/><path d="m6 16h1v1h-1z"/><path d="m6 14h1v1h-1z"/><path d="m4 6h1v1h-1z"/><path d="m4 8h1v1h-1z"/><path d="m4 10h1v1h-1z"/><path d="m4 12h1v1h-1z"/><path d="m4 16h1v1h-1z"/><path d="m4 14h1v1h-1z"/><path d="m8 6h1v1h-1z"/><path d="m8 8h1v1h-1z"/><path d="m8 10h1v1h-1z"/><path d="m8 12h1v1h-1z"/><path d="m8 16h1v1h-1z"/><path d="m8 14h1v1h-1z"/><path d="m18.5 19h-.5v-13.5c0-.763-.567-1.549-1.291-1.791l-4.709-1.57v-1.64c0-.158-.075-.307-.202-.401s-.291-.123-.442-.078l-9.042 2.713c-.737.221-1.314.997-1.314 1.766v14.5h-.5c-.276 0-.5.224-.5.5s.224.5.5.5h18c.276 0 .5-.224.5-.5s-.224-.5-.5-.5zm-2.107-14.342c.318.106.607.507.607.842v13.5h-5v-15.806zm-14.393-.158c0-.329.287-.714.602-.808l8.398-2.52v17.828h-9z"/></svg>