<svg height="20" viewBox="0 0 20 20" width="20" xmlns="http://www.w3.org/2000/svg"><path d="m16.215 5.318c-1.015-.874-2.434-1.318-4.215-1.318-.585 0-1.22.179-1.729.323-.09.026-.181.051-.269.075.054-1.883 1.603-3.398 3.498-3.398.276 0 .5-.224.5-.5s-.224-.5-.5-.5c-2.447 0-4.445 1.964-4.499 4.399-.088-.024-.18-.05-.272-.076-.51-.144-1.144-.323-1.729-.323-1.782 0-3.2.443-4.215 1.318-1.184 1.02-1.785 2.595-1.785 4.682 0 2.143.624 4.588 1.67 6.539 1.196 2.232 2.734 3.461 4.33 3.461.517 0 .933-.134 1.336-.264.375-.121.73-.236 1.164-.236s.789.114 1.164.236c.402.13.819.264 1.336.264 1.596 0 3.134-1.229 4.33-3.461 1.046-1.952 1.67-4.396 1.67-6.539 0-2.087-.6-3.662-1.785-4.682zm-.767 10.749c-.999 1.864-2.256 2.933-3.448 2.933-.36 0-.67-.1-1.028-.216-.412-.133-.88-.284-1.472-.284s-1.059.151-1.472.284c-.359.116-.669.216-1.028.216-1.193 0-2.45-1.069-3.448-2.933-.972-1.813-1.552-4.081-1.552-6.067 0-1.783.484-3.103 1.437-3.924.829-.714 2.027-1.076 3.563-1.076.447 0 .984.152 1.458.286.408.115.759.214 1.042.214s.635-.099 1.042-.214c.474-.134 1.011-.286 1.458-.286 1.535 0 2.734.362 3.563 1.076.954.821 1.437 2.142 1.437 3.924 0 1.986-.58 4.254-1.552 6.067z"/></svg>