<svg height="20" viewBox="0 0 20 20" width="20" xmlns="http://www.w3.org/2000/svg"><path d="m11.5 16h-3c-.276 0-.5-.224-.5-.5s.224-.5.5-.5h3c.276 0 .5.224.5.5s-.224.5-.5.5z"/><path d="m16.5 11h-13c-.276 0-.5-.224-.5-.5s.224-.5.5-.5h13c.276 0 .5.224.5.5s-.224.5-.5.5z"/><path d="m19.557 11.383-2.698-6.168c-.159-.364-.475-.699-.859-.925v-3.791c0-.133-.053-.26-.146-.354s-.221-.146-.354-.146h-11c-.133 0-.26.053-.354.146s-.146.221-.146.354v3.791c-.384.226-.699.56-.859.925l-2.698 6.168c-.248.568-.443 1.497-.443 2.117v4c0 .827.673 1.5 1.5 1.5h17c.827 0 1.5-.673 1.5-1.5v-4c0-.619-.194-1.549-.443-2.117zm-4.557-10.383v7h-10v-7zm-11 4.747v2.753c0 .276.224.5.5.5h11c.276 0 .5-.224.5-.5v-2.752l2.641 6.037c.03.069.06.148.089.233-.075-.012-.152-.018-.23-.018h-17c-.078 0-.155.006-.23.018.029-.085.058-.164.089-.233l2.641-6.037zm15 11.753c0 .276-.224.5-.5.5h-17c-.276 0-.5-.224-.5-.5v-4c0-.276.224-.5.5-.5h17c.276 0 .5.224.5.5z"/><path d="m13.5 7h-7c-.276 0-.5-.224-.5-.5s.224-.5.5-.5h7c.276 0 .5.224.5.5s-.224.5-.5.5z"/><path d="m13.5 5h-7c-.276 0-.5-.224-.5-.5s.224-.5.5-.5h7c.276 0 .5.224.5.5s-.224.5-.5.5z"/><path d="m13.5 3h-7c-.276 0-.5-.224-.5-.5s.224-.5.5-.5h7c.276 0 .5.224.5.5s-.224.5-.5.5z"/></svg>