<svg height="20" viewBox="0 0 20 20" width="20" xmlns="http://www.w3.org/2000/svg"><path d="m11.5 16h-3c-.276 0-.5-.224-.5-.5s.224-.5.5-.5h3c.276 0 .5.224.5.5s-.224.5-.5.5z"/><path d="m19.557 11.383-2.698-6.168c-.298-.682-1.115-1.216-1.859-1.216h-10c-.744 0-1.561.534-1.859 1.216l-2.698 6.168c-.248.568-.443 1.497-.443 2.117v4c0 .827.673 1.5 1.5 1.5h17c.827 0 1.5-.673 1.5-1.5v-4c0-.619-.194-1.549-.443-2.117zm-15.5-5.766c.141-.323.591-.617.943-.617h10c.352 0 .802.294.943.617l2.698 6.168c.03.069.06.148.089.233-.075-.012-.152-.018-.23-.018h-17c-.078 0-.155.006-.23.018.029-.085.058-.164.089-.233zm14.943 11.883c0 .276-.224.5-.5.5h-17c-.276 0-.5-.224-.5-.5v-4c0-.276.224-.5.5-.5h17c.276 0 .5.224.5.5z"/><path d="m16.5 11h-13c-.276 0-.5-.224-.5-.5s.224-.5.5-.5h13c.276 0 .5.224.5.5s-.224.5-.5.5z"/><path d="m15.5 9h-11c-.276 0-.5-.224-.5-.5s.224-.5.5-.5h11c.276 0 .5.224.5.5s-.224.5-.5.5z"/><path d="m14.5 7h-9c-.276 0-.5-.224-.5-.5s.224-.5.5-.5h9c.276 0 .5.224.5.5s-.224.5-.5.5z"/></svg>