<svg height="20" viewBox="0 0 20 20" width="20" xmlns="http://www.w3.org/2000/svg"><path d="m15.671 16.723c.188-.161.37-.329.547-.506 1.794-1.794 2.782-4.18 2.782-6.718 0-1.483-.332-2.904-.988-4.223-.123-.247-.423-.348-.67-.225s-.348.423-.225.67c.586 1.179.883 2.45.883 3.778 0 4.687-3.813 8.5-8.5 8.5s-8.5-3.813-8.5-8.5 3.813-8.5 8.5-8.5c1.327 0 2.598.297 3.777.883.247.123.547.022.67-.225s.022-.547-.225-.67c-1.319-.655-2.74-.988-4.223-.988-2.538 0-4.923.988-6.717 2.782s-2.783 4.18-2.783 6.717c0 2.538.988 4.923 2.783 6.717.177.177.359.345.547.506l-1.276 2.553c-.123.247-.023.547.224.671.072.036.148.053.223.053.183 0 .36-.101.448-.277l1.19-2.38c1.567 1.076 3.42 1.656 5.363 1.656s3.796-.58 5.363-1.656l1.19 2.38c.088.175.264.277.448.277.075 0 .151-.017.223-.053.247-.123.347-.424.224-.671l-1.276-2.553z"/><path d="m9.5 15c-3.033 0-5.5-2.467-5.5-5.5s2.467-5.5 5.5-5.5c.765 0 1.505.154 2.2.458.253.111.369.405.258.658s-.405.369-.658.258c-.568-.248-1.174-.374-1.8-.374-2.481 0-4.5 2.019-4.5 4.5s2.019 4.5 4.5 4.5 4.5-2.019 4.5-4.5c0-.791-.208-1.569-.602-2.25-.138-.239-.057-.545.182-.683s.545-.057.683.182c.482.833.736 1.784.736 2.751 0 3.033-2.467 5.5-5.5 5.5z"/><path d="m16.5 4h-1.5v-1.5c0-.276-.224-.5-.5-.5s-.5.224-.5.5v1.768c-.685.585-3.14 2.732-4.89 4.92-.173.216-.138.53.078.703.092.074.202.11.312.11.147 0 .292-.064.391-.188 1.705-2.131 4.188-4.295 4.793-4.812h1.817c.276 0 .5-.224.5-.5s-.224-.5-.5-.5z"/><path d="m18.5 3h-2c-.276 0-.5-.224-.5-.5v-2c0-.276.224-.5.5-.5s.5.224.5.5v1.5h1.5c.276 0 .5.224.5.5s-.224.5-.5.5z"/><path d="m9.5 12c-1.378 0-2.5-1.122-2.5-2.5 0-1.141.771-2.137 1.875-2.421.268-.069.54.092.609.36s-.092.54-.36.609c-.662.17-1.125.768-1.125 1.453 0 .827.673 1.5 1.5 1.5s1.5-.673 1.5-1.5c0-.276.224-.5.5-.5s.5.224.5.5c0 1.378-1.122 2.5-2.5 2.5z"/></svg>