<svg height="20" viewBox="0 0 20 20" width="20" xmlns="http://www.w3.org/2000/svg"><path d="m2.782 3.782c1.794-1.794 4.18-2.782 6.718-2.782s4.923.988 6.718 2.782 2.782 4.18 2.782 6.717-.988 4.923-2.782 6.718-4.18 2.782-6.718 2.782-4.923-.988-6.718-2.782-2.782-4.18-2.782-6.718.988-4.923 2.782-6.717zm6.718 15.218c4.687 0 8.5-3.813 8.5-8.5s-3.813-8.5-8.5-8.5-8.5 3.813-8.5 8.5 3.813 8.5 8.5 8.5z"/><path d="m3.647 10.147 4-4c.195-.195.512-.195.707 0s.195.512 0 .707l-3.147 3.146h10.293c.276 0 .5.224.5.5s-.224.5-.5.5h-10.293l3.146 3.147c.195.195.195.512 0 .707-.098.098-.226.146-.353.146s-.256-.049-.353-.147l-4-4c-.195-.195-.195-.512 0-.707z"/></svg>