<svg height="20" viewBox="0 0 20 20" width="20" xmlns="http://www.w3.org/2000/svg"><path d="m2.782 3.782c-1.794 1.794-2.782 4.18-2.782 6.718s.988 4.923 2.782 6.718 4.18 2.782 6.718 2.782 4.923-.988 6.718-2.782 2.782-4.18 2.782-6.717-.988-4.923-2.782-6.718-4.18-2.782-6.718-2.782-4.923.988-6.718 2.782zm15.218 6.718c0 4.687-3.813 8.5-8.5 8.5s-8.5-3.813-8.5-8.5 3.813-8.5 8.5-8.5 8.5 3.813 8.5 8.5z"/><path d="m9.147 4.647-4 4c-.195.195-.195.512 0 .707s.512.195.707 0l3.146-3.147v10.293c0 .276.224.5.5.5s.5-.224.5-.5v-10.293l3.147 3.146c.195.195.512.195.707 0 .098-.098.146-.226.146-.353s-.049-.256-.147-.353l-4-4c-.195-.195-.512-.195-.707 0z"/></svg>