<svg height="20" viewBox="0 0 20 20" width="20" xmlns="http://www.w3.org/2000/svg"><path d="m18.5 1h-5c-.276 0-.5.224-.5.5s.224.5.5.5h3.793l-8.146 8.146c-.094.094-.146.221-.146.354v9c0 .276.224.5.5.5s.5-.224.5-.5v-8.793l8-8v3.793c0 .276.224.5.5.5s.5-.224.5-.5v-5c0-.276-.224-.5-.5-.5z"/><path d="m7.854 8.146-6.146-6.146h3.793c.276 0 .5-.224.5-.5s-.224-.5-.5-.5h-5c-.276 0-.5.224-.5.5v5c0 .276.224.5.5.5s.5-.224.5-.5v-3.793l6.146 6.146c.098.098.226.146.354.146s.256-.049.354-.146c.195-.195.195-.512 0-.707z"/></svg>