<svg height="20" viewBox="0 0 20 20" width="20" xmlns="http://www.w3.org/2000/svg"><path d="m15.854 18.646-5.293-5.293c-.293-.293-.561-.939-.561-1.354v-9.793l3.146 3.146c.098.098.226.146.354.146s.256-.049.354-.146c.195-.195.195-.512 0-.707l-4-4c-.195-.195-.512-.195-.707 0l-4 4c-.195.195-.195.512 0 .707s.512.195.707 0l3.146-3.146v9.793c0 .688.367 1.574.854 2.061l5.293 5.293c.098.098.226.146.354.146s.256-.049.354-.146c.195-.195.195-.512 0-.707z"/><path d="m3.5 19.5c-.128 0-.256-.049-.354-.146-.195-.195-.195-.512 0-.707l4-4c.195-.195.512-.195.707 0s.195.512 0 .707l-4 4c-.098.098-.226.146-.354.146z"/></svg>