<svg height="20" viewBox="0 0 20 20" width="20" xmlns="http://www.w3.org/2000/svg"><path d="m18.854 13.646c-.195-.195-.512-.195-.707 0l-2.146 2.146v-9.293c0-1.93-1.57-3.5-3.5-3.5s-3.5 1.57-3.5 3.5v8c0 1.378-1.122 2.5-2.5 2.5s-2.5-1.122-2.5-2.5v-9.293l2.146 2.146c.098.098.226.146.354.146s.256-.049.354-.146c.195-.195.195-.512 0-.707l-3-3c-.195-.195-.512-.195-.707 0l-3 3c-.195.195-.195.512 0 .707s.512.195.707 0l2.146-2.146v9.293c0 1.93 1.57 3.5 3.5 3.5s3.5-1.57 3.5-3.5v-8c0-1.378 1.122-2.5 2.5-2.5s2.5 1.122 2.5 2.5v9.293l-2.146-2.147c-.195-.195-.512-.195-.707 0s-.195.512 0 .707l3 3c.098.098.226.147.354.147s.256-.049.354-.147l3-3c.195-.195.195-.512 0-.707z"/></svg>