<svg height="20" viewBox="0 0 20 20" width="20" xmlns="http://www.w3.org/2000/svg"><path d="m0 2.5v16c0 .827.673 1.5 1.5 1.5h16c.827 0 1.5-.673 1.5-1.5v-16c0-.827-.673-1.5-1.5-1.5h-16c-.827 0-1.5.673-1.5 1.5zm18 16c0 .276-.224.5-.5.5h-16c-.276 0-.5-.224-.5-.5v-16c0-.276.224-.5.5-.5h16c.276 0 .5.224.5.5z"/><path d="m11.354 7.146 3 3c.195.195.195.512 0 .707l-3 3c-.195.195-.512.195-.707 0s-.195-.512 0-.707l2.146-2.146h-8.293c-.276 0-.5-.224-.5-.5s.224-.5.5-.5h8.293l-2.146-2.146c-.098-.098-.146-.226-.146-.354s.049-.256.146-.354c.195-.195.512-.195.707 0z"/></svg>