<svg height="20" viewBox="0 0 20 20" width="20" xmlns="http://www.w3.org/2000/svg"><path d="m17.5 2h-16c-.827 0-1.5.673-1.5 1.5v10c0 .827.673 1.5 1.5 1.5h7.5v2h-3.5c-.276 0-.5.224-.5.5s.224.5.5.5h8c.276 0 .5-.224.5-.5s-.224-.5-.5-.5h-3.5v-2h7.5c.827 0 1.5-.673 1.5-1.5v-10c0-.827-.673-1.5-1.5-1.5zm.5 11.5c0 .276-.224.5-.5.5h-16c-.276 0-.5-.224-.5-.5v-10c0-.276.224-.5.5-.5h16c.276 0 .5.224.5.5z"/><path d="m16 6.5c0-.827-.673-1.5-1.5-1.5h-3c-.276 0-.5.224-.5.5s.224.5.5.5h3c.276 0 .5.224.5.5v1c0 .276-.224.5-.5.5h-3c-.276 0-.5.224-.5.5s.224.5.5.5h3c.276 0 .5.224.5.5v1c0 .276-.224.5-.5.5h-3c-.276 0-.5.224-.5.5s.224.5.5.5h3c.827 0 1.5-.673 1.5-1.5v-1c0-.384-.145-.734-.383-1 .238-.266.383-.616.383-1z"/><path d="m7.5 5c-.276 0-.5.224-.5.5v2c0 .276-.224.5-.5.5h-2c-.276 0-.5-.224-.5-.5v-2c0-.276-.224-.5-.5-.5s-.5.224-.5.5v2c0 .827.673 1.5 1.5 1.5h2c.175 0 .343-.031.5-.086v2.586c0 .276.224.5.5.5s.5-.224.5-.5v-6c0-.276-.224-.5-.5-.5z"/><path d="m9.5 8c-.276 0-.5-.224-.5-.5v-1c0-.276.224-.5.5-.5s.5.224.5.5v1c0 .276-.224.5-.5.5z"/><path d="m9.5 11c-.276 0-.5-.224-.5-.5v-1c0-.276.224-.5.5-.5s.5.224.5.5v1c0 .276-.224.5-.5.5z"/></svg>