<svg height="20" viewBox="0 0 20 20" width="20" xmlns="http://www.w3.org/2000/svg"><path d="m17.071 2.929c-1.889-1.889-4.4-2.929-7.071-2.929s-5.182 1.04-7.071 2.929-2.929 4.4-2.929 7.071 1.04 5.182 2.929 7.071 4.4 2.929 7.071 2.929c1.569 0 3.071-.353 4.465-1.05 1.329-.664 2.515-1.636 3.43-2.812.17-.218.131-.532-.087-.702s-.532-.131-.702.087c-1.72 2.209-4.31 3.476-7.106 3.476-4.963 0-9-4.037-9-9s4.037-9 9-9 9 4.037 9 9c0 1.766-1.028 3-2.5 3-1.378 0-2.5-1.122-2.5-2.5v-4c0-.276-.224-.5-.5-.5s-.5.224-.5.5v.857c-.734-.832-1.806-1.357-3-1.357-2.206 0-4 1.794-4 4s1.794 4 4 4c1.43 0 2.687-.755 3.395-1.887.584 1.12 1.757 1.887 3.105 1.887.968 0 1.853-.393 2.494-1.107.658-.734 1.006-1.734 1.006-2.893 0-2.671-1.04-5.182-2.929-7.071zm-7.071 10.071c-1.654 0-3-1.346-3-3s1.346-3 3-3 3 1.346 3 3-1.346 3-3 3z"/></svg>