<svg height="20" viewBox="0 0 20 20" width="20" xmlns="http://www.w3.org/2000/svg"><path d="m18.5 16.5c-.13 0-.258-.051-.354-.146-.503-.503-1.942-1.354-4.146-1.354s-3.644.851-4.146 1.354c-.195.195-.512.195-.707 0-.503-.503-1.942-1.354-4.146-1.354s-3.644.851-4.146 1.354c-.143.143-.358.186-.545.108s-.309-.26-.309-.462v-11c0-.133.053-.26.146-.354.759-.76 2.486-1.646 4.854-1.646 2.052 0 3.623.667 4.5 1.339.877-.672 2.448-1.339 4.5-1.339 2.367 0 4.094.887 4.854 1.646.094.094.146.221.146.354v11c0 .202-.122.385-.309.462-.062.026-.127.038-.191.038zm-13.5-2.5c2.052 0 3.623.667 4.5 1.339.877-.672 2.448-1.339 4.5-1.339 1.707 0 3.082.461 4 1.004v-9.783c-.604-.506-1.981-1.22-4-1.22-2.205 0-3.644.851-4.146 1.354-.195.195-.512.195-.707 0-.503-.503-1.942-1.354-4.146-1.354-2.019 0-3.396.714-4 1.22v9.783c.918-.542 2.293-1.004 4-1.004z"/><path d="m7.5 13.001c-.112 0-.222-.037-.312-.11l-2.363-1.891h-.325c-.276 0-.5-.224-.5-.5v-2c0-.276.224-.5.5-.5h.325l2.363-1.891c.15-.12.356-.143.529-.06s.283.258.283.451v6c0 .192-.11.367-.283.451-.069.033-.143.049-.217.049zm-2.5-3.001c.114 0 .224.039.312.11l1.688 1.35v-3.92l-1.688 1.35c-.089.071-.199.11-.312.11z"/><path d="m10.736 12c-.119 0-.238-.042-.333-.127-.206-.184-.223-.5-.039-.706.411-.459.637-1.05.637-1.667s-.226-1.208-.637-1.667c-.184-.206-.167-.522.039-.706s.522-.167.706.039c.575.642.891 1.471.891 2.334s-.317 1.691-.892 2.334c-.099.11-.235.167-.373.167z"/><path d="m12.5 13c-.105 0-.21-.033-.3-.1-.221-.166-.265-.479-.099-.7.589-.783.9-1.717.9-2.7s-.311-1.916-.899-2.7c-.166-.221-.121-.534.099-.7s.534-.121.7.1c.72.958 1.1 2.099 1.1 3.3s-.38 2.343-1.1 3.301c-.098.131-.248.2-.4.2z"/><path d="m9.366 10.5c-.085 0-.171-.022-.25-.067-.239-.138-.321-.444-.182-.683.044-.076.067-.16.067-.25s-.022-.173-.067-.25c-.138-.239-.057-.545.182-.683s.545-.057.683.182c.132.227.201.487.201.751s-.07.523-.201.751c-.093.16-.261.25-.433.25z"/></svg>