<svg height="20" viewBox="0 0 20 20" width="20" xmlns="http://www.w3.org/2000/svg"><path d="m19.971 15.676c-.011-.266-.136-.518-.343-.693l-2.423-2.043c-.201-.169-.531-.466-.72-.647l-5.096-4.874.152-.152c.585-.585.585-1.536 0-2.121l-2.686-2.686c-.283-.283-.659-.438-1.061-.438s-.778.156-1.061.438l-.259.259-.767-.734c-.394-.377-1.028-.37-1.414.016l-1.293 1.293c-.386.386-.393 1.02-.016 1.414l.531.555c-.919.482-1.947.738-3.015.738-.276 0-.5.224-.5.5 0 2.003.78 3.887 2.197 5.303s3.3 2.197 5.303 2.197c.276 0 .5-.224.5-.5 0-1.008.228-1.981.66-2.86l4.633 4.844c.181.189.478.519.647.72l2.043 2.423c.174.207.427.332.693.343.013.001.026.001.039.001.252 0 .498-.102.68-.284l2.293-2.293c.191-.191.295-.453.283-.719zm-16.264-11.66c-.002-.002-.002-.013 0-.016l1.293-1.293c.002-.002.013-.002.016 0l.751.719-.671.671c-.226.226-.466.433-.718.621zm3.31 8.966c-3.2-.236-5.764-2.799-6-6 1.808-.122 3.492-.885 4.786-2.179l1.637-1.637c.094-.094.219-.145.354-.145s.26.052.354.145l2.686 2.686c.195.195.195.512 0 .707l-1.637 1.637c-1.294 1.294-2.057 2.977-2.179 4.786zm9.702 4.967-2.014-2.389c-.183-.218-.493-.562-.689-.767l-4.825-5.045c.212-.298.45-.581.714-.844l.778-.778 5.112 4.889c.205.196.549.505.767.689l2.389 2.014-2.23 2.23z"/></svg>