<svg height="20" viewBox="0 0 20 20" width="20" xmlns="http://www.w3.org/2000/svg"><path d="m19.971 16.676c-.011-.266-.136-.518-.343-.693l-2.423-2.043c-.201-.169-.531-.466-.72-.647l-4.841-4.631c.863-.424 1.832-.662 2.857-.662.276 0 .5-.224.5-.5 0-2.003-.78-3.887-2.197-5.303s-3.3-2.197-5.303-2.197c-.276 0-.5.224-.5.5 0 1.086-.268 2.111-.741 3.012l-.552-.528c-.394-.377-1.028-.37-1.414.016l-1.293 1.293c-.386.386-.393 1.02-.016 1.414l.528.552c-.901.473-1.926.741-3.012.741-.276 0-.5.224-.5.5 0 2.003.78 3.887 2.197 5.303s3.3 2.197 5.303 2.197c.276 0 .5-.224.5-.5 0-1.024.239-1.994.662-2.857l4.631 4.841c.181.189.478.519.647.72l2.043 2.423c.174.207.427.332.693.343.013.001.026.001.039.001.252 0 .498-.102.68-.284l2.293-2.293c.191-.191.295-.453.283-.719zm-16.264-11.66c-.002-.002-.002-.013 0-.016l1.293-1.293c.002-.002.013-.002.016 0l.699.669c-.379.509-.831.96-1.339 1.339zm3.31 8.966c-3.2-.236-5.764-2.799-6-6 1.808-.122 3.492-.885 4.786-2.179s2.057-2.977 2.179-4.786c3.2.236 5.764 2.799 6 6-1.808.122-3.492.885-4.786 2.179s-2.057 2.977-2.179 4.786zm9.702 4.967-2.014-2.389c-.183-.218-.493-.562-.689-.767l-4.823-5.042c.427-.603.955-1.131 1.558-1.558l5.042 4.823c.205.196.549.505.767.689l2.389 2.014z"/></svg>