<svg height="20" viewBox="0 0 20 20" width="20" xmlns="http://www.w3.org/2000/svg"><path d="m7.5 8c-.827 0-1.5-.673-1.5-1.5 0-.276.224-.5.5-.5s.5.224.5.5.224.5.5.5.5-.224.5-.5.224-.5.5-.5.5.224.5.5c0 .827-.673 1.5-1.5 1.5z"/><path d="m11.5 8c-.827 0-1.5-.673-1.5-1.5 0-.276.224-.5.5-.5s.5.224.5.5.224.5.5.5.5-.224.5-.5.224-.5.5-.5.5.224.5.5c0 .827-.673 1.5-1.5 1.5z"/><path d="m9.5 14c-3.033 0-5.5-2.467-5.5-5.5s2.467-5.5 5.5-5.5 5.5 2.467 5.5 5.5-2.467 5.5-5.5 5.5zm0-10c-2.481 0-4.5 2.019-4.5 4.5s2.019 4.5 4.5 4.5 4.5-2.019 4.5-4.5-2.019-4.5-4.5-4.5z"/><path d="m9.5 12c-.994 0-1.945-.425-2.609-1.167-.184-.206-.167-.522.039-.706s.522-.167.706.039c.474.53 1.153.833 1.864.833s1.389-.304 1.863-.833c.184-.206.5-.223.706-.039s.223.5.039.706c-.664.741-1.614 1.166-2.609 1.166z"/><path d="m15.51 2.49c-1.605-1.605-3.74-2.49-6.01-2.49s-4.405.884-6.01 2.49-2.49 3.74-2.49 6.01v11c0 .159.076.309.204.403.087.064.191.097.296.097.05 0 .1-.007.149-.023l15.351-4.797v4.32c0 .276.224.5.5.5s.5-.224.5-.5v-4.988c0-.008 0-.015 0-.023v-5.989c0-2.27-.884-4.405-2.49-6.01zm-13.51 12.667 6.228 1.717-6.228 1.946zm15-1.025-7.009 2.19-7.991-2.203v-5.619c0-4.136 3.364-7.5 7.5-7.5s7.5 3.364 7.5 7.5z"/></svg>