<svg height="20" viewBox="0 0 20 20" width="20" xmlns="http://www.w3.org/2000/svg"><path d="m13.5 11c-.827 0-1.5-.673-1.5-1.5s.673-1.5 1.5-1.5 1.5.673 1.5 1.5-.673 1.5-1.5 1.5zm0-2c-.276 0-.5.224-.5.5s.224.5.5.5.5-.224.5-.5-.224-.5-.5-.5z"/><path d="m6.5 11c-.827 0-1.5-.669-1.5-1.491s.673-1.491 1.5-1.491 1.5.669 1.5 1.491-.673 1.491-1.5 1.491zm0-1.982c-.276 0-.5.22-.5.491s.224.491.5.491.5-.22.5-.491-.224-.491-.5-.491z"/><path d="m18.42 7.815c-.63-1.666-1.729-3.094-3.186-4.137-1.533-1.098-3.342-1.678-5.234-1.678s-3.701.58-5.234 1.678c-1.457 1.043-2.556 2.471-3.186 4.137-.993.755-1.58 1.934-1.58 3.185s.588 2.43 1.58 3.185c.63 1.666 1.729 3.094 3.186 4.137 1.533 1.098 3.342 1.678 5.234 1.678s3.701-.58 5.234-1.678c1.457-1.043 2.556-2.471 3.186-4.137.993-.755 1.58-1.934 1.58-3.185s-.588-2.43-1.58-3.185zm-.704 5.646c-.085.059-.149.144-.184.241-1.137 3.169-4.164 5.298-7.532 5.298s-6.395-2.129-7.532-5.298c-.035-.097-.099-.182-.184-.241-.804-.562-1.284-1.482-1.284-2.461s.48-1.899 1.284-2.461c.085-.059.149-.144.184-.241 1.027-2.864 3.598-4.879 6.57-5.24 1.141.25 1.962 1.264 1.962 2.442 0 .276-.224.5-.5.5s-.5-.224-.5-.5-.224-.5-.5-.5-.5.224-.5.5c0 .827.673 1.5 1.5 1.5s1.5-.673 1.5-1.5c0-.937-.372-1.8-.986-2.435 2.949.379 5.496 2.386 6.518 5.233.035.097.099.182.184.241.804.562 1.284 1.482 1.284 2.461s-.48 1.899-1.284 2.461z"/><path d="m10 16c-1.672 0-3.226-.831-4.158-2.222-.154-.229-.092-.54.137-.694s.54-.092.694.137c.745 1.113 1.989 1.778 3.327 1.778s2.581-.665 3.327-1.778c.154-.229.464-.291.694-.137s.291.464.137.694c-.931 1.391-2.486 2.222-4.158 2.222z"/></svg>