<svg height="20" viewBox="0 0 20 20" width="20" xmlns="http://www.w3.org/2000/svg"><path d="m13.5 11c-.827 0-1.5-.673-1.5-1.5s.673-1.5 1.5-1.5 1.5.673 1.5 1.5-.673 1.5-1.5 1.5zm0-2c-.276 0-.5.224-.5.5s.224.5.5.5.5-.224.5-.5-.224-.5-.5-.5z"/><path d="m6.5 11c-.827 0-1.5-.669-1.5-1.491s.673-1.491 1.5-1.491 1.5.669 1.5 1.491-.673 1.491-1.5 1.491zm0-1.982c-.276 0-.5.22-.5.491s.224.491.5.491.5-.22.5-.491-.224-.491-.5-.491z"/><path d="m10 16c-1.672 0-3.226-.831-4.158-2.222-.154-.229-.092-.54.137-.694s.54-.092.694.137c.745 1.113 1.989 1.778 3.327 1.778s2.581-.665 3.327-1.778c.154-.229.464-.291.694-.137s.291.464.137.694c-.931 1.391-2.486 2.222-4.158 2.222z"/><path d="m18.419 7.815c-.668-1.766-1.889-3.288-3.467-4.331.031-.251.054-.579.048-.992-.016-1.051-.178-1.538-.196-1.59-.138-.393-.427-.689-.792-.813s-.774-.065-1.123.162l-1.726 1.123c-.328-.235-.729-.374-1.163-.374s-.835.139-1.163.374l-1.726-1.123c-.349-.227-.758-.286-1.123-.162s-.653.42-.792.813c-.018.052-.18.539-.196 1.59-.006.413.016.742.048.992-1.578 1.042-2.799 2.565-3.467 4.331-.993.755-1.581 1.934-1.581 3.185s.588 2.43 1.58 3.185c.63 1.666 1.729 3.094 3.186 4.137 1.533 1.098 3.342 1.678 5.234 1.678s3.701-.58 5.234-1.678c1.457-1.043 2.556-2.471 3.186-4.137.993-.755 1.58-1.934 1.58-3.185s-.588-2.43-1.581-3.185zm-4.985-6.726c.092-.06.183-.079.256-.054s.133.094.169.195c.009.028.127.425.141 1.277.013.833-.109 1.228-.119 1.26-.042.11-.118.191-.214.227-.097.037-.209.026-.315-.03l-1.366-.727c.009-.078.015-.157.015-.237 0-.305-.069-.594-.191-.853l1.626-1.058zm-3.434.911c.551 0 1 .449 1 1s-.449 1-1 1-1-.449-1-1 .449-1 1-1zm-4 .508c.013-.853.132-1.249.141-1.277.036-.101.096-.17.169-.195s.164-.006.256.054l1.626 1.058c-.123.259-.191.548-.191.853 0 .08.005.159.015.237l-1.366.727c-.106.056-.218.067-.315.03-.096-.036-.172-.117-.214-.227-.01-.031-.132-.426-.119-1.26zm11.716 10.953c-.085.059-.149.144-.184.241-1.137 3.169-4.164 5.298-7.532 5.298s-6.395-2.129-7.532-5.298c-.035-.097-.099-.182-.184-.241-.804-.562-1.284-1.482-1.284-2.461s.48-1.899 1.284-2.461c.085-.059.149-.144.184-.241.552-1.54 1.575-2.88 2.908-3.827.155.207.363.367.603.458.151.057.311.086.472.086.227 0 .457-.057.667-.168l1.265-.673c.364.5.953.826 1.617.826s1.254-.326 1.618-.826l1.265.673c.21.112.439.168.667.168.161 0 .321-.028.472-.086.24-.091.448-.251.603-.458 1.333.947 2.356 2.287 2.908 3.827.035.097.099.182.184.241.804.562 1.284 1.482 1.284 2.461s-.48 1.899-1.284 2.461z"/></svg>