<svg height="20" viewBox="0 0 20 20" width="20" xmlns="http://www.w3.org/2000/svg"><path d="m8.5 17h-1c-.276 0-.5-.224-.5-.5s.224-.5.5-.5h1c.276 0 .5.224.5.5s-.224.5-.5.5z"/><path d="m8.5 15h-1c-.276 0-.5-.224-.5-.5s.224-.5.5-.5h1c.276 0 .5.224.5.5s-.224.5-.5.5z"/><path d="m9.5 13h-2c-.276 0-.5-.224-.5-.5s.224-.5.5-.5h2c.276 0 .5.224.5.5s-.224.5-.5.5z"/><path d="m13.9 6.055c-.253-1.184-.976-2.215-1.998-2.861.065-.225.098-.459.098-.694 0-1.378-1.122-2.5-2.5-2.5s-2.5 1.122-2.5 2.5c0 .235.034.469.098.694-1.023.646-1.745 1.677-1.998 2.861-.633.176-1.1.757-1.1 1.445v1c0 .652.418 1.208 1 1.414v7.586c0 1.378 1.122 2.5 2.5 2.5h4c1.378 0 2.5-1.122 2.5-2.5v-7.586c.582-.206 1-.762 1-1.414v-1c0-.689-.467-1.27-1.1-1.445zm-5.955-2.191c.12-.06.211-.165.253-.292s.031-.266-.031-.385c-.111-.214-.167-.445-.167-.687 0-.827.673-1.5 1.5-1.5s1.5.673 1.5 1.5c0 .242-.056.473-.167.687-.061.119-.073.258-.031.385s.133.233.253.292c.878.436 1.525 1.214 1.8 2.136h-6.71c.274-.922.922-1.7 1.8-2.136zm3.555 15.136h-4c-.827 0-1.5-.673-1.5-1.5v-7.5h7v7.5c0 .827-.673 1.5-1.5 1.5zm2.5-10.5c0 .276-.224.5-.5.5h-8c-.276 0-.5-.224-.5-.5v-1c0-.276.224-.5.5-.5h8c.276 0 .5.224.5.5z"/></svg>