<svg height="20" viewBox="0 0 20 20" width="20" xmlns="http://www.w3.org/2000/svg"><path d="m9.5 20c-2.538 0-4.923-.988-6.718-2.782s-2.782-4.18-2.782-6.717c0-2.538.988-4.923 2.782-6.718s4.18-2.783 6.718-2.783 4.923.988 6.718 2.783 2.782 4.18 2.782 6.718-.988 4.923-2.782 6.717-4.18 2.782-6.718 2.782zm0-18c-4.687 0-8.5 3.813-8.5 8.5s3.813 8.5 8.5 8.5 8.5-3.813 8.5-8.5-3.813-8.5-8.5-8.5z"/><path d="m8.5 15c-.13 0-.258-.051-.354-.147l-4-4c-.195-.195-.195-.512 0-.707l4-4c.143-.143.358-.186.545-.108s.309.26.309.462v8c0 .202-.122.385-.309.462-.062.026-.127.038-.191.038zm-3.293-4.5 2.793 2.793v-5.586z"/><path d="m13.5 15c-.13 0-.258-.051-.354-.147l-4-4c-.195-.195-.195-.512 0-.707l4-4c.143-.143.358-.186.545-.108s.309.26.309.462v8c0 .202-.122.385-.309.462-.062.026-.127.038-.191.038zm-3.293-4.5 2.793 2.793v-5.586z"/></svg>