<svg height="20" viewBox="0 0 20 20" width="20" xmlns="http://www.w3.org/2000/svg"><path d="m11.5 13h-3.5v-1h3.5c.276 0 .5-.224.5-.5s-.224-.5-.5-.5h-1.5v-.5c0-.276-.224-.5-.5-.5s-.5.224-.5.5v.5h-1.5c-.276 0-.5.224-.5.5v2c0 .276.224.5.5.5h3.5v1h-3.5c-.276 0-.5.224-.5.5s.224.5.5.5h1.5v.5c0 .276.224.5.5.5s.5-.224.5-.5v-.5h1.5c.276 0 .5-.224.5-.5v-2c0-.276-.224-.5-.5-.5z"/><path d="m15.733 10.136c-.716-1.203-1.626-2.21-2.358-3.018-.539-.596-1.093-1.208-1.291-1.633.331-.193.556-.418.77-.631.195-.195.195-.512 0-.707-.171-.171-.434-.192-.628-.064.222-.664.67-1.503 1.575-2.182.193-.144.255-.406.148-.622-.026-.053-.653-1.289-1.948-1.289-.81 0-1.063.51-1.198.783-.108.218-.112.227-.302.227-.378 0-.809-.219-1.266-.451-.542-.275-1.102-.559-1.719-.559h-.02c-1.17.012-2.231 1.04-2.348 1.157-.103.103-.155.244-.145.389s.083.278.199.365c.736.552 1.261 1.272 1.56 2.141.005.014.009.027.014.041-.194-.127-.457-.105-.627.065-.195.195-.195.512 0 .707.213.213.438.438.77.632-.197.424-.752 1.036-1.292 1.633-.732.809-1.643 1.815-2.358 3.018-.852 1.433-1.267 2.861-1.267 4.364 0 2.046.755 3.536 2.243 4.429 1.218.731 2.889 1.071 5.257 1.071s4.039-.34 5.257-1.071c1.488-.893 2.243-2.383 2.243-4.429 0-1.503-.414-2.931-1.267-4.364zm-9.455-8.635c.343-.248.809-.507 1.227-.511h.01c.378 0 .809.219 1.266.451.542.275 1.102.559 1.719.559.81 0 1.063-.51 1.198-.783.108-.218.112-.227.302-.227.367 0 .647.218.825.417-1.379 1.229-1.712 2.748-1.792 3.437-.359.098-.843.157-1.533.157s-1.174-.059-1.533-.157c-.078-.672-.397-2.131-1.689-3.342zm3.222 17.499c-4.556 0-6.5-1.346-6.5-4.5 0-2.992 1.946-5.141 3.366-6.711.69-.762 1.24-1.37 1.486-1.947.424.098.958.158 1.648.158s1.224-.06 1.648-.158c.246.577.796 1.185 1.485 1.947 1.421 1.57 3.366 3.719 3.366 6.711 0 3.154-1.944 4.5-6.5 4.5z"/></svg>