<svg height="20" viewBox="0 0 20 20" width="20" xmlns="http://www.w3.org/2000/svg"><path d="m8.5 17c-.218 0-.418-.143-.481-.363-.076-.266.078-.542.343-.618l7-2c.266-.076.542.078.618.343s-.078.542-.343.618l-7 2c-.046.013-.092.019-.138.019z"/><path d="m17.998 16.458-1-12c-.014-.171-.116-.327-.274-.406l-2-1c-.247-.123-.547-.023-.671.224s-.023.547.224.671l.697.348-1.258.252c-.029-.207-.062-.418-.097-.629-.445-2.673-1.119-3.918-2.118-3.918-.399 0-.774.168-1.082.486-.703.724-1.139 2.265-1.333 4.71-.008.095-.014.188-.021.281l-2.458.492-1.853-1.235 3.856-.857c.27-.06.44-.327.38-.597s-.327-.439-.597-.38l-1.025.228c.276-1.346.685-2.129 1.133-2.129.054 0 .164.072.297.274.152.231.462.295.692.143s.295-.462.143-.692c-.394-.6-.833-.725-1.133-.725-.459 0-1.109.222-1.604 1.277-.244.521-.443 1.222-.591 2.087l-2.914.647c-.196.043-.346.199-.383.396-.003.018-.005.036-.007.053l-1 13c-.016.203.093.395.275.486l4 2c.07.035.147.053.224.053.044 0 .088-.006.132-.018l11-3c.233-.063.387-.284.367-.524zm-6.863-15.275c.159-.164.284-.183.365-.183s.301.163.551.779c.221.545.416 1.318.579 2.296.037.224.071.448.102.669l-2.651.53c.227-2.848.758-3.786 1.054-4.091zm-7.202 4.207 2.067 1.378v11.923l-2.976-1.488.909-11.814zm3.067 13.455v-11.935l2.009-.402c-.042 1.127-.018 1.96-.017 2.007.008.271.23.485.499.485h.015c.276-.008.493-.239.485-.515 0-.012-.028-.956.027-2.179l2.837-.567c.108 1.009.146 1.773.146 1.785.013.276.247.489.523.476s.489-.247.476-.523c-.002-.049-.042-.864-.16-1.934l2.209-.442.919 11.027-9.967 2.718z"/></svg>