<svg height="20" viewBox="0 0 20 20" width="20" xmlns="http://www.w3.org/2000/svg"><path d="m19.997 19.438-.998-13.974c-.019-.262-.236-.464-.499-.464h-2.293l-3.854-3.854c-.195-.195-.512-.195-.707 0l-.5.5c-.195.195-.195.512 0 .707s.512.195.707 0l.146-.146 2.793 2.793h-1.586l-4.354-4.354c-.195-.195-.512-.195-.707 0l-4.354 4.354h-2.293c-.262 0-.48.203-.499.464l-1 14c-.01.138.038.275.133.376s.227.159.366.159h19 .001c.276 0 .5-.224.5-.5 0-.021-.001-.041-.004-.062zm-11.497-17.731 3.293 3.293h-6.586zm-7.463 17.293.929-13h2.034 14.034l.929 13z"/><path d="m10 14c-1.103 0-2.127-.596-2.884-1.678-.719-1.028-1.116-2.385-1.116-3.822 0-.276.224-.5.5-.5s.5.224.5.5c0 1.234.332 2.388.935 3.249.565.807 1.298 1.251 2.065 1.251s1.5-.444 2.065-1.251c.603-.861.935-2.015.935-3.249 0-.276.224-.5.5-.5s.5.224.5.5c0 1.437-.396 2.795-1.116 3.822-.757 1.082-1.782 1.678-2.884 1.678z"/></svg>