<svg height="20" viewBox="0 0 20 20" width="20" xmlns="http://www.w3.org/2000/svg"><path d="m18.985 13.379-3-12c-.057-.227-.261-.379-.485-.379-.004 0-.007 0-.011 0h-11.978c-.029-.001-.058.001-.088.006-.033.005-.066.014-.097.025-.086.032-.158.085-.213.152-.031.037-.056.079-.075.125-.011.026-.019.053-.026.08l-2.998 11.99c-.02.081-.019.164.001.242h-.001c.016.063.169.634.671 1.208.467.534 1.335 1.171 2.814 1.171s2.346-.637 2.814-1.171c.502-.574.656-1.145.671-1.208h-.001c.02-.079.021-.162.001-.242l-2.845-11.379h10.719l-2.845 11.379c-.02.081-.019.164.001.242h-.001c.016.063.169.634.671 1.208.467.534 1.335 1.171 2.814 1.171s2.346-.637 2.814-1.171c.502-.574.656-1.145.671-1.208h-.001c.02-.079.021-.162.001-.242zm-15.485 1.621c-1.214 0-1.865-.542-2.198-1h4.397c-.333.458-.984 1-2.198 1zm2.36-2h-4.719l2.36-9.438 2.36 9.438zm9.64-9.438 2.36 9.438h-4.719l2.36-9.438zm0 11.438c-1.214 0-1.865-.542-2.198-1h4.397c-.333.458-.984 1-2.198 1z"/><path d="m15.5 18h-5.46l.959-12.462c.005-.066-.003-.133-.024-.196l-1-3c-.068-.204-.259-.342-.474-.342s-.406.138-.474.342l-1 3c-.021.063-.029.13-.024.196l.959 12.462h-5.46c-.276 0-.5.224-.5.5s.224.5.5.5h12c.276 0 .5-.224.5-.5s-.224-.5-.5-.5zm-6-13.919.494 1.481-.494 6.418-.494-6.418z"/></svg>