<svg height="20" viewBox="0 0 20 20" width="20" xmlns="http://www.w3.org/2000/svg"><path d="m19.5 19c-.004 0-.007 0-.011 0-4.125 0-7.646-1.666-10.219-4.826l.453-.227c.144-.072.244-.208.27-.367s-.026-.32-.14-.434l-1.143-1.143c.057-.049.113-.099.168-.152.557-.53 1.025-1.216 1.394-2.039.718-1.604.956-3.505.655-5.216-.256-1.452-.899-2.639-1.86-3.433-.897-.742-2.05-1.134-3.335-1.134-.384 0-.78.035-1.177.105-1.523.269-2.748.974-3.543 2.04-.853 1.143-1.146 2.637-.85 4.32.28 1.586 1.056 3.199 2.131 4.427 1.169 1.335 2.55 2.071 3.891 2.071.147 0 .294-.01.439-.027l.39 1.649c.035.149.136.273.275.338.067.031.14.047.212.047.077 0 .153-.018.224-.053l.632-.316c1.423 1.8 3.123 3.169 5.058 4.073 1.842.86 3.886 1.296 6.076 1.296h.011c.276 0 .5-.224.5-.5s-.224-.5-.5-.5zm-16.454-8.736c-.958-1.094-1.65-2.531-1.899-3.942-.248-1.405-.017-2.632.666-3.548.64-.858 1.648-1.429 2.915-1.653.34-.06.677-.09 1.003-.09 2.256 0 3.791 1.363 4.21 3.74.264 1.497.046 3.229-.583 4.634-.648 1.449-1.614 2.354-2.72 2.549-.149.026-.302.04-.455.04-1.048 0-2.162-.614-3.138-1.729zm4.545 2.446c.095-.04.189-.083.281-.131l.784.784-.815.407-.251-1.061z"/></svg>