<svg height="20" viewBox="0 0 20 20" width="20" xmlns="http://www.w3.org/2000/svg"><path d="m17.604 2.396c-.878-.878-2.089-1.362-3.409-1.362-1.548 0-3.1.665-4.26 1.825l-8.075 8.075c-1.073 1.073-1.717 2.457-1.813 3.897-.097 1.465.382 2.805 1.35 3.773.878.878 2.089 1.362 3.41 1.362 1.548 0 3.1-.665 4.26-1.825l8.075-8.075c1.073-1.073 1.717-2.457 1.813-3.897.097-1.465-.382-2.805-1.35-3.772zm-8.104 2.311 5.793 5.793-5.793 5.793-5.793-5.793zm-4.694 14.259c-1.053 0-2.013-.38-2.702-1.069-1.597-1.597-1.39-4.403.462-6.255l.434-.434 5.793 5.793-.434.434c-.973.973-2.268 1.532-3.553 1.532zm11.628-9.607-.434.434-5.793-5.793.434-.434c.973-.973 2.268-1.532 3.553-1.532 1.053 0 2.013.38 2.702 1.069 1.597 1.597 1.39 4.403-.462 6.255z"/><path d="m10 6.5c0 .276-.224.5-.5.5s-.5-.224-.5-.5.224-.5.5-.5.5.224.5.5z"/><path d="m8 8.5c0 .276-.224.5-.5.5s-.5-.224-.5-.5.224-.5.5-.5.5.224.5.5z"/><path d="m6 10.5c0 .276-.224.5-.5.5s-.5-.224-.5-.5.224-.5.5-.5.5.224.5.5z"/><path d="m10 8.5c0 .276-.224.5-.5.5s-.5-.224-.5-.5.224-.5.5-.5.5.224.5.5z"/><path d="m12 8.5c0 .276-.224.5-.5.5s-.5-.224-.5-.5.224-.5.5-.5.5.224.5.5z"/><path d="m8 10.5c0 .276-.224.5-.5.5s-.5-.224-.5-.5.224-.5.5-.5.5.224.5.5z"/><path d="m10 10.5c0 .276-.224.5-.5.5s-.5-.224-.5-.5.224-.5.5-.5.5.224.5.5z"/><path d="m12 10.5c0 .276-.224.5-.5.5s-.5-.224-.5-.5.224-.5.5-.5.5.224.5.5z"/><path d="m14 10.5c0 .276-.224.5-.5.5s-.5-.224-.5-.5.224-.5.5-.5.5.224.5.5z"/><path d="m8 12.5c0 .276-.224.5-.5.5s-.5-.224-.5-.5.224-.5.5-.5.5.224.5.5z"/><path d="m10 12.5c0 .276-.224.5-.5.5s-.5-.224-.5-.5.224-.5.5-.5.5.224.5.5z"/><path d="m12 12.5c0 .276-.224.5-.5.5s-.5-.224-.5-.5.224-.5.5-.5.5.224.5.5z"/><path d="m10 14.5c0 .276-.224.5-.5.5s-.5-.224-.5-.5.224-.5.5-.5.5.224.5.5z"/></svg>