<svg height="20" viewBox="0 0 20 20" width="20" xmlns="http://www.w3.org/2000/svg"><path d="m10 6.5c0 .276-.224.5-.5.5s-.5-.224-.5-.5.224-.5.5-.5.5.224.5.5z"/><path d="m8 8.5c0 .276-.224.5-.5.5s-.5-.224-.5-.5.224-.5.5-.5.5.224.5.5z"/><path d="m6 10.5c0 .276-.224.5-.5.5s-.5-.224-.5-.5.224-.5.5-.5.5.224.5.5z"/><path d="m10 8.5c0 .276-.224.5-.5.5s-.5-.224-.5-.5.224-.5.5-.5.5.224.5.5z"/><path d="m12 8.5c0 .276-.224.5-.5.5s-.5-.224-.5-.5.224-.5.5-.5.5.224.5.5z"/><path d="m8 10.5c0 .276-.224.5-.5.5s-.5-.224-.5-.5.224-.5.5-.5.5.224.5.5z"/><path d="m10 10.5c0 .276-.224.5-.5.5s-.5-.224-.5-.5.224-.5.5-.5.5.224.5.5z"/><path d="m12 10.5c0 .276-.224.5-.5.5s-.5-.224-.5-.5.224-.5.5-.5.5.224.5.5z"/><path d="m14 10.5c0 .276-.224.5-.5.5s-.5-.224-.5-.5.224-.5.5-.5.5.224.5.5z"/><path d="m8 12.5c0 .276-.224.5-.5.5s-.5-.224-.5-.5.224-.5.5-.5.5.224.5.5z"/><path d="m10 12.5c0 .276-.224.5-.5.5s-.5-.224-.5-.5.224-.5.5-.5.5.224.5.5z"/><path d="m12 12.5c0 .276-.224.5-.5.5s-.5-.224-.5-.5.224-.5.5-.5.5.224.5.5z"/><path d="m10 14.5c0 .276-.224.5-.5.5s-.5-.224-.5-.5.224-.5.5-.5.5.224.5.5z"/><path d="m17.141 10.934-.434-.434.434-.434c1.073-1.073 1.717-2.457 1.813-3.897.097-1.465-.382-2.805-1.35-3.772-.878-.878-2.089-1.362-3.409-1.362-1.548 0-3.1.665-4.26 1.825l-.434.434-.434-.434c-1.16-1.16-2.712-1.825-4.26-1.825-1.32 0-2.531.484-3.41 1.362-.968.968-1.447 2.308-1.35 3.772.096 1.44.739 2.824 1.813 3.897l.434.434-.434.434c-1.073 1.073-1.717 2.457-1.813 3.897-.097 1.465.382 2.805 1.35 3.773.878.878 2.089 1.362 3.41 1.362 1.548 0 3.1-.665 4.26-1.825l.434-.434.434.434c1.159 1.159 2.712 1.824 4.26 1.825 1.32 0 2.531-.484 3.409-1.362.968-.968 1.447-2.308 1.35-3.773-.096-1.44-.739-2.824-1.812-3.897zm-6.5-7.368c.973-.973 2.268-1.532 3.553-1.532 1.053 0 2.013.38 2.702 1.069 1.597 1.597 1.39 4.403-.462 6.255l-.434.434-5.793-5.793.434-.434zm4.652 6.934-5.793 5.793-5.793-5.793 5.793-5.793zm-12.727-1.141c-1.852-1.852-2.059-4.658-.462-6.255.69-.69 1.649-1.069 2.702-1.069 1.284 0 2.579.558 3.553 1.532l.434.434-5.793 5.793-.434-.434zm5.793 8.075c-.973.973-2.268 1.532-3.553 1.532-1.053 0-2.013-.38-2.702-1.069-1.597-1.597-1.39-4.403.462-6.255l.434-.434 5.793 5.793-.434.434zm8.537.462c-.69.69-1.649 1.069-2.702 1.069-1.285 0-2.579-.558-3.553-1.532l-.434-.434 5.793-5.793.434.434c1.852 1.852 2.059 4.658.462 6.255z"/></svg>