<svg height="20" viewBox="0 0 20 20" width="20" xmlns="http://www.w3.org/2000/svg"><path d="m0 3h1v12h-1z"/><path d="m16 3h.5v12h-.5z"/><path d="m3.5 3h.5v12h-.5z"/><path d="m12 3h1v12h-1z"/><path d="m2 3h1v12h-1z"/><path d="m7.5 3h.5v12h-.5z"/><path d="m6 3h1v12h-1z"/><path d="m19.5 3h.5v12h-.5z"/><path d="m17 3h1v12h-1z"/><path d="m8.5 3h.5v12h-.5z"/><path d="m10 3h1v12h-1z"/><path d="m0 16h1v1h-1z"/><path d="m2 16h1v1h-1z"/><path d="m3.5 16h.5v1h-.5z"/><path d="m6 16h1v1h-1z"/><path d="m7.5 16h.5v1h-.5z"/><path d="m8.5 16h.5v1h-.5z"/><path d="m10 16h1v1h-1z"/><path d="m12 16h1v1h-1z"/><path d="m16 16h.5v1h-.5z"/><path d="m17 16h1v1h-1z"/><path d="m19.5 16h.5v1h-.5z"/></svg>