<svg height="20" viewBox="0 0 20 20" width="20" xmlns="http://www.w3.org/2000/svg"><path d="m0 3h1v12h-1z"/><path d="m16 3h.5v11h-.5z"/><path d="m3.5 3h.5v11h-.5z"/><path d="m12 3h1v11h-1z"/><path d="m2 3h1v11h-1z"/><path d="m7.5 3h.5v11h-.5z"/><path d="m6 3h1v11h-1z"/><path d="m19.5 3h.5v12h-.5z"/><path d="m17 3h1v11h-1z"/><path d="m8.5 3h.5v11h-.5z"/><path d="m10 3h1v11h-1z"/><path d="m3.5 14.5v.5h1v.5h-1v1.5h1.5v-.5h-1v-.5h1v-1.5z"/><path d="m2 14.5h.5v2.5h-.5z"/><path d="m6 14.5v.5h1v.5h-1v1.5h1.5v-.5h-1v-.5h1v-1.5z"/><path d="m9.5 14.5v1h-.5v-1h-.5v1.5h1v1h.5v-2.5z"/><path d="m11 14.5v.5h1v.5h-1v.5h1v.5h-1v.5h1.5v-2.5z"/><path d="m15 15v-.5h-1.5v1.5h1v.5h-1v.5h1.5v-1.5h-1v-.5z"/><path d="m16 14.5h.5v2.5h-.5z"/><path d="m19 15v-.5h-1.5v2.5h1.5v-1.5h-1v-.5zm-.5 1v.5h-.5v-.5z"/></svg>