<svg height="20" viewBox="0 0 20 20" width="20" xmlns="http://www.w3.org/2000/svg"><path d="m16.753 19.445c-.332 0-.636-.121-.856-.342-.236-.236-.377-.545-.396-.868-.02-.341.102-.669.333-.901.009-.009.022-.05.011-.124-.019-.12-.091-.25-.198-.357l-2.5-2.5c-1.119-1.119-2.397-1.516-3.749-1.936-1.56-.485-3.173-.986-4.751-2.564l-3.597-3.597c-1.365-1.365-1.365-3.585 0-4.95l.257-.257c.659-.659 1.538-1.021 2.475-1.021s1.816.363 2.475 1.022l3.597 3.597c1.557 1.557 2.193 3.021 2.808 4.437.542 1.247 1.053 2.425 2.192 3.563l2.5 2.5c.15.15.314.203.41.203.044 0 .065-.01.071-.015.216-.216.51-.336.827-.336.346 0 .689.145.942.398.505.505.44 1.392-.145 1.977l-1.586 1.586c-.309.309-.718.486-1.12.486zm-12.972-18.417c-.67 0-1.298.259-1.768.729l-.257.257c-.975.975-.975 2.561 0 3.536l3.597 3.597c1.403 1.403 2.896 1.867 4.34 2.316 1.409.438 2.867.891 4.16 2.184l2.5 2.5c.257.257.427.579.479.908.06.382-.046.741-.292.987-.069.069-.057.236.063.355.041.04.103.049.149.049.138 0 .292-.072.413-.194l1.586-1.586c.107-.107.176-.241.191-.368.005-.04.009-.139-.046-.195-.067-.067-.153-.105-.235-.105-.035 0-.085.007-.12.043-.199.199-.475.308-.778.308-.395 0-.802-.181-1.117-.496l-2.5-2.5c-1.273-1.273-1.847-2.594-2.402-3.872-.578-1.33-1.175-2.705-2.598-4.128l-3.597-3.597c-.47-.47-1.098-.729-1.768-.729z"/></svg>