<svg height="20" viewBox="0 0 20 20" width="20" xmlns="http://www.w3.org/2000/svg"><path d="m16.218 3.782c-1.794-1.794-4.18-2.782-6.718-2.782s-4.923.988-6.717 2.782-2.782 4.18-2.782 6.717c0 2.538.988 4.923 2.782 6.717s4.18 2.782 6.717 2.782 4.923-.988 6.718-2.782c1.794-1.794 2.782-4.18 2.782-6.717s-.988-4.923-2.782-6.717zm1.767 6.218h-4.97c.123-2.078 1.007-4.046 2.482-5.518 1.435 1.43 2.362 3.368 2.488 5.518zm-5.13 4.443c.468 1.024 1.104 1.943 1.893 2.739-1.323 1.042-2.963 1.699-4.748 1.803v-7.985h2.013c.061 1.197.344 2.353.842 3.443zm-6.71-7.886c-.468-1.024-1.104-1.943-1.893-2.739 1.323-1.042 2.963-1.699 4.748-1.803v7.985h-2.013c-.061-1.197-.344-2.353-.842-3.443zm5.868 3.443h-2.013v-7.985c1.785.104 3.424.761 4.748 1.803-.79.796-1.425 1.715-1.893 2.739-.498 1.09-.78 2.247-.842 3.443zm-5.026 1h2.013v7.985c-1.785-.104-3.424-.761-4.748-1.803.789-.796 1.425-1.715 1.893-2.739.498-1.09.78-2.246.842-3.443zm-3.484-6.518c1.475 1.472 2.359 3.44 2.482 5.518h-4.97c.125-2.15 1.053-4.088 2.488-5.518zm-2.488 6.518h4.97c-.123 2.078-1.007 4.046-2.482 5.518-1.435-1.43-2.362-3.368-2.488-5.518zm14.482 5.518c-1.475-1.472-2.359-3.44-2.482-5.518h4.97c-.125 2.15-1.053 4.088-2.488 5.518z"/></svg>