<svg height="20" viewBox="0 0 20 20" width="20" xmlns="http://www.w3.org/2000/svg"><path d="m16.5 20h-1c-.276 0-.5-.224-.5-.5s.224-.5.5-.5h1c.276 0 .5.224.5.5s-.224.5-.5.5z"/><path d="m4.5 20h-1c-.276 0-.5-.224-.5-.5s.224-.5.5-.5h1c.276 0 .5.224.5.5s-.224.5-.5.5z"/><path d="m20 12.5c0-.827-.673-1.5-1.5-1.5h-15.5v-9.5c0-.276.224-.5.5-.5h1.5c.142 0 .399.106.5.207l.126.126c-.929 1.27-.821 3.068.326 4.215.094.094.221.146.354.146s.26-.053.354-.146l3.889-3.889c.195-.195.195-.512 0-.707-.614-.614-1.43-.952-2.298-.952-.699 0-1.364.219-1.918.625l-.125-.125c-.29-.29-.797-.5-1.207-.5h-1.5c-.827 0-1.5.673-1.5 1.5v9.5h-.5c-.827 0-1.5.673-1.5 1.5 0 .652.418 1.208 1 1.414v2.586c0 1.378 1.122 2.5 2.5 2.5h13c1.378 0 2.5-1.122 2.5-2.5v-2.586c.582-.206 1-.762 1-1.414zm-10.552-11.155-3.103 3.103c-.546-.869-.442-2.033.314-2.789.425-.425.99-.659 1.591-.659.431 0 .843.12 1.198.345zm7.052 16.655h-13c-.827 0-1.5-.673-1.5-1.5v-2.5h16v2.5c0 .827-.673 1.5-1.5 1.5zm2-5h-17c-.276 0-.5-.224-.5-.5s.224-.5.5-.5h17c.276 0 .5.224.5.5s-.224.5-.5.5z"/><path d="m10 6.5c0 .276-.224.5-.5.5s-.5-.224-.5-.5.224-.5.5-.5.5.224.5.5z"/><path d="m10 4.5c0 .276-.224.5-.5.5s-.5-.224-.5-.5.224-.5.5-.5.5.224.5.5z"/><path d="m12 4.5c0 .276-.224.5-.5.5s-.5-.224-.5-.5.224-.5.5-.5.5.224.5.5z"/><path d="m12 6.5c0 .276-.224.5-.5.5s-.5-.224-.5-.5.224-.5.5-.5.5.224.5.5z"/><path d="m14 4.5c0 .276-.224.5-.5.5s-.5-.224-.5-.5.224-.5.5-.5.5.224.5.5z"/><path d="m10 8.5c0 .276-.224.5-.5.5s-.5-.224-.5-.5.224-.5.5-.5.5.224.5.5z"/><path d="m14 6.5c0 .276-.224.5-.5.5s-.5-.224-.5-.5.224-.5.5-.5.5.224.5.5z"/><path d="m12 8.5c0 .276-.224.5-.5.5s-.5-.224-.5-.5.224-.5.5-.5.5.224.5.5z"/></svg>