<svg height="20" viewBox="0 0 20 20" width="20" xmlns="http://www.w3.org/2000/svg"><path d="m6.5 16h-5c-.827 0-1.5-.673-1.5-1.5v-8c0-.827.673-1.5 1.5-1.5h5c.276 0 .5.224.5.5s-.224.5-.5.5h-5c-.276 0-.5.224-.5.5v8c0 .276.224.5.5.5h5c.276 0 .5.224.5.5s-.224.5-.5.5z"/><path d="m17.5 8h-.5v-1.5c0-.827-.673-1.5-1.5-1.5h-5c-.276 0-.5.224-.5.5s.224.5.5.5h5c.276 0 .5.224.5.5v8c0 .276-.224.5-.5.5h-5c-.276 0-.5.224-.5.5s.224.5.5.5h5c.827 0 1.5-.673 1.5-1.5v-1.5h.5c.827 0 1.5-.673 1.5-1.5v-2c0-.827-.673-1.5-1.5-1.5zm.5 3.5c0 .276-.224.5-.5.5h-.5v-3h.5c.276 0 .5.224.5.5z"/><path d="m8.5 16c-.062 0-.125-.012-.186-.036-.256-.103-.381-.394-.279-.65l1.726-4.314h-3.262c-.166 0-.321-.082-.414-.22s-.112-.312-.05-.466l2-5c.103-.256.394-.381.65-.279s.381.394.279.65l-1.726 4.314h3.262c.166 0 .321.082.414.22s.112.312.05.466l-2 5c-.078.196-.266.314-.464.314z"/></svg>