<svg height="20" viewBox="0 0 20 20" width="20" xmlns="http://www.w3.org/2000/svg"><path d="m17.5 8h-.5v-1.5c0-.827-.673-1.5-1.5-1.5h-14c-.827 0-1.5.673-1.5 1.5v8c0 .827.673 1.5 1.5 1.5h14c.827 0 1.5-.673 1.5-1.5v-1.5h.5c.827 0 1.5-.673 1.5-1.5v-2c0-.827-.673-1.5-1.5-1.5zm-1.5 6.5c0 .276-.224.5-.5.5h-14c-.276 0-.5-.224-.5-.5v-3.5h4.05c.232 1.14 1.242 2 2.45 2h2c.276 0 .5-.224.5-.5v-.5h1.5c.276 0 .5-.224.5-.5s-.224-.5-.5-.5h-1.5v-1h1.5c.276 0 .5-.224.5-.5s-.224-.5-.5-.5h-1.5v-.5c0-.276-.224-.5-.5-.5h-2c-1.207 0-2.217.86-2.45 2h-4.05v-3.5c0-.276.224-.5.5-.5h14c.276 0 .5.224.5.5zm-7-2.5h-1.5c-.827 0-1.5-.673-1.5-1.5s.673-1.5 1.5-1.5h1.5zm9-.5c0 .276-.224.5-.5.5h-.5v-3h.5c.276 0 .5.224.5.5z"/></svg>