<svg height="20" viewBox="0 0 20 20" width="20" xmlns="http://www.w3.org/2000/svg"><path d="m17.5 8h-.5v-1.5c0-.827-.673-1.5-1.5-1.5h-14c-.827 0-1.5.673-1.5 1.5v8c0 .827.673 1.5 1.5 1.5h14c.827 0 1.5-.673 1.5-1.5v-1.5h.5c.827 0 1.5-.673 1.5-1.5v-2c0-.827-.673-1.5-1.5-1.5zm-1.5 6.5c0 .276-.224.5-.5.5h-14c-.276 0-.5-.224-.5-.5v-8c0-.276.224-.5.5-.5h14c.276 0 .5.224.5.5zm2-3c0 .276-.224.5-.5.5h-.5v-3h.5c.276 0 .5.224.5.5z"/><path d="m11.777 12.084-2.376-1.584 2.376-1.584c.23-.153.292-.464.139-.693s-.464-.292-.693-.139l-2.723 1.815-2.723-1.815c-.23-.153-.54-.091-.693.139s-.091.54.139.693l2.376 1.584-2.376 1.584c-.23.153-.292.464-.139.693.096.145.255.223.417.223.095 0 .192-.027.277-.084l2.723-1.815 2.723 1.815c.085.057.182.084.277.084.162 0 .32-.078.416-.223.153-.23.091-.54-.139-.693z"/></svg>