<svg height="20" viewBox="0 0 20 20" width="20" xmlns="http://www.w3.org/2000/svg"><path d="m17.5 8h-.5v-1.5c0-.827-.673-1.5-1.5-1.5h-14c-.827 0-1.5.673-1.5 1.5v8c0 .827.673 1.5 1.5 1.5h14c.827 0 1.5-.673 1.5-1.5v-1.5h.5c.827 0 1.5-.673 1.5-1.5v-2c0-.827-.673-1.5-1.5-1.5zm-1.5 6.5c0 .276-.224.5-.5.5h-14c-.276 0-.5-.224-.5-.5v-8c0-.276.224-.5.5-.5h14c.276 0 .5.224.5.5zm2-3c0 .276-.224.5-.5.5h-.5v-3h.5c.276 0 .5.224.5.5z"/><path d="m2.5 14c-.276 0-.5-.224-.5-.5v-6c0-.276.224-.5.5-.5s.5.224.5.5v6c0 .276-.224.5-.5.5z"/><path d="m4.5 14c-.276 0-.5-.224-.5-.5v-6c0-.276.224-.5.5-.5s.5.224.5.5v6c0 .276-.224.5-.5.5z"/><path d="m6.5 14c-.276 0-.5-.224-.5-.5v-6c0-.276.224-.5.5-.5s.5.224.5.5v6c0 .276-.224.5-.5.5z"/><path d="m8.5 14c-.276 0-.5-.224-.5-.5v-6c0-.276.224-.5.5-.5s.5.224.5.5v6c0 .276-.224.5-.5.5z"/><path d="m10.5 14c-.276 0-.5-.224-.5-.5v-6c0-.276.224-.5.5-.5s.5.224.5.5v6c0 .276-.224.5-.5.5z"/><path d="m12.5 14c-.276 0-.5-.224-.5-.5v-6c0-.276.224-.5.5-.5s.5.224.5.5v6c0 .276-.224.5-.5.5z"/><path d="m14.5 14c-.276 0-.5-.224-.5-.5v-6c0-.276.224-.5.5-.5s.5.224.5.5v6c0 .276-.224.5-.5.5z"/></svg>