<svg height="20" viewBox="0 0 20 20" width="20" xmlns="http://www.w3.org/2000/svg"><path d="m16.534 15.745-4.534-8.371v-4.773c.603-.246 1-.609 1-1.101 0-1.036-1.758-1.5-3.5-1.5s-3.5.464-3.5 1.5c0 .492.397.855 1 1.101v4.773l-4.534 8.371c-.594 1.097-.651 2.154-.16 2.978s1.448 1.277 2.695 1.277h9c1.247 0 2.204-.454 2.695-1.277s.434-1.881-.16-2.978zm-7.034-14.745c1.382 0 2.22.315 2.455.5-.235.185-1.073.5-2.455.5s-2.22-.315-2.455-.5c.235-.185 1.073-.5 2.455-.5zm0 2c.514 0 1.029-.04 1.5-.124v4.622c0 .018.001.035.003.053 0 .003.001.005.001.008.002.013.003.027.006.04.002.008.004.016.006.024s.004.015.006.023.009.027.015.041c.001.002.001.004.002.006.007.016.015.032.023.048l3.39 6.259c-.726-.013-1.222-.321-1.873-.879-.418-.358-.962-.804-1.58-1.186-.035-1.073-.917-1.935-1.998-1.935-.758 0-1.419.424-1.758 1.048-.43.054-.851.155-1.257.3l1.954-3.608c.008-.015.016-.031.023-.047.001-.003.002-.005.003-.008.005-.013.01-.025.014-.038.002-.008.004-.016.006-.024s.004-.015.006-.023.005-.028.006-.042c0-.002.001-.004.001-.007.002-.018.003-.035.003-.053v-4.622c.471.083.986.124 1.5.124zm-.5 8c.551 0 1 .449 1 1s-.449 1-1 1-1-.449-1-1 .449-1 1-1zm6.836 7.211c-.303.509-.955.789-1.836.789h-9c-.881 0-1.533-.28-1.836-.789s-.239-1.216.181-1.99l1.802-3.327c.56-.39 1.191-.659 1.856-.794.052 1.056.928 1.9 1.997 1.9.753 0 1.41-.418 1.751-1.034.449.303.853.636 1.177.914.807.692 1.519 1.12 2.572 1.12.16 0 .319-.011.476-.033l.679 1.254c.419.774.484 1.481.181 1.99z"/><path d="m6.5 15c-.827 0-1.5.673-1.5 1.5s.673 1.5 1.5 1.5 1.5-.673 1.5-1.5-.673-1.5-1.5-1.5zm0 2c-.276 0-.5-.224-.5-.5s.224-.5.5-.5.5.224.5.5-.224.5-.5.5z"/><path d="m9.5 15c-.132 0-.26.053-.353.147s-.147.222-.147.353.053.261.147.353c.093.093.222.147.353.147s.261-.053.353-.147c.093-.093.147-.222.147-.353s-.053-.261-.147-.353c-.093-.093-.222-.147-.353-.147z"/></svg>