<svg height="20" viewBox="0 0 20 20" width="20" xmlns="http://www.w3.org/2000/svg"><path d="m17.5 18h-1c-.276 0-.5-.224-.5-.5s.224-.5.5-.5h1c.276 0 .5.224.5.5s-.224.5-.5.5z"/><path d="m2.5 18h-1c-.276 0-.5-.224-.5-.5s.224-.5.5-.5h1c.276 0 .5.224.5.5s-.224.5-.5.5z"/><path d="m18.658 11.393-2.368-7.103c-.199-.596-.768-1.086-1.388-1.24-.022-.095-.046-.186-.074-.27-.227-.68-.616-.781-.828-.781h-4c-.127 0-.318.037-.5.213-.182-.176-.373-.213-.5-.213h-4c-.212 0-.601.102-.828.781-.028.084-.053.174-.074.27-.621.154-1.19.643-1.388 1.24l-2.368 7.103c-.192.575-.342 1.501-.342 2.107v2c0 .827.673 1.5 1.5 1.5h16c.827 0 1.5-.673 1.5-1.5v-2c0-.606-.15-1.532-.342-2.107zm-8.501-8.393h3.686c.07.157.157.514.157 1s-.087.843-.157 1h-3.686c-.07-.157-.157-.514-.157-1s.087-.843.157-1zm-5 0h3.686c.07.157.157.514.157 1s-.087.843-.157 1h-3.686c-.07-.157-.157-.514-.157-1s.087-.843.157-1zm-1.499 1.607c.054-.162.185-.317.345-.429.014.388.072.752.169 1.041.227.68.616.781.828.781h4c.127 0 .318-.037.5-.213.182.176.373.213.5.213h4c.212 0 .601-.102.828-.781.096-.289.155-.654.169-1.041.16.113.291.267.345.429l.798 2.393h-13.279l.798-2.393zm-1.131 3.393h13.946l1.236 3.709c.032.095.062.204.091.321-.097-.02-.197-.03-.3-.03h-16c-.103 0-.203.01-.3.03.029-.117.059-.226.091-.321l1.237-3.709zm15.473 7.5c0 .276-.224.5-.5.5h-16c-.276 0-.5-.224-.5-.5v-2c0-.276.224-.5.5-.5h16c.276 0 .5.224.5.5z"/></svg>