<svg height="20" viewBox="0 0 20 20" width="20" xmlns="http://www.w3.org/2000/svg"><path d="m.5 10c-.276 0-.5-.224-.5-.5v-2c0-.276.224-.5.5-.5s.5.224.5.5v2c0 .276-.224.5-.5.5z"/><path d="m19.5 10c-.276 0-.5-.224-.5-.5v-2c0-.276.224-.5.5-.5s.5.224.5.5v2c0 .276-.224.5-.5.5z"/><path d="m10 6c-1.103 0-2-.897-2-2s.897-2 2-2 2 .897 2 2-.897 2-2 2zm0-3c-.551 0-1 .449-1 1s.449 1 1 1 1-.449 1-1-.449-1-1-1z"/><path d="m17.5 5c-.827 0-1.5.673-1.5 1.5v1.5h-1.086c-.206-.582-.762-1-1.414-1s-1.208.418-1.414 1h-4.172c-.206-.582-.762-1-1.414-1s-1.208.418-1.414 1h-1.086v-1.5c0-.827-.673-1.5-1.5-1.5s-1.5.673-1.5 1.5v4c0 .827.673 1.5 1.5 1.5s1.5-.673 1.5-1.5v-1.5h1.086c.206.582.762 1 1.414 1s1.208-.418 1.414-1h4.172c.206.582.762 1 1.414 1s1.208-.418 1.414-1h1.086v1.5c0 .827.673 1.5 1.5 1.5s1.5-.673 1.5-1.5v-4c0-.827-.673-1.5-1.5-1.5zm-14.5 5.5c0 .276-.224.5-.5.5s-.5-.224-.5-.5v-4c0-.276.224-.5.5-.5s.5.224.5.5zm3.5-1.5c-.276 0-.5-.224-.5-.5s.224-.5.5-.5.5.224.5.5 0 0 0 0c0 .276-.224.5-.5.5zm7 0c-.276 0-.5-.224-.5-.5s.224-.5.5-.5.5.224.5.5-.224.5-.5.5zm4.5 1.5c0 .276-.224.5-.5.5s-.5-.224-.5-.5v-4c0-.276.224-.5.5-.5s.5.224.5.5z"/><path d="m13.5 20h-7c-.827 0-1.5-.673-1.5-1.5v-7c0-.276.224-.5.5-.5s.5.224.5.5v7c0 .276.224.5.5.5h7c.276 0 .5-.224.5-.5v-7c0-.276.224-.5.5-.5s.5.224.5.5v7c0 .827-.673 1.5-1.5 1.5z"/><path d="m14.5 6c-.276 0-.5-.224-.5-.5v-4c0-.276-.224-.5-.5-.5h-7c-.276 0-.5.224-.5.5v4c0 .276-.224.5-.5.5s-.5-.224-.5-.5v-4c0-.827.673-1.5 1.5-1.5h7c.827 0 1.5.673 1.5 1.5v4c0 .276-.224.5-.5.5z"/><path d="m7.501 18c-.027 0-.055-.002-.083-.007-.272-.045-.456-.303-.411-.575.01-.062.26-1.547.701-3.058.669-2.292 1.397-3.36 2.293-3.36s1.624 1.068 2.293 3.36c.441 1.511.69 2.995.701 3.058.045.272-.139.53-.411.575s-.53-.139-.575-.411c-.002-.015-.252-1.495-.676-2.95-.244-.835-.496-1.494-.748-1.96-.289-.532-.507-.673-.582-.673s-.294.141-.584.676c-.253.467-.505 1.127-.749 1.964-.424 1.455-.672 2.928-.674 2.942-.041.245-.253.418-.493.418z"/></svg>