<svg height="20" viewBox="0 0 20 20" width="20" xmlns="http://www.w3.org/2000/svg"><path d="m16.5 13c-.625 0-1.212.165-1.72.453l-1.564-2.026.612-1.427h.672c.276 0 .5-.224.5-.5s-.224-.5-.5-.5h-.997c-.002 0-.004 0-.006 0h-.997c-.276 0-.5.224-.5.5s.224.5.5.5h.239l-.429 1h-5.425l-.243-.315.476-1.068c.171-.383.528-.617.666-.617h.715c.276 0 .5-.224.5-.5s-.224-.5-.5-.5h-.715c-.593 0-1.272.52-1.579 1.209l-.598 1.34c-.001.001-.001.003-.002.004l-1.151 2.579c-.304-.086-.624-.132-.955-.132-1.93 0-3.5 1.57-3.5 3.5s1.57 3.5 3.5 3.5 3.5-1.57 3.5-3.5c0-1.244-.652-2.338-1.632-2.959l.812-1.82 3.057 3.96c-.154.236-.245.517-.245.818 0 .827.675 1.5 1.504 1.5.654 0 1.211-.418 1.418-1h1.122c.243 1.694 1.704 3 3.464 3 1.93 0 3.5-1.57 3.5-3.5s-1.57-3.5-3.5-3.5zm-10.5 3.5c0 1.378-1.122 2.5-2.5 2.5s-2.5-1.122-2.5-2.5 1.122-2.5 2.5-2.5c.186 0 .367.021.541.06l-.998 2.237c-.113.252.001.548.253.66.066.03.135.044.203.044.191 0 .374-.11.457-.296l.997-2.235c.633.454 1.046 1.195 1.046 2.032zm5.513-1.104 1.251-2.917 1.224 1.586c-.502.517-.845 1.188-.953 1.935h-1.122c-.083-.233-.222-.439-.4-.604zm3.096-.528.874 1.132h-1.432c.087-.427.284-.814.558-1.132zm-2.727-2.868-1.288 3.003c-.032-.002-.065-.003-.098-.003-.162 0-.319.026-.465.074l-2.373-3.074zm-1.386 5c-.278 0-.504-.224-.504-.5s.226-.5.504-.5.504.224.504.5-.226.5-.504.5zm6.004 2c-1.207 0-2.217-.86-2.45-2h2.45c.191 0 .365-.108.449-.279s.063-.375-.053-.526l-1.496-1.938c.332-.164.706-.256 1.101-.256 1.378 0 2.5 1.122 2.5 2.5s-1.122 2.5-2.5 2.5z"/></svg>