<svg height="20" viewBox="0 0 20 20" width="20" xmlns="http://www.w3.org/2000/svg"><path d="m5.5 9.002c-.828 0-1.502-.674-1.502-1.502s.674-1.502 1.502-1.502 1.502.674 1.502 1.502-.674 1.502-1.502 1.502zm0-2.004c-.277 0-.502.225-.502.502s.225.502.502.502.502-.225.502-.502-.225-.502-.502-.502z"/><path d="m9.5 17c-.276 0-.5-.224-.5-.5v-2.998c0-.772.581-1.543 1.324-1.756l1.5-.429-3.26-2.173-1.71 1.71c-.094.094-.221.146-.354.146h-2.002c-.276 0-.5-.224-.5-.5s.224-.5.5-.5h1.795l1.854-1.854c.169-.169.433-.195.631-.063l3.668 2.445c.55.367.548.797.522.966s-.156.579-.791.761l-1.577.452c-.313.09-.599.468-.599.795v2.998c0 .276-.224.5-.5.5z"/><path d="m15 20c-2.206 0-4-1.794-4-4s1.794-4 4-4 4 1.794 4 4-1.794 4-4 4zm0-7c-1.654 0-3 1.346-3 3s1.346 3 3 3 3-1.346 3-3-1.346-3-3-3z"/><path d="m3.999 20c-2.205 0-3.999-1.794-3.999-3.999s1.794-3.999 3.999-3.999 3.999 1.794 3.999 3.999-1.794 3.999-3.999 3.999zm0-6.998c-1.654 0-2.999 1.345-2.999 2.999s1.345 2.999 2.999 2.999 2.999-1.345 2.999-2.999-1.345-2.999-2.999-2.999z"/></svg>