<svg height="20" viewBox="0 0 20 20" width="20" xmlns="http://www.w3.org/2000/svg"><path d="m4.5 17c-.632 0-1.238-.194-1.707-.545-.504-.378-.793-.908-.793-1.455 0-.276.224-.5.5-.5s.5.224.5.5c0 .472.642 1 1.5 1 .276 0 .5.224.5.5s-.224.5-.5.5z"/><path d="m19.998 14.882c-.044-2.005-1.2-4.788-2.173-6.788-1.05-2.158-2.355-4.331-2.971-4.947-.471-.471-1.278-.521-1.604-.521s-1.133.051-1.603.521c-.234.234-.494.718-.645 2.531-.013.16-.026.327-.037.503-.288-.116-.617-.18-.965-.18s-.677.065-.965.181c-.011-.176-.023-.344-.037-.504-.151-1.813-.411-2.297-.645-2.531-.471-.471-1.278-.521-1.604-.521s-1.133.051-1.604.521c-.616.616-1.921 2.789-2.971 4.947-.973 2.001-2.129 4.783-2.173 6.788-.001.039-.002.079-.002.118 0 2.206 2.019 4 4.5 4 2.475 0 4.489-1.785 4.5-3.983.002-.04.012-.26.026-.613.095-.19.455-.404.975-.404s.879.215.975.404c.014.351.024.571.026.612.01 2.198 2.025 3.983 4.5 3.983 2.481 0 4.5-1.794 4.5-4 0-.04-.001-.079-.002-.118zm-8.008-9.024c.13-1.651.337-1.97.366-2.008.306-.299 1.489-.298 1.79.003.411.411 1.605 2.265 2.779 4.678.597 1.227 1.073 2.363 1.419 3.372-.776-.564-1.766-.903-2.844-.903-1.461 0-2.761.622-3.584 1.584-.022-.854-.04-1.858-.041-2.878-.001-1.566.037-2.861.115-3.847zm-8.915 2.673c1.174-2.413 2.368-4.267 2.779-4.678.301-.301 1.484-.302 1.79-.003.029.037.236.356.366 2.006.078.986.117 2.28.115 3.845-.001 1.021-.019 2.027-.041 2.881-.823-.962-2.123-1.584-3.584-1.584-1.078 0-2.069.339-2.844.903.346-1.009.822-2.145 1.419-3.372zm1.425 9.469c-1.93 0-3.5-1.346-3.5-3 0-.026.001-.053.001-.08.05-1.617 1.6-2.92 3.499-2.92 1.93 0 3.5 1.346 3.5 3s-1.57 3-3.5 3zm5.5-5c-.339 0-.655.061-.932.168.029-.984.057-2.253.057-3.543 0-.85-.012-1.622-.035-2.309.153-.165.488-.316.91-.316.438 0 .761.154.911.315-.024.688-.036 1.459-.036 2.31 0 1.289.028 2.559.057 3.543-.277-.107-.593-.168-.932-.168zm5.5 5c-1.93 0-3.5-1.346-3.5-3s1.57-3 3.5-3c1.899 0 3.449 1.303 3.499 2.92.001.027.001.054.001.08 0 1.654-1.57 3-3.5 3z"/><path d="m15.5 17c-.632 0-1.238-.194-1.707-.545-.504-.378-.793-.908-.793-1.455 0-.276.224-.5.5-.5s.5.224.5.5c0 .472.641 1 1.5 1 .276 0 .5.224.5.5s-.224.5-.5.5z"/></svg>