<svg height="20" viewBox="0 0 20 20" width="20" xmlns="http://www.w3.org/2000/svg"><path d="m10.354 12.146-2.5-2.5c-.13-.13-.321-.178-.497-.125l-5 1.5c-.169.051-.299.187-.341.358l-2 8c-.043.17.007.351.132.475.095.095.223.146.354.146.04 0 .081-.005.121-.015l8-2c.171-.043.307-.172.358-.341l1.5-5c.053-.176.005-.367-.125-.497zm-2.251 4.938-5.973 1.493 2.724-2.724c.196.094.415.147.646.147.827 0 1.5-.673 1.5-1.5s-.673-1.5-1.5-1.5-1.5.673-1.5 1.5c0 .231.053.45.147.646l-2.724 2.724 1.493-5.973 4.442-1.332 2.078 2.078-1.332 4.442zm-3.103-2.584c0-.276.224-.5.5-.5s.5.224.5.5-.224.5-.5.5-.5-.224-.5-.5z"/><path d="m13.5 12c-.276 0-.5-.224-.5-.5 0-2.481-2.019-4.5-4.5-4.5-.276 0-.5-.224-.5-.5s.224-.5.5-.5c3.033 0 5.5 2.467 5.5 5.5 0 .276-.224.5-.5.5z"/><path d="m16.5 12c-.276 0-.5-.224-.5-.5 0-4.136-3.364-7.5-7.5-7.5-.276 0-.5-.224-.5-.5s.224-.5.5-.5c2.27 0 4.405.884 6.01 2.49s2.49 3.74 2.49 6.01c0 .276-.224.5-.5.5z"/><path d="m19.5 12c-.276 0-.5-.224-.5-.5 0-5.79-4.71-10.5-10.5-10.5-.276 0-.5-.224-.5-.5s.224-.5.5-.5c1.552 0 3.058.304 4.476.904 1.369.579 2.599 1.408 3.655 2.464s1.885 2.286 2.464 3.655c.6 1.418.904 2.924.904 4.476 0 .276-.224.5-.5.5z"/></svg>