<svg height="20" viewBox="0 0 20 20" width="20" xmlns="http://www.w3.org/2000/svg"><path d="m19.906 14.208c-.094-.13-.245-.208-.406-.208h-8.5v-1h6.5c.206 0 .391-.126.466-.318s.024-.41-.127-.55c-.011-.01-1.122-1.041-2.519-2.883-1.286-1.695-3.084-4.446-4.35-7.92-.083-.228-.318-.363-.557-.321s-.413.25-.413.492v12.5h-9.5c-.161 0-.312.077-.406.208s-.12.298-.069.45c.72 2.159 1.493 3.66 3.126 4.477 1.463.731 3.454.865 6.849.865s5.386-.134 6.849-.865c1.632-.816 2.406-2.318 3.126-4.477.051-.152.025-.32-.069-.45zm-8.906-10.198c1.164 2.503 2.51 4.509 3.539 5.864.691.91 1.309 1.623 1.772 2.125h-5.311v-7.99zm5.401 14.23c-1.277.639-3.235.76-6.401.76s-5.124-.121-6.401-.76c-1.04-.52-1.72-1.424-2.393-3.24h17.589c-.674 1.816-1.353 2.72-2.393 3.24z"/><path d="m8.5 13h-6c-.214 0-.404-.136-.473-.338s-.003-.426.166-.557c.011-.008 1.118-.876 2.388-2.269 1.16-1.273 2.699-3.259 3.444-5.494.078-.233.312-.375.554-.335s.42.248.42.494v8c0 .276-.224.5-.5.5zm-4.659-1h4.159v-5.157c-.824 1.484-1.853 2.761-2.693 3.682-.542.593-1.05 1.091-1.465 1.475z"/><path d="m4.5 17c-.132 0-.261-.053-.353-.147s-.147-.222-.147-.353.053-.261.147-.353c.093-.093.222-.147.353-.147s.26.053.353.147c.093.093.147.222.147.353s-.053.261-.147.353c-.093.093-.222.147-.353.147z"/><path d="m6.5 17c-.132 0-.261-.053-.353-.147s-.147-.222-.147-.353.053-.261.147-.353c.093-.093.222-.147.353-.147s.261.053.353.147c.093.093.147.222.147.353s-.053.261-.147.353c-.093.093-.222.147-.353.147z"/><path d="m8.5 17c-.132 0-.261-.053-.353-.147s-.147-.222-.147-.353.053-.261.147-.353c.093-.093.222-.147.353-.147s.261.053.353.147c.093.093.147.222.147.353s-.053.261-.147.353c-.093.093-.222.147-.353.147z"/></svg>