<svg height="20" viewBox="0 0 20 20" width="20" xmlns="http://www.w3.org/2000/svg"><path d="m10 9h-2.5c-.276 0-.5-.224-.5-.5v-3c0-.276.224-.5.5-.5h2.5c1.103 0 2 .897 2 2s-.897 2-2 2zm-2-1h2c.551 0 1-.449 1-1s-.449-1-1-1h-2z"/><path d="m11 15h-3.5c-.276 0-.5-.224-.5-.5v-3c0-.276.224-.5.5-.5h3.5c1.103 0 2 .897 2 2s-.897 2-2 2zm-3-1h3c.551 0 1-.449 1-1s-.449-1-1-1h-3z"/><path d="m11 18h-5.5c-.827 0-1.5-.673-1.5-1.5v-13c0-.827.673-1.5 1.5-1.5h4.5c2.757 0 5 2.243 5 5 0 .824-.202 1.628-.587 2.349 1.013.945 1.587 2.253 1.587 3.651 0 2.757-2.243 5-5 5zm-5.5-15c-.276 0-.5.224-.5.5v13c0 .276.224.5.5.5h5.5c2.206 0 4-1.794 4-4 0-1.237-.561-2.385-1.539-3.151-.211-.165-.253-.466-.1-.682.418-.646.639-1.395.639-2.167 0-2.206-1.794-4-4-4z"/></svg>