<svg height="20" viewBox="0 0 20 20" width="20" xmlns="http://www.w3.org/2000/svg"><path d="m14.5 20c-1.378 0-2.5-1.122-2.5-2.5v-1.5c0-.415-.267-1.06-.561-1.354l-6.086-6.086c-.293-.293-.939-.561-1.354-.561h-1.5c-1.378 0-2.5-1.122-2.5-2.5s1.122-2.5 2.5-2.5c.276 0 .5-.224.5-.5 0-1.378 1.122-2.5 2.5-2.5s2.5 1.122 2.5 2.5v1.5c0 .415.267 1.06.561 1.354l6.086 6.086c.293.293.939.561 1.354.561h1.5c1.378 0 2.5 1.122 2.5 2.5s-1.122 2.5-2.5 2.5c-.276 0-.5.224-.5.5 0 1.378-1.122 2.5-2.5 2.5zm-9-19c-.827 0-1.5.673-1.5 1.5s-.673 1.5-1.5 1.5-1.5.673-1.5 1.5.673 1.5 1.5 1.5h1.5c.688 0 1.574.367 2.061.854l6.086 6.086c.487.487.854 1.372.854 2.061v1.5c0 .827.673 1.5 1.5 1.5s1.5-.673 1.5-1.5.673-1.5 1.5-1.5 1.5-.673 1.5-1.5-.673-1.5-1.5-1.5h-1.5c-.688 0-1.574-.367-2.061-.854l-6.086-6.086c-.487-.487-.854-1.372-.854-2.061v-1.5c0-.827-.673-1.5-1.5-1.5z"/></svg>