<svg height="20" viewBox="0 0 20 20" width="20" xmlns="http://www.w3.org/2000/svg"><path d="m14.5 18h-10c-.276 0-.5-.224-.5-.5s.224-.5.5-.5h10c.276 0 .5.224.5.5s-.224.5-.5.5z"/><path d="m16.5 3c-.276 0-.5.224-.5.5v15c0 .276-.224.5-.5.5h-11c-.827 0-1.5-.673-1.5-1.5s.673-1.5 1.5-1.5h9c.827 0 1.5-.673 1.5-1.5v-12c0-.827-.673-1.5-1.5-1.5h-10c-.827 0-1.5.673-1.5 1.5v15c0 1.378 1.122 2.5 2.5 2.5h11c.827 0 1.5-.673 1.5-1.5v-15c0-.276-.224-.5-.5-.5zm-10.5-1h2v6.293l-.646-.646c-.195-.195-.512-.195-.707 0l-.646.646v-6.293zm-3 .5c0-.276.224-.5.5-.5h1.5v7.5c0 .202.122.385.309.462s.402.035.545-.108l1.146-1.146 1.146 1.146c.096.096.224.146.354.146.064 0 .129-.012.191-.038.187-.077.309-.26.309-.462v-7.5h4.5c.276 0 .5.224.5.5v12c0 .276-.224.5-.5.5h-9c-.562 0-1.082.187-1.5.501z"/></svg>