<svg height="20" viewBox="0 0 20 20" width="20" xmlns="http://www.w3.org/2000/svg"><path d="m18.854 4.646c-.759-.76-2.486-1.646-4.854-1.646-2.052 0-3.623.667-4.5 1.339-.877-.672-2.448-1.339-4.5-1.339-2.367 0-4.094.887-4.854 1.646-.094.094-.146.221-.146.354v11c0 .202.122.385.309.462s.402.035.545-.108c.503-.503 1.942-1.354 4.146-1.354s3.644.851 4.146 1.354c.195.195.512.195.707 0 .503-.503 1.942-1.354 4.146-1.354s3.644.851 4.146 1.354c.096.096.223.146.354.146.064 0 .129-.012.191-.038.187-.077.309-.26.309-.462v-11c0-.133-.053-.26-.146-.354zm-17.854 10.358v-9.783c.604-.506 1.981-1.22 4-1.22s3.397.714 4 1.221v9.783c-.918-.542-2.292-1.004-4-1.004s-3.082.461-4 1.004zm17 0c-.918-.542-2.293-1.004-4-1.004s-3.082.462-4 1.004v-9.783c.603-.506 1.98-1.221 4-1.221s3.396.714 4 1.22v9.783z"/></svg>