<svg height="20" viewBox="0 0 20 20" width="20" xmlns="http://www.w3.org/2000/svg"><path d="m14.5 18h-10c-.276 0-.5-.224-.5-.5s.224-.5.5-.5h10c.276 0 .5.224.5.5s-.224.5-.5.5z"/><path d="m16.5 3c-.276 0-.5.224-.5.5v15c0 .276-.224.5-.5.5h-11c-.827 0-1.5-.673-1.5-1.5s.673-1.5 1.5-1.5h9c.827 0 1.5-.673 1.5-1.5v-12c0-.827-.673-1.5-1.5-1.5h-10c-.827 0-1.5.673-1.5 1.5v15c0 1.378 1.122 2.5 2.5 2.5h11c.827 0 1.5-.673 1.5-1.5v-15c0-.276-.224-.5-.5-.5zm-13-1h10c.276 0 .5.224.5.5v12c0 .276-.224.5-.5.5h-9c-.562 0-1.082.187-1.5.501v-13.001c0-.276.224-.5.5-.5z"/></svg>