<svg height="20" viewBox="0 0 20 20" width="20" xmlns="http://www.w3.org/2000/svg"><path d="m3 10h1v1h-1z"/><path d="m5 10h1v1h-1z"/><path d="m7 10h1v1h-1z"/><path d="m9 10h1v1h-1z"/><path d="m11 10h1v1h-1z"/><path d="m13 10h1v1h-1z"/><path d="m15 10h1v1h-1z"/><path d="m9 16h1v1h-1z"/><path d="m9 14h1v1h-1z"/><path d="m9 12h1v1h-1z"/><path d="m9 8h1v1h-1z"/><path d="m9 6h1v1h-1z"/><path d="m9 4h1v1h-1z"/><path d="m16.5 19h-14c-.827 0-1.5-.673-1.5-1.5v-14c0-.827.673-1.5 1.5-1.5h14c.827 0 1.5.673 1.5 1.5v14c0 .827-.673 1.5-1.5 1.5zm-14-16c-.276 0-.5.224-.5.5v14c0 .276.224.5.5.5h14c.276 0 .5-.224.5-.5v-14c0-.276-.224-.5-.5-.5z"/></svg>