<svg height="20" viewBox="0 0 20 20" width="20" xmlns="http://www.w3.org/2000/svg"><path d="m1 10h1v1h-1z"/><path d="m3 10h1v1h-1z"/><path d="m5 10h1v1h-1z"/><path d="m7 10h1v1h-1z"/><path d="m9 10h1v1h-1z"/><path d="m11 10h1v1h-1z"/><path d="m13 10h1v1h-1z"/><path d="m15 10h1v1h-1z"/><path d="m17 10h1v1h-1z"/><path d="m9 16h1v1h-1z"/><path d="m9 14h1v1h-1z"/><path d="m9 12h1v1h-1z"/><path d="m9 8h1v1h-1z"/><path d="m9 6h1v1h-1z"/><path d="m9 4h1v1h-1z"/><path d="m9 2h1v1h-1z"/><path d="m1 16h1v1h-1z"/><path d="m1 14h1v1h-1z"/><path d="m1 12h1v1h-1z"/><path d="m1 2h1v1h-1z"/><path d="m1 8h1v1h-1z"/><path d="m1 6h1v1h-1z"/><path d="m1 4h1v1h-1z"/><path d="m17 16h1v1h-1z"/><path d="m17 14h1v1h-1z"/><path d="m17 12h1v1h-1z"/><path d="m17 2h1v1h-1z"/><path d="m17 8h1v1h-1z"/><path d="m17 6h1v1h-1z"/><path d="m17 4h1v1h-1z"/><path d="m3 2h1v1h-1z"/><path d="m5 2h1v1h-1z"/><path d="m7 2h1v1h-1z"/><path d="m11 2h1v1h-1z"/><path d="m13 2h1v1h-1z"/><path d="m15 2h1v1h-1z"/><path d="m17.5 19h-16c-.276 0-.5-.224-.5-.5s.224-.5.5-.5h16c.276 0 .5.224.5.5s-.224.5-.5.5z"/></svg>