<svg height="20" viewBox="0 0 20 20" width="20" xmlns="http://www.w3.org/2000/svg"><path d="m9 2h1v1h-1z"/><path d="m17 18h1v1h-1z"/><path d="m9 18h1v1h-1z"/><path d="m3 2h1v1h-1z"/><path d="m15 2h1v1h-1z"/><path d="m3 18h1v1h-1z"/><path d="m5 18h1v1h-1z"/><path d="m7 18h1v1h-1z"/><path d="m11 18h1v1h-1z"/><path d="m13 18h1v1h-1z"/><path d="m15 18h1v1h-1z"/><path d="m1.5 19c-.276 0-.5-.224-.5-.5v-16c0-.276.224-.5.5-.5s.5.224.5.5v16c0 .276-.224.5-.5.5z"/><path d="m7.5 3h-2c-.276 0-.5-.224-.5-.5s.224-.5.5-.5h2c.276 0 .5.224.5.5s-.224.5-.5.5z"/><path d="m13.5 3h-2c-.276 0-.5-.224-.5-.5s.224-.5.5-.5h2c.276 0 .5.224.5.5s-.224.5-.5.5z"/><path d="m17.5 5c-.276 0-.5-.224-.5-.5v-2c0-.276.224-.5.5-.5s.5.224.5.5v2c0 .276-.224.5-.5.5z"/><path d="m17.5 9c-.276 0-.5-.224-.5-.5v-2c0-.276.224-.5.5-.5s.5.224.5.5v2c0 .276-.224.5-.5.5z"/><path d="m17.5 13c-.276 0-.5-.224-.5-.5v-2c0-.276.224-.5.5-.5s.5.224.5.5v2c0 .276-.224.5-.5.5z"/><path d="m17.5 17c-.276 0-.5-.224-.5-.5v-2c0-.276.224-.5.5-.5s.5.224.5.5v2c0 .276-.224.5-.5.5z"/></svg>