<svg height="20" viewBox="0 0 20 20" width="20" xmlns="http://www.w3.org/2000/svg"><path d="m14 5.5c0-.723-.453-1.57-1.055-1.971l-1.062-.708c.073-.087.117-.199.117-.321v-2c0-.276-.224-.5-.5-.5h-4c-.276 0-.5.224-.5.5v2c0 .122.044.234.117.321l-1.062.708c-.601.401-1.055 1.248-1.055 1.971v1c0 .384.145.734.383 1-.238.266-.383.616-.383 1s.145.734.383 1c-.238.266-.383.616-.383 1s.145.734.383 1c-.238.266-.383.616-.383 1s.145.734.383 1c-.238.266-.383.616-.383 1s.145.734.383 1c-.238.266-.383.616-.383 1v2c0 .827.673 1.5 1.5 1.5h6c.827 0 1.5-.673 1.5-1.5v-2c0-.384-.145-.734-.383-1 .238-.266.383-.616.383-1s-.145-.734-.383-1c.238-.266.383-.616.383-1s-.145-.734-.383-1c.238-.266.383-.616.383-1s-.145-.734-.383-1c.238-.266.383-.616.383-1s-.145-.734-.383-1c.238-.266.383-.616.383-1zm-6-4.5h3v1h-3zm-2 4.5c0-.383.29-.926.609-1.139l2.042-1.361h1.697l2.042 1.361c.319.213.609.755.609 1.139v1c0 .276-.224.5-.5.5h-6c-.276 0-.5-.224-.5-.5v-1zm7 3c0 .276-.224.5-.5.5h-6c-.276 0-.5-.224-.5-.5s.224-.5.5-.5h6c.276 0 .5.224.5.5zm0 2c0 .276-.224.5-.5.5h-6c-.276 0-.5-.224-.5-.5s.224-.5.5-.5h6c.276 0 .5.224.5.5zm0 2c0 .276-.224.5-.5.5h-6c-.276 0-.5-.224-.5-.5s.224-.5.5-.5h6c.276 0 .5.224.5.5zm0 2c0 .276-.224.5-.5.5h-6c-.276 0-.5-.224-.5-.5s.224-.5.5-.5h6c.276 0 .5.224.5.5zm0 4c0 .276-.224.5-.5.5h-6c-.276 0-.5-.224-.5-.5v-2c0-.276.224-.5.5-.5h6c.276 0 .5.224.5.5z"/></svg>