<svg height="20" viewBox="0 0 20 20" width="20" xmlns="http://www.w3.org/2000/svg"><path d="m18.426 6.846c-.394-.703-1.29-1.021-2.039-.724l-4.53 1.793c-.622-.568-1.45-.914-2.357-.914s-1.734.347-2.357.914l-4.53-1.793c-.749-.297-1.645.022-2.039.724-.059.105-.574 1.097-.574 3.654s.516 3.549.574 3.654c.295.525.869.835 1.453.835.198 0 .397-.036.587-.111l4.53-1.793c.622.568 1.45.914 2.357.914s1.734-.347 2.357-.914l4.53 1.793c.19.075.389.111.587.111.584 0 1.158-.31 1.453-.835.059-.105.574-1.097.574-3.654s-.516-3.549-.574-3.654zm-16.18 7.102c-.277.11-.649-.021-.797-.28-.023-.046-.449-.93-.449-3.169s.426-3.123.449-3.169c.148-.259.52-.389.797-.28l4.237 1.677c-.226.383-.381.813-.447 1.272h-1.536c-.276 0-.5.224-.5.5s.224.5.5.5h1.536c.066.458.221.888.447 1.272zm7.254-.948c-1.378 0-2.5-1.122-2.5-2.5s1.122-2.5 2.5-2.5 2.5 1.122 2.5 2.5-1.122 2.5-2.5 2.5zm8.051.669c-.148.259-.52.389-.797.28l-4.237-1.677c.226-.383.381-.813.447-1.272h1.536c.276 0 .5-.224.5-.5s-.224-.5-.5-.5h-1.536c-.066-.458-.221-.888-.447-1.272l4.237-1.677c.277-.11.649.021.797.28.023.046.449.93.449 3.169s-.426 3.123-.449 3.169z"/></svg>