<svg height="20" viewBox="0 0 20 20" width="20" xmlns="http://www.w3.org/2000/svg"><path d="m6.414 18.068c-.239-.139-.545-.058-.684.181-.194.333-.368.591-.482.751h-2.496c-.436-.616-1.752-2.668-1.752-5 0-1.507.692-2.6 1.361-3.657.49-.774.957-1.512 1.096-2.343h1.083c.071.453.236.952.506 1.533.116.251.414.359.664.243s.359-.414.243-.664c-.309-.666-.453-1.179-.453-1.612 0-.482.098-1.116.202-1.787.246-1.584.499-3.223-.273-4.124-.335-.391-.816-.589-1.429-.589s-1.094.198-1.429.589c-.772.901-.518 2.54-.273 4.124.104.671.202 1.304.202 1.787 0 .754-.456 1.474-.984 2.308-.711 1.123-1.516 2.395-1.516 4.192 0 3.139 2.023 5.705 2.11 5.812.095.119.239.188.39.188h3c.152 0 .296-.069.39-.188.013-.016.325-.408.704-1.061.139-.239.058-.545-.181-.684zm-3.061-12.068h1.293c-.052.351-.098.687-.124 1h-1.046c-.026-.313-.071-.649-.124-1zm-.023-3.76c.088-.103.254-.24.67-.24s.582.137.67.24c.403.471.29 1.656.129 2.76h-1.598c-.161-1.104-.274-2.289.129-2.76z"/><path d="m18.484 9.808c-.528-.834-.984-1.554-.984-2.308 0-.482.098-1.116.202-1.787.246-1.584.499-3.223-.273-4.124-.335-.391-.816-.589-1.429-.589s-1.094.198-1.429.589c-.772.901-.518 2.54-.273 4.124.104.671.202 1.304.202 1.787 0 .433-.144.946-.453 1.612-.116.25-.007.548.243.664s.548.007.664-.243c.27-.581.435-1.08.506-1.533h1.083c.14.831.607 1.569 1.096 2.343.669 1.057 1.361 2.15 1.361 3.657 0 2.332-1.316 4.384-1.752 5h-2.496c-.114-.161-.288-.418-.482-.751-.139-.239-.445-.32-.684-.181s-.32.445-.181.684c.38.653.691 1.045.704 1.061.095.119.239.188.39.188h3c.152 0 .296-.069.39-.188.086-.108 2.11-2.673 2.11-5.812 0-1.796-.806-3.069-1.516-4.192zm-3.154-7.568c.088-.103.254-.24.67-.24s.582.137.67.24c.403.471.29 1.656.129 2.76h-1.598c-.161-1.104-.274-2.289.129-2.76zm.023 3.76h1.293c-.052.351-.098.687-.124 1h-1.046c-.026-.313-.071-.649-.124-1z"/><path d="m12.497 9.043c-.535-.952-.997-1.775-.997-2.543 0-.482.098-1.116.202-1.787.246-1.584.499-3.223-.273-4.124-.335-.391-.816-.589-1.429-.589s-1.094.198-1.429.589c-.772.901-.518 2.54-.273 4.124.104.671.202 1.304.202 1.787 0 .768-.462 1.591-.997 2.543-.704 1.254-1.503 2.675-1.503 4.457 0 3.116 1.999 6.15 2.084 6.277.093.139.249.223.416.223h3c.167 0 .323-.084.416-.223.085-.128 2.084-3.162 2.084-6.277 0-1.782-.798-3.203-1.503-4.457zm-1.974-3.043h-1.046c-.026-.313-.071-.649-.124-1h1.293c-.052.351-.098.687-.124 1zm-1.193-4.76c.088-.103.254-.24.67-.24s.582.137.67.24c.403.471.29 1.656.129 2.76h-1.598c-.161-1.104-.274-2.289.129-2.76zm1.893 17.76h-2.446c-.441-.731-1.777-3.143-1.777-5.5 0-1.521.699-2.764 1.375-3.967.484-.862.946-1.684 1.084-2.533h1.083c.138.849.599 1.671 1.084 2.533.676 1.203 1.375 2.447 1.375 3.967 0 2.357-1.337 4.769-1.777 5.5z"/></svg>