<svg height="20" viewBox="0 0 20 20" width="20" xmlns="http://www.w3.org/2000/svg"><path d="m19.428 5.384-2.492-4.272c-.37-.634-1.202-1.112-1.936-1.112h-10c-.734 0-1.566.478-1.936 1.112l-2.492 4.272c-.321.55-.572 1.479-.572 2.116v3c0 .652.418 1.208 1 1.414v6.586c0 .827.673 1.5 1.5 1.5h15c.827 0 1.5-.673 1.5-1.5v-6.586c.582-.206 1-.762 1-1.414v-3c0-.637-.251-1.566-.572-2.116zm-15.5-3.768c.188-.322.699-.616 1.072-.616h10c.373 0 .884.293 1.072.616l2.492 4.272c.021.036.042.076.063.118-.042-.004-.084-.006-.127-.006h-17c-.043 0-.085.002-.127.006.021-.042.042-.081.063-.118zm13.572 17.384h-15c-.276 0-.5-.224-.5-.5v-6.5h16v6.5c0 .276-.224.5-.5.5zm1.5-8.5c0 .276-.224.5-.5.5h-17c-.276 0-.5-.224-.5-.5v-3c0-.276.224-.5.5-.5h17c.276 0 .5.224.5.5z"/><path d="m12.5 16h-5c-.827 0-1.5-.673-1.5-1.5s.673-1.5 1.5-1.5h5c.827 0 1.5.673 1.5 1.5s-.673 1.5-1.5 1.5zm-5-2c-.276 0-.5.224-.5.5s.224.5.5.5h5c.276 0 .5-.224.5-.5s-.224-.5-.5-.5z"/></svg>