<svg height="20" viewBox="0 0 20 20" width="20" xmlns="http://www.w3.org/2000/svg"><path d="m12.5 7c-.276 0-.5-.224-.5-.5s.224-.5.5-.5.5-.224.5-.5.224-.5.5-.5.5.224.5.5c0 .827-.673 1.5-1.5 1.5z"/><path d="m12.585 15c-.206 0-.399-.128-.471-.333-.076-.214-.114-.438-.114-.667 0-1.103.897-2 2-2 .228 0 .453.038.667.114.26.092.397.378.305.638s-.378.397-.638.305c-.107-.038-.219-.057-.333-.057-.551 0-1 .449-1 1 0 .115.019.227.057.333.092.26-.044.546-.305.638-.055.019-.111.029-.167.029z"/><path d="m19 10.5c0-2.459-.764-4.801-2.21-6.779-.373-1.106-1.218-2.014-2.339-2.45-.544-.769-1.44-1.272-2.451-1.272-1.042 0-1.962.534-2.5 1.344-.538-.809-1.458-1.344-2.5-1.344-1.011 0-1.907.503-2.451 1.272-1.122.436-1.967 1.344-2.339 2.45-1.446 1.978-2.21 4.32-2.21 6.779 0 .655.056 1.312.166 1.953-.11.498-.166 1.017-.166 1.547 0 1.584.508 3.078 1.431 4.206.947 1.157 2.214 1.794 3.569 1.794.263 0 .527-.025.785-.073.231.048.47.073.715.073 1.272 0 2.387-.682 3-1.699.613 1.017 1.728 1.699 3 1.699.245 0 .484-.025.715-.073.259.049.522.073.785.073 1.355 0 2.622-.637 3.569-1.794.923-1.128 1.431-2.622 1.431-4.206 0-.531-.056-1.049-.166-1.547.11-.641.166-1.297.166-1.953zm-12.5 8.5c-1.378 0-2.5-1.122-2.5-2.5 0-.276-.224-.5-.5-.5s-.5.224-.5.5c0 .876.323 1.677.857 2.292-1.65-.616-2.857-2.531-2.857-4.792 0-1.158.326-2.288.917-3.181.152-.23.089-.541-.141-.693s-.54-.089-.693.141c-.028.042-.055.085-.082.127.016-1.603.387-3.149 1.087-4.557.156.735.517 1.413 1.055 1.962.098.1.228.15.357.15.126 0 .253-.048.35-.143.197-.193.201-.51.007-.707-.553-.564-.857-1.31-.857-2.099 0-.878.381-1.689 1.01-2.246-.007.081-.01.163-.01.246 0 .202.02.403.06.6.048.237.257.401.489.401.033 0 .066-.003.1-.01.271-.055.445-.319.391-.589-.027-.131-.04-.266-.04-.401 0-1.103.897-2 2-2s2 .897 2 2v6.766c-.531-.476-1.232-.766-2-.766-.203 0-.406.021-.604.061-.271.055-.445.32-.39.59s.319.445.59.39c.132-.027.268-.041.404-.041 1.103 0 2 .897 2 2v4.5c0 1.378-1.122 2.5-2.5 2.5zm8.643-.209c.533-.614.857-1.416.857-2.291 0-.276-.224-.5-.5-.5s-.5.224-.5.5c0 1.378-1.122 2.5-2.5 2.5s-2.5-1.122-2.5-2.5v-4.5c0-1.103.897-2 2-2 .136 0 .272.014.404.041.27.055.535-.119.59-.39s-.119-.535-.39-.59c-.198-.04-.401-.061-.604-.061-.768 0-1.469.29-2 .766v-6.766c0-1.103.897-2 2-2s2 .897 2 2c0 .135-.013.27-.04.401-.055.271.12.535.391.589.034.007.067.01.1.01.233 0 .441-.164.489-.401.04-.196.06-.398.06-.599 0-.083-.004-.165-.01-.246.629.558 1.01 1.368 1.01 2.246 0 .79-.304 1.535-.857 2.099-.193.197-.19.514.007.707.097.095.224.143.35.143.13 0 .259-.05.357-.15.538-.549.899-1.226 1.055-1.962.7 1.407 1.071 2.954 1.087 4.557-.027-.043-.054-.085-.082-.127-.152-.23-.463-.293-.693-.141s-.293.463-.141.693c.591.893.917 2.023.917 3.181 0 2.26-1.206 4.175-2.857 4.791z"/><path d="m6.5 7c-.827 0-1.5-.673-1.5-1.5 0-.276.224-.5.5-.5s.5.224.5.5.224.5.5.5.5.224.5.5-.224.5-.5.5z"/><path d="m6.415 15c-.055 0-.112-.009-.167-.029-.26-.092-.397-.378-.305-.638.038-.107.057-.219.057-.333 0-.551-.449-1-1-1-.115 0-.227.019-.333.057-.26.092-.546-.044-.638-.305s.044-.546.305-.638c.214-.076.438-.114.667-.114 1.103 0 2 .897 2 2 0 .228-.038.453-.114.667-.073.205-.266.333-.471.333z"/></svg>