<svg height="20" viewBox="0 0 20 20" width="20" xmlns="http://www.w3.org/2000/svg"><path d="m7 9.5c0 .276-.224.5-.5.5s-.5-.224-.5-.5.224-.5.5-.5.5.224.5.5z"/><path d="m9 9.5c0 .276-.224.5-.5.5s-.5-.224-.5-.5.224-.5.5-.5.5.224.5.5z"/><path d="m11 10.5c0 .276-.224.5-.5.5s-.5-.224-.5-.5.224-.5.5-.5.5.224.5.5z"/><path d="m10.991 6.511c0 .27-.222.489-.495.489s-.495-.219-.495-.489.222-.489.495-.489.495.219.495.489z"/><path d="m13 6.511c0 .27-.224.489-.5.489s-.5-.219-.5-.489.224-.489.5-.489.5.219.5.489z"/><path d="m4 13.5c0 .276-.224.5-.5.5s-.5-.224-.5-.5.224-.5.5-.5.5.224.5.5z"/><path d="m6 13.5c0 .276-.224.5-.5.5s-.5-.224-.5-.5.224-.5.5-.5.5.224.5.5z"/><path d="m5 15.5c0 .276-.224.5-.5.5s-.5-.224-.5-.5.224-.5.5-.5.5.224.5.5z"/><path d="m3 15.5c0 .276-.224.5-.5.5s-.5-.224-.5-.5.224-.5.5-.5.5.224.5.5z"/><path d="m16 4.5c0 .276-.224.5-.5.5s-.5-.224-.5-.5.224-.5.5-.5.5.224.5.5z"/><path d="m18.573 3.139c-.892-.735-2.072-1.139-3.323-1.139-.901 0-1.778.213-2.536.615-.66.351-1.204.83-1.589 1.397-1.036.066-2.002.403-2.754.967-.764.573-1.231 1.318-1.344 2.131-.911.166-1.75.518-2.436 1.031-1.026.768-1.592 1.803-1.592 2.914 0 .123.008.247.022.369-.489.178-.942.41-1.344.692-1.082.757-1.678 1.782-1.678 2.884 0 1.175.451 2.173 1.305 2.884.876.73 2.154 1.116 3.695 1.116 1.599 0 3.113-.529 4.63-1.616 1.322-.948 2.486-2.181 3.719-3.487.482-.511.981-1.039 1.486-1.544.693-.693 1.34-1.31 1.911-1.854 2.029-1.933 3.254-3.101 3.254-4.5 0-1.087-.507-2.103-1.427-2.861zm-2.517 6.637c-.575.548-1.227 1.169-1.928 1.871-.515.515-1.019 1.048-1.506 1.564-2.325 2.463-4.522 4.789-7.622 4.789-2.505 0-4-1.122-4-3 0-.767.444-1.5 1.251-2.065.861-.603 2.015-.935 3.249-.935 1.011 0 1.968.222 2.767.642.244.129.547.035.675-.21s.035-.547-.21-.675c-.942-.495-2.06-.757-3.233-.757-.513 0-1.016.051-1.498.149-.001-.031-.002-.063-.002-.094 0-.788.423-1.539 1.191-2.113.647-.484 1.47-.795 2.366-.901.003 0 .006-.001.009-.001.224-.026.453-.04.684-.04 1.11 0 2.163.309 2.963.872.226.159.538.104.697-.122s.104-.538-.122-.697c-.967-.679-2.223-1.053-3.538-1.053-.06 0-.12.001-.179.003.131-.455.439-.878.901-1.224.669-.502 1.567-.779 2.528-.779 1.021 0 1.99.322 2.66.883.212.177.527.149.704-.062s.15-.527-.062-.704c-.644-.54-1.495-.904-2.417-1.048.704-.666 1.749-1.069 2.865-1.069 2.068 0 3.75 1.346 3.75 3 0 .971-1.171 2.087-2.944 3.776z"/><path d="m8 14.5c0 .276-.224.5-.5.5s-.5-.224-.5-.5.224-.5.5-.5.5.224.5.5z"/></svg>