<svg height="20" viewBox="0 0 20 20" width="20" xmlns="http://www.w3.org/2000/svg"><path d="m18.5 5h-4.5v-1.5c0-.827-.673-1.5-1.5-1.5h-5c-.827 0-1.5.673-1.5 1.5v1.5h-4.5c-.827 0-1.5.673-1.5 1.5v11c0 .827.673 1.5 1.5 1.5h17c.827 0 1.5-.673 1.5-1.5v-11c0-.827-.673-1.5-1.5-1.5zm-11.5-1.5c0-.276.224-.5.5-.5h5c.276 0 .5.224.5.5v1.5h-6zm-5.5 2.5h17c.276 0 .5.224.5.5v7.5h-2v-.5c0-.276-.224-.5-.5-.5h-2c-.276 0-.5.224-.5.5v.5h-8v-.5c0-.276-.224-.5-.5-.5h-2c-.276 0-.5.224-.5.5v.5h-2v-7.5c0-.276.224-.5.5-.5zm14.5 8v1h-1v-1zm-11 0v1h-1v-1zm13.5 4h-17c-.276 0-.5-.224-.5-.5v-2.5h2v.5c0 .276.224.5.5.5h2c.276 0 .5-.224.5-.5v-.5h8v.5c0 .276.224.5.5.5h2c.276 0 .5-.224.5-.5v-.5h2v2.5c0 .276-.224.5-.5.5z"/></svg>