<svg height="20" viewBox="0 0 20 20" width="20" xmlns="http://www.w3.org/2000/svg"><path d="m9.5 12c-.827 0-1.5-.673-1.5-1.5s.673-1.5 1.5-1.5 1.5.673 1.5 1.5-.673 1.5-1.5 1.5zm0-2c-.276 0-.5.224-.5.5s.224.5.5.5.5-.224.5-.5-.224-.5-.5-.5z"/><path d="m12.328 13.828c-.128 0-.256-.049-.354-.146-.195-.195-.195-.512 0-.707.661-.661 1.025-1.54 1.025-2.475s-.364-1.814-1.025-2.475c-.195-.195-.195-.512 0-.707s.512-.195.707 0c.85.85 1.318 1.98 1.318 3.182s-.468 2.332-1.318 3.182c-.098.098-.226.146-.354.146z"/><path d="m14.45 15.95c-.128 0-.256-.049-.354-.146-.195-.195-.195-.512 0-.707 1.228-1.228 1.904-2.86 1.904-4.596s-.676-3.369-1.904-4.596c-.195-.195-.195-.512 0-.707s.512-.195.707 0c1.417 1.417 2.197 3.3 2.197 5.303s-.78 3.887-2.197 5.303c-.098.098-.226.146-.354.146z"/><path d="m6.672 13.828c-.128 0-.256-.049-.354-.146-.85-.85-1.318-1.98-1.318-3.182s.468-2.332 1.318-3.182c.195-.195.512-.195.707 0s.195.512 0 .707c-.661.661-1.025 1.54-1.025 2.475s.364 1.814 1.025 2.475c.195.195.195.512 0 .707-.098.098-.226.146-.354.146z"/><path d="m4.55 15.95c-.128 0-.256-.049-.354-.146-1.417-1.417-2.197-3.3-2.197-5.303s.78-3.887 2.197-5.303c.195-.195.512-.195.707 0s.195.512 0 .707c-1.228 1.228-1.904 2.86-1.904 4.596s.676 3.368 1.904 4.596c.195.195.195.512 0 .707-.098.098-.226.146-.354.146z"/></svg>