<svg height="20" viewBox="0 0 20 20" width="20" xmlns="http://www.w3.org/2000/svg"><path d="m19.521.564-.086-.086c-.283-.283-.659-.438-1.061-.438s-.778.156-1.061.438l-5.314 5.314-.146-.146c-.195-.195-.512-.195-.707 0l-1.147 1.147c-.498-.488-1.202-.768-1.936-.768-.625 0-1.226.203-1.693.571-.031.025-3.149 2.469-6.029 3.429-.204.068-.342.259-.342.474 0 2.538.988 4.923 2.782 6.717s4.18 2.782 6.717 2.782c.215 0 .406-.138.474-.342.96-2.88 3.404-5.997 3.429-6.029.83-1.051.74-2.673-.197-3.629l1.147-1.147c.195-.195.195-.512 0-.707l-.146-.146 5.314-5.314c.585-.585.585-1.536 0-2.121zm-11.458 6.461c.48 0 .934.179 1.247.492l.336.336 2.836 2.836c.596.596.658 1.659.136 2.321-.015.019-.078.099-.177.23l-5.679-5.684c.13-.098.208-.16.227-.174.291-.23.672-.356 1.073-.356zm1.085 11.968c-.745-.031-1.466-.158-2.15-.369.967-1.87 2.837-3.751 2.856-3.77.195-.195.195-.512 0-.707s-.512-.195-.707 0c-.084.084-2.065 2.077-3.091 4.124-.807-.359-1.548-.84-2.199-1.42l2.997-2.997c.195-.195.195-.512 0-.707s-.512-.195-.707 0l-2.997 2.997c-.58-.652-1.061-1.392-1.42-2.199 2.047-1.025 4.04-3.007 4.124-3.091.195-.195.195-.512 0-.707s-.512-.195-.707 0c-.019.019-1.897 1.887-3.77 2.856-.211-.684-.338-1.405-.369-2.15 1.905-.7 3.803-1.91 4.936-2.701l5.904 5.91c-.791 1.133-2 3.03-2.699 4.933zm3.352-9.7-1.793-1.793.793-.793 1.793 1.793zm6.314-7.314-5.314 5.314-.793-.793 5.314-5.314c.094-.094.219-.145.354-.145s.26.052.354.145l.086.086c.195.195.195.512 0 .707z"/></svg>