<svg height="20" viewBox="0 0 20 20" width="20" xmlns="http://www.w3.org/2000/svg"><path d="m3.5 17c-.132 0-.261-.053-.353-.147s-.147-.222-.147-.353.053-.26.147-.353c.093-.093.222-.147.353-.147s.26.053.353.147c.093.093.147.222.147.353s-.053.261-.147.353c-.093.093-.222.147-.353.147z"/><path d="m18.646 9.439-8.086-8.086c-.283-.283-.659-.438-1.061-.438s-.778.156-1.061.438l-5.086 5.086c-.539.539-.695 1.496-.354 2.179l1.606 3.211c.049.099.058.193.024.265s-.111.127-.219.152c-.086.021-2.129.521-3.386 1.778-.661.661-1.025 1.54-1.025 2.475s.364 1.814 1.025 2.475 1.54 1.025 2.475 1.025c.935 0 1.814-.364 2.475-1.025 1.257-1.257 1.758-3.3 1.778-3.386.021-.089.082-.239.249-.239.053 0 .11.015.169.045l3.211 1.606c.238.119.517.182.808.182.523 0 1.035-.2 1.37-.535l5.086-5.086c.585-.585.585-1.536 0-2.121zm-5.792 6.5c-.147.147-.408.242-.663.242-.137 0-.262-.026-.361-.076l-3.211-1.606c-.199-.1-.407-.15-.616-.15-.586 0-1.077.404-1.221 1.006-.004.018-.458 1.858-1.513 2.912-.472.472-1.1.732-1.768.732s-1.296-.26-1.768-.732-.732-1.1-.732-1.768.26-1.296.732-1.768c1.055-1.055 2.894-1.509 2.912-1.513.404-.097.729-.353.892-.702s.15-.763-.036-1.135l-1.606-3.211c-.15-.299-.07-.788.166-1.024l.939-.939 8.793 8.793zm5.085-5.085-3.439 3.439-8.793-8.793 3.439-3.439c.094-.094.219-.145.354-.145s.26.052.354.145l8.086 8.086c.195.195.195.512 0 .707z"/></svg>