<svg height="20" viewBox="0 0 20 20" width="20" xmlns="http://www.w3.org/2000/svg"><path d="m.5 19c-.225 0-.422-.15-.482-.367s.032-.447.225-.562c1.691-1.014 2.392-2.489 2.641-3.179-1.838-1.407-2.884-3.354-2.884-5.392 0-1.029.258-2.026.768-2.964.486-.894 1.18-1.695 2.061-2.381 1.787-1.39 4.156-2.156 6.671-2.156s4.884.766 6.671 2.156c.881.685 1.575 1.486 2.061 2.381.51.937.768 1.934.768 2.964s-.258 2.026-.768 2.964c-.486.894-1.18 1.695-2.061 2.381-1.787 1.39-4.156 2.156-6.671 2.156-1.033 0-2.047-.129-3.016-.385-.429.286-1.231.793-2.189 1.27-1.488.74-2.764 1.115-3.794 1.115zm9-16c-4.687 0-8.5 2.916-8.5 6.5 0 1.815 1.005 3.562 2.756 4.792.172.121.25.336.196.539-.117.436-.515 1.633-1.58 2.788 1.302-.456 2.704-1.247 3.739-1.959.123-.085.277-.11.421-.069.948.271 1.947.409 2.968.409 4.687 0 8.5-2.916 8.5-6.5s-3.813-6.5-8.5-6.5z"/><path d="m9.5 13c-.077 0-.154-.018-.224-.053-.042-.021-1.049-.529-2.07-1.297-1.455-1.095-2.192-2.155-2.192-3.149 0-.735.294-1.391.827-1.846.494-.422 1.172-.654 1.909-.654.598 0 1.215.275 1.75.769.535-.494 1.152-.769 1.75-.769.737 0 1.415.232 1.909.654.534.456.827 1.111.827 1.846 0 .995-.738 2.055-2.192 3.149-1.021.768-2.027 1.276-2.069 1.297-.071.035-.147.053-.224.053zm-1.75-6c-.864 0-1.736.464-1.736 1.5 0 .643.633 1.475 1.783 2.342.675.51 1.361.904 1.703 1.092.343-.187 1.028-.582 1.703-1.092 1.15-.867 1.783-1.699 1.783-2.342 0-1.036-.872-1.5-1.736-1.5-.44 0-.949.304-1.361.814-.095.117-.238.186-.389.186s-.294-.068-.389-.186c-.412-.51-.921-.814-1.361-.814z"/></svg>