<svg height="20" viewBox="0 0 20 20" width="20" xmlns="http://www.w3.org/2000/svg"><path d="m.5 19c-.225 0-.422-.15-.482-.367s.032-.447.225-.562c1.691-1.014 2.392-2.489 2.641-3.179-1.838-1.407-2.884-3.354-2.884-5.392 0-1.029.258-2.026.768-2.964.486-.894 1.18-1.695 2.061-2.381 1.787-1.39 4.156-2.156 6.671-2.156s4.884.766 6.671 2.156c.881.685 1.575 1.486 2.061 2.381.51.937.768 1.934.768 2.964s-.258 2.026-.768 2.964c-.486.894-1.18 1.695-2.061 2.381-1.787 1.39-4.156 2.156-6.671 2.156-1.033 0-2.047-.129-3.016-.385-.429.286-1.231.793-2.189 1.27-1.488.74-2.764 1.115-3.794 1.115zm9-16c-4.687 0-8.5 2.916-8.5 6.5 0 1.815 1.005 3.562 2.756 4.792.172.121.25.336.196.539-.117.436-.515 1.633-1.58 2.788 1.302-.456 2.704-1.247 3.739-1.959.123-.085.277-.11.421-.069.948.271 1.947.409 2.968.409 4.687 0 8.5-2.916 8.5-6.5s-3.813-6.5-8.5-6.5z"/><path d="m9.5 14c-2.481 0-4.5-2.019-4.5-4.5s2.019-4.5 4.5-4.5 4.5 2.019 4.5 4.5-2.019 4.5-4.5 4.5zm0-8c-1.93 0-3.5 1.57-3.5 3.5s1.57 3.5 3.5 3.5 3.5-1.57 3.5-3.5-1.57-3.5-3.5-3.5z"/><path d="m8.5 8c-.132 0-.261-.053-.353-.147s-.147-.222-.147-.353.053-.26.147-.353.222-.147.353-.147.26.053.353.147c.093.093.147.222.147.353s-.053.261-.147.353c-.093.093-.222.147-.353.147z"/><path d="m10.5 8c-.132 0-.261-.053-.353-.147s-.147-.222-.147-.353.053-.261.147-.353c.093-.093.222-.147.353-.147s.26.053.353.147c.093.093.147.222.147.353s-.053.26-.147.353c-.093.093-.222.147-.353.147z"/><path d="m9.5 12c-1.005 0-1.786-.453-2.197-1.276-.294-.589-.303-1.16-.303-1.224 0-.276.224-.5.5-.5h4c.276 0 .5.224.5.5 0 .063-.008.635-.303 1.224-.412.823-1.192 1.276-2.197 1.276zm-1.412-2c.03.097.069.2.123.302.246.47.668.698 1.29.698s1.044-.228 1.29-.698c.053-.102.093-.205.123-.302h-2.825z"/></svg>