<svg height="20" viewBox="0 0 20 20" width="20" xmlns="http://www.w3.org/2000/svg"><path d="m19.501 18s0 0-.001 0c-1.341 0-2.734-.856-3.247-1.206-.563.136-1.151.206-1.753.206-1.437 0-2.795-.396-3.822-1.116-1.082-.757-1.678-1.782-1.678-2.884s.596-2.127 1.678-2.884c1.028-.719 2.385-1.116 3.822-1.116s2.795.396 3.822 1.116c1.082.757 1.678 1.782 1.678 2.884 0 .964-.461 1.877-1.306 2.597.082.231.339.727 1.145 1.535.099.091.161.222.161.368 0 .276-.224.5-.5.5zm-3.148-2.248c.108 0 .214.035.302.101.01.007.675.504 1.503.842-.544-.795-.53-1.248-.481-1.438.029-.109.093-.205.183-.273.735-.552 1.139-1.256 1.139-1.984 0-.767-.444-1.5-1.251-2.065-.861-.603-2.015-.935-3.249-.935s-2.388.332-3.249.935c-.807.565-1.251 1.298-1.251 2.065s.444 1.5 1.251 2.065c.861.603 2.015.935 3.249.935.595 0 1.173-.077 1.718-.23.044-.012.09-.018.135-.018z"/><path d="m.5 19c-.225 0-.422-.15-.482-.367s.032-.447.225-.562c1.691-1.014 2.392-2.489 2.641-3.179-1.838-1.407-2.884-3.354-2.884-5.392 0-1.029.258-2.026.768-2.964.486-.894 1.18-1.695 2.061-2.381 1.787-1.39 4.156-2.156 6.671-2.156 2.278 0 4.481.644 6.202 1.814 1.735 1.179 2.871 2.811 3.199 4.595.05.272-.13.532-.401.582s-.532-.13-.582-.401c-.279-1.519-1.266-2.921-2.778-3.949-1.557-1.058-3.56-1.641-5.64-1.641-4.687 0-8.5 2.916-8.5 6.5 0 1.815 1.005 3.562 2.756 4.792.172.121.25.336.196.539-.117.436-.515 1.633-1.58 2.788 1.302-.456 2.704-1.247 3.739-1.959.123-.085.277-.11.421-.069.948.271 1.947.409 2.968.409.276 0 .5.224.5.5s-.224.5-.5.5c-1.033 0-2.047-.129-3.016-.385-.429.286-1.231.793-2.189 1.27-1.488.74-2.764 1.115-3.794 1.115z"/></svg>