<svg height="20" viewBox="0 0 20 20" width="20" xmlns="http://www.w3.org/2000/svg"><path d="m.5 19c-.225 0-.422-.15-.482-.367s.032-.447.225-.562c1.691-1.014 2.392-2.489 2.641-3.179-1.838-1.407-2.884-3.354-2.884-5.392 0-1.029.258-2.026.768-2.964.486-.894 1.18-1.695 2.061-2.381 1.787-1.39 4.156-2.156 6.671-2.156s4.884.766 6.671 2.156c.881.685 1.575 1.486 2.061 2.381.51.937.768 1.934.768 2.964s-.258 2.026-.768 2.964c-.486.894-1.18 1.695-2.061 2.381-1.787 1.39-4.156 2.156-6.671 2.156-1.033 0-2.047-.129-3.016-.385-.429.286-1.231.793-2.189 1.27-1.488.74-2.764 1.115-3.794 1.115zm9-16c-4.687 0-8.5 2.916-8.5 6.5 0 1.815 1.005 3.562 2.756 4.792.172.121.25.336.196.539-.117.436-.515 1.633-1.58 2.788 1.302-.456 2.704-1.247 3.739-1.959.123-.085.277-.11.421-.069.948.271 1.947.409 2.968.409 4.687 0 8.5-2.916 8.5-6.5s-3.813-6.5-8.5-6.5z"/><path d="m14.234 6.676c-.136 0-.272.034-.405.1l-1.829.915v-.191c0-.827-.673-1.5-1.5-1.5h-4c-.827 0-1.5.673-1.5 1.5v4c0 .827.673 1.5 1.5 1.5h4c.827 0 1.5-.673 1.5-1.5v-.191l1.829.915c.133.067.269.1.405.1.227 0 .43-.093.574-.263.126-.149.192-.343.192-.561v-4c0-.47-.329-.824-.766-.824zm-3.234 4.824c0 .276-.224.5-.5.5h-4c-.276 0-.5-.224-.5-.5v-4c0-.276.224-.5.5-.5h4c.276 0 .5.224.5.5zm3-.309-1.829-.915c-.077-.038-.171-.191-.171-.276v-1c0-.086.094-.238.171-.276l1.829-.915z"/></svg>