<svg height="20" viewBox="0 0 20 20" width="20" xmlns="http://www.w3.org/2000/svg"><path d="m17 6.5c0-.006 0-.012 0-.019-.005-.306-.146-.753-.77-1.174-.396-.268-.949-.504-1.643-.702-.527-.151-1.12-.275-1.76-.371-.501-.942-2.458-4.234-5.327-4.234-1.121 0-1.707.543-2.002.999-.481.743-.611 1.893-.392 3.431-.241.054-.473.112-.693.175-.694.198-1.246.434-1.643.702-.624.421-.765.867-.77 1.174v.019c0 .09.012.192.044.303l1.881 11.286c.068.41.369.874.714 1.104.124.083 1.312.807 4.861.807s4.737-.724 4.861-.807c.346-.23.646-.695.714-1.104l1.881-11.286c.032-.111.044-.213.044-.303zm-1.003-.022-.014.081c-.08.165-.469.531-1.671.875-1.279.365-2.988.567-4.812.567-.866 0-1.705-.045-2.485-.132-.134-.391-.269-.811-.394-1.243-.143-.492-.261-.957-.354-1.394.979-.151 2.084-.231 3.234-.231 1.025 0 2.014.064 2.91.184.014.003.028.004.042.006.683.093 1.311.22 1.86.377 1.301.372 1.65.769 1.684.911zm-3.997 6.022c0 .276-.224.5-.5.5s-.5-.224-.5-.5c.002-.152.187-.717.334-1.17.054-.165.11-.336.166-.512.056.176.112.348.166.512.148.454.332 1.019.334 1.17zm-5.663-10.958c.239-.37.609-.542 1.163-.542 1.875 0 3.367 1.942 4.084 3.088-.668-.058-1.368-.088-2.084-.088-1.207 0-2.372.086-3.41.246-.174-1.247-.093-2.178.247-2.704zm-1.649 4.025c.189-.054.388-.104.595-.151.099.467.225.963.378 1.489.08.276.163.546.248.806-.438-.078-.848-.17-1.22-.277-1.202-.343-1.591-.709-1.671-.875l-.014-.081c.035-.142.383-.539 1.684-.911zm9.401 12.358c-.022.134-.164.354-.278.433-.061.035-1.154.642-4.311.642s-4.251-.607-4.311-.642c-.114-.079-.255-.299-.278-.433l-1.66-9.959c.326.158.714.301 1.162.429.556.159 1.184.288 1.863.386.402 1.106.746 1.876.768 1.924.083.185.266.295.456.295.069 0 .138-.014.205-.044.252-.113.364-.409.251-.661-.004-.01-.249-.557-.564-1.385.675.059 1.384.09 2.108.09.495 0 .982-.014 1.457-.042-.1.613-.357 1.401-.573 2.062-.252.773-.384 1.19-.384 1.48 0 .827.673 1.5 1.5 1.5s1.5-.673 1.5-1.5c0-.29-.132-.707-.384-1.48-.226-.694-.498-1.527-.587-2.151.947-.102 1.817-.262 2.557-.474.447-.128.836-.272 1.162-.429l-1.66 9.959z"/></svg>