<svg height="20" viewBox="0 0 20 20" width="20" xmlns="http://www.w3.org/2000/svg"><path d="m17.5 12h-1.515c-.062-1.099-.33-2.153-.781-3.102 1.036-.305 1.795-1.264 1.795-2.398 0-.276-.224-.5-.5-.5s-.5.224-.5.5c0 .761-.57 1.392-1.306 1.487-.174-.266-.365-.521-.571-.762-.108-.126-.219-.246-.333-.362.14-.439.21-.896.21-1.363 0-2.481-2.019-4.5-4.5-4.5s-4.5 2.019-4.5 4.5c0 .467.071.924.21 1.363-.114.116-.225.236-.333.362-.207.241-.397.496-.571.762-.736-.095-1.306-.726-1.306-1.487 0-.276-.224-.5-.5-.5s-.5.224-.5.5c0 1.134.759 2.093 1.795 2.398-.451.949-.718 2.003-.781 3.102h-1.514c-.276 0-.5.224-.5.5s.224.5.5.5h1.515c.062 1.099.33 2.153.781 3.102-1.036.305-1.795 1.264-1.795 2.398 0 .276.224.5.5.5s.5-.224.5-.5c0-.761.57-1.392 1.306-1.487.174.266.365.521.571.762 1.23 1.435 2.871 2.225 4.622 2.225s3.393-.79 4.622-2.225c.207-.241.397-.496.571-.762.736.095 1.306.726 1.306 1.487 0 .276.224.5.5.5s.5-.224.5-.5c0-1.134-.759-2.093-1.795-2.398.451-.949.718-2.003.781-3.102h1.514c.276 0 .5-.224.5-.5s-.224-.5-.5-.5zm-8-10c1.93 0 3.5 1.57 3.5 3.5 0 .215-.019.426-.057.634-1.022-.738-2.205-1.134-3.443-1.134s-2.421.395-3.443 1.134c-.038-.208-.057-.419-.057-.634 0-1.93 1.57-3.5 3.5-3.5zm-5.5 10.5c0-3.385 2.201-6.173 5-6.473v12.946c-2.799-.3-5-3.088-5-6.473zm6 6.473v-12.946c2.799.3 5 3.088 5 6.473s-2.201 6.173-5 6.473z"/></svg>