<svg height="20" viewBox="0 0 20 20" width="20" xmlns="http://www.w3.org/2000/svg"><path d="m19.389 3.099c-.578-1.735-1.346-2.099-1.889-2.099-.011 0-.023 0-.035.001-.553.012-1.536.299-3.008.731-3.084.903-7.744 2.269-12.458 2.269-1.14 0-2 1.505-2 3.5s.86 3.5 2 3.5c.369 0 .738.008 1.105.024l1.666 6.628c.19.756.949 1.348 1.729 1.348h1.313c.433 0 .801-.18 1.008-.495s.229-.723.06-1.121l-2.577-6.048c3.136.462 6.022 1.308 8.154 1.932 1.472.431 2.455.719 3.008.731.012 0 .023.001.035.001.542 0 1.31-.364 1.889-2.099.394-1.183.611-2.746.611-4.401s-.217-3.218-.611-4.401zm-3.389 4.401c0-.513.022-1.015.064-1.496.513.052.936.716.936 1.496s-.422 1.445-.936 1.496c-.042-.481-.064-.983-.064-1.496zm-15 0c0-1.526.592-2.5 1-2.5 1.135 0 2.264-.076 3.368-.204-.237.758-.368 1.697-.368 2.704s.13 1.946.368 2.704c-1.104-.128-2.233-.204-3.368-.204-.408 0-1-.974-1-2.5zm6.961 10.276c.041.096.038.16.026.178s-.069.046-.174.046h-1.313c-.319 0-.681-.282-.759-.592l-1.588-6.319c.335.027.669.059 1 .097zm-1.472-7.423c-.304-.687-.489-1.748-.489-2.853 0-1.122.18-2.163.488-2.852 3.185-.473 6.096-1.325 8.25-1.957.415-.122.811-.238 1.171-.339-.103.215-.203.463-.298.747-.394 1.183-.611 2.746-.611 4.401s.217 3.218.611 4.401c.095.284.195.532.298.747-.36-.101-.756-.217-1.171-.339-2.155-.631-5.065-1.484-8.25-1.957zm11.951 1.232c-.373 1.12-.778 1.415-.94 1.415s-.567-.296-.94-1.415c-.157-.47-.283-1.009-.375-1.596.486-.056.943-.331 1.276-.775.348-.464.539-1.073.539-1.714s-.192-1.251-.539-1.714c-.333-.444-.79-.719-1.276-.775.093-.586.219-1.126.375-1.596.373-1.12.778-1.416.94-1.416s.567.296.94 1.415c.361 1.084.56 2.534.56 4.085s-.199 3.001-.56 4.085z"/></svg>