<svg height="20" viewBox="0 0 20 20" width="20" xmlns="http://www.w3.org/2000/svg"><path d="m6.5 13h-4c-.276 0-.5-.224-.5-.5v-3c0-.276.224-.5.5-.5h4c.276 0 .5.224.5.5v3c0 .276-.224.5-.5.5zm-3.5-1h3v-2h-3z"/><path d="m12.5 13h-4c-.276 0-.5-.224-.5-.5v-3c0-.276.224-.5.5-.5h4c.276 0 .5.224.5.5v3c0 .276-.224.5-.5.5zm-3.5-1h3v-2h-3z"/><path d="m19.854 13.439-.717-5.02c-.114-.796-.832-1.419-1.636-1.419h-15c-1.378 0-2.5 1.122-2.5 2.5v8c0 .827.673 1.5 1.5 1.5h.769c.346.597.992 1 1.731 1s1.385-.403 1.731-1h7.538c.346.597.992 1 1.731 1s1.385-.403 1.731-1h1.769c.827 0 1.5-.673 1.5-1.5v-2c0-.571-.066-1.495-.146-2.061zm-1.216-1.439h-3.638v-2h3.352zm-16.138-4h15c.302 0 .604.262.646.561l.063.439h-3.709c-.276 0-.5.224-.5.5v3c0 .276.224.5.5.5h4.281l.083.581c.018.123.034.266.05.419h-17.913v-4.5c0-.827.673-1.5 1.5-1.5zm1.5 11c-.551 0-1-.449-1-1s.449-1 1-1 1 .449 1 1-.449 1-1 1zm11 0c-.551 0-1-.449-1-1s.449-1 1-1 1 .449 1 1-.449 1-1 1zm3.5-1h-1.5c0-1.103-.897-2-2-2s-2 .897-2 2h-7c0-1.103-.897-2-2-2s-2 .897-2 2h-.5c-.276 0-.5-.224-.5-.5v-2.5h17.987c.008.184.013.356.013.5v.5h-.5c-.276 0-.5.224-.5.5s.224.5.5.5h.5v.5c0 .276-.224.5-.5.5z"/></svg>