<svg height="20" viewBox="0 0 20 20" width="20" xmlns="http://www.w3.org/2000/svg"><path d="m5.5 16c-.827 0-1.5-.673-1.5-1.5s.673-1.5 1.5-1.5 1.5.673 1.5 1.5-.673 1.5-1.5 1.5zm0-2c-.276 0-.5.224-.5.5s.224.5.5.5.5-.224.5-.5-.224-.5-.5-.5z"/><path d="m14.5 16c-.827 0-1.5-.673-1.5-1.5s.673-1.5 1.5-1.5 1.5.673 1.5 1.5-.673 1.5-1.5 1.5zm0-2c-.276 0-.5.224-.5.5s.224.5.5.5.5-.224.5-.5-.224-.5-.5-.5z"/><path d="m13.5 5h-7c-.276 0-.5-.224-.5-.5s.224-.5.5-.5h7c.276 0 .5.224.5.5s-.224.5-.5.5z"/><path d="m15.5 6h-11c-.276 0-.5.224-.5.5v5c0 .276.224.5.5.5h4.998.002s.001 0 .002 0h4.996.002s.001 0 .002 0h.998c.276 0 .5-.224.5-.5v-5c0-.276-.224-.5-.5-.5zm-10.5 1h10v4h-.349l-2.874-1.916c-.23-.153-.54-.091-.693.139s-.091.54.139.693l1.626 1.084h-3.197l-2.874-1.916c-.23-.153-.54-.091-.693.139s-.091.54.139.693l1.626 1.084h-2.849v-4z"/><path d="m15.616 1.783c-1.363-.519-3.253-.783-5.616-.783s-4.252.263-5.616.783c-1.971.751-2.384 1.892-2.384 2.717v11c0 1.207.86 2.217 2 2.45v1.05c0 .551.449 1 1 1h1c.551 0 1-.449 1-1v-1h6v1c0 .551.449 1 1 1h1c.551 0 1-.449 1-1v-1.05c1.14-.232 2-1.242 2-2.45v-11c0-.825-.414-1.966-2.384-2.717zm-9.616 17.217h-1v-1h1zm8 0v-1h1v1zm3-3.5c0 .827-.673 1.5-1.5 1.5h-11c-.827 0-1.5-.673-1.5-1.5v-11c0-.743.586-1.343 1.741-1.783 1.232-.469 3.05-.717 5.259-.717s4.028.248 5.259.717c1.155.44 1.741 1.04 1.741 1.783z"/></svg>