<svg height="20" viewBox="0 0 20 20" width="20" xmlns="http://www.w3.org/2000/svg"><path d="m6.5 14h-3c-.276 0-.5-.224-.5-.5v-1.55c1.14-.232 2-1.242 2-2.45v-7c0-.276-.224-.5-.5-.5h-1.5v-1.5c0-.276-.224-.5-.5-.5s-.5.224-.5.5v1.5h-1.5c-.276 0-.5.224-.5.5v7c0 1.207.86 2.217 2 2.45v1.55c0 .827.673 1.5 1.5 1.5h3c.276 0 .5.224.5.5v4c0 .276.224.5.5.5s.5-.224.5-.5v-4c0-.827-.673-1.5-1.5-1.5zm-2.5-11v1h-3v-1zm-3 6.5v-4.5h3v4.5c0 .827-.673 1.5-1.5 1.5s-1.5-.673-1.5-1.5z"/><path d="m11.5 2h-1.5v-1.5c0-.276-.224-.5-.5-.5s-.5.224-.5.5v1.5h-1.5c-.276 0-.5.224-.5.5v7c0 1.207.86 2.217 2 2.45v7.55c0 .276.224.5.5.5s.5-.224.5-.5v-7.55c1.14-.232 2-1.242 2-2.45v-7c0-.276-.224-.5-.5-.5zm-.5 1v1h-3v-1zm0 6.5c0 .827-.673 1.5-1.5 1.5s-1.5-.673-1.5-1.5v-4.5h3z"/><path d="m18.5 2h-1.5v-1.5c0-.276-.224-.5-.5-.5s-.5.224-.5.5v1.5h-1.5c-.276 0-.5.224-.5.5v7c0 1.207.86 2.217 2 2.45v1.55c0 .276-.224.5-.5.5h-3c-.827 0-1.5.673-1.5 1.5v4c0 .276.224.5.5.5s.5-.224.5-.5v-4c0-.276.224-.5.5-.5h3c.827 0 1.5-.673 1.5-1.5v-1.55c1.14-.232 2-1.242 2-2.45v-7c0-.276-.224-.5-.5-.5zm-.5 1v1h-3v-1zm0 6.5c0 .827-.673 1.5-1.5 1.5s-1.5-.673-1.5-1.5v-4.5h3z"/></svg>