<svg height="20" viewBox="0 0 20 20" width="20" xmlns="http://www.w3.org/2000/svg"><path d="m15.5 5h-.5v-3.5c0-.276-.224-.5-.5-.5h-9c-.276 0-.5.224-.5.5v3.5h-.5c-.827 0-1.5.673-1.5 1.5v3c0 .654.307 1.577.7 2.1l1.8 2.4c.266.355.5 1.056.5 1.5 0 .652.418 1.208 1 1.414v2.586c0 .276.224.5.5.5s.5-.224.5-.5v-2.5h4v2.5c0 .276.224.5.5.5s.5-.224.5-.5v-2.586c.582-.206 1-.762 1-1.414 0-.444.234-1.145.5-1.5l1.8-2.4c.392-.523.7-1.446.7-2.1v-3c0-.827-.673-1.5-1.5-1.5zm-9.5-3h8v3h-1v-1.5c0-.276-.224-.5-.5-.5s-.5.224-.5.5v1.5h-4v-1.5c0-.276-.224-.5-.5-.5s-.5.224-.5.5v1.5h-1zm10 7.5c0 .444-.234 1.145-.5 1.5l-1.8 2.4c-.393.523-.7 1.446-.7 2.1 0 .276-.224.5-.5.5h-5c-.276 0-.5-.224-.5-.5 0-.654-.307-1.577-.7-2.1l-1.8-2.4c-.266-.355-.5-1.056-.5-1.5v-3c0-.276.224-.5.5-.5h11c.276 0 .5.224.5.5z"/></svg>