<svg height="20" viewBox="0 0 20 20" width="20" xmlns="http://www.w3.org/2000/svg"><path d="m9 4.5c0 .276-.224.5-.5.5s-.5-.224-.5-.5.224-.5.5-.5.5.224.5.5z"/><path d="m11 6.5c0 .276-.224.5-.5.5s-.5-.224-.5-.5.224-.5.5-.5.5.224.5.5z"/><path d="m11 3.5c0 .276-.224.5-.5.5s-.5-.224-.5-.5.224-.5.5-.5.5.224.5.5z"/><path d="m9 7.5c0 .276-.224.5-.5.5s-.5-.224-.5-.5.224-.5.5-.5.5.224.5.5z"/><path d="m18 6.5c0 .276-.224.5-.5.5s-.5-.224-.5-.5.224-.5.5-.5.5.224.5.5z"/><path d="m4 7.5c0 .276-.224.5-.5.5s-.5-.224-.5-.5.224-.5.5-.5.5.224.5.5z"/><path d="m11 10.5c0 .276-.224.5-.5.5s-.5-.224-.5-.5.224-.5.5-.5.5.224.5.5z"/><path d="m17.5 3c-1.378 0-2.5 1.122-2.5 2.5v.5h-.5c-.276 0-.5.224-.5.5s.224.5.5.5h.5v.5c0 .276-.224.5-.5.5h-1.5v-4h.5c.276 0 .5-.224.5-.5s-.224-.5-.5-.5h-.536c-.243-1.694-1.704-3-3.464-3-1.93 0-3.5 1.57-3.5 3.5v2.5h-.5c-.276 0-.5-.224-.5-.5v-1.5c0-1.103-.897-2-2-2s-2 .897-2 2v1h-.5c-.276 0-.5.224-.5.5s.224.5.5.5h.5v2c0 1.103.897 2 2 2h3v1h-.5c-.276 0-.5.224-.5.5s.224.5.5.5h.5v1.277c-.459.085-.841.187-1.138.303-.552.216-.841.512-.86.88-.001.009-.001.019-.001.028 0 .004-.001.008-.001.012s0 .006 0 .01c0 .007 0 .015.001.023.004.087.021.168.052.243l.95 3.801c.07.747 1.176 1.024 1.547 1.117.794.198 1.842.308 2.95.308s2.156-.109 2.95-.308c.371-.093 1.476-.369 1.547-1.117l.95-3.801c.03-.075.048-.156.052-.243.001-.007.001-.015.001-.022 0-.003 0-.006 0-.01s-.001-.008-.001-.012-.001-.019-.001-.028c-.019-.368-.308-.664-.86-.88-.297-.116-.679-.218-1.138-.303v-1.277h4.5c1.378 0 2.5-1.122 2.5-2.5v-4c0-1.378-1.122-2.5-2.5-2.5zm-11.5 11.296v.409c-.347-.072-.585-.144-.744-.204.16-.061.397-.133.744-.204zm5.946 4.486c-.682.141-1.55.218-2.446.218s-1.764-.078-2.446-.218c-.671-.139-.971-.299-1.062-.373l-.712-2.848c.193.054.393.098.586.137.976.195 2.266.303 3.634.303s2.658-.107 3.634-.303c.193-.039.393-.083.586-.137l-.712 2.848c-.091.074-.391.235-1.062.373zm1.798-4.282c-.16.06-.397.132-.744.204v-.409c.347.072.585.144.744.204zm5.256-5c0 .827-.673 1.5-1.5 1.5h-5c-.276 0-.5.224-.5.5v3.362c-.749.089-1.614.138-2.5.138s-1.751-.048-2.5-.138v-5.362c0-.276-.224-.5-.5-.5h-3.5c-.551 0-1-.449-1-1v-4c0-.551.449-1 1-1s1 .449 1 1v1.5c0 .827.673 1.5 1.5 1.5h1c.276 0 .5-.224.5-.5v-3c0-1.378 1.122-2.5 2.5-2.5s2.5 1.122 2.5 2.5v5c0 .276.224.5.5.5h2c.827 0 1.5-.673 1.5-1.5v-2c0-.827.673-1.5 1.5-1.5s1.5.673 1.5 1.5z"/></svg>