<svg height="20" viewBox="0 0 20 20" width="20" xmlns="http://www.w3.org/2000/svg"><path d="m18.01 8.901c-.633-1.267-1.447-2.294-2.232-2.817-.145-.097-.331-.111-.489-.037l-1.289.601v-1.648c0-.189-.107-.363-.276-.447l-1-.5c-.141-.07-.306-.07-.447 0l-1 .5c-.169.085-.276.258-.276.447v3.048l-10.701 4.994c-.05.022-.096.052-.135.088-.019.017-.036.035-.052.055s0 0 0 0c-.071.087-.112.198-.111.318v5.997c0 .137.057.269.156.363.093.088.216.137.344.137.009 0 .018 0 .028-.001l18-1c.265-.015.472-.234.472-.499v-6c0-1.028-.361-2.34-.99-3.599zm-6.01-3.592.5-.25.5.25v4.601c-.15.048-.332.09-.5.09s-.351-.042-.5-.09zm-1 3.843v1.098c0 .189.107.363.276.447.062.031.623.303 1.224.303s1.162-.272 1.224-.303c.169-.085.276-.258.276-.447v-2.498l1.442-.673c.575.47 1.186 1.295 1.673 2.27.459.918.764 1.884.856 2.68l-14.911.828zm7 3.877v2.998l-17 .944v-2.998zm-17 5.942v-.998l17-.944v.998z"/><path d="m12.5 4c-.771 0-1.5-.729-1.5-1.5 0-.451.234-.829.53-1.308.16-.26.342-.554.523-.916.085-.169.258-.276.447-.276s.363.107.447.276c.181.362.363.656.523.916.296.479.53.857.53 1.308 0 .771-.729 1.5-1.5 1.5zm0-2.477c-.042.068-.082.133-.12.195-.212.344-.38.615-.38.782 0 .224.276.5.5.5s.5-.276.5-.5c0-.167-.168-.438-.38-.782-.038-.061-.078-.126-.12-.195z"/></svg>