<svg height="20" viewBox="0 0 20 20" width="20" xmlns="http://www.w3.org/2000/svg"><path d="m7.5 10h-6c-.827 0-1.5-.673-1.5-1.5v-6c0-.827.673-1.5 1.5-1.5h6c.827 0 1.5.673 1.5 1.5v6c0 .827-.673 1.5-1.5 1.5zm-6-8c-.276 0-.5.224-.5.5v6c0 .276.224.5.5.5h6c.276 0 .5-.224.5-.5v-6c0-.276-.224-.5-.5-.5z"/><path d="m7.5 20h-6c-.827 0-1.5-.673-1.5-1.5v-6c0-.827.673-1.5 1.5-1.5h6c.827 0 1.5.673 1.5 1.5v6c0 .827-.673 1.5-1.5 1.5zm-6-8c-.276 0-.5.224-.5.5v6c0 .276.224.5.5.5h6c.276 0 .5-.224.5-.5v-6c0-.276-.224-.5-.5-.5z"/><path d="m6.5 6h-4c-.276 0-.5-.224-.5-.5s.224-.5.5-.5h4c.276 0 .5.224.5.5s-.224.5-.5.5z"/><path d="m6.5 15h-1.5v-1.5c0-.276-.224-.5-.5-.5s-.5.224-.5.5v1.5h-1.5c-.276 0-.5.224-.5.5s.224.5.5.5h1.5v1.5c0 .276.224.5.5.5s.5-.224.5-.5v-1.5h1.5c.276 0 .5-.224.5-.5s-.224-.5-.5-.5z"/><path d="m17.5 20h-6c-.827 0-1.5-.673-1.5-1.5v-16c0-.827.673-1.5 1.5-1.5h6c.827 0 1.5.673 1.5 1.5v16c0 .827-.673 1.5-1.5 1.5zm-6-18c-.276 0-.5.224-.5.5v16c0 .276.224.5.5.5h6c.276 0 .5-.224.5-.5v-16c0-.276-.224-.5-.5-.5z"/><path d="m16.5 10h-4c-.276 0-.5-.224-.5-.5s.224-.5.5-.5h4c.276 0 .5.224.5.5s-.224.5-.5.5z"/><path d="m16.5 12h-4c-.276 0-.5-.224-.5-.5s.224-.5.5-.5h4c.276 0 .5.224.5.5s-.224.5-.5.5z"/></svg>