<svg height="20" viewBox="0 0 20 20" width="20" xmlns="http://www.w3.org/2000/svg"><path d="m16.5 20h-14c-.827 0-1.5-.673-1.5-1.5v-17c0-.827.673-1.5 1.5-1.5h14c.827 0 1.5.673 1.5 1.5v17c0 .827-.673 1.5-1.5 1.5zm-14-19c-.276 0-.5.224-.5.5v17c0 .276.224.5.5.5h14c.276 0 .5-.224.5-.5v-17c0-.276-.224-.5-.5-.5z"/><path d="m15.5 7h-12c-.276 0-.5-.224-.5-.5v-4c0-.276.224-.5.5-.5h12c.276 0 .5.224.5.5v4c0 .276-.224.5-.5.5zm-11.5-1h11v-3h-11z"/><path d="m15.5 8h-12c-.276 0-.5.224-.5.5v9c0 .276.224.5.5.5h12c.276 0 .5-.224.5-.5v-9c0-.276-.224-.5-.5-.5zm-.5 3h-2v-2h2zm-8 1h2v2h-2zm-1 2h-2v-2h2zm1-3v-2h2v2zm2 4v2h-2v-2zm1 0h2v2h-2zm2-1h-2v-2h2zm-2-3v-2h2v2zm-4-2v2h-2v-2zm-2 6h2v2h-2zm9 2v-5h2v5z"/></svg>