<svg height="20" viewBox="0 0 20 20" width="20" xmlns="http://www.w3.org/2000/svg"><path d="m18.5 2h-2.5v-.5c0-.276-.224-.5-.5-.5s-.5.224-.5.5v.5h-10v-.5c0-.276-.224-.5-.5-.5s-.5.224-.5.5v.5h-2.5c-.827 0-1.5.673-1.5 1.5v14c0 .827.673 1.5 1.5 1.5h17c.827 0 1.5-.673 1.5-1.5v-14c0-.827-.673-1.5-1.5-1.5zm.5 15.5c0 .276-.224.5-.5.5h-17c-.276 0-.5-.224-.5-.5v-14c0-.276.224-.5.5-.5h2.5v1.5c0 .276.224.5.5.5s.5-.224.5-.5v-1.5h10v1.5c0 .276.224.5.5.5s.5-.224.5-.5v-1.5h2.5c.276 0 .5.224.5.5z"/><path d="m10 11c-1.654 0-3-1.346-3-3s1.346-3 3-3 3 1.346 3 3-1.346 3-3 3zm0-5c-1.103 0-2 .897-2 2s.897 2 2 2 2-.897 2-2-.897-2-2-2z"/><path d="m13.5 16h-7c-.425 0-.796-.177-1.019-.486s-.273-.717-.139-1.12c.033-.098.842-2.393 4.658-2.393s4.626 2.296 4.658 2.393c.134.403.084.811-.139 1.12s-.594.486-1.019.486zm-7.211-1.286c-.03.091-.029.172.003.215s.11.071.208.071h7c.098 0 .176-.027.208-.071s.033-.124.003-.215c-.011-.029-.175-.442-.679-.847-.704-.567-1.752-.866-3.032-.866s-2.327.3-3.032.866c-.504.406-.668.818-.679.847z"/></svg>