<svg height="20" viewBox="0 0 20 20" width="20" xmlns="http://www.w3.org/2000/svg"><path d="m18.5 2h-2.5v-.5c0-.276-.224-.5-.5-.5s-.5.224-.5.5v.5h-10v-.5c0-.276-.224-.5-.5-.5s-.5.224-.5.5v.5h-2.5c-.827 0-1.5.673-1.5 1.5v14c0 .827.673 1.5 1.5 1.5h17c.827 0 1.5-.673 1.5-1.5v-14c0-.827-.673-1.5-1.5-1.5zm-17 1h2.5v1.5c0 .276.224.5.5.5s.5-.224.5-.5v-1.5h10v1.5c0 .276.224.5.5.5s.5-.224.5-.5v-1.5h2.5c.276 0 .5.224.5.5v2.5h-18v-2.5c0-.276.224-.5.5-.5zm17 15h-17c-.276 0-.5-.224-.5-.5v-10.5h18v10.5c0 .276-.224.5-.5.5z"/><path d="m9.5 16h-3c-.276 0-.5-.224-.5-.5s.224-.5.5-.5h2.5v-2h-1.5c-.276 0-.5-.224-.5-.5s.224-.5.5-.5h1.5v-2h-2.5c-.276 0-.5-.224-.5-.5s.224-.5.5-.5h3c.276 0 .5.224.5.5v6c0 .276-.224.5-.5.5z"/><path d="m13.5 16c-.276 0-.5-.224-.5-.5v-6c0-.276.224-.5.5-.5s.5.224.5.5v6c0 .276-.224.5-.5.5z"/></svg>