<svg height="20" viewBox="0 0 20 20" width="20" xmlns="http://www.w3.org/2000/svg"><path d="m18.5 2h-2.5v-.5c0-.276-.224-.5-.5-.5s-.5.224-.5.5v.5h-3.5c-.276 0-.5.224-.5.5s.224.5.5.5h3.5v1.5c0 .276.224.5.5.5s.5-.224.5-.5v-1.5h2.5c.276 0 .5.224.5.5v2.5h-5.5c-.276 0-.5.224-.5.5s.224.5.5.5h5.5v10.5c0 .276-.224.5-.5.5h-17c-.276 0-.5-.224-.5-.5v-10.5h4.5c.276 0 .5-.224.5-.5s-.224-.5-.5-.5h-4.5v-2.5c0-.276.224-.5.5-.5h2.5v1.5c0 .276.224.5.5.5s.5-.224.5-.5v-1.5h2.5c.276 0 .5-.224.5-.5s-.224-.5-.5-.5h-2.5v-.5c0-.276-.224-.5-.5-.5s-.5.224-.5.5v.5h-2.5c-.827 0-1.5.673-1.5 1.5v14c0 .827.673 1.5 1.5 1.5h17c.827 0 1.5-.673 1.5-1.5v-14c0-.827-.673-1.5-1.5-1.5z"/><path d="m4.5 16h-1c-.276 0-.5-.224-.5-.5s.224-.5.5-.5h1c.276 0 .5.224.5.5s-.224.5-.5.5z"/><path d="m7.5 16h-1c-.276 0-.5-.224-.5-.5s.224-.5.5-.5h1c.276 0 .5.224.5.5s-.224.5-.5.5z"/><path d="m10.5 16h-1c-.276 0-.5-.224-.5-.5s.224-.5.5-.5h1c.276 0 .5.224.5.5s-.224.5-.5.5z"/><path d="m13.5 16h-1c-.276 0-.5-.224-.5-.5s.224-.5.5-.5h1c.276 0 .5.224.5.5s-.224.5-.5.5z"/><path d="m16.5 16h-1c-.276 0-.5-.224-.5-.5s.224-.5.5-.5h1c.276 0 .5.224.5.5s-.224.5-.5.5z"/><path d="m4.5 14h-1c-.276 0-.5-.224-.5-.5s.224-.5.5-.5h1c.276 0 .5.224.5.5s-.224.5-.5.5z"/><path d="m7.5 14h-1c-.276 0-.5-.224-.5-.5s.224-.5.5-.5h1c.276 0 .5.224.5.5s-.224.5-.5.5z"/><path d="m10.5 14h-1c-.276 0-.5-.224-.5-.5s.224-.5.5-.5h1c.276 0 .5.224.5.5s-.224.5-.5.5z"/><path d="m13.5 14h-1c-.276 0-.5-.224-.5-.5s.224-.5.5-.5h1c.276 0 .5.224.5.5s-.224.5-.5.5z"/><path d="m16.5 14h-1c-.276 0-.5-.224-.5-.5s.224-.5.5-.5h1c.276 0 .5.224.5.5s-.224.5-.5.5z"/><path d="m4.5 12h-1c-.276 0-.5-.224-.5-.5s.224-.5.5-.5h1c.276 0 .5.224.5.5s-.224.5-.5.5z"/><path d="m7.5 12h-1c-.276 0-.5-.224-.5-.5s.224-.5.5-.5h1c.276 0 .5.224.5.5s-.224.5-.5.5z"/><path d="m10.5 12h-1c-.276 0-.5-.224-.5-.5s.224-.5.5-.5h1c.276 0 .5.224.5.5s-.224.5-.5.5z"/><path d="m13.5 12h-1c-.276 0-.5-.224-.5-.5s.224-.5.5-.5h1c.276 0 .5.224.5.5s-.224.5-.5.5z"/><path d="m16.5 12h-1c-.276 0-.5-.224-.5-.5s.224-.5.5-.5h1c.276 0 .5.224.5.5s-.224.5-.5.5z"/><path d="m7.5 10h-1c-.276 0-.5-.224-.5-.5s.224-.5.5-.5h1c.276 0 .5.224.5.5s-.224.5-.5.5z"/><path d="m10.5 10h-1c-.276 0-.5-.224-.5-.5s.224-.5.5-.5h1c.276 0 .5.224.5.5s-.224.5-.5.5z"/><path d="m13.5 10h-1c-.276 0-.5-.224-.5-.5s.224-.5.5-.5h1c.276 0 .5.224.5.5s-.224.5-.5.5z"/><path d="m16.5 10h-1c-.276 0-.5-.224-.5-.5s.224-.5.5-.5h1c.276 0 .5.224.5.5s-.224.5-.5.5z"/><path d="m11.854 5.646c-.195-.195-.512-.195-.707 0l-1.146 1.146v-4.293c0-.276-.224-.5-.5-.5s-.5.224-.5.5v4.293l-1.146-1.146c-.195-.195-.512-.195-.707 0s-.195.512 0 .707l2 2c.098.098.226.146.354.146s.256-.049.354-.146l2-2c.195-.195.195-.512 0-.707z"/></svg>