<svg height="20" viewBox="0 0 20 20" width="20" xmlns="http://www.w3.org/2000/svg"><path d="m19.131 17.053c-.242 0-.485-.097-.724-.288l-3.438-2.751c-.552-.442-.969-1.308-.969-2.015v-3c0-.707.416-1.573.969-2.015l3.438-2.751c.239-.191.482-.288.724-.288.433 0 .869.326.869 1.053v11c0 .278-.064.512-.19.694-.157.228-.405.359-.679.359zm-.131-12.013-3.407 2.725c-.311.248-.593.837-.593 1.234v3c0 .398.283.986.593 1.234l3.407 2.725v-10.919z"/><path d="m11.5 17h-10c-.827 0-1.5-.673-1.5-1.5v-10c0-.827.673-1.5 1.5-1.5h10c.827 0 1.5.673 1.5 1.5v10c0 .827-.673 1.5-1.5 1.5zm-10-12c-.276 0-.5.224-.5.5v10c0 .276.224.5.5.5h10c.276 0 .5-.224.5-.5v-10c0-.276-.224-.5-.5-.5z"/><path d="m4.5 14c-.085 0-.17-.022-.246-.065-.157-.089-.254-.255-.254-.435v-6c0-.18.097-.346.254-.435s.349-.086.504.006l5 3c.151.09.243.253.243.429s-.092.338-.243.429l-5 3c-.079.047-.168.071-.257.071zm.5-5.617v4.234l3.528-2.117z"/></svg>