<svg height="20" viewBox="0 0 20 20" width="20" xmlns="http://www.w3.org/2000/svg"><path d="m16 10.55v-5.05c0-.827-.673-1.5-1.5-1.5h-.793l-.854-.854c-.094-.094-.221-.146-.354-.146h-5c-.133 0-.26.053-.354.146l-.854.854h-.793c-.827 0-1.5.673-1.5 1.5v5.051c-1.913.398-4 1.134-4 2.449 0 1.93 4.568 2.805 8.479 2.969h.021c.267 0 .488-.21.499-.479.012-.276-.203-.509-.479-.52-2.167-.09-4.147-.381-5.575-.817-1.539-.47-1.946-.96-1.946-1.153 0-.143.214-.417.815-.717.537-.268 1.286-.51 2.187-.709.038.793.696 1.427 1.498 1.427h9c.803 0 1.46-.634 1.498-1.427.901.199 1.649.441 2.187.709.602.3.815.574.815.717 0 .214-.471.749-2.253 1.242-1.643.454-3.864.722-6.254.755-.244.003-.45.182-.487.423s.104.474.335.551l3 1.003c.053.018.106.026.159.026.209 0 .404-.132.474-.342.088-.262-.054-.545-.316-.633l-.495-.166c1.446-.132 2.764-.354 3.85-.654 1.982-.548 2.987-1.29 2.987-2.206 0-1.315-2.087-2.051-4-2.45zm-1.5 1.45h-9c-.276 0-.5-.224-.5-.5v-.529c0-.001 0-.002 0-.002v-5.469c0-.276.224-.5.5-.5h1c.133 0 .26-.053.354-.146l.854-.854h4.586l.854.854c.094.094.221.146.354.146h1c.276 0 .5.224.5.5v5.47.001.53c0 .276-.224.5-.5.5z"/><path d="m10 11c-1.654 0-3-1.346-3-3s1.346-3 3-3 3 1.346 3 3-1.346 3-3 3zm0-5c-1.103 0-2 .897-2 2s.897 2 2 2 2-.897 2-2-.897-2-2-2z"/></svg>