<svg height="20" viewBox="0 0 20 20" width="20" xmlns="http://www.w3.org/2000/svg"><path d="m9.5 15c-2.481 0-4.5-2.019-4.5-4.5s2.019-4.5 4.5-4.5 4.5 2.019 4.5 4.5-2.019 4.5-4.5 4.5zm0-8c-1.93 0-3.5 1.57-3.5 3.5s1.57 3.5 3.5 3.5 3.5-1.57 3.5-3.5-1.57-3.5-3.5-3.5z"/><path d="m17.5 18h-16c-.827 0-1.5-.673-1.5-1.5v-10c0-.827.673-1.5 1.5-1.5h1.5c.415 0 1.06-.267 1.354-.561l.586-.586c.487-.487 1.373-.854 2.061-.854h5c.688 0 1.574.367 2.061.854l.586.586c.293.293.939.561 1.354.561h1.5c.827 0 1.5.673 1.5 1.5v10c0 .827-.673 1.5-1.5 1.5zm-16-12c-.276 0-.5.224-.5.5v10c0 .276.224.5.5.5h16c.276 0 .5-.224.5-.5v-10c0-.276-.224-.5-.5-.5h-1.5c-.688 0-1.574-.367-2.061-.854l-.586-.586c-.293-.293-.939-.561-1.354-.561h-5c-.415 0-1.06.267-1.354.561l-.586.586c-.487.487-1.372.854-2.061.854h-1.5z"/></svg>