<svg height="20" viewBox="0 0 20 20" width="20" xmlns="http://www.w3.org/2000/svg"><path d="m18.916 6.223-.5-.75c-.245-.367-.553-1.084-.674-1.564l-.015-.06c-.177-.707-.869-1.4-1.576-1.577l-.06-.015c-.48-.12-1.197-.428-1.564-.673l-.75-.5c-.153-.102-.351-.112-.513-.025s-.264.256-.264.441v3.525c-1.011-.648-2.212-1.025-3.5-1.025-3.584 0-6.5 2.916-6.5 6.5 0 1.288.376 2.489 1.025 3.5h-3.525c-.184 0-.354.102-.441.264s-.077.36.025.513l.5.75c.245.368.553 1.084.673 1.564l.015.06c.177.707.869 1.4 1.576 1.576l.06.015c.48.12 1.197.428 1.564.673l.75.5c.084.056.18.084.277.084.081 0 .162-.02.236-.059.163-.087.264-.256.264-.441v-3.525c1.011.649 2.212 1.025 3.5 1.025 3.584 0 6.5-2.916 6.5-6.5 0-1.288-.376-2.489-1.025-3.5h3.525c.184 0 .354-.102.441-.264s.078-.36-.025-.513zm-9.916 9.754c-.714-.065-1.39-.266-2-.579v-9.797c.61-.313 1.286-.514 2-.579v10.954zm1-10.954c.714.065 1.39.266 2 .579v9.797c-.61.313-1.286.514-2 .579v-10.954zm-4 1.237v8.479c-1.221-1.01-2-2.535-2-4.24s.779-3.23 2-4.24zm-1 12.306c-.466-.303-1.269-.649-1.849-.793l-.06-.015c-.355-.089-.76-.493-.849-.849l-.015-.06c-.145-.58-.49-1.383-.794-1.849h3.38c.061.063.123.125.186.186v3.38zm8-3.826v-8.479c1.221 1.01 2 2.535 2 4.24s-.779 3.23-2 4.24zm1.186-8.74c-.061-.063-.123-.125-.186-.186v-3.38c.466.303 1.269.649 1.849.794l.06.015c.355.089.76.493.849.849l.015.06c.145.58.49 1.383.794 1.849h-3.38z"/></svg>