<svg height="20" viewBox="0 0 20 20" width="20" xmlns="http://www.w3.org/2000/svg"><path d="m19.5 5h-1.5v-1.5c0-.276-.224-.5-.5-.5h-3c-.276 0-.5.224-.5.5v1.5h-8v-1.5c0-.276-.224-.5-.5-.5h-3c-.276 0-.5.224-.5.5v1.5h-1.5c-.276 0-.5.224-.5.5v11c0 .276.224.5.5.5h19c.276 0 .5-.224.5-.5v-11c0-.276-.224-.5-.5-.5zm-4.5-1h2v1h-2zm-12 0h2v1h-2zm16 12h-18v-10h18z"/><path d="m16.5 10h-1.5v-1.5c0-.276-.224-.5-.5-.5s-.5.224-.5.5v1.5h-1.5c-.276 0-.5.224-.5.5s.224.5.5.5h1.5v1.5c0 .276.224.5.5.5s.5-.224.5-.5v-1.5h1.5c.276 0 .5-.224.5-.5s-.224-.5-.5-.5z"/><path d="m7.5 11h-4c-.276 0-.5-.224-.5-.5s.224-.5.5-.5h4c.276 0 .5.224.5.5s-.224.5-.5.5z"/></svg>