<svg height="20" viewBox="0 0 20 20" width="20" xmlns="http://www.w3.org/2000/svg"><path d="m20.001 15.51c0-.011 0-.023-.001-.034-.006-.258-.094-1.833-1.276-2.424-.171-.085-.525-.262-3.883-.524-.122-.28-.327-.731-.576-1.203-.779-1.478-1.27-1.817-1.572-1.943-1.057-.442-4.242-.542-6.314-.024-1.297.324-2.459 1.088-3.36 2.209-.513.638-.807 1.223-.924 1.483-.297.234-.565.506-.803.817-.857 1.115-1.291 2.673-1.291 4.632 0 .133.053.26.146.354s.221.146.354.146h1.035c.249 0 .46-.183.495-.429.028-.197.076-.388.141-.57.413 1.164 1.525 2 2.828 2s2.415-.836 2.828-2c.065.183.113.373.141.57.035.246.246.429.495.429h6.071c.249 0 .46-.183.495-.429.017-.119.042-.236.073-.35.311 1.028 1.267 1.779 2.395 1.779 1.38 0 2.502-1.123 2.502-2.502 0-.555-.181-1.071-.491-1.489.272-.005.491-.226.491-.5zm-13.38-5.181c1.914-.479 4.898-.353 5.686-.024.038.016.39.192 1.069 1.48.122.23.233.458.328.66-.605-.042-1.285-.086-2.05-.132-3.094-.186-6.104-.312-6.134-.313-.007 0-.014 0-.021 0-.621 0-1.194.072-1.717.215.583-.73 1.502-1.552 2.839-1.886zm-1.621 8.671c-1.103 0-2-.897-2-2 0-.082.006-.163.015-.244.534-.471 1.232-.756 1.985-.756s1.451.285 1.985.756c.01.081.015.162.015.244 0 1.103-.897 2-2 2zm9.126-1h-5.253c-.2-.776-.632-1.479-1.242-2.012-.728-.637-1.663-.987-2.632-.987s-1.903.351-2.632.987c-.61.534-1.042 1.237-1.242 2.012h-.116c.105-2.387 1.013-4.995 4.479-5 .197.008 3.083.131 6.058.309 5.681.34 6.588.575 6.728.638.398.199.577.677.658 1.053h-.934c-.969 0-1.903.351-2.632.987-.61.534-1.042 1.237-1.242 2.012zm3.372 1c-.828 0-1.502-.674-1.502-1.502 0-.393.149-.76.419-1.041.388-.243.833-.4 1.307-.444.732.109 1.278.739 1.278 1.485 0 .828-.674 1.502-1.502 1.502z"/><path d="m15.492 6.009c-.83 0-1.504-.675-1.504-1.504s.675-1.504 1.504-1.504 1.504.675 1.504 1.504-.675 1.504-1.504 1.504zm0-2.009c-.278 0-.504.226-.504.504s.226.504.504.504.504-.226.504-.504-.226-.504-.504-.504z"/><path d="m18.498 6c-.132 0-.261-.053-.354-.147s-.146-.222-.146-.353.053-.261.146-.353c.093-.093.222-.147.354-.147s.26.053.353.147c.093.093.147.222.147.353s-.053.26-.147.353c-.093.093-.222.147-.353.147z"/><path d="m6.5 6c-.132 0-.261-.053-.353-.147s-.147-.222-.147-.353.053-.261.147-.353c.093-.093.222-.147.353-.147s.261.053.353.147c.093.093.147.222.147.353s-.053.26-.147.353c-.093.093-.222.147-.353.147z"/><path d="m6 3c-1.654 0-3 1.346-3 3 0 .377.069.742.199 1.081-1.823.372-3.199 1.988-3.199 3.919 0 .6.13 1.177.385 1.715.086.18.265.286.452.286.072 0 .145-.016.214-.048.249-.118.356-.417.237-.666-.191-.403-.288-.836-.288-1.286 0-1.577 1.223-2.874 2.771-2.991.129.142.272.273.429.391.09.068.195.1.3.1.152 0 .302-.069.4-.2.166-.221.121-.534-.099-.7-.509-.382-.8-.965-.8-1.6 0-1.103.897-2 2-2s2 .897 2 2c0 .437-.138.852-.4 1.2-.166.221-.121.534.099.7s.534.121.7-.099c.393-.523.6-1.145.6-1.8 0-1.654-1.346-3-3-3z"/><path d="m1.5 6.009c-.132 0-.26-.053-.353-.146s-.147-.222-.147-.354.053-.26.147-.353c.093-.093.222-.147.353-.147s.261.053.353.147c.093.093.147.222.147.353s-.053.261-.147.354c-.093.093-.222.146-.353.146z"/><path d="m2.5 4c-.827 0-1.5-.673-1.5-1.5s.673-1.5 1.5-1.5 1.5.673 1.5 1.5-.673 1.5-1.5 1.5zm0-2c-.276 0-.5.224-.5.5s.224.5.5.5.5-.224.5-.5-.224-.5-.5-.5z"/><path d="m16.496 10c-.132 0-.261-.053-.354-.147s-.146-.222-.146-.353.053-.261.146-.353c.093-.093.222-.147.354-.147s.26.053.353.147c.093.093.147.222.147.353s-.053.261-.147.353c-.093.093-.222.147-.353.147z"/><path d="m15.492 6.992c-.31 0-.617.041-.912.12-.458-.688-1.232-1.112-2.08-1.112-.885 0-1.712.475-2.159 1.239-.139.238-.059.545.179.684s.545.059.684-.179c.268-.459.765-.744 1.296-.744.446 0 .858.196 1.138.522-.165.103-.322.219-.469.349-.207.183-.226.499-.043.706s.499.226.706.043c.458-.405 1.048-.628 1.661-.628 1.383 0 2.508 1.125 2.508 2.508 0 .286-.048.567-.142.834-.092.26.045.546.305.638.055.019.111.029.166.029.206 0 .399-.128.472-.334.132-.374.199-.767.199-1.166 0-1.934-1.574-3.508-3.508-3.508z"/></svg>