<svg height="20" viewBox="0 0 20 20" width="20" xmlns="http://www.w3.org/2000/svg"><path d="m5.5 16c-.827 0-1.5-.673-1.5-1.5s.673-1.5 1.5-1.5 1.5.673 1.5 1.5-.673 1.5-1.5 1.5zm0-2c-.276 0-.5.224-.5.5s.224.5.5.5.5-.224.5-.5-.224-.5-.5-.5z"/><path d="m14.5 16c-.827 0-1.5-.673-1.5-1.5s.673-1.5 1.5-1.5 1.5.673 1.5 1.5-.673 1.5-1.5 1.5zm0-2c-.276 0-.5.224-.5.5s.224.5.5.5.5-.224.5-.5-.224-.5-.5-.5z"/><path d="m16.958 11.907c-.13-.792-.553-3.214-1.011-4.131-.305-.61-1.088-1.077-2.326-1.386-1.006-.251-2.292-.39-3.621-.39-.522 0-1.041.021-1.542.063-.275.023-.48.265-.457.54s.265.48.54.457c.473-.04.964-.06 1.458-.06 2.885 0 4.756.63 5.053 1.224.287.575.606 2.096.804 3.183-.098-.029-.199-.056-.303-.08-1.37-.326-3.308-.326-5.553-.326-.526 0-1.024 0-1.504.004-.276.002-.498.228-.496.504.002.275.226.496.5.496h.004c.476-.004.972-.004 1.496-.004 2.182 0 4.066 0 5.322.299.367.087.666.194.906.328.015.01.031.019.047.027.505.299.725.725.725 1.346v2.5c0 .276-.224.5-.5.5h-13c-.276 0-.5-.224-.5-.5v-2.5c0-.145.012-.281.036-.404.053-.271-.123-.534-.394-.587s-.534.123-.587.394c-.037.186-.055.387-.055.596v2.5c0 .652.418 1.208 1 1.414v1.086c0 .551.449 1 1 1h1c.551 0 1-.449 1-1v-1h8v1c0 .551.449 1 1 1h1c.551 0 1-.449 1-1v-1.086c.582-.206 1-.762 1-1.414v-2.5c0-.921-.343-1.614-1.042-2.093zm-11.958 7.093h-1v-1h1zm10 0v-1h1v1z"/><path d="m6 6.086v-.586c0-1.378-1.122-2.5-2.5-2.5s-2.5 1.122-2.5 2.5v.586c-.582.206-1 .762-1 1.414v3c0 .827.673 1.5 1.5 1.5h4c.827 0 1.5-.673 1.5-1.5v-3c0-.652-.418-1.208-1-1.414zm-2.5-2.086c.827 0 1.5.673 1.5 1.5v.5h-3v-.5c0-.827.673-1.5 1.5-1.5zm2.5 6.5c0 .276-.224.5-.5.5h-4c-.276 0-.5-.224-.5-.5v-3c0-.276.224-.5.5-.5h4c.276 0 .5.224.5.5z"/></svg>