<svg height="20" viewBox="0 0 20 20" width="20" xmlns="http://www.w3.org/2000/svg"><path d="m16.492 3.009c-.83 0-1.504-.675-1.504-1.504s.675-1.504 1.504-1.504 1.504.675 1.504 1.504-.675 1.504-1.504 1.504zm0-2.009c-.278 0-.504.226-.504.504s.226.504.504.504.504-.226.504-.504-.226-.504-.504-.504z"/><path d="m13.498 2c-.132 0-.261-.053-.354-.147s-.146-.222-.146-.353.053-.261.146-.353c.093-.093.222-.147.354-.147s.26.053.353.147c.093.093.147.222.147.353s-.053.26-.147.353c-.093.093-.222.147-.353.147z"/><path d="m1.5 5.009c-.132 0-.261-.053-.353-.146s-.147-.222-.147-.354.053-.261.147-.353.222-.147.353-.147.261.053.353.147c.093.093.147.222.147.353s-.053.261-.147.354c-.093.093-.222.146-.353.146z"/><path d="m2.5 3c-.827 0-1.5-.673-1.5-1.5s.673-1.5 1.5-1.5 1.5.673 1.5 1.5-.673 1.5-1.5 1.5zm0-2c-.276 0-.5.224-.5.5s.224.5.5.5.5-.224.5-.5-.224-.5-.5-.5z"/><path d="m5.5 16c-.827 0-1.5-.673-1.5-1.5s.673-1.5 1.5-1.5 1.5.673 1.5 1.5-.673 1.5-1.5 1.5zm0-2c-.276 0-.5.224-.5.5s.224.5.5.5.5-.224.5-.5-.224-.5-.5-.5z"/><path d="m14.5 16c-.827 0-1.5-.673-1.5-1.5s.673-1.5 1.5-1.5 1.5.673 1.5 1.5-.673 1.5-1.5 1.5zm0-2c-.276 0-.5.224-.5.5s.224.5.5.5.5-.224.5-.5-.224-.5-.5-.5z"/><path d="m.5 17c-.132 0-.261-.053-.353-.147s-.147-.222-.147-.353.053-.261.147-.353c.093-.093.222-.147.353-.147s.261.053.353.147c.093.093.147.222.147.353s-.053.261-.147.353c-.093.093-.222.147-.353.147z"/><path d="m19.5 16c-.132 0-.261-.053-.353-.147s-.147-.222-.147-.353.053-.261.147-.353c.093-.093.222-.147.353-.147s.261.053.353.147c.093.093.147.222.147.353s-.053.26-.147.353c-.093.093-.222.147-.353.147z"/><path d="m19.089 9.845c.577-.636.911-1.474.911-2.353 0-1.93-1.57-3.5-3.5-3.5-.316 0-.627.042-.927.124-.456-.69-1.231-1.116-2.08-1.116-.895 0-1.725.483-2.168 1.261-.137.24-.053.545.187.682s.545.053.682-.187c.266-.466.763-.756 1.299-.756.448 0 .863.199 1.142.53-.029.018-.057.036-.085.055-.229.154-.29.465-.136.694s.465.29.694.136c.412-.277.893-.423 1.392-.423 1.378 0 2.5 1.122 2.5 2.5 0 .89-.479 1.72-1.25 2.166-.239.138-.321.444-.182.683.093.16.261.25.433.25.085 0 .171-.022.25-.067.02-.012.039-.024.059-.036.437.377.69.923.69 1.512 0 .635-.292 1.218-.8 1.6-.221.166-.265.479-.099.7.098.131.248.2.4.2.105 0 .21-.033.3-.1.762-.573 1.2-1.447 1.2-2.4 0-.827-.333-1.596-.911-2.155z"/><path d="m8.939 4.396c-.284-1.388-1.52-2.396-2.939-2.396-1.654 0-3 1.346-3 3 0 .042.001.084.003.126-1.742.447-3.003 2.033-3.003 3.874 0 .868.286 1.712.801 2.4-.492.37-.801.958-.801 1.6 0 .846.536 1.604 1.333 1.886.055.019.111.029.167.029.206 0 .399-.128.471-.333.092-.26-.044-.546-.305-.638-.399-.141-.667-.52-.667-.943 0-.45.303-.847.737-.965.266-.072.424-.347.351-.614-.025-.093-.075-.172-.14-.233-.611-.573-.948-1.351-.948-2.188 0-1.367.925-2.546 2.21-2.895.013.032.026.064.039.095.082.188.266.3.458.3.067 0 .135-.013.2-.042.253-.111.369-.405.258-.658s-.166-.522-.166-.8c0-1.103.897-2 2-2 .946 0 1.77.671 1.959 1.596.055.271.32.445.59.39s.445-.32.39-.59z"/><path d="m16.958 11.907c-.13-.792-.553-3.214-1.011-4.131-.305-.61-1.088-1.077-2.326-1.386-1.006-.251-2.292-.39-3.621-.39s-2.615.138-3.621.39c-1.238.31-2.021.776-2.326 1.386-.458.916-.881 3.339-1.011 4.131-.699.479-1.042 1.172-1.042 2.093v2.5c0 .652.418 1.208 1 1.414v1.086c0 .551.449 1 1 1h1c.551 0 1-.449 1-1v-1h8v1c0 .551.449 1 1 1h1c.551 0 1-.449 1-1v-1.086c.582-.206 1-.762 1-1.414v-2.5c0-.921-.343-1.614-1.042-2.093zm-12.011-3.683c.297-.593 2.168-1.224 5.053-1.224s4.756.63 5.053 1.224c.287.575.606 2.096.804 3.183-.098-.029-.199-.056-.303-.08-.267-.064-.555-.114-.863-.156l-2.899-2.077c-.225-.161-.537-.109-.698.115s-.109.537.115.698l1.566 1.122c-.85-.028-1.782-.028-2.775-.028-.117 0-.233 0-.349 0l-2.874-1.916c-.23-.153-.54-.091-.693.139s-.091.54.139.693l1.644 1.096c-1.341.024-2.507.097-3.42.314-.104.025-.205.052-.303.081.198-1.087.516-2.608.804-3.183zm.053 10.776h-1v-1h1zm11 0h-1v-1h1zm1-2.5c0 .276-.224.5-.5.5h-13c-.276 0-.5-.224-.5-.5v-2.5c0-.924.486-1.417 1.678-1.701 1.255-.299 3.14-.299 5.322-.299s4.066 0 5.322.299c1.192.284 1.678.777 1.678 1.701z"/><path d="m17.496 7c-.132 0-.261-.053-.354-.147s-.146-.222-.146-.353.053-.261.146-.353c.093-.093.222-.147.354-.147s.26.053.353.147c.093.093.147.222.147.353s-.053.26-.147.353c-.093.093-.222.147-.353.147z"/><path d="m6.5 4.992c-.132 0-.261-.053-.353-.147s-.147-.222-.147-.353c0-.132.053-.261.147-.354s.222-.146.353-.146.261.053.353.146c.093.093.147.222.147.354s-.053.26-.147.353c-.093.093-.222.147-.353.147z"/></svg>