<svg height="20" viewBox="0 0 20 20" width="20" xmlns="http://www.w3.org/2000/svg"><path d="m20.001 15.51c0-.011 0-.023-.001-.034-.006-.258-.094-1.833-1.276-2.424-.171-.085-.525-.262-3.883-.524-.122-.28-.327-.731-.576-1.203-.779-1.478-1.27-1.817-1.572-1.943-1.057-.442-4.242-.542-6.314-.024-1.297.324-2.459 1.088-3.36 2.209-.513.638-.807 1.223-.924 1.483-.297.234-.565.506-.803.817-.857 1.115-1.291 2.673-1.291 4.632 0 .133.053.26.146.354s.221.146.354.146h1.035c.249 0 .46-.183.495-.429.028-.197.076-.388.141-.57.413 1.164 1.525 2 2.828 2s2.415-.836 2.828-2c.065.183.113.373.141.57.035.246.246.429.495.429h6.071c.249 0 .46-.183.495-.429.017-.119.042-.236.073-.35.311 1.028 1.267 1.779 2.395 1.779 1.379 0 2.502-1.122 2.502-2.502 0-.555-.181-1.071-.491-1.489.272-.005.491-.226.491-.5zm-13.38-5.181c1.914-.479 4.898-.353 5.686-.024.038.016.39.192 1.069 1.48.122.23.233.458.328.66-.605-.042-1.285-.086-2.05-.132-3.094-.186-6.104-.312-6.134-.313-.007 0-.014 0-.021 0-.621 0-1.194.072-1.717.215.583-.73 1.502-1.552 2.839-1.886zm-1.621 8.671c-1.103 0-2-.897-2-2 0-.082.006-.163.015-.244.534-.471 1.232-.756 1.985-.756s1.451.285 1.985.756c.01.081.015.162.015.244 0 1.103-.897 2-2 2zm9.126-1h-5.253c-.18-.698-.548-1.337-1.065-1.847-.006-.006-.011-.011-.017-.017-.052-.051-.105-.101-.16-.149-.728-.637-1.663-.987-2.632-.987s-1.903.351-2.632.988c-.043.038-.085.076-.126.116-.029.023-.055.048-.079.077-.502.505-.86 1.134-1.037 1.82h-.116c.105-2.387 1.013-4.995 4.479-5 .197.008 3.083.131 6.058.309 5.681.34 6.588.575 6.728.638.398.199.577.677.658 1.053h-.934c-.1 0-.2.004-.299.011-.006 0-.012.001-.018.001-.651.052-1.278.261-1.826.61-.006.003-.011.007-.017.011-.165.106-.323.224-.472.354-.61.534-1.042 1.237-1.242 2.012zm3.372 1c-.828 0-1.502-.674-1.502-1.502 0-.393.149-.76.419-1.041.388-.243.833-.4 1.307-.444.732.109 1.278.739 1.278 1.485 0 .828-.674 1.502-1.502 1.502z"/><path d="m15.5 7c-1.378 0-2.5-1.122-2.5-2.5 0-1.027.566-1.818 1.113-2.583.373-.521.725-1.013.912-1.575.068-.204.259-.342.474-.342s.406.138.474.342c.187.562.539 1.054.912 1.575.547.765 1.113 1.556 1.113 2.583 0 1.378-1.122 2.5-2.5 2.5zm0-5.346c-.179.295-.378.572-.573.845-.497.695-.927 1.295-.927 2.001 0 .827.673 1.5 1.5 1.5s1.5-.673 1.5-1.5c0-.706-.429-1.306-.927-2.001-.195-.273-.394-.551-.573-.845z"/><path d="m9.5 7c-1.378 0-2.5-1.122-2.5-2.5 0-1.027.566-1.818 1.113-2.583.373-.521.725-1.013.912-1.575.068-.204.259-.342.474-.342s.406.138.474.342c.187.562.539 1.054.912 1.575.547.765 1.113 1.556 1.113 2.583 0 1.378-1.122 2.5-2.5 2.5zm0-5.346c-.179.295-.378.572-.573.845-.497.695-.927 1.295-.927 2.001 0 .827.673 1.5 1.5 1.5s1.5-.673 1.5-1.5c0-.706-.429-1.306-.927-2.001-.195-.273-.394-.551-.573-.845z"/><path d="m3.5 7c-1.378 0-2.5-1.122-2.5-2.5 0-1.027.566-1.818 1.113-2.583.373-.521.725-1.013.912-1.575.068-.204.259-.342.474-.342s.406.138.474.342c.187.562.539 1.054.912 1.575.547.765 1.113 1.556 1.113 2.583 0 1.378-1.122 2.5-2.5 2.5zm0-5.346c-.179.295-.378.572-.573.845-.497.695-.927 1.295-.927 2.001 0 .827.673 1.5 1.5 1.5s1.5-.673 1.5-1.5c0-.706-.429-1.306-.927-2.001-.195-.273-.394-.551-.573-.845z"/></svg>