<svg height="20" viewBox="0 0 20 20" width="20" xmlns="http://www.w3.org/2000/svg"><path d="m5.5 16c-.827 0-1.5-.673-1.5-1.5s.673-1.5 1.5-1.5 1.5.673 1.5 1.5-.673 1.5-1.5 1.5zm0-2c-.276 0-.5.224-.5.5s.224.5.5.5.5-.224.5-.5-.224-.5-.5-.5z"/><path d="m14.5 16c-.827 0-1.5-.673-1.5-1.5s.673-1.5 1.5-1.5 1.5.673 1.5 1.5-.673 1.5-1.5 1.5zm0-2c-.276 0-.5.224-.5.5s.224.5.5.5.5-.224.5-.5-.224-.5-.5-.5z"/><path d="m16.958 11.907c-.13-.792-.553-3.214-1.011-4.131-.305-.61-1.088-1.077-2.326-1.386-1.006-.251-2.292-.39-3.621-.39s-2.615.138-3.621.39c-1.238.31-2.021.776-2.326 1.386-.458.916-.881 3.339-1.011 4.131-.699.479-1.042 1.172-1.042 2.093v2.5c0 .652.418 1.208 1 1.414v1.086c0 .551.449 1 1 1h1c.551 0 1-.449 1-1v-1h8v1c0 .551.449 1 1 1h1c.551 0 1-.449 1-1v-1.086c.582-.206 1-.762 1-1.414v-2.5c0-.921-.343-1.614-1.042-2.093zm-12.011-3.683c.297-.593 2.168-1.224 5.053-1.224s4.756.63 5.053 1.224c.287.575.606 2.096.803 3.183-.098-.029-.199-.056-.303-.08-.267-.063-.555-.114-.863-.156l-2.899-2.077c-.224-.161-.537-.109-.698.115s-.109.537.115.698l1.566 1.122c-.85-.028-1.782-.028-2.775-.028-.117 0-.233 0-.349 0l-2.874-1.916c-.23-.153-.54-.091-.693.139s-.091.54.139.693l1.644 1.096c-1.341.024-2.507.097-3.42.314-.104.025-.205.052-.303.08.198-1.087.516-2.608.804-3.183zm.053 10.776h-1v-1h1zm10 0v-1h1v1zm2-2.5c0 .276-.224.5-.5.5h-13c-.276 0-.5-.224-.5-.5v-2.5c0-.924.486-1.417 1.678-1.701 1.255-.299 3.14-.299 5.322-.299s4.066 0 5.322.299c1.192.284 1.678.777 1.678 1.701z"/></svg>