<svg height="20" viewBox="0 0 20 20" width="20" xmlns="http://www.w3.org/2000/svg"><path d="m19.923 19.233c-.186-.328-2.39-4.199-5.077-8.02-1.649-2.345-3.157-4.217-4.482-5.563-1.755-1.783-3.182-2.649-4.364-2.649-.35 0-.687.052-1 .153v-2.653c0-.276-.224-.5-.5-.5s-.5.224-.5.5v1.926l-1.051-2.145c-.122-.248-.421-.351-.669-.229s-.351.421-.229.669l1.278 2.609-2.609-1.278c-.248-.121-.547-.019-.669.229s-.019.547.229.669l2.145 1.051h-1.925c-.276 0-.5.224-.5.5s.224.5.5.5h2.655c-.102.314-.155.651-.155 1 0 1.182.867 2.609 2.649 4.364 1.347 1.326 3.218 2.834 5.563 4.482 3.975 2.795 8.002 5.067 8.042 5.089.077.043.161.064.245.064h.008c.273-.004.493-.226.493-.5 0-.098-.028-.19-.077-.267zm-8.135-5.205c-1.004-.706-1.882-1.358-2.649-1.96l.715-.715c.195-.195.195-.512 0-.707s-.512-.195-.707 0l-.792.792c-3.709-3.05-4.355-4.677-4.355-5.438 0-1.178.822-2 2-2 .467 0 1.259.243 2.506 1.286l-1.36 1.36c-.195.195-.195.512 0 .707.098.098.226.146.354.146s.256-.049.354-.146l1.397-1.397c1.215 1.164 2.779 2.989 4.774 5.826.276.393.547.786.811 1.176l-.689.689c-.195.195-.195.512 0 .707.098.098.226.146.354.146s.256-.049.354-.146l.549-.549c1.1 1.663 2.048 3.205 2.704 4.302-1.532-.915-3.934-2.401-6.319-4.078z"/></svg>