<svg height="20" viewBox="0 0 20 20" width="20" xmlns="http://www.w3.org/2000/svg"><path d="m17.539 4.467c-.251-.297-.63-.467-1.039-.467h-4c-.276 0-.5.224-.5.5s.224.5.5.5h4c.117 0 .215.04.276.113s.085.176.066.291l-.671 4.027c-.053.316-.391.629-.711.657l-10.043.873-.994-5.962h4.076c.276 0 .5-.224.5-.5s-.224-.5-.5-.5h-4.243l-.099-.596c-.131-.787-.859-1.404-1.658-1.404h-1c-.276 0-.5.224-.5.5s.224.5.5.5h1c.307 0 .621.266.671.569l1.671 10.027c.131.787.859 1.404 1.658 1.404h10c.276 0 .5-.224.5-.5s-.224-.5-.5-.5h-10c-.307 0-.621-.266-.671-.569l-.247-1.48 9.965-.867c.775-.067 1.483-.721 1.611-1.489l.671-4.027c.067-.404-.038-.806-.289-1.102z"/><path d="m8 20c-1.103 0-2-.897-2-2s.897-2 2-2 2 .897 2 2-.897 2-2 2zm0-3c-.551 0-1 .449-1 1s.449 1 1 1 1-.449 1-1-.449-1-1-1z"/><path d="m15 20c-1.103 0-2-.897-2-2s.897-2 2-2 2 .897 2 2-.897 2-2 2zm0-3c-.551 0-1 .449-1 1s.449 1 1 1 1-.449 1-1-.449-1-1-1z"/><path d="m12.5 6h-1.5v-1.5c0-.276-.224-.5-.5-.5s-.5.224-.5.5v1.5h-1.5c-.276 0-.5.224-.5.5s.224.5.5.5h1.5v1.5c0 .276.224.5.5.5s.5-.224.5-.5v-1.5h1.5c.276 0 .5-.224.5-.5s-.224-.5-.5-.5z"/></svg>