<svg height="20" viewBox="0 0 20 20" width="20" xmlns="http://www.w3.org/2000/svg"><path d="m17.598 4.01c-.271-.054-.534.121-.588.392l-.804 4.019c-.064.321-.419.638-.745.666l-10.21.875-1.093-6.558c-.131-.787-.859-1.404-1.658-1.404h-1c-.276 0-.5.224-.5.5s.224.5.5.5h1c.307 0 .621.266.671.569l1.671 10.027c.131.787.859 1.404 1.658 1.404h10c.276 0 .5-.224.5-.5s-.224-.5-.5-.5h-10c-.307 0-.621-.266-.671-.569l-.413-2.479 10.131-.868c.768-.066 1.489-.71 1.64-1.466l.804-4.019c.054-.271-.121-.534-.392-.588z"/><path d="m8 20c-1.103 0-2-.897-2-2s.897-2 2-2 2 .897 2 2-.897 2-2 2zm0-3c-.551 0-1 .449-1 1s.449 1 1 1 1-.449 1-1-.449-1-1-1z"/><path d="m15 20c-1.103 0-2-.897-2-2s.897-2 2-2 2 .897 2 2-.897 2-2 2zm0-3c-.551 0-1 .449-1 1s.449 1 1 1 1-.449 1-1-.449-1-1-1z"/><path d="m10.854 4.646c-.195-.195-.512-.195-.707 0l-1.146 1.146v-4.293c0-.276-.224-.5-.5-.5s-.5.224-.5.5v4.293l-1.146-1.146c-.195-.195-.512-.195-.707 0s-.195.512 0 .707l2 2c.098.098.226.146.354.146s.256-.049.354-.146l2-2c.195-.195.195-.512 0-.707z"/><path d="m15.854 2.646-2-2c-.195-.195-.512-.195-.707 0l-2 2c-.195.195-.195.512 0 .707s.512.195.707 0l1.146-1.146v4.293c0 .276.224.5.5.5s.5-.224.5-.5v-4.293l1.146 1.146c.098.098.226.146.354.146s.256-.049.354-.146c.195-.195.195-.512 0-.707z"/></svg>