<svg height="20" viewBox="0 0 20 20" width="20" xmlns="http://www.w3.org/2000/svg"><path d="m18.5 18h-18c-.276 0-.5-.224-.5-.5v-10c0-.276.224-.5.5-.5h18c.276 0 .5.224.5.5v10c0 .276-.224.5-.5.5zm-17.5-1h17v-9h-17z"/><path d="m11.5 12h-3.5v-1h3.5c.276 0 .5-.224.5-.5s-.224-.5-.5-.5h-1.5v-.5c0-.276-.224-.5-.5-.5s-.5.224-.5.5v.5h-1.5c-.276 0-.5.224-.5.5v2c0 .276.224.5.5.5h3.5v1h-3.5c-.276 0-.5.224-.5.5s.224.5.5.5h1.5v.5c0 .276.224.5.5.5s.5-.224.5-.5v-.5h1.5c.276 0 .5-.224.5-.5v-2c0-.276-.224-.5-.5-.5z"/><path d="m17.5 6h-16c-.276 0-.5-.224-.5-.5s.224-.5.5-.5h16c.276 0 .5.224.5.5s-.224.5-.5.5z"/><path d="m16.5 4h-14c-.276 0-.5-.224-.5-.5s.224-.5.5-.5h14c.276 0 .5.224.5.5s-.224.5-.5.5z"/></svg>