<svg height="20" viewBox="0 0 20 20" width="20" xmlns="http://www.w3.org/2000/svg"><path d="m18.5 18h-18c-.276 0-.5-.224-.5-.5v-10c0-.276.224-.5.5-.5h18c.276 0 .5.224.5.5v10c0 .276-.224.5-.5.5zm-17.5-1h17v-9h-17z"/><path d="m17.5 6h-16c-.276 0-.5-.224-.5-.5s.224-.5.5-.5h16c.276 0 .5.224.5.5s-.224.5-.5.5z"/><path d="m16.5 4h-14c-.276 0-.5-.224-.5-.5s.224-.5.5-.5h14c.276 0 .5.224.5.5s-.224.5-.5.5z"/><path d="m11.5 15h-3.5v-2h1.5c.276 0 .5-.224.5-.5s-.224-.5-.5-.5h-1.5v-.5c0-.799.763-1.5 1.634-1.5.579 0 1.182.316 1.433.75.138.239.444.321.683.182s.321-.444.182-.683c-.426-.736-1.371-1.249-2.299-1.249-.658 0-1.321.261-1.819.717-.526.481-.815 1.114-.815 1.783v.5h-.5c-.276 0-.5.224-.5.5s.224.5.5.5h.5v2.5c0 .276.224.5.5.5h4c.276 0 .5-.224.5-.5s-.224-.5-.5-.5z"/></svg>