<svg height="20" viewBox="0 0 20 20" width="20" xmlns="http://www.w3.org/2000/svg"><path d="m18.5 18h-18c-.276 0-.5-.224-.5-.5v-10c0-.276.224-.5.5-.5h18c.276 0 .5.224.5.5v10c0 .276-.224.5-.5.5zm-17.5-1h17v-9h-17z"/><path d="m17.5 6h-16c-.276 0-.5-.224-.5-.5s.224-.5.5-.5h16c.276 0 .5.224.5.5s-.224.5-.5.5z"/><path d="m16.5 4h-14c-.276 0-.5-.224-.5-.5s.224-.5.5-.5h14c.276 0 .5.224.5.5s-.224.5-.5.5z"/><path d="m11.75 14.067c-.239-.138-.545-.057-.683.182-.252.435-.854.75-1.433.75-.682 0-1.297-.43-1.533-1h1.399c.276 0 .5-.224.5-.5s-.224-.5-.5-.5h-1.5v-1h1.5c.276 0 .5-.224.5-.5s-.224-.5-.5-.5h-1.399c.235-.57.851-1 1.533-1 .579 0 1.182.316 1.433.75.138.239.444.321.683.182s.321-.444.182-.683c-.426-.736-1.371-1.249-2.299-1.249-.658 0-1.321.261-1.819.717-.392.359-.653.803-.76 1.283h-.555c-.276 0-.5.224-.5.5s.224.5.5.5h.5v1h-.5c-.276 0-.5.224-.5.5s.224.5.5.5h.555c.107.48.368.924.76 1.283.498.456 1.161.717 1.819.717.928 0 1.873-.514 2.299-1.25.138-.239.057-.545-.182-.683z"/></svg>