<svg height="20" viewBox="0 0 20 20" width="20" xmlns="http://www.w3.org/2000/svg"><path d="m5 11.5c0 .276-.224.5-.5.5s-.5-.224-.5-.5.224-.5.5-.5.5.224.5.5z"/><path d="m7 11.5c0 .276-.224.5-.5.5s-.5-.224-.5-.5.224-.5.5-.5.5.224.5.5z"/><path d="m9 11.5c0 .276-.224.5-.5.5s-.5-.224-.5-.5.224-.5.5-.5.5.224.5.5z"/><path d="m11 11.5c0 .276-.224.5-.5.5s-.5-.224-.5-.5.224-.5.5-.5.5.224.5.5z"/><path d="m13 11.5c0 .276-.224.5-.5.5s-.5-.224-.5-.5.224-.5.5-.5.5.224.5.5z"/><path d="m15 11.5c0 .276-.224.5-.5.5s-.5-.224-.5-.5.224-.5.5-.5.5.224.5.5z"/><path d="m10 17.5c0 .276-.224.5-.5.5s-.5-.224-.5-.5.224-.5.5-.5.5.224.5.5z"/><path d="m4 13.5c0 .276-.224.5-.5.5s-.5-.224-.5-.5.224-.5.5-.5.5.224.5.5z"/><path d="m6 13.5c0 .276-.224.5-.5.5s-.5-.224-.5-.5.224-.5.5-.5.5.224.5.5z"/><path d="m8 13.5c0 .276-.224.5-.5.5s-.5-.224-.5-.5.224-.5.5-.5.5.224.5.5z"/><path d="m10 13.5c0 .276-.224.5-.5.5s-.5-.224-.5-.5.224-.5.5-.5.5.224.5.5z"/><path d="m12 13.5c0 .276-.224.5-.5.5s-.5-.224-.5-.5.224-.5.5-.5.5.224.5.5z"/><path d="m14 13.5c0 .276-.224.5-.5.5s-.5-.224-.5-.5.224-.5.5-.5.5.224.5.5z"/><path d="m16 13.5c0 .276-.224.5-.5.5s-.5-.224-.5-.5.224-.5.5-.5.5.224.5.5z"/><path d="m14.5 8h-3c-.276 0-.5-.224-.5-.5s.224-.5.5-.5h3c.276 0 .5.224.5.5s-.224.5-.5.5z"/><path d="m7.5 4h-1c-.276 0-.5-.224-.5-.5s.224-.5.5-.5h1c.276 0 .5.224.5.5s-.224.5-.5.5z"/><path d="m7.5 6h-1c-.276 0-.5-.224-.5-.5s.224-.5.5-.5h1c.276 0 .5.224.5.5s-.224.5-.5.5z"/><path d="m18.658 14.393-1.658-4.974v-2.919c0-.827-.673-1.5-1.5-1.5h-.5v-1h2.5c.276 0 .5-.224.5-.5v-3c0-.276-.224-.5-.5-.5h-6c-.276 0-.5.224-.5.5v3c0 .276.224.5.5.5h2.5v1h-4v-3.5c0-.276-.224-.5-.5-.5h-5c-.276 0-.5.224-.5.5v3.5h-.5c-.827 0-1.5.673-1.5 1.5v2.919l-1.658 4.974c-.192.575-.342 1.501-.342 2.107v2c0 .827.673 1.5 1.5 1.5h16c.827 0 1.5-.673 1.5-1.5v-2c0-.606-.15-1.532-.342-2.107zm-6.658-13.393h5v2h-5zm-7 1h4v5h-4zm-1.5 4h.5v1.5c0 .276.224.5.5.5h5c.276 0 .5-.224.5-.5v-1.5h5.5c.276 0 .5.224.5.5v2.5h-13v-2.5c0-.276.224-.5.5-.5zm-.64 4h13.279l1.57 4.709c.032.095.062.204.091.321-.097-.02-.197-.03-.3-.03h-16c-.103 0-.203.01-.3.03.029-.117.059-.226.091-.321l1.57-4.709zm14.64 9h-16c-.276 0-.5-.224-.5-.5v-2c0-.276.224-.5.5-.5h16c.276 0 .5.224.5.5v2c0 .276-.224.5-.5.5z"/></svg>