<svg height="20" viewBox="0 0 20 20" width="20" xmlns="http://www.w3.org/2000/svg"><path d="m16 13.5v-.5c0-.428-.321-1.133-.639-1.609l-.891-1.336c-.242-.363-.411-1.06-.363-1.493l.669-6.018c.075-.672-.123-1.309-.556-1.793s-1.044-.75-1.72-.75h-6c-.676 0-1.287.267-1.72.75s-.631 1.121-.556 1.793l.669 6.018c.048.433-.122 1.131-.363 1.493l-.891 1.336c-.317.476-.639 1.182-.639 1.609v.5c0 .551.298 1.032.742 1.293-.332.718-.742 2.126-.742 4.707 0 .276.224.5.5.5s.5-.224.5-.5c0-2.869.53-4.101.76-4.5h1.24v2.5c0 .276.224.5.5.5s.5-.224.5-.5v-2.5h5v2.5c0 .276.224.5.5.5s.5-.224.5-.5v-2.5h1.24c.23.399.76 1.631.76 4.5 0 .276.224.5.5.5.276 0 .5-.224.5-.5 0-2.58-.41-3.989-.742-4.707.443-.261.742-.743.742-1.293zm-1.5.5h-10c-.276 0-.5-.224-.5-.5s.224-.5.5-.5h10c.276 0 .5.224.5.5s-.224.5-.5.5zm-9.139-3.391c.368-.552.598-1.5.525-2.158l-.669-6.018c-.043-.386.066-.746.307-1.015s.587-.417.975-.417h6c.388 0 .734.148.975.417s.35.63.307 1.015l-.669 6.018c-.073.659.157 1.607.525 2.159l.891 1.336c.012.019.025.038.037.056-.022-.001-.044-.002-.066-.002h-10c-.022 0-.044.001-.066.002.012-.019.024-.038.037-.056l.891-1.336z"/><path d="m12 10h-5c-.276 0-.5-.224-.5-.5s.224-.5.5-.5h5c.276 0 .5.224.5.5s-.224.5-.5.5z"/><path d="m12.5 5h-.5c-1.103 0-2-.897-2-2v-.5c0-.276-.224-.5-.5-.5s-.5.224-.5.5v.5c0 1.103-.897 2-2 2h-.5c-.276 0-.5.224-.5.5s.224.5.5.5h.5c1.103 0 2 .897 2 2v.5c0 .276.224.5.5.5s.5-.224.5-.5v-.5c0-1.103.897-2 2-2h.5c.276 0 .5-.224.5-.5s-.224-.5-.5-.5zm-3 1.344c-.222-.334-.509-.621-.844-.844.334-.222.621-.509.844-.844.222.334.509.621.844.844-.334.222-.622.509-.844.844z"/></svg>