<svg height="20" viewBox="0 0 20 20" width="20" xmlns="http://www.w3.org/2000/svg"><path d="m3.5 20h-3c-.276 0-.5-.224-.5-.5v-7c0-.276.224-.5.5-.5h3c.276 0 .5.224.5.5v7c0 .276-.224.5-.5.5zm-2.5-1h2v-6h-2z"/><path d="m8.5 20h-3c-.276 0-.5-.224-.5-.5v-10c0-.276.224-.5.5-.5h3c.276 0 .5.224.5.5v10c0 .276-.224.5-.5.5zm-2.5-1h2v-9h-2z"/><path d="m13.5 20h-3c-.276 0-.5-.224-.5-.5v-9c0-.276.224-.5.5-.5h3c.276 0 .5.224.5.5v9c0 .276-.224.5-.5.5zm-2.5-1h2v-8h-2z"/><path d="m18.5 20h-3c-.276 0-.5-.224-.5-.5v-13c0-.276.224-.5.5-.5h3c.276 0 .5.224.5.5v13c0 .276-.224.5-.5.5zm-2.5-1h2v-12h-2z"/><path d="m17.854 1.146c-.134-.134-.332-.181-.512-.121l-3 1c-.262.087-.404.37-.316.632s.371.404.632.316l.991-.33-4.295 4.295c-.213.213-.612.242-.854.061l-2.4-1.8c-.624-.468-1.587-.448-2.191.046l-4.726 3.867c-.214.175-.245.49-.07.704.099.121.242.183.387.183.111 0 .223-.037.316-.113l4.726-3.867c.246-.202.703-.211.957-.02l2.4 1.8c.643.482 1.592.415 2.161-.154l4.295-4.295-.33.991c-.087.262.054.545.316.632.052.018.106.026.158.026.209 0 .404-.133.474-.342l1-3c.06-.18.013-.378-.121-.512z"/></svg>