<svg height="20" viewBox="0 0 20 20" width="20" xmlns="http://www.w3.org/2000/svg"><path d="m17.5 20h-16c-.827 0-1.5-.673-1.5-1.5v-16c0-.827.673-1.5 1.5-1.5h16c.827 0 1.5.673 1.5 1.5v16c0 .827-.673 1.5-1.5 1.5zm-16-18c-.276 0-.5.224-.5.5v16c0 .276.224.5.5.5h16c.276 0 .5-.224.5-.5v-16c0-.276-.224-.5-.5-.5z"/><path d="m6.5 17h-2c-.276 0-.5-.224-.5-.5v-9c0-.276.224-.5.5-.5h2c.276 0 .5.224.5.5v9c0 .276-.224.5-.5.5zm-1.5-1h1v-8h-1z"/><path d="m10.5 17h-2c-.276 0-.5-.224-.5-.5v-12c0-.276.224-.5.5-.5h2c.276 0 .5.224.5.5v12c0 .276-.224.5-.5.5zm-1.5-1h1v-11h-1z"/><path d="m14.5 17h-2c-.276 0-.5-.224-.5-.5v-5c0-.276.224-.5.5-.5h2c.276 0 .5.224.5.5v5c0 .276-.224.5-.5.5zm-1.5-1h1v-4h-1z"/></svg>