<svg height="20" viewBox="0 0 20 20" width="20" xmlns="http://www.w3.org/2000/svg"><path d="m2.5 15h-2c-.276 0-.5-.224-.5-.5v-9c0-.276.224-.5.5-.5h2c.276 0 .5.224.5.5v9c0 .276-.224.5-.5.5zm-1.5-1h1v-8h-1z"/><path d="m8.5 11c-.276 0-.5-.224-.5-.5v-8c0-.276.224-.5.5-.5h2c.276 0 .5.224.5.5v4c0 .276-.224.5-.5.5s-.5-.224-.5-.5v-3.5h-1v7.5c0 .276-.224.5-.5.5z"/><path d="m6.5 15h-2c-.276 0-.5-.224-.5-.5v-5c0-.276.224-.5.5-.5h2c.276 0 .5.224.5.5v5c0 .276-.224.5-.5.5zm-1.5-1h1v-4h-1z"/><path d="m13.5 15c-.827 0-1.5-.673-1.5-1.5s.673-1.5 1.5-1.5 1.5.673 1.5 1.5-.673 1.5-1.5 1.5zm0-2c-.276 0-.5.224-.5.5s.224.5.5.5.5-.224.5-.5-.224-.5-.5-.5z"/><path d="m12.017 18.776c-.05 0-.1-.007-.148-.022-.775-.24-1.502-.661-2.101-1.215-.107-.099-.166-.24-.16-.385s.074-.282.188-.373c.383-.305.486-.856.241-1.281-.178-.309-.51-.5-.867-.5-.125 0-.247.023-.363.069-.136.053-.288.045-.417-.023s-.222-.19-.254-.332c-.089-.397-.135-.805-.135-1.213s.045-.817.135-1.213c.032-.142.125-.264.254-.332s.281-.077.417-.023c.116.046.238.069.363.069.357 0 .689-.192.867-.5.245-.425.142-.976-.241-1.281-.114-.091-.183-.227-.188-.373s.053-.286.16-.385c.6-.554 1.326-.974 2.101-1.215.139-.043.291-.023.414.054s.207.205.229.349c.072.485.498.85.989.85s.916-.366.989-.85c.022-.144.105-.272.229-.349s.275-.097.414-.054c.775.241 1.502.661 2.101 1.215.107.099.166.24.16.385s-.074.282-.188.373c-.383.305-.486.856-.241 1.281.178.309.51.5.867.5.125 0 .247-.023.363-.069.136-.053.288-.045.417.023s.222.19.254.332c.089.397.135.805.135 1.213s-.045.817-.135 1.213c-.032.142-.125.264-.254.332s-.281.077-.417.023c-.116-.046-.238-.069-.363-.069-.357 0-.689.192-.867.5-.245.425-.142.976.241 1.281.114.091.183.227.188.373s-.053.286-.16.385c-.599.554-1.326.974-2.101 1.215-.139.043-.291.023-.414-.054s-.207-.205-.229-.349c-.072-.485-.498-.85-.989-.85s-.916.366-.989.85c-.022.144-.105.272-.229.349-.081.051-.173.077-.266.077zm-1.19-1.656c.272.201.566.371.874.506.117-.241.282-.457.488-.636.363-.316.829-.49 1.311-.49s.948.174 1.311.49c.205.178.371.395.488.636.308-.135.602-.305.874-.506-.15-.222-.255-.473-.306-.74-.092-.472-.009-.962.232-1.38.356-.617 1.02-1 1.733-1 .047 0 .094.002.14.005.019-.167.028-.336.028-.505s-.009-.337-.028-.505c-.047.003-.093.005-.14.005-.713 0-1.377-.383-1.733-1-.241-.417-.323-.907-.232-1.379.052-.267.157-.519.306-.74-.272-.201-.566-.371-.874-.506-.117.241-.282.457-.488.636-.364.316-.829.49-1.311.49s-.948-.174-1.311-.49c-.205-.178-.371-.395-.488-.636-.308.135-.602.305-.874.506.15.222.255.473.306.74.092.472.009.962-.232 1.379-.356.617-1.02 1-1.733 1-.047 0-.094-.002-.14-.005-.019.167-.028.336-.028.505s.009.337.028.505c.047-.003.093-.005.14-.005.713 0 1.377.383 1.733 1 .241.417.323.907.232 1.379-.052.267-.157.519-.306.74z"/></svg>