<svg height="20" viewBox="0 0 20 20" width="20" xmlns="http://www.w3.org/2000/svg"><path d="m17.5 20h-16c-.827 0-1.5-.673-1.5-1.5v-16c0-.827.673-1.5 1.5-1.5h16c.827 0 1.5.673 1.5 1.5v16c0 .827-.673 1.5-1.5 1.5zm-16-18c-.276 0-.5.224-.5.5v16c0 .276.224.5.5.5h16c.276 0 .5-.224.5-.5v-16c0-.276-.224-.5-.5-.5z"/><path d="m7.5 14.5c-.128 0-.256-.049-.354-.146l-3-3c-.195-.195-.195-.512 0-.707s.512-.195.707 0l2.646 2.646 6.646-6.646c.195-.195.512-.195.707 0s.195.512 0 .707l-7 7c-.098.098-.226.146-.354.146z"/></svg>