<svg height="20" viewBox="0 0 20 20" width="20" xmlns="http://www.w3.org/2000/svg"><path d="m13.5 2c-.072 0-.144.016-.21.046l-2.005.926c-.201.093-.317.309-.285.528 0 .017-.054.132-.309.26-.305.153-.739.24-1.191.24-.09 0-.181-.003-.269-.01-.085-.007-.171.009-.248.045l-8.692 4.012c-.171.079-.291.252-.291.454v3c0 .276.224.5.5.5.827 0 1.5.673 1.5 1.5 0 .401-.156.777-.439 1.061s-.66.439-1.061.439c-.133 0-.26.053-.354.146s-.146.221-.146.354v2c0 .276.224.5.5.5h19c.276 0 .5-.224.5-.5v-9c0-3.584-2.916-6.5-6.5-6.5zm-4.213 2.995c.071.003.142.005.213.005.61 0 1.192-.123 1.638-.346.451-.225.737-.538.83-.896l1.64-.757c2.816.054 5.119 2.235 5.369 4.999h-4.045c-.14-.51-.495-.971-1.034-1.33-.648-.432-1.5-.67-2.399-.67s-1.751.238-2.399.67c-.539.359-.894.82-1.034 1.33h-5.291l6.511-3.005zm4.713 3.505c0 1.378-1.122 2.5-2.5 2.5s-2.5-1.122-2.5-2.5c0-.813 1.145-1.5 2.5-1.5s2.5.687 2.5 1.5zm5 8.5h-18v-1.05c.477-.096.916-.33 1.268-.683.472-.472.732-1.1.732-1.768 0-1.207-.86-2.217-2-2.45v-2.05h7.036c.243 1.694 1.704 3 3.464 3s3.221-1.306 3.464-3h4.036v8z"/><path d="m15.5 15c-.827 0-1.5-.673-1.5-1.5s.673-1.5 1.5-1.5 1.5.673 1.5 1.5-.673 1.5-1.5 1.5zm0-2c-.276 0-.5.224-.5.5s.224.5.5.5.5-.224.5-.5-.224-.5-.5-.5z"/><path d="m7 16c-1.103 0-2-.897-2-2s.897-2 2-2 2 .897 2 2-.897 2-2 2zm0-3c-.551 0-1 .449-1 1s.449 1 1 1 1-.449 1-1-.449-1-1-1z"/></svg>