<svg height="20" viewBox="0 0 20 20" width="20" xmlns="http://www.w3.org/2000/svg"><path d="m20 6.5c0-2.481-2.019-4.5-4.5-4.5-.464 0-.917.07-1.353.207-.925-1.371-2.476-2.207-4.147-2.207s-3.222.836-4.147 2.207c-.436-.138-.889-.207-1.353-.207-2.481 0-4.5 2.019-4.5 4.5 0 2.312 1.753 4.223 4 4.472v8.528c0 .276.224.5.5.5h11c.276 0 .5-.224.5-.5v-8.528c2.247-.25 4-2.16 4-4.472zm-13.442 4.002c.482-.249.92-.587 1.285-.991.67.321 1.408.488 2.157.488s1.486-.168 2.157-.488c.365.404.802.742 1.285.991.484.249 1.015.408 1.558.469v5.028h-10v-5.028c.543-.061 1.074-.22 1.558-.469zm-1.558 8.498v-2h10v2zm10.5-9c-1.121 0-2.147-.517-2.815-1.42-.152-.206-.435-.263-.656-.133-.613.362-1.314.553-2.029.553s-1.417-.191-2.029-.553c-.221-.13-.504-.073-.656.133-.668.902-1.694 1.42-2.815 1.42-1.93 0-3.5-1.57-3.5-3.5s1.57-3.5 3.5-3.5c.297 0 .588.036.87.109-.175.426-.288.874-.34 1.336-.03.274.168.522.442.552s.522-.167.552-.442c.058-.528.219-1.03.477-1.494.706-1.271 2.047-2.06 3.499-2.06s2.793.789 3.499 2.06c.258.464.418.967.477 1.495.03.274.278.472.552.442s.472-.277.442-.552c-.051-.463-.165-.91-.34-1.336.282-.072.573-.109.87-.109 1.93 0 3.5 1.57 3.5 3.5s-1.57 3.5-3.5 3.5z"/></svg>