<svg height="20" viewBox="0 0 20 20" width="20" xmlns="http://www.w3.org/2000/svg"><path d="m7.501 8c-.033 0-.066-.003-.099-.01-1.339-.268-2.694-1.096-3.717-2.273-1.087-1.25-1.685-2.748-1.685-4.217 0-.184.102-.354.264-.441s.36-.077.513.025c1.374.916 2.952.916 4.478.916 1.608 0 3.271 0 4.571 1.121.209.18.233.496.052.705s-.496.232-.705.052c-1.019-.879-2.363-.879-3.918-.879-1.319 0-2.783 0-4.169-.611.45 2.32 2.579 4.234 4.512 4.62.271.054.446.318.392.588-.048.238-.256.402-.49.402z"/><path d="m9.5 6c-.128 0-.256-.049-.354-.146-.839-.839-2.629-.854-2.647-.854-.276-.001-.499-.225-.499-.501s.224-.499.5-.499c.09 0 2.22.013 3.354 1.146.195.195.195.512 0 .707-.098.098-.226.146-.354.146z"/><path d="m3.5 16c-.276 0-.5-.224-.5-.5 0-1.378 1.122-2.5 2.5-2.5.276 0 .5.224.5.5s-.224.5-.5.5c-.827 0-1.5.673-1.5 1.5 0 .276-.224.5-.5.5z"/><path d="m13.466 6.109c.568-.875 1.167-1.54 1.527-1.908l.153.153c.098.098.226.146.354.146s.256-.049.354-.146l2-2c.195-.195.195-.512 0-.707l-1-1c-.195-.195-.512-.195-.707 0l-2 2c-.195.195-.195.512 0 .707l.043.043c-.572.352-1.523.976-2.626 1.852-1.567 1.246-3.732 3.249-5.309 5.814-.246-.042-.498-.064-.755-.064-2.481 0-4.5 2.019-4.5 4.5s2.019 4.5 4.5 4.5 4.5-2.019 4.5-4.5c0-1.86-1.134-3.46-2.748-4.145 1.483-2.325 3.467-4.155 4.917-5.309.103-.082.205-.162.305-.239-.486.788-.861 1.592-1.115 2.394-.302.951-.433 1.901-.395 2.832-.603.072-1.188.265-1.714.57-.239.138-.321.444-.182.683s.444.321.683.182c.529-.306 1.134-.468 1.75-.468 1.93 0 3.5 1.57 3.5 3.5s-1.57 3.5-3.5 3.5c-.616 0-1.221-.162-1.75-.468-.239-.138-.545-.057-.683.182s-.057.545.182.683c.681.394 1.459.602 2.251.602 2.481 0 4.5-2.019 4.5-4.5 0-2.325-1.772-4.243-4.036-4.476-.09-1.995.751-3.758 1.502-4.915zm3.034-4.402.293.293-1.293 1.293-.293-.293zm-7.5 13.793c0 1.93-1.57 3.5-3.5 3.5s-3.5-1.57-3.5-3.5 1.57-3.5 3.5-3.5 3.5 1.57 3.5 3.5z"/><path d="m10.5 14.268c-.173 0-.341-.089-.433-.25-.138-.239-.057-.545.182-.683.379-.219.811-.335 1.25-.335.276 0 .5.224.5.5s-.224.5-.5.5c-.264 0-.523.069-.75.2-.079.046-.165.067-.25.067z"/></svg>