<svg height="20" viewBox="0 0 20 20" width="20" xmlns="http://www.w3.org/2000/svg"><path d="m2.782 3.782c-1.794 1.794-2.782 4.18-2.782 6.718s.988 4.923 2.782 6.718 4.18 2.782 6.718 2.782 4.923-.988 6.718-2.782 2.782-4.18 2.782-6.717-.988-4.923-2.782-6.718-4.18-2.782-6.718-2.782-4.923.988-6.718 2.782zm15.218 6.718c0 4.687-3.813 8.5-8.5 8.5s-8.5-3.813-8.5-8.5 3.813-8.5 8.5-8.5 8.5 3.813 8.5 8.5z"/><path d="m15 12c0 .128-.049.256-.146.354-.195.195-.512.195-.707 0l-4.646-4.646-4.646 4.646c-.195.195-.512.195-.707 0s-.195-.512 0-.707l5-5c.195-.195.512-.195.707 0l5 5c.098.098.146.226.146.354z"/></svg>