<svg height="20" viewBox="0 0 20 20" width="20" xmlns="http://www.w3.org/2000/svg"><path d="m0 18.5v-16c0-.827.673-1.5 1.5-1.5h16c.827 0 1.5.673 1.5 1.5v16c0 .827-.673 1.5-1.5 1.5h-16c-.827 0-1.5-.673-1.5-1.5zm18-16c0-.276-.224-.5-.5-.5h-16c-.276 0-.5.224-.5.5v16c0 .276.224.5.5.5h16c.276 0 .5-.224.5-.5z"/><path d="m6.5 15.5c0-.128.049-.256.146-.354l4.646-4.646-4.646-4.646c-.195-.195-.195-.512 0-.707s.512-.195.707 0l5 5c.195.195.195.512 0 .707l-5 5c-.195.195-.512.195-.707 0-.098-.098-.146-.226-.146-.354z"/></svg>