<svg height="20" viewBox="0 0 20 20" width="20" xmlns="http://www.w3.org/2000/svg"><path d="m16.218 3.782c-1.794-1.794-4.18-2.782-6.718-2.782s-4.923.988-6.718 2.782-2.782 4.18-2.782 6.717.988 4.923 2.782 6.718 4.18 2.782 6.718 2.782 4.923-.988 6.718-2.782 2.782-4.18 2.782-6.718-.988-4.923-2.782-6.717zm-6.718 15.218c-4.687 0-8.5-3.813-8.5-8.5s3.813-8.5 8.5-8.5 8.5 3.813 8.5 8.5-3.813 8.5-8.5 8.5z"/><path d="m8 16c-.128 0-.256-.049-.354-.146-.195-.195-.195-.512 0-.707l4.646-4.646-4.646-4.646c-.195-.195-.195-.512 0-.707s.512-.195.707 0l5 5c.195.195.195.512 0 .707l-5 5c-.098.098-.226.146-.354.146z"/></svg>