<svg height="20" viewBox="0 0 20 20" width="20" xmlns="http://www.w3.org/2000/svg"><path d="m18.5 15h-.5c-.415 0-1.06-.267-1.354-.561l-1.778-1.778c.022-.217.009-.442-.039-.677-.14-.679-.555-1.403-1.128-2.404-.374-.653-.798-1.392-1.254-2.304-.143-.286-.296-.635-.474-1.039-.528-1.203-1.186-2.7-2.178-3.946-1.209-1.52-2.655-2.291-4.296-2.291-3.033 0-5.5 2.467-5.5 5.5 0 1.641.771 3.086 2.291 4.296 1.246.991 2.743 1.649 3.946 2.177.404.178.754.331 1.039.474.912.456 1.652.88 2.304 1.254 1.239.71 2.057 1.179 2.877 1.179.069 0 .137-.004.205-.011l1.777 1.777c.293.293.561.939.561 1.354v.5c0 .827.673 1.5 1.5 1.5s1.5-.673 1.5-1.5c0-.276.224-.5.5-.5.827 0 1.5-.673 1.5-1.5s-.673-1.5-1.5-1.5zm-8.422-2.166c-.631-.362-1.417-.812-2.354-1.281-.308-.154-.685-.32-1.084-.495-2.246-.987-5.639-2.477-5.639-5.558 0-2.481 2.019-4.5 4.5-4.5 3.08 0 4.571 3.394 5.558 5.639.175.399.341.777.495 1.084.469.937.919 1.723 1.281 2.354 1.144 1.996 1.383 2.499.563 3.319-.429.429-.727.484-.939.484-.554 0-1.32-.439-2.38-1.047zm8.422 4.166c-.827 0-1.5.673-1.5 1.5 0 .276-.224.5-.5.5s-.5-.224-.5-.5v-.5c0-.688-.367-1.574-.854-2.061l-1.47-1.47c.143-.102.285-.223.427-.366s.263-.284.365-.428l1.47 1.47c.487.487 1.372.854 2.061.854h.5c.276 0 .5.224.5.5s-.224.5-.5.5z"/></svg>