<svg height="20" viewBox="0 0 20 20" width="20" xmlns="http://www.w3.org/2000/svg"><path d="m18.5 10c.276 0 .5-.224.5-.5s-.224-.5-.5-.5h-1.5v-1h1.5c.276 0 .5-.224.5-.5s-.224-.5-.5-.5h-1.5v-1.5c0-.133-.053-.26-.146-.354l-2-2c-.094-.094-.221-.146-.354-.146h-1.5v-1.5c0-.276-.224-.5-.5-.5s-.5.224-.5.5v1.5h-1v-1.5c0-.276-.224-.5-.5-.5s-.5.224-.5.5v1.5h-1v-1.5c0-.276-.224-.5-.5-.5s-.5.224-.5.5v1.5h-1v-1.5c0-.276-.224-.5-.5-.5s-.5.224-.5.5v1.5h-1.5c-.133 0-.26.053-.354.146l-2 2c-.094.094-.146.221-.146.354v1.5h-1.5c-.276 0-.5.224-.5.5s.224.5.5.5h1.5v1h-1.5c-.276 0-.5.224-.5.5s.224.5.5.5h1.5v1h-1.5c-.276 0-.5.224-.5.5s.224.5.5.5h1.5v1h-1.5c-.276 0-.5.224-.5.5s.224.5.5.5h1.5v1.5c0 .133.053.26.146.354l2 2c.094.094.221.146.354.146h1.5v1.5c0 .276.224.5.5.5s.5-.224.5-.5v-1.5h1v1.5c0 .276.224.5.5.5s.5-.224.5-.5v-1.5h1v1.5c0 .276.224.5.5.5s.5-.224.5-.5v-1.5h1v1.5c0 .276.224.5.5.5s.5-.224.5-.5v-1.5h1.5c.133 0 .26-.053.354-.146l2-2c.094-.094.146-.221.146-.354v-1.5h1.5c.276 0 .5-.224.5-.5s-.224-.5-.5-.5h-1.5v-1h1.5c.276 0 .5-.224.5-.5s-.224-.5-.5-.5h-1.5v-1zm-2.5 5.293-1.707 1.707h-9.586l-1.707-1.707v-9.586l1.707-1.707h9.586l1.707 1.707z"/><path d="m5.5 16c-.827 0-1.5-.673-1.5-1.5s.673-1.5 1.5-1.5 1.5.673 1.5 1.5-.673 1.5-1.5 1.5zm0-2c-.276 0-.5.224-.5.5s.224.5.5.5.5-.224.5-.5-.224-.5-.5-.5z"/><path d="m6.207 9.5.646-.646c.195-.195.195-.512 0-.707s-.512-.195-.707 0l-.646.646-.646-.646c-.195-.195-.512-.195-.707 0s-.195.512 0 .707l.646.646-.646.646c-.195.195-.195.512 0 .707.098.098.226.146.354.146s.256-.049.354-.146l.646-.646.646.646c.098.098.226.146.354.146s.256-.049.354-.146c.195-.195.195-.512 0-.707l-.646-.646z"/><path d="m10.5 11h-2c-.276 0-.5-.224-.5-.5v-4c0-.276.224-.5.5-.5h2c.276 0 .5.224.5.5s-.224.5-.5.5h-1.5v1h1.5c.276 0 .5.224.5.5v2c0 .276-.224.5-.5.5zm-1.5-1h1v-1h-1z"/><path d="m14.5 6c-.276 0-.5.224-.5.5v1.5h-1v-1.5c0-.276-.224-.5-.5-.5s-.5.224-.5.5v2c0 .276.224.5.5.5h1.5v1.5c0 .276.224.5.5.5s.5-.224.5-.5v-4c0-.276-.224-.5-.5-.5z"/></svg>