<svg height="20" viewBox="0 0 20 20" width="20" xmlns="http://www.w3.org/2000/svg"><path d="m9.514 19.996c-.005 0-.01 0-.015 0-3.208-.001-7.299-.435-8.275-1.079-.117-.077-.197-.201-.219-.339s.016-.281.103-.39l2-2.5c.172-.216.487-.251.703-.078s.251.487.078.703l-1.579 1.974c1.207.334 4.044.708 7.189.709h.014c1.689 0 3.464-.109 5-.306.991-.127 1.69-.268 2.138-.391l-3.31-3.723c-.118-.133-.157-.318-.102-.487s.195-.296.368-.334c.546-.12.907-.248 1.143-.359l-3.216-3.752c-.111-.13-.148-.307-.099-.47s.179-.29.343-.336c.378-.107.702-.238.961-.389l-.596-.596c-.195-.195-.195-.512 0-.707s.512-.195.707 0l1 1c.195.195.195.512 0 .707-.272.272-.634.505-1.081.696l3.107 3.625c.17.198.159.494-.026.679-.261.261-.665.48-1.225.663l3.245 3.651c.096.108.141.253.122.396s-.098.272-.219.352c-.558.372-2.013.622-3.136.766-1.577.203-3.398.314-5.127.314z"/><path d="m5.5 11.5c-.123 0-.246-.045-.343-.136-.201-.189-.21-.506-.021-.707l1.057-1.122c-.431-.188-.782-.416-1.047-.681-.195-.195-.195-.512 0-.707l1-1c.195-.195.512-.195.707 0s.195.512 0 .707l-.596.596c.259.151.583.282.961.389.168.047.3.179.346.348s.002.349-.118.476l-1.584 1.681c-.098.104-.231.157-.364.157z"/><path d="m11.5 7c-.076 0-.153-.017-.223-.053l-1.776-.888-1.776.888c-.175.087-.384.065-.536-.057s-.22-.322-.172-.511l.442-1.769-1.357-1.81c-.114-.152-.132-.354-.047-.524s.258-.276.447-.276h1.691l.862-1.724c.085-.169.258-.276.447-.276s.363.107.447.276l.862 1.724h1.691c.189 0 .363.107.447.276s.066.372-.047.524l-1.357 1.81.442 1.769c.047.189-.02.389-.172.511-.091.073-.201.11-.313.11zm-2-2c.077 0 .153.018.224.053l1.028.514-.236-.945c-.037-.146-.005-.301.085-.421l.9-1.2h-1c-.189 0-.363-.107-.447-.276l-.553-1.106-.553 1.106c-.085.169-.258.276-.447.276h-1l.9 1.2c.09.12.122.275.085.421l-.236.945 1.028-.514c.07-.035.147-.053.224-.053z"/><path d="m11.5 18c-.827 0-1.5-.673-1.5-1.5s.673-1.5 1.5-1.5 1.5.673 1.5 1.5-.673 1.5-1.5 1.5zm0-2c-.276 0-.5.224-.5.5s.224.5.5.5.5-.224.5-.5-.224-.5-.5-.5z"/><path d="m7 16.5c0 .276-.224.5-.5.5s-.5-.224-.5-.5.224-.5.5-.5.5.224.5.5z"/><path d="m12 12.5c0 .276-.224.5-.5.5s-.5-.224-.5-.5.224-.5.5-.5.5.224.5.5z"/><path d="m10 9.5c0 .276-.224.5-.5.5s-.5-.224-.5-.5.224-.5.5-.5.5.224.5.5z"/><path d="m4.5 15c-.827 0-1.5-.673-1.5-1.5s.673-1.5 1.5-1.5 1.5.673 1.5 1.5-.673 1.5-1.5 1.5zm0-2c-.276 0-.5.224-.5.5s.224.5.5.5.5-.224.5-.5-.224-.5-.5-.5z"/><path d="m8.5 15c-.276 0-.5-.224-.5-.5s-.224-.5-.5-.5-.5-.224-.5-.5.224-.5.5-.5.5-.224.5-.5.224-.5.5-.5.5.224.5.5.224.5.5.5.5.224.5.5-.224.5-.5.5-.5.224-.5.5-.224.5-.5.5z"/></svg>