<svg height="20" viewBox="0 0 20 20" width="20" xmlns="http://www.w3.org/2000/svg"><path d="m19.176 4.517c-.566-1.396-1.398-2.648-2.471-3.722-.094-.094-.221-.146-.354-.146s-.26.053-.354.146l-15.203 15.203c-.094.094-.146.221-.146.354s.053.26.146.354c1.074 1.074 2.326 1.905 3.722 2.471 1.348.547 2.772.824 4.233.824s2.885-.277 4.233-.824c1.396-.566 2.648-1.397 3.722-2.471s1.905-2.326 2.471-3.722c.547-1.348.824-2.772.824-4.233s-.277-2.885-.824-4.233zm-12.343 6.857c.356.261.754.439 1.167.537v4.046c-1.444-.149-2.851-.729-4.011-1.74l2.843-2.843zm3.821-3.821c.546.869.442 2.032-.313 2.788s0 0 0 0c-.756.756-1.919.86-2.788.313l3.102-3.102zm-1.654 4.436c.59-.045 1.169-.25 1.667-.614l2.843 2.843c-1.293 1.128-2.894 1.719-4.511 1.774v-4.003zm5.218 1.522-2.843-2.843c.365-.498.569-1.078.614-1.667h4.007c-.056 1.676-.679 3.253-1.777 4.511zm-2.307-5.511c-.097-.413-.276-.811-.537-1.167l2.843-2.843c.988 1.132 1.592 2.522 1.744 4.011h-4.05zm4.087 7.998c-1.936 1.936-4.51 3.002-7.248 3.002-2.571 0-4.997-.94-6.886-2.657l1.417-1.417c1.51 1.341 3.433 2.074 5.469 2.074 2.204 0 4.275-.858 5.834-2.416s2.416-3.63 2.416-5.834c0-.083-.002-.167-.004-.25s0-.001 0-.002c-.058-1.943-.784-3.77-2.07-5.218l1.417-1.417c1.717 1.889 2.657 4.315 2.657 6.886 0 2.738-1.066 5.312-3.002 7.248z"/></svg>