<svg height="20" viewBox="0 0 20 20" width="20" xmlns="http://www.w3.org/2000/svg"><path d="m9 10h1v1h-1z"/><path d="m11 10h1v1h-1z"/><path d="m13 10h1v1h-1z"/><path d="m15 10h1v1h-1z"/><path d="m9 13h1v1h-1z"/><path d="m11 13h1v1h-1z"/><path d="m13 13h1v1h-1z"/><path d="m15 13h1v1h-1z"/><path d="m9 16h1v1h-1z"/><path d="m11 16h1v1h-1z"/><path d="m13 16h1v1h-1z"/><path d="m15 16h1v1h-1z"/><path d="m17.5 7h-.5v-2.5c0-.133-.053-.26-.146-.354l-1.854-1.854v-1.793c0-.276-.224-.5-.5-.5s-.5.224-.5.5v1.793l-1.854 1.854c-.094.094-.146.221-.146.354v.5h-2v-2.5c0-.276-.224-.5-.5-.5h-8c-.276 0-.5.224-.5.5v17c0 .276.224.5.5.5h16c.276 0 .5-.224.5-.5v-12c0-.276-.224-.5-.5-.5zm-4.5-2.293 1.5-1.5 1.5 1.5v2.293h-1v-1.5c0-.276-.224-.5-.5-.5h-1.5zm1 1.293v1h-4v-1zm-7 1.5v11.5h-5v-16h7v4h-1.5c-.276 0-.5.224-.5.5zm10 11.5h-9v-11h9z"/><path d="m7 4h1v2h-1z"/><path d="m5 4h1v2h-1z"/><path d="m3 4h1v2h-1z"/><path d="m3 7h1v2h-1z"/><path d="m5 7h1v2h-1z"/><path d="m3 10h1v2h-1z"/><path d="m5 10h1v2h-1z"/><path d="m3 13h1v2h-1z"/><path d="m5 13h1v2h-1z"/><path d="m3 16h1v2h-1z"/><path d="m5 16h1v2h-1z"/></svg>