<svg height="20" viewBox="0 0 20 20" width="20" xmlns="http://www.w3.org/2000/svg"><path d="m17.5 2h-1.002c-.001 0-.001 0-.002 0h-3.998c-.001 0-.001 0-.002 0h-3.998c-.001 0-.001 0-.002 0h-3.998c-.001 0-.001 0-.002 0h-2.997c-.827 0-1.5.673-1.5 1.5v13c0 .827.673 1.5 1.5 1.5h16c.827 0 1.5-.673 1.5-1.5v-13c0-.827-.673-1.5-1.5-1.5zm.5 1.5v1.5h-2.566l1.333-2h.732c.276 0 .5.224.5.5zm-6.566 1.5 1.333-2h2.798l-1.333 2zm-4 0 1.333-2h2.798l-1.333 2zm-4 0 1.333-2h2.798l-1.333 2zm-1.934-2h2.066l-1.333 2h-1.232v-1.5c0-.276.224-.5.5-.5zm16 14h-16c-.276 0-.5-.224-.5-.5v-10.5h1.498.001s.001 0 .002 0h3.997.001s.001 0 .002 0h3.997.001s.001 0 .002 0h3.997.001s.001 0 .002 0h3.499v10.5c0 .276-.224.5-.5.5z"/><path d="m7.5 15c-.085 0-.17-.022-.246-.065-.157-.089-.254-.255-.254-.435v-6c0-.18.097-.346.254-.435s.349-.086.504.006l5 3c.151.09.243.253.243.429s-.092.338-.243.429l-5 3c-.079.047-.168.071-.257.071zm.5-5.617v4.234l3.528-2.117z"/></svg>