<svg height="20" viewBox="0 0 20 20" width="20" xmlns="http://www.w3.org/2000/svg"><path d="m18.5 18h-17c-.827 0-1.5-.673-1.5-1.5v-13c0-.827.673-1.5 1.5-1.5h17c.827 0 1.5.673 1.5 1.5v13c0 .827-.673 1.5-1.5 1.5zm-17-15c-.276 0-.5.224-.5.5v13c0 .276.224.5.5.5h17c.276 0 .5-.224.5-.5v-13c0-.276-.224-.5-.5-.5z"/><path d="m3.5 10c-.162 0-.32-.078-.417-.223-.153-.23-.091-.54.139-.693l2.376-1.584-2.376-1.584c-.23-.153-.292-.464-.139-.693s.464-.292.693-.139l3 2c.139.093.223.249.223.416s-.084.323-.223.416l-3 2c-.085.057-.182.084-.277.084z"/><path d="m11.5 10h-3c-.276 0-.5-.224-.5-.5s.224-.5.5-.5h3c.276 0 .5.224.5.5s-.224.5-.5.5z"/></svg>