<svg height="20" viewBox="0 0 20 20" width="20" xmlns="http://www.w3.org/2000/svg"><path d="m16.5 20h-14c-.827 0-1.5-.673-1.5-1.5v-14c0-.827.673-1.5 1.5-1.5h1c.276 0 .5.224.5.5s-.224.5-.5.5h-1c-.276 0-.5.224-.5.5v14c0 .276.224.5.5.5h14c.276 0 .5-.224.5-.5v-14c0-.276-.224-.5-.5-.5h-1c-.276 0-.5-.224-.5-.5s.224-.5.5-.5h1c.827 0 1.5.673 1.5 1.5v14c0 .827-.673 1.5-1.5 1.5z"/><path d="m13.501 5s0 0-.001 0h-8c-.276 0-.5-.224-.5-.5 0-1.005.453-1.786 1.276-2.197.275-.138.547-.213.764-.254.213-1.164 1.235-2.049 2.459-2.049s2.246.885 2.459 2.049c.218.041.489.116.764.254.816.408 1.268 1.178 1.276 2.17.001.009.001.018.001.027 0 .276-.224.5-.5.5zm-7.441-1h6.88c-.096-.356-.307-.617-.638-.79-.389-.203-.8-.21-.805-.21-.276 0-.497-.224-.497-.5 0-.827-.673-1.5-1.5-1.5s-1.5.673-1.5 1.5c0 .276-.224.5-.5.5-.001 0-.413.007-.802.21-.331.173-.542.433-.638.79z"/><path d="m9.5 3c-.132 0-.261-.053-.353-.147s-.147-.222-.147-.353.053-.261.147-.353c.093-.093.222-.147.353-.147s.261.053.353.147c.093.093.147.222.147.353s-.053.26-.147.353c-.093.093-.222.147-.353.147z"/><path d="m5 17c-.131 0-.259-.052-.354-.146-.118-.118-.17-.288-.137-.452l.5-2.5c.019-.097.067-.186.137-.256l6.5-6.5c.195-.195.512-.195.707 0l2 2c.195.195.195.512 0 .707l-6.5 6.5c-.07.07-.159.117-.256.137l-2.5.5c-.033.007-.065.01-.098.01zm.961-2.753-.323 1.616 1.616-.323 6.039-6.039-1.293-1.293z"/></svg>