<svg height="20" viewBox="0 0 20 20" width="20" xmlns="http://www.w3.org/2000/svg"><path d="m16.5 20h-14c-.827 0-1.5-.673-1.5-1.5v-14c0-.827.673-1.5 1.5-1.5h1c.276 0 .5.224.5.5s-.224.5-.5.5h-1c-.276 0-.5.224-.5.5v14c0 .276.224.5.5.5h14c.276 0 .5-.224.5-.5v-14c0-.276-.224-.5-.5-.5h-1c-.276 0-.5-.224-.5-.5s.224-.5.5-.5h1c.827 0 1.5.673 1.5 1.5v14c0 .827-.673 1.5-1.5 1.5z"/><path d="m13.501 5s0 0-.001 0h-8c-.276 0-.5-.224-.5-.5 0-1.005.453-1.786 1.276-2.197.275-.138.547-.213.764-.254.213-1.164 1.235-2.049 2.459-2.049s2.246.885 2.459 2.049c.218.041.489.116.764.254.816.408 1.268 1.178 1.276 2.17.001.009.001.018.001.027 0 .276-.224.5-.5.5zm-7.441-1h6.88c-.096-.356-.307-.617-.638-.79-.389-.203-.8-.21-.805-.21-.276 0-.497-.224-.497-.5 0-.827-.673-1.5-1.5-1.5s-1.5.673-1.5 1.5c0 .276-.224.5-.5.5-.001 0-.413.007-.802.21-.331.173-.542.433-.638.79z"/><path d="m9.5 3c-.132 0-.261-.053-.353-.147s-.147-.222-.147-.353.053-.261.147-.353c.093-.093.222-.147.353-.147s.261.053.353.147c.093.093.147.222.147.353s-.053.26-.147.353c-.093.093-.222.147-.353.147z"/><path d="m12.5 17h-6c-.425 0-.796-.177-1.019-.486s-.273-.717-.139-1.12c.022-.065.229-.649.849-1.232.564-.53 1.596-1.161 3.309-1.161s2.745.631 3.309 1.161c.62.583.827 1.167.849 1.232.134.403.084.811-.139 1.12s-.594.486-1.019.486zm-3-3c-2.609 0-3.204 1.692-3.209 1.709-.031.093-.03.175.002.219s.11.071.208.071h6c.098 0 .176-.027.208-.071s.033-.125.003-.217c-.032-.089-.651-1.712-3.21-1.712z"/><path d="m9.5 12c-1.378 0-2.5-1.122-2.5-2.5s1.122-2.5 2.5-2.5 2.5 1.122 2.5 2.5-1.122 2.5-2.5 2.5zm0-4c-.827 0-1.5.673-1.5 1.5s.673 1.5 1.5 1.5 1.5-.673 1.5-1.5-.673-1.5-1.5-1.5z"/></svg>