<svg height="20" viewBox="0 0 20 20" width="20" xmlns="http://www.w3.org/2000/svg"><path d="m15.129 7.25c-.138-.239-.444-.321-.683-.183l-4.92 2.841-3.835-2.685c-.226-.158-.538-.103-.696.123s-.103.538.123.696l4.096 2.868c.001.001.002.001.003.002.008.006.017.011.025.016.003.002.005.003.008.005.008.005.017.009.025.014.003.001.005.003.008.004.01.005.02.009.03.013.007.003.013.005.02.007.004.001.008.003.012.004.007.002.014.004.022.006.004.001.008.002.011.003.007.002.014.003.022.005.004.001.008.002.012.002.007.001.014.002.021.003.005.001.01.001.015.002.006.001.012.001.018.002.009.001.018.001.027.001h.006s0 0 .001 0c.019 0 .037-.001.056-.003h.003c.018-.002.036-.005.054-.01.002 0 .003-.001.005-.001.017-.004.034-.009.051-.015.003-.001.005-.002.008-.003.016-.006.031-.013.047-.02.003-.002.006-.003.01-.005.006-.003.011-.006.017-.009l5.196-3c.239-.138.321-.444.183-.683z"/><path d="m16.32 17.113c1.729-1.782 2.68-4.124 2.68-6.613 0-2.37-.862-4.608-2.438-6.355l.688-.688.646.646c.098.098.226.146.354.146s.256-.049.354-.146c.195-.195.195-.512 0-.707l-2-2c-.195-.195-.512-.195-.707 0s-.195.512 0 .707l.646.646-.688.688c-1.747-1.576-3.985-2.438-6.355-2.438s-4.608.862-6.355 2.438l-.688-.688.646-.646c.195-.195.195-.512 0-.707s-.512-.195-.707 0l-2 2c-.195.195-.195.512 0 .707.098.098.226.146.354.146s.256-.049.354-.146l.646-.646.688.688c-1.576 1.747-2.438 3.985-2.438 6.355 0 2.489.951 4.831 2.68 6.613l-2.034 2.034c-.195.195-.195.512 0 .707.098.098.226.146.354.146s.256-.049.354-.146l2.06-2.06c1.705 1.428 3.836 2.206 6.087 2.206s4.382-.778 6.087-2.206l2.059 2.059c.098.098.226.146.354.146s.256-.049.354-.146c.195-.195.195-.512 0-.707l-2.034-2.034zm-6.32 1.872v-.485c0-.276-.224-.5-.5-.5s-.5.224-.5.5v.485c-4.29-.25-7.735-3.695-7.985-7.985h.485c.276 0 .5-.224.5-.5s-.224-.5-.5-.5h-.485c.25-4.29 3.695-7.735 7.985-7.985v.485c0 .276.224.5.5.5s.5-.224.5-.5v-.485c4.29.25 7.735 3.695 7.985 7.985h-.485c-.276 0-.5.224-.5.5s.224.5.5.5h.485c-.25 4.29-3.695 7.735-7.985 7.985z"/></svg>