<svg height="20" viewBox="0 0 20 20" width="20" xmlns="http://www.w3.org/2000/svg"><path d="m16.218 3.782c-1.794-1.794-4.18-2.782-6.718-2.782s-4.923.988-6.718 2.782c-1.794 1.794-2.782 4.18-2.782 6.717s.988 4.923 2.782 6.718 4.18 2.782 6.718 2.782 4.923-.988 6.718-2.782 2.782-4.18 2.782-6.718-.988-4.923-2.782-6.717zm-6.718 15.218c-4.687 0-8.5-3.813-8.5-8.5s3.813-8.5 8.5-8.5 8.5 3.813 8.5 8.5-3.813 8.5-8.5 8.5z"/><path d="m15.129 7.25c-.138-.239-.444-.321-.683-.183l-4.92 2.841-3.835-2.685c-.226-.158-.538-.103-.696.123s-.103.538.123.696l4.096 2.868c.001.001.002.001.003.002.008.006.017.011.026.016.002.001.005.003.007.004.009.005.018.01.027.014.002.001.004.002.006.003.01.005.02.009.031.014.006.002.012.005.019.007.005.002.009.003.014.005.007.002.013.004.02.006.004.001.009.002.013.003.007.002.014.003.02.005.005.001.009.002.014.003.006.001.013.002.019.003s.012.001.018.002c.005.001.011.001.016.002.012.001.023.001.035.001.019 0 .038-.001.057-.003h.001c.018-.002.037-.006.055-.01.001 0 .003-.001.004-.001.017-.004.034-.009.051-.016.003-.001.005-.002.007-.003.016-.006.032-.013.047-.021.003-.002.006-.003.009-.005.006-.003.011-.006.017-.009l5.196-3c.239-.138.321-.444.183-.683z"/></svg>