<svg height="20" viewBox="0 0 20 20" width="20" xmlns="http://www.w3.org/2000/svg"><path d="m16.32 17.113c1.729-1.782 2.68-4.124 2.68-6.613 0-2.37-.862-4.608-2.438-6.355l.688-.688.647.646c.098.098.226.146.353.146s.256-.049.353-.146c.195-.195.195-.512 0-.707l-2-2c-.195-.195-.512-.195-.707 0s-.195.512 0 .707l.647.646-.688.688c-1.747-1.576-3.985-2.438-6.355-2.438s-4.608.862-6.355 2.438l-.688-.688.646-.646c.195-.195.195-.512 0-.707s-.512-.195-.707 0l-2 2c-.195.195-.195.512 0 .707.098.098.226.146.354.146s.256-.049.354-.146l.646-.646.688.688c-1.576 1.747-2.438 3.985-2.438 6.355 0 2.489.951 4.831 2.68 6.613l-2.034 2.034c-.195.195-.195.512 0 .707.098.098.226.147.354.147s.256-.049.354-.147l2.06-2.059c1.705 1.428 3.836 2.206 6.087 2.206s4.382-.778 6.087-2.206l2.059 2.059c.098.098.226.147.354.147s.256-.049.353-.147c.195-.195.195-.512 0-.707zm-15.32-6.613c0-4.687 3.813-8.5 8.5-8.5s8.5 3.813 8.5 8.5-3.813 8.5-8.5 8.5-8.5-3.813-8.5-8.5z"/><path d="m15.129 7.25c-.138-.239-.444-.321-.683-.183l-4.92 2.841-3.835-2.685c-.226-.158-.538-.103-.696.123s-.103.538.123.696l4.096 2.868c.001.001.002.001.002.002.009.006.018.012.027.017.002.001.004.003.006.004l.027.015.006.003c.01.005.02.009.031.014.006.003.013.005.019.007.004.001.008.003.013.005l.021.006.012.003c.007.002.014.003.022.005.004.001.008.002.012.002.007.001.014.002.021.003.005.001.01.001.015.002.006.001.012.001.018.002.009.001.018.001.027.001h.006s0 0 .001 0c.019 0 .037-.001.056-.003h.003c.018-.002.036-.005.054-.01.002 0 .003-.001.005-.001.017-.004.034-.009.05-.015.003-.001.006-.002.008-.003.016-.006.031-.012.046-.02.004-.002.007-.004.011-.006.005-.003.011-.005.016-.008l5.196-3c.239-.138.321-.444.183-.683z"/></svg>