<svg height="20" viewBox="0 0 20 20" width="20" xmlns="http://www.w3.org/2000/svg"><path d="m16 8c-.058 0-.115.001-.172.004.113-.319.172-.658.172-1.004 0-.237-.028-.468-.08-.69l1.88-1.41c.221-.166.266-.479.1-.7s-.479-.266-.7-.1l-1.686 1.265c-.536-.821-1.462-1.365-2.514-1.365-1.213 0-2.269.726-2.739 1.776-1.118-1.126-2.65-1.776-4.261-1.776-3.308 0-6 2.692-6 6 0 2.08 1.064 3.916 2.676 4.993l-1.476 1.107c-.221.166-.266.479-.1.7.098.131.248.2.4.2.104 0 .21-.033.3-.1l1.843-1.383c.724.31 1.521.483 2.357.483h10c2.206 0 4-1.794 4-4s-1.794-4-4-4zm-15 2c0-2.757 2.243-5 5-5 1.628 0 3.159.797 4.096 2.131.122.174.341.252.545.194s.35-.238.363-.45c.065-1.051.941-1.875 1.996-1.875.725 0 1.361.388 1.712.966l-11.177 8.382c-1.513-.861-2.535-2.487-2.535-4.349zm15 5h-10c-.486 0-.956-.07-1.4-.2l10.4-7.8c0 .506-.189.988-.533 1.359-.156.169-.177.422-.051.615s.368.273.584.197c.32-.113.656-.17 1-.17 1.654 0 3 1.346 3 3s-1.346 3-3 3z"/></svg>