<svg height="20" viewBox="0 0 20 20" width="20" xmlns="http://www.w3.org/2000/svg"><path d="m12.853 11.647-2-2c-.195-.195-.512-.195-.707 0l-2 2c-.195.195-.195.512 0 .707s.512.195.707 0l1.146-1.146v4.293c0 .276.224.5.5.5s.5-.224.5-.5v-4.293l1.147 1.146c.098.098.226.146.353.146s.256-.049.353-.147c.195-.195.195-.512 0-.707z"/><path d="m16.006 16h-3.506c-.276 0-.5-.224-.5-.5s.224-.5.5-.5h3.506c1.651 0 2.994-1.343 2.994-2.994s-1.343-2.994-2.994-2.994c-.354 0-.699.061-1.026.18-.218.08-.462-.001-.59-.195s-.104-.45.056-.619c.357-.376.554-.865.554-1.379 0-1.103-.897-2-2-2-.642 0-1.229.297-1.61.814-.23.312-.365.678-.388 1.057-.013.212-.159.392-.363.45s-.423-.02-.545-.193c-.11-.156-.229-.307-.354-.447-.949-1.068-2.312-1.681-3.74-1.681-2.757 0-5 2.243-5 5s2.243 5 5 5h2.5c.276 0 .5.224.5.5s-.224.5-.5.5h-2.5c-3.308 0-6-2.692-6-6s2.692-6 6-6c1.602 0 3.137.643 4.26 1.775.088-.194.196-.38.325-.555.564-.764 1.467-1.22 2.415-1.22 1.654 0 3 1.346 3 3 0 .351-.061.694-.178 1.017.061-.003.122-.004.184-.004 2.202 0 3.994 1.792 3.994 3.994s-1.792 3.994-3.994 3.994z"/></svg>