<svg height="20" viewBox="0 0 20 20" width="20" xmlns="http://www.w3.org/2000/svg"><path d="m16 16h-3.5c-.276 0-.5-.224-.5-.5s.224-.5.5-.5h3.5c1.654 0 3-1.346 3-3s-1.346-3-3-3c-.343 0-.68.057-1 .17-.217.077-.458-.005-.584-.197s-.105-.446.051-.615c.344-.371.533-.853.533-1.359 0-1.103-.897-2-2-2-1.055 0-1.931.823-1.996 1.875-.013.212-.159.393-.363.45s-.423-.02-.545-.194c-.937-1.334-2.468-2.131-4.096-2.131-2.757 0-5 2.243-5 5s2.243 5 5 5h2.5c.276 0 .5.224.5.5s-.224.5-.5.5h-2.5c-3.308 0-6-2.692-6-6s2.692-6 6-6c1.611 0 3.143.65 4.261 1.776.471-1.05 1.527-1.776 2.739-1.776 1.654 0 3 1.346 3 3 0 .346-.059.685-.172 1.004.057-.002.115-.004.172-.004 2.206 0 4 1.794 4 4s-1.794 4-4 4z"/><path d="m10.5 13c-.276 0-.5-.224-.5-.5v-3c0-.276.224-.5.5-.5s.5.224.5.5v3c0 .276-.224.5-.5.5z"/><path d="m10.5 16c-.276 0-.5-.224-.5-.5v-1c0-.276.224-.5.5-.5s.5.224.5.5v1c0 .276-.224.5-.5.5z"/></svg>