<svg height="20" viewBox="0 0 20 20" width="20" xmlns="http://www.w3.org/2000/svg"><path d="m16.006 16h-10.006c-3.308 0-6-2.692-6-6s2.692-6 6-6c1.602 0 3.137.643 4.26 1.775.088-.194.196-.38.325-.555.564-.764 1.467-1.22 2.415-1.22 1.654 0 3 1.346 3 3 0 .351-.061.694-.178 1.017.061-.003.122-.004.184-.004 2.202 0 3.994 1.792 3.994 3.994s-1.792 3.994-3.994 3.994zm-10.006-11c-2.757 0-5 2.243-5 5s2.243 5 5 5h10.006c1.651 0 2.994-1.343 2.994-2.994s-1.343-2.994-2.994-2.994c-.354 0-.699.061-1.026.18-.218.08-.462-.001-.59-.195s-.104-.45.056-.619c.357-.376.554-.865.554-1.379 0-1.103-.897-2-2-2-.642 0-1.229.297-1.61.814-.23.312-.365.678-.388 1.057-.013.212-.159.393-.363.45s-.423-.02-.545-.193c-.11-.156-.229-.307-.354-.447-.949-1.068-2.312-1.681-3.74-1.681z"/></svg>