<svg height="20" viewBox="0 0 20 20" width="20" xmlns="http://www.w3.org/2000/svg"><path d="m4.481 15.787c-.046 0-.092-.006-.138-.019-1.227-.352-2.332-1.107-3.111-2.126-.805-1.053-1.231-2.312-1.231-3.642 0-3.308 2.692-6 6-6 1.611 0 3.143.65 4.261 1.776.471-1.05 1.527-1.776 2.739-1.776 1.654 0 3 1.346 3 3 0 .346-.059.685-.172 1.004.057-.002.115-.004.172-.004 2.206 0 4 1.794 4 4 0 .771-.22 1.52-.636 2.166-.405.628-.975 1.129-1.649 1.449-.249.118-.548.012-.666-.237s-.012-.548.237-.666c1.042-.495 1.714-1.559 1.714-2.712 0-1.654-1.346-3-3-3-.343 0-.68.057-1 .17-.217.077-.458-.005-.584-.197s-.105-.446.051-.615c.344-.371.533-.854.533-1.359 0-1.103-.897-2-2-2-1.055 0-1.931.823-1.996 1.875-.013.212-.159.393-.363.45s-.423-.02-.545-.194c-.937-1.334-2.468-2.131-4.096-2.131-2.757 0-5 2.243-5 5 0 2.219 1.488 4.196 3.618 4.807.265.076.419.353.343.618-.063.219-.263.362-.48.362z"/><path d="m15.854 15.146c-.195-.195-.512-.195-.707 0l-.146.146v-.293c0-2.206-1.794-4-4-4-.6 0-1.177.13-1.715.385-.249.118-.356.417-.237.666s.417.356.666.237c.403-.191.835-.288 1.286-.288 1.654 0 3 1.346 3 3v.293l-.146-.146c-.195-.195-.512-.195-.707 0s-.195.512 0 .707l1 1c.098.098.226.146.354.146s.256-.049.354-.146l1-1c.195-.195.195-.512 0-.707z"/><path d="m12.952 17.949c-.118-.249-.417-.356-.666-.237-.403.191-.836.288-1.286.288-1.654 0-3-1.346-3-3v-.293l.146.146c.098.098.226.146.354.146s.256-.049.354-.146c.195-.195.195-.512 0-.707l-1-1c-.195-.195-.512-.195-.707 0l-1 1c-.195.195-.195.512 0 .707s.512.195.707 0l.146-.146v.293c0 2.206 1.794 4 4 4 .6 0 1.177-.13 1.715-.385.249-.118.356-.417.237-.666z"/></svg>