<svg height="20" viewBox="0 0 20 20" width="20" xmlns="http://www.w3.org/2000/svg"><path d="m16 13h-10c-3.308 0-6-2.692-6-6s2.692-6 6-6c1.611 0 3.143.65 4.261 1.776.471-1.05 1.527-1.776 2.739-1.776 1.654 0 3 1.346 3 3 0 .346-.059.685-.172 1.004.057-.002.115-.004.172-.004 2.206 0 4 1.794 4 4s-1.794 4-4 4zm-10-11c-2.757 0-5 2.243-5 5s2.243 5 5 5h10c1.654 0 3-1.346 3-3s-1.346-3-3-3c-.343 0-.68.057-1 .17-.217.077-.458-.005-.584-.197s-.105-.446.051-.615c.344-.371.533-.854.533-1.359 0-1.103-.897-2-2-2-1.055 0-1.931.823-1.996 1.875-.013.212-.159.393-.363.45s-.423-.02-.545-.194c-.937-1.334-2.468-2.131-4.096-2.131z"/><path d="m6.724 18.053-1.106-.553 1.106-.553c.247-.123.347-.424.224-.671s-.424-.347-.671-.224l-1.276.638v-1.191c0-.276-.224-.5-.5-.5s-.5.224-.5.5v1.191l-1.276-.638c-.247-.123-.547-.023-.671.224s-.023.547.224.671l1.106.553-1.106.553c-.247.123-.347.424-.224.671.088.175.264.277.448.277.075 0 .151-.017.223-.053l1.276-.638v1.191c0 .276.224.5.5.5s.5-.224.5-.5v-1.191l1.276.638c.072.036.148.053.223.053.183 0 .36-.101.448-.277.123-.247.023-.547-.224-.671z"/><path d="m18.724 18.053-1.106-.553 1.106-.553c.247-.123.347-.424.224-.671s-.424-.347-.671-.224l-1.276.638v-1.191c0-.276-.224-.5-.5-.5s-.5.224-.5.5v1.191l-1.276-.638c-.247-.123-.547-.023-.671.224s-.023.547.224.671l1.106.553-1.106.553c-.247.123-.347.424-.224.671.088.175.264.277.448.277.075 0 .151-.017.223-.053l1.276-.638v1.191c0 .276.224.5.5.5s.5-.224.5-.5v-1.191l1.276.638c.072.036.148.053.223.053.183 0 .36-.101.448-.277.123-.247.023-.547-.224-.671z"/><path d="m12.724 18.053-1.106-.553 1.106-.553c.247-.123.347-.424.224-.671s-.424-.347-.671-.224l-1.276.638v-1.191c0-.276-.224-.5-.5-.5s-.5.224-.5.5v1.191l-1.276-.638c-.247-.123-.547-.023-.671.224s-.023.547.224.671l1.106.553-1.106.553c-.247.123-.347.424-.224.671.088.175.264.277.448.277.075 0 .151-.017.223-.053l1.276-.638v1.191c0 .276.224.5.5.5s.5-.224.5-.5v-1.191l1.276.638c.072.036.148.053.223.053.183 0 .36-.101.448-.277.123-.247.023-.547-.224-.671z"/></svg>