<svg height="20" viewBox="0 0 20 20" width="20" xmlns="http://www.w3.org/2000/svg"><path d="m16 16h-1.5c-.276 0-.5-.224-.5-.5s.224-.5.5-.5h1.5c1.654 0 3-1.346 3-3s-1.346-3-3-3c-.343 0-.68.057-1 .17-.217.077-.458-.005-.584-.197s-.105-.446.051-.614c.344-.371.533-.854.533-1.359 0-1.103-.897-2-2-2-1.055 0-1.931.823-1.996 1.875-.013.212-.159.393-.363.45s-.423-.02-.545-.194c-.937-1.334-2.468-2.131-4.096-2.131-2.757 0-5 2.243-5 5 0 2.605 1.954 4.746 4.544 4.98.275.025.478.268.453.543s-.268.478-.543.453c-1.486-.134-2.861-.815-3.874-1.917-1.019-1.109-1.58-2.551-1.58-4.058 0-3.308 2.692-6 6-6 1.611 0 3.143.65 4.261 1.776.471-1.05 1.527-1.776 2.739-1.776 1.654 0 3 1.346 3 3 0 .346-.059.685-.172 1.004.057-.002.115-.004.172-.004 2.206 0 4 1.794 4 4s-1.794 4-4 4z"/><path d="m11.953 9.329c-.53-.212-1.224-.329-1.953-.329s-1.424.117-1.953.329c-.911.364-1.047.89-1.047 1.171v4c0 .281.136.807 1.047 1.171.53.212 1.224.329 1.953.329s1.424-.117 1.953-.329c.911-.364 1.047-.89 1.047-1.171v-4c0-.281-.136-.807-1.047-1.171zm.047 3.152c-.087.155-.779.519-2 .519s-1.913-.364-2-.519v-.829c.015.006.031.013.047.019.53.212 1.224.329 1.953.329s1.424-.117 1.953-.329c.016-.006.031-.013.047-.019zm-2-2.481c1.174 0 1.859.336 1.988.5-.129.164-.814.5-1.988.5s-1.859-.336-1.987-.5c.129-.164.814-.5 1.987-.5zm0 5c-1.219 0-1.911-.363-2-.518v-.83c.015.006.031.013.047.019.53.212 1.224.329 1.953.329s1.424-.117 1.953-.329c.016-.006.031-.013.047-.019v.83c-.089.155-.781.518-2 .518z"/></svg>