<svg height="20" viewBox="0 0 20 20" width="20" xmlns="http://www.w3.org/2000/svg"><path d="m16 16h-9.5c-.276 0-.5-.224-.5-.5s.224-.5.5-.5h9.5c1.654 0 3-1.346 3-3s-1.346-3-3-3c-.343 0-.68.057-1 .17-.217.077-.458-.005-.584-.197s-.105-.446.051-.615c.344-.371.533-.853.533-1.359 0-1.103-.897-2-2-2-1.055 0-1.931.823-1.996 1.875-.013.212-.159.393-.363.45s-.423-.02-.545-.194c-.937-1.334-2.468-2.131-4.096-2.131-2.757 0-5 2.243-5 5 0 .152.007.305.02.455.025.275-.178.518-.453.543s-.518-.178-.543-.453c-.016-.18-.024-.363-.024-.545 0-3.308 2.692-6 6-6 1.611 0 3.143.65 4.261 1.776.471-1.05 1.527-1.776 2.739-1.776 1.654 0 3 1.346 3 3 0 .346-.059.685-.172 1.004.057-.002.115-.004.172-.004 2.206 0 4 1.794 4 4s-1.794 4-4 4z"/><path d="m3.5 15.5c-.128 0-.256-.049-.354-.146l-2-2c-.195-.195-.195-.512 0-.707s.512-.195.707 0l1.646 1.646 4.646-4.646c.195-.195.512-.195.707 0s.195.512 0 .707l-5 5c-.098.098-.226.146-.354.146z"/></svg>