<svg height="20" viewBox="0 0 20 20" width="20" xmlns="http://www.w3.org/2000/svg"><path d="m16 12c-.058 0-.115.001-.172.004.113-.319.172-.658.172-1.004 0-1.308-.842-2.423-2.012-2.833-.171-2.327-2.118-4.167-4.488-4.167-2.34 0-4.268 1.795-4.48 4.081-2.844.469-5.02 2.945-5.02 5.919 0 3.308 2.692 6 6 6h10c2.206 0 4-1.794 4-4s-1.794-4-4-4zm-6.5-7c1.76 0 3.221 1.306 3.464 3.001-1.198.014-2.238.736-2.704 1.775-1.109-1.118-2.627-1.766-4.225-1.776.243-1.694 1.704-3 3.464-3zm6.5 14h-10c-2.757 0-5-2.243-5-5s2.243-5 5-5c1.628 0 3.159.797 4.096 2.131.122.174.341.252.545.194s.35-.238.363-.45c.065-1.051.941-1.875 1.996-1.875 1.103 0 2 .897 2 2 0 .506-.189.988-.533 1.359-.156.169-.177.422-.051.615s.368.273.584.197c.32-.113.656-.17 1-.17 1.654 0 3 1.346 3 3s-1.346 3-3 3z"/><path d="m9.5 3c-.276 0-.5-.224-.5-.5v-1c0-.276.224-.5.5-.5s.5.224.5.5v1c0 .276-.224.5-.5.5z"/><path d="m13.5 4c-.128 0-.256-.049-.354-.146-.195-.195-.195-.512 0-.707l1-1c.195-.195.512-.195.707 0s.195.512 0 .707l-1 1c-.098.098-.226.146-.354.146z"/><path d="m16.5 7h-1c-.276 0-.5-.224-.5-.5s.224-.5.5-.5h1c.276 0 .5.224.5.5s-.224.5-.5.5z"/><path d="m3.5 7h-1c-.276 0-.5-.224-.5-.5s.224-.5.5-.5h1c.276 0 .5.224.5.5s-.224.5-.5.5z"/><path d="m5.5 4c-.128 0-.256-.049-.354-.146l-1-1c-.195-.195-.195-.512 0-.707s.512-.195.707 0l1 1c.195.195.195.512 0 .707-.098.098-.226.146-.354.146z"/></svg>