<svg height="20" viewBox="0 0 20 20" width="20" xmlns="http://www.w3.org/2000/svg"><path d="m16.006 7.013c-.062 0-.123.001-.184.004.117-.323.178-.666.178-1.017 0-1.654-1.346-3-3-3-.948 0-1.851.456-2.415 1.22-.129.174-.237.36-.325.555-1.123-1.132-2.658-1.775-4.26-1.775-3.308 0-6 2.692-6 6v4c0 3.308 2.692 6 6 6h10.006c2.202 0 3.994-1.792 3.994-3.994v-4c0-2.202-1.792-3.994-3.994-3.994zm-10.006-3.013c1.428 0 2.791.613 3.74 1.681.125.141.244.291.354.447.122.174.341.251.545.193s.35-.238.363-.45c.023-.379.158-.745.388-1.057.382-.517.969-.814 1.611-.814 1.103 0 2 .897 2 2 0 .513-.197 1.003-.554 1.379-.16.168-.183.425-.056.619s.372.275.59.195c.326-.12.671-.18 1.026-.18 1.651 0 2.994 1.343 2.994 2.994s-1.343 2.994-2.994 2.994h-10.006c-2.757 0-5-2.243-5-5s2.243-5 5-5zm12.907 9.749c-.331 1.293-1.506 2.251-2.901 2.251h-10.006c-2.145 0-3.978-1.358-4.687-3.259 1.1 1.376 2.792 2.259 4.687 2.259h10.006c1.141 0 2.172-.481 2.901-1.251zm-2.901 4.251h-10.006c-2.145 0-3.978-1.358-4.687-3.259 1.1 1.376 2.792 2.259 4.687 2.259h10.006c1.141 0 2.172-.481 2.901-1.251-.331 1.293-1.506 2.251-2.901 2.251z"/></svg>