<svg height="20" viewBox="0 0 20 20" width="20" xmlns="http://www.w3.org/2000/svg"><path d="m16 16h-.5c-.276 0-.5-.224-.5-.5s.224-.5.5-.5h.5c1.654 0 3-1.346 3-3s-1.346-3-3-3c-.343 0-.679.057-1 .17-.217.077-.458-.005-.584-.197s-.105-.446.051-.614c.343-.371.533-.853.533-1.359 0-1.103-.897-2-2-2-1.055 0-1.931.823-1.996 1.875-.013.212-.159.393-.363.45s-.423-.02-.545-.194c-.937-1.334-2.468-2.131-4.096-2.131-2.757 0-5 2.243-5 5 0 2.605 1.954 4.746 4.545 4.98.275.025.478.268.453.543s-.268.478-.543.453c-1.486-.134-2.862-.815-3.875-1.917-1.019-1.109-1.581-2.551-1.581-4.058 0-3.308 2.692-6 6-6 1.611 0 3.143.65 4.261 1.776.471-1.05 1.527-1.776 2.739-1.776 1.654 0 3 1.346 3 3 0 .346-.059.685-.172 1.004.057-.002.115-.004.172-.004 2.206 0 4 1.794 4 4s-1.794 4-4 4z"/><path d="m13 12.086v-.586c0-1.378-1.122-2.5-2.5-2.5s-2.5 1.122-2.5 2.5v.586c-.582.206-1 .762-1 1.414v3c0 .827.673 1.5 1.5 1.5h4c.827 0 1.5-.673 1.5-1.5v-3c0-.652-.418-1.208-1-1.414zm-2.5-2.086c.827 0 1.5.673 1.5 1.5v.5h-3v-.5c0-.827.673-1.5 1.5-1.5zm2.5 6.5c0 .276-.224.5-.5.5h-4c-.276 0-.5-.224-.5-.5v-3c0-.276.224-.5.5-.5h4c.276 0 .5.224.5.5z"/></svg>