<svg height="20" viewBox="0 0 20 20" width="20" xmlns="http://www.w3.org/2000/svg"><path d="m16.499 12.965c-.245 0-.459-.18-.494-.429-.039-.273.151-.527.424-.566 1.466-.21 2.571-1.486 2.571-2.97 0-1.654-1.346-3-3-3-.343 0-.68.057-1 .17-.217.077-.458-.005-.584-.197s-.105-.446.051-.615c.344-.371.533-.854.533-1.359 0-1.103-.897-2-2-2-1.055 0-1.931.823-1.996 1.875-.013.212-.159.393-.363.451s-.423-.02-.545-.194c-.937-1.335-2.468-2.131-4.096-2.131-2.757 0-5 2.243-5 5 0 .152.007.305.02.455.025.275-.178.518-.453.543s-.518-.178-.543-.453c-.016-.18-.024-.363-.024-.545 0-3.308 2.692-6 6-6 1.611 0 3.143.65 4.261 1.776.471-1.05 1.527-1.776 2.739-1.776 1.654 0 3 1.346 3 3 0 .346-.059.685-.172 1.004.057-.002.115-.004.172-.004 2.206 0 4 1.794 4 4 0 .969-.351 1.903-.988 2.632-.631.721-1.498 1.193-2.442 1.328-.024.003-.048.005-.071.005z"/><path d="m14.5 12h-6.5c-1.103 0-2-.897-2-2s.897-2 2-2c.946 0 1.77.671 1.959 1.596.055.271.32.445.59.39s.445-.32.39-.59c-.284-1.388-1.52-2.396-2.939-2.396-1.654 0-3 1.346-3 3 0 .768.29 1.469.766 2h-3.766c-.551 0-1-.449-1-1s.449-1 1-1c.423 0 .802.268.943.667.092.26.378.397.638.305s.397-.378.305-.638c-.282-.797-1.04-1.333-1.886-1.333-1.103 0-2 .897-2 2s.897 2 2 2h12.5c.276 0 .5-.224.5-.5s-.224-.5-.5-.5z"/><path d="m4 18c-1.103 0-2-.897-2-2s.897-2 2-2h8.5c.276 0 .5.224.5.5s-.224.5-.5.5h-8.5c-.551 0-1 .449-1 1s.449 1 1 1c.423 0 .802-.268.943-.667.092-.26.378-.397.638-.305s.397.378.305.638c-.282.797-1.04 1.333-1.886 1.333z"/><path d="m15.5 17h-6c-.276 0-.5-.224-.5-.5s.224-.5.5-.5h6c.276 0 .5.224.5.5s-.224.5-.5.5z"/></svg>