<svg height="20" viewBox="0 0 20 20" width="20" xmlns="http://www.w3.org/2000/svg"><path d="m13.5 20h-8c-.232 0-.433-.159-.487-.385s.056-.458.263-.562c1.483-.742 2.159-1.939 2.466-2.87-.805.529-1.753.817-2.743.817-2.757 0-5-2.243-5-5 0-1.319.509-2.564 1.434-3.505.762-.775 1.734-1.272 2.79-1.435-.149-.504-.224-1.026-.224-1.56 0-3.033 2.467-5.5 5.5-5.5s5.5 2.467 5.5 5.5c0 .534-.075 1.056-.224 1.56 1.056.164 2.028.66 2.79 1.435.925.941 1.434 2.185 1.434 3.505 0 2.757-2.243 5-5 5-.991 0-1.939-.289-2.744-.818.029.09.062.182.099.276.454 1.163 1.251 2.037 2.368 2.595.207.104.316.336.263.562s-.255.385-.487.385zm-6.399-1h4.798c-.654-.604-1.16-1.353-1.491-2.22-.403-1.054-.408-1.916-.408-1.952 0-.212.133-.401.333-.471s.422-.008.556.157c.764.944 1.898 1.486 3.111 1.486 2.206 0 4-1.794 4-4 0-2.166-1.761-3.96-3.926-3.999-.167-.003-.322-.089-.412-.23s-.104-.317-.037-.47c.249-.569.375-1.175.375-1.801 0-2.481-2.019-4.5-4.5-4.5s-4.5 2.019-4.5 4.5c0 .626.126 1.232.375 1.801.067.153.053.33-.037.47s-.245.227-.412.23c-2.165.039-3.926 1.833-3.926 3.999 0 2.206 1.794 4 4 4 1.213 0 2.347-.542 3.111-1.486.133-.165.356-.228.556-.157s.333.26.333.471c0 .036-.005.897-.408 1.952-.331.866-.837 1.615-1.491 2.22z"/></svg>