<svg height="20" viewBox="0 0 20 20" width="20" xmlns="http://www.w3.org/2000/svg"><path d="m15.091 2.705c-.644-.881-1.445-1.559-2.38-2.014-.942-.459-2.023-.691-3.211-.691s-2.268.232-3.211.691c-.935.455-1.736 1.133-2.38 2.014-1.267 1.733-1.909 4.188-1.909 7.295s.642 5.562 1.909 7.295c.644.881 1.445 1.559 2.38 2.014.942.459 2.023.691 3.211.691s2.268-.232 3.211-.691c.935-.455 1.736-1.133 2.38-2.014 1.267-1.733 1.909-4.188 1.909-7.295s-.642-5.562-1.909-7.295zm-10.375 14c-1.123-1.536-1.716-3.855-1.716-6.705s.593-5.169 1.716-6.705c1.02-1.396 2.459-2.161 4.28-2.279-.661.928-.996 2.434-.996 4.484 0 2.096.526 3.413 1.036 4.686.496 1.24.964 2.411.964 4.314 0 3.971-1.302 4.394-1.495 4.435-1.59-.214-2.862-.962-3.789-2.23zm9.568 0c-1.02 1.396-2.459 2.161-4.28 2.279.661-.928.996-2.434.996-4.484 0-2.096-.527-3.413-1.036-4.686-.496-1.24-.964-2.411-.964-4.314 0-3.97 1.301-4.394 1.495-4.435 1.59.214 2.862.962 3.789 2.23 1.123 1.536 1.716 3.855 1.716 6.705s-.593 5.169-1.716 6.705z"/></svg>