<svg height="20" viewBox="0 0 20 20" width="20" xmlns="http://www.w3.org/2000/svg"><path d="m10 15c-1.654 0-3-1.346-3-3s1.346-3 3-3 3 1.346 3 3-1.346 3-3 3zm0-5c-1.103 0-2 .897-2 2s.897 2 2 2 2-.897 2-2-.897-2-2-2z"/><path d="m15.904 2.056-.177-.707c-.189-.756-.948-1.349-1.728-1.349h-8c-.78 0-1.538.593-1.728 1.349l-.177.707c-.631.177-1.096.757-1.096 1.444v1c0 .663.432 1.226 1.029 1.424l.901 12.614c.058.806.762 1.462 1.57 1.462h7c.808 0 1.512-.656 1.57-1.462l.901-12.614c.597-.198 1.029-.761 1.029-1.424v-1c0-.687-.464-1.267-1.096-1.444zm-9.904-1.056h8c.319 0 .68.282.757.591l.102.409h-9.719l.102-.409c.077-.309.438-.591.757-.591zm8.892 6h-9.783l-.071-1h9.926l-.071 1zm-.643 9h-8.497l-.571-8h9.64l-.571 8zm-.749 3h-7c-.29 0-.552-.244-.573-.533l-.105-1.467h8.355l-.105 1.467c-.021.289-.283.533-.573.533zm2.5-14.5c0 .276-.224.5-.5.5h-11c-.276 0-.5-.224-.5-.5v-1c0-.275.224-.499.499-.5h.002s.002 0 .003 0h10.997c.276 0 .5.224.5.5v1z"/></svg>