<svg height="20" viewBox="0 0 20 20" width="20" xmlns="http://www.w3.org/2000/svg"><path d="m13.324 19.402c-.074 0-.148-.016-.216-.049-.123-.059-.216-.165-.259-.294-.407-1.231-1.552-2.058-2.849-2.058s-2.443.827-2.849 2.058c-.043.129-.136.235-.259.294s-.264.065-.391.018c-1.042-.389-2.006-.947-2.865-1.656-.105-.087-.17-.212-.18-.347s.035-.269.125-.371c.862-.968 1.006-2.372.357-3.496-.534-.925-1.531-1.5-2.601-1.5-.203 0-.407.021-.605.062-.133.028-.272 0-.384-.077s-.188-.196-.211-.33c-.091-.546-.137-1.102-.137-1.654s.046-1.108.137-1.654c.022-.134.098-.253.211-.33s.251-.105.384-.077c.198.041.402.062.605.062 1.07 0 2.067-.575 2.601-1.5.648-1.123.505-2.528-.357-3.496-.09-.101-.136-.235-.125-.371s.075-.261.18-.347c.859-.71 1.824-1.267 2.865-1.656.127-.048.269-.041.391.018s.216.165.259.294c.407 1.231 1.552 2.058 2.849 2.058s2.443-.827 2.849-2.058c.043-.129.136-.235.259-.294s.264-.065.391-.018c1.042.389 2.006.947 2.865 1.656.105.087.17.212.18.347s-.035.269-.125.371c-.862.968-1.006 2.372-.357 3.496.534.926 1.531 1.5 2.601 1.5.203 0 .407-.021.605-.062.133-.028.272 0 .384.077s.188.196.211.33c.091.546.137 1.102.137 1.654s-.046 1.108-.137 1.654c-.022.134-.098.253-.211.33s-.251.105-.384.077c-.198-.041-.402-.062-.605-.062-1.07 0-2.067.575-2.601 1.5-.648 1.123-.505 2.528.357 3.496.09.101.136.235.125.371s-.075.261-.18.347c-.859.71-1.823 1.267-2.865 1.656-.057.021-.116.032-.175.032zm-8.67-2.161c.544.402 1.128.74 1.747 1.01.662-1.365 2.049-2.251 3.599-2.251s2.937.886 3.599 2.251c.619-.27 1.203-.608 1.747-1.01-.851-1.256-.924-2.899-.15-4.241.712-1.234 2.041-2 3.467-2 .093 0 .187.003.28.01.038-.336.057-.674.057-1.009s-.019-.674-.057-1.009c-.093.007-.187.01-.28.01-1.426 0-2.755-.766-3.467-2-.775-1.342-.702-2.986.15-4.241-.544-.402-1.128-.74-1.747-1.01-.662 1.365-2.049 2.251-3.599 2.251s-2.937-.886-3.599-2.251c-.619.27-1.203.608-1.747 1.01.851 1.256.924 2.899.15 4.241-.712 1.234-2.041 2-3.467 2-.093 0-.187-.003-.28-.01-.038.336-.057.674-.057 1.009s.019.674.057 1.009c.093-.007.187-.01.28-.01 1.426 0 2.755.767 3.467 2 .775 1.342.702 2.986-.15 4.241z"/><path d="m10 13c-1.654 0-3-1.346-3-3s1.346-3 3-3 3 1.346 3 3-1.346 3-3 3zm0-5c-1.103 0-2 .897-2 2s.897 2 2 2 2-.897 2-2-.897-2-2-2z"/></svg>