<svg height="20" viewBox="0 0 20 20" width="20" xmlns="http://www.w3.org/2000/svg"><path d="m12.5 8h-5.5v-1h5.5c.276 0 .5-.224.5-.5s-.224-.5-.5-.5h-2.5v-.5c0-.276-.224-.5-.5-.5s-.5.224-.5.5v.5h-2.5c-.276 0-.5.224-.5.5v2c0 .276.224.5.5.5h5.5v1h-5.5c-.276 0-.5.224-.5.5s.224.5.5.5h2.5v.5c0 .276.224.5.5.5s.5-.224.5-.5v-.5h2.5c.276 0 .5-.224.5-.5v-2c0-.276-.224-.5-.5-.5z"/><path d="m16.107 4.527c-1.773-.985-4.119-1.527-6.607-1.527s-4.834.542-6.607 1.527c-1.866 1.037-2.893 2.447-2.893 3.973v3c0 1.525 1.027 2.936 2.893 3.973 1.773.985 4.119 1.527 6.607 1.527s4.834-.542 6.607-1.527c1.866-1.037 2.893-2.447 2.893-3.973v-3c0-1.525-1.027-2.936-2.893-3.973zm-12.728.875c1.627-.904 3.801-1.402 6.121-1.402s4.494.498 6.121 1.402c1.534.852 2.379 1.953 2.379 3.098s-.845 2.246-2.379 3.098c-1.627.904-3.801 1.402-6.121 1.402s-4.494-.498-6.121-1.402c-1.534-.852-2.379-1.953-2.379-3.098s.845-2.246 2.379-3.098zm14.621 6.098c0 1.146-.845 2.246-2.379 3.098-1.627.904-3.801 1.402-6.121 1.402s-4.494-.498-6.121-1.402c-1.534-.852-2.379-1.953-2.379-3.098v-.513c.474.548 1.109 1.05 1.893 1.486 1.773.985 4.119 1.527 6.607 1.527s4.834-.542 6.607-1.527c.784-.436 1.419-.937 1.893-1.486z"/></svg>