<svg height="20" viewBox="0 0 20 20" width="20" xmlns="http://www.w3.org/2000/svg"><path d="m13.5 9c-.827 0-1.5-.673-1.5-1.5s.673-1.5 1.5-1.5 1.5.673 1.5 1.5-.673 1.5-1.5 1.5zm0-2c-.276 0-.5.224-.5.5s.224.5.5.5.5-.224.5-.5-.224-.5-.5-.5z"/><path d="m7 18.585c-.401 0-.778-.156-1.061-.438l-5.086-5.086c-.283-.283-.438-.659-.438-1.061s.156-.778.438-1.061l9.586-9.586c.283-.283.659-.438 1.061-.438s.778.156 1.061.438l5.086 5.086c.585.585.585 1.536 0 2.121l-9.586 9.586c-.283.283-.659.438-1.061.438zm4.5-16.67c-.134 0-.26.052-.354.145l-9.586 9.586c-.094.094-.145.219-.145.354s.052.26.145.353l5.086 5.086c.094.094.219.145.354.145s.26-.052.354-.145l9.586-9.586c.195-.195.195-.512 0-.707l-5.086-5.086c-.094-.094-.219-.145-.354-.145z"/><path d="m11.223 19.981c-.294 0-.581-.089-.83-.26l-1.176-.808c-.228-.156-.285-.468-.129-.695s.468-.285.695-.129l1.176.808c.107.073.234.1.358.075s.231-.099.301-.208l5.461-8.533c.149-.233.458-.3.691-.152s.3.458.152.691l-5.461 8.533c-.217.339-.553.57-.945.649-.098.02-.196.029-.293.029z"/><path d="m15.445 19.282c-.119 0-.238-.019-.353-.057l-.75-.25c-.262-.087-.404-.37-.316-.632s.37-.404.632-.316l.75.25c.014.005.055.018.126-.02.085-.046.194-.162.246-.352l1.237-4.535c.073-.266.348-.423.614-.351s.423.348.351.614l-1.237 4.535c-.117.428-.386.782-.739.971-.179.096-.37.144-.561.144z"/></svg>