<svg height="20" viewBox="0 0 20 20" width="20" xmlns="http://www.w3.org/2000/svg"><path d="m1.5 11c-.827 0-1.5-.673-1.5-1.5s.673-1.5 1.5-1.5 1.5.673 1.5 1.5-.673 1.5-1.5 1.5zm0-2c-.276 0-.5.224-.5.5s.224.5.5.5.5-.224.5-.5-.224-.5-.5-.5z"/><path d="m18.5 11c-.827 0-1.5-.673-1.5-1.5s.673-1.5 1.5-1.5 1.5.673 1.5 1.5-.673 1.5-1.5 1.5zm0-2c-.276 0-.5.224-.5.5s.224.5.5.5.5-.224.5-.5-.224-.5-.5-.5z"/><path d="m18.931 4.247c-.14-.238-.446-.317-.684-.177l-5.957 3.504c.308-.997.856-1.911 1.615-2.67.195-.195.195-.512 0-.707s-.512-.195-.707 0c-1.123 1.123-1.846 2.539-2.097 4.076l-2.1 1.235c0-.003 0-.005 0-.008 0-2.003-.78-3.887-2.197-5.303-.195-.195-.512-.195-.707 0s-.195.512 0 .707c1.228 1.228 1.904 2.86 1.904 4.596 0 .206-.01.411-.029.613l-2.472 1.454c.327-.631.501-1.336.501-2.068 0-1.202-.468-2.332-1.318-3.182-.195-.195-.512-.195-.707 0s-.195.512 0 .707c.661.661 1.025 1.54 1.025 2.475s-.364 1.814-1.025 2.475c-.149.149-.184.369-.105.551l-2.623 1.543c-.238.14-.317.446-.177.684.093.158.26.247.431.247.086 0 .173-.022.253-.069l5.957-3.504c-.308.997-.856 1.911-1.615 2.67-.195.195-.195.512 0 .707.098.098.226.146.354.146s.256-.049.354-.146c1.123-1.123 1.845-2.539 2.097-4.076l2.1-1.235v.008c0 2.003.78 3.887 2.197 5.303.098.098.226.146.354.146s.256-.049.354-.146c.195-.195.195-.512 0-.707-1.228-1.228-1.904-2.86-1.904-4.596 0-.206.01-.411.029-.613l2.472-1.454c-.327.631-.501 1.336-.501 2.068 0 1.202.468 2.332 1.318 3.182.098.098.226.146.354.146s.256-.049.354-.146c.195-.195.195-.512 0-.707-.661-.661-1.025-1.54-1.025-2.475s.364-1.814 1.025-2.475c.149-.149.184-.369.105-.551l2.623-1.543c.238-.14.317-.446.177-.684z"/></svg>