<svg height="20" viewBox="0 0 20 20" width="20" xmlns="http://www.w3.org/2000/svg"><path d="m10.5 13h-2c-.276 0-.5-.224-.5-.5s.224-.5.5-.5h2c.276 0 .5.224.5.5s-.224.5-.5.5z"/><path d="m15.5 11c-.276 0-.5.224-.5.5v.5h-1c-.276 0-.5.224-.5.5s.224.5.5.5h1v.5c0 .276.224.5.5.5s.5-.224.5-.5v-2c0-.276-.224-.5-.5-.5z"/><path d="m14.971 18.332-4.176-11.693c.736-.447 1.205-1.255 1.205-2.139 0-1.207-.86-2.217-2-2.45v-1.05h.5c.276 0 .5-.224.5-.5s-.224-.5-.5-.5h-2c-.276 0-.5.224-.5.5s.224.5.5.5h.5v1.05c-1.14.232-2 1.242-2 2.45 0 .884.469 1.692 1.205 2.139l-4.176 11.693c-.019.054-.029.111-.029.168v1c0 .276.224.5.5.5s.5-.224.5-.5v-.913l4.5-12.6 4.5 12.6v.913c0 .276.224.5.5.5s.5-.224.5-.5v-1c0-.057-.01-.114-.029-.168zm-5.471-14.332c-.211 0-.4.133-.471.332l-.476 1.332c-.343-.28-.553-.705-.553-1.164 0-.827.673-1.5 1.5-1.5s1.5.673 1.5 1.5c0 .459-.211.884-.554 1.164l-.476-1.332c-.071-.199-.26-.332-.471-.332z"/></svg>