<svg height="20" viewBox="0 0 20 20" width="20" xmlns="http://www.w3.org/2000/svg"><path d="m18.5 2h-14.5c-.133 0-.26.053-.354.146l-3.5 3.5c-.094.094-.146.221-.146.354v10.5c0 .827.673 1.5 1.5 1.5h17c.827 0 1.5-.673 1.5-1.5v-13c0-.827-.673-1.5-1.5-1.5zm-14.5 1.207v2.293c0 .276-.224.5-.5.5h-2.293zm15 13.293c0 .276-.224.5-.5.5h-10c-.276 0-.5-.224-.5-.5v-2c0-.276-.224-.5-.5-.5s-.5.224-.5.5v2c0 .175.031.343.086.5h-5.586c-.276 0-.5-.224-.5-.5v-9.5h2.5c.827 0 1.5-.673 1.5-1.5v-2.5h4.793l-2.646 2.646c-.094.094-.146.221-.146.354v4.5c0 .276.224.5.5.5s.5-.224.5-.5v-3.5h2.5c.827 0 1.5-.673 1.5-1.5v-2.5h6.5c.276 0 .5.224.5.5v13zm-8-13.293v2.293c0 .276-.224.5-.5.5h-2.293z"/><path d="m15.354 12.146-2-2c-.195-.195-.512-.195-.707 0s-.195.512 0 .707l1.146 1.146h-9.586l1.146-1.146c.195-.195.195-.512 0-.707s-.512-.195-.707 0l-2 2c-.195.195-.195.512 0 .707l2 2c.098.098.226.146.354.146s.256-.049.354-.146c.195-.195.195-.512 0-.707l-1.146-1.146h9.586l-1.146 1.146c-.195.195-.195.512 0 .707.098.098.226.146.354.146s.256-.049.354-.146l2-2c.195-.195.195-.512 0-.707z"/></svg>