<svg height="20" viewBox="0 0 20 20" width="20" xmlns="http://www.w3.org/2000/svg"><path d="m.5 18c-.137 0-.271-.057-.367-.16-.124-.134-.165-.325-.107-.498.01-.029.974-2.978.974-6.842s-.965-6.813-.974-6.842c-.057-.173-.016-.364.108-.498s.311-.189.488-.145c.039.01 4.004.985 8.879.985 4.882 0 8.839-.975 8.879-.985.177-.044.364.011.488.145s.165.325.107.498c-.01.029-.974 2.978-.974 6.842s.965 6.813.974 6.842c.057.173.016.364-.108.498s-.311.19-.488.145c-.046-.012-4.008-.985-8.879-.985-4.882 0-8.839.975-8.879.985s-.081.015-.121.015zm9-2c3.717 0 6.853.537 8.289.83-.303-1.175-.789-3.497-.789-6.33s.485-5.155.789-6.33c-1.435.293-4.572.83-8.289.83s-6.853-.537-8.289-.83c.303 1.175.789 3.497.789 6.33s-.485 5.155-.789 6.33c1.435-.293 4.572-.83 8.289-.83z"/></svg>