<svg height="20" viewBox="0 0 20 20" width="20" xmlns="http://www.w3.org/2000/svg"><path d="m9.5 20c-2.538 0-4.923-.988-6.718-2.782s-2.782-4.18-2.782-6.717c0-2.538.988-4.923 2.782-6.718s4.18-2.783 6.718-2.783 4.923.988 6.718 2.783 2.782 4.18 2.782 6.718-.988 4.923-2.782 6.717-4.18 2.782-6.718 2.782zm0-18c-4.687 0-8.5 3.813-8.5 8.5s3.813 8.5 8.5 8.5 8.5-3.813 8.5-8.5-3.813-8.5-8.5-8.5z"/><path d="m6.5 8c-.827 0-1.5-.673-1.5-1.5s.673-1.5 1.5-1.5 1.5.673 1.5 1.5-.673 1.5-1.5 1.5zm0-2c-.276 0-.5.224-.5.5s.224.5.5.5.5-.224.5-.5-.224-.5-.5-.5z"/><path d="m12.5 8c-.827 0-1.5-.673-1.5-1.5s.673-1.5 1.5-1.5 1.5.673 1.5 1.5-.673 1.5-1.5 1.5zm0-2c-.276 0-.5.224-.5.5s.224.5.5.5.5-.224.5-.5-.224-.5-.5-.5z"/><path d="m5.5 15.001c-.276 0-.5-.225-.5-.501 0-.063.008-.635.303-1.224.412-.823 1.192-1.276 2.197-1.276 1.207 0 1.843.636 2.354 1.146.477.477.854.854 1.646.854.622 0 1.044-.228 1.29-.698.203-.389.21-.8.21-.805 0-.276.224-.499.5-.499s.5.225.5.501c0 .063-.008.635-.303 1.224-.412.823-1.192 1.276-2.197 1.276-1.207 0-1.843-.636-2.354-1.146-.477-.477-.854-.854-1.646-.854-.622 0-1.044.228-1.29.698-.203.389-.21.8-.21.805 0 .276-.224.499-.5.499z"/></svg>