<svg height="20" viewBox="0 0 20 20" width="20" xmlns="http://www.w3.org/2000/svg"><path d="m20 5v-1.5c0-.276-.224-.5-.5-.5h-3.5-5-5-5.5c-.276 0-.5.224-.5.5v6c0 .276.224.5.5.5h1.5v6h-.5c-.276 0-.5.224-.5.5s.224.5.5.5h4c.276 0 .5-.224.5-.5s-.224-.5-.5-.5h-.5v-3h10v3h-.5c-.276 0-.5.224-.5.5s.224.5.5.5h4c.276 0 .5-.224.5-.5s-.224-.5-.5-.5h-.5v-6h1.5c.276 0 .5-.224.5-.5zm-1-.207-4.207 4.207h-3.586l5-5h2.793zm-12.793 4.207 5-5h3.586l-5 5zm-5 0 5-5h3.586l-5 5zm3.586-5-3.793 3.793v-3.793zm-1.793 12v-6h1v6zm2-4v-2h10v2zm12 4h-1v-6h1zm-.793-7 2.793-2.793v2.793z"/></svg>