<svg height="20" viewBox="0 0 20 20" width="20" xmlns="http://www.w3.org/2000/svg"><path d="m18.5 17h-.653l-5.527-14.739c-.265-.707-1.064-1.261-1.819-1.261h-1c-.755 0-1.554.554-1.819 1.261l-5.527 14.739h-.653c-.827 0-1.5.673-1.5 1.5s.673 1.5 1.5 1.5h17c.827 0 1.5-.673 1.5-1.5s-.673-1.5-1.5-1.5zm-4.722-8h-7.557l1.125-3h5.307zm.375 1 1.125 3h-10.557l1.125-3zm-5.536-7.388c.12-.32.541-.612.883-.612h1c.342 0 .763.292.883.612l.896 2.388h-4.557l.896-2.388zm-4.27 11.388h11.307l1.125 3h-13.557zm14.153 5h-17c-.276 0-.5-.224-.5-.5s.224-.5.5-.5h17c.276 0 .5.224.5.5s-.224.5-.5.5z"/></svg>