<svg height="20" viewBox="0 0 20 20" width="20" xmlns="http://www.w3.org/2000/svg"><path d="m9.5 20c-2.538 0-4.923-.988-6.718-2.782s-2.782-4.18-2.782-6.717c0-2.538.988-4.923 2.782-6.718s4.18-2.783 6.718-2.783 4.923.988 6.718 2.783 2.782 4.18 2.782 6.718-.988 4.923-2.782 6.717-4.18 2.782-6.718 2.782zm0-18c-4.687 0-8.5 3.813-8.5 8.5s3.813 8.5 8.5 8.5 8.5-3.813 8.5-8.5-3.813-8.5-8.5-8.5z"/><path d="m9.5 17c-.276 0-.5-.224-.5-.5v-12c0-.276.224-.5.5-.5 3.584 0 6.5 2.916 6.5 6.5s-2.916 6.5-6.5 6.5zm.5-11.977v10.955c2.799-.253 5-2.613 5-5.477s-2.201-5.224-5-5.477z"/></svg>