<svg height="20" viewBox="0 0 20 20" width="20" xmlns="http://www.w3.org/2000/svg"><path d="m17.5 18h-16c-.827 0-1.5-.673-1.5-1.5v-12c0-.827.673-1.5 1.5-1.5h16c.827 0 1.5.673 1.5 1.5v12c0 .827-.673 1.5-1.5 1.5zm-16-14c-.276 0-.5.224-.5.5v12c0 .276.224.5.5.5h16c.276 0 .5-.224.5-.5v-12c0-.276-.224-.5-.5-.5z"/><path d="m5.5 12h-3c-.276 0-.5.224-.5.5s.224.5.5.5h1.793l-2.146 2.146c-.195.195-.195.512 0 .707.098.098.226.146.354.146s.256-.049.354-.146l2.146-2.146v1.793c0 .276.224.5.5.5s.5-.224.5-.5v-3c0-.276-.224-.5-.5-.5z"/><path d="m16.5 8h-1.793l2.146-2.146c.195-.195.195-.512 0-.707s-.512-.195-.707 0l-2.146 2.146v-1.793c0-.276-.224-.5-.5-.5s-.5.224-.5.5v3c0 .276.224.5.5.5h3c.276 0 .5-.224.5-.5s-.224-.5-.5-.5z"/></svg>