<svg height="20" viewBox="0 0 20 20" width="20" xmlns="http://www.w3.org/2000/svg"><path d="m19.853.146c-.195-.195-.512-.195-.707 0l-6.146 6.146v-2.793c0-.276-.224-.5-.5-.5s-.5.224-.5.5v4c0 .276.224.5.5.5h4c.276 0 .5-.224.5-.5s-.224-.5-.5-.5h-2.793l6.146-6.146c.195-.195.195-.512 0-.707z"/><path d="m7.5 12h-4c-.276 0-.5.224-.5.5s.224.5.5.5h2.793l-6.146 6.147c-.195.195-.195.512 0 .707.098.098.226.146.354.146s.256-.049.354-.147l6.146-6.146v2.793c0 .276.224.5.5.5s.5-.224.5-.5v-4c0-.276-.224-.5-.5-.5z"/></svg>