<svg height="20" viewBox="0 0 20 20" width="20" xmlns="http://www.w3.org/2000/svg"><path d="m16.5 1h-13c-.827 0-1.5.673-1.5 1.5v1.5h-.5c-.276 0-.5.224-.5.5s.224.5.5.5h.5v1h-.5c-.276 0-.5.224-.5.5s.224.5.5.5h.5v1h-.5c-.276 0-.5.224-.5.5s.224.5.5.5h.5v1h-.5c-.276 0-.5.224-.5.5s.224.5.5.5h.5v1h-.5c-.276 0-.5.224-.5.5s.224.5.5.5h.5v1h-.5c-.276 0-.5.224-.5.5s.224.5.5.5h.5v1h-.5c-.276 0-.5.224-.5.5s.224.5.5.5h.5v1.5c0 .827.673 1.5 1.5 1.5h13c.827 0 1.5-.673 1.5-1.5v-16c0-.827-.673-1.5-1.5-1.5zm.5 17.5c0 .276-.224.5-.5.5h-13c-.276 0-.5-.224-.5-.5v-1.5h1.5c.276 0 .5-.224.5-.5s-.224-.5-.5-.5h-1.5v-1h1.5c.276 0 .5-.224.5-.5s-.224-.5-.5-.5h-1.5v-1h1.5c.276 0 .5-.224.5-.5s-.224-.5-.5-.5h-1.5v-1h1.5c.276 0 .5-.224.5-.5s-.224-.5-.5-.5h-1.5v-1h1.5c.276 0 .5-.224.5-.5s-.224-.5-.5-.5h-1.5v-1h1.5c.276 0 .5-.224.5-.5s-.224-.5-.5-.5h-1.5v-1h1.5c.276 0 .5-.224.5-.5s-.224-.5-.5-.5h-1.5v-1.5c0-.276.224-.5.5-.5h13c.276 0 .5.224.5.5z"/><path d="m11.114 15.129s0 0-.001 0c-.992 0-3.346-.015-3.769-.154-.432-.142-.65-.622-.554-1.223.103-.647.533-1.324 1.149-1.811.542-.428 1.513-.939 3.06-.94h.005c1.214 0 2.264.318 3.037.921.623.486 1.046 1.139 1.16 1.793.106.609-.103 1.102-.532 1.256-.12.043-.332.092-1.342.127-.596.021-1.382.032-2.213.032zm-3.347-1.089c.423.046 1.677.089 3.347.089h.001c1.783 0 2.771-.047 3.116-.086.003-.141-.049-.434-.28-.779-.317-.472-1.121-1.264-2.945-1.264h-.004c-1.818.001-2.626.791-2.946 1.262-.232.342-.288.634-.287.777z"/><path d="m11 10c-1.103 0-2-.897-2-2s.897-2 2-2 2 .897 2 2-.897 2-2 2zm0-3c-.551 0-1 .449-1 1s.449 1 1 1 1-.449 1-1-.449-1-1-1z"/></svg>