<svg height="20" viewBox="0 0 20 20" width="20" xmlns="http://www.w3.org/2000/svg"><path d="m9.5 18c-3.514 0-7.923-.971-8.108-1.012-.179-.04-.322-.174-.372-.351-.042-.146-1.019-3.597-1.019-6.137s.978-5.992 1.019-6.137c.05-.176.193-.311.372-.351.186-.041 4.594-1.012 8.108-1.012s7.923.971 8.108 1.012c.179.04.322.174.372.351.042.146 1.019 3.597 1.019 6.137s-.978 5.992-1.019 6.137c-.05.176-.193.311-.372.351-.186.041-4.594 1.012-8.108 1.012zm-7.598-1.926c1.049.217 4.701.926 7.598.926 2.899 0 6.549-.709 7.598-.926.233-.879.902-3.581.902-5.574s-.67-4.696-.902-5.574c-1.049-.217-4.701-.926-7.598-.926-2.899 0-6.549.709-7.598.926-.233.879-.902 3.581-.902 5.574s.67 4.696.902 5.574z"/></svg>