<svg height="20" viewBox="0 0 20 20" width="20" xmlns="http://www.w3.org/2000/svg"><path d="m5.5 16c-.618 0-1.18-.281-1.724-.553-.46-.23-.894-.447-1.276-.447-.645 0-1.408.617-1.647.854-.196.194-.512.194-.707-.002s-.195-.511 0-.706c.117-.117 1.18-1.146 2.354-1.146.618 0 1.18.281 1.724.553.46.23.894.447 1.276.447.276 0 .5.224.5.5s-.224.5-.5.5z"/><path d="m18.5 16c-.128 0-.255-.049-.353-.146-.24-.238-1.002-.854-1.647-.854-.382 0-.816.217-1.276.447-.543.272-1.106.553-1.724.553-.276 0-.5-.224-.5-.5s.224-.5.5-.5c.382 0 .816-.217 1.276-.447.543-.272 1.106-.553 1.724-.553 1.173 0 2.236 1.029 2.354 1.146.195.195.195.512 0 .707-.098.098-.226.146-.354.146z"/><path d="m14.5 20c-.651 0-1.117-.31-1.527-.584-.335-.223-.624-.416-.973-.416s-.638.193-.973.416c-.411.274-.876.584-1.527.584s-1.119-.311-1.532-.586c-.335-.223-.624-.415-.968-.415s-.633.192-.968.415c-.412.274-.88.586-1.532.586-1.173 0-2.236-1.029-2.354-1.146-.195-.195-.195-.512 0-.707s.511-.195.706-.001c.239.238 1.002.854 1.647.854.35 0 .641-.194.978-.418.41-.273.876-.583 1.522-.583s1.112.31 1.522.583c.337.224.628.418.978.418.349 0 .638-.193.973-.416.411-.274.876-.584 1.527-.584s1.117.31 1.527.584c.335.223.624.416.973.416.645 0 1.408-.617 1.647-.854.196-.194.512-.194.707.002s.195.511 0 .706c-.117.117-1.18 1.146-2.354 1.146z"/><path d="m13.5 8c.276 0 .5-.224.5-.5s-.224-.5-.5-.5h-2.5v-2h2.5c.276 0 .5-.224.5-.5s-.224-.5-.5-.5h-2.5v-2.5c0-.827-.673-1.5-1.5-1.5s-1.5.673-1.5 1.5v11c-.623.469-1 1.211-1 2 0 1.378 1.122 2.5 2.5 2.5s2.5-1.122 2.5-2.5c0-.789-.377-1.531-1-2v-1.5h2.5c.276 0 .5-.224.5-.5s-.224-.5-.5-.5h-2.5v-2zm-4 8c-.827 0-1.5-.673-1.5-1.5 0-.532.285-1.028.745-1.296.006-.003.012-.007.018-.011.147-.091.237-.252.237-.425v-11.268c0-.276.224-.5.5-.5s.5.224.5.5v11.264c-.001.087.021.175.067.253.038.066.089.121.149.162.011.008.022.015.034.021.463.268.75.766.75 1.3 0 .827-.673 1.5-1.5 1.5z"/></svg>