<svg height="20" viewBox="0 0 20 20" width="20" xmlns="http://www.w3.org/2000/svg"><path d="m9.5 20c-2.538 0-4.923-.988-6.718-2.782s-2.782-4.18-2.782-6.717c0-2.538.988-4.923 2.782-6.718s4.18-2.783 6.718-2.783 4.923.988 6.718 2.783 2.782 4.18 2.782 6.718-.988 4.923-2.782 6.717-4.18 2.782-6.718 2.782zm0-18c-4.687 0-8.5 3.813-8.5 8.5s3.813 8.5 8.5 8.5 8.5-3.813 8.5-8.5-3.813-8.5-8.5-8.5z"/><path d="m15.4 5.199c-.094-.126-.243-.2-.4-.2h-4c-.157 0-.305.074-.4.2-.185.247-.329.516-.429.8h-1.341c-.101-.284-.244-.554-.43-.801-.094-.126-.243-.2-.4-.2h-4c-.157 0-.305.074-.4.2-.393.523-.6 1.145-.6 1.801s.208 1.278.6 1.801c.094.126.243.2.4.2h4c.157 0 .305-.074.4-.2.393-.523.6-1.145.6-1.8h1c0 .655.208 1.278.6 1.801.094.126.243.2.4.2h4c.157 0 .305-.074.4-.2.393-.523.6-1.145.6-1.8s-.208-1.278-.6-1.801zm-7.667 2.801h-3.465c-.176-.303-.267-.644-.267-1s.092-.698.267-1h3.465c.108.186.184.386.227.596.001.004.002.008.003.012.025.128.038.259.038.392 0 .356-.092.697-.267 1zm7 0h-3.465c-.176-.303-.267-.644-.267-1 0-.133.013-.264.038-.392.001-.004.002-.008.003-.012.043-.209.119-.41.227-.596h3.465c.176.303.267.644.267 1s-.092.697-.267 1z"/><path d="m9.5 17c-1.547 0-3.045-.553-4.22-1.556-1.161-.992-1.939-2.363-2.191-3.862-.046-.272.138-.53.41-.576s.53.138.576.41c.445 2.655 2.727 4.583 5.424 4.583.967 0 1.918-.254 2.75-.736.239-.138.545-.057.683.182s.057.545-.182.683c-.984.569-2.108.87-3.25.87z"/></svg>