<svg height="20" viewBox="0 0 20 20" width="20" xmlns="http://www.w3.org/2000/svg"><path d="m16.5 4h-2.5v-2.5c0-.827-.673-1.5-1.5-1.5h-7.5c-.133 0-.26.053-.354.146l-3.5 3.5c-.094.094-.146.221-.146.354v10.5c0 .827.673 1.5 1.5 1.5h2.5v2.5c0 .827.673 1.5 1.5 1.5h10c.827 0 1.5-.673 1.5-1.5v-13c0-.827-.673-1.5-1.5-1.5zm-11.5-2.793v2.293c0 .276-.224.5-.5.5h-2.293zm-2.5 13.793c-.276 0-.5-.224-.5-.5v-9.5h2.5c.827 0 1.5-.673 1.5-1.5v-2.5h6.5c.276 0 .5.224.5.5v2.5h-4c-.133 0-.26.053-.354.146l-3.5 3.5c-.094.094-.146.221-.146.354v7zm6.5-9.793v2.293c0 .276-.224.5-.5.5h-2.293zm8 13.293c0 .276-.224.5-.5.5h-10c-.276 0-.5-.224-.5-.5v-9.5h2.5c.827 0 1.5-.673 1.5-1.5v-2.5h6.5c.276 0 .5.224.5.5z"/></svg>