<svg height="20" viewBox="0 0 20 20" width="20" xmlns="http://www.w3.org/2000/svg"><path d="m18.756 17.15c-.193-.197-.51-.2-.707-.007-1.222 1.198-2.838 1.857-4.549 1.857-3.426 0-6.241-2.664-6.483-6.03 2.239-.257 3.983-2.164 3.983-4.47v-3.5h.5c.276 0 .5-.224.5-.5s-.224-.5-.5-.5h-2.5v-3.5c0-.276-.224-.5-.5-.5s-.5.224-.5.5v3.5h-3v-3.5c0-.276-.224-.5-.5-.5s-.5.224-.5.5v3.5h-2.5c-.276 0-.5.224-.5.5s.224.5.5.5h.5v3.5c0 2.318 1.761 4.231 4.015 4.474.113 1.825.877 3.525 2.182 4.829 1.417 1.417 3.3 2.197 5.303 2.197 1.975 0 3.839-.761 5.249-2.143.197-.193.2-.51.007-.707zm-15.756-8.65v-3.5h7v3.5c0 1.93-1.57 3.5-3.5 3.5s-3.5-1.57-3.5-3.5z"/></svg>