<svg height="20" viewBox="0 0 20 20" width="20" xmlns="http://www.w3.org/2000/svg"><path d="m4.5 19h-1c-.276 0-.5-.224-.5-.5s.224-.5.5-.5h1c.276 0 .5.224.5.5s-.224.5-.5.5z"/><path d="m16.5 19h-1c-.276 0-.5-.224-.5-.5s.224-.5.5-.5h1c.276 0 .5.224.5.5s-.224.5-.5.5z"/><path d="m17.993 7.049c-.077-2.512-.81-4.119-2.292-5.037-1.362-.843-3.191-1.012-5.701-1.012s-4.339.169-5.701 1.012c-1.482.917-2.215 2.524-2.292 5.037-1.143.23-2.007 1.241-2.007 2.451 0 1.207.86 2.217 2 2.45v4.55c0 .827.673 1.5 1.5 1.5h13c.827 0 1.5-.673 1.5-1.5v-4.55c1.14-.232 2-1.242 2-2.45 0-1.21-.864-2.221-2.007-2.451zm-13.167-4.186c1.16-.718 2.84-.863 5.174-.863s4.014.144 5.174.863c1.166.722 1.749 2.059 1.818 4.189-1.136.235-1.993 1.243-1.993 2.448v1.5h-10v-1.5c0-1.205-.857-2.213-1.993-2.448.07-2.13.653-3.467 1.818-4.189zm.174 9.137h10v1.5c0 .276-.224.5-.5.5h-9c-.276 0-.5-.224-.5-.5zm12.5-1c-.276 0-.5.224-.5.5v5c0 .276-.224.5-.5.5h-13c-.276 0-.5-.224-.5-.5v-5c0-.276-.224-.5-.5-.5-.827 0-1.5-.673-1.5-1.5s.673-1.5 1.5-1.5 1.5.673 1.5 1.5v4c0 .827.673 1.5 1.5 1.5h9c.827 0 1.5-.673 1.5-1.5v-4c0-.827.673-1.5 1.5-1.5s1.5.673 1.5 1.5-.673 1.5-1.5 1.5z"/><path d="m15.5 6h-.5c-1.103 0-2-.897-2-2v-.5c0-.276-.224-.5-.5-.5s-.5.224-.5.5v.5c0 1.103-.897 2-2 2s-2-.897-2-2v-.5c0-.276-.224-.5-.5-.5s-.5.224-.5.5v.5c0 1.103-.897 2-2 2h-.5c-.276 0-.5.224-.5.5s.224.5.5.5h.5c1.103 0 2 .897 2 2v.5c0 .276.224.5.5.5s.5-.224.5-.5v-.5c0-1.103.897-2 2-2s2 .897 2 2v.5c0 .276.224.5.5.5s.5-.224.5-.5v-.5c0-1.103.897-2 2-2h.5c.276 0 .5-.224.5-.5s-.224-.5-.5-.5zm-8 1.344c-.222-.334-.509-.621-.844-.844.334-.222.621-.509.844-.844.222.334.509.621.844.844-.334.222-.622.509-.844.844zm5 0c-.222-.334-.509-.621-.844-.844.334-.222.622-.509.844-.844.222.334.509.621.844.844-.334.222-.622.509-.844.844z"/></svg>