<svg height="20" viewBox="0 0 20 20" width="20" xmlns="http://www.w3.org/2000/svg"><path d="m14.332 14.126-4.08-3.626 4.08-3.626c.206-.183.225-.499.042-.706s-.499-.225-.706-.042l-4.168 3.705-4.168-3.705c-.206-.183-.522-.165-.706.042s-.165.522.042.706l4.08 3.626-4.08 3.626c-.206.183-.225.499-.042.706.099.111.236.168.374.168.118 0 .237-.042.332-.126l4.168-3.705 4.168 3.705c.095.085.214.126.332.126.138 0 .275-.057.374-.168.183-.206.165-.522-.042-.706z"/><path d="m9.5 20c-2.538 0-4.923-.988-6.718-2.782s-2.782-4.18-2.782-6.717c0-2.538.988-4.923 2.782-6.718s4.18-2.783 6.718-2.783 4.923.988 6.718 2.783 2.782 4.18 2.782 6.718-.988 4.923-2.782 6.717-4.18 2.782-6.718 2.782zm0-18c-4.687 0-8.5 3.813-8.5 8.5s3.813 8.5 8.5 8.5 8.5-3.813 8.5-8.5-3.813-8.5-8.5-8.5z"/></svg>