<svg height="20" viewBox="0 0 20 20" width="20" xmlns="http://www.w3.org/2000/svg"><path d="m17.5 20h-16c-.827 0-1.5-.673-1.5-1.5v-16c0-.827.673-1.5 1.5-1.5h16c.827 0 1.5.673 1.5 1.5v16c0 .827-.673 1.5-1.5 1.5zm-16-18c-.276 0-.5.224-.5.5v16c0 .276.224.5.5.5h16c.276 0 .5-.224.5-.5v-16c0-.276-.224-.5-.5-.5z"/><path d="m14.332 14.126-4.08-3.626 4.08-3.626c.206-.183.225-.499.042-.706s-.499-.225-.706-.042l-4.168 3.705-4.168-3.705c-.206-.183-.522-.165-.706.042s-.165.522.042.706l4.08 3.626-4.08 3.626c-.206.183-.225.499-.042.706.099.111.236.168.374.168.118 0 .237-.042.332-.126l4.168-3.705 4.168 3.705c.095.085.214.126.332.126.138 0 .275-.057.374-.168.183-.206.165-.522-.042-.706z"/></svg>