<svg height="20" viewBox="0 0 20 20" width="20" xmlns="http://www.w3.org/2000/svg"><path d="m19 7.5c0-.827-.673-1.5-1.5-1.5s-1.5.673-1.5 1.5c0 .55.298 1.032.741 1.293-.279 1.116-1.011 4.163-1.431 7.089-.594-.205-1.409-.353-2.307-.453.05-2.665.673-7.978.854-9.472.655-.161 1.143-.753 1.143-1.457 0-.827-.673-1.5-1.5-1.5s-1.5.673-1.5 1.5c0 .599.353 1.117.861 1.357-.186 1.528-.796 6.726-.856 9.481-.668-.049-1.353-.075-2.005-.084v-12.339c.582-.206 1-.762 1-1.414 0-.827-.673-1.5-1.5-1.5s-1.5.673-1.5 1.5c0 .652.418 1.208 1 1.414v12.339c-.652.009-1.337.036-2.005.084-.06-2.755-.671-7.953-.856-9.481.508-.24.861-.758.861-1.357 0-.827-.673-1.5-1.5-1.5s-1.5.673-1.5 1.5c0 .704.488 1.296 1.143 1.457.181 1.494.804 6.807.854 9.472-.898.101-1.713.248-2.307.453-.421-2.926-1.152-5.973-1.431-7.089.443-.261.741-.743.741-1.293 0-.827-.673-1.5-1.5-1.5s-1.5.673-1.5 1.5c0 .751.554 1.374 1.275 1.483.373 1.493 1.725 7.146 1.725 10.517 0 .173.09.334.237.425s.331.099.486.022c.834-.417 3.155-.697 5.776-.697s4.942.28 5.776.697c.071.035.147.053.224.053.091 0 .183-.025.263-.075.147-.091.237-.252.237-.425 0-3.371 1.353-9.024 1.725-10.517.721-.109 1.275-.733 1.275-1.483zm-5.5-3.5c.276 0 .5.224.5.5s-.224.5-.5.5-.5-.224-.5-.5.224-.5.5-.5zm-8 0c.276 0 .5.224.5.5s-.224.5-.5.5-.5-.224-.5-.5.224-.5.5-.5zm4-3c.276 0 .5.224.5.5s-.224.5-.5.5-.5-.224-.5-.5.224-.5.5-.5zm-8.5 6.5c0-.276.224-.5.5-.5s.5.224.5.5-.224.5-.5.5-.5-.224-.5-.5zm8.5 10.75c-1.865 0-4.131.147-5.517.541-.026-.594-.083-1.233-.16-1.89.908-.391 3.153-.651 5.677-.651s4.768.26 5.677.651c-.077.657-.134 1.295-.16 1.89-1.386-.393-3.652-.541-5.517-.541zm8-10.25c-.276 0-.5-.224-.5-.5s.224-.5.5-.5.5.224.5.5-.224.5-.5.5z"/></svg>