<svg height="20" viewBox="0 0 20 20" width="20" xmlns="http://www.w3.org/2000/svg"><path d="m18.998 4.455c0-.005-.001-.009-.002-.014-.001-.011-.003-.021-.005-.032-.001-.005-.002-.009-.003-.014-.003-.014-.006-.027-.01-.04-.002-.005-.003-.01-.005-.014-.003-.009-.006-.018-.01-.026-.002-.006-.004-.011-.007-.016-.004-.009-.008-.018-.013-.026-.002-.004-.004-.008-.006-.012-.007-.012-.014-.024-.021-.035-.002-.004-.005-.007-.008-.011-.006-.009-.012-.017-.019-.025-.003-.003-.006-.007-.008-.01-.008-.01-.017-.019-.026-.029-.001-.001-.002-.002-.003-.003-.01-.01-.021-.02-.032-.029-.003-.003-.006-.005-.009-.007-.008-.007-.017-.013-.025-.019-.004-.003-.008-.006-.012-.008-.009-.006-.018-.012-.028-.017-.003-.002-.007-.004-.01-.006-.011-.006-.022-.011-.033-.016l-.007-.003c-.001 0-.001-.001-.002-.001l-8.991-3.996c-.129-.057-.277-.057-.406 0l-8.991 3.996c-.001 0-.001.001-.002.001l-.007.003c-.011.005-.022.011-.033.016-.003.002-.007.004-.01.006-.01.005-.019.011-.028.017-.004.003-.008.005-.012.008-.009.006-.017.013-.026.019-.003.002-.006.005-.009.007-.011.009-.022.019-.032.029-.001.001-.002.002-.003.003-.009.009-.018.019-.026.029-.003.003-.006.007-.008.01-.007.008-.013.017-.019.025-.003.004-.005.007-.008.011-.008.011-.015.023-.021.035-.002.004-.004.008-.006.012-.004.009-.009.018-.013.027-.002.005-.005.011-.007.016-.004.009-.007.018-.01.027-.002.005-.003.01-.005.014-.004.013-.007.027-.01.04-.001.005-.002.009-.003.014-.002.011-.004.021-.005.032-.001.005-.001.009-.002.014-.001.015-.002.03-.002.045v11c0 .198.116.377.297.457l9 4c.001 0 .002.001.003.001.013.006.026.011.04.015.003.001.005.002.008.003.015.005.031.009.047.013.001 0 .002 0 .002.001.033.007.068.011.103.011s.07-.004.103-.011c.001 0 .002 0 .002-.001.016-.003.032-.008.047-.013.003-.001.005-.002.008-.003.014-.005.027-.01.04-.015.001 0 .002-.001.003-.001l9-4c.181-.08.297-.259.297-.457v-11c0-.015-.001-.03-.002-.045zm-9.498-3.408 7.769 3.453-7.769 3.453-7.769-3.453zm-8.5 4.222 8 3.556v9.906l-8-3.556zm9 13.462v-9.906l8-3.556v9.906z"/></svg>