<svg height="20" viewBox="0 0 20 20" width="20" xmlns="http://www.w3.org/2000/svg"><path d="m17.5 3c-.132 0-.261-.053-.353-.147s-.147-.222-.147-.353.053-.261.147-.353c.093-.093.222-.147.353-.147s.26.053.353.147c.093.093.147.222.147.353s-.053.26-.147.353c-.093.093-.222.147-.353.147z"/><path d="m17.215 5.992c1.554-.111 2.785-1.41 2.785-2.992 0-1.654-1.346-3-3-3-1.582 0-2.882 1.231-2.992 2.785l-3.465 3.465-.687-.687c.195.193.51.192.704-.003.283-.283.439-.66.439-1.061s-.156-.777-.439-1.061c-.585-.585-1.536-.585-2.121 0-.283.283-.439.66-.439 1.061s.156.777.439 1.061l1.358 1.358-6.837 5.562c-.498.405-1.048 1.2-1.251 1.809l-1.684 5.051c-.06.18-.013.378.121.512.095.095.223.147.354.146.053 0 .106-.008.158-.026l5.051-1.684c.609-.203 1.404-.753 1.809-1.251l5.562-6.837 1.358 1.358c.283.283.66.439 1.061.439s.777-.156 1.061-.439c.283-.283.439-.66.439-1.061s-.156-.777-.439-1.061c-.283-.283-.66-.439-1.061-.439s-.777.156-1.061.439c-.194.194-.195.509-.003.704l-.686-.686 3.465-3.465zm-2.068 4.154c.094-.094.22-.146.353-.146s.259.052.354.146c.094.094.146.22.146.354s-.052.259-.147.354c-.094.094-.22.146-.353.146s-.259-.052-.354-.146l-.704-.704c.195.192.51.191.704-.003zm-3-2.292s0 0 0 0l-.896-.896 1.261-1.261 1.797 1.789-1.265 1.265-.896-.896zm4.853-6.854c1.103 0 2 .897 2 2s-.897 2-2 2-2-.897-2-2 .897-2 2-2zm-1.026 4.819-.958.958-1.797-1.789.962-.962c.303.83.963 1.49 1.793 1.793zm-6.974-1.319c0-.134.052-.259.146-.354.097-.097.226-.146.354-.146s.256.049.354.146c.094.094.146.22.146.354s-.052.259-.146.354c-.194.194-.195.509-.003.704l-.704-.704c-.094-.094-.146-.22-.146-.354zm-2.257 11.909c-.287.353-.918.789-1.35.933l-4.103 1.368 1.368-4.103c.144-.432.58-1.063.933-1.35l6.917-5.627.577.577-6.939 6.939c-.195.195-.195.512 0 .707.098.098.226.146.354.146s.256-.049.354-.146l6.939-6.939.577.577-5.627 6.917z"/></svg>