<svg height="20" viewBox="0 0 20 20" width="20" xmlns="http://www.w3.org/2000/svg"><path d="m11.854 13.646-2-2c-.195-.195-.512-.195-.707 0l-2 2c-.195.195-.195.512 0 .707s.512.195.707 0l1.146-1.146v4.293c0 .276.224.5.5.5s.5-.224.5-.5v-4.293l1.146 1.146c.098.098.226.146.354.146s.256-.049.354-.146c.195-.195.195-.512 0-.707z"/><path d="m18.067 1.609c-.497-.326-1.193-.615-2.069-.858-1.742-.484-4.05-.75-6.498-.75s-4.756.267-6.498.75c-.877.243-1.573.532-2.069.858-.619.407-.933.874-.933 1.391v12c0 .824.785 1.511 2.335 2.043 1.31.45 3.134.768 5.134.894.011.001.021.001.032.001.262 0 .482-.204.499-.469.017-.276-.192-.513-.468-.531-1.914-.121-3.644-.419-4.872-.841-1.31-.45-1.659-.902-1.659-1.098v-2.566c.2.125.429.245.688.359.926.407 2.221.733 3.744.943.023.003.046.005.069.005.246 0 .46-.181.495-.432.038-.274-.153-.526-.427-.564-1.433-.198-2.636-.498-3.479-.868-.804-.353-1.09-.693-1.09-.877v-2.566c.492.309 1.164.583 2.002.816 1.742.484 4.05.75 6.498.75s4.756-.267 6.498-.75c.838-.233 1.511-.507 2.002-.816v2.566c0 .184-.285.524-1.09.877-.843.37-2.045.67-3.479.868-.274.038-.465.29-.427.564.035.25.249.432.495.432.023 0 .046-.002.069-.005 1.523-.21 2.818-.536 3.744-.943.259-.114.488-.233.688-.359v2.566c0 .196-.35.647-1.659 1.098-1.228.422-2.958.721-4.872.841-.276.017-.485.255-.468.531.017.265.237.469.499.469.011 0 .021 0 .032-.001 2.001-.126 3.824-.443 5.134-.894 1.549-.532 2.334-1.22 2.334-2.043v-12c0-.517-.314-.985-.933-1.391zm-14.797.105c1.658-.46 3.87-.714 6.23-.714s4.573.254 6.23.714c1.795.499 2.27 1.059 2.27 1.286s-.474.787-2.27 1.286c-1.658.46-3.87.714-6.23.714s-4.573-.254-6.23-.714c-1.795-.499-2.27-1.059-2.27-1.286s.474-.787 2.27-1.286zm12.46 6.572c-1.658.46-3.87.714-6.23.714s-4.573-.254-6.23-.714c-1.795-.499-2.27-1.059-2.27-1.286v-2.566c.492.309 1.164.583 2.002.816 1.742.484 4.05.75 6.498.75s4.756-.267 6.498-.75c.838-.233 1.511-.507 2.002-.816v2.566c0 .227-.474.787-2.27 1.286z"/></svg>