<svg height="20" viewBox="0 0 20 20" width="20" xmlns="http://www.w3.org/2000/svg"><path d="m17.521 18.169c-.183-.207-.499-.227-.706-.044-.639.564-1.461.875-2.315.875-1.858 0-3.382-1.456-3.493-3.286l.14.14c.098.098.226.146.354.146s.256-.049.354-.146c.195-.195.195-.512 0-.707l-1-1c-.195-.195-.512-.195-.707 0l-1 1c-.195.195-.195.512 0 .707s.512.195.707 0l.151-.151c.106 2.388 2.082 4.298 4.495 4.298 1.097 0 2.154-.4 2.976-1.125.207-.183.227-.499.044-.706z"/><path d="m19.854 15.146c-.195-.195-.512-.195-.707 0l-.151.151c-.106-2.388-2.082-4.298-4.495-4.298-1.097 0-2.154.399-2.976 1.125-.207.183-.227.499-.044.706s.499.227.706.044c.639-.564 1.461-.875 2.315-.875 1.858 0 3.382 1.456 3.493 3.286l-.14-.14c-.195-.195-.512-.195-.707 0s-.195.512 0 .707l1 1c.098.098.226.146.354.146s.256-.049.354-.146l1-1c.195-.195.195-.512 0-.707z"/><path d="m18.067 1.609c-.497-.326-1.193-.615-2.069-.858-1.742-.484-4.05-.75-6.498-.75s-4.756.267-6.498.75c-.877.243-1.573.532-2.069.858-.619.407-.933.874-.933 1.391v12c0 .882.897 1.606 2.665 2.151 1.522.469 3.588.765 5.819.834h.016c.269 0 .491-.214.499-.485.008-.276-.208-.507-.484-.515-2.144-.066-4.117-.346-5.556-.79-1.547-.477-1.96-.976-1.96-1.195v-2.565c.423.265.978.504 1.665.716 1.522.469 3.588.765 5.819.834h.016c.269 0 .491-.214.499-.485.008-.276-.208-.507-.484-.515-2.144-.066-4.117-.346-5.556-.79-1.547-.477-1.96-.976-1.96-1.195v-2.566c.492.309 1.164.583 2.002.816 1.742.484 4.05.75 6.498.75s4.756-.267 6.498-.75c.838-.233 1.511-.507 2.002-.816v2.566c0 .276.224.5.5.5s.5-.224.5-.5v-8c0-.517-.314-.985-.933-1.391zm-14.797.105c1.658-.46 3.87-.714 6.23-.714s4.573.254 6.23.714c1.795.499 2.27 1.059 2.27 1.286s-.474.787-2.27 1.286c-1.658.46-3.87.714-6.23.714s-4.573-.254-6.23-.714c-1.795-.499-2.27-1.059-2.27-1.286s.474-.787 2.27-1.286zm12.46 6.572c-1.658.46-3.87.714-6.23.714s-4.573-.254-6.23-.714c-1.795-.499-2.27-1.059-2.27-1.286v-2.566c.492.309 1.164.583 2.002.816 1.742.484 4.05.75 6.498.75s4.756-.267 6.498-.75c.838-.233 1.511-.507 2.002-.816v2.566c0 .227-.474.787-2.27 1.286z"/></svg>