<svg height="20" viewBox="0 0 20 20" width="20" xmlns="http://www.w3.org/2000/svg"><path d="m18.067 1.609c-.497-.326-1.193-.615-2.069-.858-1.742-.484-4.05-.75-6.498-.75s-4.756.267-6.498.75c-.877.243-1.573.532-2.069.858-.619.407-.933.874-.933 1.391v12c0 .517.314.985.933 1.391.497.326 1.193.615 2.069.858 1.742.484 4.05.75 6.498.75.685 0 1.369-.021 2.031-.063.276-.017.485-.255.468-.531s-.256-.485-.531-.468c-.642.041-1.304.061-1.969.061-2.36 0-4.573-.254-6.23-.714-1.795-.499-2.27-1.059-2.27-1.286v-2.566c.492.309 1.164.583 2.002.816 1.742.484 4.05.75 6.498.75 1.045 0 2.071-.049 3.049-.145.275-.027.476-.272.449-.546s-.272-.476-.546-.449c-.945.093-1.938.14-2.951.14-2.36 0-4.573-.254-6.23-.714-1.795-.499-2.27-1.059-2.27-1.286v-2.566c.492.309 1.164.583 2.002.816 1.742.484 4.05.75 6.498.75s4.756-.267 6.498-.75c.838-.233 1.511-.507 2.002-.816v1.566c0 .276.224.5.5.5s.5-.224.5-.5v-7c0-.517-.314-.985-.933-1.391zm-14.797.105c1.658-.46 3.87-.714 6.23-.714s4.573.254 6.23.714c1.795.499 2.27 1.059 2.27 1.286s-.474.787-2.27 1.286c-1.658.46-3.87.714-6.23.714s-4.573-.254-6.23-.714c-1.795-.499-2.27-1.059-2.27-1.286s.474-.787 2.27-1.286zm12.46 6.572c-1.658.46-3.87.714-6.23.714s-4.573-.254-6.23-.714c-1.795-.499-2.27-1.059-2.27-1.286v-2.566c.492.309 1.164.583 2.002.816 1.742.484 4.05.75 6.498.75s4.756-.267 6.498-.75c.838-.233 1.511-.507 2.002-.816v2.566c0 .227-.474.787-2.27 1.286z"/><path d="m19 14.086v-.586c0-1.378-1.122-2.5-2.5-2.5s-2.5 1.122-2.5 2.5v.586c-.582.206-1 .762-1 1.414v3c0 .827.673 1.5 1.5 1.5h4c.827 0 1.5-.673 1.5-1.5v-3c0-.652-.418-1.208-1-1.414zm-2.5-2.086c.827 0 1.5.673 1.5 1.5v.5h-3v-.5c0-.827.673-1.5 1.5-1.5zm2.5 6.5c0 .276-.224.5-.5.5h-4c-.276 0-.5-.224-.5-.5v-3c0-.276.224-.5.5-.5h4c.276 0 .5.224.5.5z"/></svg>