<svg height="20" viewBox="0 0 20 20" width="20" xmlns="http://www.w3.org/2000/svg"><path d="m11.854 15.646c-.195-.195-.512-.195-.707 0l-1.146 1.146v-4.293c0-.276-.224-.5-.5-.5s-.5.224-.5.5v4.293l-1.146-1.146c-.195-.195-.512-.195-.707 0s-.195.512 0 .707l2 2c.098.098.226.146.354.146s.256-.049.354-.146l2-2c.195-.195.195-.512 0-.707z"/><path d="m18.067 1.609c-.497-.326-1.193-.615-2.069-.858-1.742-.484-4.05-.75-6.498-.75s-4.756.267-6.498.75c-.877.243-1.573.532-2.069.858-.619.407-.933.874-.933 1.391v12c0 .762.676 1.41 2.009 1.925 1.123.434 2.659.756 4.442.931.017.002.033.002.049.002.254 0 .472-.193.497-.451.027-.275-.174-.519-.449-.546-1.67-.164-3.154-.472-4.18-.868-1.011-.39-1.369-.778-1.369-.992v-2.565c.353.221.798.424 1.335.609 1.31.45 3.134.768 5.134.894.011.001.021.001.032.001.262 0 .482-.204.499-.469.017-.276-.192-.513-.468-.531-1.914-.121-3.644-.419-4.872-.841-1.31-.45-1.66-.902-1.66-1.098v-2.566c.492.309 1.164.583 2.002.816 1.742.484 4.05.75 6.498.75s4.756-.267 6.498-.75c.838-.233 1.511-.507 2.002-.816v2.566c0 .196-.35.647-1.659 1.098-1.228.422-2.958.721-4.872.841-.276.017-.485.255-.468.53.017.265.237.469.499.469.011 0 .021 0 .032-.001 2.001-.126 3.824-.443 5.134-.894.537-.184.982-.388 1.334-.609v2.565c0 .214-.359.602-1.369.992-1.025.396-2.51.704-4.18.868-.275.027-.476.272-.449.546.025.258.243.451.497.451.016 0 .033-.001.049-.002 1.783-.175 3.319-.497 4.442-.931 1.333-.515 2.009-1.162 2.009-1.925v-12c0-.517-.314-.985-.933-1.391zm-14.797.105c1.658-.46 3.87-.714 6.23-.714s4.573.254 6.23.714c1.795.499 2.27 1.059 2.27 1.286s-.474.787-2.27 1.286c-1.658.46-3.87.714-6.23.714s-4.573-.254-6.23-.714c-1.795-.499-2.27-1.059-2.27-1.286s.474-.787 2.27-1.286zm12.46 6.572c-1.658.46-3.87.714-6.23.714s-4.573-.254-6.23-.714c-1.795-.499-2.27-1.059-2.27-1.286v-2.566c.492.309 1.164.583 2.002.816 1.742.484 4.05.75 6.498.75s4.756-.267 6.498-.75c.838-.233 1.511-.507 2.002-.816v2.566c0 .227-.474.787-2.27 1.286z"/></svg>