<svg height="20" viewBox="0 0 20 20" width="20" xmlns="http://www.w3.org/2000/svg"><path d="m18.067 1.609c-.497-.326-1.193-.615-2.069-.858-1.742-.484-4.05-.75-6.498-.75s-4.756.267-6.498.75c-.877.243-1.573.532-2.069.858-.619.407-.933.874-.933 1.391v12c0 .882.897 1.606 2.665 2.151 1.522.469 3.588.765 5.819.834h.016c.269 0 .491-.214.499-.485.008-.276-.208-.507-.484-.515-2.144-.066-4.117-.346-5.556-.79-1.547-.477-1.96-.976-1.96-1.195v-2.565c.353.221.798.424 1.335.609 1.31.45 3.134.768 5.134.894.011.001.021.001.032.001.262 0 .482-.204.499-.469.017-.276-.192-.513-.468-.531-1.914-.121-3.644-.419-4.872-.841-1.31-.45-1.66-.902-1.66-1.098v-2.565c.423.265.978.504 1.665.716 1.522.469 3.588.765 5.819.834h.016c.269 0 .491-.214.499-.485.008-.276-.208-.507-.484-.515-2.144-.066-4.117-.346-5.556-.79-1.547-.477-1.96-.976-1.96-1.195v-2.566c.492.309 1.164.583 2.002.816 1.742.484 4.05.75 6.498.75s4.756-.267 6.498-.75c.838-.233 1.511-.507 2.002-.816v3.066c0 .276.224.5.5.5s.5-.224.5-.5v-4.5c0-.517-.314-.985-.933-1.391zm-2.337 2.677c-1.658.46-3.87.714-6.23.714s-4.573-.254-6.23-.714c-1.795-.499-2.27-1.059-2.27-1.286s.474-.787 2.27-1.286c1.657-.46 3.87-.714 6.23-.714s4.573.254 6.23.714c1.795.499 2.27 1.059 2.27 1.286s-.474.787-2.27 1.286z"/><path d="m14.5 14c-.076 0-.152-.017-.223-.053l-2-1c-.247-.123-.347-.424-.224-.671s.424-.347.671-.224l1.678.839 1.745-1.745c.195-.195.512-.195.707 0s.195.512 0 .707l-2 2c-.096.096-.224.146-.354.146z"/><path d="m14.5 19c-3.033 0-5.5-2.467-5.5-5.5s2.467-5.5 5.5-5.5 5.5 2.467 5.5 5.5-2.467 5.5-5.5 5.5zm0-10c-2.481 0-4.5 2.019-4.5 4.5s2.019 4.5 4.5 4.5 4.5-2.019 4.5-4.5-2.019-4.5-4.5-4.5z"/></svg>