<svg height="20" viewBox="0 0 20 20" width="20" xmlns="http://www.w3.org/2000/svg"><path d="m13.707 10.5 2.646-2.646c.195-.195.195-.512 0-.707s-.512-.195-.707 0l-2.646 2.646-2.646-2.646c-.195-.195-.512-.195-.707 0s-.195.512 0 .707l2.646 2.646-2.646 2.646c-.195.195-.195.512 0 .707.098.098.226.146.354.146s.256-.049.354-.146l2.646-2.646 2.646 2.646c.098.098.226.146.354.146s.256-.049.354-.146c.195-.195.195-.512 0-.707l-2.646-2.646z"/><path d="m18.5 17h-11c-.704 0-1.574-.408-2.024-.948l-3.72-4.464c-.509-.61-.509-1.566 0-2.177l3.72-4.464c.45-.541 1.321-.948 2.024-.948h11c.827 0 1.5.673 1.5 1.5v10c0 .827-.673 1.5-1.5 1.5zm-11-12c-.401 0-.999.28-1.256.588l-3.72 4.464c-.199.239-.199.657 0 .896l3.72 4.464c.257.308.855.588 1.256.588h11c.276 0 .5-.224.5-.5v-10c0-.276-.224-.5-.5-.5z"/></svg>