<svg height="20" viewBox="0 0 20 20" width="20" xmlns="http://www.w3.org/2000/svg"><path d="m18.5 1h-17c-.827 0-1.5.673-1.5 1.5v13c0 .827.673 1.5 1.5 1.5h5.191l-.691 1.382c-.158.317-.323.542-.409.635-.214.057-.372.252-.372.483 0 .276.224.5.5.5h8.561c.276 0 .5-.224.5-.5 0-.232-.158-.427-.372-.483-.086-.092-.25-.318-.409-.635l-.691-1.382h5.191c.827 0 1.5-.673 1.5-1.5v-13c0-.827-.673-1.5-1.5-1.5zm-17 1h17c.276 0 .5.224.5.5v9.5h-18v-9.5c0-.276.224-.5.5-.5zm11.606 16.829c.029.058.059.115.09.171h-6.39c.031-.056.061-.113.09-.171l.915-1.829h4.382l.915 1.829zm5.394-2.829h-17c-.276 0-.5-.224-.5-.5v-2.5h18v2.5c0 .276-.224.5-.5.5z"/><path d="m10.5 15h-1c-.276 0-.5-.224-.5-.5s.224-.5.5-.5h1c.276 0 .5.224.5.5s-.224.5-.5.5z"/></svg>