<svg height="20" viewBox="0 0 20 20" width="20" xmlns="http://www.w3.org/2000/svg"><path d="m18.659 8.027v-.001l-11.283-3.782c-.069-.025-.139-.049-.21-.07l-.007-.002c-.367-.111-.756-.171-1.159-.171-1.867 0-3.461 1.284-3.888 3.056-.515-.036-1.052-.056-1.612-.056-.276 0-.5.224-.5.5 0 1.091.264 3.12.769 4.887.685 2.397 1.604 3.613 2.731 3.613h11.149c1.391 0 2.467-1.651 3.126-3.037.721-1.518 1.225-3.353 1.225-4.464 0-.218-.14-.406-.341-.473zm-12.659-3.027c.301 0 .591.045.865.127l.175.059c1.143.424 1.96 1.525 1.96 2.814 0 .252-.031.5-.092.739-.3-.131-.613-.261-.939-.387.02-.115.031-.233.031-.352 0-1.103-.897-2-2-2-.504 0-.985.188-1.355.529-.232.214-.408.476-.516.765-.325-.055-.66-.103-1.006-.144.368-1.255 1.527-2.15 2.878-2.15zm-.86 2.492c.176-.295.499-.492.86-.492.551 0 1 .449 1 1v.005c-.578-.19-1.196-.365-1.86-.513zm11.732 5.042c-.723 1.521-1.574 2.466-2.222 2.466h-.005c-.001 0-.002 0-.004 0h-11.141c-.351 0-.678-.4-.89-.736-.321-.508-.617-1.232-.879-2.152-.404-1.413-.649-3.04-.714-4.107.49.011.96.037 1.41.076.013.002.026.005.039.007.021.002.043.003.064.003.649.06 1.259.148 1.833.257.031.009.063.015.097.018.988.193 1.872.45 2.676.738.029.014.059.024.089.032.63.229 1.212.478 1.757.731.005.003.01.006.016.008l.009.003c.56.26 1.081.524 1.576.774 1.427.723 2.659 1.347 3.918 1.347 1.16 0 2.202-.41 3.048-1.194-.185.582-.416 1.181-.677 1.728zm.348-2.829c-.727.86-1.642 1.295-2.72 1.295-1.02 0-2.1-.547-3.466-1.239-.377-.191-.778-.394-1.205-.599.114-.375.172-.764.172-1.162 0-.729-.196-1.413-.538-2.002l8.36 2.802c-.131.253-.327.581-.601.905z"/></svg>