<svg height="20" viewBox="0 0 20 20" width="20" xmlns="http://www.w3.org/2000/svg"><path d="m9.5 18c-.142 0-.277-.06-.372-.166l-9-10c-.16-.178-.172-.443-.028-.634l3-4c.094-.126.243-.2.4-.2h6c.276 0 .5.224.5.5s-.224.5-.5.5h-5.75l-2.603 3.471 8.353 9.281 8.353-9.281-2.603-3.471h-1.75c-.276 0-.5-.224-.5-.5s.224-.5.5-.5h2c.157 0 .306.074.4.2l3 4c.143.191.131.457-.028.634l-9 10c-.095.105-.23.166-.372.166z"/><path d="m11.5 10c-.276 0-.5-.224-.5-.5 0-1.378-1.122-2.5-2.5-2.5-.276 0-.5-.224-.5-.5s.224-.5.5-.5c1.378 0 2.5-1.122 2.5-2.5 0-.276.224-.5.5-.5s.5.224.5.5c0 1.378 1.122 2.5 2.5 2.5.276 0 .5.224.5.5s-.224.5-.5.5c-1.378 0-2.5 1.122-2.5 2.5 0 .276-.224.5-.5.5zm-1.199-3.5c.49.296.903.708 1.199 1.199.296-.49.708-.903 1.199-1.199-.49-.296-.903-.708-1.199-1.199-.296.49-.708.903-1.199 1.199z"/></svg>