<svg height="20" viewBox="0 0 20 20" width="20" xmlns="http://www.w3.org/2000/svg"><path d="m18.9 7.2-3-4c-.077-.103-.191-.172-.318-.193l-6-1c-.054-.009-.11-.009-.164 0l-6 1c-.127.021-.241.09-.318.193l-3 4c-.143.191-.131.457.028.634l9 10c.095.105.23.166.372.166s.277-.06.372-.166l9-10c.16-.178.172-.443.028-.634zm-6.114-.2-3.286 9.037-3.286-9.037zm-6.079-1 2.793-2.793 2.793 2.793zm4.25-2.75 3.698.616-1.233 1.849-2.466-2.465zm-5.379 2.465-1.233-1.849 3.698-.616zm-.908.441-2.985.597 1.791-2.388zm.507.919 2.974 8.179-6.692-7.436 3.718-.744zm8.646 0 3.718.744-6.692 7.436 2.974-8.179zm.507-.919 1.194-1.791 1.791 2.388z"/></svg>