<svg height="20" viewBox="0 0 20 20" width="20" xmlns="http://www.w3.org/2000/svg"><path d="m8 .5c0-.276-.224-.5-.5-.5s-.5.224-.5.5c0 1.306.252 2.397.455 3.274.198.854.353 1.529.13 1.811-.186.234-.717.37-1.581.406-.002-.162-.004-.326-.004-.49v-4c0-.276-.224-.5-.5-.5s-.5.224-.5.5v4c0 .165-.001.328-.004.49-.861-.037-1.391-.174-1.577-.408-.225-.283-.069-.959.128-1.814.202-.875.453-1.965.453-3.267 0-.276-.224-.5-.5-.5s-.5.224-.5.5c0 1.189-.237 2.217-.427 3.043-.258 1.118-.461 2.002.064 2.662.39.49 1.101.733 2.333.785-.112 2.79-.516 5.19-.851 7.177-.446 2.644-.74 4.39.012 5.279.311.368.772.555 1.37.555s1.059-.187 1.37-.555c.752-.89.458-2.638.012-5.284-.334-1.985-.738-4.384-.851-7.172 1.235-.05 1.946-.292 2.337-.783.524-.659.32-1.541.062-2.659-.191-.827-.429-1.857-.429-3.048zm-1.894 18.299c-.073.086-.215.201-.606.201s-.533-.114-.606-.2c-.452-.535-.145-2.357.211-4.467.129-.762.267-1.585.396-2.467.129.881.267 1.701.395 2.463.356 2.112.663 3.936.211 4.472z"/><path d="m15.882 14.162c-.393-2.331-.881-5.231-.882-8.662v-5c0-.227-.153-.425-.372-.483s-.45.038-.562.235c-2.019 3.534-3.016 8.931-3.058 9.159-.027.146.013.296.108.41s.236.18.384.18h2.235c-.175 1.544-.409 2.935-.617 4.166-.446 2.644-.74 4.39.012 5.279.311.368.772.555 1.37.555s1.059-.187 1.37-.555c.752-.89.458-2.638.012-5.284zm-3.771-5.162c.248-1.171.882-3.887 1.889-6.317v2.817c0 1.236-.063 2.403-.163 3.5h-1.727zm2.995 9.799c-.073.086-.215.201-.606.201s-.533-.114-.606-.2c-.452-.535-.145-2.357.211-4.467.129-.762.267-1.585.396-2.467.129.881.267 1.702.395 2.463.356 2.112.663 3.936.211 4.472z"/></svg>