<svg height="20" viewBox="0 0 20 20" width="20" xmlns="http://www.w3.org/2000/svg"><path d="m15.5 1h-8.5c-2.206 0-4 1.794-4 4s1.794 4 4 4h1v4.5c0 .276.224.5.5.5s.5-.224.5-.5v-11.5h3v11.5c0 .276.224.5.5.5s.5-.224.5-.5v-11.5h2.5c.276 0 .5-.224.5-.5s-.224-.5-.5-.5zm-7.5 7h-1c-1.654 0-3-1.346-3-3s1.346-3 3-3h1z"/><path d="m14.5 17h-9.293l1.146-1.146c.195-.195.195-.512 0-.707s-.512-.195-.707 0l-2 2c-.195.195-.195.512 0 .707l2 2c.098.098.226.146.354.146s.256-.049.354-.146c.195-.195.195-.512 0-.707l-1.146-1.146h9.293c.276 0 .5-.224.5-.5s-.224-.5-.5-.5z"/></svg>