<svg height="20" viewBox="0 0 20 20" width="20" xmlns="http://www.w3.org/2000/svg"><path d="m10 12c-1.103 0-2-.897-2-2s.897-2 2-2 2 .897 2 2-.897 2-2 2zm0-3c-.551 0-1 .449-1 1s.449 1 1 1 1-.449 1-1-.449-1-1-1z"/><path d="m17.071 2.929c-1.889-1.889-4.4-2.929-7.071-2.929s-5.182 1.04-7.071 2.929-2.929 4.4-2.929 7.071 1.04 5.182 2.929 7.071 4.4 2.929 7.071 2.929 5.182-1.04 7.071-2.929 2.929-4.4 2.929-7.071-1.04-5.182-2.929-7.071zm.835 2.773-4.534 2.148c-.314-.49-.731-.908-1.221-1.221l2.148-4.534c1.521.83 2.777 2.087 3.608 3.608zm-10.906 4.298c0-1.654 1.346-3 3-3s3 1.346 3 3-1.346 3-3 3-3-1.346-3-3zm3-9c1.201 0 2.347.237 3.395.665l-2.148 4.534c-.393-.129-.812-.199-1.247-.199-2.206 0-4 1.794-4 4 0 .435.07.854.199 1.247l-4.534 2.148c-.428-1.048-.665-2.194-.665-3.395 0-4.963 4.037-9 9-9zm-7.906 13.298 4.534-2.148c.314.49.731.908 1.221 1.221l-2.148 4.534c-1.521-.83-2.777-2.087-3.608-3.608zm7.906 4.702c-1.201 0-2.347-.237-3.395-.665l2.148-4.534c.393.129.812.199 1.247.199 2.206 0 4-1.794 4-4 0-.435-.07-.854-.199-1.247l4.534-2.148c.428 1.048.665 2.194.665 3.395 0 4.963-4.037 9-9 9z"/></svg>