<svg height="20" viewBox="0 0 20 20" width="20" xmlns="http://www.w3.org/2000/svg"><path d="m7.065 8.372c.697-.567 1.682-.998 2.635-1.414 1.014-.444 2.062-.902 2.865-1.554.965-.784 1.435-1.734 1.435-2.904v-1c0-.276-.224-.5-.5-.5s-.5.224-.5.5v1c0 .122-.007.24-.021.354l-7.358-1.839c-.039-.01-.079-.015-.121-.015-.276 0-.5.224-.5.5v1c0 1.891 1.25 2.862 2.191 3.428.081.049.17.072.257.072.17 0 .335-.086.429-.242.142-.237.066-.544-.171-.686-1.196-.72-1.706-1.489-1.706-2.572v-.36l6.663 1.666c-.173.295-.414.566-.728.821-.697.567-1.682.998-2.635 1.414-1.014.444-2.062.902-2.865 1.554-.965.784-1.435 1.734-1.435 2.904 0 1.891 1.25 2.862 2.191 3.428.081.049.17.072.257.072.17 0 .335-.086.429-.242.142-.237.066-.544-.171-.686-1.196-.72-1.706-1.489-1.706-2.572 0-.122.007-.24.021-.354l6.642 1.661c-.173.295-.414.566-.728.821-.697.567-1.682.998-2.635 1.414-1.014.444-2.062.902-2.865 1.554-.965.784-1.435 1.734-1.435 2.904v1c0 .276.224.5.5.5s.5-.224.5-.5v-1c0-.122.007-.24.021-.354l7.358 1.839c.039.01.079.015.121.015.276 0 .5-.224.5-.5v-1c0-1.891-1.25-2.862-2.191-3.428-.237-.142-.544-.066-.686.171s-.066.544.171.686c1.196.72 1.706 1.489 1.706 2.572v.36l-6.663-1.666c.173-.295.414-.566.728-.821.697-.567 1.682-.998 2.635-1.414 1.014-.444 2.062-.902 2.865-1.554.965-.784 1.435-1.734 1.435-2.904 0-1.891-1.25-2.862-2.191-3.428-.237-.142-.544-.066-.686.171s-.066.544.171.686c1.196.72 1.706 1.489 1.706 2.572 0 .122-.007.24-.021.354l-6.643-1.661c.173-.295.414-.566.729-.822z"/></svg>