<svg height="20" viewBox="0 0 20 20" width="20" xmlns="http://www.w3.org/2000/svg"><path d="m16.5 20h-13c-.827 0-1.5-.673-1.5-1.5v-16c0-.827.673-1.5 1.5-1.5h13c.827 0 1.5.673 1.5 1.5v16c0 .827-.673 1.5-1.5 1.5zm-13-18c-.276 0-.5.224-.5.5v16c0 .276.224.5.5.5h13c.276 0 .5-.224.5-.5v-16c0-.276-.224-.5-.5-.5z"/><path d="m12.5 5h-7c-.276 0-.5-.224-.5-.5s.224-.5.5-.5h7c.276 0 .5.224.5.5s-.224.5-.5.5z"/><path d="m14.5 7h-9c-.276 0-.5-.224-.5-.5s.224-.5.5-.5h9c.276 0 .5.224.5.5s-.224.5-.5.5z"/><path d="m14.5 9h-9c-.276 0-.5-.224-.5-.5s.224-.5.5-.5h9c.276 0 .5.224.5.5s-.224.5-.5.5z"/><path d="m10.5 11h-5c-.276 0-.5-.224-.5-.5s.224-.5.5-.5h5c.276 0 .5.224.5.5s-.224.5-.5.5z"/><path d="m14.5 15h-9c-.276 0-.5-.224-.5-.5s.224-.5.5-.5h9c.276 0 .5.224.5.5s-.224.5-.5.5z"/><path d="m12.5 17h-7c-.276 0-.5-.224-.5-.5s.224-.5.5-.5h7c.276 0 .5.224.5.5s-.224.5-.5.5z"/></svg>