<svg height="20" viewBox="0 0 20 20" width="20" xmlns="http://www.w3.org/2000/svg"><path d="m16.5 20h-10c-.276 0-.5-.224-.5-.5s.224-.5.5-.5h10c.276 0 .5-.224.5-.5v-1c0-.276.224-.5.5-.5s.5.224.5.5v1c0 .827-.673 1.5-1.5 1.5z"/><path d="m5.5 15c-.276 0-.5-.224-.5-.5v-11c0-.827-.673-1.5-1.5-1.5h-2c-.276 0-.5-.224-.5-.5s.224-.5.5-.5h2c1.378 0 2.5 1.122 2.5 2.5v11c0 .276-.224.5-.5.5z"/><path d="m4 17.5c0 .276-.224.5-.5.5s-.5-.224-.5-.5.224-.5.5-.5.5.224.5.5z"/><path d="m3.5 20c-1.378 0-2.5-1.122-2.5-2.5s1.122-2.5 2.5-2.5 2.5 1.122 2.5 2.5-1.122 2.5-2.5 2.5zm0-4c-.827 0-1.5.673-1.5 1.5s.673 1.5 1.5 1.5 1.5-.673 1.5-1.5-.673-1.5-1.5-1.5z"/><path d="m14.5 9h-.586c.056-.157.086-.325.086-.5v-3c0-.827-.673-1.5-1.5-1.5h-4c-.827 0-1.5.673-1.5 1.5v3c0 .384.145.734.383 1-.238.266-.383.616-.383 1v6c0 .827.673 1.5 1.5 1.5h6c.827 0 1.5-.673 1.5-1.5v-6c0-.827-.673-1.5-1.5-1.5zm-2.5 1v7h-1v-7zm-4-4.5c0-.276.224-.5.5-.5h4c.276 0 .5.224.5.5v3c0 .276-.224.5-.5.5h-4c-.276 0-.5-.224-.5-.5zm0 11v-6c0-.276.224-.5.5-.5h1.5v7h-1.5c-.276 0-.5-.224-.5-.5zm7 0c0 .276-.224.5-.5.5h-1.5v-7h1.5c.276 0 .5.224.5.5z"/><path d="m11.5 7h-1c-.276 0-.5-.224-.5-.5s.224-.5.5-.5h1c.276 0 .5.224.5.5s-.224.5-.5.5z"/></svg>