<svg height="20" viewBox="0 0 20 20" width="20" xmlns="http://www.w3.org/2000/svg"><path d="m18.5 3h-17c-.827 0-1.5.673-1.5 1.5v12c0 .276.224.5.5.5s.5-.224.5-.5v-.5h18v.5c0 .276.224.5.5.5s.5-.224.5-.5v-12c0-.827-.673-1.5-1.5-1.5zm-17 1h17c.276 0 .5.224.5.5v2.5h-18v-2.5c0-.276.224-.5.5-.5zm17.5 4v3h-18v-3zm-18 7v-3h18v3z"/><path d="m5.5 6h-1c-.276 0-.5-.224-.5-.5s.224-.5.5-.5h1c.276 0 .5.224.5.5s-.224.5-.5.5z"/><path d="m5.5 10h-1c-.276 0-.5-.224-.5-.5s.224-.5.5-.5h1c.276 0 .5.224.5.5s-.224.5-.5.5z"/><path d="m5.5 14h-1c-.276 0-.5-.224-.5-.5s.224-.5.5-.5h1c.276 0 .5.224.5.5s-.224.5-.5.5z"/><path d="m15.5 6h-1c-.276 0-.5-.224-.5-.5s.224-.5.5-.5h1c.276 0 .5.224.5.5s-.224.5-.5.5z"/><path d="m15.5 10h-1c-.276 0-.5-.224-.5-.5s.224-.5.5-.5h1c.276 0 .5.224.5.5s-.224.5-.5.5z"/><path d="m15.5 14h-1c-.276 0-.5-.224-.5-.5s.224-.5.5-.5h1c.276 0 .5.224.5.5s-.224.5-.5.5z"/></svg>