<svg height="20" viewBox="0 0 20 20" width="20" xmlns="http://www.w3.org/2000/svg"><path d="m15.5 3h-11c-.827 0-1.5.673-1.5 1.5v12c0 .276.224.5.5.5s.5-.224.5-.5v-.5h12v.5c0 .276.224.5.5.5s.5-.224.5-.5v-12c0-.827-.673-1.5-1.5-1.5zm-11 1h11c.276 0 .5.224.5.5v2.5h-12v-2.5c0-.276.224-.5.5-.5zm11.5 4v3h-12v-3zm-12 7v-3h12v3z"/><path d="m10.5 6h-1c-.276 0-.5-.224-.5-.5s.224-.5.5-.5h1c.276 0 .5.224.5.5s-.224.5-.5.5z"/><path d="m10.5 10h-1c-.276 0-.5-.224-.5-.5s.224-.5.5-.5h1c.276 0 .5.224.5.5s-.224.5-.5.5z"/><path d="m10.5 14h-1c-.276 0-.5-.224-.5-.5s.224-.5.5-.5h1c.276 0 .5.224.5.5s-.224.5-.5.5z"/></svg>