<svg height="20" viewBox="0 0 20 20" width="20" xmlns="http://www.w3.org/2000/svg"><path d="m16.829 3.124c-.208-.182-.524-.161-.706.047l-2.758 3.152c-.021-.033-.041-.067-.062-.1-1.072-1.723-2.18-3.505-2.821-5.855-.059-.218-.257-.368-.482-.368s-.423.151-.482.368c-.641 2.349-1.747 4.131-2.817 5.853-1.385 2.23-2.693 4.335-2.693 7.278 0 1.016.2 1.987.579 2.857l-2.462 2.814c-.182.208-.161.524.047.706.095.083.212.124.329.124.139 0 .278-.058.376-.171l2.215-2.532c.199.305.423.592.672.857 1.118 1.19 2.622 1.845 4.236 1.845 1.628 0 3.139-.656 4.254-1.846 1.126-1.202 1.746-2.855 1.746-4.654 0-2.504-.949-4.402-2.086-6.286l2.962-3.385c.182-.208.161-.524-.047-.706zm-11.822 10.376c0-2.658 1.178-4.554 2.543-6.751.876-1.411 1.776-2.859 2.45-4.636.675 1.777 1.576 3.227 2.454 4.638.075.12.149.24.223.359l-7.35 8.401c-.207-.617-.32-1.293-.32-2.01zm9.993 0c0 3.136-2.15 5.5-5 5.5-1.82 0-3.355-.967-4.224-2.485l7.446-8.51c1.012 1.707 1.778 3.354 1.778 5.495z"/></svg>