<svg height="20" viewBox="0 0 20 20" width="20" xmlns="http://www.w3.org/2000/svg"><path d="m10 20c-1.614 0-3.118-.655-4.236-1.845-1.133-1.206-1.757-2.859-1.757-4.655 0-2.943 1.308-5.049 2.693-7.278 1.07-1.723 2.177-3.504 2.817-5.853.059-.218.257-.368.482-.368s.423.151.482.368c.641 2.35 1.749 4.132 2.821 5.855 1.387 2.229 2.697 4.335 2.697 7.277 0 1.799-.62 3.452-1.746 4.654-1.115 1.19-2.626 1.846-4.254 1.846zm0-17.887c-.674 1.776-1.574 3.225-2.45 4.636-1.364 2.196-2.543 4.093-2.543 6.751 0 3.136 2.147 5.5 4.993 5.5 2.85 0 5-2.364 5-5.5 0-2.657-1.18-4.553-2.546-6.749-.878-1.411-1.78-2.861-2.454-4.638z"/></svg>