<svg height="20" viewBox="0 0 20 20" width="20" xmlns="http://www.w3.org/2000/svg"><path d="m.5 12c-.276 0-.5-.224-.5-.5v-2c0-.276.224-.5.5-.5s.5.224.5.5v2c0 .276-.224.5-.5.5z"/><path d="m19.5 12c-.276 0-.5-.224-.5-.5v-2c0-.276.224-.5.5-.5s.5.224.5.5v2c0 .276-.224.5-.5.5z"/><path d="m17.5 7c-.175 0-.343.031-.5.086v-.586c0-.827-.673-1.5-1.5-1.5s-1.5.673-1.5 1.5v3.5h-8v-3.5c0-.827-.673-1.5-1.5-1.5s-1.5.673-1.5 1.5v.586c-.157-.056-.325-.086-.5-.086-.827 0-1.5.673-1.5 1.5v4c0 .827.673 1.5 1.5 1.5.175 0 .343-.031.5-.086v.586c0 .827.673 1.5 1.5 1.5s1.5-.673 1.5-1.5v-3.5h8v3.5c0 .827.673 1.5 1.5 1.5s1.5-.673 1.5-1.5v-.586c.157.056.325.086.5.086.827 0 1.5-.673 1.5-1.5v-4c0-.827-.673-1.5-1.5-1.5zm-15 6c-.276 0-.5-.224-.5-.5v-4c0-.276.224-.5.5-.5s.5.224.5.5v4c0 .276-.224.5-.5.5zm2.5 1.5c0 .276-.224.5-.5.5s-.5-.224-.5-.5v-8c0-.276.224-.5.5-.5s.5.224.5.5zm11 0c0 .276-.224.5-.5.5s-.5-.224-.5-.5v-8c0-.276.224-.5.5-.5s.5.224.5.5zm2-2c0 .276-.224.5-.5.5s-.5-.224-.5-.5v-4c0-.276.224-.5.5-.5s.5.224.5.5z"/></svg>