<svg height="20" viewBox="0 0 20 20" width="20" xmlns="http://www.w3.org/2000/svg"><path d="m17.071 2.929c-1.889-1.889-4.4-2.929-7.071-2.929-.893 0-1.778.118-2.631.35-.266.073-.424.347-.351.614s.347.424.614.351c.768-.209 1.565-.315 2.369-.315 1.578 0 3.061.409 4.352 1.125-.441-.192-.847-.169-1.215-.147-.447.027-.869.052-1.477-.272-1.13-.602-2.048-.811-3.394-.1-.244.129-.338.431-.209.676s.431.338.676.209c.896-.473 1.424-.452 2.457.099.856.456 1.494.418 2.006.388.429-.026.647-.029.922.158.385.263.585.844.796 1.458.32.932.683 1.988 1.835 2.38.155.053.421.143.61.222-.163.168-.435.411-.702.649-.172.154-.367.328-.583.525-.624.569-.55 1.235-.484 1.822.076.677.154 1.378-.687 2.322-.227.255-.36.61-.501.986-.326.871-.634 1.694-1.946 1.706-.037-.044-.141-.21-.234-.733-.085-.482-.134-1.106-.187-1.765-.08-1.012-.171-2.16-.421-3.112-.32-1.217-.857-1.936-1.641-2.198-.6-.2-1.128-.184-1.521-.147-.275.026-.477.27-.451.545s.27.477.545.451c.329-.031.692-.04 1.111.1.439.147.763.639.991 1.504s.314 1.966.391 2.936c.064.81.124 1.574.257 2.151.081.35.185.616.32.813.201.294.489.456.811.456.884 0 1.59-.285 2.099-.847.423-.467.639-1.044.813-1.508.102-.273.208-.556.311-.672 1.137-1.277 1.02-2.329.934-3.098-.063-.564-.064-.764.164-.972.212-.193.405-.366.575-.518.363-.324.625-.558.809-.758.126-.138.422-.461.34-.865-.001-.004-.002-.007-.002-.01.343.951.53 1.976.53 3.044 0 4.963-4.037 9-9 9-3.427 0-6.415-1.907-7.934-4.739.261-.495.754-1.606.525-2.578.016-.097.181-.331.28-.472.125-.177.254-.36.34-.554.112-.252-.002-.548-.254-.66s-.548.002-.66.254c-.046.104-.147.247-.243.384-.247.351-.555.788-.438 1.269.08.327.011.73-.105 1.1-.285-.809-.458-1.673-.501-2.574-.013-.276-.247-.489-.523-.476s-.489.247-.476.523c.121 2.57 1.214 4.967 3.077 6.749 1.869 1.788 4.324 2.773 6.912 2.773 2.671 0 5.182-1.04 7.071-2.929s2.929-4.4 2.929-7.071-1.04-5.182-2.929-7.071zm.001 3.097c-.687-.234-.93-.94-1.211-1.758-.244-.71-.496-1.443-1.095-1.899 1.639 1.027 2.924 2.567 3.631 4.393-.195-.351-.685-.518-1.325-.736z"/><path d="m6 3.086v-.586c0-1.378-1.122-2.5-2.5-2.5s-2.5 1.122-2.5 2.5v.586c-.582.206-1 .762-1 1.414v3c0 .827.673 1.5 1.5 1.5h4c.827 0 1.5-.673 1.5-1.5v-3c0-.652-.418-1.208-1-1.414zm-2.5-2.086c.827 0 1.5.673 1.5 1.5v.5h-3v-.5c0-.827.673-1.5 1.5-1.5zm2.5 6.5c0 .276-.224.5-.5.5h-4c-.276 0-.5-.224-.5-.5v-3c0-.276.224-.5.5-.5h4c.276 0 .5.224.5.5z"/></svg>