<svg height="20" viewBox="0 0 20 20" width="20" xmlns="http://www.w3.org/2000/svg"><path d="m7 8.5c0 .276-.224.5-.5.5s-.5-.224-.5-.5.224-.5.5-.5.5.224.5.5z"/><path d="m9 8.5c0 .276-.224.5-.5.5s-.5-.224-.5-.5.224-.5.5-.5.5.224.5.5z"/><path d="m11 8.5c0 .276-.224.5-.5.5s-.5-.224-.5-.5.224-.5.5-.5.5.224.5.5z"/><path d="m13 8.5c0 .276-.224.5-.5.5s-.5-.224-.5-.5.224-.5.5-.5.5.224.5.5z"/><path d="m15 8.5c0 .276-.224.5-.5.5s-.5-.224-.5-.5.224-.5.5-.5.5.224.5.5z"/><path d="m16.934 7.092c-.726-1.758-1.798-3.354-3.187-4.743-.865-.865-2.018-1.342-3.247-1.342s-2.381.477-3.247 1.342c-1.389 1.389-2.462 2.985-3.187 4.743-.707 1.714-1.066 3.534-1.066 5.408 0 2.003.78 3.887 2.197 5.303s3.3 2.197 5.303 2.197 3.887-.78 5.303-2.197 2.197-3.3 2.197-5.303c0-1.874-.359-3.694-1.066-5.408zm-1.08 8.554c-.273-.273-.646-.646-1.354-.646s-1.081.374-1.354.646c-.245.245-.365.354-.646.354s-.401-.108-.646-.354c-.273-.273-.646-.646-1.354-.646s-1.081.374-1.354.646c-.245.245-.365.354-.646.354s-.401-.108-.646-.354c-.273-.273-.646-.646-1.354-.646s-1.081.374-1.354.646c-.082.082-.15.149-.216.202-.341-.566-.599-1.188-.756-1.848h2.716c.036.002.073.003.109.003v-.003h2.891c.036.002.073.003.109.003v-.003h1v.003c.037 0 .073-.001.109-.003h2.891v.003c.037 0 .073-.001.109-.003h2.716c-.157.66-.414 1.282-.756 1.848-.066-.053-.134-.12-.216-.202zm-10.422-9.121.844.422c.141.07.306.07.447 0l1.776-.888 1.776.888c.141.07.306.07.447 0l1.776-.888 1.776.888c.07.035.147.053.224.053s.153-.018.224-.053l.844-.422c.559 1.099.961 2.266 1.194 3.475l-12.524.003c.233-1.21.635-2.378 1.194-3.478zm9.568 5.478c0 .526-.408.958-.925.997h-1.342c.17-.294.267-.634.267-.997 0-.365-.099-.707-.27-1.002h1.27v.002c.551 0 1 .449 1 1zm-5.075.997c-.516-.039-.925-.471-.925-.997 0-.551.449-1 1-1v-.001h1v.002c.551 0 1 .449 1 1 0 .526-.408.958-.925.997h-1.15zm-3 0c-.516-.039-.925-.471-.925-.997 0-.551.449-1 1-1v-.001h1.27c-.171.295-.27.636-.27 1.001 0 .363.098.703.267.997zm-2.925-.5c0-.503.029-1.003.085-1.497h1.184c-.171.294-.269.636-.269 1 0 .363.098.703.267.997h-1.248c-.013-.165-.019-.332-.019-.5zm11.733.5c.17-.294.267-.634.267-.997 0-.365-.099-.708-.271-1.003h1.185c.056.495.085.996.085 1.5 0 .168-.006.335-.019.5h-1.248zm-7.772-9.945c.677-.677 1.578-1.049 2.539-1.049s1.863.373 2.539 1.049c.794.794 1.477 1.665 2.041 2.595l-.581.29-1.776-.888c-.141-.07-.306-.07-.447 0l-1.776.888-1.776-.888c-.141-.07-.306-.07-.447 0l-1.776.888-.581-.29c.564-.93 1.247-1.801 2.041-2.595zm2.539 15.945c-2.002 0-3.794-.91-4.988-2.337.132-.1.242-.21.341-.309.245-.245.365-.354.646-.354s.401.108.646.354c.273.273.646.646 1.354.646s1.081-.374 1.354-.646c.245-.245.365-.354.646-.354s.401.108.646.354c.273.273.646.646 1.354.646s1.081-.374 1.354-.646c.245-.245.365-.354.646-.354s.401.108.646.354c.099.099.209.209.341.309-1.193 1.427-2.986 2.337-4.988 2.337z"/></svg>