<svg height="20" viewBox="0 0 20 20" width="20" xmlns="http://www.w3.org/2000/svg"><path d="m9.5 20c-2.003 0-3.887-.78-5.303-2.197s-2.197-3.3-2.197-5.303c0-1.874.359-3.694 1.066-5.408.726-1.758 1.798-3.354 3.187-4.743.865-.865 2.018-1.342 3.247-1.342s2.381.477 3.247 1.342c1.389 1.389 2.462 2.985 3.187 4.743.708 1.714 1.066 3.534 1.066 5.408 0 2.003-.78 3.887-2.197 5.303s-3.3 2.197-5.303 2.197zm0-17.994c-.961 0-1.863.373-2.539 1.049-2.554 2.554-3.961 5.908-3.961 9.445 0 3.584 2.916 6.5 6.5 6.5s6.5-2.916 6.5-6.5c0-3.536-1.407-6.891-3.961-9.445-.677-.677-1.578-1.049-2.539-1.049z"/></svg>