<svg height="20" viewBox="0 0 20 20" width="20" xmlns="http://www.w3.org/2000/svg"><path d="m9.5 20c-2.538 0-4.923-.988-6.718-2.782s-2.782-4.18-2.782-6.717c0-2.538.988-4.923 2.782-6.718s4.18-2.783 6.718-2.783c3.947 0 6.447.731 7.869 2.3.647.714 1.084 1.611 1.335 2.744.202.911.293 1.977.293 3.455 0 1.053.258 2.13.508 3.172.219.916.427 1.781.46 2.607.04.985-.186 1.775-.691 2.416-1.258 1.595-4.272 2.306-9.773 2.306zm0-18c-4.687 0-8.5 3.813-8.5 8.5s3.813 8.5 8.5 8.5c5.026 0 7.966-.63 8.988-1.925.8-1.014.45-2.477.044-4.17-.263-1.098-.535-2.234-.535-3.405 0-2.411-.233-4.274-1.369-5.528-1.219-1.345-3.484-1.972-7.128-1.972z"/><path d="m7.5 15c-2.481 0-4.5-2.019-4.5-4.5s2.019-4.5 4.5-4.5 4.5 2.019 4.5 4.5-2.019 4.5-4.5 4.5zm0-8c-1.93 0-3.5 1.57-3.5 3.5s1.57 3.5 3.5 3.5 3.5-1.57 3.5-3.5-1.57-3.5-3.5-3.5z"/><path d="m7.5 13c-.276 0-.5-.224-.5-.5s.224-.5.5-.5c.827 0 1.5-.673 1.5-1.5 0-.276.224-.5.5-.5s.5.224.5.5c0 1.378-1.122 2.5-2.5 2.5z"/></svg>