<svg height="20" viewBox="0 0 20 20" width="20" xmlns="http://www.w3.org/2000/svg"><path d="m5.5 8c-.276 0-.5-.224-.5-.5s.224-.5.5-.5.5-.224.5-.5.224-.5.5-.5.5.224.5.5c0 .827-.673 1.5-1.5 1.5z"/><path d="m5.5 10c-1.93 0-3.5-1.57-3.5-3.5s1.57-3.5 3.5-3.5 3.5 1.57 3.5 3.5-1.57 3.5-3.5 3.5zm0-6c-1.378 0-2.5 1.122-2.5 2.5s1.122 2.5 2.5 2.5 2.5-1.122 2.5-2.5-1.122-2.5-2.5-2.5z"/><path d="m13.5 15c-.276 0-.5-.224-.5-.5s.224-.5.5-.5.5-.224.5-.5.224-.5.5-.5.5.224.5.5c0 .827-.673 1.5-1.5 1.5z"/><path d="m13.5 17c-1.93 0-3.5-1.57-3.5-3.5s1.57-3.5 3.5-3.5 3.5 1.57 3.5 3.5-1.57 3.5-3.5 3.5zm0-6c-1.378 0-2.5 1.122-2.5 2.5s1.122 2.5 2.5 2.5 2.5-1.122 2.5-2.5-1.122-2.5-2.5-2.5z"/><path d="m19.111 9.962c-.537-1.103-1.275-2.144-2.134-3.009-1.249-1.257-2.549-1.949-3.662-1.949-.195 0-.434.023-.687.099.365-1.051.638-2.295-.068-3.32-.408-.593-1.074-1.024-2.035-1.32-1.015-.312-2.331-.463-4.025-.463-3.584 0-6.5 2.916-6.5 6.5 0 4.435 1.738 6.5 5.469 6.5.682 0 1.32-.098 1.912-.292-.529.694-.973 1.378-1.203 2.088-.405 1.248-.093 2.407.955 3.542.598.648 1.577 1.091 2.995 1.354 1.131.21 2.521.307 4.373.307 1.722 0 3.151-.675 4.131-1.953.883-1.151 1.357-2.723 1.369-4.544.007-1.105-.3-2.329-.889-3.541zm-16.99.829c-.754-.875-1.121-2.279-1.121-4.291 0-3.033 2.467-5.5 5.5-5.5 1.57 0 2.826.141 3.731.419.727.223 1.234.537 1.505.931.567.824.11 2.019-.293 3.074-.128.335-.249.651-.33.941-1.064 3.792-2.91 5.635-5.644 5.635-1.552 0-2.647-.395-3.348-1.209zm12.379 8.209c-2.317 0-5.526-.139-6.632-1.339-.802-.87-1.03-1.658-.739-2.556.285-.879 1.046-1.811 1.851-2.796 1.102-1.35 2.351-2.879 2.848-4.793.393-1.513 1.216-1.513 1.487-1.513.82 0 1.924.618 2.952 1.654 1.673 1.685 2.746 3.976 2.733 5.839-.018 2.66-1.21 5.503-4.5 5.503z"/></svg>