<svg height="20" viewBox="0 0 20 20" width="20" xmlns="http://www.w3.org/2000/svg"><path d="m9.5 20c-2.538 0-4.923-.988-6.718-2.782s-2.782-4.18-2.782-6.717c0-2.538.988-4.923 2.782-6.718s4.18-2.783 6.718-2.783 4.923.988 6.718 2.783 2.782 4.18 2.782 6.718-.988 4.923-2.782 6.717-4.18 2.782-6.718 2.782zm0-18c-4.687 0-8.5 3.813-8.5 8.5s3.813 8.5 8.5 8.5 8.5-3.813 8.5-8.5-3.813-8.5-8.5-8.5z"/><path d="m13.5 15h-8c-.276 0-.5-.224-.5-.5v-2c0-.276.224-.5.5-.5h8c.276 0 .5.224.5.5v2c0 .276-.224.5-.5.5zm-7.5-1h7v-1h-7z"/><path d="m13.501 11s0 0-.001 0h-8c-.184 0-.354-.102-.441-.264s-.077-.36.025-.513l4-6c.093-.139.249-.223.416-.223s.323.084.416.223l3.987 5.981c.061.083.097.186.097.297 0 .276-.224.5-.5.5zm-7.067-1h6.131l-3.066-4.599-3.066 4.599z"/></svg>