<svg height="20" viewBox="0 0 20 20" width="20" xmlns="http://www.w3.org/2000/svg"><path d="m18.5 6h-1c-.276 0-.5.224-.5.5v1.5h-1v-1.5c0-.276-.224-.5-.5-.5h-1.5v-.5c0-.276-.224-.5-.5-.5h-3.5v-1h2.5c.276 0 .5-.224.5-.5s-.224-.5-.5-.5h-6c-.276 0-.5.224-.5.5s.224.5.5.5h2.5v1h-3.5c-.276 0-.5.224-.5.5v.5h-2.5c-.276 0-.5.224-.5.5v3.5h-1v-2.5c0-.276-.224-.5-.5-.5s-.5.224-.5.5v6c0 .276.224.5.5.5s.5-.224.5-.5v-2.5h1v3.5c0 .276.224.5.5.5h2.793l1.854 1.854c.094.094.221.146.354.146h8c.276 0 .5-.224.5-.5v-2.5h1v1.5c0 .276.224.5.5.5h1c.827 0 1.5-.673 1.5-1.5v-7c0-.827-.673-1.5-1.5-1.5zm.5 8.5c0 .276-.224.5-.5.5h-.5v-1.5c0-.276-.224-.5-.5-.5h-2c-.276 0-.5.224-.5.5v2.5h-7.293l-1.854-1.854c-.094-.094-.221-.146-.354-.146h-2.5v-7h2.5c.276 0 .5-.224.5-.5v-.5h7v.5c0 .276.224.5.5.5h1.5v1.5c0 .276.224.5.5.5h2c.276 0 .5-.224.5-.5v-1.5h.5c.276 0 .5.224.5.5v7z"/></svg>