<svg height="20" viewBox="0 0 20 20" width="20" xmlns="http://www.w3.org/2000/svg"><path d="m8 18.5v-5c0-.276.224-.5.5-.5s.5.224.5.5v5c0 .276.224.5.5.5h1c.276 0 .5-.224.5-.5v-5c0-.276.224-.5.5-.5s.5.224.5.5v5c0 .827-.673 1.5-1.5 1.5h-1c-.827 0-1.5-.673-1.5-1.5z"/><path d="m8 7.5v-5c0-.827.673-1.5 1.5-1.5h1c.827 0 1.5.673 1.5 1.5v5c0 .276-.224.5-.5.5s-.5-.224-.5-.5v-5c0-.276-.224-.5-.5-.5h-1c-.276 0-.5.224-.5.5v5c0 .276-.224.5-.5.5s-.5-.224-.5-.5z"/><path d="m14.354 13.854c.195-.195.195-.512 0-.707l-2.146-2.146h7.293c.276 0 .5-.224.5-.5s-.224-.5-.5-.5h-7.293l2.146-2.146c.195-.195.195-.512 0-.707s-.512-.195-.707 0l-3 3c-.098.098-.146.226-.146.354s.049.256.146.354l3 3c.195.195.512.195.707 0z"/><path d="m6.354 13.854 3-3c.195-.195.195-.512 0-.707l-3-3c-.195-.195-.512-.195-.707 0s-.195.512 0 .707l2.146 2.146h-7.293c-.276 0-.5.224-.5.5s.224.5.5.5h7.293l-2.146 2.146c-.098.098-.146.226-.146.354s.049.256.146.354c.195.195.512.195.707 0z"/></svg>