<svg height="20" viewBox="0 0 20 20" width="20" xmlns="http://www.w3.org/2000/svg"><path d="m10.646 7.146c-.195.195-.195.512 0 .707l2.146 2.146h-12.293c-.276 0-.5.224-.5.5s.224.5.5.5h12.293l-2.146 2.146c-.195.195-.195.512 0 .707s.512.195.707 0l3-3c.098-.098.146-.226.146-.354s-.049-.256-.146-.354l-3-3c-.195-.195-.512-.195-.707 0z"/><path d="m19 4.5v12c0 .827-.673 1.5-1.5 1.5h-10c-.827 0-1.5-.673-1.5-1.5v-4c0-.276.224-.5.5-.5s.5.224.5.5v4c0 .276.224.5.5.5h10c.276 0 .5-.224.5-.5v-12c0-.276-.224-.5-.5-.5h-10c-.276 0-.5.224-.5.5v4c0 .276-.224.5-.5.5s-.5-.224-.5-.5v-4c0-.827.673-1.5 1.5-1.5h10c.827 0 1.5.673 1.5 1.5z"/></svg>