<svg height="20" viewBox="0 0 20 20" width="20" xmlns="http://www.w3.org/2000/svg"><path d="m17.5 2h-9c-.827 0-1.5.673-1.5 1.5v3c0 .276.224.5.5.5s.5-.224.5-.5v-3c0-.276.224-.5.5-.5h7.564l-3.842 1.647c-.685.294-1.222 1.108-1.222 1.853v9.5h-2.5c-.276 0-.5-.224-.5-.5v-3c0-.276-.224-.5-.5-.5s-.5.224-.5.5v3c0 .827.673 1.5 1.5 1.5h2.5v1.5c0 .433.18.801.495 1.008.174.114.376.172.589.172.173 0 .354-.038.532-.114l5.162-2.212c.685-.294 1.222-1.108 1.222-1.854v-12c0-.827-.673-1.5-1.5-1.5zm.5 13.5c0 .351-.294.796-.616.934l-5.162 2.212c-.096.041-.159.038-.177.027s-.045-.069-.045-.173v-12c0-.351.294-.796.616-.934l5.333-2.286c.033.066.051.141.051.22z"/><path d="m8.354 9.146-3-3c-.195-.195-.512-.195-.707 0s-.195.512 0 .707l2.146 2.146h-6.293c-.276 0-.5.224-.5.5s.224.5.5.5h6.293l-2.146 2.146c-.195.195-.195.512 0 .707.098.098.226.146.354.146s.256-.049.354-.146l3-3c.195-.195.195-.512 0-.707z"/></svg>