<svg height="20" viewBox="0 0 20 20" width="20" xmlns="http://www.w3.org/2000/svg"><path d="m0 18.5v-16c0-.827.673-1.5 1.5-1.5h1c.827 0 1.5.673 1.5 1.5v5c0 .276-.224.5-.5.5s-.5-.224-.5-.5v-5c0-.276-.224-.5-.5-.5h-1c-.276 0-.5.224-.5.5v16c0 .276.224.5.5.5h1c.276 0 .5-.224.5-.5v-5c0-.276.224-.5.5-.5s.5.224.5.5v5c0 .827-.673 1.5-1.5 1.5h-1c-.827 0-1.5-.673-1.5-1.5z"/><path d="m8.353 15.853c.195-.195.195-.512 0-.707l-4.146-4.146h14.293c.276 0 .5-.224.5-.5s-.224-.5-.5-.5h-14.293l4.146-4.146c.195-.195.195-.512 0-.707s-.512-.195-.707 0l-5 5c-.098.098-.146.226-.146.354s.049.256.147.354l5 5c.195.195.512.195.707 0z"/></svg>