<svg height="20" viewBox="0 0 20 20" width="20" xmlns="http://www.w3.org/2000/svg"><path d="m17.5 12h-5c-.276 0-.5-.224-.5-.5s.224-.5.5-.5h5c.276 0 .5-.224.5-.5v-1c0-.276-.224-.5-.5-.5h-5c-.276 0-.5-.224-.5-.5s.224-.5.5-.5h5c.827 0 1.5.673 1.5 1.5v1c0 .827-.673 1.5-1.5 1.5z"/><path d="m6.5 12h-5c-.827 0-1.5-.673-1.5-1.5v-1c0-.827.673-1.5 1.5-1.5h5c.276 0 .5.224.5.5s-.224.5-.5.5h-5c-.276 0-.5.224-.5.5v1c0 .276.224.5.5.5h5c.276 0 .5.224.5.5s-.224.5-.5.5z"/><path d="m12.854 5.646c-.195-.195-.512-.195-.707 0l-2.146 2.146v-7.293c0-.276-.224-.5-.5-.5s-.5.224-.5.5v7.293l-2.146-2.146c-.195-.195-.512-.195-.707 0s-.195.512 0 .707l3 3c.098.098.226.146.354.146s.256-.049.354-.146l3-3c.195-.195.195-.512 0-.707z"/><path d="m12.854 13.646-3-3c-.195-.195-.512-.195-.707 0l-3 3c-.195.195-.195.512 0 .707s.512.195.707 0l2.146-2.146v7.293c0 .276.224.5.5.5s.5-.224.5-.5v-7.293l2.146 2.146c.098.098.226.146.354.146s.256-.049.354-.146c.195-.195.195-.512 0-.707z"/></svg>