<svg height="20" viewBox="0 0 20 20" width="20" xmlns="http://www.w3.org/2000/svg"><path d="m17.907 5.552-7.293-4.457c-.304-.186-.7-.288-1.114-.288s-.81.102-1.114.288l-7.293 4.457c-.623.381-1.093 1.218-1.093 1.948v9c0 .827.673 1.5 1.5 1.5h16c.827 0 1.5-.673 1.5-1.5v-9c0-.73-.47-1.567-1.093-1.948zm-16.293.853 7.293-4.457c.147-.09.363-.142.593-.142s.445.052.593.142l7.293 4.457c.155.095.304.266.416.459l-7.747 5.165c-.29.193-.819.193-1.109 0l-7.747-5.165c.112-.194.261-.365.416-.459zm15.886 10.595h-16c-.276 0-.5-.224-.5-.5v-8.566l7.391 4.927c.311.207.71.311 1.109.311s.798-.104 1.109-.311l7.391-4.927v8.566c0 .276-.224.5-.5.5z"/></svg>