<svg height="20" viewBox="0 0 20 20" width="20" xmlns="http://www.w3.org/2000/svg"><path d="m2.5 20c-.276 0-.5-.224-.5-.5v-8c0-.276.224-.5.5-.5s.5.224.5.5v8c0 .276-.224.5-.5.5z"/><path d="m2.5 6c-.276 0-.5-.224-.5-.5v-5c0-.276.224-.5.5-.5s.5.224.5.5v5c0 .276-.224.5-.5.5z"/><path d="m3.5 10h-2c-.827 0-1.5-.673-1.5-1.5s.673-1.5 1.5-1.5h2c.827 0 1.5.673 1.5 1.5s-.673 1.5-1.5 1.5zm-2-2c-.276 0-.5.224-.5.5s.224.5.5.5h2c.276 0 .5-.224.5-.5s-.224-.5-.5-.5z"/><path d="m9.5 20c-.276 0-.5-.224-.5-.5v-4c0-.276.224-.5.5-.5s.5.224.5.5v4c0 .276-.224.5-.5.5z"/><path d="m9.5 10c-.276 0-.5-.224-.5-.5v-9c0-.276.224-.5.5-.5s.5.224.5.5v9c0 .276-.224.5-.5.5z"/><path d="m10.5 14h-2c-.827 0-1.5-.673-1.5-1.5s.673-1.5 1.5-1.5h2c.827 0 1.5.673 1.5 1.5s-.673 1.5-1.5 1.5zm-2-2c-.276 0-.5.224-.5.5s.224.5.5.5h2c.276 0 .5-.224.5-.5s-.224-.5-.5-.5z"/><path d="m16.5 20c-.276 0-.5-.224-.5-.5v-10c0-.276.224-.5.5-.5s.5.224.5.5v10c0 .276-.224.5-.5.5z"/><path d="m16.5 4c-.276 0-.5-.224-.5-.5v-3c0-.276.224-.5.5-.5s.5.224.5.5v3c0 .276-.224.5-.5.5z"/><path d="m17.5 8h-2c-.827 0-1.5-.673-1.5-1.5s.673-1.5 1.5-1.5h2c.827 0 1.5.673 1.5 1.5s-.673 1.5-1.5 1.5zm-2-2c-.276 0-.5.224-.5.5s.224.5.5.5h2c.276 0 .5-.224.5-.5s-.224-.5-.5-.5z"/></svg>