<svg height="20" viewBox="0 0 20 20" width="20" xmlns="http://www.w3.org/2000/svg"><path d="m19.715 6.913c-.026-.155-.077-.305-.155-.446-.114-.209-.276-.38-.472-.506-.002-.001-.003-.002-.005-.003-.01-.007-.021-.013-.032-.02-.096-.059-.205-.108-.327-.145-.024-.007-.049-.014-.074-.021l-6.06-1.515c-.162-.04-.34-.061-.53-.061-.599 0-1.25.205-1.658.523l-7.421 5.772c-.51.396-1.069 1.187-1.273 1.799l-1.368 4.103c-.129.386-.094.791.098 1.14s.515.596.909.694l6.06 1.515c.162.04.34.061.53.061.474 0 .981-.129 1.374-.341.091-.046.186-.106.284-.182l7.421-5.772c.51-.396 1.069-1.187 1.273-1.799l1.368-4.103c.092-.275.111-.504.057-.694zm-7.653-1.716c.107 0 .206.011.287.031l6.033 1.508-7.4 5.755c-.236.184-.666.312-1.044.312-.107 0-.206-.011-.287-.031l-6.033-1.508 7.4-5.755c.236-.184.666-.312 1.044-.312zm-10.746 11.855c-.056-.102-.065-.224-.026-.343l1.368-4.103c.092-.276.408-.45.691-.379l6.06 1.515c.121.03.219.103.275.205s.065.224.026.343l-1.368 4.103c-.092.276-.409.45-.691.379l-1.03-.257-5.03-1.257c-.121-.03-.219-.103-.275-.206zm15.088-4.333-6.907 5.372 1.162-3.485c.143-.429.581-1.049.938-1.326l6.907-5.372-1.162 3.485c-.143.429-.581 1.048-.938 1.326z"/></svg>