<svg height="20" viewBox="0 0 20 20" width="20" xmlns="http://www.w3.org/2000/svg"><path d="m7.853 6.854c.037-.037.069-.08.094-.13.123-.247.023-.547-.224-.671l-2-1c-.247-.123-.547-.023-.671.224s-.023.547.224.671l.49.245c-.457.257-.767.747-.767 1.308 0 .827.673 1.5 1.5 1.5s1.5-.673 1.5-1.5c0-.231-.053-.451-.147-.646zm-1.353 1.146c-.276 0-.5-.224-.5-.5s.224-.5.5-.5.5.224.5.5-.224.5-.5.5z"/><path d="m13.233 6.192.49-.245c.247-.123.347-.424.224-.671s-.424-.347-.671-.224l-2 1c-.247.123-.347.424-.224.671.025.049.057.093.094.13-.094.196-.147.415-.147.646 0 .827.673 1.5 1.5 1.5s1.5-.673 1.5-1.5c0-.561-.31-1.05-.767-1.308zm-.733 1.808c-.276 0-.5-.224-.5-.5s.224-.5.5-.5.5.224.5.5-.224.5-.5.5z"/><path d="m17.613 5.552c.378-.566.707-1.494 1-2.816.252-1.138.378-2.132.383-2.174.028-.222-.096-.436-.302-.523s-.446-.026-.585.149c-.49.616-1.887 2.205-2.88 2.732-1.641-1.246-3.633-1.92-5.729-1.92s-4.088.675-5.729 1.92c-.992-.527-2.389-2.116-2.88-2.732-.14-.175-.379-.236-.585-.149s-.33.301-.302.523c.005.042.131 1.036.383 2.174.293 1.322.622 2.25 1 2.816-.903 1.475-1.387 3.174-1.387 4.948 0 2.538.988 4.923 2.783 6.717s4.18 2.782 6.717 2.782 4.923-.988 6.717-2.782 2.782-4.18 2.782-6.717c0-1.774-.483-3.473-1.387-4.948zm.106-3.412c-.19.927-.446 1.881-.739 2.501-.235-.299-.489-.586-.763-.859-.061-.061-.123-.121-.186-.181.582-.382 1.185-.942 1.687-1.462zm-16.438.001c.502.52 1.105 1.079 1.687 1.461-.063.059-.124.119-.186.181-.273.273-.527.56-.763.859-.292-.62-.548-1.574-.739-2.501zm8.219 16.859c-4.687 0-8.5-3.813-8.5-8.5s3.813-8.5 8.5-8.5 8.5 3.813 8.5 8.5-3.813 8.5-8.5 8.5z"/><path d="m9.5 16c-.88 0-1.721-.202-2.499-.599-.742-.379-1.399-.933-1.901-1.6-.166-.221-.121-.534.099-.7s.534-.121.7.099c.859 1.144 2.172 1.8 3.601 1.8s2.741-.656 3.601-1.8c.166-.221.479-.265.7-.099s.265.479.099.7c-.502.668-1.159 1.221-1.901 1.6-.778.398-1.619.599-2.499.599z"/></svg>