<svg height="20" viewBox="0 0 20 20" width="20" xmlns="http://www.w3.org/2000/svg"><path d="m10 7h1v1h-1z"/><path d="m11.016 8.016h-1.031v-1.031h1.031zm-1-.032h.969v-.969h-.969z"/><path d="m8 7h1v1h-1z"/><path d="m9.016 8.016h-1.031v-1.031h1.031zm-1-.032h.969v-.969h-.969z"/><path d="m6 7h1v1h-1z"/><path d="m7.016 8.016h-1.031v-1.031h1.031zm-1-.032h.969v-.969h-.969z"/><path d="m6 9h1v1h-1z"/><path d="m7.016 10.016h-1.031v-1.031h1.031zm-1-.032h.969v-.969h-.969z"/><path d="m6 11h1v1h-1z"/><path d="m7.016 12.016h-1.031v-1.031h1.031zm-1-.032h.969v-.969h-.969z"/><path d="m8 13h1v1h-1z"/><path d="m9.016 14.016h-1.031v-1.031h1.031zm-1-.032h.969v-.969h-.969z"/><path d="m10 13h1v1h-1z"/><path d="m11.016 14.016h-1.031v-1.031h1.031zm-1-.032h.969v-.969h-.969z"/><path d="m12 13h1v1h-1z"/><path d="m13.016 14.016h-1.031v-1.031h1.031zm-1-.032h.969v-.969h-.969z"/><path d="m12 11h1v1h-1z"/><path d="m13.016 12.016h-1.031v-1.031h1.031zm-1-.032h.969v-.969h-.969z"/><path d="m12 9h1v1h-1z"/><path d="m13.016 10.016h-1.031v-1.031h1.031zm-1-.032h.969v-.969h-.969z"/><path d="m12 7h1v1h-1z"/><path d="m1.5 13c-.276 0-.5-.224-.5-.5v-10c0-.276.224-.5.5-.5h10c.276 0 .5.224.5.5v3.5h1v-3.5c0-.827-.673-1.5-1.5-1.5h-10c-.827 0-1.5.673-1.5 1.5v10c0 .827.673 1.5 1.5 1.5h3.5v-1z"/><path d="m6 13h1v1h-1z"/><path d="m17.5 7h-3.5v1h3.5c.276 0 .5.224.5.5v10c0 .276-.224.5-.5.5h-10c-.276 0-.5-.224-.5-.5v-3.5h-1v3.5c0 .827.673 1.5 1.5 1.5h10c.827 0 1.5-.673 1.5-1.5v-10c0-.827-.673-1.5-1.5-1.5z"/></svg>