<svg height="20" viewBox="0 0 20 20" width="20" xmlns="http://www.w3.org/2000/svg"><path d="m11.5 8c.276 0 .5-.224.5-.5v-4c0-.827-.673-1.5-1.5-1.5h-9c-.827 0-1.5.673-1.5 1.5v12c0 .746.537 1.56 1.222 1.853l5.162 2.212c.178.076.359.114.532.114.213 0 .416-.058.589-.172.314-.207.495-.575.495-1.008v-1.5h2.5c.827 0 1.5-.673 1.5-1.5v-4c0-.276-.224-.5-.5-.5s-.5.224-.5.5v4c0 .276-.224.5-.5.5h-2.5v-9.5c0-.746-.537-1.56-1.222-1.853l-3.842-1.647h7.564c.276 0 .5.224.5.5v4c0 .276.224.5.5.5zm-5.116-2.434c.322.138.616.584.616.934v12c0 .104-.028.162-.045.173s-.081.014-.177-.027l-5.162-2.212c-.322-.138-.616-.583-.616-.934v-12c0-.079.018-.153.051-.22z"/><path d="m18.354 9.146-3-3c-.195-.195-.512-.195-.707 0s-.195.512 0 .707l2.146 2.146h-6.293c-.276 0-.5.224-.5.5s.224.5.5.5h6.293l-2.146 2.146c-.195.195-.195.512 0 .707.098.098.226.146.354.146s.256-.049.354-.146l3-3c.195-.195.195-.512 0-.707z"/></svg>