<svg height="20" viewBox="0 0 20 20" width="20" xmlns="http://www.w3.org/2000/svg"><path d="m15.5 0h-12c-.827 0-1.5.673-1.5 1.5v10c0 .827.673 1.5 1.5 1.5h4c.276 0 .5-.224.5-.5s-.224-.5-.5-.5h-4c-.276 0-.5-.224-.5-.5v-10c0-.276.224-.5.5-.5h12c.276 0 .5.224.5.5v10c0 .276-.224.5-.5.5h-4c-.276 0-.5.224-.5.5s.224.5.5.5h4c.827 0 1.5-.673 1.5-1.5v-10c0-.827-.673-1.5-1.5-1.5z"/><path d="m12.853 16.354-3 3c-.195.195-.512.195-.707 0l-3-3c-.195-.195-.195-.512 0-.707s.512-.195.707 0l2.147 2.146v-11.293c0-.276.224-.5.5-.5s.5.224.5.5v11.293l2.147-2.146c.098-.098.226-.146.353-.146s.256.049.353.146c.195.195.195.512 0 .707z"/></svg>