<svg height="20" viewBox="0 0 20 20" width="20" xmlns="http://www.w3.org/2000/svg"><path d="m17.5 18h-16c-.827 0-1.5-.673-1.5-1.5v-12c0-.827.673-1.5 1.5-1.5h16c.827 0 1.5.673 1.5 1.5v12c0 .827-.673 1.5-1.5 1.5zm-16-14c-.276 0-.5.224-.5.5v12c0 .276.224.5.5.5h16c.276 0 .5-.224.5-.5v-12c0-.276-.224-.5-.5-.5z"/><path d="m11.854 6.646-2-2c-.195-.195-.512-.195-.707 0l-2 2c-.195.195-.195.512 0 .707s.512.195.707 0l1.146-1.146v2.293c0 .276.224.5.5.5s.5-.224.5-.5v-2.293l1.146 1.146c.098.098.226.146.354.146s.256-.049.354-.146c.195-.195.195-.512 0-.707z"/><path d="m11.854 13.646c-.195-.195-.512-.195-.707 0l-1.146 1.146v-2.293c0-.276-.224-.5-.5-.5s-.5.224-.5.5v2.293l-1.146-1.146c-.195-.195-.512-.195-.707 0s-.195.512 0 .707l2 2c.098.098.226.146.354.146s.256-.049.354-.146l2-2c.195-.195.195-.512 0-.707z"/><path d="m17.354 10.146-2-2c-.195-.195-.512-.195-.707 0s-.195.512 0 .707l1.146 1.146h-2.293c-.276 0-.5.224-.5.5s.224.5.5.5h2.293l-1.146 1.146c-.195.195-.195.512 0 .707.098.098.226.146.354.146s.256-.049.354-.146l2-2c.195-.195.195-.512 0-.707z"/><path d="m5.5 10h-2.293l1.146-1.146c.195-.195.195-.512 0-.707s-.512-.195-.707 0l-2 2c-.195.195-.195.512 0 .707l2 2c.098.098.226.146.354.146s.256-.049.354-.146c.195-.195.195-.512 0-.707l-1.146-1.146h2.293c.276 0 .5-.224.5-.5s-.224-.5-.5-.5z"/></svg>