<svg height="20" viewBox="0 0 20 20" width="20" xmlns="http://www.w3.org/2000/svg"><path d="m7.854 7.146-6.146-6.146h3.793c.276 0 .5-.224.5-.5s-.224-.5-.5-.5h-5c-.276 0-.5.224-.5.5v5c0 .276.224.5.5.5s.5-.224.5-.5v-3.793l6.146 6.146c.098.098.226.146.354.146s.256-.049.354-.146c.195-.195.195-.512 0-.707z"/><path d="m19.5 0h-5c-.276 0-.5.224-.5.5s.224.5.5.5h3.793l-6.146 6.146c-.195.195-.195.512 0 .707.098.098.226.146.353.146s.256-.049.353-.146l6.147-6.146v3.793c0 .276.224.5.5.5s.5-.224.5-.5v-5c0-.276-.224-.5-.5-.5z"/><path d="m7.854 12.147c-.195-.195-.512-.195-.707 0l-6.146 6.146v-3.793c0-.276-.224-.5-.5-.5s-.5.224-.5.5v5c0 .276.224.5.5.5h5c.276 0 .5-.224.5-.5s-.224-.5-.5-.5h-3.793l6.146-6.147c.195-.195.195-.512 0-.707z"/><path d="m19.5 14c-.276 0-.5.224-.5.5v3.793l-6.147-6.146c-.195-.195-.512-.195-.707 0s-.195.512 0 .707l6.147 6.146h-3.793c-.276 0-.5.224-.5.5s.224.5.5.5h5c.276 0 .5-.224.5-.5v-5c0-.276-.224-.5-.5-.5z"/></svg>