<svg height="20" viewBox="0 0 20 20" width="20" xmlns="http://www.w3.org/2000/svg"><path d="m19 3.975c0-.795-.309-1.542-.871-2.104s-1.309-.871-2.104-.871-1.542.309-2.104.871l-3.422 3.422-.646-.646c-.195-.195-.512-.195-.707 0s-.195.512 0 .707l1.146 1.146-7.115 7.115c-.389.389-.619.904-.658 1.443-.872.216-1.52 1.004-1.52 1.942 0 1.103.897 2 2 2 .937 0 1.726-.648 1.942-1.52.539-.039 1.055-.269 1.443-.658l7.115-7.115 1.146 1.146c.098.098.226.146.354.146s.256-.049.354-.146c.195-.195.195-.512 0-.707l-.646-.646 3.422-3.422c.562-.562.871-1.309.871-2.104zm-13.322 12.14c-.287.287-.698.42-1.099.355-.147-.024-.296.019-.408.117s-.175.24-.171.389v.024c0 .551-.449 1-1 1s-1-.449-1-1 .449-1 1-1h.024c.148.003.291-.059.388-.171s.14-.261.117-.408c-.064-.401.068-.812.355-1.099l7.115-7.115 1.793 1.793-7.115 7.115zm11.744-10.744-3.422 3.422-2.793-2.793 3.422-3.422c.373-.373.869-.578 1.396-.578s1.023.205 1.396.578.578.869.578 1.396-.205 1.023-.578 1.396z"/></svg>