<svg height="20" viewBox="0 0 20 20" width="20" xmlns="http://www.w3.org/2000/svg"><path d="m19.872 10.166c-.047-.053-1.182-1.305-2.956-2.572-.6-.429-1.202-.807-1.801-1.134l1.725-1.592c.203-.187.216-.504.028-.707s-.504-.216-.707-.028l-2.003 1.849c-.124-.056-.248-.11-.372-.162-1.305-.544-2.579-.82-3.786-.82s-2.481.276-3.786.82c-1.03.429-2.083 1.026-3.13 1.773-1.774 1.267-2.909 2.52-2.956 2.572-.171.19-.171.479 0 .669.047.053 1.182 1.305 2.956 2.572.6.429 1.202.807 1.801 1.134l-1.725 1.592c-.203.187-.216.504-.028.707.099.107.233.161.368.161.121 0 .243-.044.339-.133l2.003-1.849c.124.056.248.11.372.162 1.305.544 2.579.82 3.786.82s2.481-.276 3.786-.82c1.03-.429 2.083-1.026 3.13-1.773 1.774-1.267 2.909-2.52 2.956-2.572.171-.19.171-.479 0-.669zm-5.872-.666c0 2.206-1.794 4-4 4-.711 0-1.378-.187-1.957-.513l5.592-5.162c.238.517.366 1.086.366 1.674zm-1.426-3.062c.191.161.364.337.52.525l-5.867 5.416c-.756-.728-1.227-1.75-1.227-2.88 0-1.188.519-2.298 1.426-3.062.822-.268 1.691-.438 2.574-.438s1.752.17 2.574.438zm-8.891 6.168c-1.157-.824-2.042-1.658-2.489-2.106.447-.448 1.332-1.281 2.489-2.106.53-.378 1.156-.78 1.85-1.145-.347.688-.533 1.455-.533 2.251 0 1.391.571 2.651 1.491 3.558l-.825.762c-.747-.383-1.419-.813-1.983-1.214zm12.634 0c-1.533 1.092-3.873 2.394-6.317 2.394-1.166 0-2.309-.297-3.352-.726l.63-.582c.784.51 1.718.808 2.721.808 2.757 0 5-2.243 5-5 0-.796-.186-1.563-.533-2.251.694.365 1.32.768 1.85 1.145 1.157.824 2.042 1.658 2.489 2.106-.447.448-1.332 1.281-2.489 2.106z"/></svg>