<svg height="20" viewBox="0 0 20 20" width="20" xmlns="http://www.w3.org/2000/svg"><path d="m19.872 9.166c-.047-.053-1.182-1.305-2.956-2.572-1.047-.748-2.1-1.344-3.13-1.773-.264-.11-.526-.208-.787-.296-.019-.008-.038-.014-.057-.019-1.01-.335-1.997-.505-2.942-.505s-1.932.17-2.943.505c-.019.005-.038.011-.057.019-.261.088-.523.186-.787.296-1.03.429-2.083 1.026-3.13 1.773-1.774 1.267-2.909 2.52-2.956 2.572-.171.19-.171.479 0 .669.044.049 1.105 1.22 2.778 2.444.986.721 1.982 1.31 2.958 1.751 1.237.558 2.449.878 3.603.954.011.001.022.001.033.001.261 0 .481-.203.498-.468.018-.276-.191-.513-.466-.531-2.351-.153-4.57-1.445-6.019-2.501-1.074-.783-1.895-1.558-2.32-1.984.447-.448 1.332-1.281 2.489-2.106.53-.378 1.156-.78 1.85-1.145-.347.688-.533 1.455-.533 2.251 0 1.239.456 2.427 1.285 3.346.822.912 1.945 1.489 3.16 1.623.019.002.037.003.056.003.252 0 .468-.189.496-.445.03-.274-.168-.522-.442-.552-2.027-.224-3.555-1.933-3.555-3.976 0-1.188.519-2.299 1.426-3.062.822-.268 1.691-.438 2.574-.438s1.752.17 2.574.438c.907.763 1.426 1.873 1.426 3.062 0 .3-.033.6-.099.889-.061.269.108.537.377.598.037.008.074.012.111.012.228 0 .434-.157.487-.389.082-.362.124-.736.124-1.111 0-.796-.186-1.563-.533-2.251.694.365 1.32.768 1.85 1.145 1.157.825 2.043 1.658 2.49 2.106-.161.161-.378.372-.643.613-.204.186-.219.502-.033.706s.502.219.706.033c.647-.589 1.02-1.001 1.035-1.019.171-.19.171-.479 0-.669z"/><path d="m17.5 15h-1.5v-1.5c0-.276-.224-.5-.5-.5s-.5.224-.5.5v1.5h-1.5c-.276 0-.5.224-.5.5s.224.5.5.5h1.5v1.5c0 .276.224.5.5.5s.5-.224.5-.5v-1.5h1.5c.276 0 .5-.224.5-.5s-.224-.5-.5-.5z"/><path d="m15.5 20c-2.481 0-4.5-2.019-4.5-4.5s2.019-4.5 4.5-4.5 4.5 2.019 4.5 4.5-2.019 4.5-4.5 4.5zm0-8c-1.93 0-3.5 1.57-3.5 3.5s1.57 3.5 3.5 3.5 3.5-1.57 3.5-3.5-1.57-3.5-3.5-3.5z"/></svg>