<svg height="20" viewBox="0 0 20 20" width="20" xmlns="http://www.w3.org/2000/svg"><path d="m19.872 10.166c-.047-.053-1.182-1.305-2.956-2.572-1.047-.748-2.1-1.344-3.13-1.773-1.305-.544-2.579-.82-3.786-.82s-2.481.276-3.786.82c-1.03.429-2.083 1.026-3.13 1.773-1.774 1.267-2.909 2.52-2.956 2.572-.171.19-.171.479 0 .669.047.053 1.182 1.305 2.956 2.572 1.047.748 2.1 1.344 3.13 1.773 1.305.544 2.579.82 3.786.82s2.481-.276 3.786-.82c1.03-.429 2.083-1.026 3.13-1.773 1.774-1.267 2.909-2.52 2.956-2.572.171-.19.171-.479 0-.669zm-7.298-3.728c.907.763 1.426 1.873 1.426 3.062 0 2.206-1.794 4-4 4s-4-1.794-4-4c0-1.188.519-2.299 1.426-3.062.822-.268 1.691-.438 2.574-.438s1.752.17 2.574.438zm3.743 6.168c-1.533 1.092-3.873 2.394-6.317 2.394s-4.784-1.302-6.317-2.394c-1.157-.824-2.042-1.658-2.489-2.106.447-.448 1.332-1.281 2.489-2.106.53-.378 1.156-.78 1.85-1.145-.347.688-.533 1.455-.533 2.251 0 2.757 2.243 5 5 5s5-2.243 5-5c0-.796-.186-1.563-.533-2.251.694.365 1.32.768 1.85 1.145 1.157.824 2.042 1.658 2.489 2.106-.447.448-1.332 1.281-2.489 2.106z"/></svg>