<svg height="20" viewBox="0 0 20 20" width="20" xmlns="http://www.w3.org/2000/svg"><path d="m5.5 6c-1.378 0-2.5-1.122-2.5-2.5s1.122-2.5 2.5-2.5 2.5 1.122 2.5 2.5-1.122 2.5-2.5 2.5zm0-4c-.827 0-1.5.673-1.5 1.5s.673 1.5 1.5 1.5 1.5-.673 1.5-1.5-.673-1.5-1.5-1.5z"/><path d="m6.5 11h-4c-.425 0-.796-.177-1.019-.486s-.273-.717-.139-1.12c.022-.065.229-.649.849-1.232.564-.53 1.596-1.161 3.309-1.161.38 0 .746.031 1.088.092.272.049.453.309.404.58s-.309.453-.58.404c-.284-.051-.591-.077-.912-.077-2.609 0-3.204 1.692-3.209 1.709-.031.093-.03.175.002.22s.11.071.208.071h4c.276 0 .5.224.5.5s-.224.5-.5.5z"/><path d="m2.5 7h-1c-.276 0-.5-.224-.5-.5v-6c0-.276.224-.5.5-.5h1c.276 0 .5.224.5.5s-.224.5-.5.5h-.5v5h.5c.276 0 .5.224.5.5s-.224.5-.5.5z"/><path d="m9.5 7h-1c-.276 0-.5-.224-.5-.5s.224-.5.5-.5h.5v-5h-.5c-.276 0-.5-.224-.5-.5s.224-.5.5-.5h1c.276 0 .5.224.5.5v6c0 .276-.224.5-.5.5z"/><path d="m13 15c-1.654 0-3-1.346-3-3s1.346-3 3-3 3 1.346 3 3-1.346 3-3 3zm0-5c-1.103 0-2 .897-2 2s.897 2 2 2 2-.897 2-2-.897-2-2-2z"/><path d="m17.5 16h-1c-.276 0-.5-.224-.5-.5s.224-.5.5-.5h.5v-6h-.5c-.276 0-.5-.224-.5-.5s.224-.5.5-.5h1c.276 0 .5.224.5.5v7c0 .276-.224.5-.5.5z"/><path d="m9.5 16h-1c-.276 0-.5-.224-.5-.5v-7c0-.276.224-.5.5-.5h1c.276 0 .5.224.5.5s-.224.5-.5.5h-.5v6h.5c.276 0 .5.224.5.5s-.224.5-.5.5z"/><path d="m16.5 20h-7c-.425 0-.796-.177-1.019-.486s-.273-.717-.139-1.12c.033-.098.842-2.393 4.658-2.393s4.626 2.296 4.658 2.393c.134.403.084.811-.139 1.12s-.594.486-1.019.486zm-7.211-1.286c-.03.091-.029.172.003.215s.11.071.208.071h7c.098 0 .176-.027.208-.071s.033-.124.003-.215c-.011-.029-.175-.442-.679-.847-.704-.567-1.752-.866-3.032-.866s-2.327.3-3.032.866c-.504.406-.668.818-.679.847z"/></svg>