<svg height="20" viewBox="0 0 20 20" width="20" xmlns="http://www.w3.org/2000/svg"><path d="m18.5 20h-17c-.407 0-.78-.161-1.051-.453s-.402-.677-.371-1.082l.846-11.003c.02-.261.237-.462.499-.462h2.077c.252 0 .465.188.496.438l.905 7.238 4.342-2.605c.154-.093.347-.095.504-.006s.254.255.254.435v2.117l4.243-2.546c.154-.093.347-.095.504-.006s.254.255.254.435v2.117l4.243-2.546c.154-.093.347-.095.504-.006s.254.255.254.435v6c0 .827-.673 1.5-1.5 1.5zm-16.614-12-.811 10.541c-.01.125.029.241.108.326s.192.133.317.133h17c.276 0 .5-.224.5-.5v-5.117l-4.243 2.546c-.154.093-.347.095-.504.006s-.254-.255-.254-.435v-2.117l-4.243 2.546c-.154.093-.347.095-.504.006s-.254-.255-.254-.435v-2.117l-4.243 2.546c-.145.087-.324.095-.476.021s-.256-.22-.277-.388l-.945-7.562h-1.173z"/><path d="m2.5 6c-.276 0-.5-.224-.5-.5 0-3.033 2.467-5.5 5.5-5.5 1.201 0 2.343.38 3.301 1.1.221.166.265.479.099.7s-.479.265-.7.099c-.783-.589-1.717-.9-2.7-.9-2.481 0-4.5 2.019-4.5 4.5 0 .276-.224.5-.5.5z"/><path d="m15.5 5c-1.201 0-2.343-.38-3.301-1.1-.221-.166-.265-.479-.099-.7s.479-.265.7-.099c.783.589 1.717.9 2.7.9 1.423 0 2.732-.652 3.592-1.789.167-.22.48-.264.7-.097s.264.48.097.7c-.502.664-1.158 1.214-1.898 1.59-.776.395-1.614.595-2.491.595z"/></svg>