<svg height="20" viewBox="0 0 20 20" width="20" xmlns="http://www.w3.org/2000/svg"><path d="m18.5 20h-17c-.407 0-.78-.161-1.051-.453s-.402-.677-.371-1.082l.846-11.003c.02-.261.237-.462.499-.462h2.077c.252 0 .465.188.496.438l.905 7.238 4.342-2.605c.154-.093.347-.095.504-.006s.254.255.254.435v2.117l4.243-2.546c.154-.093.347-.095.504-.006s.254.255.254.435v2.117l4.243-2.546c.154-.093.347-.095.504-.006s.254.255.254.435v6c0 .827-.673 1.5-1.5 1.5zm-16.614-12-.811 10.541c-.01.125.029.241.108.326s.192.133.317.133h17c.276 0 .5-.224.5-.5v-5.117l-4.243 2.546c-.154.093-.347.095-.504.006s-.254-.255-.254-.435v-2.117l-4.243 2.546c-.154.093-.347.095-.504.006s-.254-.255-.254-.435v-2.117l-4.243 2.546c-.145.087-.324.095-.476.021s-.256-.22-.277-.388l-.945-7.562h-1.173z"/><path d="m2.5 6c-.827 0-1.5-.673-1.5-1.5s.673-1.5 1.5-1.5 1.5.673 1.5 1.5-.673 1.5-1.5 1.5zm0-2c-.276 0-.5.224-.5.5s.224.5.5.5.5-.224.5-.5-.224-.5-.5-.5z"/><path d="m6 4c-1.122 0-2-.659-2-1.5s.878-1.5 2-1.5 2 .659 2 1.5-.878 1.5-2 1.5zm0-2c-.61 0-1 .296-1 .5s.39.5 1 .5 1-.296 1-.5-.39-.5-1-.5z"/><path d="m12 4c-1.682 0-3-.878-3-2s1.318-2 3-2 3 .878 3 2-1.318 2-3 2zm0-3c-1.145 0-2 .528-2 1s.855 1 2 1 2-.528 2-1-.855-1-2-1z"/></svg>