<svg height="20" viewBox="0 0 20 20" width="20" xmlns="http://www.w3.org/2000/svg"><path d="m9.5 19c-2.538 0-4.923-.988-6.718-2.782s-2.782-4.18-2.782-6.718.988-4.923 2.782-6.717 4.18-2.782 6.718-2.782 4.923.988 6.718 2.782 2.782 4.18 2.782 6.717-.988 4.923-2.782 6.718c-1.794 1.794-4.18 2.782-6.718 2.782zm0-18c-4.687 0-8.5 3.813-8.5 8.5s3.813 8.5 8.5 8.5 8.5-3.813 8.5-8.5-3.813-8.5-8.5-8.5z"/><path d="m15.914 8.439c-.127-.773-.39-1.509-.783-2.19-.138-.239-.444-.321-.683-.182s-.321.444-.182.683c.232.402.411.826.534 1.268-.098-.012-.197-.018-.298-.018h-3.001c-.042-.055-.086-.109-.132-.161 1.071-.821 1.633-1.964 1.633-3.339 0-1.378-1.122-2.5-2.5-2.5-.854 0-1.609.431-2.061 1.086-.773.127-1.509.39-2.19.783-.239.138-.321.444-.182.683.093.16.261.25.433.25.085 0 .171-.022.25-.067.402-.232.826-.411 1.268-.534-.012.098-.018.197-.018.298v3.001c-.055.042-.109.086-.161.132-.821-1.071-1.964-1.633-3.339-1.633-1.378 0-2.5 1.122-2.5 2.5 0 .854.431 1.609 1.086 2.061.127.773.39 1.509.783 2.19.093.16.261.25.433.25.085 0 .171-.022.25-.067.239-.138.321-.444.182-.683-.232-.402-.411-.826-.534-1.268.098.012.197.018.298.018h3.001c.042.055.086.109.132.161-1.071.821-1.633 1.963-1.633 3.339 0 1.378 1.122 2.5 2.5 2.5.854 0 1.609-.431 2.061-1.086.773-.127 1.509-.39 2.19-.783.239-.138.321-.444.182-.683s-.444-.321-.683-.182c-.402.232-.826.411-1.268.534.012-.098.018-.197.018-.298v-3.001c.055-.042.109-.086.161-.132.821 1.071 1.963 1.633 3.339 1.633 1.378 0 2.5-1.122 2.5-2.5 0-.854-.431-1.609-1.086-2.061zm-6.414 2.561c-.827 0-1.5-.673-1.5-1.5s.673-1.5 1.5-1.5 1.5.673 1.5 1.5-.673 1.5-1.5 1.5zm-.5-6.5c0-.827.673-1.5 1.5-1.5s1.5.673 1.5 1.5c0 1.158-.499 2.071-1.483 2.717-.311-.139-.655-.217-1.017-.217-.171 0-.338.017-.5.05zm-4.5 5.5c-.827 0-1.5-.673-1.5-1.5s.673-1.5 1.5-1.5c1.158 0 2.071.499 2.717 1.483-.139.311-.217.655-.217 1.017 0 .171.017.338.05.5zm5.5 4.5c0 .827-.673 1.5-1.5 1.5s-1.5-.673-1.5-1.5c0-1.158.499-2.071 1.483-2.717.311.139.655.217 1.017.217.171 0 .338-.017.5-.05zm4.5-2.5c-1.158 0-2.071-.499-2.717-1.483.139-.311.217-.655.217-1.017 0-.171-.017-.338-.05-.5h2.55c.827 0 1.5.673 1.5 1.5s-.673 1.5-1.5 1.5z"/></svg>