<svg height="20" viewBox="0 0 20 20" width="20" xmlns="http://www.w3.org/2000/svg"><path d="m.5 20c-.009 0-.018 0-.027-.001-.272-.014-.482-.243-.474-.515.118-3.655 1.096-6.94 2.907-9.762 1.487-2.317 3.53-4.321 6.072-5.955 2.426-1.559 4.83-2.468 6.421-2.956 1.827-.56 3.375-.811 4.1-.811.276 0 .5.224.5.5 0 1.207-1.154 2.361-1.646 2.854-.801.801-2.275 1.313-3.701 1.808-.447.155-.899.312-1.321.475 1.41-.123 2.806-.137 3.367-.137h.135c.186.002.355.106.44.271s.072.363-.035.516c-1.071 1.532-2.376 2.725-3.991 3.648-.757.433-1.595.634-2.638.634-.616 0-1.242-.07-1.847-.137-.593-.066-1.206-.134-1.797-.134-1.088 0-1.918.229-2.69.744-2.764 1.843-3.274 8.429-3.279 8.495-.019.263-.238.464-.498.464zm18.372-18.953c-1.728.211-5.634 1.171-9.352 3.561-1.909 1.227-4.018 3.008-5.662 5.513.898-.562 1.89-.824 3.109-.824.647 0 1.287.071 1.907.14.604.067 1.175.131 1.736.131.861 0 1.542-.16 2.142-.502 1.21-.692 2.201-1.516 3.062-2.556-1.249.028-3.387.127-4.685.473-.201.054-.414-.023-.535-.192s-.125-.395-.01-.568c.614-.92 2.133-1.448 3.741-2.006 1.319-.458 2.684-.932 3.322-1.57.288-.288.948-.948 1.226-1.6z"/></svg>