<svg height="20" viewBox="0 0 20 20" width="20" xmlns="http://www.w3.org/2000/svg"><path d="m4.501 15c-.017 0-.034-.001-.052-.003-.273-.028-.472-.271-.447-.544.239-2.52 1.062-4.786 2.449-6.734 1.138-1.599 2.649-2.982 4.493-4.11 3.19-1.952 6.524-2.609 7.556-2.609.276 0 .5.224.5.5 0 .944-.877 1.821-1.252 2.196-.611.611-1.712.993-2.777 1.363-.031.011-.062.022-.093.032.682-.034 1.269-.039 1.557-.039h.101c.186.002.355.106.44.271s.072.363-.035.516c-.8 1.145-1.776 2.037-2.983 2.727-.579.331-1.217.485-2.009.485-.462 0-.926-.052-1.375-.102-.433-.048-.881-.098-1.309-.098-.774 0-1.363.162-1.909.526-.017.012-.035.022-.054.031-.725.362-1.352 1.351-1.815 2.859-.367 1.196-.49 2.278-.491 2.289-.028.255-.245.445-.496.445zm13.304-12.932c-1.305.2-3.851.872-6.338 2.394-1.376.842-2.917 2.068-4.157 3.794.576-.275 1.211-.405 1.956-.405.484 0 .96.053 1.42.104.442.049.859.096 1.265.096.611 0 1.091-.112 1.513-.353.789-.451 1.45-.98 2.028-1.629-.928.029-2.277.11-3.125.336-.201.054-.414-.023-.535-.192s-.125-.395-.01-.568c.477-.715 1.616-1.111 2.823-1.53.958-.333 1.949-.677 2.398-1.126.158-.158.532-.532.763-.921z"/><path d="m7.568 16.925c-.006-.006-.568-.641-.568-1.425 0-.36-.193-.701-.544-.961-.222-.164-.535-.117-.699.105s-.117.535.105.699c.114.084.139.146.139.157 0 .017-.054.132-.309.26-.305.153-.739.24-1.191.24s-.885-.088-1.191-.24c-.256-.128-.309-.243-.309-.26 0-.008.016-.054.095-.122.209-.181.232-.496.051-.705s-.496-.232-.705-.051c-.364.315-.441.651-.441.878 0 .785-.564 1.42-.568 1.425-.543.593-.543 1.557 0 2.15.087.095.91.925 3.068.925s2.981-.83 3.068-.925c.543-.593.543-1.557 0-2.15zm-.737 1.474c-.006.006-.627.601-2.331.601-1.656 0-2.293-.566-2.336-.606-.19-.214-.188-.582.005-.793.022-.024.366-.405.604-.993.029.016.058.032.089.047.446.223 1.027.346 1.638.346s1.192-.123 1.638-.346c.03-.015.06-.031.089-.047.238.588.582.969.604.993.195.213.195.586 0 .799z"/></svg>