<svg height="20" viewBox="0 0 20 20" width="20" xmlns="http://www.w3.org/2000/svg"><path d="m.5 20c-.009 0-.018 0-.027-.001-.272-.015-.482-.244-.473-.515.118-3.655 1.096-6.94 2.907-9.762 1.487-2.317 3.53-4.321 6.072-5.955 2.426-1.559 4.83-2.468 6.421-2.956 1.827-.56 3.375-.811 4.1-.811.276 0 .5.224.5.5s-.224.5-.5.5c-1.166 0-5.697.855-9.98 3.608-1.885 1.212-3.965 2.963-5.6 5.419.567-.356 1.219-.581 1.971-.681.953-.127 1.955-.044 2.924.036 1.457.121 2.833.235 3.96-.329 1.866-.933 3.309-2.834 3.324-2.853.166-.221.479-.265.7-.099s.265.479.1.7c-.064.086-1.595 2.106-3.676 3.147-1.377.689-2.959.558-4.489.431-1.855-.154-3.607-.299-4.881.975-2.392 2.392-2.851 8.126-2.855 8.184-.02.262-.238.462-.498.462z"/><path d="m11.5 6c-.193 0-.377-.113-.459-.301-.11-.253.006-.548.26-.658 1.971-.855 6.436-2.041 7.199-2.041.276 0 .5.224.5.5s-.224.5-.5.5c-.528 0-4.793 1.088-6.801 1.959-.065.028-.132.041-.199.041z"/></svg>