<svg height="20" viewBox="0 0 20 20" width="20" xmlns="http://www.w3.org/2000/svg"><path d="m3 6.5c0 .276-.224.5-.5.5s-.5-.224-.5-.5.224-.5.5-.5.5.224.5.5z"/><path d="m10 6.5c0 .276-.224.5-.5.5s-.5-.224-.5-.5.224-.5.5-.5.5.224.5.5z"/><path d="m17 6.5c0 .276-.224.5-.5.5s-.5-.224-.5-.5.224-.5.5-.5.5.224.5.5z"/><path d="m18.854 2.646-2-2c-.195-.195-.512-.195-.707 0l-2 2c-.094.094-.146.221-.146.354v1h-2v-1c0-.133-.053-.26-.146-.354l-2-2c-.195-.195-.512-.195-.707 0l-2 2c-.094.094-.146.221-.146.354v1h-2v-1c0-.133-.053-.26-.146-.354l-2-2c-.195-.195-.512-.195-.707 0l-2 2c-.094.094-.146.221-.146.354v16.5c0 .276.224.5.5.5h4c.276 0 .5-.224.5-.5v-1.5h2v1.5c0 .276.224.5.5.5h4c.276 0 .5-.224.5-.5v-1.5h2v1.5c0 .276.224.5.5.5h4c.276 0 .5-.224.5-.5v-16.5c0-.133-.053-.26-.146-.354zm-6.854 6.354h2v4h-2zm2-4v3h-2v-3zm-9 4h2v4h-2zm2-4v3h-2v-3zm-3 14h-3v-15.793l1.5-1.5 1.5 1.5zm1-2v-3h2v3zm6 2h-3v-15.793l1.5-1.5 1.5 1.5zm1-2v-3h2v3zm6 2h-3v-15.793l1.5-1.5 1.5 1.5z"/><path d="m3 15.5c0 .276-.224.5-.5.5s-.5-.224-.5-.5.224-.5.5-.5.5.224.5.5z"/><path d="m10 15.5c0 .276-.224.5-.5.5s-.5-.224-.5-.5.224-.5.5-.5.5.224.5.5z"/><path d="m17 15.5c0 .276-.224.5-.5.5s-.5-.224-.5-.5.224-.5.5-.5.5.224.5.5z"/></svg>