<svg height="20" viewBox="0 0 20 20" width="20" xmlns="http://www.w3.org/2000/svg"><path d="m17.854 5.646-4.5-4.5c-.094-.094-.221-.146-.354-.146h-9.5c-.827 0-1.5.673-1.5 1.5v16c0 .827.673 1.5 1.5 1.5h13c.827 0 1.5-.673 1.5-1.5v-12.5c0-.133-.053-.26-.146-.354zm-1.061.354h-3.293c-.276 0-.5-.224-.5-.5v-3.293zm-.293 13h-13c-.276 0-.5-.224-.5-.5v-16c0-.276.224-.5.5-.5h8.5v3.5c0 .827.673 1.5 1.5 1.5h3.5v11.5c0 .276-.224.5-.5.5z"/><path d="m12 12.086v-1.086c0-1.103-.897-2-2-2s-2 .897-2 2v1.086c-.582.206-1 .762-1 1.414v2c0 .827.673 1.5 1.5 1.5h3c.827 0 1.5-.673 1.5-1.5v-2c0-.652-.418-1.208-1-1.414zm-2-2.086c.551 0 1 .449 1 1v1h-2v-1c0-.551.449-1 1-1zm2 5.5c0 .276-.224.5-.5.5h-3c-.276 0-.5-.224-.5-.5v-2c0-.276.224-.5.5-.5h3c.276 0 .5.224.5.5z"/></svg>