<svg height="20" viewBox="0 0 20 20" width="20" xmlns="http://www.w3.org/2000/svg"><path d="m17.854 5.646-4.5-4.5c-.094-.094-.221-.146-.354-.146h-9.5c-.827 0-1.5.673-1.5 1.5v6c0 .276.224.5.5.5s.5-.224.5-.5v-6c0-.276.224-.5.5-.5h8.5v3.5c0 .827.673 1.5 1.5 1.5h3.5v11.5c0 .276-.224.5-.5.5h-13c-.276 0-.5-.224-.5-.5v-1c0-.276-.224-.5-.5-.5s-.5.224-.5.5v1c0 .827.673 1.5 1.5 1.5h13c.827 0 1.5-.673 1.5-1.5v-12.5c0-.133-.053-.26-.146-.354zm-4.854-.146v-3.293l3.793 3.793h-3.293c-.276 0-.5-.224-.5-.5z"/><path d="m14.872 12.666c-.034-.038-.838-.929-2.139-1.828-.985-.68-1.992-1.179-2.985-1.484-.033-.014-.068-.024-.103-.031-.728-.214-1.448-.324-2.146-.324s-1.419.11-2.147.324c-.035.006-.069.017-.102.03-.993.305-2 .804-2.985 1.484-1.301.898-2.105 1.79-2.139 1.828-.17.19-.17.477 0 .667.034.038.838.929 2.139 1.828 1.741 1.203 3.551 1.839 5.234 1.839s3.493-.636 5.234-1.839c1.301-.898 2.105-1.79 2.139-1.828.17-.19.17-.477 0-.667zm-5.574-2.403c.453.468.702 1.08.702 1.737 0 1.378-1.122 2.5-2.5 2.5s-2.5-1.122-2.5-2.5c0-.658.25-1.271.705-1.739.572-.162 1.175-.261 1.795-.261.624 0 1.228.101 1.798.263zm-1.798 5.737c-1.86 0-3.553-.896-4.645-1.648-.743-.511-1.319-1.028-1.654-1.352.514-.497 1.597-1.448 2.994-2.146-.127.366-.194.753-.194 1.146 0 1.93 1.57 3.5 3.5 3.5s3.5-1.57 3.5-3.5c0-.392-.067-.779-.194-1.145.507.252.959.531 1.339.792.743.511 1.319 1.028 1.654 1.352-.874.845-3.389 3-6.3 3z"/></svg>