<svg height="20" viewBox="0 0 20 20" width="20" xmlns="http://www.w3.org/2000/svg"><path d="m17.854 5.646-4.5-4.5c-.094-.094-.221-.146-.354-.146h-9.5c-.827 0-1.5.673-1.5 1.5v16c0 .827.673 1.5 1.5 1.5h13c.827 0 1.5-.673 1.5-1.5v-12.5c0-.133-.053-.26-.146-.354zm-1.061.354h-3.293c-.276 0-.5-.224-.5-.5v-3.293zm-.293 13h-13c-.276 0-.5-.224-.5-.5v-16c0-.276.224-.5.5-.5h8.5v3.5c0 .827.673 1.5 1.5 1.5h3.5v11.5c0 .276-.224.5-.5.5z"/><path d="m8.5 17.001c-.112 0-.222-.037-.312-.11l-2.363-1.891h-.325c-.276 0-.5-.224-.5-.5v-2c0-.276.224-.5.5-.5h.325l2.363-1.891c.15-.12.356-.143.529-.06s.283.258.283.451v6c0 .192-.11.367-.283.451-.069.033-.143.049-.217.049zm-2.5-3.001c.114 0 .224.039.312.11l1.688 1.35v-3.92l-1.688 1.35c-.089.071-.199.11-.312.11z"/><path d="m11.736 16c-.119 0-.238-.042-.333-.127-.206-.184-.223-.5-.039-.706.411-.459.637-1.05.637-1.667s-.226-1.208-.637-1.667c-.184-.206-.167-.522.039-.706s.522-.167.706.039c.575.642.891 1.471.891 2.334s-.317 1.691-.892 2.334c-.099.11-.235.167-.373.167z"/><path d="m13.5 17c-.105 0-.21-.033-.3-.1-.221-.166-.265-.479-.099-.7.589-.783.9-1.717.9-2.7s-.311-1.916-.899-2.7c-.166-.221-.121-.534.099-.7s.534-.121.7.099c.72.958 1.1 2.099 1.1 3.3s-.38 2.343-1.1 3.301c-.098.131-.248.2-.4.2z"/><path d="m10.366 14.5c-.085 0-.171-.022-.25-.067-.239-.138-.321-.444-.182-.683.044-.076.067-.16.067-.25s-.022-.173-.067-.25c-.138-.239-.057-.545.182-.683s.545-.057.683.182c.132.227.201.487.201.751s-.07.523-.201.751c-.093.16-.261.25-.433.25z"/></svg>