<svg height="20" viewBox="0 0 20 20" width="20" xmlns="http://www.w3.org/2000/svg"><path d="m17.854 5.646-4.5-4.5c-.094-.094-.221-.146-.354-.146h-9.5c-.827 0-1.5.673-1.5 1.5v16c0 .827.673 1.5 1.5 1.5h13c.827 0 1.5-.673 1.5-1.5v-12.5c0-.133-.053-.26-.146-.354zm-1.061.354h-3.293c-.276 0-.5-.224-.5-.5v-3.293zm-.293 13h-13c-.276 0-.5-.224-.5-.5v-16c0-.276.224-.5.5-.5h8.5v3.5c0 .827.673 1.5 1.5 1.5h3.5v11.5c0 .276-.224.5-.5.5z"/><path d="m14.234 10.676c-.136 0-.272.034-.405.1l-1.829.915v-.191c0-.827-.673-1.5-1.5-1.5h-4c-.827 0-1.5.673-1.5 1.5v4c0 .827.673 1.5 1.5 1.5h4c.827 0 1.5-.673 1.5-1.5v-.191l1.829.915c.133.067.269.1.405.1.227 0 .43-.093.574-.263.126-.149.192-.343.192-.561v-4c0-.47-.329-.824-.766-.824zm-3.234 4.824c0 .276-.224.5-.5.5h-4c-.276 0-.5-.224-.5-.5v-4c0-.276.224-.5.5-.5h4c.276 0 .5.224.5.5zm3-.309-1.829-.915c-.077-.038-.171-.191-.171-.276v-1c0-.086.094-.238.171-.276l1.829-.914v3.382z"/></svg>