<svg height="20" viewBox="0 0 20 20" width="20" xmlns="http://www.w3.org/2000/svg"><path d="m17.854 5.646-4.5-4.5c-.094-.094-.221-.146-.354-.146h-9.5c-.827 0-1.5.673-1.5 1.5v16c0 .827.673 1.5 1.5 1.5h13c.827 0 1.5-.673 1.5-1.5v-12.5c0-.133-.053-.26-.146-.354zm-1.061.354h-3.293c-.276 0-.5-.224-.5-.5v-3.293zm-.293 13h-13c-.276 0-.5-.224-.5-.5v-16c0-.276.224-.5.5-.5h8.5v3.5c0 .827.673 1.5 1.5 1.5h3.5v11.5c0 .276-.224.5-.5.5z"/><path d="m14.5 14h-1c-.276 0-.5-.224-.5-.5s.224-.5.5-.5h1c.276 0 .5.224.5.5s-.224.5-.5.5z"/><path d="m14.5 16h-1c-.276 0-.5-.224-.5-.5s.224-.5.5-.5h1c.276 0 .5.224.5.5s-.224.5-.5.5z"/><path d="m8.5 10c-.276 0-.5.224-.5.5v.5c-1.654 0-3 1.346-3 3s1.346 3 3 3 3-1.346 3-3h.5c.276 0 .5-.224.5-.5 0-1.93-1.57-3.5-3.5-3.5zm.5 1.05c.978.199 1.75.972 1.95 1.95h-1.95zm-1 4.95c-1.103 0-2-.897-2-2s.897-2 2-2v1.5c0 .276.224.5.5.5h1.5c0 1.103-.897 2-2 2z"/><path d="m14.5 12h-1c-.276 0-.5-.224-.5-.5s.224-.5.5-.5h1c.276 0 .5.224.5.5s-.224.5-.5.5z"/></svg>