<svg height="20" viewBox="0 0 20 20" width="20" xmlns="http://www.w3.org/2000/svg"><path d="m17.854 5.646-4.5-4.5c-.094-.094-.221-.146-.354-.146h-9.5c-.827 0-1.5.673-1.5 1.5v16c0 .827.673 1.5 1.5 1.5h13c.827 0 1.5-.673 1.5-1.5v-12.5c0-.133-.053-.26-.146-.354zm-1.061.354h-3.293c-.276 0-.5-.224-.5-.5v-3.293zm-.293 13h-13c-.276 0-.5-.224-.5-.5v-16c0-.276.224-.5.5-.5h8.5v3.5c0 .827.673 1.5 1.5 1.5h3.5v11.5c0 .276-.224.5-.5.5z"/><path d="m14.882 17.177-2.938-3.472c.655-.713 1.056-1.663 1.056-2.705 0-2.206-1.794-4-4-4s-4 1.794-4 4 1.794 4 4 4c.804 0 1.553-.239 2.181-.648l2.937 3.471c.099.117.24.177.382.177.114 0 .229-.039.323-.118.211-.178.237-.494.059-.705zm-8.882-6.177c0-1.654 1.346-3 3-3s3 1.346 3 3-1.346 3-3 3-3-1.346-3-3z"/></svg>