<svg height="20" viewBox="0 0 20 20" width="20" xmlns="http://www.w3.org/2000/svg"><path d="m17.854 5.646-4.5-4.5c-.094-.094-.221-.146-.354-.146h-9.5c-.827 0-1.5.673-1.5 1.5v16c0 .827.673 1.5 1.5 1.5h13c.827 0 1.5-.673 1.5-1.5v-12.5c0-.133-.053-.26-.146-.354zm-1.061.354h-3.293c-.276 0-.5-.224-.5-.5v-3.293zm-.293 13h-13c-.276 0-.5-.224-.5-.5v-16c0-.276.224-.5.5-.5h8.5v3.5c0 .827.673 1.5 1.5 1.5h3.5v11.5c0 .276-.224.5-.5.5z"/><path d="m11.5 14c-.827 0-1.5-.673-1.5-1.5s.673-1.5 1.5-1.5 1.5.673 1.5 1.5-.673 1.5-1.5 1.5zm0-2c-.276 0-.5.224-.5.5s.224.5.5.5.5-.224.5-.5-.224-.5-.5-.5z"/><path d="m14.5 9h-9c-.276 0-.5.224-.5.5v7c0 .276.224.5.5.5h9c.276 0 .5-.224.5-.5v-7c0-.276-.224-.5-.5-.5zm-8.5 5.675 1.266-1.582c.073-.091.164-.142.259-.144s.189.044.266.131l2.596 2.92h-4.387zm8 1.325h-2.275l-3.187-3.585c-.272-.306-.652-.476-1.039-.466s-.758.199-1.014.519l-.485.606v-3.075h8v6z"/></svg>