<svg height="20" viewBox="0 0 20 20" width="20" xmlns="http://www.w3.org/2000/svg"><path d="m19.5 19h-.5v-15h.5c.276 0 .5-.224.5-.5s-.224-.5-.5-.5h-2.5v-1.5c0-.276-.224-.5-.5-.5h-5c-.276 0-.5.224-.5.5v1.5h-2.5c-.276 0-.5.224-.5.5s.224.5.5.5h.5v1h-8.5c-.276 0-.5.224-.5.5v6c0 .276.224.5.5.5 3.033 0 5.5 2.467 5.5 5.5 0 .133.053.26.146.354s.221.146.354.146h2.5v1h-.5c-.276 0-.5.224-.5.5s.224.5.5.5h11c.276 0 .5-.224.5-.5s-.224-.5-.5-.5zm-1.5 0h-5v-15h5zm-8.5-2s0 0 0 0h-.5v-1h1v1zm1.5-1h1v1h-1zm-2-9v-1h1v1zm-2 0v-1h1v1zm-2 0v-1h1v1zm-2 0v-1h1v1zm8-1h1v1h-1zm1-4h4v1h-4zm-2 2h2v1h-2zm-8 2v1h-1v-1zm-1 5.019v-3.019h11v7h-5.5c-.92-2.201-3.017-3.791-5.5-3.981zm5.825 4.981h1.175v1h-1.019c-.026-.341-.079-.675-.156-1zm3.175 2h.5s0 0 0 0h1.5v1h-2z"/></svg>