<svg height="20" viewBox="0 0 20 20" width="20" xmlns="http://www.w3.org/2000/svg"><path d="m17.5 11.5c.13 0 .258-.051.354-.147l2-2c.195-.195.195-.512 0-.707s-.512-.195-.707 0l-1.149 1.149c-.051-2.06-.878-3.99-2.341-5.452-1.511-1.511-3.52-2.343-5.657-2.343-2.936 0-5.631 1.604-7.034 4.186-.132.243-.042.546.201.678s.546.042.678-.201c1.228-2.26 3.586-3.664 6.155-3.664 3.86 0 7 3.14 7 7v1c0 .202.122.385.309.462.062.026.127.038.191.038z"/><path d="m10 18c2.974 0 5.686-1.635 7.077-4.266.129-.244.036-.547-.208-.676s-.547-.036-.676.208c-1.217 2.303-3.59 3.734-6.193 3.734-3.86 0-7-3.14-7-7v-1c0-.202-.122-.385-.309-.462s-.402-.035-.545.108l-2 2c-.195.195-.195.512 0 .707s.512.195.707 0l1.149-1.149c.051 2.06.878 3.99 2.341 5.452 1.511 1.511 3.52 2.343 5.657 2.343z"/><path d="m13.854 13.146-2.409-2.409c.35-.491.556-1.09.556-1.737 0-1.654-1.346-3-3-3s-3 1.346-3 3 1.346 3 3 3c.647 0 1.247-.206 1.737-.556l2.409 2.409c.098.098.226.146.354.146s.256-.049.354-.146c.195-.195.195-.512 0-.707zm-6.854-4.146c0-1.103.897-2 2-2s2 .897 2 2-.897 2-2 2-2-.897-2-2z"/></svg>