<svg height="20" viewBox="0 0 20 20" width="20" xmlns="http://www.w3.org/2000/svg"><path d="m18.23 8.447c-.42-.328-.944-.472-1.474-.404s-1 .339-1.324.762l-1.222 1.598-1.085-3.837 1.397-2.628c.251-.472.303-1.013.147-1.524s-.502-.93-.974-1.181c-.774-.412-1.7-.261-2.307.308-.494-.449-1.199-.647-1.886-.463-.514.138-.945.47-1.211.934s-.337 1.003-.197 1.517l.715 2.636-1.325 2.493c-.366-.404-.895-.658-1.482-.658-.871 0-1.614.56-1.887 1.339-.318-.214-.701-.339-1.113-.339-1.103 0-2 .897-2 2v2c0 1.404.559 3.115 1.459 4.465 1.09 1.635 2.525 2.535 4.041 2.535h4c1.083 0 2.204-.662 3.426-2.025.967-1.077 1.811-2.388 2.428-3.345.216-.336.403-.625.556-.845l1.746-2.505c.622-.893.431-2.164-.426-2.834zm-5.005-6.331c.236.125.409.335.487.591s.052.526-.073.762l-.908 1.707-.762-2.697c-.007-.023-.014-.046-.021-.068.288-.396.833-.531 1.278-.294zm-8.225 7.884c0-.551.449-1 1-1s1 .449 1 1v3c0 .551-.449 1-1 1s-1-.449-1-1zm-3 1c0-.551.449-1 1-1s1 .449 1 1v2c0 .551-.449 1-1 1s-1-.449-1-1zm15.836-.291-1.746 2.505c-.163.234-.355.531-.576.875-1.106 1.716-3.164 4.911-5.014 4.911h-4c-1.58 0-2.689-1.309-3.209-2.09-.408-.611-.74-1.32-.966-2.027.211.076.438.117.675.117.597 0 1.133-.263 1.5-.679.367.416.903.679 1.5.679 1.103 0 2-.897 2-2v-3c0-.058-.003-.115-.008-.172l1.197-2.252.828 3.055c.072.267.347.424.613.352s.424-.347.352-.613l-1.925-7.101c-.069-.256-.034-.525.099-.757s.348-.398.604-.467c.536-.144 1.094.173 1.245.707l2.512 8.885c.052.182.201.32.387.355s.376-.037.491-.187l1.829-2.391c.161-.21.394-.344.657-.378s.523.037.731.2c.439.343.54 1.018.222 1.474z"/></svg>