<svg height="20" viewBox="0 0 20 20" width="20" xmlns="http://www.w3.org/2000/svg"><path d="m17 8c-.412 0-.794.125-1.113.339-.274-.779-1.016-1.339-1.887-1.339-.364 0-.706.098-1 .269v-5.269c0-1.103-.897-2-2-2-.871 0-1.614.56-1.887 1.339-.318-.214-.701-.339-1.113-.339-1.103 0-2 .897-2 2v7.373l-1.346-2.333c-.261-.475-.687-.813-1.199-.953-.499-.136-1.018-.064-1.462.202-.907.544-1.253 1.774-.77 2.742.03.061.668 1.368 2.66 5.35.938 1.875 1.967 3.216 3.059 3.984.857.603 1.449.634 1.559.634h5c.848 0 1.632-.245 2.331-.73.676-.468 1.259-1.152 1.734-2.033.939-1.743 1.435-4.246 1.435-7.237 0-1.103-.897-2-2-2zm-.315 8.763c-.549 1.021-1.548 2.237-3.185 2.237h-4.99c-.039-.003-.46-.05-1.095-.525-.633-.474-1.605-1.472-2.638-3.54-2.027-4.054-2.65-5.331-2.656-5.343-.001-.002-.001-.003-.002-.004-.251-.503-.073-1.162.389-1.439.208-.125.451-.158.685-.095.249.068.458.236.587.472.002.003.004.007.006.01l1.561 2.705c.319.583.678.828 1.067.729.39-.099.587-.489.587-1.157v-7.812c0-.551.449-1 1-1s1 .449 1 1v6.5c0 .276.224.5.5.5s.5-.224.5-.5v-7.5c0-.551.449-1 1-1s1 .449 1 1v7.5c0 .276.224.5.5.5s.5-.224.5-.5v-.5c0-.551.449-1 1-1s1 .449 1 1v1.5c0 .276.224.5.5.5s.5-.224.5-.5v-.5c0-.551.449-1 1-1s1 .449 1 1c0 2.826-.455 5.165-1.315 6.763z"/><path d="m4.5 2c-.075 0-.151-.017-.223-.053l-2-1c-.247-.123-.347-.424-.224-.671s.424-.347.671-.224l2 1c.247.123.347.424.224.671-.088.175-.264.277-.448.277z"/><path d="m2.5 5c-.183 0-.36-.101-.448-.277-.123-.247-.023-.547.224-.671l2-1c.247-.123.547-.023.671.224s.023.547-.224.671l-2 1c-.072.036-.148.053-.223.053z"/><path d="m14.5 2c-.183 0-.36-.101-.448-.277-.123-.247-.023-.547.224-.671l2-1c.247-.123.547-.023.671.224s.023.547-.224.671l-2 1c-.072.036-.148.053-.223.053z"/><path d="m16.5 5c-.075 0-.151-.017-.223-.053l-2-1c-.247-.123-.347-.424-.224-.671s.424-.347.671-.224l2 1c.247.123.347.424.224.671-.088.175-.264.277-.448.277z"/></svg>