<svg height="20" viewBox="0 0 20 20" width="20" xmlns="http://www.w3.org/2000/svg"><path d="m16.646.887c-.297-.444-.749-.745-1.273-.847-1.076-.209-2.143.492-2.377 1.563l-1.116 5.103-1.949-5.365c-.375-1.032-1.525-1.581-2.563-1.224s-1.608 1.498-1.272 2.542l1.418 4.407c-.164-.044-.336-.067-.514-.067-.871 0-1.614.56-1.887 1.339-.318-.214-.701-.339-1.113-.339-1.103 0-2 .897-2 2v2c0 1.165.326 3.153 1.244 4.918.473.91 1.04 1.634 1.685 2.151.769.617 1.634.93 2.571.93h4c2.788 0 4.5-3.203 4.5-5.5 0-1.781-.088-2.706-.159-3.449-.049-.511-.091-.953-.091-1.551 0-.698.714-4.637 1.195-7.116.105-.522-.001-1.054-.298-1.497zm-9.646 7.113c.551 0 1 .449 1 1v1.363l-1.487-.303c-.17-.044-.342-.065-.513-.064v-.996c0-.551.449-1 1-1zm-4 2c0-.551.449-1 1-1s1 .449 1 1v.271c-.457.268-.783.696-.921 1.208-.135.505-.07 1.031.183 1.487-.085.023-.173.035-.262.035-.551 0-1-.449-1-1v-2zm11.025 7.467c-.481.699-1.309 1.533-2.525 1.533h-4c-2.35 0-3.782-2.76-4.29-5.163.243.105.509.163.79.163.358 0 .705-.096 1.008-.273.15.087.312.154.483.2l3.877 1.055c.044.012.088.018.132.018.22 0 .422-.146.482-.369.072-.266-.085-.541-.351-.614l-3.879-1.056c-.153-.041-.291-.116-.406-.218-.004-.003-.007-.007-.011-.01-.074-.068-.139-.148-.19-.238-.134-.231-.169-.501-.1-.759s.235-.474.466-.607.501-.169.759-.1c.01.003.02.005.03.007l2.098.427c.001 0 .002 0 .003.001l3 .611c.794.162 1.702.38 2.424.771.791.428 1.176.969 1.176 1.654 0 .956-.373 2.092-.975 2.967zm1.939-15.278c0 .001-.001.002-.001.004-.124.641-1.213 6.289-1.213 7.307 0 .645.044 1.109.095 1.645.033.349.07.739.1 1.245-.19-.152-.404-.293-.645-.423-.837-.454-1.835-.695-2.701-.871l-2.6-.529v-1.816c0-.313-.403-1.58-.483-1.831l-1.468-4.565c-.171-.53.119-1.109.646-1.29s1.108.097 1.298.619l2.538 6.988c.076.209.281.343.503.328s.408-.175.455-.392l1.485-6.79c.119-.545.662-.902 1.209-.795.26.051.485.2.633.421s.201.486.149.746z"/></svg>