<svg height="20" viewBox="0 0 20 20" width="20" xmlns="http://www.w3.org/2000/svg"><path d="m14 17.5c0 .276-.224.5-.5.5s-.5-.224-.5-.5.224-.5.5-.5.5.224.5.5z"/><path d="m16 10.5c0-.827-.673-1.5-1.5-1.5-.195 0-.382.038-.553.106-.173-.637-.756-1.106-1.447-1.106-.175 0-.343.031-.5.086v-4.586c0-.827-.673-1.5-1.5-1.5-.691 0-1.274.469-1.447 1.105-.171-.068-.358-.105-.553-.105-.827 0-1.5.673-1.5 1.5v5.966l-1.406-1.113c-.304-.241-.694-.361-1.098-.339s-.779.186-1.053.46c-.581.581-.583 1.532-.003 2.12l3.479 3.523c-.54.227-.919.762-.919 1.383v2c0 .827.673 1.5 1.5 1.5h7c.827 0 1.5-.673 1.5-1.5v-2c0-.541-.288-1.016-.719-1.28.328-.636.719-1.798.719-3.72zm-11.85-.318c.207-.207.592-.227.823-.044l2.216 1.754c.15.119.355.142.528.058s.282-.258.282-.45v-7c0-.276.224-.5.5-.5s.5.224.5.5v5c0 .276.224.5.5.5s.5-.224.5-.5v-6c0-.276.224-.5.5-.5s.5.224.5.5v6c0 .276.224.5.5.5s.5-.224.5-.5.224-.5.5-.5.5.224.5.5v1c0 .276.224.5.5.5s.5-.224.5-.5.224-.5.5-.5.5.224.5.5v1c0 2.102-.516 3.139-.748 3.5h-6.043l-4.057-4.108c-.192-.194-.192-.519-.002-.71zm10.85 8.318c0 .276-.224.5-.5.5h-7c-.276 0-.5-.224-.5-.5v-2c0-.276.224-.5.5-.5h7c.276 0 .5.224.5.5z"/><path d="m18.354 4.146-2-2c-.195-.195-.512-.195-.707 0s-.195.512 0 .707l1.146 1.146h-3.293c-.276 0-.5.224-.5.5s.224.5.5.5h3.293l-1.146 1.146c-.195.195-.195.512 0 .707.098.098.226.146.354.146s.256-.049.354-.146l2-2c.195-.195.195-.512 0-.707z"/></svg>