<svg height="20" viewBox="0 0 20 20" width="20" xmlns="http://www.w3.org/2000/svg"><path d="m11.5 16h-3c-.276 0-.5-.224-.5-.5v-1.5h-1.5c-.276 0-.5-.224-.5-.5v-3c0-.276.224-.5.5-.5h1.5v-1.5c0-.276.224-.5.5-.5h3c.276 0 .5.224.5.5v1.5h1.5c.276 0 .5.224.5.5v3c0 .276-.224.5-.5.5h-1.5v1.5c0 .276-.224.5-.5.5zm-2.5-1h2v-1.5c0-.276.224-.5.5-.5h1.5v-2h-1.5c-.276 0-.5-.224-.5-.5v-1.5h-2v1.5c0 .276-.224.5-.5.5h-1.5v2h1.5c.276 0 .5.224.5.5z"/><path d="m18.5 5h-4.5v-1.5c0-.827-.673-1.5-1.5-1.5h-5c-.827 0-1.5.673-1.5 1.5v1.5h-4.5c-.827 0-1.5.673-1.5 1.5v11c0 .827.673 1.5 1.5 1.5h17c.827 0 1.5-.673 1.5-1.5v-11c0-.827-.673-1.5-1.5-1.5zm-11.5-1.5c0-.276.224-.5.5-.5h5c.276 0 .5.224.5.5v1.5h-6zm12 14c0 .276-.224.5-.5.5h-17c-.276 0-.5-.224-.5-.5v-11c0-.276.224-.5.5-.5h17c.276 0 .5.224.5.5z"/></svg>