<svg height="20" viewBox="0 0 20 20" width="20" xmlns="http://www.w3.org/2000/svg"><path d="m9.5 9c-.132 0-.261-.053-.353-.147s-.147-.222-.147-.353.053-.261.147-.353c.093-.093.222-.147.353-.147s.26.053.353.147c.093.093.147.222.147.353s-.053.26-.147.353c-.093.093-.222.147-.353.147z"/><path d="m9.5 11c-.132 0-.26-.053-.353-.147s-.147-.222-.147-.353.053-.261.147-.353c.093-.093.222-.147.353-.147s.261.053.353.147c.093.093.147.222.147.353s-.053.261-.147.353c-.093.093-.222.147-.353.147z"/><path d="m9.5 13c-.132 0-.261-.053-.353-.147s-.147-.222-.147-.353.053-.261.147-.353c.093-.093.222-.147.353-.147s.261.053.353.147c.093.093.147.222.147.353s-.053.26-.147.353c-.093.093-.222.147-.353.147z"/><path d="m11.5 10c-.132 0-.261-.053-.353-.147s-.147-.222-.147-.353.053-.261.147-.353c.093-.093.222-.147.353-.147s.261.053.353.147c.093.093.147.222.147.353s-.053.26-.147.353c-.093.093-.222.147-.353.147z"/><path d="m11.5 12c-.132 0-.261-.053-.353-.147s-.147-.222-.147-.353.053-.261.147-.353c.093-.093.222-.147.353-.147s.261.053.353.147c.093.093.147.222.147.353s-.053.26-.147.353c-.093.093-.222.147-.353.147z"/><path d="m13.5 11c-.132 0-.261-.053-.353-.147s-.147-.222-.147-.353.053-.261.147-.353c.093-.093.222-.147.353-.147s.26.053.353.147c.093.093.147.222.147.353s-.053.261-.147.353c-.093.093-.222.147-.353.147z"/><path d="m6 9.5c0-.827-.673-1.5-1.5-1.5s-1.5.673-1.5 1.5.673 1.5 1.5 1.5 1.5-.673 1.5-1.5zm-1.5.5c-.276 0-.5-.224-.5-.5s.224-.5.5-.5.5.224.5.5-.224.5-.5.5z"/><path d="m19.909 14.213c-.014-.02-1.387-1.992-1.892-3.718.499-1.834 1.868-3.677 1.882-3.695.13-.173.134-.41.009-.587s-.349-.254-.556-.191c-.12.037-2.813.877-4.851 2.706-.376-.351-.82-.737-1.323-1.125-.072-.056-.145-.11-.218-.164-.116-.899.127-1.744.724-2.515.498-.643 1.067-.993 1.072-.996.183-.11.276-.323.232-.532s-.216-.366-.427-.393c-.044-.005-1.083-.131-2.507.072-1.812.258-3.435.938-4.71 1.969-.283-.029-.565-.045-.845-.045-.117 0-.231.003-.343.008-.003 0-.007 0-.011 0-2.582.118-4.102 1.52-4.931 2.705-.924 1.321-1.195 2.633-1.206 2.689-.013.065-.013.131 0 .196.011.055.281 1.368 1.206 2.689.828 1.182 2.343 2.581 4.916 2.704.007 0 .013.001.02.001.114.005.23.008.349.008.621 0 1.253-.074 1.891-.219 1.345.957 2.508 1.206 3.351 1.206.156 0 .302-.009.436-.023.984-.104 1.56-.518 1.622-.565.212-.159.263-.456.116-.677-.232-.349-.801-1.364-.901-2.202.055-.041.11-.083.165-.125.504-.387.947-.773 1.323-1.124 2.038 1.83 4.73 2.669 4.851 2.706.048.015.098.022.146.022.157 0 .309-.074.405-.206.125-.173.127-.406.005-.581zm-7.743-10.143c.371-.054.714-.083 1.016-.097-.087.095-.175.198-.262.308-.59.75-.919 1.586-.976 2.46-.575-.361-1.153-.668-1.729-.919-.503-.219-1.005-.394-1.504-.525 1.221-.763 2.508-1.09 3.455-1.227zm-10.112 8.671c-.679-.959-.963-1.936-1.041-2.242.076-.303.352-1.257 1.021-2.213.945-1.349 2.238-2.107 3.85-2.258.731 1.369 1.116 2.908 1.116 4.471s-.385 3.102-1.116 4.471c-1.6-.15-2.887-.898-3.83-2.23zm10.746 3.061c-.554.211-1.656.411-3.14-.401.185-.069.37-.143.556-.223.635-.276 1.272-.621 1.904-1.03.162.642.459 1.253.681 1.655zm-.249-3.184c-1.32 1.012-3.319 2.205-5.554 2.364.658-1.394 1.002-2.928 1.002-4.482s-.345-3.088-1.002-4.482c2.235.159 4.234 1.352 5.554 2.364 1.087.834 1.895 1.678 2.289 2.118-.394.441-1.202 1.284-2.289 2.118zm2.665-1.05c.418-.437.654-.73.674-.755.146-.183.146-.442 0-.625-.02-.025-.257-.319-.674-.755.974-.861 2.129-1.489 3.015-1.894-.449.775-.956 1.801-1.216 2.841-.021.083-.02.169.002.251.268.996.798 2.052 1.255 2.851-.892-.404-2.067-1.038-3.056-1.913z"/></svg>