<svg height="20" viewBox="0 0 20 20" width="20" xmlns="http://www.w3.org/2000/svg"><path d="m1.5 20c-.276 0-.5-.224-.5-.5v-15c0-.276.224-.5.5-.5s.5.224.5.5v15c0 .276-.224.5-.5.5z"/><path d="m15.5 14c-2.207 0-3.347-1.14-4.354-2.146-.995-.995-1.854-1.854-3.646-1.854s-2.652.859-3.646 1.854c-.195.195-.512.195-.707 0s-.195-.512 0-.707c1.006-1.006 2.146-2.146 4.354-2.146s3.347 1.14 4.354 2.146c.995.995 1.854 1.854 3.646 1.854 1.704 0 2.565-.776 3.5-1.707v-5.628c-.839.723-1.883 1.335-3.5 1.335-2.207 0-3.347-1.14-4.354-2.146-.995-.995-1.854-1.854-3.646-1.854s-2.652.859-3.646 1.854c-.195.195-.512.195-.707 0s-.195-.512 0-.707c1.006-1.006 2.146-2.146 4.354-2.146s3.347 1.14 4.354 2.146c.995.995 1.854 1.854 3.646 1.854s2.652-.859 3.646-1.854c.143-.143.358-.186.545-.108s.309.26.309.462v7c0 .133-.053.26-.146.354-1.006 1.006-2.146 2.146-4.354 2.146z"/><path d="m1.5 3c-.827 0-1.5-.673-1.5-1.5s.673-1.5 1.5-1.5 1.5.673 1.5 1.5-.673 1.5-1.5 1.5zm0-2c-.276 0-.5.224-.5.5s.224.5.5.5.5-.224.5-.5-.224-.5-.5-.5z"/></svg>