<svg height="20" viewBox="0 0 20 20" width="20" xmlns="http://www.w3.org/2000/svg"><path d="m7.507 8.507c-.128 0-.256-.049-.354-.146l-2.121-2.121c-.195-.195-.195-.512 0-.707s.512-.195.707 0l2.121 2.121c.195.195.195.512 0 .707-.098.098-.226.146-.354.146z"/><path d="m13.614 15.614c-.128 0-.256-.049-.354-.146l-2.121-2.121c-.195-.195-.195-.512 0-.707s.512-.195.707 0l2.121 2.121c.195.195.195.512 0 .707-.098.098-.226.146-.354.146z"/><path d="m5.386 15.614c-.128 0-.256-.049-.354-.146-.195-.195-.195-.512 0-.707l2.121-2.121c.195-.195.512-.195.707 0s.195.512 0 .707l-2.121 2.121c-.098.098-.226.146-.354.146z"/><path d="m11.493 8.507c-.128 0-.256-.049-.354-.146-.195-.195-.195-.512 0-.707l2.121-2.121c.195-.195.512-.195.707 0s.195.512 0 .707l-2.121 2.121c-.098.098-.226.146-.354.146z"/><path d="m9.5 8c-.276 0-.5-.224-.5-.5v-6c0-.276.224-.5.5-.5s.5.224.5.5v6c0 .276-.224.5-.5.5z"/><path d="m6.5 11h-6c-.276 0-.5-.224-.5-.5s.224-.5.5-.5h6c.276 0 .5.224.5.5s-.224.5-.5.5z"/><path d="m9.5 20c-.276 0-.5-.224-.5-.5v-6c0-.276.224-.5.5-.5s.5.224.5.5v6c0 .276-.224.5-.5.5z"/><path d="m18.5 11h-6c-.276 0-.5-.224-.5-.5s.224-.5.5-.5h6c.276 0 .5.224.5.5s-.224.5-.5.5z"/><path d="m9.5 12c-.827 0-1.5-.673-1.5-1.5s.673-1.5 1.5-1.5 1.5.673 1.5 1.5-.673 1.5-1.5 1.5zm0-2c-.276 0-.5.224-.5.5s.224.5.5.5.5-.224.5-.5-.224-.5-.5-.5z"/></svg>