<svg height="20" viewBox="0 0 20 20" width="20" xmlns="http://www.w3.org/2000/svg"><path d="m16.5 20h-13c-.827 0-1.5-.673-1.5-1.5v-12.5c0-.688.367-1.574.854-2.061l3.086-3.086c.487-.487 1.373-.854 2.061-.854h8.5c.827 0 1.5.673 1.5 1.5v17c0 .827-.673 1.5-1.5 1.5zm-8.5-19c-.415 0-1.06.267-1.354.561l-3.086 3.086c-.293.293-.561.939-.561 1.354v12.5c0 .276.224.5.5.5h13c.276 0 .5-.224.5-.5v-17c0-.276-.224-.5-.5-.5h-8.5z"/><path d="m15.5 5c-.276 0-.5-.224-.5-.5v-2c0-.276.224-.5.5-.5s.5.224.5.5v2c0 .276-.224.5-.5.5z"/><path d="m11.5 5c-.276 0-.5-.224-.5-.5v-2c0-.276.224-.5.5-.5s.5.224.5.5v2c0 .276-.224.5-.5.5z"/><path d="m9.5 5c-.276 0-.5-.224-.5-.5v-2c0-.276.224-.5.5-.5s.5.224.5.5v2c0 .276-.224.5-.5.5z"/><path d="m7.5 5c-.276 0-.5-.224-.5-.5v-2c0-.276.224-.5.5-.5s.5.224.5.5v2c0 .276-.224.5-.5.5z"/><path d="m13.5 5c-.276 0-.5-.224-.5-.5v-2c0-.276.224-.5.5-.5s.5.224.5.5v2c0 .276-.224.5-.5.5z"/></svg>