<svg height="20" viewBox="0 0 20 20" width="20" xmlns="http://www.w3.org/2000/svg"><path d="m13.5 0h-8c-.827 0-1.5.673-1.5 1.5v2c0 .627.22 1.557.5 2.118l1.106 2.211c.21.42.394 1.201.394 1.671v8c0 1.378 1.122 2.5 2.5 2.5h2c1.378 0 2.5-1.122 2.5-2.5v-8c0-.47.184-1.251.394-1.671l1.106-2.211c.28-.561.5-1.491.5-2.118v-2c0-.827-.673-1.5-1.5-1.5zm-8 1h8c.276 0 .5.224.5.5v.5h-9v-.5c0-.276.224-.5.5-.5zm8.106 4.171-1.106 2.211c-.28.561-.5 1.491-.5 2.118v8c0 .827-.673 1.5-1.5 1.5h-2c-.827 0-1.5-.673-1.5-1.5v-8c0-.627-.22-1.557-.5-2.118l-1.106-2.211c-.21-.42-.394-1.201-.394-1.671v-.5h9v.5c0 .47-.184 1.251-.394 1.671z"/><path d="m9.5 13c-.827 0-1.5-.673-1.5-1.5s.673-1.5 1.5-1.5 1.5.673 1.5 1.5-.673 1.5-1.5 1.5zm0-2c-.276 0-.5.224-.5.5s.224.5.5.5.5-.224.5-.5-.224-.5-.5-.5z"/></svg>