<svg height="20" viewBox="0 0 20 20" width="20" xmlns="http://www.w3.org/2000/svg"><path d="m1 .5c0-.078.018-.157.055-.229.086-.167.257-.271.445-.271h10c.187 0 .359.105.445.271s.071.367-.038.519l-5 7c-.094.131-.245.209-.407.209s-.313-.078-.407-.209l-5-7c-.062-.086-.093-.188-.093-.291zm9.528.5h-8.057l4.028 5.64 4.028-5.64z"/><path d="m1 18.5c0-.102.031-.204.093-.291l5-7c.094-.131.245-.209.407-.209s.313.078.407.209l5 7c.109.152.123.353.038.519s-.257.271-.445.271h-10c-.187 0-.359-.105-.445-.271-.037-.072-.055-.151-.055-.229zm5.5-6.14-4.028 5.64h8.057l-4.028-5.64z"/><path d="m10 9.5c0-.276.224-.5.5-.5h1c.276 0 .5.224.5.5s-.224.5-.5.5h-1c-.276 0-.5-.224-.5-.5z"/><path d="m7 9.5c0-.276.224-.5.5-.5h1c.276 0 .5.224.5.5s-.224.5-.5.5h-1c-.276 0-.5-.224-.5-.5z"/><path d="m4 9.5c0-.276.224-.5.5-.5h1c.276 0 .5.224.5.5s-.224.5-.5.5h-1c-.276 0-.5-.224-.5-.5z"/><path d="m1 9.5c0-.276.224-.5.5-.5h1c.276 0 .5.224.5.5s-.224.5-.5.5h-1c-.276 0-.5-.224-.5-.5z"/><path d="m19 17.5c0-.276-.224-.5-.5-.5h-2.652c2.011-1.97 3.152-4.666 3.152-7.5 0-1.679-.385-3.284-1.144-4.77-.724-1.417-1.78-2.672-3.055-3.63-.221-.166-.534-.121-.7.099-.068.09-.1.195-.1.3 0 .152.069.302.2.4 2.415 1.814 3.799 4.584 3.799 7.6 0 2.633-1.088 5.134-3 6.928v-2.928c0-.276-.224-.5-.5-.5s-.5.224-.5.5v4c0 .276.224.5.5.5h4c.276 0 .5-.224.5-.5z"/></svg>