<svg height="20" viewBox="0 0 20 20" width="20" xmlns="http://www.w3.org/2000/svg"><path d="m19.704 8.76c.157-.906.296-1.933.296-3.26 0-2.194-1.133-3.502-2.083-4.213-1.077-.806-2.542-1.287-3.917-1.287-.785 0-1.853.313-2.481 1.806-.344.818-.519 1.893-.519 3.194 0 1.092.184 2.005.37 2.783-.226.55-.37 1.131-.37 1.717 0 1.286.472 2.325.98 3.07-.011.319-.024.637-.037.946-.096 2.232-.187 4.341.949 5.527.597.623 1.45.926 2.608.926.812 0 1.495-.199 2.03-.592.467-.343.824-.836 1.062-1.466.407-1.078.407-2.372.407-3.412 0-.594.022-1.157.068-1.714.462-.597.932-1.517.932-2.786 0-.394-.099-.808-.296-1.24zm-5.704-7.76c1.933 0 5 1.222 5 4.5 0 .749-.047 1.399-.117 1.985-.409-.499-.928-1.017-1.559-1.553-.952-.809-1.893-1.435-2.324-1.709v-.722c0-.276-.224-.5-.5-.5s-.5.224-.5.5v.773c-.362.325-1.191 1.119-1.886 2.147-.068-.437-.114-.91-.114-1.42 0-1.494.26-4 2-4zm1.5 17.97c-.871 0-1.488-.202-1.886-.618-.824-.861-.762-2.705-.677-4.675.147.134.246.209.264.223.22.165.533.121.699-.099s.122-.533-.098-.7c-.018-.014-1.801-1.392-1.801-3.601 0-1.818 1.849-3.719 2.553-4.376.44.284 1.284.856 2.123 1.569 1.499 1.274 2.324 2.448 2.324 3.307 0 .897-.285 1.679-.848 2.326-.431.496-.873.725-.876.727-.247.123-.347.424-.224.671.088.175.264.277.448.277.075 0 .151-.017.223-.053.01-.005.121-.061.288-.173-.007.238-.011.479-.011.726 0 2.446-.188 4.47-2.5 4.47z"/><path d="m8.63 7.753c.186-.777.37-1.69.37-2.783 0-1.301-.175-2.376-.519-3.194-.628-1.493-1.696-1.806-2.481-1.806-1.376 0-2.84.481-3.917 1.287-.95.711-2.083 2.019-2.083 4.213 0 1.327.139 2.353.296 3.259-.197.432-.296.846-.296 1.241 0 1.269.47 2.188.932 2.786.045.558.068 1.12.068 1.714 0 1.04 0 2.334.407 3.412.238.63.596 1.123 1.062 1.466.535.393 1.218.592 2.03.592 1.158 0 2.011-.303 2.608-.926 1.136-1.186 1.045-3.295.949-5.527-.013-.309-.027-.628-.037-.946.507-.745.98-1.784.98-3.07 0-.587-.144-1.167-.37-1.717zm-2.53 6.017c.166.221.479.266.7.1.018-.013.117-.089.264-.223.084 1.969.147 3.814-.677 4.675-.398.416-1.015.618-1.886.618-2.312 0-2.5-2.024-2.5-4.47 0-.247-.004-.488-.011-.726.167.112.277.168.288.173.072.036.148.053.223.053.183 0 .36-.101.448-.277.123-.247.023-.547-.224-.671-.017-.009-1.724-.887-1.724-3.053 0-.857.822-2.028 2.314-3.298.84-.715 1.691-1.292 2.133-1.577.704.658 2.553 2.558 2.553 4.376 0 2.209-1.783 3.587-1.801 3.601-.22.166-.264.479-.099.699zm1.786-7.38c-.695-1.028-1.524-1.822-1.886-2.147v-.773c0-.276-.224-.5-.5-.5s-.5.224-.5.5v.722c-.431.274-1.372.9-2.324 1.709-.631.536-1.15 1.054-1.559 1.553-.07-.586-.117-1.236-.117-1.985 0-3.278 3.067-4.5 5-4.5 1.74 0 2 2.506 2 4 0 .511-.046.983-.114 1.42z"/></svg>