<svg height="20" viewBox="0 0 20 20" width="20" xmlns="http://www.w3.org/2000/svg"><path d="m.5 19c-.078 0-.157-.018-.229-.055-.167-.086-.271-.257-.271-.445v-10c0-.187.105-.359.271-.445s.367-.071.519.038l7 5c.131.094.209.245.209.407s-.078.313-.209.407l-7 5c-.086.062-.188.093-.291.093zm.5-9.528v8.057l5.64-4.028-5.64-4.028z"/><path d="m18.5 19c-.102 0-.204-.031-.291-.093l-7-5c-.131-.094-.209-.245-.209-.407s.078-.313.209-.407l7-5c.152-.109.353-.123.519-.038s.271.257.271.445v10c0 .187-.105.359-.271.445-.072.037-.151.055-.229.055zm-6.14-5.5 5.64 4.028v-8.057l-5.64 4.028z"/><path d="m9.5 10c-.276 0-.5-.224-.5-.5v-1c0-.276.224-.5.5-.5s.5.224.5.5v1c0 .276-.224.5-.5.5z"/><path d="m9.5 13c-.276 0-.5-.224-.5-.5v-1c0-.276.224-.5.5-.5s.5.224.5.5v1c0 .276-.224.5-.5.5z"/><path d="m9.5 16c-.276 0-.5-.224-.5-.5v-1c0-.276.224-.5.5-.5s.5.224.5.5v1c0 .276-.224.5-.5.5z"/><path d="m9.5 19c-.276 0-.5-.224-.5-.5v-1c0-.276.224-.5.5-.5s.5.224.5.5v1c0 .276-.224.5-.5.5z"/><path d="m17.5 1c-.276 0-.5.224-.5.5v2.652c-1.97-2.011-4.666-3.152-7.5-3.152-1.679 0-3.284.385-4.77 1.144-1.417.724-2.672 1.78-3.63 3.055-.166.221-.121.534.099.7.09.068.195.1.3.1.152 0 .302-.069.4-.2 1.814-2.415 4.584-3.799 7.6-3.799 2.633 0 5.134 1.088 6.928 3h-2.928c-.276 0-.5.224-.5.5s.224.5.5.5h4c.276 0 .5-.224.5-.5v-4c0-.276-.224-.5-.5-.5z"/></svg>