<svg height="20" viewBox="0 0 20 20" width="20" xmlns="http://www.w3.org/2000/svg"><path d="m13.5 6h-2c-.276 0-.5-.224-.5-.5v-3c0-.276.224-.5.5-.5h2c.276 0 .5.224.5.5v3c0 .276-.224.5-.5.5zm-1.5-1h1v-2h-1z"/><path d="m19.854 2.646-2.5-2.5c-.094-.094-.221-.146-.354-.146h-16.5c-.276 0-.5.224-.5.5v19c0 .276.224.5.5.5h19c.276 0 .5-.224.5-.5v-16.5c0-.133-.053-.26-.146-.354zm-13.854-1.646h9v6h-9zm10 18h-12v-8h12zm3 0h-2v-8.5c0-.276-.224-.5-.5-.5h-13c-.276 0-.5.224-.5.5v8.5h-2v-18h4v6.5c0 .276.224.5.5.5h10c.276 0 .5-.224.5-.5v-6.5h.793l2.207 2.207z"/></svg>