<svg height="20" viewBox="0 0 20 20" width="20" xmlns="http://www.w3.org/2000/svg"><path d="m18.5 18h-17c-.827 0-1.5-.673-1.5-1.5v-10.5c0-.352.119-.856.276-1.171l.553-1.106c.206-.413.71-.724 1.171-.724h7c.461 0 .964.311 1.171.724l.553 1.106c.038.077.191.171.276.171h7.5c.827 0 1.5.673 1.5 1.5v10c0 .827-.673 1.5-1.5 1.5zm-16.5-14c-.086 0-.238.094-.276.171l-.553 1.106c-.088.176-.171.527-.171.724v10.5c0 .276.224.5.5.5h17c.276 0 .5-.224.5-.5v-10c0-.276-.224-.5-.5-.5h-7.5c-.461 0-.965-.311-1.171-.724l-.553-1.106c-.038-.077-.191-.171-.276-.171z"/><path d="m9.5 15c-.863 0-1.691-.317-2.334-.891-.206-.184-.223-.5-.039-.706s.5-.223.706-.039c.459.411 1.05.637 1.667.637 1.378 0 2.5-1.122 2.5-2.5 0-.276.224-.5.5-.5h2c.276 0 .5.224.5.5s-.224.5-.5.5h-1.536c-.243 1.694-1.704 3-3.464 3z"/><path d="m6.5 12h-2c-.276 0-.5-.224-.5-.5s.224-.5.5-.5h1.536c.243-1.694 1.704-3 3.464-3 .863 0 1.691.317 2.333.891.206.184.223.5.039.706s-.5.223-.706.039c-.459-.41-1.05-.636-1.667-.636-1.378 0-2.5 1.122-2.5 2.5 0 .276-.224.5-.5.5z"/><path d="m9.5 13c-.827 0-1.5-.673-1.5-1.5s.673-1.5 1.5-1.5 1.5.673 1.5 1.5-.673 1.5-1.5 1.5zm0-2c-.276 0-.5.224-.5.5s.224.5.5.5.5-.224.5-.5-.224-.5-.5-.5z"/></svg>