<svg height="20" viewBox="0 0 20 20" width="20" xmlns="http://www.w3.org/2000/svg"><path d="m18.5 18h-17c-.827 0-1.5-.673-1.5-1.5v-10.5c0-.352.119-.856.276-1.171l.553-1.106c.206-.413.71-.724 1.171-.724h7c.461 0 .965.311 1.171.724l.553 1.106c.038.077.191.171.276.171h7.5c.827 0 1.5.673 1.5 1.5v10c0 .827-.673 1.5-1.5 1.5zm-16.5-14c-.086 0-.238.094-.276.171l-.553 1.106c-.088.176-.171.527-.171.724v10.5c0 .276.224.5.5.5h17c.276 0 .5-.224.5-.5v-10c0-.276-.224-.5-.5-.5h-7.5c-.461 0-.965-.311-1.171-.724l-.553-1.106c-.038-.077-.191-.171-.276-.171z"/><path d="m13.817 8.113c-.116-.095-.268-.133-.415-.104l-5 1c-.234.047-.402.252-.402.49v2.695c-.293-.124-.633-.195-1-.195-1.122 0-2 .659-2 1.5s.878 1.5 2 1.5 2-.659 2-1.5v-3.59l4-.8v2.085c-.293-.124-.633-.195-1-.195-1.122 0-2 .659-2 1.5s.878 1.5 2 1.5 2-.659 2-1.5v-4c0-.15-.067-.292-.183-.387zm-6.817 5.887c-.61 0-1-.296-1-.5s.39-.5 1-.5 1 .296 1 .5-.39.5-1 .5zm5-1c-.61 0-1-.296-1-.5s.39-.5 1-.5 1 .296 1 .5-.39.5-1 .5z"/></svg>