<svg height="20" viewBox="0 0 20 20" width="20" xmlns="http://www.w3.org/2000/svg"><path d="m18.5 5h-7.5c-.086 0-.238-.094-.276-.171l-.553-1.106c-.206-.413-.71-.724-1.171-.724h-7c-.461 0-.965.311-1.171.724l-.553 1.106c-.158.315-.276.818-.276 1.171v10.5c0 .827.673 1.5 1.5 1.5h17c.827 0 1.5-.673 1.5-1.5v-10c0-.827-.673-1.5-1.5-1.5zm.5 11.5c0 .276-.224.5-.5.5h-17c-.276 0-.5-.224-.5-.5v-10.5c0-.196.083-.548.171-.724l.553-1.106c.038-.077.191-.171.276-.171h7c.086 0 .238.094.276.171l.553 1.106c.206.413.71.724 1.171.724h7.5c.276 0 .5.224.5.5z"/></svg>