<svg height="20" viewBox="0 0 20 20" width="20" xmlns="http://www.w3.org/2000/svg"><path d="m18.5 18h-17c-.827 0-1.5-.673-1.5-1.5v-10.5c0-.352.119-.856.276-1.171l.553-1.106c.206-.413.71-.724 1.171-.724h7c.461 0 .964.311 1.171.724l.553 1.106c.038.077.191.171.276.171h7.5c.827 0 1.5.673 1.5 1.5v10c0 .827-.673 1.5-1.5 1.5zm-16.5-14c-.086 0-.238.094-.276.171l-.553 1.106c-.088.176-.171.527-.171.724v10.5c0 .276.224.5.5.5h17c.276 0 .5-.224.5-.5v-10c0-.276-.224-.5-.5-.5h-7.5c-.461 0-.965-.311-1.171-.724l-.553-1.106c-.038-.077-.191-.171-.276-.171z"/><path d="m11.5 15c-.076 0-.153-.017-.224-.053l-1.776-.888-1.776.888c-.173.086-.379.066-.531-.053s-.222-.314-.18-.503l.446-2.006-1.337-1.56c-.127-.148-.156-.357-.075-.534s.259-.291.454-.291h1.689l.862-1.746c.084-.171.258-.279.448-.279s.364.108.448.279l.862 1.746h1.689c.195 0 .373.114.454.291s.052.386-.075.534l-1.337 1.56.446 2.006c.042.188-.028.384-.18.503-.09.07-.198.106-.308.106zm-2-2c.077 0 .153.018.224.053l1.06.53-.272-1.225c-.034-.154.006-.314.108-.434l.793-.925h-.913c-.19 0-.364-.108-.448-.279l-.552-1.117-.552 1.117c-.084.171-.258.279-.448.279h-.913l.793.925c.102.119.143.28.108.434l-.272 1.225 1.06-.53c.07-.035.147-.053.224-.053z"/></svg>