<svg height="20" viewBox="0 0 20 20" width="20" xmlns="http://www.w3.org/2000/svg"><path d="m18.5 18h-17c-.827 0-1.5-.673-1.5-1.5v-10.5c0-.352.119-.856.276-1.171l.553-1.106c.206-.413.71-.724 1.171-.724h7c.461 0 .964.311 1.171.724l.553 1.106c.038.077.191.171.276.171h7.5c.827 0 1.5.673 1.5 1.5v10c0 .827-.673 1.5-1.5 1.5zm-16.5-14c-.086 0-.238.094-.276.171l-.553 1.106c-.088.176-.171.527-.171.724v10.5c0 .276.224.5.5.5h17c.276 0 .5-.224.5-.5v-10c0-.276-.224-.5-.5-.5h-7.5c-.461 0-.965-.311-1.171-.724l-.553-1.106c-.038-.077-.191-.171-.276-.171z"/><path d="m9.5 15c-.077 0-.154-.018-.224-.053-.042-.021-1.049-.529-2.069-1.297-1.455-1.095-2.192-2.154-2.192-3.149 0-.735.294-1.391.827-1.846.494-.422 1.172-.654 1.909-.654.598 0 1.215.275 1.75.769.535-.494 1.152-.769 1.75-.769.737 0 1.415.232 1.909.654.534.456.827 1.111.827 1.846 0 .995-.738 2.055-2.192 3.149-1.021.768-2.027 1.276-2.069 1.297-.071.035-.147.053-.224.053zm-1.75-6c-.864 0-1.736.464-1.736 1.5 0 1.284 2.378 2.836 3.484 3.435.342-.187 1.028-.582 1.705-1.093 1.15-.867 1.783-1.699 1.783-2.342 0-1.036-.872-1.5-1.736-1.5-.44 0-.949.304-1.361.814-.095.117-.238.186-.389.186s-.294-.068-.389-.186c-.412-.51-.921-.814-1.361-.814z"/></svg>