<svg height="20" viewBox="0 0 20 20" width="20" xmlns="http://www.w3.org/2000/svg"><path d="m18.5 18h-17c-.827 0-1.5-.673-1.5-1.5v-10.5c0-.352.119-.856.276-1.171l.553-1.106c.206-.413.71-.724 1.171-.724h7c.461 0 .965.311 1.171.724l.553 1.106c.038.077.191.171.276.171h7.5c.827 0 1.5.673 1.5 1.5v10c0 .827-.673 1.5-1.5 1.5zm-16.5-14c-.086 0-.238.094-.276.171l-.553 1.106c-.088.176-.171.527-.171.724v10.5c0 .276.224.5.5.5h17c.276 0 .5-.224.5-.5v-10c0-.276-.224-.5-.5-.5h-7.5c-.461 0-.965-.311-1.171-.724l-.553-1.106c-.038-.077-.191-.171-.276-.171z"/><path d="m12.5 13c.827 0 1.5-.673 1.5-1.5s-.673-1.5-1.5-1.5-1.5.673-1.5 1.5.673 1.5 1.5 1.5zm0-2c.276 0 .5.224.5.5s-.224.5-.5.5-.5-.224-.5-.5.224-.5.5-.5z"/><path d="m15.5 8h-11c-.276 0-.5.224-.5.5v6c0 .276.224.5.5.5h11c.276 0 .5-.224.5-.5v-6c0-.276-.224-.5-.5-.5zm-10.5 4.675 1.266-1.582c.073-.091.164-.142.259-.144s.189.044.266.131l2.596 2.92h-4.387zm10 1.325h-4.275l-3.187-3.585c-.272-.306-.651-.476-1.039-.466s-.758.199-1.014.519l-.485.606v-2.075h10v5z"/></svg>