<svg height="20" viewBox="0 0 20 20" width="20" xmlns="http://www.w3.org/2000/svg"><path d="m18.5 18h-17c-.827 0-1.5-.673-1.5-1.5v-10.5c0-.352.119-.856.276-1.171l.553-1.106c.206-.413.71-.724 1.171-.724h7c.461 0 .964.311 1.171.724l.553 1.106c.038.077.191.171.276.171h7.5c.827 0 1.5.673 1.5 1.5v10c0 .827-.673 1.5-1.5 1.5zm-16.5-14c-.086 0-.238.094-.276.171l-.553 1.106c-.088.176-.171.527-.171.724v10.5c0 .276.224.5.5.5h17c.276 0 .5-.224.5-.5v-10c0-.276-.224-.5-.5-.5h-7.5c-.461 0-.965-.311-1.171-.724l-.553-1.106c-.038-.077-.191-.171-.276-.171z"/><path d="m13 14.467c-.004-.166-.038-.909-.351-1.659-.214-.514-.514-.927-.891-1.229-.096-.077-.198-.146-.303-.208.338-.358.545-.84.545-1.37 0-1.103-.897-2-2-2s-2 .897-2 2c0 .53.208 1.012.545 1.37-.105.062-.206.131-.303.208-.377.302-.677.716-.891 1.229-.347.833-.351 1.658-.351 1.692 0 .276.224.5.5.5h5 .001c.276 0 .5-.224.5-.5 0-.011 0-.022-.001-.033zm-4-4.467c0-.551.449-1 1-1s1 .449 1 1-.449 1-1 1-1-.449-1-1zm-.95 4c.038-.234.106-.523.224-.808.334-.802.899-1.192 1.726-1.192 1.429 0 1.837 1.268 1.953 2h-3.904z"/></svg>