<svg height="20" viewBox="0 0 20 20" width="20" xmlns="http://www.w3.org/2000/svg"><path d="m19.147 3.439c-.06-.06-1.517-1.479-4.818-1.479-1.661 0-3.51.36-5.496 1.069-2.005.716-3.718 1.763-5.091 3.112-1.102 1.082-1.986 2.357-2.629 3.791-1.095 2.44-1.11 4.482-1.11 4.567-.001.71.421 1.574.981 2.009.079.062 1.981 1.511 5.414 1.511 1.69 0 3.467-.354 5.282-1.053 1.888-.727 3.502-1.781 4.796-3.134 1.036-1.084 1.869-2.358 2.475-3.788 1.03-2.431 1.048-4.458 1.048-4.543.002-.689-.364-1.575-.851-2.062zm-1.134 6.252c-1.279 2.992-3.531 5.126-6.694 6.342-1.7.654-3.357.986-4.923.986-3.068 0-4.784-1.288-4.8-1.3-.127-.099-.249-.254-.35-.429.623-.861 2.064-2.612 4.544-4.385.225-.161.277-.473.116-.698s-.473-.277-.698-.116c-1.988 1.421-3.345 2.838-4.168 3.834.078-.73.307-2.077.983-3.584 1.354-3.018 3.757-5.161 7.144-6.371 1.878-.671 3.614-1.011 5.16-1.011 1.495 0 2.535.324 3.144.596.47.21.763.422.892.526-.848.112-2.157.366-4.011.937-.264.081-.412.361-.331.625.066.215.264.353.478.353.049 0 .098-.007.147-.022 2.195-.676 3.582-.885 4.27-.948.05.168.08.333.08.471 0 .019-.022 1.941-.984 4.193z"/><path d="m7.5 10.999c-.276 0-.5-.224-.5-.5 0-.828-.673-1.501-1.501-1.501-.276 0-.5-.224-.5-.5s.224-.5.5-.5c1.379 0 2.501 1.122 2.501 2.501 0 .276-.224.5-.5.5z"/><path d="m9.5 9.999c-.276 0-.5-.224-.5-.5 0-.828-.673-1.501-1.501-1.501-.276 0-.5-.224-.5-.5s.224-.5.5-.5c1.379 0 2.501 1.122 2.501 2.501 0 .276-.224.5-.5.5z"/><path d="m11.5 8.999c-.276 0-.5-.224-.5-.5 0-.828-.673-1.501-1.501-1.501-.276 0-.5-.224-.5-.5s.224-.5.5-.5c1.379 0 2.501 1.122 2.501 2.501 0 .276-.224.5-.5.5z"/><path d="m13.5 7.999c-.276 0-.5-.224-.5-.5 0-.828-.673-1.501-1.501-1.501-.276 0-.5-.224-.5-.5s.224-.5.5-.5c1.379 0 2.501 1.122 2.501 2.501 0 .276-.224.5-.5.5z"/></svg>