<svg height="20" viewBox="0 0 20 20" width="20" xmlns="http://www.w3.org/2000/svg"><path d="m14 11.997c-1.145 0-2.177-.562-2.907-1.583-.715-1.001-1.093-2.354-1.093-3.914 0-.695.053-2.48.549-4.036.648-2.036 1.691-2.464 2.451-2.464 1.12 0 2.152.712 2.907 2.005.705 1.209 1.093 2.805 1.093 4.495 0 1.269 0 2.581-.338 3.594-.421 1.263-1.317 1.903-2.662 1.903zm-1-10.997c-.774 0-1.242.961-1.498 1.767-.453 1.423-.502 3.085-.502 3.733 0 1.331.322 2.515.907 3.333.545.762 1.268 1.164 2.093 1.164.916 0 1.428-.365 1.713-1.219.287-.86.287-2.089.287-3.278 0-2.981-1.374-5.5-3-5.5z"/><path d="m13.5 18c-.765 0-1.773-.311-2.228-1.79-.272-.884-.272-1.939-.272-2.71 0-.173.09-.334.237-.425s.331-.099.486-.022c.404.202 1.068.322 1.776.322s1.373-.12 1.776-.322c.155-.077.339-.069.486.022s.237.252.237.425c0 .77 0 1.825-.272 2.71-.455 1.48-1.463 1.791-2.228 1.791zm-1.494-3.794c.015.57.063 1.195.221 1.709.296.961.835 1.085 1.272 1.085s.976-.123 1.272-1.085c.158-.515.207-1.139.221-1.709-.443.109-.957.169-1.494.169s-1.051-.059-1.494-.169z"/><path d="m5 13.997c-1.345 0-2.241-.64-2.662-1.903-.338-1.014-.338-2.326-.338-3.594 0-1.69.388-3.286 1.093-4.495.754-1.293 1.787-2.005 2.907-2.005.761 0 1.804.427 2.451 2.464.495 1.557.549 3.341.549 4.036 0 1.56-.378 2.914-1.093 3.914-.73 1.021-1.762 1.583-2.907 1.583zm1-10.997c-1.626 0-3 2.519-3 5.5 0 1.189 0 2.418.287 3.278.285.855.797 1.219 1.713 1.219.825 0 1.549-.403 2.093-1.164.585-.818.907-2.002.907-3.333 0-.648-.049-2.31-.502-3.733-.256-.806-.725-1.767-1.498-1.767z"/><path d="m5.5 20c-.765 0-1.773-.311-2.228-1.79-.272-.884-.272-1.939-.272-2.71 0-.173.09-.334.237-.425s.331-.099.486-.022c.404.202 1.068.322 1.776.322s1.373-.12 1.776-.322c.155-.077.339-.069.486.022s.237.252.237.425c0 .77 0 1.825-.272 2.71-.455 1.48-1.463 1.791-2.228 1.791zm-1.493-3.794c.015.57.063 1.195.221 1.709.296.961.835 1.085 1.272 1.085s.976-.123 1.272-1.085c.158-.515.207-1.139.221-1.709-.443.109-.957.169-1.493.169s-1.051-.059-1.494-.169z"/></svg>