<svg height="20" viewBox="0 0 20 20" width="20" xmlns="http://www.w3.org/2000/svg"><path d="m9.5 20c-2.538 0-4.923-.988-6.718-2.782s-2.782-4.18-2.782-6.717c0-2.538.988-4.923 2.782-6.718s4.18-2.783 6.718-2.783 4.923.988 6.718 2.783 2.782 4.18 2.782 6.718-.988 4.923-2.782 6.717-4.18 2.782-6.718 2.782zm0-18c-4.687 0-8.5 3.813-8.5 8.5s3.813 8.5 8.5 8.5 8.5-3.813 8.5-8.5-3.813-8.5-8.5-8.5z"/><path d="m10.5 15c-.064 0-.129-.012-.191-.038-.187-.077-.309-.26-.309-.462v-8c0-.202.122-.385.309-.462s.402-.035.545.108l4 4c.195.195.195.512 0 .707l-4 4c-.096.096-.224.146-.354.146zm.5-7.293v5.586l2.793-2.793z"/><path d="m5.5 15c-.064 0-.129-.012-.191-.038-.187-.077-.309-.26-.309-.462v-8c0-.202.122-.385.309-.462s.402-.035.545.108l4 4c.195.195.195.512 0 .707l-4 4c-.096.096-.224.146-.354.146zm.5-7.293v5.586l2.793-2.793z"/></svg>