<svg height="20" viewBox="0 0 20 20" width="20" xmlns="http://www.w3.org/2000/svg"><path d="m16.23 3.307c-.396-.268-.949-.504-1.643-.702-1.366-.39-3.172-.605-5.087-.605s-3.722.215-5.087.605c-.694.198-1.246.434-1.643.702-.637.43-.77.886-.77 1.193v.5c0 .428.321 1.133.639 1.609l4.891 7.336c.251.376.471 1.103.471 1.555v3c0 .173.09.334.237.425.08.05.171.075.263.075.076 0 .153-.018.224-.053l2-1c.169-.085.276-.258.276-.447v-2c0-.452.22-1.179.471-1.555l4.891-7.336c.317-.476.639-1.182.639-1.609v-.5c0-.307-.134-.763-.77-1.193zm-11.542.26c1.279-.365 2.988-.567 4.812-.567s3.534.201 4.812.567c1.378.394 1.688.816 1.688.933s-.31.54-1.688.933c-1.279.365-2.988.567-4.812.567s-3.534-.201-4.812-.567c-1.378-.394-1.688-.816-1.688-.933s.31-.54 1.688-.933zm5.951 9.824c-.358.537-.639 1.464-.639 2.109v1.691l-1 .5v-2.191c0-.646-.281-1.572-.639-2.109l-4.88-7.32c.274.117.585.226.932.324 1.366.39 3.172.605 5.087.605s3.722-.215 5.087-.605c.346-.099.658-.207.932-.325l-4.88 7.32z"/></svg>