<svg height="20" viewBox="0 0 20 20" width="20" xmlns="http://www.w3.org/2000/svg"><path d="m13.471 14.055c-.251-.376-.471-1.103-.471-1.555v-1c0-.452.22-1.179.471-1.555l1.445-2.168c.057-.085.084-.182.084-.277 0-.162-.078-.32-.223-.416-.23-.153-.54-.091-.693.139l-1.445 2.168c-.213.319-.755.609-1.139.609h-4c-.383 0-.926-.29-1.139-.609l-1.445-2.168c-.153-.23-.464-.292-.693-.139-.144.096-.223.255-.223.416 0 .095.027.192.084.277l1.445 2.168c.251.376.471 1.103.471 1.555v1c0 .452-.22 1.179-.471 1.555l-1.445 2.168c-.057.085-.084.182-.084.277 0 .162.078.32.223.416.23.153.54.091.693-.139l1.445-2.168c.213-.319.755-.609 1.139-.609h4c.383 0 .926.29 1.139.609l1.445 2.168c.096.145.255.223.416.223.095 0 .192-.027.277-.084.144-.096.223-.255.223-.416 0-.095-.027-.192-.084-.277zm-5.971-1.055c-.276 0-.5-.224-.5-.5v-1c0-.276.224-.5.5-.5h4c.276 0 .5.224.5.5v1c0 .276-.224.5-.5.5z"/><path d="m11.5 5h-4c-.827 0-1.5-.673-1.5-1.5s.673-1.5 1.5-1.5h4c.827 0 1.5.673 1.5 1.5s-.673 1.5-1.5 1.5zm-4-2c-.276 0-.5.224-.5.5s.224.5.5.5h4c.276 0 .5-.224.5-.5s-.224-.5-.5-.5z"/><path d="m17.146 3.939-.033-.033.439-.439c.585-.585.585-1.536 0-2.121l-.898-.898c-.283-.283-.659-.438-1.061-.438s-.778.156-1.061.438l-.439.439-.033-.033c-.487-.487-1.372-.854-2.061-.854h-5c-.688 0-1.574.367-2.061.854l-3.086 3.086c-.487.487-.854 1.373-.854 2.061v12.5c0 .827.673 1.5 1.5 1.5h14c.827 0 1.5-.673 1.5-1.5v-12.5c0-.688-.367-1.574-.854-2.061zm-1.906-2.785c.094-.094.219-.145.354-.145s.26.052.354.145l.898.898c.195.195.195.512 0 .707l-.439.439-1.605-1.605.439-.439zm1.76 17.346c0 .276-.224.5-.5.5h-14c-.276 0-.5-.224-.5-.5v-12.5c0-.415.267-1.06.561-1.354l3.086-3.086c.293-.293.939-.561 1.354-.561h5c.415 0 1.06.267 1.354.561l3.086 3.086c.293.293.561.939.561 1.354v12.5z"/></svg>