<svg height="20" viewBox="0 0 20 20" width="20" xmlns="http://www.w3.org/2000/svg"><path d="m9.5 20c-2.538 0-4.923-.988-6.718-2.782s-2.782-4.18-2.782-6.717c0-2.538.988-4.923 2.782-6.718s4.18-2.783 6.718-2.783c1.776 0 3.508.493 5.009 1.426 1.459.907 2.647 2.193 3.435 3.717.061.118.072.255.032.382s-.129.232-.247.292l-7.139 3.683 7.139 3.683c.118.061.207.166.247.292s.029.264-.032.382c-.788 1.524-1.976 2.81-3.435 3.717-1.501.933-3.233 1.426-5.009 1.426zm0-18c-4.687 0-8.5 3.813-8.5 8.5s3.813 8.5 8.5 8.5c3.026 0 5.784-1.583 7.313-4.165l-7.543-3.891c-.166-.086-.271-.257-.271-.444s.104-.359.271-.444l7.543-3.891c-1.53-2.581-4.288-4.165-7.313-4.165z"/><path d="m11.5 7c-.827 0-1.5-.673-1.5-1.5s.673-1.5 1.5-1.5 1.5.673 1.5 1.5-.673 1.5-1.5 1.5zm0-2c-.276 0-.5.224-.5.5s.224.5.5.5.5-.224.5-.5-.224-.5-.5-.5z"/></svg>