<svg height="20" viewBox="0 0 20 20" width="20" xmlns="http://www.w3.org/2000/svg"><path d="m15 15c-1.081 0-2.139-.354-3-1h-4c-.861.646-1.919 1-3 1-2.757 0-5-2.243-5-5s2.243-5 5-5h10c2.757 0 5 2.243 5 5s-2.243 5-5 5zm-2.828-2c.114 0 .226.039.314.111.718.581 1.588.888 2.514.888 2.206 0 4-1.794 4-4s-1.794-4-4-4h-10c-2.206 0-4 1.794-4 4s1.794 4 4 4c.926 0 1.795-.307 2.514-.888.089-.072.2-.111.314-.111h4.343z"/><path d="m7.5 9h-1.5v-1.5c0-.276-.224-.5-.5-.5s-.5.224-.5.5v1.5h-1.5c-.276 0-.5.224-.5.5s.224.5.5.5h1.5v1.5c0 .276.224.5.5.5s.5-.224.5-.5v-1.5h1.5c.276 0 .5-.224.5-.5s-.224-.5-.5-.5z"/><path d="m13.5 10c-.827 0-1.5-.673-1.5-1.5s.673-1.5 1.5-1.5 1.5.673 1.5 1.5-.673 1.5-1.5 1.5zm0-2c-.276 0-.5.224-.5.5s.224.5.5.5.5-.224.5-.5-.224-.5-.5-.5z"/><path d="m16.5 12c-.827 0-1.5-.673-1.5-1.5s.673-1.5 1.5-1.5 1.5.673 1.5 1.5-.673 1.5-1.5 1.5zm0-2c-.276 0-.5.224-.5.5s.224.5.5.5.5-.224.5-.5-.224-.5-.5-.5z"/></svg>