<svg height="20" viewBox="0 0 20 20" width="20" xmlns="http://www.w3.org/2000/svg"><path d="m10.5 20h-9c-.827 0-1.5-.673-1.5-1.5v-14c0-.827.673-1.5 1.5-1.5h9c.827 0 1.5.673 1.5 1.5v14c0 .827-.673 1.5-1.5 1.5zm-9-16c-.276 0-.5.224-.5.5v14c0 .276.224.5.5.5h9c.276 0 .5-.224.5-.5v-14c0-.276-.224-.5-.5-.5z"/><path d="m8.5 10h-5c-.827 0-1.5-.673-1.5-1.5v-2c0-.827.673-1.5 1.5-1.5h5c.827 0 1.5.673 1.5 1.5v2c0 .827-.673 1.5-1.5 1.5zm-5-4c-.276 0-.5.224-.5.5v2c0 .276.224.5.5.5h5c.276 0 .5-.224.5-.5v-2c0-.276-.224-.5-.5-.5z"/><path d="m18.146 3.939-2.293-2.293s0 0 0 0l-.293-.293c-.46-.46-1.323-.904-1.965-1.011l-2.014-.336c-.272-.045-.53.139-.575.411s.139.53.411.575l2.014.336c.414.069 1.025.374 1.36.673l-.438.438c-.585.585-.585 1.536 0 2.121l.586.586c.283.283.659.438 1.061.438s.778-.156 1.061-.438l.437-.437c.27.315.503.903.503 1.29v9.5c0 .827-.673 1.5-1.5 1.5s-1.5-.673-1.5-1.5v-7c0-.827-.673-1.5-1.5-1.5h-.5v-.5c0-.276-.224-.5-.5-.5s-.5.224-.5.5v2c0 .276.224.5.5.5s.5-.224.5-.5v-.5h.5c.276 0 .5.224.5.5v7c0 1.378 1.122 2.5 2.5 2.5s2.5-1.122 2.5-2.5v-9.5c0-.688-.367-1.574-.854-2.061zm-2.146.646c-.134 0-.26-.052-.354-.145l-.586-.586c-.195-.195-.195-.512 0-.707l.439-.439 1.293 1.293-.439.439c-.094.094-.219.145-.354.145z"/></svg>