<svg height="20" viewBox="0 0 20 20" width="20" xmlns="http://www.w3.org/2000/svg"><path d="m18.5 20c-1.645 0-2.506-.413-3.134-.715-.344-.165-.592-.285-.866-.285-.349 0-.638.193-.973.416-.411.274-.876.584-1.527.584s-1.117-.31-1.527-.584c-.335-.223-.624-.416-.973-.416s-.638.193-.973.416c-.411.274-.876.584-1.527.584-.662 0-1.158-.319-1.595-.601-.332-.214-.619-.399-.905-.399-.22 0-.455.112-.779.266-.651.31-1.542.734-3.221.734-.276 0-.5-.224-.5-.5v-9c0-2.538.988-4.923 2.783-6.717s4.18-2.783 6.717-2.783c2.538 0 4.923.988 6.718 2.783s2.782 4.18 2.782 6.717v9c0 .276-.224.5-.5.5zm-9-2c.651 0 1.117.31 1.527.584.335.223.624.416.973.416s.638-.193.973-.416c.411-.274.876-.584 1.527-.584.501 0 .889.186 1.299.383.5.24 1.108.532 2.201.601v-8.485c0-4.687-3.813-8.5-8.5-8.5s-8.5 3.813-8.5 8.5v8.485c1.131-.07 1.767-.373 2.291-.622.393-.187.763-.363 1.209-.363.579 0 1.04.296 1.446.558.368.237.687.442 1.054.442.349 0 .638-.193.973-.416.411-.274.876-.584 1.527-.584z"/><path d="m6.5 10c-.827 0-1.5-.673-1.5-1.5s.673-1.5 1.5-1.5 1.5.673 1.5 1.5-.673 1.5-1.5 1.5zm0-2c-.276 0-.5.224-.5.5s.224.5.5.5.5-.224.5-.5-.224-.5-.5-.5z"/><path d="m12.5 10c-.827 0-1.5-.673-1.5-1.5s.673-1.5 1.5-1.5 1.5.673 1.5 1.5-.673 1.5-1.5 1.5zm0-2c-.276 0-.5.224-.5.5s.224.5.5.5.5-.224.5-.5-.224-.5-.5-.5z"/></svg>