<svg height="20" viewBox="0 0 20 20" width="20" xmlns="http://www.w3.org/2000/svg"><path d="m18.5 5h-3.001c.315-.418.501-.938.501-1.5 0-1.378-1.122-2.5-2.5-2.5-1.39 0-2.556 1.101-3.127 1.758-.346.397-.644.823-.873 1.235-.229-.412-.527-.837-.873-1.235-.571-.656-1.737-1.758-3.127-1.758-1.378 0-2.5 1.122-2.5 2.5 0 .562.187 1.082.501 1.5h-3.001c-.276 0-.5.224-.5.5v3c0 .276.224.5.5.5h.5v9.5c0 .827.673 1.5 1.5 1.5h14c.827 0 1.5-.673 1.5-1.5v-9.5h.5c.276 0 .5-.224.5-.5v-3c0-.276-.224-.5-.5-.5zm-7.373-1.586c.782-.899 1.647-1.414 2.373-1.414.827 0 1.5.673 1.5 1.5s-.673 1.5-1.5 1.5h-3.378c.173-.442.523-1.032 1.005-1.586zm-.127 15.586h-3v-13h3zm-7-15.5c0-.827.673-1.5 1.5-1.5.726 0 1.591.515 2.373 1.414.482.554.832 1.144 1.005 1.586h-3.378c-.827 0-1.5-.673-1.5-1.5zm-3 2.5h6v2h-6zm1 12.5v-9.5h5v10h-4.5c-.276 0-.5-.224-.5-.5zm15 0c0 .276-.224.5-.5.5h-4.5v-10h5zm1-10.5h-6v-2h6z"/></svg>