<svg height="20" viewBox="0 0 20 20" width="20" xmlns="http://www.w3.org/2000/svg"><path d="m18.5 9h-.647c-.079-.301-.2-.585-.385-.845-.552-.777-1.564-1.155-3.093-1.155h-9.75c-1.529 0-2.541.378-3.093 1.155-.185.261-.306.545-.385.845h-.647c-.276 0-.5.224-.5.5s.224.5.5.5h.511c-.009.195-.011.394-.011.594 0 1.974 1.393 3.406 3.313 3.406.912 0 2.063-.614 3.077-1.643.756-.767 1.283-1.605 1.5-2.357h1.22c.217.752.744 1.59 1.5 2.357 1.015 1.029 2.165 1.643 3.077 1.643 1.919 0 3.313-1.433 3.313-3.406 0-.2-.002-.399-.011-.594h.511c.276 0 .5-.224.5-.5s-.224-.5-.5-.5zm-8.487 0h-1.027c-.038-.397-.16-.729-.367-1h1.761c-.208.271-.329.603-.367 1zm-3.335 2.655c-.806.817-1.734 1.345-2.365 1.345-1.362 0-2.313-.989-2.313-2.406 0-.361.007-.691.045-.985.005-.024.009-.049.01-.074.148-.971.68-1.534 2.57-1.534 3.14 0 3.375.507 3.375 1.281 0 .627-.519 1.558-1.322 2.373zm8.01 1.345c-.631 0-1.559-.528-2.365-1.345-.803-.815-1.322-1.746-1.322-2.373 0-.774.235-1.281 3.375-1.281 1.889 0 2.422.564 2.57 1.534.002.025.005.05.01.074.038.294.045.624.045.985 0 1.417-.951 2.406-2.313 2.406z"/></svg>