<svg height="20" viewBox="0 0 20 20" width="20" xmlns="http://www.w3.org/2000/svg"><path d="m16.5 0h-3c-.783 0-1.536.597-1.716 1.359l-1.321 5.612c-.314.019-.637.029-.964.029-1.219 0-2.377-.135-3.261-.381s-1.176-.516-1.23-.608l-.003-.018c.046-.086.332-.363 1.233-.613.884-.245 2.042-.381 3.261-.381.276 0 .5-.224.5-.5s-.224-.5-.5-.5c-1.383 0-2.689.163-3.679.46-.511.153-.921.338-1.217.548-.499.354-.604.735-.604.992 0 .075.009.161.034.253l1.967 12.296c.028.465.458.839 1.278 1.113.645.215 1.454.338 2.221.338.763 0 1.568-.123 2.209-.339.807-.271 1.24-.641 1.288-1.1l1.969-12.309c.025-.092.034-.178.034-.253 0-.006 0-.011 0-.017 0-.002 0-.005 0-.007-.013-.546-.455-.997-1.314-1.34-.256-.102-.547.022-.65.279s.023.547.279.65c.477.19.646.364.68.429l-.003.018c-.054.091-.346.362-1.23.608-.372.103-.793.187-1.246.249l1.242-5.281c.072-.308.426-.588.742-.588h3c.276 0 .5-.224.5-.5s-.224-.5-.5-.5zm-3.321 7.54c.22-.066.421-.138.602-.215l-1.773 11.079c-.177.192-1.168.597-2.509.597-.582 0-1.188-.08-1.706-.226-.498-.14-.731-.292-.801-.358l-1.775-11.092c.181.077.382.149.602.215.99.297 2.296.46 3.679.46.245 0 .487-.005.725-.015l-.709 3.015c-.005 0-.01 0-.016 0-1.501 0-2.361-.372-2.502-.545-.023-.255-.237-.455-.498-.455-.276 0-.5.224-.5.5 0 .993 1.614 1.46 3.281 1.497l-1.268 5.388c-.063.269.103.538.372.601.038.009.077.013.115.013.227 0 .432-.155.486-.386l1.329-5.649c1.435-.125 2.684-.592 2.684-1.465 0-.276-.224-.5-.5-.5-.261 0-.475.2-.498.455-.104.127-.595.361-1.443.476l.712-3.025c.707-.077 1.357-.201 1.908-.367z"/></svg>