<svg height="20" viewBox="0 0 20 20" width="20" xmlns="http://www.w3.org/2000/svg"><path d="m15.934.252c-.089-.156-.255-.252-.434-.252h-12c-.179 0-.345.096-.434.252-.67 1.173-1.01 2.315-1.01 3.394 0 .955.267 1.889.792 2.776.94 1.585 2.517 2.768 3.908 3.812 1.103.828 2.244 1.683 2.244 2.267v5c0 .813-.458 1.5-1 1.5h-1.5c-.276 0-.5.224-.5.5s.224.5.5.5h6c.276 0 .5-.224.5-.5s-.224-.5-.5-.5h-1.5c-.542 0-1-.687-1-1.5v-5c0-.583 1.141-1.439 2.244-2.267 1.391-1.044 2.968-2.226 3.908-3.812.526-.887.792-1.821.792-2.776 0-1.079-.34-2.221-1.01-3.394zm-.642 5.66c-.838 1.415-2.331 2.534-3.648 3.522-.89.667-1.667 1.25-2.144 1.845-.477-.595-1.255-1.178-2.144-1.845-1.317-.988-2.809-2.107-3.648-3.522-.892-1.505-.864-3.114.088-4.912h11.409c.951 1.798.979 3.407.088 4.912z"/></svg>