<svg height="20" viewBox="0 0 20 20" width="20" xmlns="http://www.w3.org/2000/svg"><path d="m19.5 9h-.627c-.445-1.723-2.013-3-3.873-3-1.668 0-3.101 1.027-3.7 2.482-.35-.3-.804-.482-1.3-.482s-.95.182-1.3.482c-.599-1.455-2.032-2.482-3.7-2.482-1.86 0-3.428 1.277-3.873 3h-.627c-.276 0-.5.224-.5.5s.224.5.5.5h.5c0 2.206 1.794 4 4 4s4-1.794 4-4c0-.551.449-1 1-1s1 .449 1 1c0 2.206 1.794 4 4 4s4-1.794 4-4h.5c.276 0 .5-.224.5-.5s-.224-.5-.5-.5zm-14.5 4c-1.654 0-3-1.346-3-3s1.346-3 3-3 3 1.346 3 3-1.346 3-3 3zm10 0c-1.654 0-3-1.346-3-3s1.346-3 3-3 3 1.346 3 3-1.346 3-3 3z"/></svg>