<svg height="20" viewBox="0 0 20 20" width="20" xmlns="http://www.w3.org/2000/svg"><path d="m7.5 16c-2.481 0-4.5-2.019-4.5-4.5s2.019-4.5 4.5-4.5 4.5 2.019 4.5 4.5-2.019 4.5-4.5 4.5zm0-8c-1.93 0-3.5 1.57-3.5 3.5s1.57 3.5 3.5 3.5 3.5-1.57 3.5-3.5-1.57-3.5-3.5-3.5z"/><path d="m7.5 20c-.276 0-.5-.224-.5-.5 0-1.672-1.706-2.544-1.724-2.553-.247-.123-.347-.424-.224-.671s.424-.347.671-.224c.064.032 1.126.576 1.776 1.661.651-1.085 1.712-1.629 1.776-1.661.247-.123.547-.023.671.224s.023.547-.224.671c-.016.008-1.724.895-1.724 2.553 0 .276-.224.5-.5.5z"/><path d="m7 9.5c0 .276-.224.5-.5.5s-.5-.224-.5-.5.224-.5.5-.5.5.224.5.5z"/><path d="m9 9.5c0 .276-.224.5-.5.5s-.5-.224-.5-.5.224-.5.5-.5.5.224.5.5z"/><path d="m6 11.5c0 .276-.224.5-.5.5s-.5-.224-.5-.5.224-.5.5-.5.5.224.5.5z"/><path d="m8 11.5c0 .276-.224.5-.5.5s-.5-.224-.5-.5.224-.5.5-.5.5.224.5.5z"/><path d="m10 11.5c0 .276-.224.5-.5.5s-.5-.224-.5-.5.224-.5.5-.5.5.224.5.5z"/><path d="m7 13.5c0 .276-.224.5-.5.5s-.5-.224-.5-.5.224-.5.5-.5.5.224.5.5z"/><path d="m9 13.5c0 .276-.224.5-.5.5s-.5-.224-.5-.5.224-.5.5-.5.5.224.5.5z"/><path d="m19.815 3.112c-.215-.174-.529-.141-.703.074l-3.291 4.06c-.249-.536-.757-1.101-1.536-1.709-.895-.699-2.149-1.451-3.628-2.172-2.804-1.369-5.814-2.363-7.157-2.363-1.107 0-2.063.649-2.691 1.827-.522.978-.809 2.282-.809 3.673 0 1.673.801 2.872 2.318 3.466.06.023.122.035.182.035.2 0 .388-.121.466-.318.101-.257-.026-.547-.283-.648-1.132-.443-1.682-1.272-1.682-2.534 0-2.236.859-4.5 2.5-4.5 1.17 0 4.121.993 6.718 2.262 3.53 1.724 4.782 3.091 4.782 3.738 0 .447-.191.831-2.536 1.001-.275.02-.482.26-.462.535s.259.482.535.462c1.22-.089 1.962-.233 2.482-.481.279-.134.5-.304.66-.51.001-.002.003-.003.004-.004l4.206-5.189c.174-.215.141-.529-.074-.703z"/><path d="m6 4h-3c-.276 0-.5-.224-.5-.5s.224-.5.5-.5h3c.276 0 .5.224.5.5s-.224.5-.5.5z"/><path d="m10.5 6h-8c-.276 0-.5-.224-.5-.5s.224-.5.5-.5h8c.276 0 .5.224.5.5s-.224.5-.5.5z"/><path d="m12.5 8h-1.5c-.276 0-.5-.224-.5-.5s.224-.5.5-.5h1.5c.276 0 .5.224.5.5s-.224.5-.5.5z"/><path d="m4 8h-1.5c-.276 0-.5-.224-.5-.5s.224-.5.5-.5h1.5c.276 0 .5.224.5.5s-.224.5-.5.5z"/></svg>