<svg height="20" viewBox="0 0 20 20" width="20" xmlns="http://www.w3.org/2000/svg"><path d="m17.5 9c-1.378 0-2.5-1.122-2.5-2.5s1.122-2.5 2.5-2.5 2.5 1.122 2.5 2.5-1.122 2.5-2.5 2.5zm0-4c-.827 0-1.5.673-1.5 1.5s.673 1.5 1.5 1.5 1.5-.673 1.5-1.5-.673-1.5-1.5-1.5z"/><path d="m6.5 17c-.899 0-1.751-.238-2.399-.67-.71-.473-1.101-1.123-1.101-1.83 0-.755.46-1.459 1.262-1.931.238-.14.544-.061.684.177s.061.544-.177.684c-.489.288-.769.677-.769 1.069 0 .813 1.145 1.5 2.5 1.5s2.5-.687 2.5-1.5c0-.392-.28-.782-.769-1.069-.238-.14-.317-.446-.177-.684s.447-.317.684-.177c.802.472 1.262 1.176 1.262 1.931 0 .707-.391 1.357-1.101 1.83-.648.432-1.5.67-2.399.67z"/><path d="m6.5 15c-.276 0-.5-.224-.5-.5v-7.989c0-.007 0-.014 0-.021v-5.99c0-.173.09-.334.237-.425s.331-.099.486-.022l6 3c.169.085.276.258.276.447s-.107.363-.276.447l-5.724 2.862v7.691c0 .276-.224.5-.5.5zm.5-13.691v4.382l4.382-2.191z"/><path d="m9 20c-2.358 0-4.583-.545-6.264-1.533-1.764-1.038-2.736-2.447-2.736-3.967 0-1.954 1.618-3.715 4.327-4.712.259-.095.547.037.642.297s-.038.547-.297.642c-1.13.416-2.068.989-2.713 1.659-.628.652-.959 1.383-.959 2.114 0 1.151.797 2.254 2.243 3.105 1.53.9 3.574 1.395 5.757 1.395s4.227-.496 5.757-1.395c1.447-.851 2.243-1.953 2.243-3.105s-.797-2.254-2.243-3.105c-1.53-.9-3.574-1.395-5.757-1.395-.161 0-.323.003-.483.008-.276.01-.507-.207-.517-.483s.207-.507.483-.517c.171-.006.345-.009.517-.009 2.358 0 4.583.545 6.264 1.533 1.764 1.038 2.736 2.447 2.736 3.967s-.972 2.929-2.736 3.967c-1.681.989-3.906 1.533-6.264 1.533z"/></svg>