<svg height="20" viewBox="0 0 20 20" width="20" xmlns="http://www.w3.org/2000/svg"><path d="m18.5 20h-17c-.827 0-1.5-.673-1.5-1.5v-17c0-.827.673-1.5 1.5-1.5h17c.827 0 1.5.673 1.5 1.5v17c0 .827-.673 1.5-1.5 1.5zm-17-19c-.276 0-.5.224-.5.5v17c0 .276.224.5.5.5h17c.276 0 .5-.224.5-.5v-17c0-.276-.224-.5-.5-.5z"/><path d="m10.707 10 7.146-7.146c.195-.195.195-.512 0-.707s-.512-.195-.707 0l-7.146 7.146-.793-.793 5.646-5.646c.195-.195.195-.512 0-.707s-.512-.195-.707 0l-5.646 5.646-.793-.793 4.146-4.146c.195-.195.195-.512 0-.707s-.512-.195-.707 0l-4.146 4.146-.793-.793 2.646-2.646c.195-.195.195-.512 0-.707s-.512-.195-.707 0l-2.646 2.646-.793-.793 1.146-1.146c.195-.195.195-.512 0-.707s-.512-.195-.707 0l-1.146 1.146-1.146-1.146c-.195-.195-.512-.195-.707 0s-.195.512 0 .707l1.146 1.146-1.146 1.146c-.195.195-.195.512 0 .707l1.146 1.146-1.146 1.146c-.195.195-.195.512 0 .707l1.146 1.146-1.146 1.146c-.195.195-.195.512 0 .707l1.146 1.146-1.146 1.146c-.195.195-.195.512 0 .707l1.146 1.146-1.146 1.146c-.195.195-.195.512 0 .707.098.098.226.146.354.146s.256-.049.354-.146l1.146-1.146 1.146 1.146c.098.098.226.146.354.146s.256-.049.354-.146c.195-.195.195-.512 0-.707l-1.146-1.146.793-.793 2.646 2.646c.098.098.226.146.354.146s.256-.049.354-.146c.195-.195.195-.512 0-.707l-2.646-2.646.793-.793 4.146 4.146c.098.098.226.146.354.146s.256-.049.354-.146c.195-.195.195-.512 0-.707l-4.146-4.146.793-.793 5.646 5.646c.098.098.226.146.354.146s.256-.049.354-.146c.195-.195.195-.512 0-.707l-5.646-5.646.793-.793 7.146 7.146c.098.098.226.146.354.146s.256-.049.354-.146c.195-.195.195-.512 0-.707l-7.146-7.146zm-2.914-1.5-.793.793-.793-.793.793-.793zm-1.5 1.5-.793.793-.793-.793.793-.793zm0-3-.793.793-.793-.793.793-.793zm-3.086-1.5.793-.793.793.793-.793.793zm0 3 .793-.793.793.793-.793.793zm0 3 .793-.793.793.793-.793.793zm.793 3.793-.793-.793.793-.793.793.793zm1.5-1.5-.793-.793.793-.793.793.793zm1.5-1.5-.793-.793.793-.793.793.793zm1.5-1.5-.793-.793.793-.793.793.793z"/></svg>