<svg height="20" viewBox="0 0 20 20" width="20" xmlns="http://www.w3.org/2000/svg"><path d="m18.658 7.026-9-3c-.103-.034-.214-.034-.316 0l-9 3c-.204.068-.342.259-.342.474s.138.406.342.474l2.658.886v2.64c0 .133.053.26.146.354.088.088 2.194 2.146 6.354 2.146 1.513 0 2.924-.272 4.195-.809.254-.107.373-.401.266-.655s-.401-.373-.655-.266c-1.147.485-2.427.73-3.805.73-1.945 0-3.376-.504-4.234-.926-.635-.313-1.06-.629-1.266-.799v-2.081l5.342 1.781c.051.017.105.026.158.026s.107-.009.158-.026l5.342-1.781v.892c-.582.206-1 .762-1 1.414 0 .611.367 1.137.892 1.371l-.877 3.508c-.037.149-.004.308.091.429s.24.192.394.192h2c.154 0 .299-.071.394-.192s.128-.28.091-.429l-.877-3.508c.525-.234.892-.76.892-1.371 0-.652-.418-1.208-1-1.414v-1.226l2.658-.886c.204-.068.342-.259.342-.474s-.138-.406-.342-.474zm-3.158 3.974c.276 0 .5.224.5.5s-.224.5-.5.5-.5-.224-.5-.5.224-.5.5-.5zm-.36 5 .36-1.438.36 1.438h-.719zm.32-8.014-5.877-.98c-.273-.045-.53.139-.575.411s.139.53.411.575l4.014.669-3.932 1.311-7.419-2.473 7.419-2.473 7.419 2.473-1.459.486z"/></svg>