<svg height="20" viewBox="0 0 20 20" width="20" xmlns="http://www.w3.org/2000/svg"><path d="m19.5 20h-19c-.276 0-.5-.224-.5-.5v-19c0-.232.159-.433.385-.487s.458.056.562.263l1 2c.123.247.023.547-.224.671s-.547.023-.671-.224l-.053-.106v16.382h16.382l-.106-.053c-.247-.123-.347-.424-.224-.671s.424-.347.671-.224l2 1c.207.104.316.336.263.562s-.255.385-.487.385z"/><path d="m17 4.5c0-.827-.673-1.5-1.5-1.5s-1.5.673-1.5 1.5c0 .48.227.908.579 1.182l-2.106 6.318c-.28.005-.541.087-.764.226l-2.792-2.234c.054-.154.084-.32.084-.493 0-.827-.673-1.5-1.5-1.5s-1.5.673-1.5 1.5c0 .404.161.77.421 1.04l-1.736 3.472c-.061-.008-.122-.012-.185-.012-.827 0-1.5.673-1.5 1.5s.673 1.5 1.5 1.5 1.5-.673 1.5-1.5c0-.404-.161-.77-.421-1.04l1.736-3.472c.061.008.122.012.185.012.29 0 .562-.083.791-.227l2.792 2.234c-.054.154-.084.32-.084.493 0 .827.673 1.5 1.5 1.5s1.5-.673 1.5-1.5c0-.48-.227-.908-.579-1.183l2.106-6.318c.814-.015 1.473-.681 1.473-1.499zm-1.5-.5c.276 0 .5.224.5.5s-.224.5-.5.5-.5-.224-.5-.5.224-.5.5-.5zm-8 5c.276 0 .5.224.5.5s-.224.5-.5.5-.5-.224-.5-.5.224-.5.5-.5zm-3 7c-.276 0-.5-.224-.5-.5s.224-.5.5-.5.5.224.5.5-.224.5-.5.5zm8-2c-.276 0-.5-.224-.5-.5s.224-.5.5-.5.5.224.5.5-.224.5-.5.5z"/></svg>