<svg height="20" viewBox="0 0 20 20" width="20" xmlns="http://www.w3.org/2000/svg"><path d="m18.614 14.472c.251-.446.386-.952.386-1.472 0-1.061-.553-1.994-1.386-2.528.251-.446.386-.952.386-1.472 0-1.654-1.346-3-3-3-.534 0-1.037.141-1.472.387-.495-.772-1.328-1.287-2.252-1.373.038-.045.076-.091.114-.139 1.053-1.316 1.61-2.829 1.61-4.375 0-.166-.082-.321-.22-.414s-.312-.112-.466-.05c-.629.252-1.664.173-2.76.09-1.826-.138-3.895-.295-5.245.957-.871.807-1.299 2.061-1.309 3.83-.248.323-.462.668-.639 1.033-.355-.536-.648-1.145-.877-1.825-.475-1.41-.484-2.609-.484-2.621 0-.276-.224-.499-.5-.499s-.5.224-.5.5c0 .054.006 1.349.526 2.908.364 1.092.892 2.041 1.563 2.825.021.031.046.059.073.084.271.307.565.588.88.84-1.186.401-2.042 1.524-2.042 2.843 0 1.032.538 1.984 1.387 2.528-.246.435-.387.937-.387 1.472 0 1.654 1.346 3 3 3 .52 0 1.026-.135 1.472-.386.534.833 1.467 1.386 2.528 1.386.753 0 1.457-.273 2.002-.764.531.475 1.231.764 1.998.764.52 0 1.026-.135 1.472-.386.534.833 1.467 1.386 2.528 1.386 1.654 0 3-1.346 3-3 0-1.061-.553-1.994-1.386-2.528zm-.93-.393c-.22-.051-.449-.079-.684-.079-.534 0-1.037.141-1.472.387-.36-.561-.898-.987-1.52-1.21-.005-.059-.008-.117-.008-.176 0-1.103.897-2 2-2s2 .897 2 2c0 .385-.111.759-.316 1.079zm-10.661-.333c-.622-.35-1.023-1.018-1.023-1.746 0-1.103.897-2 2-2 .521 0 1.007.197 1.376.548-.239.431-.376.926-.376 1.452 0 .348.061.688.175 1.005-.058-.003-.116-.005-.175-.005-.757 0-1.449.282-1.977.746zm-2.015-5.57c-.005-.059-.008-.117-.008-.176 0-1.103.897-2 2-2 .521 0 1.007.197 1.376.548-.239.431-.376.926-.376 1.452 0 .348.061.688.175 1.005-.058-.003-.116-.005-.175-.005-.534 0-1.037.141-1.472.387-.36-.561-.898-.987-1.52-1.21zm6.015 5.57c-.061-.034-.12-.072-.177-.112-.029-.023-.058-.045-.088-.066-.469-.374-.758-.949-.758-1.567 0-1.103.897-2 2-2 .728 0 1.396.401 1.746 1.023-.464.528-.746 1.22-.746 1.977-.757 0-1.449.282-1.977.746zm5.977-4.746c0 .385-.111.759-.316 1.079-.22-.051-.449-.079-.684-.079-.534 0-1.037.141-1.472.387-.36-.561-.898-.987-1.52-1.21-.005-.059-.008-.117-.008-.176 0-1.103.897-2 2-2s2 .897 2 2zm-4.254-1.977c-.464.528-.746 1.22-.746 1.977-.757 0-1.449.282-1.977.746-.061-.034-.12-.072-.177-.112-.029-.023-.058-.045-.088-.066-.469-.374-.758-.949-.758-1.567 0-1.103.897-2 2-2 .728 0 1.396.401 1.746 1.023zm-6.605-3.313c1.259-.584 2.4-.712 2.411-.713.275-.029.474-.275.445-.549s-.275-.474-.549-.445c-.052.005-1.292.141-2.697.787-.626.287-1.185.632-1.674 1.026.132-.896.433-1.555.912-1.999 1.03-.955 2.789-.822 4.49-.693.896.068 1.756.133 2.484.027-.127 1.086-.573 2.117-1.333 3.075-.591.745-1.191 1.204-1.36 1.326-.006.004-.011.008-.017.012-.019.013-.029.021-.03.021-.018.012-.034.025-.05.039-.059.045-.116.092-.171.142-.545-.491-1.249-.764-2.002-.764-1.533 0-2.801 1.156-2.978 2.641-.346-.235-.664-.505-.954-.808.502-1.359 1.535-2.409 3.074-3.123zm-2.141 5.29c.728 0 1.396.401 1.746 1.023-.464.528-.746 1.22-.746 1.977-.757 0-1.449.282-1.977.746-.622-.35-1.023-1.018-1.023-1.746 0-1.103.897-2 2-2zm1 8c-1.103 0-2-.897-2-2s.897-2 2-2c.059 0 .118.003.176.008.224.622.649 1.16 1.21 1.52-.246.435-.387.937-.387 1.472 0 .235.027.464.079.684-.32.205-.694.316-1.079.316zm2-1c0-1.103.897-2 2-2 .521 0 1.007.197 1.376.548-.239.431-.376.926-.376 1.452s.136 1.022.376 1.452c-.369.351-.855.548-1.376.548-1.103 0-2-.897-2-2zm6 2c-1.103 0-2-.897-2-2s.897-2 2-2c.728 0 1.396.401 1.746 1.023-.464.528-.746 1.22-.746 1.977 0 .235.027.464.079.684-.32.205-.694.316-1.079.316zm4 1c-1.103 0-2-.897-2-2s.897-2 2-2 2 .897 2 2-.897 2-2 2z"/></svg>