<svg height="20" viewBox="0 0 20 20" width="20" xmlns="http://www.w3.org/2000/svg"><path d="m19.854.146c-.195-.195-.512-.195-.707 0l-2 2c-.196-.094-.415-.147-.646-.147h-13c-.827 0-1.5.673-1.5 1.5v13c0 .231.053.45.147.646l-2 2c-.195.195-.195.512 0 .707.098.098.226.146.354.146s.256-.049.354-.146l2-2c.196.094.415.147.646.147h13c.827 0 1.5-.673 1.5-1.5v-13c0-.231-.053-.45-.147-.646l2-2c.195-.195.195-.512 0-.707zm-8.561 7.854-3.293 3.293v-3.293zm-3.293-1v-4h4v4zm-1 5h-4v-4h4zm1.707 0 3.293-3.293v3.293zm3.293 1v4h-4v-4zm1-5h4v4h-4zm0-5h3.293l-3.293 3.293zm-9.5 0h3.5v4h-4v-3.5c0-.276.224-.5.5-.5zm-.5 10h3.293l-3.293 3.293zm4 .707v3.293h-3.293zm9.5 3.293h-3.5v-4h4v3.5c0 .276-.224.5-.5.5zm.5-10h-3.293l3.293-3.293z"/></svg>