<svg height="20" viewBox="0 0 20 20" width="20" xmlns="http://www.w3.org/2000/svg"><path d="m9.5 20c-2.538 0-4.923-.988-6.718-2.782s-2.782-4.18-2.782-6.717c0-2.538.988-4.923 2.782-6.718s4.18-2.783 6.718-2.783 4.923.988 6.718 2.783 2.782 4.18 2.782 6.718-.988 4.923-2.782 6.717-4.18 2.782-6.718 2.782zm0-18c-4.687 0-8.5 3.813-8.5 8.5s3.813 8.5 8.5 8.5 8.5-3.813 8.5-8.5-3.813-8.5-8.5-8.5z"/><path d="m6.5 8c-.827 0-1.5-.673-1.5-1.5s.673-1.5 1.5-1.5 1.5.673 1.5 1.5-.673 1.5-1.5 1.5zm0-2c-.276 0-.5.224-.5.5s.224.5.5.5.5-.224.5-.5-.224-.5-.5-.5z"/><path d="m12.5 8c-.827 0-1.5-.673-1.5-1.5s.673-1.5 1.5-1.5 1.5.673 1.5 1.5-.673 1.5-1.5 1.5zm0-2c-.276 0-.5.224-.5.5s.224.5.5.5.5-.224.5-.5-.224-.5-.5-.5z"/><path d="m15.5 10h-12c-.276 0-.5.224-.5.5 0 3.584 2.916 6.5 6.5 6.5s6.5-2.916 6.5-6.5c0-.276-.224-.5-.5-.5zm-6.5 5.977c-.714-.065-1.39-.266-2-.579v-4.398h2zm1-4.977h2v4.398c-.61.313-1.285.514-2 .579zm-5.977 0h1.977v3.739c-1.1-.91-1.842-2.238-1.978-3.739zm8.977 3.739v-3.739h1.977c-.136 1.501-.877 2.83-1.977 3.739z"/></svg>