<svg height="20" viewBox="0 0 20 20" width="20" xmlns="http://www.w3.org/2000/svg"><path d="m9.5 20c-2.538 0-4.923-.988-6.718-2.782s-2.782-4.18-2.782-6.717c0-2.538.988-4.923 2.782-6.718s4.18-2.783 6.718-2.783 4.923.988 6.718 2.783 2.782 4.18 2.782 6.718-.988 4.923-2.782 6.717-4.18 2.782-6.718 2.782zm0-18c-4.687 0-8.5 3.813-8.5 8.5s3.813 8.5 8.5 8.5 8.5-3.813 8.5-8.5-3.813-8.5-8.5-8.5z"/><path d="m15.5 10h-12c-.276 0-.5.224-.5.5 0 3.584 2.916 6.5 6.5 6.5s6.5-2.916 6.5-6.5c0-.276-.224-.5-.5-.5zm-6.5 5.977c-.715-.065-1.39-.266-2-.579v-4.398h2zm1-4.977h2v4.398c-.61.313-1.285.514-2 .579zm-5.977 0h1.977v3.739c-1.1-.91-1.842-2.238-1.978-3.739zm8.977 3.739v-3.739h1.977c-.136 1.501-.877 2.83-1.977 3.739z"/><path d="m7.853 6.854c.037-.037.069-.08.094-.13.123-.247.023-.547-.224-.671l-2-1c-.247-.123-.547-.023-.671.224s-.023.547.224.671l.49.245c-.457.257-.767.747-.767 1.308 0 .827.673 1.5 1.5 1.5s1.5-.673 1.5-1.5c0-.231-.053-.451-.147-.646zm-1.353 1.146c-.276 0-.5-.224-.5-.5s.224-.5.5-.5.5.224.5.5-.224.5-.5.5z"/><path d="m13.233 6.192.49-.245c.247-.123.347-.424.224-.671s-.424-.347-.671-.224l-2 1c-.247.123-.347.424-.224.671.025.049.057.093.094.13-.094.196-.147.415-.147.646 0 .827.673 1.5 1.5 1.5s1.5-.673 1.5-1.5c0-.561-.31-1.05-.767-1.308zm-.733 1.808c-.276 0-.5-.224-.5-.5s.224-.5.5-.5.5.224.5.5-.224.5-.5.5z"/></svg>