<svg height="20" viewBox="0 0 20 20" width="20" xmlns="http://www.w3.org/2000/svg"><path d="m13 6.467c-.004-.166-.038-.909-.351-1.659-.214-.514-.514-.928-.891-1.229-.096-.077-.198-.146-.303-.208.338-.358.545-.84.545-1.37 0-1.103-.897-2-2-2s-2 .897-2 2c0 .53.208 1.012.545 1.37-.105.062-.206.131-.303.208-.377.302-.677.716-.891 1.229-.347.833-.351 1.658-.351 1.692 0 .276.224.5.5.5h5 .001c.276 0 .5-.224.5-.5 0-.011 0-.022-.001-.033zm-4-4.467c0-.551.449-1 1-1s1 .449 1 1-.449 1-1 1-1-.449-1-1zm-.95 4c.038-.234.106-.523.224-.808.334-.802.899-1.192 1.726-1.192 1.429 0 1.837 1.268 1.953 2h-3.904z"/><path d="m6 17.467c-.004-.166-.038-.909-.351-1.659-.214-.514-.514-.927-.891-1.229-.096-.077-.198-.146-.303-.208.338-.358.545-.84.545-1.37 0-1.103-.897-2-2-2s-2 .897-2 2c0 .53.208 1.012.545 1.37-.105.062-.206.131-.303.208-.377.302-.677.716-.891 1.229-.347.833-.351 1.658-.351 1.692 0 .276.224.5.5.5h5 .001c.276 0 .5-.224.5-.5 0-.011 0-.022-.001-.033zm-4-4.467c0-.551.449-1 1-1s1 .449 1 1-.449 1-1 1-1-.449-1-1zm-.95 4c.038-.234.106-.523.224-.808.334-.802.899-1.192 1.726-1.192 1.429 0 1.837 1.268 1.953 2h-3.904z"/><path d="m20 17.467c-.004-.166-.038-.909-.351-1.659-.214-.514-.514-.927-.891-1.229-.096-.077-.198-.146-.303-.208.338-.358.545-.84.545-1.37 0-1.103-.897-2-2-2s-2 .897-2 2c0 .53.208 1.012.545 1.37-.105.062-.206.131-.303.208-.377.302-.677.716-.891 1.229-.347.833-.351 1.658-.351 1.692 0 .276.224.5.5.5h5 .001c.276 0 .5-.224.5-.5 0-.011 0-.022-.001-.033zm-4-4.467c0-.551.449-1 1-1s1 .449 1 1-.449 1-1 1-1-.449-1-1zm-.95 4c.038-.234.106-.523.224-.808.334-.802.899-1.192 1.726-1.192 1.429 0 1.837 1.268 1.953 2h-3.904z"/><path d="m10 20c-1.3 0-2.591-.319-3.734-.923-.244-.129-.337-.432-.208-.676s.432-.337.676-.208c.999.528 2.128.807 3.266.807s2.267-.279 3.266-.807c.244-.129.547-.036.676.208s.036.547-.208.676c-1.142.604-2.433.923-3.734.923z"/><path d="m17.23 10.5c-.219 0-.421-.145-.482-.367-.464-1.68-1.535-3.12-3.015-4.056-.233-.148-.303-.456-.156-.69s.456-.303.69-.156c1.692 1.069 2.915 2.715 3.445 4.635.073.266-.083.542-.349.615-.044.012-.089.018-.133.018z"/><path d="m2.77 10.5c-.044 0-.089-.006-.133-.018-.266-.073-.422-.349-.349-.615.53-1.92 1.754-3.566 3.445-4.635.233-.147.542-.078.69.156s.078.542-.156.69c-1.481.935-2.552 2.376-3.015 4.056-.061.222-.262.367-.482.367z"/></svg>