<svg height="20" viewBox="0 0 20 20" width="20" xmlns="http://www.w3.org/2000/svg"><path d="m9.5 20c-2.538 0-4.923-.988-6.718-2.782s-2.782-4.18-2.782-6.717c0-2.538.988-4.923 2.782-6.718s4.18-2.783 6.718-2.783 4.923.988 6.718 2.783 2.782 4.18 2.782 6.718-.988 4.923-2.782 6.717-4.18 2.782-6.718 2.782zm0-18c-4.687 0-8.5 3.813-8.5 8.5s3.813 8.5 8.5 8.5 8.5-3.813 8.5-8.5-3.813-8.5-8.5-8.5z"/><path d="m12.5 14h-6c-.276 0-.5-.224-.5-.5s.224-.5.5-.5h6c.276 0 .5.224.5.5s-.224.5-.5.5z"/><path d="m8.5 7h-4c-.276 0-.5.224-.5.5s.224.5.5.5h.586c-.056.157-.086.325-.086.5 0 .827.673 1.5 1.5 1.5s1.5-.673 1.5-1.5c0-.175-.031-.343-.086-.5h.586c.276 0 .5-.224.5-.5s-.224-.5-.5-.5zm-1.5 1.5c0 .276-.224.5-.5.5s-.5-.224-.5-.5.224-.5.5-.5.5.224.5.5z"/><path d="m14.5 7h-4c-.276 0-.5.224-.5.5s.224.5.5.5h.586c-.056.157-.086.325-.086.5 0 .827.673 1.5 1.5 1.5s1.5-.673 1.5-1.5c0-.175-.031-.343-.086-.5h.586c.276 0 .5-.224.5-.5s-.224-.5-.5-.5zm-1.5 1.5c0 .276-.224.5-.5.5s-.5-.224-.5-.5.224-.5.5-.5.5.224.5.5z"/></svg>