<svg height="20" viewBox="0 0 20 20" width="20" xmlns="http://www.w3.org/2000/svg"><path d="m19.5 4h-.5v-.5c0-.276-.224-.5-.5-.5s-.5.224-.5.5v.5h-14.5c-.189 0-.363.107-.447.276l-1 2c-.061.122-.069.264-.023.392.086.24.207.5.334.774.175.376.364.782.49 1.192.002.008.005.016.007.024.085.281.139.564.139.841 0 .746-.551 1.563-1.188 2.508-.849 1.26-1.812 2.687-1.812 4.492 0 .276.224.5.5.5h7c.276 0 .5-.224.5-.5s-.224-.5-.5-.5h-.473c.124-1.215.661-2.695 1.239-4h3.233c.763 0 1.549-.567 1.791-1.291l.57-1.709h3.64c.827 0 1.5-.673 1.5-1.5v-.5h.5c.276 0 .5-.224.5-.5v-2c0-.276-.224-.5-.5-.5zm-11.5 1h5v1h-5zm-5.359 7.567c.699-1.036 1.359-2.015 1.359-3.067 0-.168-.014-.335-.039-.5h4.678c-.792 1.438-2.404 4.616-2.616 7h-4.992c.158-1.279.895-2.372 1.61-3.433zm9.701-2.174c-.106.318-.507.607-.842.607h-2.768c.441-.906.849-1.639 1.055-2h.223c.04.413.173.967.569 1.34.097.091.22.136.343.136.133 0 .265-.053.364-.157.189-.201.18-.517-.021-.707-.145-.137-.215-.384-.247-.613h1.789l-.464 1.393zm6.658-4.393h-.5c-.276 0-.5.224-.5.5v1c0 .276-.224.5-.5.5h-3.989c-.001 0-.001 0-.002 0h-9.816c-.13-.35-.283-.68-.422-.978-.082-.175-.16-.344-.224-.497l.762-1.525h3.191v1.5c0 .276.224.5.5.5h6c.276 0 .5-.224.5-.5v-1.5h5z"/><path d="m4.5 7c-.132 0-.26-.053-.353-.147s-.147-.222-.147-.353.053-.261.147-.353c.093-.093.222-.147.353-.147s.261.053.353.147c.093.093.147.222.147.353s-.053.26-.147.353c-.093.093-.222.147-.353.147z"/><path d="m3.5 15c-.132 0-.26-.053-.353-.147s-.147-.222-.147-.353.053-.261.147-.353c.093-.093.222-.147.353-.147s.261.053.353.147c.093.093.147.222.147.353s-.053.26-.147.353c-.093.093-.222.147-.353.147z"/></svg>