<svg height="20" viewBox="0 0 20 20" width="20" xmlns="http://www.w3.org/2000/svg"><path d="m5.017 14.515c.036-.262.132-.497.294-.726.159-.226.106-.538-.12-.697s-.538-.106-.697.12c-.192.272-.326.556-.406.859-.189-.046-.385-.07-.588-.07-1.378 0-2.5 1.122-2.5 2.5s1.122 2.5 2.5 2.5 2.5-1.122 2.5-2.5c0-.808-.386-1.528-.983-1.985zm-1.517 3.485c-.827 0-1.5-.673-1.5-1.5s.673-1.5 1.5-1.5 1.5.673 1.5 1.5-.673 1.5-1.5 1.5z"/><path d="m10.5 19c-.276 0-.5-.224-.5-.5v-.001c.607-.457 1-1.183 1-1.999 0-1.378-1.122-2.5-2.5-2.5-.172 0-.339.017-.501.05-.014-5.162-.183-9.015-.503-11.457-.181-1.378-.397-2.201-.642-2.447-.123-.123-.3-.173-.468-.133s-.305.164-.359.328c-.042.126-1.026 3.146-1.026 9.158 0 1.774.67 2.648 1.208 3.35.397.518.72.939.781 1.66-.601.457-.989 1.179-.989 1.99 0 1.378 1.122 2.5 2.5 2.5.194 0 .383-.023.565-.065.187.616.76 1.065 1.435 1.065.276 0 .5-.224.5-.5s-.224-.5-.5-.5zm-4.5-9.5c0-3.013.258-5.266.508-6.743.206 1.598.423 4.446.478 9.465-.509-.664-.987-1.3-.987-2.722zm1 7c0-.827.673-1.5 1.5-1.5s1.5.673 1.5 1.5-.673 1.5-1.5 1.5-1.5-.673-1.5-1.5z"/><path d="m17 16.5c0 .276-.224.5-.5.5s-.5-.224-.5-.5.224-.5.5-.5.5.224.5.5z"/><path d="m16.5 0h-3c-.276 0-.5.224-.5.5s.224.5.5.5h3c.827 0 1.5.673 1.5 1.5 0 7.069-1.63 9.411-2.821 11.121-.633.909-1.179 1.693-1.179 2.879 0 1.378 1.122 2.5 2.5 2.5s2.5-1.122 2.5-2.5v-14c0-1.378-1.122-2.5-2.5-2.5zm1.5 16.5c0 .827-.673 1.5-1.5 1.5s-1.5-.673-1.5-1.5c0-.872.398-1.443 1-2.308.615-.883 1.391-1.998 2-3.879z"/><path d="m16.5 3h-3c-.276 0-.5-.224-.5-.5s.224-.5.5-.5h3c.276 0 .5.224.5.5s-.224.5-.5.5z"/><path d="m16.5 5h-3c-.276 0-.5-.224-.5-.5s.224-.5.5-.5h3c.276 0 .5.224.5.5s-.224.5-.5.5z"/><path d="m16.5 7h-3c-.276 0-.5-.224-.5-.5s.224-.5.5-.5h3c.276 0 .5.224.5.5s-.224.5-.5.5z"/><path d="m16.5 9h-3c-.276 0-.5-.224-.5-.5s.224-.5.5-.5h3c.276 0 .5.224.5.5s-.224.5-.5.5z"/><path d="m15.5 11h-2c-.276 0-.5-.224-.5-.5s.224-.5.5-.5h2c.276 0 .5.224.5.5s-.224.5-.5.5z"/><path d="m14.5 13h-1c-.276 0-.5-.224-.5-.5s.224-.5.5-.5h1c.276 0 .5.224.5.5s-.224.5-.5.5z"/></svg>