<svg height="20" viewBox="0 0 20 20" width="20" xmlns="http://www.w3.org/2000/svg"><path d="m7.501 12s0 0-.001 0h-3c-.154 0-.299-.071-.394-.192s-.128-.28-.091-.429c.006-.023.141-.559.413-1.102.527-1.055 1.146-1.276 1.572-1.276s1.045.221 1.572 1.276c.238.475.371.946.405 1.071.015.048.024.099.024.153 0 .276-.224.5-.5.5zm-2.305-1h1.609c-.217-.517-.528-1-.804-1s-.587.483-.804 1z"/><path d="m14.501 12s0 0-.001 0h-3c-.154 0-.299-.071-.394-.192s-.128-.28-.091-.429c.006-.023.141-.559.413-1.102.527-1.055 1.146-1.276 1.572-1.276s1.045.221 1.572 1.276c.238.475.371.946.405 1.071.015.048.024.099.024.153 0 .276-.224.5-.5.5zm-2.305-1h1.609c-.217-.517-.528-1-.804-1s-.588.483-.804 1z"/><path d="m14.5 13h-10c-.276 0-.5.224-.5.5 0 .095.021.956.743 1.821.418.5.985.895 1.687 1.175.839.335 1.877.504 3.084.504s0 0 0 0 .001 0 .002 0 .004 0 .006 0c1.198-.001 2.228-.17 3.061-.505.698-.28 1.263-.676 1.678-1.176.718-.864.739-1.724.739-1.82 0-.276-.224-.5-.5-.5zm-4.493 2.989-.007-.496c-.004-.276-.231-.495-.507-.493-.276.004-.497.231-.493.507l.007.481c-2.795-.127-3.641-1.296-3.896-1.989h1.889v.5c0 .276.224.5.5.5s.5-.224.5-.5v-.5h3v.5c0 .276.224.5.5.5s.5-.224.5-.5v-.5h1.889c-.256.691-1.1 1.865-3.882 1.989z"/><path d="m17.763 7.302c-.833-1.457-1.964-2.271-3.193-2.301-1.369-.359-2.221-1.245-2.526-1.614l.442-1.766c.043-.17-.007-.351-.132-.475l-1-1c-.12-.12-.292-.17-.458-.135s-.303.153-.363.312c-.004.009-.37.956-1.31 2.002-1.241 1.382-2.849 2.282-4.779 2.676-1.234.024-2.371.839-3.206 2.301-.798 1.396-1.237 3.242-1.237 5.198 0 1.981.61 3.849 1.718 5.259 1.136 1.445 2.656 2.241 4.282 2.241.685 0 1.353-.142 1.991-.421.479.278.988.421 1.509.421s1.03-.143 1.509-.421c.638.28 1.306.421 1.991.421 1.626 0 3.147-.796 4.282-2.241 1.108-1.41 1.718-3.277 1.718-5.259 0-1.955-.439-3.801-1.237-5.198zm-7.764-4.345c.542-.609.911-1.186 1.144-1.607l.303.303-.431 1.725c-.034.137-.009.281.069.399.034.051.66.972 1.893 1.655-.344.202-.672.472-.976.806-.728-.805-1.59-1.238-2.501-1.238s-1.772.432-2.501 1.238c-.253-.278-.523-.512-.804-.699 1.817-.675 3.045-1.728 3.804-2.582zm3.001 16.043c-.366 0-.727-.052-1.079-.153.01-.01.02-.021.029-.031.188-.202.178-.518-.024-.707s-.518-.178-.707.024c-.369.395-.967.866-1.72.866s-1.351-.471-1.719-.866c-.188-.202-.505-.213-.707-.024s-.213.505-.024.707c.01.01.02.021.029.031-.352.101-.713.153-1.079.153-2.757 0-5-2.916-5-6.5 0-1.784.393-3.454 1.106-4.702.661-1.158 1.51-1.796 2.389-1.798h.006c.809.001 1.447.526 1.884 1.055-.04.063-.079.127-.117.192-.139.239-.058.545.18.684.079.046.166.068.251.068.172 0 .339-.089.432-.248.659-1.13 1.499-1.752 2.367-1.752s1.709.622 2.367 1.752c.139.239.445.319.684.18s.319-.445.18-.684c-.038-.066-.077-.129-.117-.192.437-.529 1.073-1.053 1.881-1.055h.006s.003 0 .004 0c.88.002 1.728.641 2.39 1.798.713 1.248 1.106 2.918 1.106 4.702 0 3.584-2.243 6.5-5 6.5z"/></svg>