<svg height="20" viewBox="0 0 20 20" width="20" xmlns="http://www.w3.org/2000/svg"><path d="m18 11h-16c-1.103 0-2 .897-2 2s.897 2 2 2h6.5c.276 0 .5-.224.5-.5s-.224-.5-.5-.5h-6.5c-.551 0-1-.449-1-1s.449-1 1-1h.5c3.125 0 5.765.811 7.633 2.345 1.408 1.156 1.899 2.33 1.903 2.34.076.19.261.314.464.314.007 0 .015 0 .022-.001.212-.009.396-.152.457-.355.014-.046 1.437-4.644 4.521-4.644h.5c.551 0 1 .449 1 1s-.449 1-1 1h-2.5c-.276 0-.5.224-.5.5s.224.5.5.5h2.5c1.103 0 2-.897 2-2s-.897-2-2-2zm-4.732 2.727c-.374.575-.658 1.147-.86 1.61-.338-.489-.85-1.106-1.588-1.721-.79-.658-1.703-1.2-2.72-1.616h6.692c-.549.438-1.061 1.015-1.524 1.727z"/><path d="m17.5 7h-15c-.276 0-.5-.224-.5-.5 0-.332.059-2.07 1.22-3.666.615-.845 1.436-1.513 2.441-1.984 1.192-.56 2.651-.843 4.335-.843 1.686 0 3.146.284 4.339.843 1.005.471 1.827 1.139 2.443 1.984 1.162 1.596 1.221 3.334 1.221 3.666 0 .276-.224.5-.5.5zm-14.467-1h13.934c-.072-.604-.298-1.619-.996-2.578-1.168-1.603-3.178-2.416-5.974-2.416-2.793 0-4.801.813-5.968 2.416-.698.959-.924 1.974-.996 2.578z"/><path d="m2.424 10.022c-.326 0-.629-.178-.84-.494l-.5-.75c-.153-.23-.091-.54.139-.693s.54-.091.693.139l.5.75c.005.007.009.014.014.019.019-.022.044-.057.07-.11l.106-.211c.205-.41.531-.645.894-.645s.689.235.894.645l.106.211.106-.211c.205-.41.531-.645.894-.645s.689.235.894.645l.106.211.106-.211c.205-.41.531-.645.894-.645s.689.235.894.645l.106.211.106-.211c.205-.41.531-.645.894-.645s.689.235.894.645l.106.211.106-.211c.205-.41.531-.645.894-.645s.689.235.894.645l.106.211.106-.211c.205-.41.531-.645.894-.645s.689.235.894.645l.106.211.106-.211c.205-.41.531-.645.894-.645s.689.235.894.645l.106.211.106-.211c.208-.416.541-.667.914-.691.347-.022.673.158.896.492l.5.75c.153.23.091.54-.139.693s-.54.091-.693-.139l-.5-.75c-.005-.007-.009-.014-.014-.019-.019.022-.044.057-.07.11l-.106.211c-.205.41-.531.645-.894.645s-.689-.235-.894-.645l-.106-.211-.106.211c-.205.41-.531.645-.894.645s-.689-.235-.894-.645l-.106-.211-.106.211c-.205.41-.531.645-.894.645s-.689-.235-.894-.645l-.106-.211-.106.211c-.205.41-.531.645-.894.645s-.689-.235-.894-.645l-.106-.211s0 0 0 0l-.106.211c-.205.41-.531.645-.894.645s-.689-.235-.894-.645l-.106-.211-.106.211c-.205.41-.531.645-.894.645s-.689-.235-.894-.645l-.106-.211-.106.211c-.205.41-.531.645-.894.645s-.689-.235-.894-.645l-.106-.211-.106.211c-.208.416-.541.667-.914.691-.019.001-.037.002-.056.002z"/><path d="m17.5 16h-3c-.276 0-.5.224-.5.5s.224.5.5.5h2.5v.5c0 .827-.673 1.5-1.5 1.5h-11c-.827 0-1.5-.673-1.5-1.5v-.5h7.5c.276 0 .5-.224.5-.5s-.224-.5-.5-.5h-8c-.276 0-.5.224-.5.5v1c0 1.378 1.122 2.5 2.5 2.5h11c1.378 0 2.5-1.122 2.5-2.5v-1c0-.276-.224-.5-.5-.5z"/></svg>