<svg height="20" viewBox="0 0 20 20" width="20" xmlns="http://www.w3.org/2000/svg"><path d="m18.596 14.457-9.52-8.655c-.095-.086-.148-.201-.151-.325s.045-.241.136-.332l2.293-2.293c.143-.143.186-.358.108-.545s-.26-.309-.462-.309c-.041 0-1.027.001-2.092.063-2.034.12-2.53.351-2.762.583l-3.5 3.5c-.094.094-.146.221-.146.354v.5h-.5c-.133 0-.26.053-.354.146l-1 1c-.195.195-.195.512 0 .707l2 2c.195.195.512.195.707 0l1-1c.094-.094.146-.221.146-.354v-.5h.5c.133 0 .26-.053.354-.146l.793-.793c.088-.088.202-.136.321-.136.127 0 .246.054.335.151l8.655 9.52c.277.304.669.479 1.075.479.387 0 .752-.152 1.028-.429l1.086-1.086c.286-.286.438-.663.428-1.062s-.179-.769-.478-1.041zm-12.129-7.532c-.387 0-.752.152-1.028.429l-.646.646h-.793c-.276 0-.5.224-.5.5v.793l-.5.5-1.293-1.293.5-.5h.793c.276 0 .5-.224.5-.5v-.793l3.34-3.34c.063-.036.46-.213 2.223-.311.244-.014.483-.024.706-.032l-1.415 1.415c-.286.286-.438.663-.428 1.062s.179.769.478 1.041l.872.793-.94.94-.793-.872c-.277-.304-.669-.479-1.075-.479zm11.472 8.929-1.086 1.086c-.088.088-.202.136-.321.136-.127 0-.246-.054-.335-.151l-7.188-7.907 1.008-1.008 7.907 7.188c.095.086.148.201.151.325s-.045.241-.136.332z"/></svg>