<svg height="20" viewBox="0 0 20 20" width="20" xmlns="http://www.w3.org/2000/svg"><path d="m18.596 14.457-4.535-4.122.53-.59c.448.169.92.255 1.408.255 2.206 0 4-1.794 4-4 0-.639-.155-1.275-.447-1.839-.073-.142-.21-.24-.367-.264s-.317.028-.43.141l-1.962 1.962h-.793v-.793l1.962-1.962c.113-.113.165-.272.141-.43s-.122-.294-.264-.367c-.564-.293-1.2-.447-1.839-.447-2.206 0-4 1.794-4 4 0 .488.086.96.255 1.408l-.71.639-2.468-2.244c-.095-.086-.148-.201-.151-.325s.045-.241.136-.332l2.293-2.293c.143-.143.186-.358.108-.545s-.26-.309-.462-.309c-.041 0-1.027.001-2.092.063-2.034.12-2.53.351-2.762.583l-3.5 3.5c-.094.094-.146.221-.146.354v.5h-.5c-.133 0-.26.053-.354.146l-1 1c-.195.195-.195.512 0 .707l2 2c.195.195.512.195.707 0l1-1c.094-.094.146-.221.146-.354v-.5h.5c.133 0 .26-.053.354-.146l.793-.793c.088-.088.202-.136.321-.136.127 0 .246.054.335.151l2.117 2.329-4.511 4.054c-.301.27-.472.639-.483 1.038s.141.777.427 1.063l1.086 1.086c.277.277.639.428 1.023.428.013 0 .026 0 .039-.001.399-.011.768-.182 1.038-.483l3.933-4.376 3.984 4.382c.277.304.669.479 1.075.479.387 0 .752-.152 1.028-.429l1.086-1.086c.286-.286.438-.663.428-1.062s-.179-.769-.478-1.041zm-5.291-7.138c-.203-.413-.305-.857-.305-1.319 0-1.654 1.346-3 3-3 .243 0 .479.028.709.084l-1.563 1.563c-.094.094-.146.221-.146.354v1.5c0 .276.224.5.5.5h1.5c.133 0 .26-.053.354-.146l1.563-1.563c.056.23.084.467.084.709 0 1.654-1.346 3-3 3-.463 0-.907-.103-1.319-.305-.201-.099-.443-.052-.592.115l-.767.853-1.034-.94.902-.811c.166-.15.213-.391.115-.592zm-6.838-.394c-.387 0-.752.152-1.028.429l-.646.646h-.793c-.276 0-.5.224-.5.5v.793l-.5.5-1.293-1.293.5-.5h.793c.276 0 .5-.224.5-.5v-.793l3.34-3.34c.063-.036.46-.213 2.223-.311.244-.014.483-.024.706-.032l-1.415 1.415c-.286.286-.438.663-.428 1.062s.179.769.478 1.041l.872.793-.94.94-.793-.872c-.277-.304-.669-.479-1.075-.479zm.33 9.997c-.085.095-.199.149-.321.152s-.239-.045-.329-.135l-1.086-1.086c-.09-.09-.138-.207-.135-.329s.057-.236.152-.321l4.515-4.058 1.205 1.325-4.001 4.451zm11.142-1.068-1.086 1.086c-.088.088-.202.136-.321.136-.127 0-.246-.054-.335-.151l-7.188-7.907 1.008-1.008 7.907 7.188c.095.086.148.201.151.325s-.045.241-.136.332z"/></svg>