<svg height="20" viewBox="0 0 20 20" width="20" xmlns="http://www.w3.org/2000/svg"><path d="m18.073 17.498c-.011-.399-.183-.767-.485-1.037l-8.361-7.481 1.804-1.804c.143.076.303.116.469.116.268 0 .519-.104.707-.292l.793-.793c.188-.188.292-.44.292-.707s-.104-.519-.292-.707l-3.293-3.293c-.188-.188-.44-.292-.707-.292s-.519.104-.707.292l-.793.793c-.188.188-.292.44-.292.707 0 .166.04.327.116.469l-4.855 4.855c-.143-.076-.303-.116-.469-.116-.268 0-.519.104-.707.292l-.793.793c-.39.39-.39 1.024 0 1.414l3.293 3.293c.188.188.44.292.707.292s.519-.104.707-.292l.793-.793c.318-.318.376-.798.176-1.176l1.804-1.804 7.481 8.361c.27.302.638.474 1.037.485.014 0 .027.001.041.001.384 0 .745-.151 1.022-.427l.086-.086c.286-.286.438-.664.427-1.063zm-9.073-15.291 3.293 3.293-.792.792h-.001v.001l-3.293-3.293zm-1 2 2.293 2.293-4.793 4.793-2.293-2.293zm-3.499 9.085h-.001v.001l-3.293-3.293.793-.793 3.293 3.293zm12.438 4.562-.086.086c-.09.09-.206.137-.328.134s-.235-.057-.32-.152l-6.082-6.798 6.798 6.082c.095.085.149.198.152.32s-.044.238-.134.328z"/></svg>