<svg height="20" viewBox="0 0 20 20" width="20" xmlns="http://www.w3.org/2000/svg"><path d="m11 5c-1.103 0-2-.897-2-2s.897-2 2-2 2 .897 2 2-.897 2-2 2zm0-3c-.551 0-1 .449-1 1s.449 1 1 1 1-.449 1-1-.449-1-1-1z"/><path d="m10.499 20c-.254 0-.471-.192-.497-.45l-.491-4.908-1.459-2.918c-.05-.099-.065-.213-.043-.322l.934-4.672-1.221-.814c-.059-.039-.109-.091-.147-.151l-2.5-4c-.146-.234-.075-.543.159-.689s.543-.075.689.159l2.443 3.909 1.41.94c.169.112.253.315.213.514l-.966 4.832 1.423 2.847c.027.054.044.113.05.174l.5 5c.027.275-.173.52-.448.547-.017.002-.034.002-.05.002z"/><path d="m5.5 20c-.058 0-.118-.01-.176-.032-.259-.097-.39-.385-.293-.644l1.49-3.973.493-1.972c.067-.268.339-.431.606-.364s.431.338.364.606l-.5 2c-.005.018-.01.037-.017.054l-1.5 4c-.075.201-.266.325-.468.325z"/><path d="m13.5 13c-.194 0-.379-.114-.46-.303l-1.482-3.458-.975-1.462c-.153-.23-.091-.54.139-.693s.54-.091.693.139l1 1.5c.017.025.032.052.044.08l1.5 3.5c.109.254-.009.548-.263.657-.064.028-.131.041-.197.041z"/></svg>