<svg height="20" viewBox="0 0 20 20" width="20" xmlns="http://www.w3.org/2000/svg"><path d="m16 18h-13c-.276 0-.5-.224-.5-.5s.224-.5.5-.5h13c.276 0 .5.224.5.5s-.224.5-.5.5z"/><path d="m18.012 14.725-6.622-5.09c-.387-.297-.868-.495-1.39-.574v-.561c0-.477.289-.717.8-1.1.535-.401 1.2-.9 1.2-1.9 0-1.378-1.122-2.5-2.5-2.5s-2.5 1.122-2.5 2.5c0 .276.224.5.5.5s.5-.224.5-.5c0-.827.673-1.5 1.5-1.5s1.5.673 1.5 1.5c0 .477-.289.717-.8 1.1-.535.401-1.2.9-1.2 1.9v.553c-.525.071-1.012.26-1.404.551l-6.592 4.898c-.573.426-1.004 1.284-1.004 1.998v1c0 .174.09.335.238.426s.332.099.487.021l7.214-3.632c.401-.202.97-.318 1.562-.318s1.161.116 1.562.318l7.214 3.632c.071.036.148.053.225.053.091 0 .182-.025.262-.074.148-.091.238-.252.238-.426v-.769c0-.711-.425-1.573-.988-2.006zm-6.501-1.303c-.544-.274-1.258-.424-2.011-.424s-1.468.151-2.011.424l-6.489 3.267v-.188c0-.392.286-.961.601-1.195l6.592-4.898c.335-.249.788-.386 1.277-.386.497 0 .975.148 1.311.407l6.622 5.09c.301.232.577.777.596 1.17l-6.488-3.266z"/></svg>