<svg height="20" viewBox="0 0 20 20" width="20" xmlns="http://www.w3.org/2000/svg"><path d="m17.35 10.408.65-4.875v-.033c0-.816-.438-1.951-2.524-2.719-1.387-.511-3.28-.781-5.476-.781s-4.09.27-5.476.781c-2.086.768-2.524 1.903-2.524 2.719v.033l.65 4.875c-1.713.82-2.65 1.907-2.65 3.092 0 1.283 1.097 2.451 3.088 3.289 1.854.781 4.309 1.211 6.912 1.211s5.057-.43 6.912-1.211c1.992-.839 3.088-2.007 3.088-3.289 0-1.184-.937-2.272-2.65-3.092zm-.954-.414c-1.223.614-3.7 1.006-6.396 1.006s-5.173-.392-6.396-1.006l-.555-4.163c1.497.803 4.374 1.169 6.951 1.169 2.594 0 5.458-.367 6.951-1.169zm-10.815 1.632-1.239 1.567c-.204-.098-.307-.181-.343-.229l-.243-1.82c.515.189 1.132.351 1.824.482zm1.135.177c.585.074 1.206.129 1.852.161l-1.31 1.893c-.53-.058-1.027-.134-1.472-.225-.158-.032-.304-.066-.437-.099l1.368-1.73zm3.044.196c.08.001.16.001.24.001.524 0 1.038-.014 1.537-.041l-1.312 2.04c-.075.001-.15.001-.225.001-.543 0-1.078-.016-1.593-.046zm3.03-.139c.599-.063 1.165-.145 1.687-.245l-1.285 2.188c-.546.073-1.137.127-1.754.16l1.352-2.102zm3.041-.577c.143-.044.281-.091.412-.139l-.243 1.82c-.078.103-.465.366-1.514.609zm-10.961-7.564c1.259-.464 3.081-.719 5.13-.719s3.872.255 5.13.719c.598.22 1.275.563 1.627 1.059-.325.239-.976.526-2.041.765-1.313.295-2.988.457-4.717.457-1.703 0-3.359-.158-4.663-.445-1.239-.273-1.825-.578-2.094-.777.352-.496 1.03-.838 1.627-1.058zm11.653 12.149c-1.734.73-4.051 1.132-6.523 1.132s-4.789-.402-6.523-1.132c-1.574-.663-2.477-1.526-2.477-2.368 0-.711.643-1.436 1.79-2.044l.211 1.583c.028.666.778 1.159 2.291 1.508 1.263.292 2.936.452 4.709.452s3.445-.161 4.709-.452c1.512-.349 2.262-.843 2.291-1.508l.211-1.583c1.146.608 1.79 1.333 1.79 2.043 0 .842-.903 1.705-2.477 2.368z"/></svg>