<svg height="20" viewBox="0 0 20 20" width="20" xmlns="http://www.w3.org/2000/svg"><path d="m17.5 20h-16c-.827 0-1.5-.673-1.5-1.5v-3c0-.627.22-1.557.5-2.118l2.106-4.211c.328-.657 1.16-1.171 1.894-1.171h3c.276 0 .5.224.5.5s-.224.5-.5.5h-3c-.362 0-.838.295-1 .618l-2.106 4.211c-.21.42-.394 1.201-.394 1.671v3c0 .276.224.5.5.5h16c.276 0 .5-.224.5-.5v-3c0-.47-.184-1.251-.394-1.671l-2.106-4.211c-.162-.323-.638-.618-1-.618h-3c-.276 0-.5-.224-.5-.5s.224-.5.5-.5h3c.734 0 1.566.514 1.894 1.171l2.106 4.211c.28.561.5 1.491.5 2.118v3c0 .827-.673 1.5-1.5 1.5z"/><path d="m16.5 18h-1c-.276 0-.5-.224-.5-.5s.224-.5.5-.5h1c.276 0 .5.224.5.5s-.224.5-.5.5z"/><path d="m16.5 16h-14c-.276 0-.5-.224-.5-.5s.224-.5.5-.5h14c.276 0 .5.224.5.5s-.224.5-.5.5z"/><path d="m12.854 4.646-3-3c-.195-.195-.512-.195-.707 0l-3 3c-.195.195-.195.512 0 .707s.512.195.707 0l2.146-2.146v8.293c0 .276.224.5.5.5s.5-.224.5-.5v-8.293l2.146 2.146c.098.098.226.146.354.146s.256-.049.354-.146c.195-.195.195-.512 0-.707z"/></svg>