<svg height="20" viewBox="0 0 20 20" width="20" xmlns="http://www.w3.org/2000/svg"><path d="m18.5 13.028c-.276 0-.5-.224-.5-.5v-3.528c0-5.084-2.916-8-8-8s-8 2.916-8 8v3.528c0 .276-.224.5-.5.5s-.5-.224-.5-.5v-3.528c0-1.514.237-2.874.704-4.045.445-1.116 1.102-2.068 1.953-2.828 1.557-1.392 3.75-2.127 6.344-2.127s4.787.736 6.344 2.127c.85.76 1.507 1.712 1.953 2.828.467 1.17.704 2.531.704 4.045v3.528c0 .276-.224.5-.5.5z"/><path d="m6.5 8c-.657 0-1.216.424-1.418 1.013-1.103.068-1.894.414-2.409 1.052-.459.57-.673 1.344-.673 2.435s.214 1.865.673 2.435c.515.639 1.305.984 2.409 1.052.203.589.762 1.013 1.418 1.013.827 0 1.5-.673 1.5-1.5v-6c0-.827-.673-1.5-1.5-1.5zm-3.5 4.5c0-1.411.35-2.331 2-2.479v4.958c-1.65-.148-2-1.068-2-2.479zm4 3c0 .276-.224.5-.5.5s-.5-.224-.5-.5v-6c0-.276.224-.5.5-.5s.5.224.5.5z"/><path d="m17.327 10.065c-.515-.639-1.305-.984-2.408-1.052-.203-.589-.762-1.013-1.418-1.013-.827 0-1.5.673-1.5 1.5v6c0 .827.673 1.5 1.5 1.5.657 0 1.216-.424 1.418-1.013.892-.055 1.579-.292 2.082-.718v1.23c0 .827-.673 1.5-1.5 1.5h-3.586c-.206-.582-.762-1-1.414-1-.827 0-1.5.673-1.5 1.5s.673 1.5 1.5 1.5c.652 0 1.208-.418 1.414-1h3.586c1.378 0 2.5-1.122 2.5-2.5v-4c0-1.091-.214-1.865-.673-2.435zm-6.827 8.935c-.276 0-.5-.224-.5-.5s.224-.5.5-.5.5.224.5.5-.224.5-.5.5zm3-3c-.276 0-.5-.224-.5-.5v-6c0-.276.224-.5.5-.5s.5.224.5.5v6c0 .276-.224.5-.5.5zm1.5-1.021v-4.958c1.65.148 2 1.068 2 2.479s-.35 2.331-2 2.479z"/></svg>