<svg height="20" viewBox="0 0 20 20" width="20" xmlns="http://www.w3.org/2000/svg"><path d="m9.5 19c-.276 0-.5-.224-.5-.5 0-2.179-2.003-3.569-4.124-5.04-1.162-.806-2.363-1.639-3.278-2.641-1.075-1.177-1.598-2.426-1.598-3.819 0-2.757 2.243-5 5-5 1.977 0 3.689 1.153 4.5 2.821.811-1.669 2.523-2.821 4.5-2.821 1.337 0 2.592.518 3.535 1.459.945.943 1.465 2.2 1.465 3.541 0 1.392-.523 2.641-1.598 3.819-.915 1.002-2.116 1.836-3.278 2.641-2.121 1.472-4.124 2.861-4.124 5.04 0 .276-.224.5-.5.5zm-4.5-16c-2.206 0-4 1.794-4 4 0 2.554 2.159 4.052 4.446 5.638 1.607 1.115 3.253 2.257 4.054 3.811.802-1.555 2.448-2.697 4.054-3.811 2.286-1.586 4.446-3.084 4.446-5.638 0-2.206-1.794-4-4-4s-4 1.794-4 4c0 .276-.224.5-.5.5s-.5-.224-.5-.5c0-2.206-1.794-4-4-4z"/></svg>