<svg height="20" viewBox="0 0 20 20" width="20" xmlns="http://www.w3.org/2000/svg"><path d="m13 18c-.943 0-1.727-.371-2.268-1.074-.479-.622-.732-1.462-.732-2.426 0-.276.224-.5.5-.5s.5.224.5.5c0 1.209.525 2.5 2 2.5.436 0 .805-.327 1.037-.602.395-.467.735-1.171.982-2.036.473-1.654 1.153-2.661 1.753-3.55.686-1.015 1.228-1.818 1.228-3.313 0-2.607-1.893-4.5-4.5-4.5-2.481 0-4.5 2.019-4.5 4.5 0 .276-.224.5-.5.5s-.5-.224-.5-.5c0-3.033 2.467-5.5 5.5-5.5 1.493 0 2.872.538 3.883 1.516 1.043 1.008 1.617 2.423 1.617 3.984 0 1.801-.679 2.807-1.399 3.872-.586.867-1.192 1.764-1.62 3.265-.29 1.014-.687 1.824-1.18 2.407-.529.625-1.152.956-1.801.956z"/><path d="m8.066 17.189c-.052 0-.106-.008-.158-.026-.262-.087-.404-.37-.316-.632.271-.813.408-1.665.408-2.531 0-2.346-1.025-4.566-2.812-6.09-.21-.179-.235-.495-.056-.705s.495-.235.705-.056c2.01 1.714 3.163 4.211 3.163 6.851 0 .973-.155 1.931-.46 2.847-.07.21-.265.342-.474.342z"/><path d="m5.219 16.24c-.052 0-.106-.008-.158-.026-.262-.087-.404-.37-.316-.632.169-.508.255-1.04.255-1.582 0-1.467-.641-2.854-1.758-3.806-.21-.179-.235-.495-.056-.705s.495-.235.705-.056c1.34 1.143 2.109 2.808 2.109 4.567 0 .649-.103 1.287-.307 1.898-.07.21-.265.342-.474.342z"/><path d="m2.372 15.291c-.052 0-.106-.008-.158-.026-.262-.087-.404-.37-.316-.632.068-.203.102-.416.102-.633 0-.587-.256-1.142-.703-1.523-.21-.179-.235-.495-.056-.705s.495-.235.705-.056c.67.571 1.054 1.404 1.054 2.283 0 .324-.052.644-.153.949-.07.21-.265.342-.474.342z"/><path d="m13.5 4c-1.93 0-3.5 1.57-3.5 3.5 0 .827.673 1.5 1.5 1.5.498 0 .75-.365.916-.606.189-.273.285-.394.584-.394.928 0 1 1.148 1 1.5 0 .827-.673 1.5-1.5 1.5-.276 0-.5.224-.5.5s.224.5.5.5c1.378 0 2.5-1.122 2.5-2.5 0-.672-.16-1.259-.464-1.698-.357-.517-.903-.802-1.536-.802-.836 0-1.193.517-1.406.826-.038.056-.093.135-.129.173-.26-.018-.465-.235-.465-.499 0-1.378 1.122-2.5 2.5-2.5s2.5 1.122 2.5 2.5c0 .276.224.5.5.5s.5-.224.5-.5c0-1.93-1.57-3.5-3.5-3.5z"/></svg>