<svg height="20" viewBox="0 0 20 20" width="20" xmlns="http://www.w3.org/2000/svg"><path d="m9.5 19c-.084 0-.167-.021-.243-.063-.116-.065-2.877-1.611-5.369-4.082-.196-.194-.197-.511-.003-.707s.511-.197.707-.003c1.979 1.962 4.186 3.346 4.908 3.776.723-.431 2.932-1.817 4.908-3.776.196-.194.513-.193.707.003s.193.513-.003.707c-2.493 2.471-5.253 4.017-5.369 4.082-.076.042-.159.063-.243.063z"/><path d="m1.279 11c-.188 0-.368-.106-.453-.287-.548-1.165-.826-2.33-.826-3.463 0-2.895 2.355-5.25 5.25-5.25.98 0 2.021.367 2.931 1.034.532.39.985.86 1.319 1.359.334-.499.787-.969 1.319-1.359.91-.667 1.951-1.034 2.931-1.034 2.895 0 5.25 2.355 5.25 5.25 0 1.133-.278 2.298-.826 3.463-.118.25-.415.357-.665.24s-.357-.415-.24-.665c.485-1.031.731-2.053.731-3.037 0-2.343-1.907-4.25-4.25-4.25-1.703 0-3.357 1.401-3.776 2.658-.068.204-.259.342-.474.342s-.406-.138-.474-.342c-.419-1.257-2.073-2.658-3.776-2.658-2.343 0-4.25 1.907-4.25 4.25 0 .984.246 2.006.731 3.037.118.25.01.548-.24.665-.069.032-.141.048-.212.048z"/><path d="m10.515 15c-.005 0-.009 0-.013 0-.202-.004-.569-.109-.753-.766l-1.217-4.334-.807 3.279c-.158.643-.525.778-.73.8s-.592-.027-.889-.62l-.606-1.211c-.029-.058-.056-.094-.076-.117-.003.004-.007.009-.011.015-.37.543-1.192.953-1.913.953h-1c-.276 0-.5-.224-.5-.5s.224-.5.5-.5h1c.421 0 .921-.272 1.087-.516.223-.327.547-.501.891-.478.374.025.708.279.917.696l.445.89.936-3.803c.158-.64.482-.779.726-.783s.572.125.751.76l1.284 4.576 1.178-3.608c.205-.628.582-.736.788-.745s.59.068.847.677l.724 1.719c.136.322.578.616.927.616h1.5c.276 0 .5.224.5.5s-.224.5-.5.5h-1.5c-.747 0-1.559-.539-1.849-1.228l-.592-1.406-1.274 3.9c-.207.634-.566.733-.771.733z"/></svg>