<svg height="20" viewBox="0 0 20 20" width="20" xmlns="http://www.w3.org/2000/svg"><path d="m9.5 19c-.084 0-.167-.021-.243-.063-.094-.052-2.326-1.301-4.592-3.347-1.341-1.21-2.411-2.448-3.183-3.68-.984-1.571-1.482-3.139-1.482-4.66 0-2.895 2.355-5.25 5.25-5.25.98 0 2.021.367 2.931 1.034.532.39.985.86 1.319 1.359.334-.499.787-.969 1.319-1.359.91-.667 1.951-1.034 2.931-1.034 2.895 0 5.25 2.355 5.25 5.25 0 1.521-.499 3.089-1.482 4.66-.771 1.232-1.842 2.47-3.182 3.68-2.266 2.046-4.498 3.295-4.592 3.347-.076.042-.159.063-.243.063zm-4.25-16c-2.343 0-4.25 1.907-4.25 4.25 0 3.04 2.35 5.802 4.321 7.585 1.76 1.592 3.544 2.708 4.179 3.087.635-.379 2.419-1.495 4.179-3.087 1.971-1.782 4.321-4.545 4.321-7.585 0-2.343-1.907-4.25-4.25-4.25-1.703 0-3.357 1.401-3.776 2.658-.068.204-.259.342-.474.342s-.406-.138-.474-.342c-.419-1.257-2.073-2.658-3.776-2.658z"/></svg>