<svg height="20" viewBox="0 0 20 20" width="20" xmlns="http://www.w3.org/2000/svg"><path d="m5.5 5c-1.378 0-2.5-1.122-2.5-2.5s1.122-2.5 2.5-2.5 2.5 1.122 2.5 2.5-1.122 2.5-2.5 2.5zm0-4c-.827 0-1.5.673-1.5 1.5s.673 1.5 1.5 1.5 1.5-.673 1.5-1.5-.673-1.5-1.5-1.5z"/><path d="m8.5 6h-6c-.827 0-1.5.673-1.5 1.5v4c0 .827.673 1.5 1.5 1.5.175 0 .343-.031.5-.086v5.586c0 .827.673 1.5 1.5 1.5.384 0 .734-.145 1-.383.266.238.616.383 1 .383.827 0 1.5-.673 1.5-1.5v-5.586c.157.056.325.086.5.086.827 0 1.5-.673 1.5-1.5v-4c0-.827-.673-1.5-1.5-1.5zm.5 5.5c0 .276-.224.5-.5.5s-.5-.224-.5-.5v-3c0-.276-.224-.5-.5-.5s-.5.224-.5.5v10c0 .276-.224.5-.5.5s-.5-.224-.5-.5v-6c0-.276-.224-.5-.5-.5s-.5.224-.5.5v6c0 .276-.224.5-.5.5s-.5-.224-.5-.5v-10c0-.276-.224-.5-.5-.5s-.5.224-.5.5v3c0 .276-.224.5-.5.5s-.5-.224-.5-.5v-4c0-.276.224-.5.5-.5h6c.276 0 .5.224.5.5z"/><path d="m18.5 1h-4c-.276 0-.5-.224-.5-.5s.224-.5.5-.5h4c.276 0 .5.224.5.5s-.224.5-.5.5z"/><path d="m18.5 20h-4c-.276 0-.5-.224-.5-.5s.224-.5.5-.5h4c.276 0 .5.224.5.5s-.224.5-.5.5z"/><path d="m18.146 15.646-1.146 1.146v-13.586l1.146 1.146c.098.098.226.146.354.146s.256-.049.354-.146c.195-.195.195-.512 0-.707l-2-2c-.195-.195-.512-.195-.707 0l-2 2c-.195.195-.195.512 0 .707s.512.195.707 0l1.146-1.146v13.586l-1.146-1.146c-.195-.195-.512-.195-.707 0s-.195.512 0 .707l2 2c.098.098.226.146.354.146s.256-.049.354-.146l2-2c.195-.195.195-.512 0-.707s-.512-.195-.707 0z"/></svg>