<svg height="20" viewBox="0 0 20 20" width="20" xmlns="http://www.w3.org/2000/svg"><path d="m20 9.5c0-.652-.418-1.208-1-1.414v-1.586c0-.276-.224-.5-.5-.5s-.5.224-.5.5v1.586c-.582.206-1 .762-1 1.414s.418 1.208 1 1.414v1.586c0 .276.224.5.5.5s.5-.224.5-.5v-1.586c.582-.206 1-.762 1-1.414zm-1.5.5c-.276 0-.5-.224-.5-.5s.224-.5.5-.5.5.224.5.5-.224.5-.5.5z"/><path d="m16.975 10.843c-.087-.262-.369-.405-.631-.318l-5.343 1.762v-2.288h5c.276 0 .5-.224.5-.5s-.224-.5-.5-.5h-5.05c-.232-1.14-1.242-2-2.45-2h-.5v-1h6.5c.276 0 .5-.224.5-.5s-.224-.5-.5-.5h-6.5v-.5c0-.276-.224-.5-.5-.5s-.5.224-.5.5v.5h-6.5c-.276 0-.5.224-.5.5s.224.5.5.5h6.5v1h-1.5c-2.481 0-4.5 2.019-4.5 4.5v1c0 1.207.86 2.217 2 2.45v1.05h-.5c-.276 0-.5-.224-.5-.5s-.224-.5-.5-.5-.5.224-.5.5c0 .827.673 1.5 1.5 1.5h7c.276 0 .5-.224.5-.5s-.224-.5-.5-.5h-.5v-1.05c.842-.172 1.531-.768 1.834-1.554l5.823-1.921c.262-.087.405-.369.318-.631zm-11.475-2.843h1.5v2.5c0 .276-.224.5-.5.5h-4.464c.243-1.694 1.704-3 3.464-3zm-1.5 8v-1h4v1zm4.5-2h-5c-.827 0-1.5-.673-1.5-1.5v-.5h4.5c.827 0 1.5-.673 1.5-1.5v-2.5h.5c.827 0 1.5.673 1.5 1.5v3c0 .126-.016.247-.045.364-.001.004-.002.008-.003.011-.167.646-.755 1.125-1.452 1.125z"/></svg>