<svg height="20" viewBox="0 0 20 20" width="20" xmlns="http://www.w3.org/2000/svg"><path d="m10 20c-3.684 0-7.06-2.017-8.809-5.263-.131-.243-.04-.546.203-.677s.546-.04.677.203c1.574 2.922 4.612 4.737 7.928 4.737 4.963 0 9-4.037 9-9s-4.037-9-9-9c-3.303 0-6.336 1.805-7.914 4.71-.119.218-.38.317-.613.23s-.367-.331-.315-.574l.853-3.972c.058-.27.324-.442.594-.384s.442.324.384.594l-.349 1.623c1.87-2.032 4.525-3.228 7.36-3.228 2.671 0 5.182 1.04 7.071 2.929s2.929 4.4 2.929 7.071-1.04 5.182-2.929 7.071-4.4 2.929-7.071 2.929z"/><path d="m10 10.5c-.084 0-.167-.021-.243-.063l-4.5-2.5c-.241-.134-.328-.438-.194-.68s.438-.328.68-.194l4.24 2.355 5.249-3.34c.233-.148.542-.08.69.153s.08.542-.153.69l-5.5 3.5c-.082.052-.175.078-.268.078z"/></svg>