<svg height="20" viewBox="0 0 20 20" width="20" xmlns="http://www.w3.org/2000/svg"><path d="m.5 12c-.12 0-.24-.043-.335-.129-.205-.185-.221-.501-.035-.706l8.829-9.758c.274-.303.644-.47 1.042-.47.397 0 .767.167 1.042.47l2.965 3.277-.007-1.18c-.001-.133.052-.261.145-.355s.221-.147.355-.147h2c.276 0 .5.224.5.5v4.492l2.871 3.173c.185.205.169.521-.035.706s-.521.169-.706-.035l-3-3.316c-.083-.092-.129-.212-.129-.335v-4.184h-.997l.011 1.986c.001.207-.126.394-.319.469s-.413.023-.552-.131l-3.843-4.247c-.082-.091-.189-.141-.3-.141s-.218.05-.3.141l-8.829 9.758c-.099.109-.235.165-.371.165z"/><path d="m15.5 20h-4c-.276 0-.5-.224-.5-.5v-3.5h-2v3.5c0 .276-.224.5-.5.5h-4c-.827 0-1.5-.673-1.5-1.5v-8c0-.276.224-.5.5-.5s.5.224.5.5v8c0 .276.224.5.5.5h3.5v-3.5c0-.276.224-.5.5-.5h3c.276 0 .5.224.5.5v3.5h3.5c.276 0 .5-.224.5-.5v-8c0-.276.224-.5.5-.5s.5.224.5.5v8c0 .827-.673 1.5-1.5 1.5z"/></svg>