<svg height="20" viewBox="0 0 20 20" width="20" xmlns="http://www.w3.org/2000/svg"><path d="m.5 12c-.12 0-.24-.043-.335-.129-.205-.185-.221-.501-.035-.706l8.829-9.758c.274-.303.644-.47 1.042-.47.397 0 .767.167 1.042.47l8.829 9.758c.185.205.169.521-.035.706s-.521.169-.706-.035l-8.829-9.758c-.082-.091-.189-.141-.3-.141s-.218.05-.3.141l-8.829 9.758c-.099.109-.235.165-.371.165z"/><path d="m15.5 20h-11c-.827 0-1.5-.673-1.5-1.5v-8c0-.276.224-.5.5-.5s.5.224.5.5v8c0 .276.224.5.5.5h11c.276 0 .5-.224.5-.5v-8c0-.276.224-.5.5-.5s.5.224.5.5v8c0 .827-.673 1.5-1.5 1.5z"/></svg>