<svg height="20" viewBox="0 0 20 20" width="20" xmlns="http://www.w3.org/2000/svg"><path d="m14.5 20h-3c-.276 0-.5-.224-.5-.5v-3.5h-2v3.5c0 .276-.224.5-.5.5h-3c-.827 0-1.5-.673-1.5-1.5v-6.123l-1.129 1.248c-.185.204-.499.221-.704.037l-2-1.789c-.099-.089-.159-.213-.166-.346s.039-.263.129-.362l8.829-9.758c.274-.303.644-.47 1.042-.47s.767.167 1.042.47l8.829 9.758c.089.099.136.229.129.362s-.067.258-.166.346l-2 1.789c-.205.183-.52.167-.704-.037l-1.129-1.248v6.123c0 .827-.673 1.5-1.5 1.5zm-2.5-1h2.5c.276 0 .5-.224.5-.5v-7.421c0-.207.127-.392.32-.467s.412-.022.551.131l1.666 1.842 1.255-1.123-8.492-9.386c-.082-.091-.189-.141-.3-.141s-.218.05-.3.141l-8.492 9.386 1.255 1.123 1.666-1.842c.139-.153.358-.205.551-.131s.32.26.32.467v7.421c0 .276.224.5.5.5h2.5v-3.5c0-.276.224-.5.5-.5h3c.276 0 .5.224.5.5z"/></svg>