<svg height="20" viewBox="0 0 20 20" width="20" xmlns="http://www.w3.org/2000/svg"><path d="m19.871 12.165-8.829-9.758c-.274-.303-.644-.47-1.042-.47-.397 0-.767.167-1.042.47l-8.829 9.758c-.185.205-.169.521.035.706.096.087.216.129.335.129.136 0 .272-.055.371-.165l2.129-2.353v8.018c0 .827.673 1.5 1.5 1.5h11c.827 0 1.5-.673 1.5-1.5v-8.018l2.129 2.353c.185.205.501.221.706.035s.221-.501.035-.706zm-7.871 6.835h-4v-4.5c0-.276.224-.5.5-.5h3c.276 0 .5.224.5.5zm4-.5c0 .276-.224.5-.5.5h-2.5v-4.5c0-.827-.673-1.5-1.5-1.5h-3c-.827 0-1.5.673-1.5 1.5v4.5h-2.5c-.276 0-.5-.224-.5-.5v-9.123l5.7-6.3c.082-.091.189-.141.3-.141s.218.05.3.141l5.7 6.3z"/></svg>