<svg height="20" viewBox="0 0 20 20" width="20" xmlns="http://www.w3.org/2000/svg"><path d="m3.5 18c-.276 0-.5-.224-.5-.5v-1c0-1.378 1.122-2.5 2.5-2.5.827 0 1.5-.673 1.5-1.5 0-1.378 1.122-2.5 2.5-2.5.827 0 1.5-.673 1.5-1.5 0-1.378 1.122-2.5 2.5-2.5.827 0 1.5-.673 1.5-1.5v-1c0-.276.224-.5.5-.5s.5.224.5.5v1c0 1.378-1.122 2.5-2.5 2.5-.827 0-1.5.673-1.5 1.5 0 1.378-1.122 2.5-2.5 2.5-.827 0-1.5.673-1.5 1.5 0 1.378-1.122 2.5-2.5 2.5-.827 0-1.5.673-1.5 1.5v1c0 .276-.224.5-.5.5z"/><path d="m19 4.5c0-.935-.364-1.814-1.025-2.475s-1.54-1.025-2.475-1.025c-.831 0-1.618.288-2.247.817-.46-.351-1.338-.817-2.753-.817-.931 0-2.04.384-3.297 1.142-1.115.672-2.28 1.603-3.369 2.692s-2.02 2.254-2.692 3.369c-.758 1.257-1.142 2.366-1.142 3.297 0 1.415.466 2.292.817 2.753-.529.629-.817 1.416-.817 2.247 0 .935.364 1.814 1.025 2.475s1.54 1.025 2.475 1.025c.831 0 1.618-.288 2.247-.817.46.351 1.338.817 2.753.817.931 0 2.04-.384 3.297-1.142 1.115-.672 2.28-1.603 3.369-2.692s2.02-2.254 2.692-3.369c.758-1.257 1.142-2.366 1.142-3.297 0-1.415-.466-2.292-.817-2.753.529-.629.817-1.416.817-2.247zm-14.459 1.041c2.151-2.151 4.49-3.541 5.959-3.541 1.036 0 1.679.29 2.028.523l-11.005 11.005c-.233-.349-.523-.991-.523-2.028 0-1.469 1.39-3.808 3.541-5.959zm-1.041 13.459c-.668 0-1.296-.26-1.768-.732s-.732-1.1-.732-1.768.26-1.296.732-1.768l12-12c.472-.472 1.1-.732 1.768-.732s1.296.26 1.768.732.732 1.1.732 1.768-.26 1.296-.732 1.768l-12 12c-.472.472-1.1.732-1.768.732zm10.959-3.541c-2.151 2.151-4.49 3.541-5.959 3.541-1.036 0-1.679-.29-2.028-.523l11.005-11.005c.233.349.523.991.523 2.028 0 1.469-1.39 3.808-3.541 5.959z"/></svg>