<svg height="20" viewBox="0 0 20 20" width="20" xmlns="http://www.w3.org/2000/svg"><path d="m16 3.5v-.5c0-.392-.241-.733-.717-1.014-.344-.203-.821-.382-1.419-.531-1.172-.293-2.722-.454-4.364-.454s-3.192.161-4.364.454c-.598.149-1.075.328-1.419.531-.476.281-.717.622-.717 1.014v.5c0 2.631 1.593 4.999 4 6.002v1.997c-2.407 1.003-4 3.371-4 6.002v.5c0 .392.241.733.717 1.014.344.203.821.382 1.419.531 1.172.293 2.722.454 4.364.454s3.192-.161 4.364-.454c.598-.149 1.075-.328 1.419-.531.476-.281.717-.623.717-1.014v-.5c0-2.631-1.593-4.999-4-6.002v-1.997c2.407-1.003 4-3.371 4-6.002zm-10.388-1.131c1.066-.238 2.447-.369 3.888-.369s2.823.131 3.888.369c1.15.257 1.498.534 1.589.631-.091.097-.439.374-1.589.631-1.066.238-2.447.369-3.888.369s-2.823-.131-3.888-.369c-1.15-.257-1.498-.534-1.589-.631.091-.097.439-.374 1.589-.631zm5.721 9.944c2.193.775 3.667 2.86 3.667 5.187v.473c-.042.057-.324.37-1.612.657-1.066.238-2.447.369-3.888.369s-2.823-.131-3.888-.369c-1.287-.288-1.57-.6-1.612-.657v-.473c0-2.327 1.473-4.412 3.667-5.187.2-.071.333-.259.333-.471v-2.683c0-.212-.134-.401-.333-.471-1.976-.699-3.368-2.461-3.624-4.506.3.135.666.257 1.093.364 1.172.293 2.722.454 4.364.454s3.192-.161 4.364-.454c.428-.107.794-.229 1.093-.364-.256 2.045-1.647 3.807-3.624 4.506-.2.071-.333.26-.333.471v2.683c0 .212.134.401.333.471z"/><path d="m13.667 16.529c-2.262-.799-3.667-2.726-3.667-5.029v-3.025c.6-.059 1.178-.225 1.723-.495.247-.123.348-.423.225-.67s-.423-.348-.67-.225c-.555.276-1.153.416-1.778.416s-1.223-.14-1.778-.416c-.247-.123-.547-.022-.67.225s-.022.547.225.67c.545.271 1.122.436 1.723.495v3.025c0 2.302-1.405 4.229-3.667 5.029-.21.074-.346.279-.332.501s.172.409.39.458c.982.22 2.477.512 4.109.512s3.127-.292 4.109-.512c.218-.049.377-.236.39-.458s-.122-.427-.332-.501zm-4.167.471c-.877 0-1.701-.087-2.437-.205.665-.421 1.244-.952 1.711-1.575.293-.391.536-.812.726-1.254.19.442.433.863.726 1.254.466.622 1.045 1.153 1.711 1.575-.736.117-1.56.205-2.437.205z"/></svg>