<svg height="20" viewBox="0 0 20 20" width="20" xmlns="http://www.w3.org/2000/svg"><path d="m17 8c0-1.861-1.278-3.43-3.002-3.874.001-.042.002-.084.002-.126 0-2.206-1.788-4-3.985-4s-3.985 1.794-3.985 4c0 .04.001.079.002.119-1.74.434-3.032 2.009-3.032 3.881 0 1.806 1.204 3.337 2.851 3.832l1.9 6.839c.207.746.976 1.33 1.749 1.33h1c.774 0 1.542-.584 1.749-1.33l1.9-6.839c1.647-.495 2.851-2.025 2.851-3.832zm-5.054 8.026-3.539 1.269-.489-1.762 4.627-1.659-.598 2.152zm-1.446 2.974h-1c-.324 0-.699-.285-.786-.597l-.039-.141 2.943-1.056-.332 1.197c-.087.313-.461.597-.786.597zm2.372-6.306-5.223 1.873-.713-2.568c.022 0 .043.001.065.001h6c.022 0 .043-.001.065-.001l-.193.695zm.128-1.694h-6c-1.654 0-3-1.346-3-3s1.346-3 3-3c.79 0 1.535.304 2.099.857.197.193.514.19.707-.007s.19-.514-.007-.707c-.745-.73-1.727-1.135-2.769-1.142 0-1.654 1.339-3 2.985-3s2.985 1.346 2.985 3c-.191 0-.383.014-.571.041-.273.039-.463.292-.424.566s.292.463.566.424c.141-.02.285-.03.429-.03 1.654 0 3 1.346 3 3s-1.346 3-3 3z"/></svg>