<svg height="20" viewBox="0 0 20 20" width="20" xmlns="http://www.w3.org/2000/svg"><path d="m17 11.5c0-.581-.279-1.43-1.592-2.199.474-.48.592-.951.592-1.301 0-.909-.79-1.753-2.074-2.333.049-.217.074-.44.074-.667 0-1.654-1.346-3-3-3-.07 0-.192-.008-.228-.063-.125-.191-.002-.804.186-1.235.077-.175.048-.378-.075-.524s-.318-.209-.504-.163c-.179.045-4.379 1.128-4.379 3.997 0 .246.031.491.09.729-1.317.655-2.09 1.664-2.09 2.759 0 .174.02.35.058.525-.693.732-1.058 1.582-1.058 2.475 0 .388.069.767.202 1.131l.769 5.688c.033.244.178.537.352.711.08.08 2.012 1.97 5.677 1.97s5.596-1.889 5.677-1.97c.172-.172.318-.461.356-.701l.772-4.999c.129-.267.196-.545.196-.83zm-12.497-2.45c.134.203.294.401.478.588.614.624 1.463 1.102 2.392 1.345.042.011.085.016.127.016.222 0 .424-.149.483-.373.07-.267-.09-.54-.357-.61-.757-.199-1.443-.582-1.932-1.079-.448-.455-.694-.966-.694-1.437 0-.692.547-1.361 1.485-1.839.061.095.127.188.198.277.441.546 1.051.92 1.719 1.053.033.007.066.01.098.01.234 0 .443-.165.49-.403.054-.271-.122-.534-.393-.588-.911-.181-1.598-1.04-1.598-1.997 0-1.433 1.684-2.319 2.756-2.738-.062.406-.05.858.179 1.209.154.236.464.517 1.066.517 1.103 0 2 .897 2 2 0 .106-.008.211-.025.314-.434-.131-.904-.235-1.402-.309-.273-.04-.527.149-.568.422s.149.527.422.568c2.207.325 3.573 1.294 3.573 2.005 0 .331-.301.628-.573.828-.82-.325-1.791-.563-2.864-.7-.274-.035-.524.159-.559.433s.159.524.433.559c2.602.332 4.563 1.355 4.563 2.38 0 .58-.637 1.186-1.747 1.662-1.261.541-2.949.838-4.753.838-1.505 0-2.913-.386-3.965-1.088-.99-.66-1.535-1.517-1.535-2.412 0-.503.172-.995.503-1.45zm10.466 8.274c-.03.029-.462.438-1.263.84-.76.382-2.02.837-3.707.837s-2.947-.455-3.707-.837c-.798-.401-1.229-.808-1.262-.839-.024-.028-.063-.106-.069-.139l-.52-3.846c.166.141.345.277.538.405 1.214.81 2.82 1.256 4.52 1.256 1.936 0 3.764-.326 5.147-.919.356-.152.674-.32.952-.499l-.555 3.594c-.007.037-.049.119-.075.148z"/></svg>