<svg height="20" viewBox="0 0 20 20" width="20" xmlns="http://www.w3.org/2000/svg"><path d="m3.5 19h-2c-.827 0-1.5-.673-1.5-1.5v-2c0-.827.673-1.5 1.5-1.5h2c.827 0 1.5.673 1.5 1.5v2c0 .827-.673 1.5-1.5 1.5zm-2-4c-.276 0-.5.224-.5.5v2c0 .276.224.5.5.5h2c.276 0 .5-.224.5-.5v-2c0-.276-.224-.5-.5-.5z"/><path d="m10.5 19h-2c-.827 0-1.5-.673-1.5-1.5v-2c0-.827.673-1.5 1.5-1.5h2c.827 0 1.5.673 1.5 1.5v2c0 .827-.673 1.5-1.5 1.5zm-2-4c-.276 0-.5.224-.5.5v2c0 .276.224.5.5.5h2c.276 0 .5-.224.5-.5v-2c0-.276-.224-.5-.5-.5z"/><path d="m17.5 19h-2c-.827 0-1.5-.673-1.5-1.5v-2c0-.827.673-1.5 1.5-1.5h2c.827 0 1.5.673 1.5 1.5v2c0 .827-.673 1.5-1.5 1.5zm-2-4c-.276 0-.5.224-.5.5v2c0 .276.224.5.5.5h2c.276 0 .5-.224.5-.5v-2c0-.276-.224-.5-.5-.5z"/><path d="m3.5 12h-2c-.827 0-1.5-.673-1.5-1.5v-2c0-.827.673-1.5 1.5-1.5h2c.827 0 1.5.673 1.5 1.5v2c0 .827-.673 1.5-1.5 1.5zm-2-4c-.276 0-.5.224-.5.5v2c0 .276.224.5.5.5h2c.276 0 .5-.224.5-.5v-2c0-.276-.224-.5-.5-.5z"/><path d="m10.5 12h-2c-.827 0-1.5-.673-1.5-1.5v-2c0-.827.673-1.5 1.5-1.5h2c.827 0 1.5.673 1.5 1.5v2c0 .827-.673 1.5-1.5 1.5zm-2-4c-.276 0-.5.224-.5.5v2c0 .276.224.5.5.5h2c.276 0 .5-.224.5-.5v-2c0-.276-.224-.5-.5-.5z"/><path d="m17.5 12h-2c-.827 0-1.5-.673-1.5-1.5v-2c0-.827.673-1.5 1.5-1.5h2c.827 0 1.5.673 1.5 1.5v2c0 .827-.673 1.5-1.5 1.5zm-2-4c-.276 0-.5.224-.5.5v2c0 .276.224.5.5.5h2c.276 0 .5-.224.5-.5v-2c0-.276-.224-.5-.5-.5z"/><path d="m3.5 5h-2c-.827 0-1.5-.673-1.5-1.5v-2c0-.827.673-1.5 1.5-1.5h2c.827 0 1.5.673 1.5 1.5v2c0 .827-.673 1.5-1.5 1.5zm-2-4c-.276 0-.5.224-.5.5v2c0 .276.224.5.5.5h2c.276 0 .5-.224.5-.5v-2c0-.276-.224-.5-.5-.5z"/><path d="m10.5 5h-2c-.827 0-1.5-.673-1.5-1.5v-2c0-.827.673-1.5 1.5-1.5h2c.827 0 1.5.673 1.5 1.5v2c0 .827-.673 1.5-1.5 1.5zm-2-4c-.276 0-.5.224-.5.5v2c0 .276.224.5.5.5h2c.276 0 .5-.224.5-.5v-2c0-.276-.224-.5-.5-.5z"/><path d="m17.5 5h-2c-.827 0-1.5-.673-1.5-1.5v-2c0-.827.673-1.5 1.5-1.5h2c.827 0 1.5.673 1.5 1.5v2c0 .827-.673 1.5-1.5 1.5zm-2-4c-.276 0-.5.224-.5.5v2c0 .276.224.5.5.5h2c.276 0 .5-.224.5-.5v-2c0-.276-.224-.5-.5-.5z"/></svg>