<svg height="20" viewBox="0 0 20 20" width="20" xmlns="http://www.w3.org/2000/svg"><path d="m18.5 9.382-2.606-5.211c-.328-.657-1.16-1.171-1.894-1.171h-2.5c-.276 0-.5.224-.5.5s.224.5.5.5h2.5c.362 0 .838.295 1 .618l2.606 5.211c.028.055.055.117.081.183-.061-.008-.123-.012-.187-.012h-5c-.276 0-.5.224-.5.5 0 1.378-1.122 2.5-2.5 2.5s-2.5-1.122-2.5-2.5c0-.276-.224-.5-.5-.5h-5c-.063 0-.125.004-.187.012.026-.066.053-.128.081-.183l2.606-5.211c.162-.323.638-.618 1-.618h2.5c.276 0 .5-.224.5-.5s-.224-.5-.5-.5h-2.5c-.734 0-1.566.514-1.894 1.171l-2.606 5.211c-.28.561-.5 1.491-.5 2.118v4c0 .827.673 1.5 1.5 1.5h16c.827 0 1.5-.673 1.5-1.5v-4c0-.627-.22-1.557-.5-2.118zm-.5 6.118c0 .276-.224.5-.5.5h-16c-.276 0-.5-.224-.5-.5v-4c0-.276.224-.5.5-.5h4.536c.243 1.694 1.704 3 3.464 3s3.221-1.306 3.464-3h4.536c.276 0 .5.224.5.5z"/><path d="m11.854 6.646c-.195-.195-.512-.195-.707 0l-1.146 1.146v-4.293c0-.276-.224-.5-.5-.5s-.5.224-.5.5v4.293l-1.146-1.146c-.195-.195-.512-.195-.707 0s-.195.512 0 .707l2 2c.098.098.226.146.354.146s.256-.049.354-.146l2-2c.195-.195.195-.512 0-.707z"/></svg>