<svg height="20" viewBox="0 0 20 20" width="20" xmlns="http://www.w3.org/2000/svg"><path d="m17.5 5h-15c-.276 0-.5-.224-.5-.5s.224-.5.5-.5h15c.276 0 .5.224.5.5s-.224.5-.5.5z"/><path d="m17.5 8h-8c-.276 0-.5-.224-.5-.5s.224-.5.5-.5h8c.276 0 .5.224.5.5s-.224.5-.5.5z"/><path d="m17.5 11h-8c-.276 0-.5-.224-.5-.5s.224-.5.5-.5h8c.276 0 .5.224.5.5s-.224.5-.5.5z"/><path d="m17.5 14h-8c-.276 0-.5-.224-.5-.5s.224-.5.5-.5h8c.276 0 .5.224.5.5s-.224.5-.5.5z"/><path d="m17.5 17h-15c-.276 0-.5-.224-.5-.5s.224-.5.5-.5h15c.276 0 .5.224.5.5s-.224.5-.5.5z"/><path d="m2.5 14c-.076 0-.153-.017-.224-.053-.169-.085-.276-.258-.276-.447v-6c0-.189.107-.363.276-.447s.372-.066.524.047l4 3c.126.094.2.243.2.4s-.074.306-.2.4l-4 3c-.088.066-.194.1-.3.1zm.5-5.5v4l2.667-2z"/></svg>