<svg height="20" viewBox="0 0 20 20" width="20" xmlns="http://www.w3.org/2000/svg"><path d="m17.5 5h-15c-.276 0-.5-.224-.5-.5s.224-.5.5-.5h15c.276 0 .5.224.5.5s-.224.5-.5.5z"/><path d="m17.5 8h-8c-.276 0-.5-.224-.5-.5s.224-.5.5-.5h8c.276 0 .5.224.5.5s-.224.5-.5.5z"/><path d="m17.5 11h-8c-.276 0-.5-.224-.5-.5s.224-.5.5-.5h8c.276 0 .5.224.5.5s-.224.5-.5.5z"/><path d="m17.5 14h-8c-.276 0-.5-.224-.5-.5s.224-.5.5-.5h8c.276 0 .5.224.5.5s-.224.5-.5.5z"/><path d="m17.5 17h-15c-.276 0-.5-.224-.5-.5s.224-.5.5-.5h15c.276 0 .5.224.5.5s-.224.5-.5.5z"/><path d="m6.5 14c-.106 0-.212-.034-.3-.1l-4-3c-.126-.094-.2-.243-.2-.4s.074-.306.2-.4l4-3c.152-.114.354-.132.524-.047s.276.258.276.447v6c0 .189-.107.363-.276.447-.071.035-.147.053-.224.053zm-3.167-3.5 2.667 2v-4z"/></svg>