<svg height="20" viewBox="0 0 20 20" width="20" xmlns="http://www.w3.org/2000/svg"><path d="m16 7h1v1h-1z"/><path d="m16 19h1v1h-1z"/><path d="m14 19h1v1h-1z"/><path d="m12 19h1v1h-1z"/><path d="m10 19h1v1h-1z"/><path d="m8 19h1v1h-1z"/><path d="m18 15h1v1h-1z"/><path d="m18 13h1v1h-1z"/><path d="m18 17h1v1h-1z"/><path d="m18 9h1v1h-1z"/><path d="m18 11h1v1h-1z"/><path d="m6 17h1v1h-1z"/><path d="m14 7h1v1h-1z"/><path d="m0 9h1v1h-1z"/><path d="m0 5h1v1h-1z"/><path d="m0 3h1v1h-1z"/><path d="m0 11h1v1h-1z"/><path d="m0 7h1v1h-1z"/><path d="m12 3h1v1h-1z"/><path d="m12 5h1v1h-1z"/><path d="m4 1h1v1h-1z"/><path d="m2 1h1v1h-1z"/><path d="m6 1h1v1h-1z"/><path d="m10 1h1v1h-1z"/><path d="m8 1h1v1h-1z"/><path d="m4 13h1v1h-1z"/><path d="m2 13h1v1h-1z"/><path d="m7.5 7c-.827 0-1.5.673-1.5 1.5v5.5h5.5c.827 0 1.5-.673 1.5-1.5v-5.5zm4.5 5.5c0 .276-.224.5-.5.5h-4.5v-4.5c0-.276.224-.5.5-.5h4.5z"/><path d="m6 15h1v1h-1z"/><path d="m18 7h1v1h-1z"/><path d="m18 19h1v1h-1z"/><path d="m0 13h1v1h-1z"/><path d="m0 1h1v1h-1z"/><path d="m12 1h1v1h-1z"/><path d="m6 19h1v1h-1z"/></svg>