<svg height="20" viewBox="0 0 20 20" width="20" xmlns="http://www.w3.org/2000/svg"><path d="m13 3.5c0-1.93-1.57-3.5-3.5-3.5s-3.5 1.57-3.5 3.5c0 1.76 1.306 3.221 3 3.464v4.536c0 .276.224.5.5.5s.5-.224.5-.5v-4.536c1.694-.243 3-1.704 3-3.464zm-3.5 2.5c-1.378 0-2.5-1.122-2.5-2.5s1.122-2.5 2.5-2.5 2.5 1.122 2.5 2.5-1.122 2.5-2.5 2.5z"/><path d="m9 2.5c0 .276-.224.5-.5.5s-.5-.224-.5-.5.224-.5.5-.5.5.224.5.5z"/><path d="m9.5 14c-.642 0-1.251-.192-1.714-.539-.499-.375-.786-.907-.786-1.461 0-.52.244-1.012.688-1.383.212-.177.527-.15.704.062s.149.527-.062.704c-.151.126-.331.336-.331.617 0 .542.687 1 1.5 1s1.5-.458 1.5-1c0-.281-.18-.491-.331-.617-.212-.177-.239-.493-.062-.704s.493-.239.704-.062c.444.372.688.863.688 1.383 0 .554-.286 1.086-.786 1.461-.464.348-1.073.539-1.714.539z"/><path d="m17.829 11.106-6.106-3.053c-.247-.123-.547-.023-.671.224s-.023.547.224.671l6.106 3.053c.086.043.169.108.246.187l-7.494 4.142c-.331.183-.935.183-1.267 0l-7.495-4.142c.077-.079.16-.144.246-.187l6.106-3.053c.247-.123.347-.424.224-.671s-.424-.347-.671-.224l-6.106 3.053c-.657.328-1.171 1.16-1.171 1.894v.5c0 .734.478 1.566 1.112 1.936l7.272 4.242c.313.183.714.274 1.116.274s.803-.091 1.116-.274l7.272-4.242c.634-.37 1.112-1.202 1.112-1.936v-.5c0-.734-.514-1.566-1.171-1.894zm-.445 3.466-7.273 4.242c-.32.187-.903.187-1.224 0l-7.272-4.242c-.322-.188-.616-.699-.616-1.072v-.376l7.383 4.08c.318.176.718.264 1.117.264s.799-.088 1.117-.264l7.383-4.08v.376c0 .373-.293.884-.616 1.072z"/></svg>