<svg height="20" viewBox="0 0 20 20" width="20" xmlns="http://www.w3.org/2000/svg"><path d="m13 4c-1.103 0-2-.897-2-2s.897-2 2-2 2 .897 2 2-.897 2-2 2zm0-3c-.551 0-1 .449-1 1s.449 1 1 1 1-.449 1-1-.449-1-1-1z"/><path d="m9.5 20c-.062 0-.125-.012-.186-.036-.256-.103-.381-.394-.279-.65l1.878-4.694-2.767-2.767c-.152-.152-.19-.385-.094-.577l2.638-5.276h-3.04l-2.874 1.916c-.23.153-.54.091-.693-.139s-.091-.54.139-.693l3-2c.082-.055.179-.084.277-.084h4c.173 0 .334.09.425.237s.099.331.022.486l-2.839 5.678 2.745 2.745c.141.141.185.354.111.539l-2 5c-.078.195-.266.314-.464.314z"/><path d="m5.5 10c-.148 0-.294-.065-.393-.19-.171-.217-.134-.531.083-.702l2-1.578c.035-.028.074-.051.115-.068l1-.422c.254-.107.548.012.655.266s-.012.548-.266.655l-.938.396-1.947 1.536c-.092.072-.201.107-.309.107z"/></svg>