<svg height="20" viewBox="0 0 20 20" width="20" xmlns="http://www.w3.org/2000/svg"><path d="m17.5 8c-.276 0-.5.224-.5.5v2.652c-1.97-2.011-4.666-3.152-7.5-3.152-1.679 0-3.284.385-4.77 1.144-1.417.724-2.672 1.78-3.63 3.055-.166.221-.121.534.099.7.09.068.195.1.3.1.152 0 .302-.069.4-.2 1.814-2.415 4.584-3.799 7.6-3.799 2.633 0 5.134 1.088 6.928 3h-2.928c-.276 0-.5.224-.5.5s.224.5.5.5h4c.276 0 .5-.224.5-.5v-4c0-.276-.224-.5-.5-.5z"/><path d="m9 15c-1.103 0-2-.897-2-2s.897-2 2-2 2 .897 2 2-.897 2-2 2zm0-3c-.551 0-1 .449-1 1s.449 1 1 1 1-.449 1-1-.449-1-1-1z"/></svg>