<svg height="20" viewBox="0 0 20 20" width="20" xmlns="http://www.w3.org/2000/svg"><path d="m15 0c-2.761 0-5 2.239-5 5 0 1.072.338 2.066.913 2.88l-10.766 10.766c-.195.195-.195.512 0 .707.098.098.226.146.354.146s.256-.049.354-.146l1.146-1.146 1.646 1.646c.098.098.226.146.354.146s.256-.049.354-.146c.195-.195.195-.512 0-.707l-1.646-1.646.793-.793 1.646 1.646c.098.098.226.146.354.146s.256-.049.354-.146c.195-.195.195-.512 0-.707l-1.646-1.646 7.363-7.363c.895.845 2.102 1.363 3.43 1.363 2.761 0 5-2.239 5-5s-2.239-5-5-5zm2.828 7.828c-.756.756-1.76 1.172-2.828 1.172s-2.073-.416-2.828-1.172c-.756-.756-1.172-1.76-1.172-2.828s.416-2.073 1.172-2.828c.756-.756 1.76-1.172 2.828-1.172s2.073.416 2.828 1.172c.756.756 1.172 1.76 1.172 2.828s-.416 2.073-1.172 2.828z"/></svg>