<svg height="20" viewBox="0 0 20 20" width="20" xmlns="http://www.w3.org/2000/svg"><path d="m3.5 17c-.132 0-.261-.053-.353-.147s-.147-.222-.147-.353.053-.26.147-.353c.093-.093.222-.147.353-.147s.26.053.353.147c.093.093.147.222.147.353s-.053.261-.147.353c-.093.093-.222.147-.353.147z"/><path d="m16.5 17c-.132 0-.261-.053-.353-.147s-.147-.222-.147-.353.053-.261.147-.353c.093-.093.222-.147.353-.147s.261.053.353.147c.093.093.147.222.147.353s-.053.261-.147.353c-.093.093-.222.147-.353.147z"/><path d="m16.5 11h-7.677l1.591-3.413c1.282-2.749.088-6.027-2.66-7.309-.063-.029-.128-.044-.193-.047-.114-.004-.225.031-.316.098-.026.019-.05.041-.072.065s-.042.051-.059.08c-.009.014-.017.03-.024.045l-6.762 14.501c-.001.003-.002.005-.003.008-.208.448-.325.946-.325 1.471 0 1.93 1.57 3.5 3.5 3.5h13c1.93 0 3.5-1.57 3.5-3.5v-2c0-1.93-1.57-3.5-3.5-3.5zm0 1c1.209 0 2.219.862 2.45 2.003-.632-.62-1.497-1.003-2.45-1.003h-8.609l.466-1zm-6.992-4.835-2.721 5.835h-3.287c-.433 0-.848.079-1.231.224l5.504-11.803c1.931 1.176 2.712 3.648 1.735 5.744zm6.992 11.835h-13c-1.378 0-2.5-1.122-2.5-2.5s1.122-2.5 2.5-2.5h3.603.002s.002 0 .003 0h9.391c1.378 0 2.5 1.122 2.5 2.5s-1.122 2.5-2.5 2.5z"/></svg>