<svg height="20" viewBox="0 0 20 20" width="20" xmlns="http://www.w3.org/2000/svg"><path d="m10.5 20h-1c-.276 0-.5-.224-.5-.5s.224-.5.5-.5h1c.276 0 .5.224.5.5s-.224.5-.5.5z"/><path d="m10 0c-3.308 0-6 2.692-6 6 0 2.114 1.014 3.828 1.057 3.9.266.444.645 1.228.826 1.712l.798 2.127c.121.322.353.613.641.834-.201.255-.322.577-.322.927 0 .384.145.734.383 1-.238.266-.383.616-.383 1 0 .827.673 1.5 1.5 1.5h3c.827 0 1.5-.673 1.5-1.5 0-.384-.145-.734-.383-1 .238-.266.383-.616.383-1 0-.35-.121-.672-.322-.927.288-.221.52-.511.641-.834l.797-2.127c.182-.484.56-1.268.826-1.712.043-.072 1.058-1.786 1.058-3.9 0-3.308-2.692-6-6-6zm1.5 18h-3c-.276 0-.5-.224-.5-.5s.224-.5.5-.5h3c.276 0 .5.224.5.5s-.224.5-.5.5zm.5-2.5c0 .276-.224.5-.5.5h-3c-.276 0-.5-.224-.5-.5s.224-.5.5-.5h3c.276 0 .5.224.5.5zm2.085-6.115c-.297.494-.703 1.336-.905 1.876l-.797 2.127c-.12.32-.541.612-.883.612h-3c-.342 0-.763-.292-.883-.612l-.798-2.127c-.202-.54-.608-1.381-.905-1.876-.009-.015-.914-1.545-.914-3.385 0-2.757 2.243-5 5-5s5 2.243 5 5c0 1.829-.906 3.371-.915 3.385z"/></svg>