<svg height="20" viewBox="0 0 20 20" width="20" xmlns="http://www.w3.org/2000/svg"><path d="m16.981 8.363-1.986-6.95c-.076-.667-1.028-.944-1.862-1.11-.976-.195-2.266-.303-3.634-.303s-2.658.107-3.634.303c-.834.167-1.785.443-1.862 1.11l-1.986 6.95c-.013.045-.019.091-.019.137 0 .562.647.781.89.863.382.129.916.243 1.589.339 1.005.144 2.256.239 3.613.278-.06.162-.093.337-.093.52 0 .281.078.544.213.769-.828.395-1.213 1.146-1.213 1.731 0 .933.329 1.665.619 2.311.204.454.381.847.381 1.189 0 .304-.61.672-1.013.915-.53.32-.987.596-.987 1.085 0 1.101 2.093 1.5 3.5 1.5s3.5-.399 3.5-1.5c0-.489-.457-.765-.987-1.085-.403-.243-1.013-.612-1.013-.915 0-.342.176-.735.381-1.189.29-.646.619-1.378.619-2.311 0-.584-.385-1.336-1.213-1.731.135-.225.213-.488.213-.769 0-.183-.033-.358-.093-.52 1.132-.033 2.19-.104 3.093-.211v3.23c0 .276.224.5.5.5s.5-.224.5-.5v-3.374c.452-.079.824-.167 1.11-.264.243-.082.89-.301.89-.863 0-.046-.006-.093-.019-.137zm-6.513 6.538c-.241.536-.468 1.042-.468 1.599 0 .868.865 1.39 1.496 1.771.12.072.278.168.395.249-.316.193-1.153.48-2.391.48s-2.076-.286-2.391-.48c.116-.081.275-.176.395-.249.632-.381 1.496-.903 1.496-1.771 0-.557-.228-1.063-.468-1.599-.261-.581-.532-1.183-.532-1.901 0-.211.255-1 1.5-1s1.5.789 1.5 1c0 .719-.27 1.32-.532 1.901zm-.468-4.401c0 .276-.224.5-.5.5s-.5-.224-.5-.5.224-.5.5-.5.5.224.5.5zm3.984-1.736c-1.245.152-2.838.236-4.484.236s-3.239-.084-4.484-.236c-1.201-.147-1.735-.313-1.955-.406l1.92-6.721c.001-.002.001-.004.002-.005.095-.065.431-.245 1.396-.407.87-.145 1.978-.225 3.122-.225s2.252.08 3.122.225c.965.161 1.302.342 1.396.407.001.002.001.004.002.005l1.92 6.721c-.221.093-.755.259-1.955.406z"/><path d="m15 14.5c0 .276-.224.5-.5.5s-.5-.224-.5-.5.224-.5.5-.5.5.224.5.5z"/></svg>