<svg height="20" viewBox="0 0 20 20" width="20" xmlns="http://www.w3.org/2000/svg"><path d="m18.5 10h-8.5v-2h1.5c.276 0 .5-.224.5-.5v-4c0-.276-.224-.5-.5-.5h-4c-.276 0-.5.224-.5.5v4c0 .276.224.5.5.5h1.5v2h-8.5c-.276 0-.5.224-.5.5s.224.5.5.5h3.5v2h-1.5c-.276 0-.5.224-.5.5v4c0 .276.224.5.5.5h4c.276 0 .5-.224.5-.5v-4c0-.276-.224-.5-.5-.5h-1.5v-2h9v2h-1.5c-.276 0-.5.224-.5.5v4c0 .276.224.5.5.5h4c.276 0 .5-.224.5-.5v-4c0-.276-.224-.5-.5-.5h-1.5v-2h3.5c.276 0 .5-.224.5-.5s-.224-.5-.5-.5zm-10.5-6h3v3h-3zm-2 13h-3v-3h3zm10 0h-3v-3h3z"/></svg>