<svg height="20" viewBox="0 0 20 20" width="20" xmlns="http://www.w3.org/2000/svg"><path d="m19.5 10h-4.5v-5.5c0-.827-.673-1.5-1.5-1.5h-2.5v-2.5c0-.276-.224-.5-.5-.5h-10c-.276 0-.5.224-.5.5v7c0 .276.224.5.5.5h3.398c-.185.496-.575.968-.752 1.146-.143.143-.186.358-.108.545s.26.309.462.309h4c.202 0 .385-.122.462-.309s.035-.402-.108-.545c-.166-.166-.563-.645-.751-1.146h3.397c.276 0 .5-.224.5-.5v-3.5h2.5c.276 0 .5.224.5.5v5.5h-4.5c-.276 0-.5.224-.5.5v7c0 .276.224.5.5.5h3.398c-.185.496-.575.968-.752 1.146-.143.143-.186.358-.108.545s.26.309.462.309h4c.202 0 .385-.122.462-.309s.035-.402-.108-.545c-.166-.166-.563-.645-.751-1.146h3.397c.276 0 .5-.224.5-.5v-7c0-.276-.224-.5-.5-.5zm-9.5-9v4h-9v-4zm-3.516 8h-1.968c.176-.289.341-.632.425-1h1.118c.084.368.248.711.425 1zm-5.484-2v-1h9v1zm18 4v4h-9v-4zm-3.516 8h-1.968c.176-.289.341-.632.425-1h1.118c.084.368.248.711.425 1zm-5.484-2v-1h9v1z"/></svg>