<svg height="20" viewBox="0 0 20 20" width="20" xmlns="http://www.w3.org/2000/svg"><path d="m19.88 13.175-2.349-2.741c-.263-.307-.638-.488-1.029-.496s-.773.157-1.049.452l-2.033 2.178c-.24-.363-.548-.68-.911-.935-.59-.414-1.285-.633-2.008-.633-.77 0-1.5.245-2.112.709-.372.282-.685.639-.919 1.042l-1.943-2.307c-.262-.312-.636-.493-1.026-.499s-.768.166-1.039.471l-3.336 3.753c-.183.206-.165.522.042.706s.522.165.706-.042l3.336-3.753c.079-.089.176-.137.278-.135.1.001.198.052.274.143l7.356 8.735c.099.117.24.178.383.178.114 0 .228-.039.322-.118.211-.178.238-.493.06-.704l-2.023-2.402 2.756-2.952c.039-.031.073-.067.1-.108l2.468-2.644c.083-.089.189-.137.297-.135s.212.054.291.147l2.349 2.741c.18.21.495.234.705.054s.234-.495.054-.705zm-11.707.41c.372-.943 1.3-1.585 2.327-1.585.927 0 1.78.523 2.209 1.329l-2.498 2.676z"/><path d="m10.5 10c-.276 0-.5-.224-.5-.5v-1c0-.276.224-.5.5-.5s.5.224.5.5v1c0 .276-.224.5-.5.5z"/><path d="m13 11c-.128 0-.256-.049-.354-.146-.195-.195-.195-.512 0-.707l1-1c.195-.195.512-.195.707 0s.195.512 0 .707l-1 1c-.098.098-.226.146-.354.146z"/><path d="m8 11c-.128 0-.256-.049-.354-.146l-1-1c-.195-.195-.195-.512 0-.707s.512-.195.707 0l1 1c.195.195.195.512 0 .707-.098.098-.226.147-.354.147z"/><path d="m14.493 2.004c-.064 0-.129-.013-.191-.039-.187-.08-.306-.259-.302-.462-.002-.048-.019-.184-.082-.298-.056-.101-.149-.205-.418-.205-.276 0-.5-.224-.5-.5s.224-.5.5-.5c.624 0 1.022.288 1.25.647.443-.31 1.078-.647 1.75-.647.276 0 .5.224.5.5s-.224.5-.5.5c-.645 0-1.408.617-1.647.854-.097.097-.228.15-.36.15z"/><path d="m9 2c-.057 0-.113.003-.169.007-.411-1.168-1.525-2.007-2.831-2.007-.967 0-1.871.474-2.43 1.241-.331-.157-.696-.241-1.07-.241-1.378 0-2.5 1.122-2.5 2.5s1.122 2.5 2.5 2.5h6.5c1.103 0 2-.897 2-2s-.897-2-2-2zm0 3h-6.5c-.827 0-1.5-.673-1.5-1.5s.673-1.5 1.5-1.5c.43 0 .84.185 1.125.508.183.207.499.227.706.044s.227-.499.044-.706c-.002-.002-.003-.003-.005-.005.372-.52.979-.841 1.63-.841 1.103 0 2 .897 2 2 0 .276.224.5.5.5s.5-.224.5-.5c.551 0 1 .449 1 1s-.449 1-1 1z"/><path d="m17.493 4.004c-.064 0-.129-.013-.191-.039-.187-.08-.306-.259-.302-.462-.002-.048-.019-.184-.082-.298-.056-.101-.149-.205-.418-.205-.276 0-.5-.224-.5-.5s.224-.5.5-.5c.624 0 1.022.288 1.25.647.443-.31 1.078-.647 1.75-.647.276 0 .5.224.5.5s-.224.5-.5.5c-.645 0-1.408.617-1.647.854-.097.097-.228.15-.36.15z"/><path d="m14.493 7.004c-.064 0-.129-.013-.191-.039-.187-.08-.306-.259-.302-.462-.002-.048-.019-.184-.082-.298-.056-.101-.149-.205-.418-.205-.276 0-.5-.224-.5-.5s.224-.5.5-.5c.624 0 1.022.288 1.25.647.443-.31 1.078-.647 1.75-.647.276 0 .5.224.5.5s-.224.5-.5.5c-.645 0-1.408.617-1.647.854-.097.097-.228.15-.36.15z"/></svg>