<svg height="20" viewBox="0 0 20 20" width="20" xmlns="http://www.w3.org/2000/svg"><path d="m11.5 14h-8c-.827 0-1.5-.673-1.5-1.5v-8c0-.827.673-1.5 1.5-1.5h13c.827 0 1.5.673 1.5 1.5v1c0 .276-.224.5-.5.5s-.5-.224-.5-.5v-1c0-.276-.224-.5-.5-.5h-13c-.276 0-.5.224-.5.5v8c0 .276.224.5.5.5h8c.276 0 .5.224.5.5s-.224.5-.5.5z"/><path d="m11.5 18h-10c-.827 0-1.5-.673-1.5-1.5v-1c0-.276.224-.5.5-.5h11c.276 0 .5.224.5.5s-.224.5-.5.5h-10.5v.5c0 .276.224.5.5.5h10c.276 0 .5.224.5.5s-.224.5-.5.5z"/><path d="m18.5 18h-4c-.827 0-1.5-.673-1.5-1.5v-8c0-.827.673-1.5 1.5-1.5h4c.827 0 1.5.673 1.5 1.5v8c0 .827-.673 1.5-1.5 1.5zm-4-10c-.276 0-.5.224-.5.5v8c0 .276.224.5.5.5h4c.276 0 .5-.224.5-.5v-8c0-.276-.224-.5-.5-.5z"/><path d="m16.5 16c-.132 0-.26-.053-.353-.147s-.147-.222-.147-.353.053-.261.147-.353c.093-.093.222-.147.353-.147s.261.053.353.147c.093.093.147.222.147.353s-.053.261-.147.353c-.093.093-.222.147-.353.147z"/></svg>