<svg height="20" viewBox="0 0 20 20" width="20" xmlns="http://www.w3.org/2000/svg"><path d="m9.5 20c-2.538 0-4.923-.988-6.718-2.782s-2.782-4.18-2.782-6.717.988-4.923 2.782-6.718 4.18-2.783 6.718-2.783 4.923.988 6.718 2.783 2.782 4.18 2.782 6.718-.988 4.923-2.782 6.717-4.18 2.782-6.718 2.782zm0-18c-4.687 0-8.5 3.813-8.5 8.5s3.813 8.5 8.5 8.5 8.5-3.813 8.5-8.5-3.813-8.5-8.5-8.5z"/><path d="m9.5 15c-.053 0-.106-.008-.158-.026-.204-.068-.342-.259-.342-.474v-8c0-.215.138-.406.342-.474s.429.002.558.174l3 4c.133.178.133.422 0 .6l-3 4c-.096.128-.246.2-.4.2zm.5-7v5l1.875-2.5z"/><path d="m13.5 15c-.276 0-.5-.224-.5-.5v-8c0-.276.224-.5.5-.5s.5.224.5.5v8c0 .276-.224.5-.5.5z"/><path d="m5.5 15c-.053 0-.106-.008-.158-.026-.204-.068-.342-.259-.342-.474v-8c0-.215.138-.406.342-.474s.429.002.558.174l3 4c.133.178.133.422 0 .6l-3 4c-.096.128-.246.2-.4.2zm.5-7v5l1.875-2.5z"/></svg>