<svg height="20" viewBox="0 0 20 20" width="20" xmlns="http://www.w3.org/2000/svg"><path d="m19.5 0h-5c-.276 0-.5.224-.5.5s.224.5.5.5h3.833l-11.186 11.146c-.196.195-.196.511-.001.707.098.098.226.147.354.147s.255-.049.353-.146l11.147-11.107v3.753c0 .276.224.5.5.5s.5-.224.5-.5v-5c0-.276-.224-.5-.5-.5z"/><path d="m16.5 20h-15c-.827 0-1.5-.673-1.5-1.5v-15c0-.827.673-1.5 1.5-1.5h10c.276 0 .5.224.5.5s-.224.5-.5.5h-10c-.276 0-.5.224-.5.5v15c0 .276.224.5.5.5h15c.276 0 .5-.224.5-.5v-10c0-.276.224-.5.5-.5s.5.224.5.5v10c0 .827-.673 1.5-1.5 1.5z"/></svg>