<svg height="20" viewBox="0 0 20 20" width="20" xmlns="http://www.w3.org/2000/svg"><path d="m14 3.5c0 .276-.224.5-.5.5s-.5-.224-.5-.5.224-.5.5-.5.5.224.5.5z"/><path d="m16 3.5c0 .276-.224.5-.5.5s-.5-.224-.5-.5.224-.5.5-.5.5.224.5.5z"/><path d="m9.5 18c-3.033 0-5.5-2.467-5.5-5.5s2.467-5.5 5.5-5.5 5.5 2.467 5.5 5.5-2.467 5.5-5.5 5.5zm0-10c-2.481 0-4.5 2.019-4.5 4.5s2.019 4.5 4.5 4.5 4.5-2.019 4.5-4.5-2.019-4.5-4.5-4.5z"/><path d="m9.5 16c-.276 0-.5-.224-.5-.5s.224-.5.5-.5c1.378 0 2.5-1.122 2.5-2.5 0-.276.224-.5.5-.5s.5.224.5.5c0 1.93-1.57 3.5-3.5 3.5z"/><path d="m15.5 1h-12c-1.378 0-2.5 1.122-2.5 2.5v15c0 .827.673 1.5 1.5 1.5h14c.827 0 1.5-.673 1.5-1.5v-15c0-1.378-1.122-2.5-2.5-2.5zm-12 1h12c.827 0 1.5.673 1.5 1.5v1.5h-15v-1.5c0-.827.673-1.5 1.5-1.5zm13.5 16.5c0 .276-.224.5-.5.5h-14c-.276 0-.5-.224-.5-.5v-12.5h15z"/><path d="m5.5 4h-2c-.276 0-.5-.224-.5-.5s.224-.5.5-.5h2c.276 0 .5.224.5.5s-.224.5-.5.5z"/></svg>