<svg height="20" viewBox="0 0 20 20" width="20" xmlns="http://www.w3.org/2000/svg"><path d="m19.306 13.039-9.306 3.918-5.562-2.342 1.487-1.289 3.881 1.634c.062.026.128.039.194.039s.132-.013.194-.039l9.5-4c.254-.107.374-.4.267-.655s-.4-.374-.655-.267l-9.306 3.918-3.232-1.361 1.487-1.289 1.551.653c.062.026.128.039.194.039s.132-.013.194-.039l9.5-4c.185-.078.306-.26.306-.461s-.121-.383-.306-.461l-4.384-1.846 1.518-1.315c.209-.181.231-.497.05-.705s-.497-.231-.705-.05l-1.89 1.638-4.088-1.721c-.124-.052-.264-.052-.388 0l-9.5 4c-.185.078-.306.26-.306.461s.121.383.306.461l6.921 2.914-1.487 1.289-5.046-2.125c-.255-.107-.548.012-.655.267s.012.548.267.655l4.591 1.933-1.487 1.289-2.716-1.144c-.255-.107-.548.012-.655.267s.012.548.267.655l2.262.952-1.395 1.209c-.209.181-.231.497-.05.705.099.114.238.173.378.173.116 0 .233-.04.327-.122l1.768-1.532 6.211 2.615c.062.026.128.039.194.039s.132-.013.194-.039l9.5-4c.254-.107.374-.4.267-.655s-.4-.374-.655-.267zm-1.094-5.539-8.212 3.457-.903-.38 5.37-4.654 3.744 1.577zm-16.424 0 8.212-3.457 3.44 1.448-5.37 4.654-6.281-2.645z"/></svg>