<svg height="20" viewBox="0 0 20 20" width="20" xmlns="http://www.w3.org/2000/svg"><path d="m10 12c-.066 0-.132-.013-.194-.039l-9.5-4c-.185-.078-.306-.26-.306-.461s.121-.383.306-.461l9.5-4c.124-.052.264-.052.388 0l9.5 4c.185.078.306.26.306.461s-.121.383-.306.461l-9.5 4c-.062.026-.128.039-.194.039zm-8.212-4.5 8.212 3.457 8.212-3.457-8.212-3.457z"/><path d="m10 15c-.066 0-.132-.013-.194-.039l-9.5-4c-.254-.107-.374-.4-.267-.655s.4-.374.655-.267l9.306 3.918 9.306-3.918c.254-.107.548.012.655.267s-.012.548-.267.655l-9.5 4c-.062.026-.128.039-.194.039z"/><path d="m10 18c-.066 0-.132-.013-.194-.039l-9.5-4c-.254-.107-.374-.4-.267-.655s.4-.374.655-.267l9.306 3.918 9.306-3.918c.254-.107.548.012.655.267s-.012.548-.267.655l-9.5 4c-.062.026-.128.039-.194.039z"/></svg>