<svg height="20" viewBox="0 0 20 20" width="20" xmlns="http://www.w3.org/2000/svg"><path d="m19.883.178c-.095-.113-.235-.178-.382-.178h-.51c-5.04-.002-9.021-.003-11.952.698-1.575.377-2.793.946-3.723 1.739-1.004.856-1.688 1.977-2.093 3.429-.269.964-.395 2.705.136 4.437.196.64.502 1.244.91 1.799-1.216 1.905-2.267 4.414-2.267 7.399 0 .276.224.5.5.5s.5-.224.5-.5c0-4.605 2.728-8.021 4.354-9.646 1.167-1.167 2.486-2.152 3.816-2.848 1.238-.648 2.421-1.005 3.331-1.005.276 0 .5-.224.5-.5s-.224-.5-.5-.5c-1.084 0-2.396.387-3.794 1.12-1.418.743-2.822 1.789-4.059 3.027-.522.522-1.15 1.218-1.774 2.07-.242-.381-.43-.785-.559-1.207-.5-1.632-.316-3.204-.129-3.875 1.43-5.125 6.862-5.138 16.717-5.135-1.175 6.288-3.366 10.358-6.516 12.101-2.922 1.617-5.82.735-6.931.28-.234-.096-.47-.214-.699-.35-.237-.141-.544-.063-.685.174s-.063.544.174.685c.272.162.552.302.832.417.622.254 1.624.58 2.865.687.274.024.545.035.814.035 1.469 0 2.849-.353 4.115-1.053 1.609-.89 3.001-2.339 4.139-4.304 1.334-2.305 2.338-5.362 2.983-9.086.025-.145-.015-.294-.11-.407z"/></svg>