<svg height="20" viewBox="0 0 20 20" width="20" xmlns="http://www.w3.org/2000/svg"><path d="m10.5 0h-2c-.827 0-1.5.673-1.5 1.5v.586c-.157-.056-.325-.086-.5-.086h-5c-.827 0-1.5.673-1.5 1.5v15c0 .827.673 1.5 1.5 1.5h5c.384 0 .734-.145 1-.383.266.238.616.383 1 .383h2c.827 0 1.5-.673 1.5-1.5v-17c0-.827-.673-1.5-1.5-1.5zm-4 19h-5c-.276 0-.5-.224-.5-.5v-15c0-.276.224-.5.5-.5h5c.276 0 .5.224.5.5v15c0 .276-.224.5-.5.5zm4.5-.5c0 .276-.224.5-.5.5h-2c-.276 0-.5-.224-.5-.5v-17c0-.276.224-.5.5-.5h2c.276 0 .5.224.5.5z"/><path d="m5.5 6h-2.859c-.276 0-.5-.224-.5-.5s.224-.5.5-.5h2.859c.276 0 .5.224.5.5s-.224.5-.5.5z"/><path d="m18.61 19.623-2.978.366c-.821.101-1.571-.485-1.672-1.306l-1.95-15.881c-.101-.821.485-1.571 1.306-1.672l2.978-.366c.821-.101 1.571.485 1.672 1.306l1.95 15.881c.101.821-.485 1.571-1.306 1.672zm-5.171-17.5c-.274.034-.469.284-.435.557l1.95 15.881c.034.274.284.469.557.435l2.978-.366c.274-.034.469-.284.435-.557l-1.95-15.881c-.034-.274-.284-.469-.557-.435z"/><path d="m15.79 4.857-.993.122c-.274.034-.524-.161-.557-.435s.161-.524.435-.557l.993-.122c.274-.034.524.161.557.435s-.161.524-.435.557z"/></svg>