<svg height="20" viewBox="0 0 20 20" width="20" xmlns="http://www.w3.org/2000/svg"><path d="m5.5 17h-.5v-9h.5c.276 0 .5-.224.5-.5s-.224-.5-.5-.5h-4c-.276 0-.5.224-.5.5s.224.5.5.5h.5v9h-.5c-.276 0-.5.224-.5.5s.224.5.5.5h4c.276 0 .5-.224.5-.5s-.224-.5-.5-.5zm-1.5 0h-1v-9h1z"/><path d="m11.5 17h-.5v-9h.5c.276 0 .5-.224.5-.5s-.224-.5-.5-.5h-4c-.276 0-.5.224-.5.5s.224.5.5.5h.5v9h-.5c-.276 0-.5.224-.5.5s.224.5.5.5h4c.276 0 .5-.224.5-.5s-.224-.5-.5-.5zm-1.5 0h-1v-9h1z"/><path d="m17.5 17h-.5v-9h.5c.276 0 .5-.224.5-.5s-.224-.5-.5-.5h-4c-.276 0-.5.224-.5.5s.224.5.5.5h.5v9h-.5c-.276 0-.5.224-.5.5s.224.5.5.5h4c.276 0 .5-.224.5-.5s-.224-.5-.5-.5zm-1.5 0h-1v-9h1z"/><path d="m18.5 20h-18c-.276 0-.5-.224-.5-.5s.224-.5.5-.5h18c.276 0 .5.224.5.5s-.224.5-.5.5z"/><path d="m17.5 6h-16c-.223 0-.419-.148-.481-.362s.026-.444.216-.562l8-5c.162-.101.368-.101.53 0l8 5c.189.118.277.347.216.562s-.258.362-.481.362zm-14.257-1h12.513l-6.257-3.91-6.257 3.91z"/></svg>