<svg height="20" viewBox="0 0 20 20" width="20" xmlns="http://www.w3.org/2000/svg"><path d="m16.5 20h-13c-.827 0-1.5-.673-1.5-1.5v-16c0-.827.673-1.5 1.5-1.5h13c.827 0 1.5.673 1.5 1.5v16c0 .827-.673 1.5-1.5 1.5zm-13-18c-.276 0-.5.224-.5.5v16c0 .276.224.5.5.5h13c.276 0 .5-.224.5-.5v-16c0-.276-.224-.5-.5-.5z"/><path d="m15.943 5.544-.813-.591-.311-.956h-1.005l-.813-.591-.813.591h-1.005l-.311.956-.813.591.311.956-.311.956.813.591.132.406c-.002.016-.002.031-.002.047v8c0 .202.122.385.309.462s.402.035.545-.108l1.146-1.146 1.146 1.146c.096.096.223.147.354.146.064 0 .129-.012.191-.038.187-.077.309-.26.309-.462v-8c0-.016-.001-.032-.002-.047l.132-.406.813-.591-.311-.956.311-.956zm-4.71.382.488-.355.187-.574h.604l.488-.355.488.355h.604l.187.574.488.355-.187.574.187.574-.488.355-.187.574h-.604l-.488.355-.488-.355h-.604l-.187-.574-.488-.355.187-.574zm2.121 8.72c-.195-.195-.512-.195-.707 0l-.646.646v-6.29h.187l.813.591.813-.591h.187v6.29l-.646-.646z"/></svg>