<svg height="20" viewBox="0 0 20 20" width="20" xmlns="http://www.w3.org/2000/svg"><path d="m17.071 2.929c-1.889-1.889-4.4-2.929-7.071-2.929s-5.182 1.04-7.071 2.929-2.929 4.4-2.929 7.071 1.04 5.182 2.929 7.071 4.4 2.929 7.071 2.929 5.182-1.04 7.071-2.929 2.929-4.4 2.929-7.071-1.04-5.182-2.929-7.071zm-7.071 12.071c-2.757 0-5-2.243-5-5s2.243-5 5-5 5 2.243 5 5-2.243 5-5 5zm-9-5c0-.338.019-.672.056-1h3.028c-.055.325-.084.659-.084 1s.029.675.084 1h-3.028c-.036-.328-.056-.662-.056-1zm14.916-1h3.028c.036.328.056.662.056 1s-.019.672-.056 1h-3.028c.055-.325.084-.659.084-1s-.029-.675-.084-1zm2.86-1h-3.119c-.604-1.702-1.955-3.053-3.657-3.657v-3.119c3.36.765 6.01 3.416 6.776 6.776zm-7.776-6.944v3.028c-.325-.055-.659-.084-1-.084s-.675.029-1 .084v-3.028c.328-.036.662-.056 1-.056s.672.019 1 .056zm-3 .168v3.119c-1.702.604-3.053 1.955-3.657 3.657h-3.119c.765-3.36 3.416-6.01 6.776-6.776zm-6.776 10.776h3.119c.604 1.702 1.955 3.053 3.657 3.657v3.119c-3.36-.765-6.01-3.416-6.776-6.776zm7.776 6.944v-3.028c.325.055.659.084 1 .084s.675-.029 1-.084v3.028c-.328.037-.662.056-1 .056s-.672-.019-1-.056zm3-.168v-3.119c1.702-.604 3.053-1.955 3.657-3.657h3.119c-.765 3.36-3.416 6.01-6.776 6.776z"/></svg>