<svg height="20" viewBox="0 0 20 20" width="20" xmlns="http://www.w3.org/2000/svg"><path d="m18 20c-1.103 0-2-.897-2-2v-6.501c-.418.315-.938.501-1.5.501h-5.5v3.5c0 2.481-2.019 4.5-4.5 4.5s-4.5-2.019-4.5-4.5 2.019-4.5 4.5-4.5h3.5v-5c0-2.757 2.243-5 5-5 2.415 0 4.435 1.721 4.9 4h1.6c.276 0 .5.224.5.5s-.224.5-.5.5h-1.5v.5c0 .827-.673 1.5-1.5 1.5s-1.5-.673-1.5-1.5.673-1.5 1.5-1.5h.373c-.445-1.723-2.013-3-3.873-3-2.206 0-4 1.794-4 4v5h5.5c.827 0 1.5-.673 1.5-1.5 0-.276.224-.5.5-.5s.5.224.5.5v8.5c0 .551.449 1 1 1s1-.449 1-1v-.5c0-.276.224-.5.5-.5s.5.224.5.5v.5c0 1.103-.897 2-2 2zm-13.5-8c-1.93 0-3.5 1.57-3.5 3.5s1.57 3.5 3.5 3.5 3.5-1.57 3.5-3.5v-3.5zm12-6c-.276 0-.5.224-.5.5s.224.5.5.5.5-.224.5-.5v-.5z"/></svg>