<svg height="20" viewBox="0 0 20 20" width="20" xmlns="http://www.w3.org/2000/svg"><path d="m17.5 9h-.69l-.855-1.722c-.084-.17-.258-.278-.448-.278h-4.007c-.276 0-.5.224-.5.5v1.5h-1.211l-3.856-6.678c-.138-.239-.444-.321-.683-.183l-3.464 2c-.239.138-.321.444-.183.683l4 6.928c.093.16.261.25.433.25.085 0 .171-.022.25-.067l2.714-1.567v8.134c0 .276.224.5.5.5h8c.276 0 .5-.224.5-.5v-9c0-.276-.224-.5-.5-.5zm-.5 6h-1v-3h1zm-5-7h3.197l.497 1h-3.694zm-5.781 2.817-3.5-6.062 2.598-1.5 3.5 6.062zm3.781 7.183v-8h6.497.004s.001 0 .002 0h.497v1h-1.5c-.276 0-.5.224-.5.5v4c0 .276.224.5.5.5h1.5v2z"/><path d="m15.5 6c-.75 0-1.115-.354-1.289-.652-.331-.565-.275-1.418.169-2.606.299-.799.668-1.459.684-1.487.089-.157.255-.255.436-.255s.347.097.436.255c.016.028.385.688.684 1.487.444 1.189.5 2.041.169 2.606-.174.297-.539.652-1.289.652zm0-3.36c-.063.146-.127.302-.187.463-.453 1.218-.297 1.64-.238 1.741.025.043.092.156.425.156s.401-.114.426-.156c.059-.101.216-.525-.243-1.751-.059-.158-.121-.31-.183-.453z"/></svg>