<svg height="20" viewBox="0 0 20 20" width="20" xmlns="http://www.w3.org/2000/svg"><path d="m19.5 16h-.5c-.579 0-1 .631-1 1.5 0 .276-.224.5-.5.5s-.5-.224-.5-.5v-1c0-.276-.224-.5-.5-.5-.138 0-.263.056-.354.147-.196-.094-.415-.147-.646-.147-.827 0-1.5.673-1.5 1.5 0 .175.031.343.086.5h-1.086c-.406 0-1.019-.277-1.288-.58l-1.044-1.181 9.207-10.408c.161-.182.165-.447.024-.633l-2.999-3.998c-.094-.126-.243-.2-.4-.2h-13c-.157 0-.306.074-.4.2l-2.999 3.998c-.141.186-.136.451.024.633l9.207 10.408-1.044 1.181c-.289.327-.795.58-1.038.58h-.25v-.5c0-.827-.673-1.5-1.5-1.5-.282 0-.545.078-.77.213-.127-.135-.292-.213-.48-.213-.308 0-.537.243-.702.455-.152.195-.309.449-.442.716l-.106.211v-.882c0-.276-.224-.5-.5-.5s-.5.224-.5.5v1c0 .276-.224.5-.5.5s-.5-.224-.5-.5v-3c0-.276-.224-.5-.5-.5s-.5.224-.5.5v3c0 .827.673 1.5 1.5 1.5.282 0 .545-.078.77-.214.127.135.292.214.48.214.308 0 .537-.243.702-.455.152-.195.309-.449.442-.716l.106-.211v.882c0 .276.224.5.5.5s.5-.224.5-.5v-1c0-.276.224-.5.5-.5s.5.224.5.5v1c0 .276.224.5.5.5h.75c.556 0 1.324-.395 1.787-.918l.963-1.089.963 1.088c.463.523 1.339.918 2.037.918h2.5c.384 0 .734-.145 1-.383.266.238.616.383 1 .383.827 0 1.5-.673 1.5-1.5 0-.249.061-.422.103-.5h.397c.276 0 .5-.224.5-.5s-.224-.5-.5-.5zm-18.355-10.526 2.605-3.474h12.5l2.605 3.474-8.855 10.011zm14.355 12.526c-.276 0-.5-.224-.5-.5s.224-.5.5-.5.5.224.5.5-.224.5-.5.5z"/><path d="m2.5 15c.132 0 .261-.053.353-.147s.147-.222.147-.353-.053-.26-.147-.353c-.093-.093-.222-.147-.353-.147s-.26.053-.353.147c-.093.093-.147.222-.147.353s.053.261.147.353c.093.093.222.147.353.147z"/></svg>