<svg height="20" viewBox="0 0 20 20" width="20" xmlns="http://www.w3.org/2000/svg"><path d="m18.5 5h-10c-.276 0-.5-.224-.5-.5s.224-.5.5-.5h10c.276 0 .5.224.5.5s-.224.5-.5.5z"/><path d="m18.5 9h-10c-.276 0-.5-.224-.5-.5s.224-.5.5-.5h10c.276 0 .5.224.5.5s-.224.5-.5.5z"/><path d="m18.5 13h-10c-.276 0-.5-.224-.5-.5s.224-.5.5-.5h10c.276 0 .5.224.5.5s-.224.5-.5.5z"/><path d="m18.5 17h-10c-.276 0-.5-.224-.5-.5s.224-.5.5-.5h10c.276 0 .5.224.5.5s-.224.5-.5.5z"/><path d="m5.146 13.646-1.146 1.146v-8.586l1.146 1.146c.098.098.226.146.354.146s.256-.049.354-.146c.195-.195.195-.512 0-.707l-2-2c-.195-.195-.512-.195-.707 0l-2 2c-.195.195-.195.512 0 .707s.512.195.707 0l1.146-1.146v8.586l-1.146-1.146c-.195-.195-.512-.195-.707 0s-.195.512 0 .707l2 2c.098.098.226.146.354.146s.256-.049.354-.146l2-2c.195-.195.195-.512 0-.707s-.512-.195-.707 0z"/></svg>