<svg height="20" viewBox="0 0 20 20" width="20" xmlns="http://www.w3.org/2000/svg"><path d="m6.5 14c-.128 0-.256-.049-.354-.146-.195-.195-.195-.512 0-.707l7-7c.195-.195.512-.195.707 0s.195.512 0 .707l-7 7c-.098.098-.226.146-.354.146z"/><path d="m14 11c-.185 0-.372-.01-.555-.031-.274-.03-.472-.277-.442-.552s.278-.473.552-.442c.147.016.296.024.445.024 2.206 0 4-1.794 4-4s-1.794-4-4-4-4 1.794-4 4c0 .149.008.298.024.445.03.274-.168.522-.442.552s-.522-.168-.552-.442c-.02-.183-.03-.37-.03-.555 0-2.757 2.243-5 5-5s5 2.243 5 5-2.243 5-5 5z"/><path d="m6 19c-2.757 0-5-2.243-5-5s2.243-5 5-5c.185 0 .372.01.555.031.274.03.472.277.442.552s-.277.472-.552.442c-.147-.016-.296-.024-.445-.024-2.206 0-4 1.794-4 4s1.794 4 4 4 4-1.794 4-4c0-.148-.008-.298-.024-.445-.03-.274.168-.522.442-.552s.522.168.552.442c.02.183.031.37.031.555 0 2.757-2.243 5-5 5z"/></svg>