<svg height="20" viewBox="0 0 20 20" width="20" xmlns="http://www.w3.org/2000/svg"><path d="m19.5 4h-14c-.276 0-.5-.224-.5-.5s.224-.5.5-.5h14c.276 0 .5.224.5.5s-.224.5-.5.5z"/><path d="m19.5 11h-14c-.276 0-.5-.224-.5-.5s.224-.5.5-.5h14c.276 0 .5.224.5.5s-.224.5-.5.5z"/><path d="m19.5 18h-14c-.276 0-.5-.224-.5-.5s.224-.5.5-.5h14c.276 0 .5.224.5.5s-.224.5-.5.5z"/><path d="m1.5 6c-.276 0-.5-.224-.5-.5v-3.5h-.5c-.276 0-.5-.224-.5-.5s.224-.5.5-.5h1c.276 0 .5.224.5.5v4c0 .276-.224.5-.5.5z"/><path d="m2.5 13h-2c-.276 0-.5-.224-.5-.5v-2c0-.276.224-.5.5-.5h1.5v-1h-1.5c-.276 0-.5-.224-.5-.5s.224-.5.5-.5h2c.276 0 .5.224.5.5v2c0 .276-.224.5-.5.5h-1.5v1h1.5c.276 0 .5.224.5.5s-.224.5-.5.5z"/><path d="m2.5 15h-2c-.276 0-.5.224-.5.5s.224.5.5.5h1.5v1h-1.5c-.276 0-.5.224-.5.5s.224.5.5.5h1.5v1h-1.5c-.276 0-.5.224-.5.5s.224.5.5.5h2c.276 0 .5-.224.5-.5v-4c0-.276-.224-.5-.5-.5z"/></svg>