<svg height="20" viewBox="0 0 20 20" width="20" xmlns="http://www.w3.org/2000/svg"><path d="m2 6c-.128 0-.256-.049-.354-.146l-1.5-1.5c-.195-.195-.195-.512 0-.707s.512-.195.707 0l1.146 1.146 4.146-4.146c.195-.195.512-.195.707 0s.195.512 0 .707l-4.5 4.5c-.098.098-.226.146-.354.146z"/><path d="m19.5 5h-12c-.276 0-.5-.224-.5-.5s.224-.5.5-.5h12c.276 0 .5.224.5.5s-.224.5-.5.5z"/><path d="m2 13c-.128 0-.256-.049-.354-.146l-1.5-1.5c-.195-.195-.195-.512 0-.707s.512-.195.707 0l1.146 1.146 4.146-4.146c.195-.195.512-.195.707 0s.195.512 0 .707l-4.5 4.5c-.098.098-.226.146-.354.146z"/><path d="m19.5 12h-12c-.276 0-.5-.224-.5-.5s.224-.5.5-.5h12c.276 0 .5.224.5.5s-.224.5-.5.5z"/><path d="m2 20c-.128 0-.256-.049-.354-.146l-1.5-1.5c-.195-.195-.195-.512 0-.707s.512-.195.707 0l1.146 1.146 4.146-4.146c.195-.195.512-.195.707 0s.195.512 0 .707l-4.5 4.5c-.098.098-.226.146-.354.146z"/><path d="m19.5 19h-12c-.276 0-.5-.224-.5-.5s.224-.5.5-.5h12c.276 0 .5.224.5.5s-.224.5-.5.5z"/></svg>