<svg height="20" viewBox="0 0 20 20" width="20" xmlns="http://www.w3.org/2000/svg"><path d="m18.5 7h-12c-.827 0-1.5-.673-1.5-1.5s.673-1.5 1.5-1.5h12c.827 0 1.5.673 1.5 1.5s-.673 1.5-1.5 1.5zm-12-2c-.276 0-.5.224-.5.5s.224.5.5.5h12c.276 0 .5-.224.5-.5s-.224-.5-.5-.5z"/><path d="m18.5 12h-12c-.827 0-1.5-.673-1.5-1.5s.673-1.5 1.5-1.5h12c.827 0 1.5.673 1.5 1.5s-.673 1.5-1.5 1.5zm-12-2c-.276 0-.5.224-.5.5s.224.5.5.5h12c.276 0 .5-.224.5-.5s-.224-.5-.5-.5z"/><path d="m18.5 17h-12c-.827 0-1.5-.673-1.5-1.5s.673-1.5 1.5-1.5h12c.827 0 1.5.673 1.5 1.5s-.673 1.5-1.5 1.5zm-12-2c-.276 0-.5.224-.5.5s.224.5.5.5h12c.276 0 .5-.224.5-.5s-.224-.5-.5-.5z"/><path d="m1.5 7c-.827 0-1.5-.673-1.5-1.5s.673-1.5 1.5-1.5 1.5.673 1.5 1.5-.673 1.5-1.5 1.5zm0-2c-.276 0-.5.224-.5.5s.224.5.5.5.5-.224.5-.5-.224-.5-.5-.5z"/><path d="m1.5 12c-.827 0-1.5-.673-1.5-1.5s.673-1.5 1.5-1.5 1.5.673 1.5 1.5-.673 1.5-1.5 1.5zm0-2c-.276 0-.5.224-.5.5s.224.5.5.5.5-.224.5-.5-.224-.5-.5-.5z"/><path d="m1.5 17c-.827 0-1.5-.673-1.5-1.5s.673-1.5 1.5-1.5 1.5.673 1.5 1.5-.673 1.5-1.5 1.5zm0-2c-.276 0-.5.224-.5.5s.224.5.5.5.5-.224.5-.5-.224-.5-.5-.5z"/></svg>