<svg height="20" viewBox="0 0 20 20" width="20" xmlns="http://www.w3.org/2000/svg"><path d="m3.519 10c-.013 0-.026-.001-.038-.001-.275-.021-.482-.261-.461-.537.126-1.663.847-3.229 2.03-4.412s2.749-1.903 4.412-2.03c.276-.021.516.185.537.461s-.185.516-.461.537c-2.925.223-5.298 2.596-5.52 5.52-.02.262-.239.462-.498.462z"/><path d="m10 15c-2.757 0-5-2.243-5-5s2.243-5 5-5 5 2.243 5 5-2.243 5-5 5zm0-9c-2.206 0-4 1.794-4 4s1.794 4 4 4 4-1.794 4-4-1.794-4-4-4z"/><path d="m10 19c-2.404 0-4.664-.936-6.364-2.636s-2.636-3.96-2.636-6.364.936-4.664 2.636-6.364 3.96-2.636 6.364-2.636 4.664.936 6.364 2.636 2.636 3.96 2.636 6.364-.936 4.664-2.636 6.364-3.96 2.636-6.364 2.636zm0-17c-4.411 0-8 3.589-8 8s3.589 8 8 8 8-3.589 8-8-3.589-8-8-8z"/></svg>