<svg height="20" viewBox="0 0 20 20" width="20" xmlns="http://www.w3.org/2000/svg"><path d="m17.071 2.929c-1.889-1.889-4.4-2.929-7.071-2.929s-5.182 1.04-7.071 2.929-2.929 4.4-2.929 7.071 1.04 5.182 2.929 7.071 4.4 2.929 7.071 2.929 5.182-1.04 7.071-2.929 2.929-4.4 2.929-7.071-1.04-5.182-2.929-7.071zm-15.071 5.071c-.233 0-.456.04-.664.114 1.081-2.99 4.581-5.114 7.664-5.114 3.86 0 7 3.14 7 7 0 1.103.897 2 2 2 .233 0 .456-.04.664-.114-1.081 2.99-4.581 5.114-7.664 5.114-3.86 0-7-3.14-7-7 0-1.103-.897-2-2-2zm8-7c4.963 0 9 4.037 9 9 0 .551-.449 1-1 1s-1-.449-1-1c0-2.137-.832-4.146-2.343-5.657s-3.52-2.343-5.657-2.343c-1.955 0-3.977.697-5.637 1.928 1.647-1.798 4.012-2.928 6.637-2.928zm0 18c-4.963 0-9-4.037-9-9 0-.551.449-1 1-1s1 .449 1 1c0 2.137.832 4.146 2.343 5.657s3.52 2.343 5.657 2.343c1.955 0 3.977-.697 5.637-1.928-1.647 1.798-4.012 2.928-6.637 2.928z"/></svg>