<svg height="20" viewBox="0 0 20 20" width="20" xmlns="http://www.w3.org/2000/svg"><path d="m9.5 20c-.276 0-.5-.224-.5-.5v-6.519c-3.351-.256-6-3.065-6-6.481 0-3.584 2.916-6.5 6.5-6.5s6.5 2.916 6.5 6.5c0 3.416-2.649 6.225-6 6.481v6.519c0 .276-.224.5-.5.5zm0-15c-1.93 0-3.5 1.57-3.5 3.5s1.57 3.5 3.5 3.5c3.033 0 5.5-2.467 5.5-5.5s-2.467-5.5-5.5-5.5-5.5 2.467-5.5 5.5c0 1.325.471 2.542 1.255 3.493-.165-.467-.255-.97-.255-1.493 0-2.481 2.019-4.5 4.5-4.5 1.654 0 3 1.346 3 3s-1.346 3-3 3c-.827 0-1.5-.673-1.5-1.5s.673-1.5 1.5-1.5c.276 0 .5.224.5.5s-.224.5-.5.5-.5.224-.5.5.224.5.5.5c1.103 0 2-.897 2-2s-.897-2-2-2z"/></svg>