<svg height="20" viewBox="0 0 20 20" width="20" xmlns="http://www.w3.org/2000/svg"><path d="m18.612 11.154c-.146-.253-.333-.474-.551-.655.706-.591 1.048-1.559.795-2.506s-1.035-1.615-1.943-1.773c.317-.865.129-1.876-.564-2.569s-1.702-.881-2.567-.565c-.048-.28-.146-.552-.292-.805-.326-.565-.852-.969-1.482-1.137-.947-.254-1.916.089-2.507.796-.591-.707-1.56-1.05-2.507-.796s-1.615 1.035-1.773 1.943c-.865-.317-1.876-.129-2.569.564s-.881 1.702-.565 2.567c-.28.048-.552.146-.805.292-.565.326-.969.852-1.137 1.482s-.082 1.288.244 1.852c.146.253.333.474.551.655-.706.591-1.048 1.559-.795 2.506s1.035 1.615 1.943 1.773c-.317.865-.129 1.875.564 2.569.461.461 1.074.715 1.726.715.292 0 .575-.051.841-.149.049.279.146.55.292.803.326.565.852.969 1.482 1.137.21.056.424.084.636.084.423 0 .84-.111 1.217-.328.253-.146.474-.333.655-.551.459.549 1.147.878 1.875.878.209 0 .421-.027.631-.083.947-.254 1.615-1.035 1.773-1.943.272.099.557.15.843.15.625 0 1.25-.238 1.726-.714.461-.461.715-1.074.715-1.726 0-.292-.051-.575-.149-.841.279-.049.55-.146.803-.292.565-.326.969-.852 1.137-1.482s.082-1.288-.244-1.852zm-.722-2.902c.1.372.049.76-.144 1.094-.182.316-.471.546-.816.654h-2.957c-.051-.458-.171-.896-.349-1.303l2.56-1.478c.749-.168 1.506.285 1.707 1.033zm-8.39 5.748c-1.93 0-3.5-1.57-3.5-3.5s1.57-3.5 3.5-3.5 3.5 1.57 3.5 3.5-1.57 3.5-3.5 3.5zm6.142-9.642c.547.547.562 1.429.042 1.994l-2.563 1.48c-.268-.363-.59-.685-.953-.953l1.479-2.562c.565-.52 1.447-.506 1.995.041zm-4.988-2.104c.333-.192.722-.244 1.094-.144s.683.338.875.671c.182.316.238.681.159 1.034l-1.479 2.561c-.407-.178-.844-.299-1.303-.349v-2.956c.108-.346.339-.635.654-.817zm-3.402-.144c.372-.1.76-.048 1.094.144.316.182.546.471.654.816v2.957c-.458.051-.896.171-1.303.349l-1.478-2.56c-.168-.749.285-1.506 1.033-1.707zm-3.894 2.248c.547-.547 1.429-.562 1.994-.042l1.48 2.563c-.363.268-.685.59-.953.953l-2.562-1.479c-.52-.565-.506-1.447.041-1.994zm-2.248 3.894c.1-.372.338-.683.671-.875.316-.182.681-.238 1.034-.159l2.561 1.479c-.178.407-.299.844-.349 1.303h-2.956c-.346-.108-.635-.339-.817-.654-.192-.333-.244-.722-.144-1.094zm0 4.496c-.1-.372-.048-.76.144-1.094.182-.316.471-.546.816-.654h2.957c.051.458.171.896.349 1.303l-2.56 1.478c-.749.168-1.506-.285-1.707-1.033zm2.248 3.894c-.547-.547-.562-1.429-.042-1.994l2.563-1.479c.268.363.59.685.953.953l-1.479 2.562c-.565.52-1.447.506-1.994-.041zm4.988 2.104c-.333.192-.722.244-1.094.144s-.683-.338-.875-.671c-.182-.316-.238-.681-.159-1.034l1.479-2.561c.407.178.844.299 1.303.349v2.956c-.108.346-.339.635-.654.817zm3.402.144c-.372.1-.76.049-1.094-.144-.316-.182-.546-.471-.654-.816v-2.957c.458-.051.896-.171 1.303-.349l1.478 2.56c.168.749-.285 1.506-1.033 1.707zm3.894-2.248c-.547.547-1.429.562-1.994.042l-1.479-2.563c.363-.268.685-.59.953-.953l2.562 1.479c.52.565.506 1.447-.041 1.995zm2.248-3.894c-.1.372-.338.683-.671.875-.316.182-.681.238-1.034.159l-2.561-1.479c.178-.407.299-.844.349-1.303h2.956c.346.108.635.339.817.654.192.333.244.722.144 1.094z"/><path d="m9.5 13c-1.378 0-2.5-1.122-2.5-2.5s1.122-2.5 2.5-2.5 2.5 1.122 2.5 2.5-1.122 2.5-2.5 2.5zm0-4c-.827 0-1.5.673-1.5 1.5s.673 1.5 1.5 1.5 1.5-.673 1.5-1.5-.673-1.5-1.5-1.5z"/></svg>