<svg height="20" viewBox="0 0 20 20" width="20" xmlns="http://www.w3.org/2000/svg"><path d="m15.5 20h-11c-.827 0-1.5-.673-1.5-1.5v-16c0-.827.673-1.5 1.5-1.5h11c.827 0 1.5.673 1.5 1.5v16c0 .827-.673 1.5-1.5 1.5zm-11-18c-.276 0-.5.224-.5.5v16c0 .276.224.5.5.5h11c.276 0 .5-.224.5-.5v-16c0-.276-.224-.5-.5-.5z"/><path d="m10 7c-1.103 0-2-.897-2-2s.897-2 2-2 2 .897 2 2-.897 2-2 2zm0-3c-.551 0-1 .449-1 1s.449 1 1 1 1-.449 1-1-.449-1-1-1z"/><path d="m10 18c-2.757 0-5-2.243-5-5s2.243-5 5-5 5 2.243 5 5-2.243 5-5 5zm0-9c-2.206 0-4 1.794-4 4s1.794 4 4 4 4-1.794 4-4-1.794-4-4-4z"/><path d="m10 15c-1.103 0-2-.897-2-2s.897-2 2-2 2 .897 2 2-.897 2-2 2zm0-3c-.551 0-1 .449-1 1s.449 1 1 1 1-.449 1-1-.449-1-1-1z"/></svg>