<svg height="20" viewBox="0 0 20 20" width="20" xmlns="http://www.w3.org/2000/svg"><path d="m17.5 20h-8c-2.538 0-4.923-.988-6.718-2.782s-2.782-4.18-2.782-6.717c0-2.538.988-4.923 2.782-6.718s4.18-2.783 6.718-2.783 4.923.988 6.718 2.783 2.782 4.18 2.782 6.718v8c0 .827-.673 1.5-1.5 1.5zm-8-18c-4.687 0-8.5 3.813-8.5 8.5s3.813 8.5 8.5 8.5h8c.276 0 .5-.224.5-.5v-8c0-4.687-3.813-8.5-8.5-8.5z"/><path d="m9.5 17c-3.584 0-6.5-2.916-6.5-6.5s2.916-6.5 6.5-6.5 6.5 2.916 6.5 6.5-2.916 6.5-6.5 6.5zm0-12c-3.033 0-5.5 2.467-5.5 5.5s2.467 5.5 5.5 5.5 5.5-2.467 5.5-5.5-2.467-5.5-5.5-5.5z"/><path d="m12.5 10h-2.5v-2.5c0-.276-.224-.5-.5-.5s-.5.224-.5.5v2.5h-2.5c-.276 0-.5.224-.5.5s.224.5.5.5h2.5v2.5c0 .276.224.5.5.5s.5-.224.5-.5v-2.5h2.5c.276 0 .5-.224.5-.5s-.224-.5-.5-.5z"/></svg>