<svg height="20" viewBox="0 0 20 20" width="20" xmlns="http://www.w3.org/2000/svg"><path d="m16.5 4c-.173 0-.341-.09-.433-.25-.138-.239-.056-.545.183-.683l1.732-1c.239-.138.545-.056.683.183s.056.545-.183.683l-1.732 1c-.079.045-.165.067-.25.067z"/><path d="m18.5 17h-1.5v-10.036c1.694-.243 3-1.704 3-3.464 0-1.93-1.57-3.5-3.5-3.5s-3.5 1.57-3.5 3.5c0 1.76 1.306 3.221 3 3.464v10.036h-14.5c-.827 0-1.5.673-1.5 1.5s.673 1.5 1.5 1.5h17c.827 0 1.5-.673 1.5-1.5s-.673-1.5-1.5-1.5zm-4.5-13.5c0-1.378 1.122-2.5 2.5-2.5s2.5 1.122 2.5 2.5-1.122 2.5-2.5 2.5-2.5-1.122-2.5-2.5zm4.5 15.5h-17c-.276 0-.5-.224-.5-.5s.224-.5.5-.5h17c.276 0 .5.224.5.5s-.224.5-.5.5z"/><path d="m11.5 8h-1.5v-.5c0-.827-.673-1.5-1.5-1.5h-2c-.827 0-1.5.673-1.5 1.5v.5h-1.5c-.827 0-1.5.673-1.5 1.5v5c0 .827.673 1.5 1.5 1.5h8c.827 0 1.5-.673 1.5-1.5v-5c0-.827-.673-1.5-1.5-1.5zm-5.5-.5c0-.276.224-.5.5-.5h2c.276 0 .5.224.5.5v.5h-3zm6 7c0 .276-.224.5-.5.5h-8c-.276 0-.5-.224-.5-.5v-5c0-.276.224-.5.5-.5h8c.276 0 .5.224.5.5z"/><path d="m4.5 14c-.276 0-.5-.224-.5-.5v-3c0-.276.224-.5.5-.5s.5.224.5.5v3c0 .276-.224.5-.5.5z"/><path d="m10.5 14c-.276 0-.5-.224-.5-.5v-3c0-.276.224-.5.5-.5s.5.224.5.5v3c0 .276-.224.5-.5.5z"/></svg>