<svg height="20" viewBox="0 0 20 20" width="20" xmlns="http://www.w3.org/2000/svg"><path d="m9.5 20c-2.538 0-4.923-.988-6.718-2.782s-2.782-4.18-2.782-6.717c0-2.538.988-4.923 2.782-6.718s4.18-2.783 6.718-2.783 4.923.988 6.718 2.783 2.782 4.18 2.782 6.718-.988 4.923-2.782 6.717-4.18 2.782-6.718 2.782zm0-18c-4.687 0-8.5 3.813-8.5 8.5s3.813 8.5 8.5 8.5 8.5-3.813 8.5-8.5-3.813-8.5-8.5-8.5z"/><path d="m5.499 15c-.105 0-.21-.033-.3-.1-.221-.166-.265-.479-.099-.7.502-.668 1.159-1.221 1.901-1.6.778-.398 1.619-.599 2.499-.599s1.721.202 2.499.599c.742.379 1.399.932 1.901 1.6.166.221.121.534-.099.7s-.534.121-.7-.099c-.859-1.144-2.172-1.8-3.601-1.8s-2.741.656-3.601 1.8c-.098.131-.248.2-.4.2z"/><path d="m13.234 6.192.49-.245c.247-.123.347-.424.224-.671s-.424-.347-.671-.224l-2 1c-.247.123-.347.424-.224.671.025.049.057.093.094.13-.094.196-.147.415-.147.646 0 .827.673 1.5 1.5 1.5s1.5-.673 1.5-1.5c0-.561-.309-1.05-.766-1.308zm-.734 1.808c-.276 0-.5-.224-.5-.5s.224-.5.5-.5.5.224.5.5-.224.5-.5.5z"/><path d="m7.853 6.854c.037-.037.069-.08.094-.13.123-.247.023-.547-.224-.671l-2-1c-.247-.123-.547-.023-.671.224s-.023.547.224.671l.49.245c-.457.257-.766.747-.766 1.308 0 .827.673 1.5 1.5 1.5s1.5-.673 1.5-1.5c0-.231-.053-.451-.147-.646zm-1.353 1.146c-.276 0-.5-.224-.5-.5s.224-.5.5-.5.5.224.5.5-.224.5-.5.5z"/></svg>