<svg height="20" viewBox="0 0 20 20" width="20" xmlns="http://www.w3.org/2000/svg"><path d="m18.869 19.162-5.943-6.484c1.339-1.401 2.075-3.233 2.075-5.178 0-2.003-.78-3.887-2.197-5.303s-3.3-2.197-5.303-2.197-3.887.78-5.303 2.197-2.197 3.3-2.197 5.303.78 3.887 2.197 5.303 3.3 2.197 5.303 2.197c1.726 0 3.362-.579 4.688-1.645l5.943 6.483c.099.108.233.162.369.162.121 0 .242-.043.338-.131.204-.187.217-.503.031-.706zm-17.869-11.662c0-3.584 2.916-6.5 6.5-6.5s6.5 2.916 6.5 6.5-2.916 6.5-6.5 6.5-6.5-2.916-6.5-6.5z"/></svg>