<svg height="20" viewBox="0 0 20 20" width="20" xmlns="http://www.w3.org/2000/svg"><path d="m16.992 1.411c-.043-.238-.25-.411-.492-.411h-4c-.144 0-.281.062-.376.171s-.138.253-.119.395c.01.075.996 7.49.996 9.434 0 1.682-1.318 3-3 3-1.654 0-3-1.346-3-3 0-1.878.986-9.359.996-9.434.019-.143-.025-.287-.12-.395s-.232-.17-.376-.17h-4c-.242 0-.449.173-.492.411-.041.226-1.008 5.59-1.008 9.589 0 1.047.212 2.075.629 3.055.404.948.98 1.805 1.711 2.546 1.527 1.547 3.537 2.399 5.659 2.399s4.132-.852 5.659-2.399c.732-.741 1.307-1.598 1.711-2.546.418-.98.629-2.008.629-3.055 0-3.999-.967-9.363-1.008-9.589zm-.913.589c.095.564.273 1.662.447 2.989l-3.081.01c-.149-1.243-.291-2.356-.375-2.999zm-12.158 0h3.01c-.083.64-.224 1.75-.371 2.988l-3.087.01c.174-1.331.352-2.432.448-2.998zm6.079 16c-3.794 0-7-3.206-7-7 0-1.568.158-3.385.348-5.001l3.094-.01c-.23 2-.442 4.098-.442 5.011 0 2.206 1.794 4 4 4 2.243 0 4-1.757 4-4 0-.939-.21-3.019-.438-5.002l3.089-.01c.191 1.619.349 3.44.349 5.012 0 3.794-3.206 7-7 7z"/></svg>