<svg height="20" viewBox="0 0 20 20" width="20" xmlns="http://www.w3.org/2000/svg"><path d="m10.5 0h-4c-.276 0-.5.224-.5.5v5.586c-.582.206-1 .762-1 1.414 0 .827.673 1.5 1.5 1.5s1.5-.673 1.5-1.5c0-.652-.418-1.208-1-1.414v-3.086h3.5c.276 0 .5-.224.5-.5v-2c0-.276-.224-.5-.5-.5zm-4 8c-.276 0-.5-.224-.5-.5s.224-.5.5-.5.5.224.5.5-.224.5-.5.5zm3.5-6h-3v-1h3z"/><path d="m19.088 6.945c-.354-.916-.818-1.628-1.38-2.118-.628-.548-1.38-.826-2.234-.826h-6.974c-.276 0-.5.224-.5.5s.224.5.5.5h6.974c2.79 0 3.469 4.236 3.522 8h-15.997v-8h1.5c.276 0 .5-.224.5-.5s-.224-.5-.5-.5h-1.5v-.5c0-.276-.224-.5-.5-.5h-2c-.276 0-.5.224-.5.5v11c0 .276.224.5.5.5h2c.276 0 .5-.224.5-.5v-.5h5v5.5c0 .276.224.5.5.5h3c.276 0 .5-.224.5-.5v-5.5h7.5c.276 0 .5-.224.5-.5 0-2.785-.307-4.99-.912-6.555zm-17.088 7.055h-1v-10h1zm9 5h-2v-5h2z"/></svg>