<svg height="20" viewBox="0 0 20 20" width="20" xmlns="http://www.w3.org/2000/svg"><path d="m19.088 6.945c-.354-.916-.818-1.628-1.38-2.118-.628-.548-1.38-.826-2.234-.826h-12.474v-.5c0-.276-.224-.5-.5-.5h-2c-.276 0-.5.224-.5.5v11c0 .276.224.5.5.5h2c.276 0 .5-.224.5-.5v-.5h5v5.5c0 .276.224.5.5.5h3c.276 0 .5-.224.5-.5v-5.5h7.5c.276 0 .5-.224.5-.5 0-2.785-.307-4.99-.912-6.555zm-17.088 7.055h-1v-10h1zm9 5h-2v-5h2zm-8-6v-8h12.474c2.79 0 3.469 4.236 3.522 8h-15.997z"/><path d="m13.5 7h-5.586c-.206-.582-.762-1-1.414-1-.827 0-1.5.673-1.5 1.5s.673 1.5 1.5 1.5c.652 0 1.208-.418 1.414-1h3.086v3.5c0 .276.224.5.5.5h2c.276 0 .5-.224.5-.5v-4c0-.276-.224-.5-.5-.5zm-7 1c-.276 0-.5-.224-.5-.5s.224-.5.5-.5.5.224.5.5-.224.5-.5.5zm6.5 3h-1v-3h1z"/></svg>