<svg height="20" viewBox="0 0 20 20" width="20" xmlns="http://www.w3.org/2000/svg"><path d="m17.37 15.875c-1.113-.867-2.775-1.348-4.253-1.704-.257-.062-.603-.459-.737-1.017-.071-.294-.169-1.034.446-1.561.439-.376.75-.838.964-1.339.789-.976 1.287-2.004 1.481-3.058.167-.909.111-1.863-.167-2.834-.317-1.11-1.099-2.028-2.261-2.656-.983-.531-2.187-.81-3.304-.764-.741.03-1.404.201-1.917.494-.476.272-.815.644-.998 1.088-.819.108-1.444.578-1.782 1.349-.372.849-.39 2.039-.051 3.351.305 1.181.855 2.278 1.517 3.031.16.497.426.961.867 1.339.609.522.47 1.337.413 1.574-.133.554-.463.945-.704 1.003-1.478.356-3.139.836-4.253 1.704-1.097.854-1.63 2.04-1.63 3.625 0 .276.224.5.5.5h17c.276 0 .5-.224.5-.5 0-1.585-.533-2.77-1.63-3.625zm-11.612-11.601c.231-.528.626-.774 1.242-.774.238 0 .444-.168.49-.402.159-.797 1.183-1.12 2.089-1.157 1.818-.074 4.035.846 4.563 2.696.284.994.295 1.94.03 2.854-.052-.658-.186-1.238-.33-1.629-.137-.37-.373-.862-.842-.862-2.568 0-4.636-.343-5.146-.854-.143-.143-.358-.186-.545-.108s-.309.26-.309.462c0 1.363-.453 2.364-.759 2.611-.121.097-.189.245-.186.4.003.125.004.253.005.386-.513-1.29-.68-2.76-.301-3.623zm-3.737 14.726c.091-1.023.479-1.756 1.224-2.336.766-.597 1.924-1.052 3.872-1.52.66-.159 1.226-.842 1.443-1.742.242-1.006-.032-1.966-.734-2.568-.754-.646-.76-1.769-.766-2.855 0-.09-.001-.182-.002-.274.387-.441.759-1.268.891-2.354.582.239 1.389.411 2.436.521.741.078 1.578.122 2.431.127.173.33.444 1.346.366 2.467-.051.73-.267 1.733-1.008 2.369-.717.615-1.004 1.57-.767 2.554.214.889.807 1.594 1.476 1.755 1.948.469 3.106.923 3.872 1.52.745.58 1.133 1.313 1.224 2.336h-15.958z"/></svg>