<svg height="20" viewBox="0 0 20 20" width="20" xmlns="http://www.w3.org/2000/svg"><path d="m9.5 5c-1.378 0-2.5-1.122-2.5-2.5s1.122-2.5 2.5-2.5 2.5 1.122 2.5 2.5-1.122 2.5-2.5 2.5zm0-4c-.827 0-1.5.673-1.5 1.5s.673 1.5 1.5 1.5 1.5-.673 1.5-1.5-.673-1.5-1.5-1.5z"/><path d="m12.5 6h-6c-.827 0-1.5.673-1.5 1.5v4c0 .827.673 1.5 1.5 1.5.175 0 .343-.031.5-.086v5.586c0 .827.673 1.5 1.5 1.5.384 0 .734-.145 1-.383.266.238.616.383 1 .383.827 0 1.5-.673 1.5-1.5v-5.586c.157.056.325.086.5.086.827 0 1.5-.673 1.5-1.5v-4c0-.827-.673-1.5-1.5-1.5zm.5 5.5c0 .276-.224.5-.5.5s-.5-.224-.5-.5v-3c0-.276-.224-.5-.5-.5s-.5.224-.5.5v10c0 .276-.224.5-.5.5s-.5-.224-.5-.5v-6c0-.276-.224-.5-.5-.5s-.5.224-.5.5v6c0 .276-.224.5-.5.5s-.5-.224-.5-.5v-10c0-.276-.224-.5-.5-.5s-.5.224-.5.5v3c0 .276-.224.5-.5.5s-.5-.224-.5-.5v-4c0-.276.224-.5.5-.5h6c.276 0 .5.224.5.5z"/></svg>