<svg height="20" viewBox="0 0 20 20" width="20" xmlns="http://www.w3.org/2000/svg"><path d="m10 20c-.153 0-.298-.07-.393-.191-.057-.073-1.418-1.814-2.797-4.385-.812-1.513-1.46-2.999-1.925-4.416-.587-1.787-.884-3.472-.884-5.008 0-3.308 2.692-6 6-6 1.244 0 2.437.377 3.451 1.091.226.159.28.471.121.697s-.471.28-.697.121c-.844-.594-1.838-.909-2.875-.909-2.757 0-5 2.243-5 5 0 3.254 1.463 6.664 2.691 8.951.902 1.681 1.809 3.014 2.309 3.71.483-.672 1.346-1.938 2.214-3.533 1.192-2.19 2.642-5.468 2.776-8.649.012-.276.245-.49.521-.479s.49.245.478.521c-.063 1.498-.399 3.132-.998 4.855-.475 1.368-1.117 2.796-1.908 4.246-1.343 2.464-2.636 4.118-2.69 4.187-.095.121-.24.191-.393.191z"/><path d="m10 9c-.128 0-.256-.049-.354-.146l-2.5-2.5c-.195-.195-.195-.512 0-.707s.512-.195.707 0l2.146 2.146 5.146-5.146c.195-.195.512-.195.707 0s.195.512 0 .707l-5.5 5.5c-.098.098-.226.146-.354.146z"/></svg>