<svg height="20" viewBox="0 0 20 20" width="20" xmlns="http://www.w3.org/2000/svg"><path d="m10 9c-1.654 0-3-1.346-3-3s1.346-3 3-3 3 1.346 3 3-1.346 3-3 3zm0-5c-1.103 0-2 .897-2 2s.897 2 2 2 2-.897 2-2-.897-2-2-2z"/><path d="m10 20c-.153 0-.298-.07-.393-.191-.057-.073-1.418-1.814-2.797-4.385-.812-1.513-1.46-2.999-1.925-4.416-.587-1.787-.884-3.472-.884-5.008 0-3.308 2.692-6 6-6s6 2.692 6 6c0 1.536-.298 3.22-.884 5.008-.465 1.417-1.113 2.903-1.925 4.416-1.38 2.571-2.74 4.312-2.797 4.385-.095.121-.24.191-.393.191zm0-19c-2.757 0-5 2.243-5 5 0 3.254 1.463 6.664 2.691 8.951.902 1.681 1.809 3.014 2.309 3.71.502-.699 1.415-2.04 2.318-3.726 1.223-2.283 2.682-5.687 2.682-8.935 0-2.757-2.243-5-5-5z"/><path d="m4.854 16.646c-.195-.195-.512-.195-.707 0l-1.146 1.146v-5.293c0-.276-.224-.5-.5-.5s-.5.224-.5.5v5.293l-1.146-1.146c-.195-.195-.512-.195-.707 0s-.195.512 0 .707l2 2c.098.098.226.146.354.146s.256-.049.354-.146l2-2c.195-.195.195-.512 0-.707z"/></svg>