<svg height="20" viewBox="0 0 20 20" width="20" xmlns="http://www.w3.org/2000/svg"><path d="m10 20c-.153 0-.298-.07-.393-.191-.057-.073-1.418-1.814-2.797-4.385-.812-1.513-1.46-2.999-1.925-4.416-.587-1.787-.884-3.472-.884-5.008 0-3.308 2.692-6 6-6s6 2.692 6 6c0 1.536-.298 3.22-.884 5.008-.465 1.417-1.113 2.903-1.925 4.416-1.38 2.571-2.74 4.312-2.797 4.385-.095.121-.24.191-.393.191zm0-19c-2.757 0-5 2.243-5 5 0 3.254 1.463 6.664 2.691 8.951.902 1.681 1.809 3.014 2.309 3.71.502-.699 1.415-2.04 2.318-3.726 1.223-2.283 2.682-5.687 2.682-8.935 0-2.757-2.243-5-5-5z"/><path d="m13 9.467c-.004-.166-.038-.909-.351-1.659-.214-.514-.514-.927-.891-1.229-.096-.077-.198-.146-.303-.208.338-.358.545-.84.545-1.37 0-1.103-.897-2-2-2s-2 .897-2 2c0 .53.208 1.012.545 1.37-.105.062-.206.131-.303.208-.377.302-.677.716-.891 1.229-.347.833-.351 1.658-.351 1.692 0 .276.224.5.5.5h5 .001c.276 0 .5-.224.5-.5 0-.011 0-.022-.001-.033zm-4-4.467c0-.551.449-1 1-1s1 .449 1 1-.449 1-1 1-1-.449-1-1zm-.95 4c.038-.234.106-.523.224-.808.334-.802.899-1.192 1.726-1.192 1.429 0 1.837 1.268 1.953 2h-3.904z"/></svg>