<svg height="20" viewBox="0 0 20 20" width="20" xmlns="http://www.w3.org/2000/svg"><path d="m17.815 1.112c-.214-.174-.529-.142-.703.073l-1.741 2.143c-.985-1.971-3.022-3.328-5.371-3.328-3.308 0-6 2.692-6 6 0 1.536.298 3.22.884 5.008.367 1.118.848 2.279 1.433 3.462l-2.206 2.715c-.174.214-.142.529.073.703.093.075.204.112.315.112.145 0 .29-.063.388-.185l1.93-2.375c1.377 2.562 2.732 4.296 2.789 4.369.095.121.24.191.393.191s.298-.07.393-.191c.057-.073 1.418-1.814 2.797-4.385.812-1.513 1.46-2.999 1.925-4.416.587-1.787.884-3.472.884-5.008 0-.552-.075-1.087-.216-1.595l2.104-2.589c.174-.214.142-.529-.073-.703zm-12.815 4.888c0-2.757 2.243-5 5-5 2.122 0 3.939 1.329 4.664 3.198l-1.675 2.062c.007-.086.011-.172.011-.26 0-1.654-1.346-3-3-3s-3 1.346-3 3 1.346 3 3 3c.301 0 .591-.045.866-.128l-3.851 4.74c-1.031-2.173-2.014-4.945-2.014-7.613zm5 2c-1.103 0-2-.897-2-2s.897-2 2-2 2 .897 2 2-.897 2-2 2zm5-2c0 3.248-1.458 6.652-2.682 8.935-.903 1.686-1.816 3.027-2.318 3.726-.5-.696-1.407-2.029-2.309-3.71-.062-.115-.124-.234-.187-.355l7.462-9.184c.023.193.035.389.035.587z"/></svg>