<svg height="20" viewBox="0 0 20 20" width="20" xmlns="http://www.w3.org/2000/svg"><path d="m14.5 7c-.827 0-1.5-.673-1.5-1.5s.673-1.5 1.5-1.5 1.5.673 1.5 1.5-.673 1.5-1.5 1.5zm0-2c-.276 0-.5.224-.5.5s.224.5.5.5.5-.224.5-.5-.224-.5-.5-.5z"/><path d="m14.5 13c-.146 0-.285-.064-.38-.175-.032-.037-.79-.926-1.554-2.265-1.039-1.818-1.566-3.521-1.566-5.061 0-1.93 1.57-3.5 3.5-3.5s3.5 1.57 3.5 3.5c0 1.54-.527 3.242-1.566 5.061-.765 1.338-1.523 2.228-1.554 2.265-.095.111-.234.175-.38.175zm0-10c-1.378 0-2.5 1.122-2.5 2.5 0 2.543 1.717 5.139 2.5 6.19.782-1.052 2.5-3.651 2.5-6.19 0-1.378-1.122-2.5-2.5-2.5z"/><path d="m18.5 0h-17c-.827 0-1.5.673-1.5 1.5v17c0 .827.673 1.5 1.5 1.5h17c.827 0 1.5-.673 1.5-1.5v-17c0-.827-.673-1.5-1.5-1.5zm-12 18c-.276 0-.5.224-.5.5v.5h-2v-18h2v.5c0 .276.224.5.5.5s.5-.224.5-.5v-.5h2v18h-2v-.5c0-.276-.224-.5-.5-.5zm-3.5-2h-2v-1h2zm7-1h9v1h-9zm9-13.5v12.5h-9v-13h8.5c.276 0 .5.224.5.5zm-17.5-.5h1.5v13h-2v-12.5c0-.276.224-.5.5-.5zm-.5 17.5v-1.5h2v2h-1.5c-.276 0-.5-.224-.5-.5zm17.5.5h-8.5v-2h9v1.5c0 .276-.224.5-.5.5z"/><path d="m6.5 5c.276 0 .5-.224.5-.5v-1c0-.276-.224-.5-.5-.5s-.5.224-.5.5v1c0 .276.224.5.5.5z"/><path d="m6.5 8c.276 0 .5-.224.5-.5v-1c0-.276-.224-.5-.5-.5s-.5.224-.5.5v1c0 .276.224.5.5.5z"/><path d="m6.5 11c.276 0 .5-.224.5-.5v-1c0-.276-.224-.5-.5-.5s-.5.224-.5.5v1c0 .276.224.5.5.5z"/><path d="m6.5 14c.276 0 .5-.224.5-.5v-1c0-.276-.224-.5-.5-.5s-.5.224-.5.5v1c0 .276.224.5.5.5z"/><path d="m7 15.5c0-.276-.224-.5-.5-.5s-.5.224-.5.5v1c0 .276.224.5.5.5s.5-.224.5-.5z"/></svg>