<svg height="20" viewBox="0 0 20 20" width="20" xmlns="http://www.w3.org/2000/svg"><path d="m18.763 1.075c-.147-.091-.331-.099-.486-.022l-5.776 2.888-5.776-2.888c-.141-.07-.306-.07-.447 0l-6 3c-.169.085-.276.258-.276.447v15c0 .173.09.334.237.425.08.05.171.075.263.075.076 0 .153-.018.224-.053l5.776-2.888 5.776 2.888c.141.07.307.07.447 0l6-3c.169-.085.276-.258.276-.447v-15c0-.173-.09-.334-.237-.425zm-12.763 15.116-5 2.5v-13.882l5-2.5zm1-13.882 5 2.5v13.882l-5-2.5zm11 13.882-5 2.5v-13.882l5-2.5z"/></svg>