<svg height="20" viewBox="0 0 20 20" width="20" xmlns="http://www.w3.org/2000/svg"><path d="m14.795 4.779-1.464-1.063-.559-1.721h-1.809l-1.464-1.063-1.464 1.063h-1.809l-.559 1.721-1.464 1.063.559 1.721-.559 1.721 1.464 1.063.332 1.021v9.195c0 .184.102.354.264.441s.36.077.513-.025l2.723-1.815 2.723 1.815c.084.056.18.084.277.084.081 0 .162-.02.236-.059.163-.087.264-.256.264-.441v-9.195l.332-1.021 1.464-1.063-.559-1.721zm-5.018 12.305c-.168-.112-.387-.112-.555 0l-2.223 1.482v-7.561h1.036l1.464 1.063 1.464-1.063h1.036v7.561l-2.223-1.482zm3.843-9.245-1.139.827-.433 1.334h-.048v.004h-1.361l-1.139.827-1.139-.827h-1.407l-.435-1.339-1.139-.827.435-1.339-.435-1.339 1.139-.827.435-1.339h1.407l1.139-.827 1.139.827h1.407l.435 1.339 1.139.827-.435 1.339.435 1.339z"/><path d="m9.5 9c-.276 0-.5-.224-.5-.5v-3.5h-.5c-.276 0-.5-.224-.5-.5s.224-.5.5-.5h1c.276 0 .5.224.5.5v4c0 .276-.224.5-.5.5z"/></svg>