<svg height="20" viewBox="0 0 20 20" width="20" xmlns="http://www.w3.org/2000/svg"><path d="m19.817 11.113c-.116-.095-.268-.133-.415-.104l-5 1c-.234.047-.402.252-.402.49v2.695c-.293-.124-.633-.195-1-.195-1.122 0-2 .659-2 1.5s.878 1.5 2 1.5 2-.659 2-1.5v-3.59l4-.8v2.085c-.293-.124-.633-.195-1-.195-1.122 0-2 .659-2 1.5s.878 1.5 2 1.5 2-.659 2-1.5v-4c0-.15-.067-.292-.183-.387zm-6.817 5.887c-.61 0-1-.296-1-.5s.39-.5 1-.5 1 .296 1 .5-.39.5-1 .5zm5-1c-.61 0-1-.296-1-.5s.39-.5 1-.5 1 .296 1 .5-.39.5-1 .5z"/><path d="m13.5 11c-.827 0-1.5-.673-1.5-1.5s.673-1.5 1.5-1.5 1.5.673 1.5 1.5-.673 1.5-1.5 1.5zm0-2c-.276 0-.5.224-.5.5s.224.5.5.5.5-.224.5-.5-.224-.5-.5-.5z"/><path d="m16.5 6h-4.5v-3.5c0-.276-.224-.5-.5-.5h-11c-.276 0-.5.224-.5.5v6c0 .276.224.5.5.5h4.5v3.5c0 .276.224.5.5.5h7c.276 0 .5-.224.5-.5s-.224-.5-.5-.5h-.775l-3.187-3.585c-.272-.306-.65-.476-1.039-.466s-.758.199-1.014.519l-.485.606v-2.075h10v3c0 .276.224.5.5.5s.5-.224.5-.5v-3.5c0-.276-.224-.5-.5-.5zm-6.5-1h1v1h-1zm1-1h-1v-1h1zm-10 1h1v1h-1zm1-2v1h-1v-1zm-1 4h1v1h-1zm6.266 2.093c.073-.091.165-.142.259-.144s.189.044.266.131l2.596 2.92h-4.387v-1.325zm-1.766-3.093c-.276 0-.5.224-.5.5v1.5h-2v-5h6v3z"/></svg>