<svg height="20" viewBox="0 0 20 20" width="20" xmlns="http://www.w3.org/2000/svg"><path d="m18.5 7h-17c-.827 0-1.5-.673-1.5-1.5s.673-1.5 1.5-1.5h17c.827 0 1.5.673 1.5 1.5s-.673 1.5-1.5 1.5zm-17-2c-.276 0-.5.224-.5.5s.224.5.5.5h17c.276 0 .5-.224.5-.5s-.224-.5-.5-.5z"/><path d="m18.5 12h-17c-.827 0-1.5-.673-1.5-1.5s.673-1.5 1.5-1.5h17c.827 0 1.5.673 1.5 1.5s-.673 1.5-1.5 1.5zm-17-2c-.276 0-.5.224-.5.5s.224.5.5.5h17c.276 0 .5-.224.5-.5s-.224-.5-.5-.5z"/><path d="m18.5 17h-17c-.827 0-1.5-.673-1.5-1.5s.673-1.5 1.5-1.5h17c.827 0 1.5.673 1.5 1.5s-.673 1.5-1.5 1.5zm-17-2c-.276 0-.5.224-.5.5s.224.5.5.5h17c.276 0 .5-.224.5-.5s-.224-.5-.5-.5z"/></svg>