<svg height="20" viewBox="0 0 20 20" width="20" xmlns="http://www.w3.org/2000/svg"><path d="m14.5 5.5c-.128 0-.256-.049-.354-.146l-2-2c-.195-.195-.195-.512 0-.707s.512-.195.707 0l1.646 1.646 1.646-1.646c.195-.195.512-.195.707 0s.195.512 0 .707l-2 2c-.098.098-.226.146-.354.146z"/><path d="m18.5 0h-17c-.827 0-1.5.673-1.5 1.5v5c0 .827.673 1.5 1.5 1.5h2.5v10.5c0 .827.673 1.5 1.5 1.5h13c.827 0 1.5-.673 1.5-1.5v-17c0-.827-.673-1.5-1.5-1.5zm-17.5 6.5v-5c0-.276.224-.5.5-.5h17c.276 0 .5.224.5.5v5c0 .276-.224.5-.5.5h-17c-.276 0-.5-.224-.5-.5zm17.5 12.5h-13c-.276 0-.5-.224-.5-.5v-10.5h13.5c.175 0 .343-.031.5-.086v10.586c0 .276-.224.5-.5.5z"/><path d="m16.5 11h-9c-.276 0-.5-.224-.5-.5s.224-.5.5-.5h9c.276 0 .5.224.5.5s-.224.5-.5.5z"/><path d="m16.5 14h-9c-.276 0-.5-.224-.5-.5s.224-.5.5-.5h9c.276 0 .5.224.5.5s-.224.5-.5.5z"/><path d="m16.5 17h-9c-.276 0-.5-.224-.5-.5s.224-.5.5-.5h9c.276 0 .5.224.5.5s-.224.5-.5.5z"/></svg>