<svg height="20" viewBox="0 0 20 20" width="20" xmlns="http://www.w3.org/2000/svg"><path d="m16 10.5c0-.276-.224-.5-.5-.5s-.5.224-.5.5c0 3.033-2.467 5.5-5.5 5.5-1.231 0-2.369-.406-3.286-1.092l1.25-1.563c.574.412 1.277.655 2.036.655 1.93 0 3.5-1.57 3.5-3.5v-4.075l2.89-3.613c.172-.216.138-.53-.078-.703s-.53-.138-.703.078l-2.11 2.637v-.325c0-1.93-1.57-3.5-3.5-3.5s-3.5 1.57-3.5 3.5v6c0 .81.277 1.556.74 2.15l-1.271 1.588c-.911-.982-1.469-2.296-1.469-3.738 0-.276-.224-.5-.5-.5s-.5.224-.5.5c0 1.758.702 3.354 1.839 4.526l-1.73 2.162c-.172.216-.138.53.078.703.092.074.202.11.312.11.147 0 .292-.064.391-.188l1.699-2.124c.964.728 2.136 1.195 3.411 1.292v2.019h-1.5c-.276 0-.5.224-.5.5s.224.5.5.5h4c.276 0 .5-.224.5-.5s-.224-.5-.5-.5h-1.5v-2.019c3.351-.256 6-3.065 6-6.481zm-4 0c0 1.378-1.122 2.5-2.5 2.5-.523 0-1.008-.162-1.41-.437l3.91-4.888zm-5 0v-6c0-1.378 1.122-2.5 2.5-2.5s2.5 1.122 2.5 2.5v1.575l-4.61 5.763c-.246-.387-.39-.846-.39-1.338z"/></svg>