<svg height="20" viewBox="0 0 20 20" width="20" xmlns="http://www.w3.org/2000/svg"><path d="m2.5 5c-.132 0-.261-.053-.353-.147s-.147-.222-.147-.353.053-.261.147-.353c.093-.093.222-.147.353-.147s.26.053.353.147c.093.093.147.222.147.353s-.053.261-.147.353c-.093.093-.222.147-.353.147z"/><path d="m4.5 3c-.132 0-.261-.053-.353-.147s-.147-.222-.147-.353.053-.261.147-.353c.093-.093.222-.147.353-.147s.261.053.353.147c.093.093.147.222.147.353s-.053.261-.147.353c-.093.093-.222.147-.353.147z"/><path d="m2.5 7c-.132 0-.26-.053-.353-.147s-.147-.222-.147-.353.053-.26.147-.353.222-.147.353-.147.26.053.353.147c.093.093.147.222.147.353s-.053.26-.147.353c-.093.093-.222.147-.353.147z"/><path d="m4.5 5c-.132 0-.261-.053-.353-.147s-.147-.222-.147-.353.053-.26.147-.353.222-.147.353-.147.261.053.353.147c.093.093.147.222.147.353s-.053.261-.147.353c-.093.093-.222.147-.353.147z"/><path d="m6.5 3c-.132 0-.26-.053-.353-.147s-.147-.222-.147-.353.053-.26.147-.353.222-.147.353-.147.26.053.353.147c.093.093.147.222.147.353s-.053.26-.147.353c-.093.093-.222.147-.353.147z"/><path d="m4.5 9c-.132 0-.261-.053-.353-.147s-.147-.222-.147-.353.053-.261.147-.353c.093-.093.222-.147.353-.147s.26.053.353.147c.093.093.147.222.147.353s-.053.261-.147.353c-.093.093-.222.147-.353.147z"/><path d="m6.5 7c-.132 0-.26-.053-.353-.147s-.147-.222-.147-.353.053-.26.147-.353.222-.147.353-.147.26.053.353.147c.093.093.147.222.147.353s-.053.26-.147.353c-.093.093-.222.147-.353.147z"/><path d="m8.5 5c-.132 0-.261-.053-.353-.147s-.147-.222-.147-.353.053-.26.147-.353c.093-.093.222-.147.353-.147s.26.053.353.147c.093.093.147.222.147.353s-.053.261-.147.353c-.093.093-.222.147-.353.147z"/><path d="m4.5 7c-.132 0-.26-.053-.353-.147s-.147-.222-.147-.353.053-.261.147-.353c.093-.093.222-.147.353-.147s.261.053.353.147c.093.093.147.222.147.353s-.053.261-.147.353c-.093.093-.222.147-.353.147z"/><path d="m6.5 5c-.132 0-.261-.053-.353-.147s-.147-.222-.147-.353.053-.261.147-.353c.093-.093.222-.147.353-.147s.261.053.353.147c.093.093.147.222.147.353s-.053.26-.147.353c-.093.093-.222.147-.353.147z"/><path d="m8.5 3c-.132 0-.26-.053-.353-.147s-.147-.222-.147-.353.053-.26.147-.353c.093-.093.222-.147.353-.147s.261.053.353.147c.093.093.147.222.147.353s-.053.261-.147.353c-.093.093-.222.147-.353.147z"/><path d="m2.5 9c-.132 0-.261-.053-.353-.147s-.147-.222-.147-.353.053-.261.147-.353c.093-.093.222-.147.353-.147s.26.053.353.147c.093.093.147.222.147.353s-.053.26-.147.353c-.093.093-.222.147-.353.147z"/><path d="m19.89 16.188-7.899-9.873c.005-.104.008-.209.008-.314 0-3.308-2.692-6-6-6s-6 2.692-6 6c0 1.982.966 3.742 2.452 4.836.025.023.052.042.081.059.98.696 2.176 1.105 3.466 1.105.105 0 .21-.003.314-.008l9.873 7.899c.09.072.2.11.312.11.042 0 .083-.005.125-.016.776-.2 1.509-.628 2.12-1.239s1.039-1.344 1.239-2.12c.039-.152.004-.314-.094-.437zm-18.89-10.188c0-2.757 2.243-5 5-5 1.602 0 3.03.757 3.946 1.933-.427 3.677-3.339 6.587-7.013 7.013-1.176-.916-1.933-2.344-1.933-3.946zm3.301 4.703c3.122-.823 5.578-3.277 6.402-6.401.192.531.297 1.102.297 1.699 0 2.757-2.243 5-5 5-.596 0-1.168-.105-1.699-.297zm12.307 8.243-8.968-7.174c1.992-.567 3.565-2.14 4.132-4.132l7.174 8.968c-.361 1.061-1.277 1.977-2.338 2.338z"/></svg>