<svg height="20" viewBox="0 0 20 20" width="20" xmlns="http://www.w3.org/2000/svg"><path d="m18.5 13h-5.099c-.001 0-.003 0-.004 0h-1.897c-.276 0-.5.224-.5.5s.224.5.5.5h1.244c-.626 1.77-2.322 3-4.244 3-2.481 0-4.5-2.019-4.5-4.5 0-2.251 1.637-4.131 3.841-4.452l2.099 2.099c.283.283.659.438 1.061.438s.778-.156 1.061-.438l.586-.586c.585-.585.585-1.536 0-2.121l-5.586-5.586c-.283-.283-.659-.438-1.061-.438-.116 0-.229.013-.339.038l-1.307-1.307c-.195-.195-.512-.195-.707 0l-1 1c-.195.195-.195.512 0 .707l1.307 1.307c-.025.11-.038.223-.038.339 0 .401.156.778.438 1.061l.338.338c-1.273.638-2.365 1.584-3.185 2.768-.986 1.424-1.507 3.095-1.507 4.833 0 2.531 1.128 4.901 3.023 6.5h-1.523c-.276 0-.5.224-.5.5s.224.5.5.5h3.118.005s.003 0 .005 0h7.742.005s.004 0 .006 0h3.118c.276 0 .5-.224.5-.5s-.224-.5-.5-.5h-1.524c1.507-1.273 2.542-3.044 2.891-5h1.632c.276 0 .5-.224.5-.5s-.224-.5-.5-.5zm-12.146-10.439 5.586 5.586c.195.195.195.512 0 .707l-.586.586c-.094.094-.219.145-.354.145s-.26-.052-.354-.145l-4.73-4.73c-.001-.001-.003-.003-.004-.004l-.852-.852c-.094-.094-.145-.219-.145-.354s.052-.26.145-.354l.586-.586c.094-.094.219-.145.354-.145s.26.052.354.145zm-2.354-1.354.793.793-.293.293-.793-.793zm8.242 17.793h-7.487c-2.32-1.339-3.756-3.818-3.756-6.5 0-2.99 1.733-5.644 4.442-6.851l1.558 1.558c-.982.278-1.873.826-2.571 1.594-.921 1.014-1.429 2.327-1.429 3.698 0 3.033 2.467 5.5 5.5 5.5 1.276 0 2.52-.447 3.502-1.259.862-.713 1.488-1.675 1.79-2.741h2.057c-.426 2.09-1.742 3.924-3.606 5z"/></svg>