<svg height="20" viewBox="0 0 20 20" width="20" xmlns="http://www.w3.org/2000/svg"><path d="m10.339 20c-2.762 0-5.358-1.076-7.311-3.028s-3.028-4.549-3.028-7.311 1.075-5.358 3.028-7.311c1.016-1.016 2.205-1.795 3.534-2.316.198-.077.423-.022.561.139s.161.391.056.575c-.946 1.652-1.334 3.609-1.093 5.509.248 1.96 1.12 3.737 2.52 5.138 1.671 1.671 3.892 2.591 6.254 2.591 1.542 0 3.06-.402 4.391-1.164.184-.105.415-.083.576.055s.216.363.139.561c-.521 1.329-1.3 2.518-2.316 3.534-1.953 1.953-4.549 3.028-7.311 3.028zm-4.652-18.44c-.709.407-1.362.908-1.951 1.497-1.764 1.764-2.735 4.109-2.735 6.604s.971 4.84 2.735 6.604 4.109 2.735 6.603 2.735 4.839-.971 6.603-2.735c.588-.589 1.089-1.241 1.496-1.95-1.135.441-2.35.671-3.578.671-2.63 0-5.103-1.024-6.962-2.884-1.559-1.559-2.529-3.537-2.805-5.719-.206-1.631.004-3.3.594-4.822z"/></svg>