<svg height="20" viewBox="0 0 20 20" width="20" xmlns="http://www.w3.org/2000/svg"><path d="m9.5 4c-3.033 0-5.5 2.467-5.5 5.5v5c0 3.033 2.467 5.5 5.5 5.5s5.5-2.467 5.5-5.5v-5c0-3.033-2.467-5.5-5.5-5.5zm4.472 5h-3.972v-3.972c2.083.231 3.741 1.889 3.972 3.972zm-4.972-3.972v3.972h-3.972c.231-2.083 1.889-3.741 3.972-3.972zm.5 13.972c-2.481 0-4.5-2.019-4.5-4.5v-4.5h9v4.5c0 2.481-2.019 4.5-4.5 4.5z"/><path d="m5.5 3c-.276 0-.5-.224-.5-.5v-2c0-.276.224-.5.5-.5s.5.224.5.5v2c0 .276-.224.5-.5.5z"/><path d="m2.5 6h-2c-.276 0-.5-.224-.5-.5s.224-.5.5-.5h2c.276 0 .5.224.5.5s-.224.5-.5.5z"/><path d="m3.5 4c-.128 0-.256-.049-.354-.146l-2-2c-.195-.195-.195-.512 0-.707s.512-.195.707 0l2 2c.195.195.195.512 0 .707-.098.098-.226.146-.354.146z"/><path d="m13.5 3c-.276 0-.5-.224-.5-.5v-2c0-.276.224-.5.5-.5s.5.224.5.5v2c0 .276-.224.5-.5.5z"/><path d="m18.5 6h-2c-.276 0-.5-.224-.5-.5s.224-.5.5-.5h2c.276 0 .5.224.5.5s-.224.5-.5.5z"/><path d="m15.5 4c-.128 0-.256-.049-.354-.146-.195-.195-.195-.512 0-.707l2-2c.195-.195.512-.195.707 0s.195.512 0 .707l-2 2c-.098.098-.226.146-.354.146z"/></svg>