<svg height="20" viewBox="0 0 20 20" width="20" xmlns="http://www.w3.org/2000/svg"><path d="m19.496 5.029c-.26-.092-.546.044-.638.305-.352.997-1.3 1.667-2.358 1.667-1.365 0-2.294-1.299-2.507-2.582-.187-1.129-.69-2.192-1.417-2.994-.845-.932-1.909-1.424-3.076-1.424-2.319 0-4.234 1.764-4.474 4.021-2.811.241-5.026 2.606-5.026 5.479v5c0 3.033 2.467 5.5 5.5 5.5s5.5-2.467 5.5-5.5v-5c0-2.853-2.184-5.206-4.968-5.474.232-1.706 1.699-3.026 3.468-3.026 1.913 0 3.212 1.802 3.507 3.582.145.878.534 1.701 1.095 2.317.655.72 1.485 1.101 2.398 1.101 1.481 0 2.807-.938 3.301-2.333.092-.26-.044-.546-.305-.638zm-14.496-.001v3.972h-3.972c.231-2.083 1.889-3.741 3.972-3.972zm.5 13.972c-2.481 0-4.5-2.019-4.5-4.5v-4.5h9v4.5c0 2.481-2.019 4.5-4.5 4.5zm4.472-10h-3.972v-3.972c2.083.231 3.741 1.889 3.972 3.972z"/></svg>