<svg height="20" viewBox="0 0 20 20" width="20" xmlns="http://www.w3.org/2000/svg"><path d="m18.354 10.146-3-3c-.195-.195-.512-.195-.707 0s-.195.512 0 .707l2.146 2.146h-6.793v-6.793l2.146 2.146c.098.098.226.146.354.146s.256-.049.354-.146c.195-.195.195-.512 0-.707l-3-3c-.195-.195-.512-.195-.707 0l-3 3c-.195.195-.195.512 0 .707s.512.195.707 0l2.146-2.146v6.793h-6.793l2.146-2.146c.195-.195.195-.512 0-.707s-.512-.195-.707 0l-3 3c-.195.195-.195.512 0 .707l3 3c.098.098.226.146.354.146s.256-.049.354-.146c.195-.195.195-.512 0-.707l-2.146-2.146h6.793v6.793l-2.146-2.146c-.195-.195-.512-.195-.707 0s-.195.512 0 .707l3 3c.098.098.226.146.354.146s.256-.049.354-.146l3-3c.195-.195.195-.512 0-.707s-.512-.195-.707 0l-2.146 2.146v-6.793h6.793l-2.146 2.146c-.195.195-.195.512 0 .707.098.098.226.146.354.146s.256-.049.354-.146l3-3c.195-.195.195-.512 0-.707z"/></svg>