<svg height="20" viewBox="0 0 20 20" width="20" xmlns="http://www.w3.org/2000/svg"><path d="m19.82 1.116c-.114-.095-.264-.135-.41-.108l-11 2c-.238.043-.411.25-.411.492v11.399c-.136-.092-.286-.179-.448-.26-.824-.412-1.907-.639-3.052-.639s-2.228.227-3.052.639c-.934.467-1.448 1.128-1.448 1.861s.514 1.395 1.448 1.861c.824.412 1.907.639 3.052.639s2.228-.227 3.052-.639c.934-.467 1.448-1.128 1.448-1.861v-10.084l10-1.847v8.33c-.136-.092-.286-.179-.448-.26-.824-.412-1.907-.639-3.052-.639s-2.228.227-3.052.639c-.934.467-1.448 1.128-1.448 1.861s.514 1.395 1.448 1.861c.824.412 1.907.639 3.052.639s2.228-.227 3.052-.639c.934-.467 1.448-1.128 1.448-1.861v-13c0-.148-.066-.289-.18-.384zm-15.32 16.884c-2.003 0-3.5-.792-3.5-1.5s1.497-1.5 3.5-1.5 3.5.792 3.5 1.5-1.497 1.5-3.5 1.5zm4.5-12.601v-1.482l10-1.818v1.453zm6.5 10.601c-2.003 0-3.5-.792-3.5-1.5s1.497-1.5 3.5-1.5 3.5.792 3.5 1.5-1.497 1.5-3.5 1.5z"/></svg>