<svg height="20" viewBox="0 0 20 20" width="20" xmlns="http://www.w3.org/2000/svg"><path d="m18.379 15.015c-.386.097-.747.146-1.073.146-1.277 0-1.936-.755-2.633-1.553-.657-.753-1.402-1.607-2.673-1.607-1.042 0-1.962.534-2.5 1.344-.538-.809-1.458-1.344-2.5-1.344-1.271 0-2.016.854-2.673 1.607-.697.799-1.355 1.553-2.633 1.553-.326 0-.686-.049-1.073-.146-.2-.05-.411.028-.53.197s-.122.393-.007.565c1.922 2.884 4.524 3.195 5.554 3.195.551 0 1.078-.081 1.525-.235 1.015-.35 1.843-1.054 2.337-1.917.494.863 1.322 1.568 2.337 1.917.447.154.974.235 1.525.235 1.029 0 3.632-.311 5.554-3.195.115-.172.112-.397-.007-.565s-.33-.247-.53-.197zm-11.542 2.776c-.343.118-.758.181-1.199.181-.744 0-2.464-.197-3.981-1.812h.037c1.732 0 2.649-1.051 3.386-1.896.684-.784 1.143-1.265 1.92-1.265 1.103 0 2 .897 2 2 0 1.185-.91 2.359-2.163 2.791zm6.525.181c-.441 0-.856-.063-1.199-.181-1.253-.432-2.163-1.606-2.163-2.791 0-1.103.897-2 2-2 .777 0 1.235.481 1.92 1.265.737.845 1.654 1.896 3.386 1.896h.037c-1.518 1.615-3.237 1.812-3.981 1.812z"/><path d="m.5 6h.5c0 2.206 1.794 4 4 4s4-1.794 4-4v-.5c0-.276.224-.5.5-.5s.5.224.5.5v.5c0 2.206 1.794 4 4 4s4-1.794 4-4h.5c.276 0 .5-.224.5-.5s-.224-.5-.5-.5h-.627c-.445-1.723-2.013-3-3.873-3-1.594 0-2.973.937-3.615 2.29-.248-.182-.554-.29-.885-.29s-.636.108-.885.29c-.642-1.352-2.021-2.29-3.615-2.29-1.86 0-3.428 1.277-3.873 3h-.627c-.276 0-.5.224-.5.5s.224.5.5.5zm13.5-3c1.654 0 3 1.346 3 3s-1.346 3-3 3-3-1.346-3-3 1.346-3 3-3zm-9 0c1.654 0 3 1.346 3 3s-1.346 3-3 3-3-1.346-3-3 1.346-3 3-3z"/></svg>