<svg height="20" viewBox="0 0 20 20" width="20" xmlns="http://www.w3.org/2000/svg"><path d="m9.5 20c-2.538 0-4.923-.988-6.718-2.782s-2.782-4.18-2.782-6.717c0-2.538.988-4.923 2.782-6.718s4.18-2.783 6.718-2.783 4.923.988 6.718 2.783 2.782 4.18 2.782 6.718-.988 4.923-2.782 6.717-4.18 2.782-6.718 2.782zm0-18c-4.687 0-8.5 3.813-8.5 8.5s3.813 8.5 8.5 8.5 8.5-3.813 8.5-8.5-3.813-8.5-8.5-8.5z"/><path d="m6.5 8c-.827 0-1.5-.673-1.5-1.5s.673-1.5 1.5-1.5 1.5.673 1.5 1.5-.673 1.5-1.5 1.5zm0-2c-.276 0-.5.224-.5.5s.224.5.5.5.5-.224.5-.5-.224-.5-.5-.5z"/><path d="m12.5 8c-.827 0-1.5-.673-1.5-1.5s.673-1.5 1.5-1.5 1.5.673 1.5 1.5-.673 1.5-1.5 1.5zm0-2c-.276 0-.5.224-.5.5s.224.5.5.5.5-.224.5-.5-.224-.5-.5-.5z"/><path d="m15.923 12.233c-.111-.175-.318-.264-.521-.224-.187.037-.368.056-.536.056-.872 0-1.402-.503-1.962-1.036-.533-.506-1.084-1.03-1.903-1.03-.597 0-1.133.263-1.5.679-.367-.416-.903-.679-1.5-.679-.819 0-1.37.524-1.903 1.03-.561.533-1.09 1.036-1.962 1.036-.169 0-.349-.019-.536-.056-.203-.041-.411.048-.521.224s-.101.401.023.567c1.157 1.543 2.642 1.867 3.685 1.867.621 0 1.115-.117 1.355-.187.531-.154 1.018-.542 1.36-1.028.343.486.83.873 1.36 1.028.24.07.734.187 1.355.187 1.042 0 2.528-.324 3.685-1.867.124-.166.134-.391.023-.567zm-8.063 1.287c-.188.055-.579.147-1.076.147-.585 0-1.349-.131-2.069-.654.935-.179 1.556-.768 2.07-1.258.492-.468.815-.755 1.214-.755.551 0 1 .449 1 1 0 .611-.554 1.349-1.14 1.52zm4.355.147c-.497 0-.887-.092-1.076-.147-.586-.17-1.14-.909-1.14-1.52 0-.551.449-1 1-1 .4 0 .722.287 1.214.755.515.489 1.135 1.079 2.07 1.257-.721.523-1.485.654-2.069.654z"/></svg>