<svg height="20" viewBox="0 0 20 20" width="20" xmlns="http://www.w3.org/2000/svg"><path d="m10.834 5.128c-.205-.185-.521-.168-.706.037l-1.128 1.254v-2.169c0-.72-.427-1.043-.85-1.043-.247 0-.494.104-.736.309l-4.098 3.483h-1.816c-.827 0-1.5.673-1.5 1.5v4c0 .827.673 1.5 1.5 1.5h.677l-1.049 1.166c-.185.205-.168.521.037.706.096.086.215.128.334.128.137 0 .273-.056.372-.166l1.562-1.735 3.981 3.384c.241.205.489.309.736.309.272 0 .516-.132.67-.362.119-.179.18-.408.18-.68v-8.836l1.872-2.08c.185-.205.168-.521-.037-.706zm-2.834-.797v3.199l-4 4.444v-4.244l4-3.4zm-7 8.169v-4c0-.276.224-.5.5-.5h1.5v5h-1.5c-.276 0-.5-.224-.5-.5zm7 4.169-3.898-3.313 3.898-4.331z"/></svg>