<svg height="20" viewBox="0 0 20 20" width="20" xmlns="http://www.w3.org/2000/svg"><path d="m16.218 3.782c-1.794-1.794-4.18-2.782-6.718-2.782s-4.923.988-6.717 2.782-2.782 4.18-2.782 6.717c0 2.538.988 4.923 2.782 6.717s4.18 2.782 6.717 2.782 4.923-.988 6.718-2.782c1.794-1.794 2.782-4.18 2.782-6.717s-.988-4.923-2.782-6.717zm-1.226 6.218c-.032-1.072-.164-2.111-.39-3.083.358.145.699.307 1.018.484 1.309.727 2.116 1.636 2.324 2.598h-2.953zm-1 0h-3.992v-3.992c1.227.038 2.405.217 3.471.521.305 1.066.483 2.243.521 3.471zm-3.992-4.992v-2.953c.963.208 1.871 1.015 2.598 2.324.177.319.339.66.484 1.018-.972-.226-2.011-.358-3.083-.389zm-1-2.954v2.953c-1.072.032-2.111.164-3.083.389.145-.358.307-.699.484-1.018.727-1.309 1.636-2.116 2.598-2.324zm0 3.954v3.992h-3.992c.038-1.227.217-2.405.521-3.471 1.066-.305 2.243-.483 3.471-.521zm-4.992 3.992h-2.953c.208-.963 1.015-1.871 2.324-2.598.319-.177.66-.339 1.018-.484-.226.972-.358 2.011-.389 3.083zm0 1c.032 1.072.164 2.111.389 3.083-.358-.145-.699-.307-1.018-.484-1.309-.727-2.116-1.636-2.324-2.598h2.953zm1 0h3.992v3.992c-1.227-.038-2.405-.217-3.471-.521-.305-1.066-.483-2.243-.521-3.471zm3.992 4.992v2.953c-.963-.208-1.871-1.015-2.598-2.324-.177-.319-.339-.66-.484-1.018.972.226 2.011.358 3.083.39zm1 2.954v-2.953c1.072-.032 2.111-.164 3.083-.39-.145.358-.307.699-.484 1.018-.727 1.309-1.636 2.116-2.598 2.324zm0-3.954v-3.992h3.992c-.038 1.227-.217 2.405-.521 3.471-1.066.305-2.243.483-3.471.521zm4.992-3.992h2.953c-.208.963-1.015 1.871-2.324 2.598-.319.177-.66.339-1.018.484.226-.972.358-2.011.389-3.083zm2.44-3.555c-.378-.33-.821-.638-1.325-.918-.56-.311-1.177-.578-1.837-.797-.22-.66-.486-1.277-.797-1.837-.28-.504-.588-.947-.918-1.325 2.234.863 4.014 2.644 4.877 4.877zm-10.987-4.877c-.33.378-.638.821-.918 1.325-.311.56-.578 1.177-.797 1.837-.66.22-1.277.486-1.837.797-.504.28-.947.588-1.325.918.863-2.234 2.644-4.014 4.877-4.877zm-4.877 10.987c.378.33.821.638 1.325.918.56.311 1.177.578 1.837.797.22.66.486 1.277.797 1.837.28.504.588.947.918 1.325-2.234-.863-4.014-2.644-4.877-4.877zm10.987 4.877c.33-.378.638-.821.918-1.325.311-.56.578-1.177.797-1.837.66-.22 1.277-.486 1.837-.797.504-.28.947-.588 1.325-.918-.863 2.234-2.644 4.014-4.877 4.877z"/></svg>