<svg height="20" viewBox="0 0 20 20" width="20" xmlns="http://www.w3.org/2000/svg"><path d="m16.218 3.782c-1.794-1.794-4.18-2.782-6.718-2.782-.276 0-.5.224-.5.5v8.5h-8.5c-.276 0-.5.224-.5.5 0 2.538.988 4.923 2.783 6.718s4.18 2.782 6.717 2.782 4.923-.988 6.718-2.782c1.794-1.794 2.782-4.18 2.782-6.717s-.988-4.923-2.782-6.718zm-9.816 12.839c-.177-.319-.339-.66-.484-1.018.972.226 2.011.358 3.083.389v2.953c-.963-.208-1.871-1.015-2.598-2.324zm3.598 2.325v-2.953c1.072-.032 2.111-.164 3.083-.39-.145.358-.307.699-.484 1.018-.727 1.309-1.636 2.116-2.598 2.324zm0-3.954v-3.992h3.992c-.038 1.227-.217 2.405-.521 3.471-1.066.305-2.243.483-3.471.521zm4.992-4.992c-.032-1.072-.164-2.111-.389-3.083.358.145.699.307 1.018.484 1.309.727 2.116 1.636 2.324 2.598h-2.953zm0 1h2.953c-.208.963-1.015 1.871-2.324 2.598-.319.177-.66.339-1.018.484.226-.972.358-2.011.39-3.083zm2.44-3.555c-.378-.33-.821-.638-1.325-.918-.56-.311-1.177-.578-1.837-.797-.22-.66-.486-1.277-.797-1.837-.28-.504-.588-.947-.918-1.325 2.234.863 4.014 2.644 4.877 4.877zm-4.834-3.066c.177.319.339.66.484 1.018-.972-.226-2.011-.358-3.083-.389v-2.953c.963.208 1.871 1.015 2.598 2.324zm-2.598 1.629c1.227.038 2.405.217 3.471.521.305 1.066.483 2.243.521 3.471h-3.992zm-1 8.984c-1.227-.038-2.405-.217-3.471-.521-.305-1.066-.483-2.243-.521-3.471h3.992zm-4.603-.909c-.358-.145-.699-.307-1.018-.484-1.309-.727-2.116-1.636-2.324-2.598h2.953c.032 1.072.164 2.111.389 3.083zm-2.829-.528c.378.33.821.638 1.325.918.56.311 1.177.578 1.837.797.22.66.486 1.277.797 1.837.28.504.588.947.918 1.325-2.234-.863-4.014-2.644-4.877-4.877zm10.987 4.877c.33-.378.638-.821.918-1.325.311-.56.578-1.177.797-1.837.66-.22 1.277-.486 1.837-.797.504-.28.947-.588 1.325-.918-.863 2.234-2.644 4.014-4.877 4.877z"/><path d="m7 3.086v-.586c0-1.378-1.122-2.5-2.5-2.5s-2.5 1.122-2.5 2.5v.586c-.582.206-1 .762-1 1.414v3c0 .827.673 1.5 1.5 1.5h4c.827 0 1.5-.673 1.5-1.5v-3c0-.652-.418-1.208-1-1.414zm-2.5-2.086c.827 0 1.5.673 1.5 1.5v.5h-3v-.5c0-.827.673-1.5 1.5-1.5zm2.5 6.5c0 .276-.224.5-.5.5h-4c-.276 0-.5-.224-.5-.5v-3c0-.276.224-.5.5-.5h4c.276 0 .5.224.5.5z"/></svg>