<svg height="20" viewBox="0 0 20 20" width="20" xmlns="http://www.w3.org/2000/svg"><path d="m3 3.5c0 .276-.224.5-.5.5s-.5-.224-.5-.5.224-.5.5-.5.5.224.5.5z"/><path d="m5 3.5c0 .276-.224.5-.5.5s-.5-.224-.5-.5.224-.5.5-.5.5.224.5.5z"/><path d="m7 3.5c0 .276-.224.5-.5.5s-.5-.224-.5-.5.224-.5.5-.5.5.224.5.5z"/><path d="m18.5 1h-17c-.827 0-1.5.673-1.5 1.5v12c0 .276.224.5.5.5s.5-.224.5-.5v-8.5h7.5c.827 0 1.5-.673 1.5-1.5 0-.276.224-.5.5-.5h5c.276 0 .5.224.5.5 0 .827.673 1.5 1.5 1.5h1.5v11.5c0 .276-.224.5-.5.5h-14c-.276 0-.5.224-.5.5s.224.5.5.5h14c.827 0 1.5-.673 1.5-1.5v-15c0-.827-.673-1.5-1.5-1.5zm-1 4c-.276 0-.5-.224-.5-.5 0-.827-.673-1.5-1.5-1.5h-5c-.827 0-1.5.673-1.5 1.5 0 .276-.224.5-.5.5h-7.5v-2.5c0-.276.224-.5.5-.5h17c.276 0 .5.224.5.5v2.5z"/><path d="m7.5 11h-3c-.276 0-.5.224-.5.5s.224.5.5.5h1.793l-5.146 5.146c-.195.195-.195.512 0 .707.098.098.226.146.354.146s.256-.049.354-.146l5.146-5.146v1.793c0 .276.224.5.5.5s.5-.224.5-.5v-3c0-.276-.224-.5-.5-.5z"/></svg>