<svg height="20" viewBox="0 0 20 20" width="20" xmlns="http://www.w3.org/2000/svg"><path d="m14.5 14h-6c-.276 0-.5-.224-.5-.5v-4c0-.276.224-.5.5-.5h6c.276 0 .5.224.5.5v4c0 .276-.224.5-.5.5zm-5.5-1h5v-3h-5z"/><path d="m6.5 10h-3c-.276 0-.5-.224-.5-.5s.224-.5.5-.5h3c.276 0 .5.224.5.5s-.224.5-.5.5z"/><path d="m6.5 12h-3c-.276 0-.5-.224-.5-.5s.224-.5.5-.5h3c.276 0 .5.224.5.5s-.224.5-.5.5z"/><path d="m6.5 14h-3c-.276 0-.5-.224-.5-.5s.224-.5.5-.5h3c.276 0 .5.224.5.5s-.224.5-.5.5z"/><path d="m19.5 6c-.276 0-.5.224-.5.5v9c0 .276-.224.5-.5.5h-17c-.276 0-.5-.224-.5-.5v-10c0-.276.224-.5.5-.5h15c.276 0 .5.224.5.5v9c0 .276.224.5.5.5s.5-.224.5-.5v-9c0-.827-.673-1.5-1.5-1.5h-15c-.827 0-1.5.673-1.5 1.5v10c0 .827.673 1.5 1.5 1.5h17c.827 0 1.5-.673 1.5-1.5v-9c0-.276-.224-.5-.5-.5z"/><path d="m14.5 8h-11c-.276 0-.5-.224-.5-.5s.224-.5.5-.5h11c.276 0 .5.224.5.5s-.224.5-.5.5z"/></svg>