<svg height="20" viewBox="0 0 20 20" width="20" xmlns="http://www.w3.org/2000/svg"><path d="m9.5 20c-2.538 0-4.923-.988-6.718-2.782s-2.782-4.18-2.782-6.717c0-2.538.988-4.923 2.782-6.718s4.18-2.783 6.718-2.783 4.923.988 6.718 2.783 2.782 4.18 2.782 6.718-.988 4.923-2.782 6.717-4.18 2.782-6.718 2.782zm0-18c-4.687 0-8.5 3.813-8.5 8.5s3.813 8.5 8.5 8.5 8.5-3.813 8.5-8.5-3.813-8.5-8.5-8.5z"/><path d="m6.5 16c-.072 0-.144-.016-.212-.047-.176-.082-.288-.259-.288-.453v-10c0-.194.112-.371.288-.453s.383-.056.532.069l6 5c.114.095.18.236.18.384s-.066.289-.18.384l-6 5c-.092.076-.205.116-.32.116zm.5-9.432v7.865l4.719-3.933z"/><path d="m13.5 15c-.276 0-.5-.224-.5-.5v-8c0-.276.224-.5.5-.5s.5.224.5.5v8c0 .276-.224.5-.5.5z"/></svg>