<svg height="20" viewBox="0 0 20 20" width="20" xmlns="http://www.w3.org/2000/svg"><path d="m9.5 19.671c-.103 0-.206-.032-.294-.096l-2.148-1.561h-2.655c-.217 0-.409-.139-.476-.346l-.82-2.525-2.148-1.561c-.175-.127-.249-.353-.182-.559l.82-2.525-.82-2.525c-.067-.206.006-.432.182-.559l2.148-1.56.82-2.525c.067-.206.259-.346.476-.346h2.655l2.148-1.56c.175-.127.413-.127.588 0l2.148 1.56h2.655c.217 0 .409.139.476.346l.82 2.525 2.148 1.56c.175.127.249.353.182.559l-.82 2.525.82 2.525c.067.206-.006.432-.182.559l-2.148 1.561-.82 2.525c-.067.206-.259.346-.476.346h-2.655l-2.148 1.561c-.088.064-.191.095-.294.095zm-4.733-2.656h2.454c.106 0 .208.033.294.096l1.985 1.442 1.985-1.442c.085-.062.188-.096.294-.096h2.454l.758-2.334c.033-.1.096-.188.182-.25l1.985-1.442-.758-2.334c-.033-.1-.033-.209 0-.309l.758-2.334-1.985-1.442c-.085-.062-.149-.15-.182-.25l-.758-2.334h-2.454c-.106 0-.208-.033-.294-.096l-1.985-1.442-1.985 1.442c-.085.062-.188.096-.294.096h-2.454l-.758 2.334c-.033.1-.096.188-.182.25l-1.985 1.442.758 2.334c.033.1.033.209 0 .309l-.758 2.334 1.985 1.442c.085.062.149.15.182.25z"/><path d="m9.5 12c-.276 0-.5-.224-.5-.5v-5c0-.276.224-.5.5-.5s.5.224.5.5v5c0 .276-.224.5-.5.5z"/><path d="m9.5 15c-.276 0-.5-.224-.5-.5v-1c0-.276.224-.5.5-.5s.5.224.5.5v1c0 .276-.224.5-.5.5z"/></svg>