<svg height="20" viewBox="0 0 20 20" width="20" xmlns="http://www.w3.org/2000/svg"><path d="m18.854 7.146-1-1s0 0-.001-.001 0 0 0 0c-.07-.07-.157-.115-.25-.135 0 0 0 0-.001 0-.022-.005-.045-.008-.068-.009-.078-.005-.158.008-.232.04s0 0 0 0c-.009.004-.017.008-.026.012l-5.676 2.838-.745-.745c-.094-.094-.221-.146-.354-.146h-1.5v-1h.5c.276 0 .5-.224.5-.5s-.224-.5-.5-.5h-2c-.276 0-.5.224-.5.5s.224.5.5.5h.5v1h-3v-.5c0-.223-.148-.419-.363-.481l-3.5-1c-.137-.039-.284-.018-.404.058s-.203.2-.226.34l-.5 3c-.043.257.119.504.372.567l3.621.905v2.61c0 .276.224.5.5.5h9c.179 0 .345-.096.434-.252l3.675-6.432.537.537c.195.195.512.195.707 0 .098-.098.146-.226.146-.354s-.049-.256-.146-.354zm-17.785 1.981.332-1.992 2.599.743v1.982zm12.141 3.873h-8.21v-4h5.293l.854.854c.152.152.385.19.577.094l4.523-2.262z"/><path d="m18.5 13c-.827 0-1.5-.673-1.5-1.5 0-.437.294-.87.605-1.328.141-.207.376-.554.395-.679.003-.273.226-.494.5-.494s.497.22.5.494c.019.125.254.471.395.679.311.458.605.891.605 1.328 0 .827-.673 1.5-1.5 1.5zm0-2.366c-.022.033-.045.066-.068.1-.159.235-.426.627-.432.767 0 .275.224.499.5.499s.5-.224.5-.5c-.007-.139-.273-.532-.432-.766-.023-.033-.045-.067-.068-.1z"/></svg>