<svg height="20" viewBox="0 0 20 20" width="20" xmlns="http://www.w3.org/2000/svg"><path d="m6.5 10c-.276 0-.5-.224-.5-.5v-3c0-.276.224-.5.5-.5s.5.224.5.5v3c0 .276-.224.5-.5.5z"/><path d="m13.5 9c-.276 0-.5-.224-.5-.5v-2c0-.276.224-.5.5-.5s.5.224.5.5v2c0 .276-.224.5-.5.5z"/><path d="m4.843 18c-.114 0-.226-.039-.314-.111-2.242-1.814-3.528-4.507-3.528-7.389s1.286-5.574 3.528-7.389c.089-.072.2-.111.314-.111h10.314c.114 0 .226.039.314.111 2.242 1.814 3.528 4.507 3.528 7.389s-1.286 5.574-3.528 7.389c-.089.072-.2.111-.314.111zm.18-14c-1.923 1.621-3.023 3.98-3.023 6.5s1.099 4.879 3.023 6.5h9.955c1.923-1.621 3.023-3.98 3.023-6.5s-1.099-4.879-3.023-6.5z"/><path d="m11.5 15h-3c-.276 0-.5-.224-.5-.5v-1.5c0-1.103.897-2 2-2s2 .897 2 2v1.5c0 .276-.224.5-.5.5zm-2.5-1h2v-1c0-.551-.449-1-1-1s-1 .449-1 1z"/></svg>