<svg height="20" viewBox="0 0 20 20" width="20" xmlns="http://www.w3.org/2000/svg"><path d="m17.5 4h-.5v-.5c0-.827-.673-1.5-1.5-1.5h-14c-.827 0-1.5.673-1.5 1.5v2c0 .827.673 1.5 1.5 1.5h14c.827 0 1.5-.673 1.5-1.5v-.5h.5c.276 0 .5.224.5.5v2c0 .276-.224.5-.5.5h-8c-.827 0-1.5.673-1.5 1.5v1.586c-.582.206-1 .762-1 1.414v5c0 .827.673 1.5 1.5 1.5s1.5-.673 1.5-1.5v-5c0-.652-.418-1.208-1-1.414v-1.586c0-.276.224-.5.5-.5h8c.827 0 1.5-.673 1.5-1.5v-2c0-.827-.673-1.5-1.5-1.5zm-1.5 1.5c0 .276-.224.5-.5.5h-14c-.276 0-.5-.224-.5-.5v-2c0-.276.224-.5.5-.5h14c.276 0 .5.224.5.5zm-7 12c0 .276-.224.5-.5.5s-.5-.224-.5-.5v-5c0-.276.224-.5.5-.5s.5.224.5.5z"/></svg>