<svg height="20" viewBox="0 0 20 20" width="20" xmlns="http://www.w3.org/2000/svg"><path d="m6.5 8c-.827 0-1.5-.673-1.5-1.5s.673-1.5 1.5-1.5 1.5.673 1.5 1.5-.673 1.5-1.5 1.5zm0-2c-.276 0-.5.224-.5.5s.224.5.5.5.5-.224.5-.5-.224-.5-.5-.5z"/><path d="m3.5 11c-.827 0-1.5-.673-1.5-1.5s.673-1.5 1.5-1.5 1.5.673 1.5 1.5-.673 1.5-1.5 1.5zm0-2c-.276 0-.5.224-.5.5s.224.5.5.5.5-.224.5-.5-.224-.5-.5-.5z"/><path d="m10.5 7c-.827 0-1.5-.673-1.5-1.5s.673-1.5 1.5-1.5 1.5.673 1.5 1.5-.673 1.5-1.5 1.5zm0-2c-.276 0-.5.224-.5.5s.224.5.5.5.5-.224.5-.5-.224-.5-.5-.5z"/><path d="m10 19c-2.655 0-5.155-.874-7.04-2.461-.925-.779-1.652-1.687-2.161-2.701-.531-1.057-.8-2.18-.8-3.338s.269-2.282.8-3.338c.509-1.014 1.236-1.922 2.161-2.701 1.884-1.587 4.384-2.461 7.04-2.461s5.155.874 7.04 2.461c.925.779 1.652 1.687 2.161 2.701.531 1.057.8 2.18.8 3.338 0 1.852-.825 2.512-1.597 2.512-.645 0-1.309-.452-1.822-1.239-.324-.497-.666-.771-.963-.771-.099 0-.197.03-.299.091-.562.336-.23 1.245.018 1.756.802 1.654.868 3.098.192 4.178-.82 1.31-2.681 1.974-5.53 1.974zm0-16c-4.963 0-9 3.364-9 7.5s4.037 7.5 9 7.5c1.366 0 2.474-.159 3.293-.473.649-.249 1.117-.596 1.39-1.032.611-.976.204-2.284-.245-3.21-.96-1.98-.063-2.793.368-3.051.258-.154.531-.233.813-.233.458 0 1.142.213 1.801 1.226.377.579.766.785.984.785.357 0 .597-.608.597-1.512 0-4.136-4.037-7.5-9-7.5z"/><path d="m11 16c-1.103 0-2-.897-2-2s.897-2 2-2 2 .897 2 2-.897 2-2 2zm0-3c-.551 0-1 .449-1 1s.449 1 1 1 1-.449 1-1-.449-1-1-1z"/></svg>