<svg height="20" viewBox="0 0 20 20" width="20" xmlns="http://www.w3.org/2000/svg"><path d="m15.5 8c-.827 0-1.5-.673-1.5-1.5s.673-1.5 1.5-1.5 1.5.673 1.5 1.5-.673 1.5-1.5 1.5zm0-2c-.276 0-.5.224-.5.5s.224.5.5.5.5-.224.5-.5-.224-.5-.5-.5z"/><path d="m16.912 3.211c-1.854-.781-4.309-1.211-6.912-1.211s-5.057.43-6.912 1.211c-1.992.839-3.088 2.007-3.088 3.289v8c0 1.283 1.097 2.451 3.088 3.289 1.854.781 4.309 1.211 6.912 1.211s5.057-.43 6.912-1.211c1.992-.839 3.088-2.007 3.088-3.289v-8c0-1.283-1.097-2.451-3.088-3.289zm-13.435.921c1.734-.73 4.051-1.132 6.523-1.132s4.789.402 6.523 1.132c1.574.663 2.477 1.526 2.477 2.368s-.903 1.705-2.477 2.368c-.443.187-.925.352-1.437.494l-4.548-4.962c-.274-.299-.655-.467-1.045-.459s-.765.189-1.027.499l-1.799 2.122-.129-.146c-.271-.305-.649-.477-1.039-.471s-.763.187-1.025.499l-1.74 2.07c-1.111-.601-1.734-1.314-1.734-2.013 0-.842.903-1.705 2.477-2.368zm4.853 5.805c-1.744-.132-3.352-.472-4.656-.989l1.565-1.861c.076-.091.173-.141.274-.143s.199.047.278.135l2.54 2.858zm1.392.061-2.384-2.682 1.891-2.23c.078-.092.179-.144.283-.146s.208.046.289.135l4.171 4.551c-1.223.244-2.573.374-3.973.374-.093 0-.185-.001-.278-.002zm6.801 6.87c-1.734.73-4.051 1.132-6.523 1.132s-4.789-.402-6.523-1.132c-1.574-.663-2.477-1.526-2.477-2.368v-1.987c.41.382.94.732 1.58 1.045 1.524.745 3.615 1.239 5.886 1.391.011.001.023.001.034.001.261 0 .481-.203.498-.467.018-.276-.19-.514-.466-.532-2.145-.143-4.103-.602-5.514-1.291-1.302-.636-2.019-1.404-2.019-2.16v-1.988c.512.477 1.214.909 2.088 1.277 1.854.781 4.309 1.211 6.912 1.211s5.057-.43 6.912-1.211c.874-.368 1.576-.8 2.088-1.277v1.988c0 .81-.846 1.648-2.322 2.301-1.624.718-3.822 1.142-6.189 1.194-.243.005-.447.184-.483.425s.105.472.335.549l3 1.005c.053.018.106.026.159.026.209 0 .404-.132.474-.341.088-.262-.053-.545-.315-.633l-.667-.224c1.538-.209 2.943-.579 4.091-1.087.795-.352 1.439-.759 1.917-1.205v1.99c0 .842-.903 1.705-2.476 2.368z"/></svg>