<svg height="20" viewBox="0 0 20 20" width="20" xmlns="http://www.w3.org/2000/svg"><path d="m18.993 18.418-3-18c-.04-.241-.249-.418-.493-.418h-12c-.244 0-.453.177-.493.418l-3 18c-.044.266.131.52.395.572l5 1c.252.05.501-.098.576-.343l3.522-11.447 3.522 11.447c.066.213.262.353.477.353.032 0 .065-.003.098-.01l5-1c.265-.053.44-.306.395-.573zm-3.252-13.43c-.08.008-.16.012-.241.012-1.207 0-2.217-.86-2.45-2h2.359l.331 1.988zm-.498-2.988h-4.243v-1h4.076zm-6.243 0v-1h1v1zm-1-1v1h-4.243l.167-1zm-4.41 2h2.359c-.232 1.14-1.242 2-2.45 2-.081 0-.161-.004-.241-.012l.331-1.988zm10.255 15.921-3.867-12.568c-.065-.21-.258-.353-.478-.353s-.413.143-.478.353l-3.867 12.568-4.082-.816 2.021-12.128c.134.016.27.024.406.024 1.76 0 3.221-1.306 3.464-3h5.072c.243 1.694 1.704 3 3.464 3 .136 0 .271-.008.406-.024l2.021 12.128z"/></svg>