<svg height="20" viewBox="0 0 20 20" width="20" xmlns="http://www.w3.org/2000/svg"><path d="m10.5 9h-3c-.276 0-.5-.224-.5-.5v-4c0-.276.224-.5.5-.5h3c.276 0 .5.224.5.5v4c0 .276-.224.5-.5.5zm-2.5-1h2v-3h-2z"/><path d="m5.5 5h-2c-.276 0-.5-.224-.5-.5s.224-.5.5-.5h2c.276 0 .5.224.5.5s-.224.5-.5.5z"/><path d="m5.5 7h-2c-.276 0-.5-.224-.5-.5s.224-.5.5-.5h2c.276 0 .5.224.5.5s-.224.5-.5.5z"/><path d="m5.5 9h-2c-.276 0-.5-.224-.5-.5s.224-.5.5-.5h2c.276 0 .5.224.5.5s-.224.5-.5.5z"/><path d="m10.5 11h-7c-.276 0-.5-.224-.5-.5s.224-.5.5-.5h7c.276 0 .5.224.5.5s-.224.5-.5.5z"/><path d="m10.5 13h-7c-.276 0-.5-.224-.5-.5s.224-.5.5-.5h7c.276 0 .5.224.5.5s-.224.5-.5.5z"/><path d="m16.5 5h-.5v-.5c0-.827-.673-1.5-1.5-1.5h-.5v-.5c0-.827-.673-1.5-1.5-1.5h-11c-.827 0-1.5.673-1.5 1.5v12c0 .827.673 1.5 1.5 1.5h.5v.5c0 .827.673 1.5 1.5 1.5h.5v.5c0 .827.673 1.5 1.5 1.5h11c.827 0 1.5-.673 1.5-1.5v-12c0-.827-.673-1.5-1.5-1.5zm-15.5 9.5v-12c0-.276.224-.5.5-.5h11c.276 0 .5.224.5.5v12c0 .276-.224.5-.5.5h-11c-.276 0-.5-.224-.5-.5zm2 2v-.5h9.5c.827 0 1.5-.673 1.5-1.5v-10.5h.5c.276 0 .5.224.5.5v12c0 .276-.224.5-.5.5h-11c-.276 0-.5-.224-.5-.5zm14 2c0 .276-.224.5-.5.5h-11c-.276 0-.5-.224-.5-.5v-.5h9.5c.827 0 1.5-.673 1.5-1.5v-10.5h.5c.276 0 .5.224.5.5z"/></svg>