<svg height="20" viewBox="0 0 20 20" width="20" xmlns="http://www.w3.org/2000/svg"><path d="m19.833 1.127c-.144-.129-.349-.163-.527-.088l-19 8c-.192.081-.314.272-.306.48s.144.389.342.455l5.658 1.886v5.64c0 .212.133.4.333.471.055.019.111.029.167.029.148 0 .291-.066.388-.185l2.763-3.401 4.497 4.441c.095.094.221.144.351.144.042 0 .084-.005.125-.016.17-.044.305-.174.355-.343l5-17c.055-.185-.003-.385-.147-.514zm-3.703 2.334-9.724 7.48-4.488-1.496zm-9.13 8.285 9.415-7.242-7.194 8.854s0 .001-.001.001l-2.22 2.733zm7.256 5.811-3.972-3.922 8.033-9.887-4.061 13.808z"/></svg>