<svg height="20" viewBox="0 0 20 20" width="20" xmlns="http://www.w3.org/2000/svg"><path d="m5.5 16c-.827 0-1.5-.673-1.5-1.5s.673-1.5 1.5-1.5 1.5.673 1.5 1.5-.673 1.5-1.5 1.5zm0-2c-.276 0-.5.224-.5.5s.224.5.5.5.5-.224.5-.5-.224-.5-.5-.5z"/><path d="m14.5 16c-.827 0-1.5-.673-1.5-1.5s.673-1.5 1.5-1.5 1.5.673 1.5 1.5-.673 1.5-1.5 1.5zm0-2c-.276 0-.5.224-.5.5s.224.5.5.5.5-.224.5-.5-.224-.5-.5-.5z"/><path d="m17.364 12.252c-.119-.126-.254-.242-.406-.346-.13-.794-.553-3.213-1.011-4.129-.483-.966-2.1-1.4-3.372-1.593-.273-.042-.528.146-.57.419s.146.528.419.569c1.678.255 2.457.711 2.628 1.052.287.575.606 2.096.803 3.183-.048-.014-.096-.028-.145-.041-1.268-.336-3.034-.364-5.21-.366-.276 0-.5.224-.5.5s.223.5.5.5c2.103.002 3.804.027 4.955.332 1.098.291 1.545.774 1.545 1.668v2.5c0 .276-.224.5-.5.5h-13c-.276 0-.5-.224-.5-.5v-2.5c0-.308.053-.561.161-.774.125-.246.027-.547-.22-.672s-.547-.027-.672.22c-.179.352-.269.764-.269 1.226v2.5c0 .652.418 1.208 1 1.414v1.086c0 .551.449 1 1 1h1c.551 0 1-.449 1-1v-1h8v1c0 .551.449 1 1 1h1c.551 0 1-.449 1-1v-1.086c.582-.206 1-.762 1-1.414v-2.5c0-.711-.214-1.299-.636-1.748zm-12.364 6.748h-1v-1h1zm10 0v-1h1v1z"/><path d="m4.5 10c-.276 0-.5-.224-.5-.5v-5c0-.276.224-.5.5-.5h1.5c1.103 0 2 .897 2 2s-.897 2-2 2h-1v1.5c0 .276-.224.5-.5.5zm.5-3h1c.551 0 1-.449 1-1s-.449-1-1-1h-1z"/><path d="m5.5 12c-3.033 0-5.5-2.467-5.5-5.5s2.467-5.5 5.5-5.5 5.5 2.467 5.5 5.5-2.467 5.5-5.5 5.5zm0-10c-2.481 0-4.5 2.019-4.5 4.5s2.019 4.5 4.5 4.5 4.5-2.019 4.5-4.5-2.019-4.5-4.5-4.5z"/></svg>