<svg height="20" viewBox="0 0 20 20" width="20" xmlns="http://www.w3.org/2000/svg"><path d="m8.5 3c-.132 0-.26-.053-.353-.147s-.147-.222-.147-.353.053-.26.147-.353c.093-.093.222-.147.353-.147s.261.053.353.147c.093.093.147.222.147.353s-.053.261-.147.353c-.093.093-.222.147-.353.147z"/><path d="m15.5 7h-.5v-2.5c0-.827-.673-1.5-1.5-1.5h-.946c-.209-.29-.487-.526-.831-.697-.275-.138-.547-.213-.764-.254-.213-1.164-1.235-2.049-2.459-2.049s-2.246.885-2.459 2.049c-.218.041-.489.116-.764.254-.343.172-.622.408-.831.697h-.946c-.827 0-1.5.673-1.5 1.5v11c0 .827.673 1.5 1.5 1.5h2.5v1.5c0 .827.673 1.5 1.5 1.5h8c.827 0 1.5-.673 1.5-1.5v-10c0-.827-.673-1.5-1.5-1.5zm-9.802-3.79c.389-.203.8-.21.802-.21.276 0 .5-.224.5-.5 0-.827.673-1.5 1.5-1.5s1.5.673 1.5 1.5c0 .276.221.5.497.5.004 0 .416.007.805.21.331.173.542.433.638.79h-6.88c.096-.356.307-.617.638-.79zm-2.198 12.79c-.276 0-.5-.224-.5-.5v-11c0-.276.224-.5.5-.5h.54c-.027.159-.04.326-.04.5 0 .276.224.5.5.5h8 .001c.276 0 .5-.224.5-.5 0-.009 0-.018-.001-.027-.001-.164-.015-.322-.04-.473h.54c.276 0 .5.224.5.5v2.5h-5c-.133 0-.26.053-.354.146l-2.5 2.5c-.094.094-.146.221-.146.354v6zm5.5-7.793v1.293c0 .276-.224.5-.5.5h-1.293zm7 10.293c0 .276-.224.5-.5.5h-8c-.276 0-.5-.224-.5-.5v-7.5h1.5c.827 0 1.5-.673 1.5-1.5v-1.5h5.5c.276 0 .5.224.5.5z"/></svg>