<svg height="20" viewBox="0 0 20 20" width="20" xmlns="http://www.w3.org/2000/svg"><path d="m3 12c-1.122 0-2-1.322-2-3.011s.878-3.011 2-3.011 2 1.322 2 3.011-.878 3.011-2 3.011zm0-5.022c-.472 0-1 .86-1 2.011s.528 2.011 1 2.011 1-.86 1-2.011-.528-2.011-1-2.011z"/><path d="m6.998 8c-1.12 0-1.998-1.318-1.998-3s.878-3 1.998-3 1.998 1.318 1.998 3-.878 3-1.998 3zm0-5c-.471 0-.998.855-.998 2s.527 2 .998 2 .998-.855.998-2-.527-2-.998-2z"/><path d="m12 8c-1.122 0-2-1.318-2-3s.878-3 2-3 2 1.318 2 3-.878 3-2 3zm0-5c-.472 0-1 .855-1 2s.528 2 1 2 1-.855 1-2-.528-2-1-2z"/><path d="m16 12c-1.122 0-2-1.322-2-3.011s.878-3.011 2-3.011 2 1.322 2 3.011-.878 3.011-2 3.011zm0-5.022c-.472 0-1 .86-1 2.011s.528 2.011 1 2.011 1-.86 1-2.011-.528-2.011-1-2.011z"/><path d="m13 18c-.868 0-1.455-.294-1.972-.553-.48-.24-.894-.447-1.528-.447-.631 0-1.045.207-1.525.447-.519.259-1.107.553-1.975.553-.556 0-1.079-.303-1.437-.831-.627-.926-.637-2.331-.028-3.855 1.097-2.742 2.906-4.314 4.964-4.314s3.868 1.572 4.964 4.314c.609 1.524.599 2.929-.028 3.855-.357.528-.881.831-1.437.831zm-3.5-2c.869 0 1.457.294 1.975.553.479.24.893.447 1.525.447.218 0 .44-.143.609-.391.432-.637.404-1.73-.073-2.923-.937-2.342-2.408-3.686-4.036-3.686s-3.099 1.343-4.036 3.686c-.477 1.193-.504 2.286-.073 2.923.168.249.39.391.609.391.632 0 1.047-.207 1.528-.448.518-.259 1.106-.553 1.972-.553z"/></svg>