<svg height="20" viewBox="0 0 20 20" width="20" xmlns="http://www.w3.org/2000/svg"><path d="m19.572.428c-.28-.28-.655-.421-1.117-.421-.753 0-1.765.394-3.021 1.174-.402-.425-1.167-1.077-2.131-1.155-.769-.062-1.495.241-2.157.903-1.405 1.405-2.097 3.121-2.555 4.256-.156.386-.349.866-.445.965-.033.033-.132.132-.304-.013-.196-.185-.505-.181-.696.01-.195.195-.195.512 0 .707.082.082.293.241.562.316.108.03.216.045.322.045.127 0 .251-.022.369-.065-.137.141-.274.282-.411.425-3.517 3.673-7.46 8.713-7.982 11.842-.027.159.025.322.14.436.095.095.222.146.354.146.027 0 .055-.002.082-.007 1.308-.218 3.032-1.046 5.125-2.46 1.852-1.251 3.906-2.908 5.94-4.791 1.984-1.837 3.794-3.742 5.235-5.511 1.076-1.321 2.458-3.208 2.934-4.692.301-.939.219-1.649-.244-2.112zm-7.718 1.207c.45-.45.896-.651 1.365-.614.561.044 1.053.418 1.365.72-.247.172-.501.355-.763.552-1.424 1.069-3.04 2.488-4.65 4.081.107-.218.216-.488.349-.816.427-1.06 1.073-2.662 2.334-3.923zm-8.818 13.608 1.722 1.722c-1.365.892-2.584 1.526-3.57 1.847.322-.987.958-2.206 1.848-3.569zm7.933-3.234c-1.876 1.736-3.71 3.228-5.367 4.386l-1.995-1.995c1.321-1.892 3.071-4.008 5.105-6.132 2.362-2.467 4.695-4.505 6.562-5.787l2.244 2.244c-1.431 2.086-3.786 4.726-6.549 7.284zm7.895-9.774c-.148.462-.418 1.013-.791 1.631l-1.941-1.941c.978-.591 1.78-.918 2.324-.918.281 0 .378.097.41.128.232.232.099.789-.001 1.1z"/></svg>