<svg height="20" viewBox="0 0 20 20" width="20" xmlns="http://www.w3.org/2000/svg"><path d="m15.9 12.2c-2.61-3.48-4.136-8.475-4.376-9.604.299-.281.476-.677.476-1.096 0-.827-.673-1.5-1.5-1.5-.298 0-.689.029-1 .231-.311-.202-.702-.231-1-.231-.827 0-1.5.673-1.5 1.5 0 .419.177.815.476 1.096-.24 1.129-1.766 6.124-4.376 9.604-.149.199-.129.478.046.654.728.728 2.519 2.79 2.812 4.261-.408.171-.821.534-1.234 1.085-.397.53-.661 1.054-.672 1.076-.077.155-.069.339.022.486s.252.237.425.237h10c.173 0 .334-.09.425-.237s.099-.331.022-.486c-.011-.022-.275-.546-.672-1.076-.413-.551-.826-.914-1.234-1.085.294-1.47 2.085-3.533 2.812-4.261.176-.176.196-.454.047-.654zm-6.4-.2c.276 0 .5.224.5.5s-.224.5-.5.5-.5-.224-.5-.5.224-.5.5-.5zm4.12 7h-8.239c.367-.529.812-1 1.12-1h6c.308 0 .753.471 1.12 1zm-.02-5.05c-.882 1.176-1.402 2.199-1.554 3.05h-5.093c-.151-.851-.672-1.874-1.554-3.05-.479-.639-.955-1.175-1.249-1.493 1.464-2.054 2.539-4.472 3.196-6.181.341-.888.653-1.806.878-2.587.328-1.137.293-1.308.272-1.41-.03-.147-.12-.273-.247-.347-.154-.089-.25-.255-.25-.433 0-.276.224-.5.5-.5.38 0 .463.076.464.077.036.053.036.276.036.423v9.586c-.582.206-1 .762-1 1.414 0 .827.673 1.5 1.5 1.5s1.5-.673 1.5-1.5c0-.652-.418-1.208-1-1.414v-9.586c0-.147 0-.37.036-.423.001-.001.084-.077.464-.077.276 0 .5.224.5.5 0 .178-.096.344-.25.433-.127.073-.217.2-.247.347-.021.102-.056.273.272 1.41.225.78.537 1.699.878 2.587.657 1.708 1.732 4.126 3.196 6.181-.295.318-.77.853-1.249 1.493z"/></svg>