<svg height="20" viewBox="0 0 20 20" width="20" xmlns="http://www.w3.org/2000/svg"><path d="m19.354 6.146-6-6c-.165-.165-.421-.194-.619-.07l-8 5c-.146.091-.235.25-.235.422 0 .01-.013 1.011-.566 3.14-.511 1.965-1.599 5.321-3.886 10.147-.09.191-.051.418.098.568.096.096.224.146.354.146.072 0 .146-.016.214-.048 4.826-2.286 8.182-3.375 10.147-3.886 2.13-.553 3.13-.566 3.139-.566.172 0 .333-.089.424-.235l5-8c.123-.197.094-.454-.07-.619zm-5.64 7.868c-.963.073-4.362.531-10.907 3.386l6.714-6.714c.324.199.705.314 1.112.314 1.176 0 2.133-.957 2.133-2.133s-.957-2.133-2.133-2.133-2.133.957-2.133 2.133c0 .407.115.788.314 1.112l-6.714 6.714c2.856-6.546 3.313-9.945 3.386-10.907l7.441-4.651 5.437 5.438-4.651 7.441zm-4.214-5.147c0-.625.508-1.133 1.133-1.133s1.133.508 1.133 1.133-.508 1.133-1.133 1.133-1.133-.508-1.133-1.133z"/></svg>