<svg height="20" viewBox="0 0 20 20" width="20" xmlns="http://www.w3.org/2000/svg"><path d="m19.354 18.146-7.146-7.146 6.439-6.439c.585-.585.585-1.536 0-2.121l-1.086-1.086c-.283-.283-.659-.438-1.061-.438s-.778.156-1.061.438l-6.439 6.439-7.146-7.146c-.325-.325-.781-.422-1.19-.253s-.663.561-.663 1.022v17.085c0 .827.673 1.5 1.5 1.5h17.085c.461 0 .852-.254 1.022-.663s.072-.865-.253-1.19zm-12.854-4.146h2.5c.133 0 .26-.053.354-.146l.146-.146 2.293 2.293h-7.293c-.276 0-.5-.224-.5-.5v-7.293l2.293 2.293-.146.146c-.094.094-.146.221-.146.354v2.5c0 .276.224.5.5.5zm2.293-1h-1.793v-1.793l8-8 1.793 1.793zm7.707-11.085c.134 0 .26.052.354.145l1.086 1.086c.195.195.195.512 0 .707l-.439.439-1.793-1.793.439-.439c.094-.094.219-.145.354-.145zm2.183 17.039c-.016.038-.062.046-.098.046h-17.085c-.276 0-.5-.224-.5-.5v-1.5h.5c.276 0 .5-.224.5-.5s-.224-.5-.5-.5h-.5v-2h.5c.276 0 .5-.224.5-.5s-.224-.5-.5-.5h-.5v-2h.5c.276 0 .5-.224.5-.5s-.224-.5-.5-.5h-.5v-2h.5c.276 0 .5-.224.5-.5s-.224-.5-.5-.5h-.5v-5.585c0-.036.008-.082.046-.098s.075.011.1.036l7.146 7.146-1.293 1.293-2.439-2.439c-.476-.476-.889-.378-1.044-.314s-.516.287-.516.96v7.5c0 .827.673 1.5 1.5 1.5h7.5c.674 0 .896-.361.96-.516s.162-.568-.314-1.044l-2.439-2.439 1.293-1.293 7.146 7.146c.025.025.052.063.036.1z"/></svg>