<svg height="20" viewBox="0 0 20 20" width="20" xmlns="http://www.w3.org/2000/svg"><path d="m3.5 17c-.13 0-.258-.051-.354-.147-.137-.137-.183-.342-.116-.524l2-5.5c.025-.069.065-.131.116-.183l10.5-10.5c.195-.195.512-.195.707 0l3.5 3.5c.195.195.195.512 0 .707l-10.5 10.5c-.052.052-.114.091-.183.116l-5.5 2c-.056.02-.113.03-.171.03zm2.432-5.725-1.596 4.389 4.389-1.596 10.068-10.068-2.793-2.793z"/><path d="m17.5 20h-16c-.827 0-1.5-.673-1.5-1.5v-16c0-.827.673-1.5 1.5-1.5h10c.276 0 .5.224.5.5s-.224.5-.5.5h-10c-.276 0-.5.224-.5.5v16c0 .276.224.5.5.5h16c.276 0 .5-.224.5-.5v-10c0-.276.224-.5.5-.5s.5.224.5.5v10c0 .827-.673 1.5-1.5 1.5z"/></svg>