<svg height="20" viewBox="0 0 20 20" width="20" xmlns="http://www.w3.org/2000/svg"><path d="m19.103.896c-.562-.562-1.309-.871-2.103-.871s-1.542.309-2.103.871l-9.75 9.75c-.052.052-.091.114-.116.183l-2 5.5c-.066.183-.021.387.116.524.095.096.223.147.354.147.057 0 .115-.01.171-.03l5.5-2c.069-.025.131-.065.183-.116l9.75-9.75c.562-.562.871-1.309.871-2.104s-.309-1.542-.871-2.104zm-10.378 13.172-4.389 1.596 1.596-4.389 8.068-8.068 2.793 2.793zm9.672-9.672-.897.896-2.793-2.793.897-.896c.373-.373.869-.578 1.396-.578s1.023.205 1.397.578c.373.373.578.869.578 1.396s-.205 1.023-.578 1.396z"/><path d="m17.5 20h-16c-.827 0-1.5-.673-1.5-1.5v-16c0-.827.673-1.5 1.5-1.5h10c.276 0 .5.224.5.5s-.224.5-.5.5h-10c-.276 0-.5.224-.5.5v16c0 .276.224.5.5.5h16c.276 0 .5-.224.5-.5v-10c0-.276.224-.5.5-.5s.5.224.5.5v10c0 .827-.673 1.5-1.5 1.5z"/></svg>