<svg height="20" viewBox="0 0 20 20" width="20" xmlns="http://www.w3.org/2000/svg"><path d="m19.5 6c0-2.757-2.243-5-5-5-.753 0-1.478.164-2.153.486-.053.025-.099.059-.138.098l-10.563 10.563c-.077.077-.126.176-.141.283l-1 7c-.022.156.03.313.141.424.094.094.222.146.353.146.023 0 .047-.002.071-.005l7-1c.107-.015.206-.065.283-.141l10.555-10.555s.001-.001.001-.001l.007-.007c.039-.039.072-.085.098-.138.323-.675.486-1.4.486-2.153zm-1 0c0 .575-.119 1.129-.354 1.647l-1.15 1.15c-.105-2.872-2.421-5.188-5.293-5.293l1.15-1.15c.518-.235 1.072-.354 1.647-.354 2.206 0 4 1.794 4 4zm-16.495 10 .423-2.964c.189-.024.38-.036.572-.036 2.481 0 4.5 2.019 4.5 4.5 0 .191-.012.383-.036.572l-2.964.423c-.003-1.374-1.12-2.492-2.495-2.495zm8.616-11.414c.288-.057.583-.086.879-.086 1.061 0 2.037.369 2.807.986l-7.79 7.79c-.906-.755-2.057-1.225-3.315-1.271l7.418-7.418zm-3.396 9.396 7.79-7.79c.616.77.986 1.746.986 2.807 0 .296-.029.591-.086.879l-7.418 7.418c-.046-1.258-.516-2.409-1.271-3.315zm-5.364 3.025c.046-.004.092-.007.139-.007.827 0 1.5.673 1.5 1.5 0 .047-.002.093-.007.139l-1.904.272z"/><path d="m6.5 0h-5c-.827 0-1.5.673-1.5 1.5v10c0 .276.224.5.5.5s.5-.224.5-.5v-2.5h1.5c.276 0 .5-.224.5-.5s-.224-.5-.5-.5h-1.5v-1h.5c.276 0 .5-.224.5-.5s-.224-.5-.5-.5h-.5v-1h1.5c.276 0 .5-.224.5-.5s-.224-.5-.5-.5h-1.5v-1h.5c.276 0 .5-.224.5-.5s-.224-.5-.5-.5h-.5v-.5c0-.276.224-.5.5-.5h5c.276 0 .5.224.5.5v2c0 .276.224.5.5.5s.5-.224.5-.5v-2c0-.827-.673-1.5-1.5-1.5z"/></svg>