<svg height="20" viewBox="0 0 20 20" width="20" xmlns="http://www.w3.org/2000/svg"><path d="m17.5 20h-16c-.827 0-1.5-.673-1.5-1.5v-16c0-.827.673-1.5 1.5-1.5h16c.827 0 1.5.673 1.5 1.5v16c0 .827-.673 1.5-1.5 1.5zm-16-18c-.276 0-.5.224-.5.5v16c0 .276.224.5.5.5h16c.276 0 .5-.224.5-.5v-16c0-.276-.224-.5-.5-.5z"/><path d="m5 16c-.119 0-.239-.042-.334-.128-.205-.185-.222-.501-.037-.706l9-10c.185-.205.501-.222.706-.037s.222.501.037.706l-9 10c-.099.11-.235.166-.372.166z"/><path d="m6.5 10c-1.378 0-2.5-1.122-2.5-2.5s1.122-2.5 2.5-2.5 2.5 1.122 2.5 2.5-1.122 2.5-2.5 2.5zm0-4c-.827 0-1.5.673-1.5 1.5s.673 1.5 1.5 1.5 1.5-.673 1.5-1.5-.673-1.5-1.5-1.5z"/><path d="m12.5 16c-1.378 0-2.5-1.122-2.5-2.5s1.122-2.5 2.5-2.5 2.5 1.122 2.5 2.5-1.122 2.5-2.5 2.5zm0-4c-.827 0-1.5.673-1.5 1.5s.673 1.5 1.5 1.5 1.5-.673 1.5-1.5-.673-1.5-1.5-1.5z"/></svg>