<svg height="20" viewBox="0 0 20 20" width="20" xmlns="http://www.w3.org/2000/svg"><path d="m5 15c-.138 0-.275-.057-.374-.168-.183-.206-.165-.522.042-.706l9-8c.206-.183.522-.165.706.042s.165.522-.042.706l-9 8c-.095.085-.214.126-.332.126z"/><path d="m9.5 20c-2.538 0-4.923-.988-6.718-2.782s-2.782-4.18-2.782-6.717c0-2.538.988-4.923 2.782-6.718s4.18-2.783 6.718-2.783 4.923.988 6.718 2.783 2.782 4.18 2.782 6.718-.988 4.923-2.782 6.717-4.18 2.782-6.718 2.782zm0-18c-4.687 0-8.5 3.813-8.5 8.5s3.813 8.5 8.5 8.5 8.5-3.813 8.5-8.5-3.813-8.5-8.5-8.5z"/><path d="m6.5 10c-1.378 0-2.5-1.122-2.5-2.5s1.122-2.5 2.5-2.5 2.5 1.122 2.5 2.5-1.122 2.5-2.5 2.5zm0-4c-.827 0-1.5.673-1.5 1.5s.673 1.5 1.5 1.5 1.5-.673 1.5-1.5-.673-1.5-1.5-1.5z"/><path d="m12.5 16c-1.378 0-2.5-1.122-2.5-2.5s1.122-2.5 2.5-2.5 2.5 1.122 2.5 2.5-1.122 2.5-2.5 2.5zm0-4c-.827 0-1.5.673-1.5 1.5s.673 1.5 1.5 1.5 1.5-.673 1.5-1.5-.673-1.5-1.5-1.5z"/></svg>