<svg height="20" viewBox="0 0 20 20" width="20" xmlns="http://www.w3.org/2000/svg"><path d="m12.738 19c-1.415 0-2.918-.4-4.468-1.189-1.425-.726-2.832-1.764-4.07-3.003s-2.275-2.648-2.999-4.074c-.788-1.551-1.187-3.054-1.187-4.469 0-.914.778-1.766 1.241-2.193.562-.517 1.385-1.07 2.011-1.07.329 0 .689.197 1.166.639.34.315.722.741 1.103 1.232.326.419 1.388 1.842 1.388 2.577 0 .649-.691 1.074-1.423 1.523-.249.153-.507.311-.701.46-.167.128-.234.209-.261.247.752 1.821 2.963 4.033 4.785 4.785.039-.026.12-.094.247-.261.148-.194.307-.452.46-.701.45-.732.875-1.423 1.524-1.423.735 0 2.158 1.062 2.577 1.388.491.382.917.763 1.232 1.103.442.477.639.837.639 1.166 0 .626-.552 1.452-1.069 2.015-.427.466-1.28 1.248-2.194 1.248zm-9.489-14.998c-.207.015-.762.294-1.316.805-.558.514-.919 1.086-.919 1.458 0 2.466 1.456 5.396 3.894 7.837s5.366 3.899 7.831 3.899c.371 0 .943-.362 1.457-.923.511-.558.79-1.114.805-1.322-.052-.162-.481-.727-1.543-1.543-.968-.744-1.679-1.091-1.883-1.129-.173.099-.509.645-.692.943-.458.745-.891 1.449-1.556 1.449-.111 0-.221-.021-.326-.063-2.094-.838-4.572-3.315-5.41-5.41-.112-.28-.133-.715.401-1.199.268-.242.632-.466.985-.683.298-.183.845-.519.943-.692-.038-.205-.385-.915-1.129-1.883-.816-1.062-1.381-1.491-1.543-1.543z"/><path d="m9.5 10c-.202 0-.385-.122-.462-.309s-.035-.402.108-.545c.817-.817 1.077-1.318 1.159-1.55-.844-.72-1.306-1.633-1.306-2.597 0-1.103.596-2.127 1.678-2.884 1.028-.719 2.385-1.116 3.822-1.116s2.795.396 3.822 1.116c1.082.757 1.678 1.782 1.678 2.884s-.596 2.127-1.678 2.884c-1.028.719-2.385 1.116-3.822 1.116-.602 0-1.19-.069-1.753-.206-.513.349-1.906 1.206-3.247 1.206zm5-8c-1.234 0-2.388.332-3.249.935-.807.565-1.251 1.298-1.251 2.065 0 .727.405 1.432 1.139 1.984.09.068.155.164.183.273.05.19.063.642-.478 1.434.663-.269 1.247-.646 1.501-.838.125-.094.286-.125.437-.083.545.152 1.123.23 1.718.23 1.234 0 2.388-.332 3.249-.935.807-.565 1.251-1.298 1.251-2.065s-.444-1.5-1.251-2.065c-.861-.603-2.015-.935-3.249-.935z"/></svg>