<svg height="20" viewBox="0 0 20 20" width="20" xmlns="http://www.w3.org/2000/svg"><path d="m13.5 20h-8c-.827 0-1.5-.673-1.5-1.5v-17c0-.827.673-1.5 1.5-1.5h8c.827 0 1.5.673 1.5 1.5v17c0 .827-.673 1.5-1.5 1.5zm-8-19c-.276 0-.5.224-.5.5v17c0 .276.224.5.5.5h8c.276 0 .5-.224.5-.5v-17c0-.276-.224-.5-.5-.5z"/><path d="m10.5 3h-2c-.276 0-.5-.224-.5-.5s.224-.5.5-.5h2c.276 0 .5.224.5.5s-.224.5-.5.5z"/><path d="m7 2.5c0 .276-.224.5-.5.5s-.5-.224-.5-.5.224-.5.5-.5.5.224.5.5z"/><path d="m9.5 18c-.827 0-1.5-.673-1.5-1.5s.673-1.5 1.5-1.5 1.5.673 1.5 1.5-.673 1.5-1.5 1.5zm0-2c-.276 0-.5.224-.5.5s.224.5.5.5.5-.224.5-.5-.224-.5-.5-.5z"/></svg>