<svg height="20" viewBox="0 0 20 20" width="20" xmlns="http://www.w3.org/2000/svg"><path d="m16 20c-1.771 0-3.655-.502-5.6-1.492-1.793-.913-3.564-2.22-5.122-3.78s-2.863-3.333-3.775-5.127c-.988-1.946-1.49-3.83-1.49-5.601 0-1.148 1.07-2.257 1.529-2.68.661-.609 1.701-1.32 2.457-1.32.376 0 .816.246 1.387.774.425.394.904.928 1.383 1.544.289.372 1.73 2.271 1.73 3.182 0 .747-.845 1.267-1.739 1.816-.346.212-.703.432-.961.639-.276.221-.325.338-.333.364.949 2.366 3.85 5.267 6.215 6.215.021-.007.138-.053.363-.333.207-.258.427-.616.639-.961.55-.894 1.069-1.739 1.816-1.739.911 0 2.81 1.441 3.182 1.73.616.479 1.15.958 1.544 1.383.528.57.774 1.011.774 1.387 0 .756-.711 1.799-1.319 2.463-.424.462-1.533 1.537-2.681 1.537zm-12.006-19c-.268.005-.989.333-1.773 1.055-.744.686-1.207 1.431-1.207 1.945 0 6.729 8.264 15 14.986 15 .513 0 1.258-.465 1.944-1.213.723-.788 1.051-1.512 1.056-1.781-.032-.19-.558-.929-1.997-2.037-1.237-.952-2.24-1.463-2.498-1.469-.018.005-.13.048-.357.336-.197.251-.408.594-.613.926-.56.911-1.089 1.772-1.858 1.772-.124 0-.246-.024-.363-.071-2.624-1.05-5.729-4.154-6.779-6.779-.126-.315-.146-.809.474-1.371.33-.299.786-.579 1.228-.851.332-.204.676-.415.926-.613.288-.227.331-.339.336-.357-.007-.258-.517-1.261-1.469-2.498-1.108-1.439-1.847-1.964-2.037-1.997z"/><path d="m17.5 2h-4c-.276 0-.5.224-.5.5s.224.5.5.5h2.793l-5.146 5.146c-.195.195-.195.512 0 .707.098.098.226.146.354.146s.256-.049.354-.146l5.146-5.146v2.793c0 .276.224.5.5.5s.5-.224.5-.5v-4c0-.276-.224-.5-.5-.5z"/></svg>