<svg height="20" viewBox="0 0 20 20" width="20" xmlns="http://www.w3.org/2000/svg"><path d="m19.971 16.676c-.011-.266-.136-.518-.343-.693l-2.423-2.043c-.201-.169-.531-.466-.72-.647l-5.403-5.168.272-.272c.094-.094.146-.221.146-.354s-.053-.26-.146-.354l-.359-.359c4.967-4.612 7.676-5.817 7.702-5.828.218-.094.341-.328.293-.56s-.252-.399-.49-.399c-2.051 0-4.065.333-5.988.991-1.722.589-3.341 1.427-4.82 2.494l-.338-.338c-.195-.195-.512-.195-.707 0l-.376.376-.563-.539c-.394-.377-1.028-.37-1.414.016l-1.293 1.293c-.386.386-.393 1.02-.016 1.414l.539.563-.376.376c-.195.195-.195.512 0 .707l.338.338c-1.067 1.479-1.905 3.099-2.494 4.82-.658 1.923-.991 3.937-.991 5.988 0 .237.167.441.399.489.034.007.068.01.102.01.196 0 .378-.116.459-.302.012-.027 1.216-2.736 5.828-7.703l.359.359c.094.094.221.146.354.146s.26-.053.354-.146l.272-.272 5.168 5.403c.181.189.478.519.647.72l2.043 2.423c.174.207.427.332.693.343.013.001.026.001.039.001.252 0 .498-.102.68-.284l2.293-2.293c.191-.191.295-.453.283-.719zm-16.264-11.66c-.002-.002-.002-.013 0-.016l1.293-1.293c.002-.002.013-.002.016 0l.547.523-1.333 1.333zm3.422 4.906c-.096-.096-.226-.149-.361-.146s-.264.059-.357.157c-2.741 2.911-4.368 5.092-5.292 6.498.36-3.081 1.524-5.982 3.421-8.486.151-.199.132-.479-.045-.655l-.289-.289 2.793-2.793.289.289c.177.177.456.196.655.045 2.504-1.897 5.405-3.061 8.486-3.421-1.406.923-3.587 2.551-6.498 5.292-.098.093-.155.221-.157.357s.051.265.146.361l.371.371-2.793 2.793-.371-.371zm9.59 9.027-2.014-2.389c-.183-.218-.493-.562-.689-.767l-5.183-5.419 1.542-1.542 5.419 5.183c.205.196.549.505.767.689l2.389 2.014-2.23 2.23z"/></svg>