<svg height="20" viewBox="0 0 20 20" width="20" xmlns="http://www.w3.org/2000/svg"><path d="m13.5 9c-1.378 0-2.5-1.122-2.5-2.5s1.122-2.5 2.5-2.5 2.5 1.122 2.5 2.5-1.122 2.5-2.5 2.5zm0-4c-.827 0-1.5.673-1.5 1.5s.673 1.5 1.5 1.5 1.5-.673 1.5-1.5-.673-1.5-1.5-1.5z"/><path d="m18.5 0h-17c-.827 0-1.5.673-1.5 1.5v17c0 .827.673 1.5 1.5 1.5h17c.827 0 1.5-.673 1.5-1.5v-17c0-.827-.673-1.5-1.5-1.5zm-17.5 18.5v-4.807l4.197-4.617c.085-.093.196-.145.314-.147s.231.048.318.139l9.5 9.932h-13.83c-.276 0-.5-.224-.5-.5zm18 0c0 .276-.224.5-.5.5h-1.786l-10.161-10.623c-.281-.294-.655-.452-1.053-.447s-.768.173-1.042.474l-3.457 3.803v-10.707c0-.276.224-.5.5-.5h17c.276 0 .5.224.5.5v17z"/></svg>