<svg height="20" viewBox="0 0 20 20" width="20" xmlns="http://www.w3.org/2000/svg"><path d="m16.5 20h-14c-.827 0-1.5-.673-1.5-1.5v-13c0-.827.673-1.5 1.5-1.5h14c.827 0 1.5.673 1.5 1.5v13c0 .827-.673 1.5-1.5 1.5zm-14-15c-.276 0-.5.224-.5.5v13c0 .276.224.5.5.5h14c.276 0 .5-.224.5-.5v-13c0-.276-.224-.5-.5-.5z"/><path d="m16.5 3h-14c-.276 0-.5-.224-.5-.5s.224-.5.5-.5h14c.276 0 .5.224.5.5s-.224.5-.5.5z"/><path d="m15.5 1h-12c-.276 0-.5-.224-.5-.5s.224-.5.5-.5h12c.276 0 .5.224.5.5s-.224.5-.5.5z"/><path d="m11.5 13c-.827 0-1.5-.673-1.5-1.5s.673-1.5 1.5-1.5 1.5.673 1.5 1.5-.673 1.5-1.5 1.5zm0-2c-.276 0-.5.224-.5.5s.224.5.5.5.5-.224.5-.5-.224-.5-.5-.5z"/><path d="m14.5 8h-10c-.276 0-.5.224-.5.5v7c0 .276.224.5.5.5h10c.276 0 .5-.224.5-.5v-7c0-.276-.224-.5-.5-.5zm-9.5 5.675 1.266-1.582c.073-.091.164-.142.259-.144s.189.044.266.131l2.596 2.92h-4.387zm9 1.325h-3.275l-3.187-3.585c-.272-.306-.651-.476-1.039-.466s-.758.199-1.014.519l-.485.606v-3.075h9v6z"/></svg>