<svg height="20" viewBox="0 0 20 20" width="20" xmlns="http://www.w3.org/2000/svg"><path d="m18.5 20h-17c-.827 0-1.5-.673-1.5-1.5v-17c0-.827.673-1.5 1.5-1.5h17c.827 0 1.5.673 1.5 1.5v17c0 .827-.673 1.5-1.5 1.5zm-17-19c-.276 0-.5.224-.5.5v17c0 .276.224.5.5.5h17c.276 0 .5-.224.5-.5v-17c0-.276-.224-.5-.5-.5z"/><path d="m13 9c-1.103 0-2-.897-2-2s.897-2 2-2 2 .897 2 2-.897 2-2 2zm0-3c-.551 0-1 .449-1 1s.449 1 1 1 1-.449 1-1-.449-1-1-1z"/><path d="m17.5 18h-7c-.276 0-.5-.224-.5-.5s.224-.5.5-.5h7c.276 0 .5.224.5.5s-.224.5-.5.5z"/><path d="m17.5 2h-15c-.276 0-.5.224-.5.5v12c0 .276.224.5.5.5h15c.276 0 .5-.224.5-.5v-12c0-.276-.224-.5-.5-.5zm-14.5 9.69 3.209-3.611c.082-.092.189-.144.302-.145s.221.048.305.138l5.533 5.928h-9.349zm14 2.31h-3.283l-6.169-6.61c-.279-.299-.651-.461-1.049-.456s-.766.176-1.037.481l-2.462 2.77v-7.185h14z"/></svg>