<svg height="20" viewBox="0 0 20 20" width="20" xmlns="http://www.w3.org/2000/svg"><path d="m8.5 20c-2.27 0-4.405-.884-6.01-2.49s-2.49-3.74-2.49-6.01.884-4.405 2.49-6.01 3.74-2.49 6.01-2.49c.276 0 .5.224.5.5v7.5h7.5c.276 0 .5.224.5.5 0 2.27-.884 4.405-2.49 6.01s-3.74 2.49-6.01 2.49zm-.5-15.984c-3.903.258-7 3.516-7 7.484 0 4.136 3.364 7.5 7.5 7.5 3.967 0 7.225-3.097 7.484-7h-7.484c-.276 0-.5-.224-.5-.5z"/><path d="m18.5 10h-8c-.276 0-.5-.224-.5-.5v-8c0-.276.224-.5.5-.5 2.27 0 4.405.884 6.01 2.49s2.49 3.74 2.49 6.01c0 .276-.224.5-.5.5zm-7.5-1h6.984c-.247-3.738-3.246-6.736-6.984-6.984z"/></svg>