<svg height="20" viewBox="0 0 20 20" width="20" xmlns="http://www.w3.org/2000/svg"><path d="m18.293 11.95c-1.021-.613-2.368-.95-3.793-.95s-2.772.337-3.793.95c-1.101.661-1.707 1.566-1.707 2.55v2c0 .984.606 1.89 1.707 2.55 1.021.613 2.368.95 3.793.95s2.772-.337 3.793-.95c1.101-.661 1.707-1.566 1.707-2.55v-2c0-.984-.606-1.89-1.707-2.55zm-3.793.05c2.439 0 4.5 1.145 4.5 2.5s-2.061 2.5-4.5 2.5-4.5-1.145-4.5-2.5 2.061-2.5 4.5-2.5zm0 7c-2.419 0-4.466-1.126-4.499-2.467.206.185.442.358.706.517 1.021.613 2.368.95 3.793.95s2.772-.337 3.793-.95c.265-.159.5-.332.706-.517-.033 1.341-2.08 2.467-4.499 2.467z"/><path d="m13.5 16c-.128 0-.256-.049-.354-.146-.195-.195-.195-.512 0-.707l2-2c.195-.195.512-.195.707 0s.195.512 0 .707l-2 2c-.098.098-.226.146-.354.146z"/><path d="m12.975 1.025c-.661-.661-1.54-1.025-2.475-1.025s-1.814.364-2.475 1.025l-7 7c-.661.661-1.025 1.54-1.025 2.475s.364 1.814 1.025 2.475 1.54 1.025 2.475 1.025 1.814-.364 2.475-1.025l7-7c1.365-1.365 1.365-3.585 0-4.95zm-7.707 11.243c-.472.472-1.1.732-1.768.732s-1.296-.26-1.768-.732-.732-1.1-.732-1.768.26-1.296.732-1.768l3.646-3.646c1.775.352 3.183 1.76 3.536 3.536zm7-7-2.534 2.534c-.265-.821-.721-1.567-1.345-2.191s-1.37-1.08-2.191-1.344l2.534-2.534c.472-.472 1.1-.732 1.768-.732s1.296.26 1.768.732c.975.975.975 2.561 0 3.536z"/></svg>