<svg height="20" viewBox="0 0 20 20" width="20" xmlns="http://www.w3.org/2000/svg"><path d="m17.874 15.168-3.245-3.651c.56-.183.964-.402 1.225-.663.185-.185.196-.481.026-.679l-3.107-3.625c.447-.191.809-.424 1.081-.696.18-.18.196-.467.037-.666l-4-5c-.095-.119-.239-.188-.39-.188s-.296.069-.39.188l-4 5c-.159.199-.143.486.037.666.272.272.634.505 1.081.696l-3.107 3.625c-.17.198-.159.494.026.679.261.261.665.48 1.225.663l-3.245 3.651c-.096.108-.141.253-.122.397s.099.272.22.352c.829.547 3.902.942 6.775 1.049v2.533c0 .276.224.5.5.5h2c.276 0 .5-.224.5-.5v-2.531c1.259-.044 2.517-.143 3.648-.288 1.12-.144 2.573-.394 3.13-.765.12-.08.2-.209.219-.352s-.026-.288-.122-.396zm-7.874 3.832h-1v-2.008c.169.002.335.004.5.004h.014c.161 0 .323-.001.485-.003v2.007zm4.52-3.311c-1.537.198-3.315.307-5.005.307h-.014c-3.112-.001-5.923-.367-7.151-.699l3.308-3.722c.118-.133.157-.318.102-.487s-.195-.296-.368-.334c-.546-.12-.907-.248-1.143-.359l3.216-3.752c.111-.13.148-.307.099-.47s-.179-.29-.343-.336c-.404-.114-.747-.256-1.013-.42l3.294-4.118 3.294 4.118c-.267.164-.609.306-1.013.42-.164.046-.294.173-.343.336s-.012.341.099.47l3.216 3.752c-.237.111-.598.239-1.143.359-.173.038-.313.165-.368.334s-.016.354.102.487l3.31 3.723c-.447.123-1.145.263-2.132.391z"/></svg>