<svg height="20" viewBox="0 0 20 20" width="20" xmlns="http://www.w3.org/2000/svg"><path d="m19.104 16.396c-.582-.583-1.268-1.112-1.931-1.625-1.943-1.502-3.621-2.798-2.641-5.063.498-1.151.589-2.24.28-3.328-.329-1.157-1.123-2.35-2.426-3.645-.861-.856-1.811-1.529-2.823-2.001-1.045-.487-2.103-.734-3.145-.734-1.69 0-3.246.664-4.501 1.92-.743.744-1.279 1.593-1.593 2.522-.297.879-.39 1.813-.276 2.777.214 1.824 1.168 3.664 2.684 5.182 1.765 1.767 3.32 2.589 4.896 2.589.677 0 1.358-.152 2.082-.464.451-.195.882-.293 1.281-.293 1.512 0 2.615 1.427 3.782 2.938.513.663 1.043 1.349 1.626 1.932.098.098.226.146.354.146s.256-.049.354-.146l2-2c.195-.195.195-.512 0-.707zm-16.481-13.769c1.063-1.064 2.375-1.627 3.794-1.627 1.783 0 3.701.891 5.263 2.444 1.033 1.027 1.65 1.908 1.985 2.684l-7.54 7.54c-.837-.353-1.717-1.003-2.687-1.974-2.377-2.38-3.646-6.233-.815-9.068zm14.137 15.406c-.413-.458-.81-.972-1.197-1.473-1.264-1.635-2.57-3.326-4.574-3.326-.536 0-1.1.126-1.677.375-.596.257-1.148.382-1.686.382-.129 0-.258-.008-.388-.022l6.736-6.736c.097.785-.092 1.457-.361 2.079-.582 1.344-.494 2.558.268 3.71.637.964 1.676 1.766 2.68 2.542.501.387 1.015.784 1.472 1.197l-1.274 1.273z"/><path d="m2.5 20c-1.378 0-2.5-1.122-2.5-2.5s1.122-2.5 2.5-2.5 2.5 1.122 2.5 2.5-1.122 2.5-2.5 2.5zm0-4c-.827 0-1.5.673-1.5 1.5s.673 1.5 1.5 1.5 1.5-.673 1.5-1.5-.673-1.5-1.5-1.5z"/></svg>