<svg height="20" viewBox="0 0 20 20" width="20" xmlns="http://www.w3.org/2000/svg"><path d="m19.854 9.146c-.117-.117-1.18-1.146-2.354-1.146-2.76 0-5.405 1.961-8.205 4.037-.728.54-1.476 1.094-2.23 1.615-.021-.084-.045-.167-.072-.251-.04-.335-.284-.709-.776-1.194-.333-.328-.661-.588-.675-.599-.217-.171-.531-.134-.702.083s-.134.531.083.702c.027.021.053.042.08.064-.001.014-.002.029-.002.044 0 .017-.054.132-.309.26-.305.153-.739.24-1.191.24s-.885-.088-1.191-.24c-.256-.128-.309-.243-.309-.26 0-.016-.001-.031-.002-.046.023-.018.047-.036.07-.054.221-.166.265-.479.099-.7s-.479-.265-.7-.099c-.014.011-.346.261-.681.585-.536.519-.786.937-.786 1.314v.036c0 1.028 0 2.582.466 3.903.271.768.673 1.374 1.194 1.799.619.505 1.406.762 2.34.762 1.032 0 2.072-.435 3.275-1.37 1.019-.792 2.032-1.846 3.104-2.962 2.554-2.657 5.449-5.668 9.121-5.668.202 0 .385-.122.462-.309s.035-.402-.108-.545zm-16.354 4.854c.61 0 1.192-.123 1.638-.346.266-.133.474-.296.619-.48.129.147.218.271.242.346-.01.312-.256.663-.663.944-.493.341-1.163.536-1.837.536s-1.344-.196-1.837-.536c-.41-.283-.657-.639-.663-.953.018-.076.105-.201.234-.348.146.189.357.356.628.492.446.223 1.027.346 1.638.346zm6.158.975c-1.99 2.07-3.869 4.025-5.658 4.025-1.312 0-2.135-.602-2.591-1.894-.203-.576-.306-1.225-.357-1.85.014.01.028.02.043.03.666.46 1.521.714 2.406.714s1.739-.253 2.406-.714c.113-.078.218-.161.315-.247-.015.741-.192 1.295-.195 1.302-.087.262.054.545.316.632.052.018.106.026.158.026.209 0 .404-.133.474-.342.016-.048.279-.856.245-1.902.91-.611 1.805-1.273 2.672-1.916 2.663-1.975 5.179-3.84 7.609-3.84.186 0 .382.051.573.13-3.396.624-6.044 3.379-8.414 5.845z"/><path d="m3.5 12c-.276 0-.5-.224-.5-.5 0-.924-.405-1.484-.875-2.133-.429-.593-.915-1.265-1.116-2.268-.27-1.349.443-2.235 1.073-3.016.729-.906 1.418-1.761.937-3.444-.076-.266.078-.542.343-.618s.542.078.618.343c.623 2.181-.343 3.382-1.12 4.346-.586.728-1.049 1.303-.871 2.193.158.79.54 1.319.945 1.879.523.724 1.064 1.472 1.064 2.719 0 .276-.224.5-.5.5z"/></svg>