<svg height="20" viewBox="0 0 20 20" width="20" xmlns="http://www.w3.org/2000/svg"><path d="m19.95 9.332c-.045-.125-.137-.227-.257-.284l-2.711-1.286s0 0 0 0l-16.268-7.714c-.191-.091-.418-.051-.568.098s-.189.377-.098.568l7.714 16.268s0 0 0 0l1.285 2.711c.057.12.159.212.284.257.054.019.111.029.168.029.074 0 .147-.016.215-.048 4.466-2.122 8.094-5.75 10.216-10.216.057-.12.064-.257.019-.382zm-5.95-1.332c0 .551-.449 1-1 1s-1-.449-1-1 .449-1 1-1c.012 0 .024-.001.036-.002l.711.337c.164.183.253.416.253.665zm-2.209-1.592c-.48.366-.791.943-.791 1.592 0 1.103.897 2 2 2s2-.897 2-2c0-.024-.002-.048-.006-.073l1.101.522c-1.676 3.281-4.365 5.97-7.646 7.646l-1.962-4.138c.168.029.34.044.514.044 1.654 0 3-1.346 3-3s-1.346-3-3-3c-.788 0-1.532.303-2.096.853-.207.202-.38.429-.519.674l-2.833-5.975 10.239 4.855zm-6.784 2.429c.082-1.038.937-1.837 1.993-1.837 1.103 0 2 .897 2 2s-.897 2-2 2c-.411 0-.801-.122-1.135-.353zm4.728 9.97-.858-1.809c3.489-1.775 6.346-4.632 8.121-8.121l1.809.858c-1.974 3.904-5.168 7.099-9.072 9.072z"/><path d="m4.5 5h1c.276 0 .5-.224.5-.5s-.224-.5-.5-.5h-1c-.276 0-.5.224-.5.5s.224.5.5.5z"/><path d="m11.5 13c.276 0 .5-.224.5-.5v-1c0-.276-.224-.5-.5-.5s-.5.224-.5.5v1c0 .276.224.5.5.5z"/></svg>