<svg height="20" viewBox="0 0 20 20" width="20" xmlns="http://www.w3.org/2000/svg"><path d="m13.5 20c-.04 0-.081-.005-.121-.015l-3.879-.97-3.879.97c-.149.037-.308.004-.429-.091s-.192-.24-.192-.394v-2c0-.174.091-.336.239-.426l2.182-1.336-.342-3.421-6.331 3.618c-.155.088-.345.088-.499-.002s-.249-.254-.249-.432v-2c0-.146.064-.285.175-.38l6.826-5.851c.013-2.458.232-4.307.653-5.498.517-1.464 1.289-1.771 1.847-1.771s1.33.307 1.847 1.771c.421 1.192.64 3.041.653 5.498l6.826 5.851c.111.095.175.234.175.38v2c0 .178-.095.343-.249.432s-.344.09-.499.002l-6.331-3.618-.342 3.421 2.182 1.336c.148.091.239.252.239.426v2c0 .154-.071.299-.192.394-.089.069-.197.106-.308.106zm-4-2c.041 0 .081.005.121.015l3.379.845v-1.079l-2.211-1.354c-.164-.1-.256-.285-.236-.476l.45-4.5c.017-.169.118-.317.268-.395s.33-.074.477.01l6.252 3.572v-.908l-6.825-5.85c-.111-.095-.175-.234-.175-.38 0-4.798-.808-6.5-1.5-6.5s-1.5 1.702-1.5 6.5c0 .146-.064.285-.175.38l-6.825 5.85v.908l6.252-3.573c.147-.084.327-.088.477-.01s.252.226.268.395l.45 4.5c.019.191-.073.376-.236.476l-2.211 1.354v1.079l3.379-.845c.04-.01.081-.015.121-.015z"/></svg>