<svg height="20" viewBox="0 0 20 20" width="20" xmlns="http://www.w3.org/2000/svg"><path d="m19.675 4.414c-.397-.687-1.157-1.141-2.199-1.311-.883-.145-1.951-.094-3.176.149-1.273-.815-2.753-1.251-4.301-1.251-2.137 0-4.146.832-5.657 2.343s-2.343 3.52-2.343 5.657c0 .116.003.232.008.347-.824.94-1.402 1.84-1.719 2.678-.373.988-.361 1.873.036 2.561.528.914 1.664 1.391 3.262 1.391.448 0 .932-.037 1.449-.113.218-.032.439-.07.664-.115 1.273.815 2.753 1.251 4.3 1.251 2.137 0 4.146-.832 5.657-2.343s2.343-3.52 2.343-5.657c0-.116-.003-.232-.008-.347.152-.173.297-.347.434-.52 1.481-1.873 1.925-3.549 1.249-4.719zm-9.675-1.414c3.623 0 6.613 2.767 6.965 6.3-1.29 1.391-3.063 2.765-5.096 3.938-2.031 1.173-4.106 2.021-5.955 2.443-1.764-1.272-2.915-3.344-2.915-5.681 0-3.86 3.14-7 7-7zm-8.809 12.086c-.431-.746-.059-1.969.993-3.372.322 1.482 1.061 2.844 2.16 3.942.087.087.176.172.267.255-1.753.211-2.992-.085-3.419-.825zm8.809 1.914c-1.016 0-1.982-.218-2.854-.609 1.673-.491 3.468-1.274 5.224-2.287s3.331-2.177 4.593-3.381c-.363 3.521-3.347 6.277-6.963 6.277zm5.657-12.657c-.087-.087-.176-.172-.267-.255 1.742-.211 2.989.079 3.42.826.427.74.065 1.96-.993 3.371-.322-1.482-1.061-2.844-2.16-3.942z"/></svg>