<svg height="20" viewBox="0 0 20 20" width="20" xmlns="http://www.w3.org/2000/svg"><path d="m18.825 13.12-6.593-5.651 4.654-5.651c.176-.213.145-.528-.068-.704s-.528-.145-.704.068l-4.135 5.02c-.064-1.932-.276-3.419-.633-4.432-.517-1.464-1.289-1.771-1.847-1.771s-1.33.307-1.847 1.771c-.421 1.192-.64 3.041-.653 5.498l-6.826 5.851c-.111.095-.175.234-.175.38v2c0 .178.095.343.249.432s.344.09.499.002l6.077-3.473-4.711 5.721c-.176.213-.145.528.068.704.093.077.206.114.318.114.144 0 .287-.062.386-.182l4.319-5.244.216 2.164-2.182 1.336c-.148.091-.239.252-.239.426v2c0 .154.071.299.192.394s.28.128.429.091l3.879-.97 3.879.97c.04.01.081.015.121.015.11 0 .219-.037.308-.106.121-.095.192-.24.192-.394v-2c0-.174-.091-.336-.239-.426l-2.182-1.336.342-3.421 6.331 3.618c.155.088.345.088.499-.002s.249-.254.249-.432v-2c0-.146-.064-.285-.175-.38zm-11.096-2.064c-.151-.078-.33-.074-.477.01l-6.252 3.573v-.908l6.825-5.85c.111-.095.175-.234.175-.38 0-4.798.808-6.5 1.5-6.5.687 0 1.488 1.677 1.5 6.392l-3.118 3.786c-.042-.05-.094-.092-.153-.122zm10.271 3.582-6.252-3.572c-.147-.084-.327-.088-.477-.01s-.252.226-.268.395l-.45 4.5c-.019.191.073.376.236.476l2.211 1.354v1.079l-3.379-.845c-.04-.01-.081-.015-.121-.015s-.081.005-.121.015l-3.379.845v-1.079l2.211-1.354c.164-.1.256-.285.236-.476l-.347-3.465 3.495-4.244 6.404 5.489v.908z"/></svg>