<svg height="20" viewBox="0 0 20 20" width="20" xmlns="http://www.w3.org/2000/svg"><path d="m18.5 17h-18c-.276 0-.5-.224-.5-.5s.224-.5.5-.5h18c.276 0 .5.224.5.5s-.224.5-.5.5z"/><path d="m18 14.474c-.007-2.261-.89-4.385-2.49-5.984-1.487-1.487-3.428-2.355-5.51-2.475v-1.015h.5c.276 0 .5-.224.5-.5s-.224-.5-.5-.5h-2c-.276 0-.5.224-.5.5s.224.5.5.5h.5v1.015c-2.082.12-4.023.988-5.51 2.475-1.605 1.605-2.49 3.74-2.49 6.01 0 .276.224.5.5.5h16 .001c.276 0 .5-.224.5-.5 0-.009 0-.017-.001-.026zm-15.984-.474c.258-3.903 3.516-7 7.484-7s7.225 3.097 7.484 7h-14.967z"/><path d="m4.626 11.5c-.101 0-.203-.031-.292-.094-.224-.161-.275-.474-.114-.698.493-.685 1.105-1.261 1.819-1.711.729-.46 1.53-.765 2.378-.907.272-.046.53.138.576.41s-.138.53-.41.576c-1.435.241-2.696 1.028-3.551 2.216-.098.136-.251.208-.406.208z"/></svg>