<svg height="20" viewBox="0 0 20 20" width="20" xmlns="http://www.w3.org/2000/svg"><path d="m9.5 20c-2.538 0-4.923-.988-6.718-2.782s-2.782-4.18-2.782-6.717c0-2.538.988-4.923 2.782-6.718s4.18-2.783 6.718-2.783 4.923.988 6.718 2.783 2.782 4.18 2.782 6.718-.988 4.923-2.782 6.717-4.18 2.782-6.718 2.782zm0-18c-4.687 0-8.5 3.813-8.5 8.5s3.813 8.5 8.5 8.5 8.5-3.813 8.5-8.5-3.813-8.5-8.5-8.5z"/><path d="m6.5 16c-.083 0-.167-.021-.242-.063-.159-.088-.258-.256-.258-.437v-10c0-.182.099-.349.258-.437s.353-.083.507.013l8 5c.146.091.235.252.235.424s-.089.333-.235.424l-8 5c-.081.051-.173.076-.265.076zm.5-9.598v8.196l6.557-4.098z"/></svg>