<svg height="20" viewBox="0 0 20 20" width="20" xmlns="http://www.w3.org/2000/svg"><path d="m16.5 6c-1.378 0-2.5-1.122-2.5-2.5 0-.276-.224-.5-.5-.5s-.5.224-.5.5v12.399c-.136-.092-.286-.179-.448-.26-.824-.412-1.907-.639-3.052-.639s-2.228.227-3.052.639c-.934.467-1.448 1.128-1.448 1.861s.514 1.395 1.448 1.861c.824.412 1.907.639 3.052.639s2.228-.227 3.052-.639c.934-.467 1.448-1.128 1.448-1.861v-11.553c.636.649 1.522 1.053 2.5 1.053 1.378 0 2.5 1.122 2.5 2.5 0 .276.224.5.5.5s.5-.224.5-.5c0-1.93-1.57-3.5-3.5-3.5zm-7 13c-2.003 0-3.5-.792-3.5-1.5s1.497-1.5 3.5-1.5 3.5.792 3.5 1.5-1.497 1.5-3.5 1.5z"/><path d="m10.5 13h-10c-.276 0-.5-.224-.5-.5s.224-.5.5-.5h10c.276 0 .5.224.5.5s-.224.5-.5.5z"/><path d="m10.5 10h-10c-.276 0-.5-.224-.5-.5s.224-.5.5-.5h10c.276 0 .5.224.5.5s-.224.5-.5.5z"/><path d="m10.5 7h-10c-.276 0-.5-.224-.5-.5s.224-.5.5-.5h10c.276 0 .5.224.5.5s-.224.5-.5.5z"/><path d="m10.5 4h-10c-.276 0-.5-.224-.5-.5s.224-.5.5-.5h10c.276 0 .5.224.5.5s-.224.5-.5.5z"/></svg>