<svg height="20" viewBox="0 0 20 20" width="20" xmlns="http://www.w3.org/2000/svg"><path d="m18.5 20h-17c-.827 0-1.5-.673-1.5-1.5v-17c0-.827.673-1.5 1.5-1.5h17c.827 0 1.5.673 1.5 1.5v17c0 .827-.673 1.5-1.5 1.5zm-17-19c-.276 0-.5.224-.5.5v17c0 .276.224.5.5.5h17c.276 0 .5-.224.5-.5v-17c0-.276-.224-.5-.5-.5z"/><path d="m6.5 16c-.08 0-.16-.019-.233-.057-.164-.086-.267-.257-.267-.442v-11c0-.186.103-.356.267-.442s.363-.075.516.031l8 5.5c.136.093.217.247.217.412s-.081.319-.217.412l-8 5.5c-.085.058-.184.088-.283.088zm.5-10.549v9.099l6.617-4.549-6.617-4.549z"/></svg>