<svg height="20" viewBox="0 0 20 20" width="20" xmlns="http://www.w3.org/2000/svg"><path d="m18.5 8h-5.5v-4.5c0-.276-.224-.5-.5-.5h-6c-.276 0-.5.224-.5.5v2.5h-5.5c-.276 0-.5.224-.5.5v10c0 .276.224.5.5.5h18c.276 0 .5-.224.5-.5v-8c0-.276-.224-.5-.5-.5zm-11.5-4h5v12h-5zm-6 3h5v9h-5zm17 9h-5v-7h5z"/><path d="m9.5 10c-.276 0-.5-.224-.5-.5v-4c0-.276.224-.5.5-.5s.5.224.5.5v4c0 .276-.224.5-.5.5z"/><path d="m4.5 13h-2c-.276 0-.5-.224-.5-.5v-2c0-.276.224-.5.5-.5h1.5v-1h-1.5c-.276 0-.5-.224-.5-.5s.224-.5.5-.5h2c.276 0 .5.224.5.5v2c0 .276-.224.5-.5.5h-1.5v1h1.5c.276 0 .5.224.5.5s-.224.5-.5.5z"/><path d="m16.5 10h-2c-.276 0-.5.224-.5.5s.224.5.5.5h1.5v1h-1.5c-.276 0-.5.224-.5.5s.224.5.5.5h1.5v1h-1.5c-.276 0-.5.224-.5.5s.224.5.5.5h2c.276 0 .5-.224.5-.5v-4c0-.276-.224-.5-.5-.5z"/></svg>