<svg height="20" viewBox="0 0 20 20" width="20" xmlns="http://www.w3.org/2000/svg"><path d="m15.5 15c.276 0 .5-.224.5-.5s-.224-.5-.5-.5-.5.224-.5.5.224.5.5.5z"/><path d="m8.5 17c-.827 0-1.5-.673-1.5-1.5 0-.195.038-.382.106-.553-.637-.173-1.106-.756-1.106-1.447 0-.195.038-.382.106-.553-.637-.174-1.106-.756-1.106-1.447 0-.175.03-.344.086-.5h-2.586c-.827 0-1.5-.673-1.5-1.5s.673-1.5 1.5-1.5h5.966l-1.113-1.406c-.241-.304-.361-.695-.339-1.098s.186-.779.46-1.053c.581-.581 1.532-.583 2.12-.003l3.523 3.479c.227-.54.762-.919 1.383-.919h2c.827 0 1.5.673 1.5 1.5v7c0 .827-.673 1.5-1.5 1.5h-2c-.541 0-1.016-.288-1.28-.719-.636.328-1.798.719-3.72.719zm-.318-11.85c-.207.207-.227.592-.044.823l1.754 2.216c.119.15.142.355.058.528s-.258.282-.45.282h-7c-.276 0-.5.224-.5.5s.224.5.5.5h5c.276 0 .5.224.5.5s-.224.5-.5.5h-1c-.276 0-.5.224-.5.5s.224.5.5.5h1c.276 0 .5.224.5.5s-.224.5-.5.5-.5.224-.5.5.224.5.5.5h1c.276 0 .5.224.5.5s-.224.5-.5.5-.5.224-.5.5.224.5.5.5h1c2.102 0 3.139-.516 3.5-.748v-6.043l-4.108-4.057c-.194-.192-.519-.192-.71-.002zm8.318 10.85c.276 0 .5-.224.5-.5v-7c0-.276-.224-.5-.5-.5h-2c-.276 0-.5.224-.5.5v7c0 .276.224.5.5.5z"/></svg>