<svg height="20" viewBox="0 0 20 20" width="20" xmlns="http://www.w3.org/2000/svg"><path d="m12 17c0-.412-.125-.794-.339-1.113.779-.274 1.339-1.016 1.339-1.887 0-.412-.125-.794-.339-1.113.779-.274 1.339-1.016 1.339-1.887 0-.364-.098-.706-.269-1h3.269c1.103 0 2-.897 2-2s-.897-2-2-2h-7.373l2.333-1.346c.475-.261.813-.687.953-1.199.136-.499.064-1.018-.202-1.462-.544-.907-1.774-1.253-2.742-.77-.061.03-1.368.668-5.35 2.66-1.875.938-3.216 1.967-3.984 3.059-.603.857-.634 1.449-.634 1.559v5c0 .848.245 1.632.73 2.331.468.676 1.152 1.259 2.033 1.734 1.743.939 4.246 1.435 7.237 1.435 1.103 0 2-.897 2-2zm-8.763-.315c-1.021-.549-2.237-1.548-2.237-3.185v-4.99c.003-.039.05-.46.525-1.095.474-.633 1.472-1.605 3.54-2.638 4.054-2.027 5.331-2.65 5.343-2.656.002-.001.003-.001.004-.002.503-.251 1.162-.073 1.439.389.125.208.158.451.095.685-.068.249-.236.458-.472.587-.003.002-.007.004-.01.006l-2.705 1.561c-.583.319-.828.678-.729 1.067.099.39.489.587 1.157.587h7.812c.551 0 1 .449 1 1s-.449 1-1 1h-6.5c-.276 0-.5.224-.5.5s.224.5.5.5h1.5c.551 0 1 .449 1 1s-.449 1-1 1h-1.5c-.276 0-.5.224-.5.5s.224.5.5.5h.5c.551 0 1 .449 1 1s-.449 1-1 1h-1.5c-.276 0-.5.224-.5.5s.224.5.5.5h.5c.551 0 1 .449 1 1s-.449 1-1 1c-2.826 0-5.165-.455-6.763-1.315z"/></svg>