<svg height="20" viewBox="0 0 20 20" width="20" xmlns="http://www.w3.org/2000/svg"><path d="m17.913 12.637c.714-.644 1.087-1.372 1.087-2.137 0-1.019-.678-2.035-1.911-2.862-.34-.228-.718-.439-1.127-.63.024-.168.037-.337.037-.508 0-1.307-.585-3.5-4.5-3.5-.684 0-1.5-.173-1.5-1 0-.453.578-.948.779-1.085.183-.123.264-.35.2-.561s-.258-.354-.478-.354c-1.567 0-3.178.515-4.418 1.413-.633.458-1.135.988-1.493 1.575-.391.641-.589 1.318-.589 2.012 0 .288.024.574.07.855-.849.41-1.566.951-2.09 1.581-.641.77-.98 1.657-.98 2.564 0 .561.129 1.133.375 1.685-.901.842-1.375 1.809-1.375 2.815 0 1.53 1.083 2.943 3.05 3.978 1.865.981 4.333 1.522 6.95 1.522 2.603 0 5.057-.43 6.912-1.211 1.992-.839 3.088-2.007 3.088-3.289 0-1.041-.74-2.053-2.087-2.863zm-1.39 5.231c-1.734.73-4.051 1.132-6.523 1.132-2.458 0-4.761-.5-6.485-1.407-1.622-.854-2.515-1.952-2.515-3.093 0-.782.423-1.435.89-1.919.108.152.226.301.353.446.796.909 1.904 1.603 3.118 1.953.046.013.093.02.139.02.217 0 .417-.142.48-.361.077-.265-.076-.542-.342-.619-2.074-.599-3.639-2.327-3.639-4.02 0-1.224.88-2.399 2.329-3.155.524 1.443 1.63 2.641 3.004 3.127.055.019.111.029.167.029.206 0 .399-.128.471-.333.092-.26-.044-.546-.305-.638-1.52-.537-2.667-2.269-2.667-4.029 0-1.012.592-1.998 1.668-2.777.744-.538 1.643-.918 2.578-1.1-.144.258-.246.554-.246.877 0 .967.657 2 2.5 2 1.278 0 2.219.254 2.797.756.466.405.703.992.703 1.744 0 .038-.001.075-.003.113-.748-.266-1.566-.473-2.42-.607-.273-.043-.529.144-.572.416s.144.529.416.572c1.611.253 3.071.777 4.11 1.474.947.635 1.468 1.357 1.468 2.032 0 .68-.53 1.245-1.053 1.637-1.232-.55-2.755-.946-4.39-1.133-.274-.031-.522.166-.554.44s.166.522.44.554c1.886.216 3.598.72 4.822 1.419 1.119.639 1.735 1.379 1.735 2.084 0 .842-.903 1.705-2.477 2.368z"/></svg>