<svg height="20" viewBox="0 0 20 20" width="20" xmlns="http://www.w3.org/2000/svg"><path d="m18.5 20h-17c-.827 0-1.5-.673-1.5-1.5v-17c0-.827.673-1.5 1.5-1.5h17c.827 0 1.5.673 1.5 1.5v17c0 .827-.673 1.5-1.5 1.5zm-17-19c-.276 0-.5.224-.5.5v17c0 .276.224.5.5.5h17c.276 0 .5-.224.5-.5v-17c0-.276-.224-.5-.5-.5z"/><path d="m17.5 2h-15c-.276 0-.5.224-.5.5v12c0 .276.224.5.5.5h10.794.003s.002 0 .003 0h4.2c.276 0 .5-.224.5-.5v-12c0-.276-.224-.5-.5-.5zm-9.964 12c.506-.664 1.331-1 2.464-1s1.959.336 2.464 1zm9.464 0h-3.373c-.418-.864-1.393-2-3.627-2s-3.209 1.136-3.627 2h-3.373v-11h14z"/><path d="m10 11c-1.654 0-3-1.346-3-3s1.346-3 3-3 3 1.346 3 3-1.346 3-3 3zm0-5c-1.103 0-2 .897-2 2s.897 2 2 2 2-.897 2-2-.897-2-2-2z"/></svg>