<svg height="20" viewBox="0 0 20 20" width="20" xmlns="http://www.w3.org/2000/svg"><path d="m9.5 12c-.276 0-.5-.224-.5-.5v-9c0-.276.224-.5.5-.5s.5.224.5.5v9c0 .276-.224.5-.5.5z"/><path d="m9.5 19c-2.003 0-3.887-.78-5.303-2.197s-2.197-3.3-2.197-5.303c0-1.648.525-3.212 1.517-4.523.96-1.268 2.324-2.215 3.84-2.666.265-.079.543.072.622.337s-.072.543-.337.622c-2.733.814-4.643 3.376-4.643 6.231 0 3.584 2.916 6.5 6.5 6.5s6.5-2.916 6.5-6.5c0-2.855-1.909-5.417-4.643-6.231-.265-.079-.415-.357-.337-.622s.357-.415.622-.337c1.517.451 2.88 1.398 3.84 2.666.993 1.311 1.517 2.875 1.517 4.523 0 2.003-.78 3.887-2.197 5.303s-3.3 2.197-5.303 2.197z"/></svg>