<svg height="20" viewBox="0 0 20 20" width="20" xmlns="http://www.w3.org/2000/svg"><path d="m5.5 20c-.098 0-.197-.029-.283-.088-.199-.136-.272-.395-.174-.615l3.243-7.297h-4.786c-.202 0-.385-.122-.462-.309s-.035-.402.108-.545l10-10c.17-.17.438-.195.637-.059s.272.395.174.615l-3.243 7.297h4.786c.202 0 .385.122.462.309s.035.402-.108.545l-10 10c-.097.097-.225.146-.354.146zm-.793-9h4.348c.169 0 .327.086.419.228s.106.321.038.476l-2.462 5.539 7.242-7.242h-4.348c-.169 0-.327-.086-.419-.228s-.106-.321-.038-.476l2.462-5.539z"/></svg>