<svg height="20" viewBox="0 0 20 20" width="20" xmlns="http://www.w3.org/2000/svg"><path d="m18.895 3.193c-.17-.218-.484-.257-.702-.088l-7.427 5.776 3.19-7.178c.098-.22.025-.479-.174-.615s-.466-.112-.637.059l-10 10c-.143.143-.186.358-.108.545s.26.309.462.309h3.257l-6.564 5.105c-.218.17-.257.484-.088.702.099.127.246.193.395.193.107 0 .215-.034.307-.105l7.427-5.776-3.19 7.178c-.098.22-.025.479.174.615.086.059.185.088.283.088.129 0 .257-.05.354-.146l10-10c.143-.143.186-.358.108-.545s-.26-.309-.462-.309h-3.257l6.564-5.105c.218-.17.257-.484.088-.702zm-14.188 7.807 7.242-7.242-2.462 5.539c-.069.155-.055.334.038.476.011.017.023.032.035.047l-1.517 1.18zm9.586-1-7.242 7.242 2.462-5.539c.069-.155.055-.334-.038-.476-.011-.017-.023-.032-.035-.047l1.517-1.18z"/></svg>