<svg height="20" viewBox="0 0 20 20" width="20" xmlns="http://www.w3.org/2000/svg"><path d="m18.5 0h-18c-.276 0-.5.224-.5.5v15c0 .276.224.5.5.5h7.793l-3.146 3.146c-.195.195-.195.512 0 .707.098.098.226.146.354.146s.256-.049.354-.146l3.146-3.146v2.793c0 .276.224.5.5.5s.5-.224.5-.5v-2.793l3.146 3.146c.098.098.226.146.354.146s.256-.049.354-.146c.195-.195.195-.512 0-.707l-3.146-3.146h7.793c.276 0 .5-.224.5-.5v-15c0-.276-.224-.5-.5-.5zm-17.5 1h17v12h-17zm17 14h-17v-1h17z"/><path d="m12.787 6.59-5-3.5c-.153-.107-.352-.12-.518-.034s-.269.257-.269.443v7c0 .186.104.357.269.443.073.038.152.057.231.057.101 0 .201-.03.287-.09l5-3.5c.134-.094.213-.246.213-.41s-.08-.316-.213-.41zm-4.787 2.95v-5.079l3.628 2.54-3.628 2.54z"/></svg>