<svg height="20" viewBox="0 0 20 20" width="20" xmlns="http://www.w3.org/2000/svg"><path d="m18.5 4h-1.5v-2.5c0-.827-.673-1.5-1.5-1.5h-11c-.827 0-1.5.673-1.5 1.5v2.5h-1.5c-.827 0-1.5.673-1.5 1.5v9c0 .827.673 1.5 1.5 1.5h1.5v2.5c0 .827.673 1.5 1.5 1.5h11c.827 0 1.5-.673 1.5-1.5v-2.5h1.5c.827 0 1.5-.673 1.5-1.5v-9c0-.827-.673-1.5-1.5-1.5zm-14.5-2.5c0-.276.224-.5.5-.5h11c.276 0 .5.224.5.5v2.5h-12zm11.5 17.5h-11c-.276 0-.5-.224-.5-.5v-6.5h12v6.5c0 .276-.224.5-.5.5zm3.5-4.5c0 .276-.224.5-.5.5h-1.5v-3h.5c.276 0 .5-.224.5-.5s-.224-.5-.5-.5h-15c-.276 0-.5.224-.5.5s.224.5.5.5h.5v3h-1.5c-.276 0-.5-.224-.5-.5v-9c0-.276.224-.5.5-.5h17c.276 0 .5.224.5.5z"/><path d="m14.5 14h-9c-.276 0-.5-.224-.5-.5s.224-.5.5-.5h9c.276 0 .5.224.5.5s-.224.5-.5.5z"/><path d="m14.5 16h-9c-.276 0-.5-.224-.5-.5s.224-.5.5-.5h9c.276 0 .5.224.5.5s-.224.5-.5.5z"/><path d="m14.5 18h-9c-.276 0-.5-.224-.5-.5s.224-.5.5-.5h9c.276 0 .5.224.5.5s-.224.5-.5.5z"/><path d="m16.5 9c-.827 0-1.5-.673-1.5-1.5s.673-1.5 1.5-1.5 1.5.673 1.5 1.5-.673 1.5-1.5 1.5zm0-2c-.276 0-.5.224-.5.5s.224.5.5.5.5-.224.5-.5-.224-.5-.5-.5z"/></svg>