<svg height="20" viewBox="0 0 20 20" width="20" xmlns="http://www.w3.org/2000/svg"><path d="m18.5 17h-17c-.827 0-1.5-.673-1.5-1.5v-11c0-.827.673-1.5 1.5-1.5h17c.827 0 1.5.673 1.5 1.5v11c0 .827-.673 1.5-1.5 1.5zm-17-13c-.276 0-.5.224-.5.5v11c0 .276.224.5.5.5h17c.276 0 .5-.224.5-.5v-11c0-.276-.224-.5-.5-.5z"/><path d="m8.501 14s0 0-.001 0h-5c-.276 0-.5-.224-.5-.5 0-.066.011-.661.388-1.265.352-.563 1.091-1.235 2.612-1.235s2.259.672 2.612 1.235c.338.541.382 1.074.388 1.227.001.012.001.025.001.038 0 .276-.224.5-.5.5zm-4.384-1h3.766c-.035-.086-.081-.177-.14-.267-.322-.487-.908-.733-1.743-.733s-1.421.247-1.743.733c-.059.09-.105.18-.14.267z"/><path d="m16.5 8h-5c-.276 0-.5-.224-.5-.5s.224-.5.5-.5h5c.276 0 .5.224.5.5s-.224.5-.5.5z"/><path d="m15.5 10h-4c-.276 0-.5-.224-.5-.5s.224-.5.5-.5h4c.276 0 .5.224.5.5s-.224.5-.5.5z"/><path d="m15.5 12h-4c-.276 0-.5-.224-.5-.5s.224-.5.5-.5h4c.276 0 .5.224.5.5s-.224.5-.5.5z"/><path d="m6 10c-1.103 0-2-.897-2-2s.897-2 2-2 2 .897 2 2-.897 2-2 2zm0-3c-.551 0-1 .449-1 1s.449 1 1 1 1-.449 1-1-.449-1-1-1z"/><path d="m16.5 14h-5c-.276 0-.5-.224-.5-.5s.224-.5.5-.5h5c.276 0 .5.224.5.5s-.224.5-.5.5z"/></svg>