<svg height="20" viewBox="0 0 20 20" width="20" xmlns="http://www.w3.org/2000/svg"><path d="m17.071 2.929c-1.889-1.889-4.4-2.929-7.071-2.929s-5.182 1.04-7.071 2.929-2.929 4.4-2.929 7.071 1.04 5.182 2.929 7.071 4.4 2.929 7.071 2.929 5.182-1.04 7.071-2.929 2.929-4.4 2.929-7.071-1.04-5.182-2.929-7.071zm-7.071-1.929c2.532 0 4.823 1.051 6.46 2.74l-13.575 11.765c-1.181-1.523-1.885-3.433-1.885-5.505 0-4.963 4.037-9 9-9zm0 18c-2.532 0-4.823-1.051-6.46-2.74l13.575-11.765c1.181 1.523 1.885 3.433 1.885 5.505 0 4.963-4.037 9-9 9z"/></svg>