<svg height="20" viewBox="0 0 20 20" width="20" xmlns="http://www.w3.org/2000/svg"><path d="m14 4.5c0-2.481-2.019-4.5-4.5-4.5s-4.5 2.019-4.5 4.5c0 1.956 1.254 3.623 3 4.243v10.757c0 .22.144.415.355.479.048.014.097.022.145.022.164 0 .322-.081.416-.223l2-3c.055-.082.084-.179.084-.277v-7.757c1.746-.619 3-2.287 3-4.243zm-4 11.849-1 1.5v-8.877c.164.018.331.028.5.028s.336-.01.5-.028zm-.5-8.349c-1.93 0-3.5-1.57-3.5-3.5s1.57-3.5 3.5-3.5 3.5 1.57 3.5 3.5-1.57 3.5-3.5 3.5z"/><path d="m7.5 5c-.276 0-.5-.224-.5-.5 0-1.378 1.122-2.5 2.5-2.5.276 0 .5.224.5.5s-.224.5-.5.5c-.827 0-1.5.673-1.5 1.5 0 .276-.224.5-.5.5z"/></svg>