<svg height="20" viewBox="0 0 20 20" width="20" xmlns="http://www.w3.org/2000/svg"><path d="m18 6.793-5.293-5.293c-.188-.188-.44-.292-.707-.292s-.519.104-.707.292l-.293.293c-.29.29-.5.797-.5 1.207v1c0 .142-.106.399-.207.5l-2.793 2.793c-.101.101-.358.207-.5.207h-1c-.41 0-.917.21-1.207.5l-.293.293c-.39.39-.39 1.024 0 1.414l1.553 1.553-4.95 6.435c-.153.199-.135.481.043.658.097.097.225.146.354.146.107 0 .214-.034.305-.104l6.435-4.95 1.553 1.553c.188.188.44.292.707.292s.519-.104.707-.292l.293-.293c.29-.29.5-.797.5-1.207v-1c0-.142.106-.399.207-.5l2.793-2.793c.101-.101.358-.207.5-.207h1c.41 0 .917-.21 1.207-.5l.293-.293c.188-.188.292-.44.292-.707s-.104-.519-.292-.707zm-13.766 8.473 2.533-3.293.76.76zm12.766-7.473c-.101.101-.358.207-.5.207h-1c-.41 0-.917.21-1.207.5l-2.793 2.793c-.29.29-.5.797-.5 1.207v1c0 .142-.106.399-.207.5l-.292.292h-.001v.001l-5.293-5.293.293-.293c.101-.101.358-.207.5-.207h1c.41 0 .917-.21 1.207-.5l2.793-2.793c.29-.29.5-.797.5-1.207v-1c0-.142.106-.399.207-.5l.293-.293 5.293 5.293z"/></svg>