<svg height="20" viewBox="0 0 20 20" width="20" xmlns="http://www.w3.org/2000/svg"><path d="m18.763 5.075c-.147-.091-.331-.099-.486-.022-.008.004-.822.409-1.765.716-1.576.514-2.14.326-2.309.221-.061-.038-.203-.125-.203-.49 0-.315.158-.587.357-.931.286-.494.643-1.109.643-2.069 0-.669-.463-1.327-1.27-1.805-.757-.448-1.726-.695-2.73-.695s-1.973.247-2.73.695c-.807.478-1.27 1.136-1.27 1.805 0 .96.357 1.575.643 2.069.199.344.357.616.357.931 0 .268-.099.37-.195.435-.199.133-.878.383-2.886-.15-1.18-.313-2.216-.743-2.227-.747-.134-.056-.287-.051-.417.015s-.225.184-.261.326c-.012.05-.306 1.232-.505 2.563-.383 2.56-.064 3.321.209 3.671.195.25.473.388.781.388.679 0 1.127-.52 1.56-1.022s.843-.978 1.44-.978 1.5 1.197 1.5 3-.903 3-1.5 3-1.006-.475-1.44-.978-.882-1.022-1.56-1.022c-.337 0-.633.149-.833.418-.247.333-.532 1.02-.143 3.14.2 1.09.485 2.045.497 2.085.063.211.258.356.479.356h14c1.378 0 2.5-1.122 2.5-2.5v-12c0-.173-.09-.334-.237-.425zm-.763 12.425c0 .827-.673 1.5-1.5 1.5h-13.621c-.107-.396-.277-1.073-.399-1.779-.32-1.856-.022-2.197.002-2.219.003-.001.009-.001.019-.001.22 0 .517.343.803.676.509.59 1.142 1.324 2.197 1.324.669 0 1.327-.463 1.805-1.27.448-.757.695-1.726.695-2.73s-.247-1.973-.695-2.73c-.478-.807-1.136-1.27-1.805-1.27-1.055 0-1.688.734-2.197 1.324-.282.327-.574.666-.794.675-.054-.065-.35-.538-.031-2.772.113-.792.269-1.559.378-2.053.434.161 1.084.385 1.795.574 1.796.478 3.009.484 3.708.018.292-.195.641-.573.641-1.267 0-.584-.25-1.015-.492-1.432-.261-.451-.508-.876-.508-1.568 0-.597 1.197-1.5 3-1.5s3 .903 3 1.5c0 .691-.247 1.117-.508 1.568-.242.417-.492.848-.492 1.432 0 .762.368 1.15.677 1.341.646.399 1.679.359 3.156-.125.438-.143.844-.303 1.167-.44v11.224z"/></svg>