<svg height="20" viewBox="0 0 20 20" width="20" xmlns="http://www.w3.org/2000/svg"><path d="m16.218 3.782c-1.794-1.794-4.18-2.782-6.718-2.782s-4.923.988-6.718 2.782-2.782 4.18-2.782 6.717.988 4.923 2.782 6.718 4.18 2.782 6.718 2.782 4.923-.988 6.718-2.782 2.782-4.18 2.782-6.718-.988-4.923-2.782-6.717zm-6.718 15.218c-4.687 0-8.5-3.813-8.5-8.5s3.813-8.5 8.5-8.5 8.5 3.813 8.5 8.5-3.813 8.5-8.5 8.5z"/><path d="m9.5 15c-.276 0-.5-.224-.5-.5v-2c0-.276.224-.5.5-.5 1.93 0 3.5-1.57 3.5-3.5s-1.57-3.5-3.5-3.5-3.5 1.57-3.5 3.5c0 .276-.224.5-.5.5s-.5-.224-.5-.5c0-2.481 2.019-4.5 4.5-4.5s4.5 2.019 4.5 4.5c0 2.312-1.753 4.223-4 4.472v1.528c0 .276-.224.5-.5.5z"/><path d="m9.5 18c-.276 0-.5-.224-.5-.5v-1c0-.276.224-.5.5-.5.276 0 .5.224.5.5v1c0 .276-.224.5-.5.5z"/></svg>