<svg height="20" viewBox="0 0 20 20" width="20" xmlns="http://www.w3.org/2000/svg"><path d="m4.5 13c.924 0 1.783-.28 2.499-.759-1.297 2.245-3.725 3.759-6.499 3.759-.276 0-.5.224-.5.5s.224.5.5.5c2.27 0 4.405-.884 6.01-2.49s2.49-3.74 2.49-6.01c0-2.481-2.019-4.5-4.5-4.5s-4.5 2.019-4.5 4.5 2.019 4.5 4.5 4.5zm0-8c1.93 0 3.5 1.57 3.5 3.5 0 .03-.001.06-.001.09-.048 1.888-1.599 3.41-3.499 3.41-1.93 0-3.5-1.57-3.5-3.5s1.57-3.5 3.5-3.5z"/><path d="m11.5 16c-.276 0-.5.224-.5.5s.224.5.5.5c2.27 0 4.405-.884 6.01-2.49s2.49-3.74 2.49-6.01c0-2.481-2.019-4.5-4.5-4.5s-4.5 2.019-4.5 4.5 2.019 4.5 4.5 4.5c.924 0 1.783-.28 2.499-.759-1.297 2.245-3.725 3.759-6.499 3.759zm4-4c-1.93 0-3.5-1.57-3.5-3.5s1.57-3.5 3.5-3.5 3.5 1.57 3.5 3.5c0 .03-.001.06-.001.09-.048 1.888-1.599 3.41-3.499 3.41z"/></svg>