<svg height="20" viewBox="0 0 20 20" width="20" xmlns="http://www.w3.org/2000/svg"><path d="m9.5 20c-2.538 0-4.923-.988-6.718-2.782s-2.782-4.18-2.782-6.717c0-2.538.988-4.923 2.782-6.718s4.18-2.783 6.718-2.783 4.923.988 6.718 2.783 2.782 4.18 2.782 6.718-.988 4.923-2.782 6.717-4.18 2.782-6.718 2.782zm0-18c-4.687 0-8.5 3.813-8.5 8.5s3.813 8.5 8.5 8.5 8.5-3.813 8.5-8.5-3.813-8.5-8.5-8.5z"/><path d="m9.5 17c-1.547 0-3.045-.553-4.22-1.556-1.161-.992-1.939-2.363-2.191-3.862-.046-.272.138-.53.41-.576s.53.138.576.41c.446 2.655 2.727 4.583 5.424 4.583 3.033 0 5.5-2.467 5.5-5.5 0-.276.224-.5.5-.5s.5.224.5.5c0 3.584-2.916 6.5-6.5 6.5z"/><path d="m10.5 13.829c-.206 0-.399-.128-.471-.333-.092-.26.044-.546.305-.638.997-.352 1.667-1.3 1.667-2.358 0-.276.224-.5.5-.5s.5.224.5.5c0 1.481-.938 2.807-2.333 3.301-.055.019-.111.029-.167.029z"/><path d="m12.724 4.053c-.247-.123-.547-.023-.671.224l-.101.202c-.776-.317-1.599-.479-2.452-.479-1.547 0-3.045.553-4.22 1.556-1.161.992-1.939 2.363-2.191 3.862-.046.272.138.53.41.576.028.005.056.007.083.007.24 0 .452-.173.492-.417.445-2.655 2.727-4.583 5.424-4.583.696 0 1.367.126 2.003.376l-.901 1.801c-.353-.118-.722-.177-1.103-.177-1.93 0-3.5 1.57-3.5 3.5 0 1.481.938 2.807 2.333 3.301.055.019.111.029.167.029.206 0 .399-.128.471-.333.092-.26-.044-.546-.305-.638-.997-.352-1.667-1.3-1.667-2.358 0-1.378 1.122-2.5 2.5-2.5.222 0 .439.028.649.085l-.464.927c-.061-.008-.122-.012-.185-.012-.827 0-1.5.673-1.5 1.5s.673 1.5 1.5 1.5 1.5-.673 1.5-1.5c0-.404-.161-.77-.421-1.04l.709-1.419s0-.001.001-.001 0-.001 0-.001l1.341-2.682v-.001s0-.001 0-.001l.316-.632c.123-.247.023-.547-.224-.671zm-3.224 6.947c-.276 0-.5-.224-.5-.5s.224-.5.5-.5.5.224.5.5-.224.5-.5.5z"/></svg>