<svg height="20" viewBox="0 0 20 20" width="20" xmlns="http://www.w3.org/2000/svg"><path d="m10 20c-2.671 0-5.182-1.04-7.071-2.929s-2.929-4.4-2.929-7.071 1.04-5.182 2.929-7.071 4.4-2.929 7.071-2.929 5.182 1.04 7.071 2.929 2.929 4.4 2.929 7.071-1.04 5.182-2.929 7.071-4.4 2.929-7.071 2.929zm0-19c-4.963 0-9 4.037-9 9s4.037 9 9 9 9-4.037 9-9-4.037-9-9-9z"/><path d="m10 16c-3.308 0-6-2.692-6-6s2.692-6 6-6 6 2.692 6 6-2.692 6-6 6zm0-11c-2.757 0-5 2.243-5 5s2.243 5 5 5 5-2.243 5-5-2.243-5-5-5z"/></svg>