<svg height="20" viewBox="0 0 20 20" width="20" xmlns="http://www.w3.org/2000/svg"><path d="m2.5 9c-.668 0-1.296-.26-1.768-.732-.975-.975-.975-2.561 0-3.536.554-.554 1.757-1.051 3.151-1.626.81-.334 1.647-.68 2.393-1.053.193-.096.425-.059.577.094s.19.385.094.577c-.373.746-.719 1.584-1.053 2.393-.575 1.394-1.072 2.597-1.626 3.151-.472.472-1.1.732-1.768.732zm2.979-5.479c-.403.174-.812.343-1.214.509-1.186.49-2.413.996-2.825 1.409-.585.585-.585 1.536 0 2.121.283.283.66.439 1.061.439s.777-.156 1.061-.439c.413-.413.919-1.639 1.409-2.825.166-.402.335-.811.509-1.214z"/><path d="m15.5 18c-.668 0-1.296-.26-1.768-.732-.975-.975-.975-2.561 0-3.536.554-.554 1.757-1.051 3.151-1.626.81-.334 1.647-.68 2.393-1.053.192-.096.425-.058.577.094s.19.385.094.577c-.373.746-.719 1.584-1.053 2.393-.575 1.394-1.072 2.597-1.626 3.151-.472.472-1.1.732-1.768.732zm2.979-5.479c-.403.174-.812.343-1.214.509-1.186.49-2.413.996-2.825 1.409-.585.585-.585 1.536 0 2.121.283.283.66.439 1.061.439s.777-.156 1.061-.439c.413-.413.919-1.639 1.409-2.825.166-.402.335-.811.509-1.214z"/><path d="m13.5 7c-.668 0-1.296-.26-1.768-.732-.975-.975-.975-2.561 0-3.536.554-.554 1.757-1.051 3.151-1.626.81-.334 1.647-.68 2.393-1.053.192-.096.425-.059.577.094s.19.385.094.577c-.373.746-.719 1.584-1.053 2.393-.575 1.394-1.072 2.597-1.626 3.151-.472.472-1.1.732-1.768.732zm2.979-5.479c-.403.174-.812.343-1.214.509-1.186.49-2.413.996-2.825 1.409-.585.585-.585 1.536 0 2.121.283.283.66.439 1.061.439s.777-.156 1.061-.439c.413-.413.919-1.639 1.409-2.825.166-.402.335-.811.509-1.214z"/><path d="m4.5 20c-.668 0-1.296-.26-1.768-.732-.975-.975-.975-2.561 0-3.536.554-.554 1.757-1.051 3.151-1.626.81-.334 1.647-.68 2.393-1.053.193-.096.425-.058.577.094s.19.385.094.577c-.373.746-.719 1.584-1.053 2.393-.575 1.394-1.072 2.597-1.626 3.151-.472.472-1.1.732-1.768.732zm2.979-5.479c-.403.174-.812.343-1.214.509-1.186.49-2.413.996-2.825 1.409-.585.585-.585 1.536 0 2.121.283.283.66.439 1.061.439s.777-.156 1.061-.439c.413-.413.919-1.639 1.409-2.825.166-.402.335-.811.509-1.214z"/></svg>