<svg height="20" viewBox="0 0 20 20" width="20" xmlns="http://www.w3.org/2000/svg"><path d="m18.5 5c-.049 0-1.218.006-2.955.521-1.515.449-3.764 1.386-6.045 3.318-2.281-1.931-4.531-2.869-6.045-3.318-1.737-.515-2.906-.521-2.955-.521-.276 0-.5.224-.5.5v10c0 .133.053.26.146.354s.221.146.354.146c.043 0 4.36.044 8.668 3.874.095.084.213.126.332.126s.237-.042.332-.126c2.241-1.992 4.476-2.939 5.957-3.382 1.609-.482 2.701-.492 2.711-.492.276 0 .5-.224.5-.5v-10c0-.276-.224-.5-.5-.5zm-17.5 4h.5c.276 0 .5.224.5.5v2c0 .276-.224.5-.5.5h-.5zm0 6.029v-2.029h.5c.827 0 1.5-.673 1.5-1.5v-2c0-.827-.673-1.5-1.5-1.5h-.5v-1.965c1.241.131 4.606.751 8 3.692v8.704c-2.106-1.658-4.141-2.494-5.545-2.91-1.084-.321-1.947-.444-2.455-.491zm14.545.492c-1.404.416-3.439 1.252-5.545 2.91v-8.704c2.184-1.891 4.345-2.803 5.789-3.235.962-.288 1.74-.408 2.211-.457v1.965h-.5c-.827 0-1.5.673-1.5 1.5v2c0 .827.673 1.5 1.5 1.5h.5v2.029c-.507.047-1.37.17-2.455.491zm2.455-6.521v3h-.5c-.276 0-.5-.224-.5-.5v-2c0-.276.224-.5.5-.5z"/><path d="m9.5 7c1.93 0 3.5-1.57 3.5-3.5s-1.57-3.5-3.5-3.5-3.5 1.57-3.5 3.5 1.57 3.5 3.5 3.5zm0-6c1.378 0 2.5 1.122 2.5 2.5s-1.122 2.5-2.5 2.5-2.5-1.122-2.5-2.5 1.122-2.5 2.5-2.5z"/></svg>