<svg height="20" viewBox="0 0 20 20" width="20" xmlns="http://www.w3.org/2000/svg"><path d="m17.5 20c-.076 0-.153-.017-.224-.053l-1.776-.888-1.776.888c-.141.07-.306.07-.447 0l-1.776-.888-1.776.888c-.141.07-.306.07-.447 0l-1.776-.888-1.776.888c-.141.07-.306.07-.447 0l-1.776-.888-1.776.888c-.155.077-.339.069-.486-.022s-.237-.252-.237-.425v-18c0-.189.107-.363.276-.447l2-1c.141-.07.306-.07.447 0l1.776.888 1.776-.888c.141-.07.306-.07.447 0l1.776.888 1.776-.888c.141-.07.306-.07.447 0l1.776.888 1.776-.888c.141-.07.306-.07.447 0l2 1c.169.085.276.258.276.447v18c0 .173-.09.334-.237.425-.08.05-.171.075-.263.075zm-6-2c.077 0 .153.018.224.053l1.776.888 1.776-.888c.141-.07.306-.07.447 0l1.276.638v-16.882l-1.5-.75-1.776.888c-.141.07-.306.07-.447 0l-1.776-.888-1.776.888c-.141.07-.306.07-.447 0l-1.776-.888-1.776.888c-.141.07-.306.07-.447 0l-1.776-.888-1.5.75v16.882l1.276-.638c.141-.07.306-.07.447 0l1.776.888 1.776-.888c.141-.07.306-.07.447 0l1.776.888 1.776-.888c.07-.035.147-.053.224-.053z"/><path d="m11.5 13h-3.5v-1h3.5c.276 0 .5-.224.5-.5s-.224-.5-.5-.5h-1.5v-.5c0-.276-.224-.5-.5-.5s-.5.224-.5.5v.5h-1.5c-.276 0-.5.224-.5.5v2c0 .276.224.5.5.5h3.5v1h-3.5c-.276 0-.5.224-.5.5s.224.5.5.5h1.5v.5c0 .276.224.5.5.5s.5-.224.5-.5v-.5h1.5c.276 0 .5-.224.5-.5v-2c0-.276-.224-.5-.5-.5z"/><path d="m12.5 5h-6c-.276 0-.5-.224-.5-.5s.224-.5.5-.5h6c.276 0 .5.224.5.5s-.224.5-.5.5z"/><path d="m14.5 7h-10c-.276 0-.5-.224-.5-.5s.224-.5.5-.5h10c.276 0 .5.224.5.5s-.224.5-.5.5z"/><path d="m14.5 9h-10c-.276 0-.5-.224-.5-.5s.224-.5.5-.5h10c.276 0 .5.224.5.5s-.224.5-.5.5z"/></svg>