<svg height="20" viewBox="0 0 20 20" width="20" xmlns="http://www.w3.org/2000/svg"><path d="m11.5 17c.276 0 .5-.224.5-.5s-.224-.5-.5-.5h-3.5v-1.5c0-.276.224-.5.5-.5h3c.276 0 .5-.224.5-.5s-.224-.5-.5-.5h-3c-.827 0-1.5.673-1.5 1.5v4c0 .827.673 1.5 1.5 1.5h3c.276 0 .5-.224.5-.5s-.224-.5-.5-.5h-3c-.276 0-.5-.224-.5-.5v-1.5z"/><path d="m18.5 20h-3c-.827 0-1.5-.673-1.5-1.5v-4c0-.827.673-1.5 1.5-1.5h3c.276 0 .5.224.5.5s-.224.5-.5.5h-3c-.276 0-.5.224-.5.5v4c0 .276.224.5.5.5h3c.276 0 .5.224.5.5s-.224.5-.5.5z"/><path d="m4.884 19.18-1.817-2.18h.432c.827 0 1.5-.673 1.5-1.5v-1c0-.827-.673-1.5-1.5-1.5h-2c-.827 0-1.5.673-1.5 1.5v5c0 .276.224.5.5.5s.5-.224.5-.5v-2.5h.766l2.35 2.82c.099.119.241.18.384.18.113 0 .226-.038.32-.116.212-.177.241-.492.064-.704zm-3.884-4.68c0-.276.224-.5.5-.5h2c.276 0 .5.224.5.5v1c0 .276-.224.5-.5.5h-1.502-.001-.997z"/><path d="m9.5 10c-2.481 0-4.5-2.019-4.5-4.5s2.019-4.5 4.5-4.5 4.5 2.019 4.5 4.5-2.019 4.5-4.5 4.5zm0-8c-1.93 0-3.5 1.57-3.5 3.5s1.57 3.5 3.5 3.5 3.5-1.57 3.5-3.5-1.57-3.5-3.5-3.5z"/></svg>