<svg height="20" viewBox="0 0 20 20" width="20" xmlns="http://www.w3.org/2000/svg"><path d="m10.5 19c-.183 0-.36-.101-.448-.277l-1-2c-.077-.155-.069-.339.022-.486s.252-.237.425-.237h4c1.412 0 2.46-.46 2.951-1.294s.384-1.974-.302-3.208l-.975-1.755c-.134-.241-.047-.546.194-.68s.546-.047.68.194l.975 1.755c.427.769.67 1.525.72 2.245.051.727-.094 1.385-.43 1.956s-.841 1.017-1.501 1.326c-.654.306-1.432.461-2.312.461h-3.191l.638 1.276c.123.247.023.547-.224.671-.072.036-.148.053-.223.053z"/><path d="m14.5 8c-.181 0-.349-.098-.437-.257l-2.086-3.755c-.683-1.229-1.563-1.906-2.477-1.906s-1.794.677-2.477 1.906l-.975 1.755c-.134.241-.438.328-.68.194s-.328-.438-.194-.68l.975-1.755c.867-1.561 2.057-2.421 3.351-2.421 1.294 0 2.484.86 3.351 2.421l1.626 2.926.576-1.152c.123-.247.424-.347.671-.224s.347.424.224.671l-1 2c-.083.166-.251.272-.436.276-.004 0-.007 0-.011 0z"/><path d="m7.5 17h-2c-.88 0-1.658-.155-2.312-.461-.66-.309-1.165-.755-1.501-1.326s-.481-1.229-.43-1.956c.05-.72.292-1.475.72-2.245l1.673-3.012h-1.15c-.276 0-.5-.224-.5-.5s.224-.5.5-.5h2c.177 0 .341.094.431.246s.092.342.006.496l-2.086 3.755c-.686 1.234-.793 2.373-.302 3.208s1.539 1.294 2.951 1.294h2c.276 0 .5.224.5.5s-.224.5-.5.5z"/></svg>