<svg height="20" viewBox="0 0 20 20" width="20" xmlns="http://www.w3.org/2000/svg"><path d="m2.49 4.49c1.605-1.605 3.74-2.49 6.01-2.49s4.405.884 6.01 2.49 2.49 3.74 2.49 6.01v1.293l2.146-2.146c.195-.195.512-.195.707 0s.195.512 0 .707l-3 3c-.098.098-.226.146-.354.146s-.256-.049-.354-.146l-3-3c-.195-.195-.195-.512 0-.707s.512-.195.707 0l2.146 2.146v-1.293c0-4.136-3.364-7.5-7.5-7.5s-7.5 3.364-7.5 7.5 3.364 7.5 7.5 7.5c.276 0 .5.224.5.5s-.224.5-.5.5c-2.27 0-4.405-.884-6.01-2.49s-2.49-3.74-2.49-6.01.884-4.405 2.49-6.01z"/></svg>