<svg height="20" viewBox="0 0 20 20" width="20" xmlns="http://www.w3.org/2000/svg"><path d="m10 18c-2.137 0-4.146-.832-5.657-2.343s-2.343-3.52-2.343-5.657.832-4.146 2.343-5.657 3.52-2.343 5.657-2.343 4.146.832 5.657 2.343c1.463 1.463 2.289 3.392 2.341 5.452l1.149-1.149c.195-.195.512-.195.707 0s.195.512 0 .707l-2 2c-.143.143-.358.186-.545.108s-.309-.26-.309-.462v-1c0-3.86-3.14-7-7-7s-7 3.14-7 7 3.14 7 7 7c2.603 0 4.976-1.431 6.193-3.734.129-.244.432-.337.676-.208s.337.432.208.676c-1.391 2.632-4.103 4.266-7.077 4.266z"/></svg>