<svg height="20" viewBox="0 0 20 20" width="20" xmlns="http://www.w3.org/2000/svg"><path d="m10 20c-3.67 0-7.039-2.005-8.793-5.233-.132-.243-.042-.546.201-.678s.546-.042.678.201c1.578 2.905 4.611 4.71 7.914 4.71 4.963 0 9-4.037 9-9s-4.037-9-9-9c-3.316 0-6.354 1.815-7.928 4.737-.118.219-.38.318-.613.232s-.368-.332-.315-.575l.869-4c.059-.27.325-.441.595-.383s.441.325.382.595l-.353 1.627c1.869-2.035 4.525-3.233 7.365-3.233 2.671 0 5.182 1.04 7.071 2.929s2.929 4.4 2.929 7.071-1.04 5.182-2.929 7.071-4.4 2.929-7.071 2.929z"/><path d="m4.5 13c-.276 0-.5-.224-.5-.5v-4.5h-.5c-.276 0-.5-.224-.5-.5s.224-.5.5-.5h1c.276 0 .5.224.5.5v5c0 .276-.224.5-.5.5z"/><path d="m8.5 13h-2c-.276 0-.5-.224-.5-.5v-5c0-.276.224-.5.5-.5h2c.276 0 .5.224.5.5v5c0 .276-.224.5-.5.5zm-1.5-1h1v-4h-1z"/><path d="m12.5 13h-2c-.276 0-.5-.224-.5-.5v-5c0-.276.224-.5.5-.5h2c.276 0 .5.224.5.5v5c0 .276-.224.5-.5.5zm-1.5-1h1v-4h-1z"/><path d="m14.5 13c-.062 0-.125-.012-.186-.036-.256-.103-.381-.394-.279-.65l2-5c.103-.256.393-.381.65-.279s.381.394.279.65l-2 5c-.078.195-.266.314-.464.314z"/><path d="m14.5 8c-.132 0-.261-.053-.353-.147s-.147-.222-.147-.353.053-.261.147-.353c.093-.093.222-.147.353-.147s.26.053.353.147c.093.093.147.222.147.353s-.053.261-.147.353c-.093.093-.222.147-.353.147z"/><path d="m16.5 13c-.132 0-.26-.053-.353-.147s-.147-.222-.147-.353.053-.261.147-.353c.093-.093.222-.147.353-.147s.261.053.353.147c.093.093.147.222.147.353s-.053.261-.147.353c-.093.093-.222.147-.353.147z"/></svg>