<svg height="20" viewBox="0 0 20 20" width="20" xmlns="http://www.w3.org/2000/svg"><path d="m14.5 20h-13c-.827 0-1.5-.673-1.5-1.5v-16c0-.827.673-1.5 1.5-1.5h13c.827 0 1.5.673 1.5 1.5v2c0 .276-.224.5-.5.5s-.5-.224-.5-.5v-2c0-.276-.224-.5-.5-.5h-13c-.276 0-.5.224-.5.5v16c0 .276.224.5.5.5h13c.276 0 .5-.224.5-.5v-4c0-.276.224-.5.5-.5s.5.224.5.5v4c0 .827-.673 1.5-1.5 1.5z"/><path d="m10.5 5h-7c-.276 0-.5-.224-.5-.5s.224-.5.5-.5h7c.276 0 .5.224.5.5s-.224.5-.5.5z"/><path d="m12.5 7h-9c-.276 0-.5-.224-.5-.5s.224-.5.5-.5h9c.276 0 .5.224.5.5s-.224.5-.5.5z"/><path d="m11.5 9h-8c-.276 0-.5-.224-.5-.5s.224-.5.5-.5h8c.276 0 .5.224.5.5s-.224.5-.5.5z"/><path d="m8.5 11h-5c-.276 0-.5-.224-.5-.5s.224-.5.5-.5h5c.276 0 .5.224.5.5s-.224.5-.5.5z"/><path d="m8.5 17c-.134 0-.265-.054-.36-.153-.124-.128-.17-.313-.121-.484l1-3.5c.023-.082.067-.156.127-.216l7.5-7.5c.195-.195.512-.195.707 0l2.5 2.5c.194.194.195.508.003.704l-7.5 7.641c-.065.066-.147.113-.238.135l-3.5.859c-.039.01-.079.014-.119.014zm1.445-3.738-.728 2.547 2.525-.62 7.053-7.186-1.796-1.796-7.055 7.055z"/><path d="m6.5 17h-3c-.276 0-.5-.224-.5-.5s.224-.5.5-.5h3c.276 0 .5.224.5.5s-.224.5-.5.5z"/></svg>