<svg height="20" viewBox="0 0 20 20" width="20" xmlns="http://www.w3.org/2000/svg"><path d="m9.415 2c-.206 0-.399-.128-.471-.333-.141-.399-.52-.667-.943-.667s-.802.268-.943.667c-.092.26-.378.397-.638.305s-.397-.378-.305-.638c.282-.797 1.04-1.333 1.886-1.333s1.604.536 1.886 1.333c.092.26-.044.546-.305.638-.055.019-.111.029-.167.029z"/><path d="m17 9c-.412 0-.794.125-1.113.339-.274-.779-1.016-1.339-1.887-1.339-.412 0-.794.125-1.113.339-.274-.779-1.016-1.339-1.887-1.339-.364 0-.706.098-1 .269v-1.769c0-.276-.224-.5-.5-.5s-.5.224-.5.5v5c0 .276.224.5.5.5s.5-.224.5-.5v-1.5c0-.551.449-1 1-1s1 .449 1 1v1.5c0 .276.224.5.5.5s.5-.224.5-.5v-.5c0-.551.449-1 1-1s1 .449 1 1v1.5c0 .276.224.5.5.5s.5-.224.5-.5v-.5c0-.551.449-1 1-1s1 .449 1 1c0 2.783-.436 4.879-1.297 6.232-.747 1.173-1.824 1.768-3.203 1.768h-4.99c-.039-.003-.46-.05-1.095-.525-.633-.474-1.605-1.472-2.638-3.54-2.027-4.054-2.65-5.331-2.656-5.343-.001-.002-.001-.003-.002-.004-.251-.503-.073-1.162.389-1.439.208-.125.451-.158.685-.095.249.068.458.236.587.472.002.003.004.007.006.01l1.561 2.705c.319.583.678.828 1.067.729.39-.099.587-.489.587-1.157v-5.313c0-.276-.224-.5-.5-.5s-.5.224-.5.5v4.873l-1.346-2.333c-.261-.475-.687-.813-1.199-.953-.499-.136-1.018-.064-1.462.202-.907.544-1.253 1.774-.77 2.742.03.061.668 1.368 2.66 5.35.938 1.875 1.967 3.216 3.059 3.984.857.603 1.449.634 1.559.634h5c.845 0 1.613-.183 2.284-.544.696-.375 1.289-.942 1.763-1.687.964-1.515 1.453-3.792 1.453-6.768 0-1.103-.897-2-2-2z"/><path d="m12.5 1c-.2 0-.81 0-2.89 1.054-.677.343-1.283.682-1.61.869-.327-.187-.933-.526-1.61-.869-2.08-1.054-2.69-1.054-2.89-1.054-1.378 0-2.5 1.122-2.5 2.5s1.122 2.5 2.5 2.5c.2 0 .81 0 2.89-1.054.677-.343 1.283-.682 1.61-.869.327.187.933.526 1.61.869 2.08 1.054 2.69 1.054 2.89 1.054 1.378 0 2.5-1.122 2.5-2.5s-1.122-2.5-2.5-2.5zm-6.566 3.056c-1.682.852-2.262.944-2.434.944-.827 0-1.5-.673-1.5-1.5s.673-1.5 1.5-1.5c.171 0 .752.092 2.434.944.385.195.75.391 1.051.556-.301.165-.666.361-1.051.556zm6.566.944c-.171 0-.752-.092-2.434-.944-.385-.195-.75-.391-1.051-.556.301-.165.666-.361 1.051-.556 1.682-.852 2.262-.944 2.434-.944.827 0 1.5.673 1.5 1.5s-.673 1.5-1.5 1.5z"/></svg>