<svg height="20" viewBox="0 0 20 20" width="20" xmlns="http://www.w3.org/2000/svg"><path d="m11.5 20h-4c-.827 0-1.5-.673-1.5-1.5v-7c0-.827.673-1.5 1.5-1.5h4c.827 0 1.5.673 1.5 1.5v7c0 .827-.673 1.5-1.5 1.5zm-4-9c-.276 0-.5.224-.5.5v7c0 .276.224.5.5.5h4c.276 0 .5-.224.5-.5v-7c0-.276-.224-.5-.5-.5z"/><path d="m9.5 15c-.827 0-1.5-.673-1.5-1.5s.673-1.5 1.5-1.5 1.5.673 1.5 1.5-.673 1.5-1.5 1.5zm0-2c-.276 0-.5.224-.5.5s.224.5.5.5.5-.224.5-.5-.224-.5-.5-.5z"/><path d="m11.767 8.035c-.14 0-.279-.058-.378-.172-.476-.548-1.164-.863-1.889-.863s-1.414.314-1.889.863c-.181.209-.497.231-.705.05s-.231-.497-.05-.705c.666-.767 1.63-1.208 2.645-1.208s1.979.44 2.645 1.208c.181.209.158.524-.05.705-.095.082-.211.122-.327.122z"/><path d="m4.966 6.07c-.116 0-.233-.04-.327-.122-.209-.181-.231-.497-.05-.705 1.236-1.425 3.027-2.243 4.912-2.243s3.676.817 4.912 2.243c.181.209.159.524-.05.705s-.524.158-.705-.05c-1.046-1.206-2.561-1.898-4.156-1.898s-3.11.692-4.157 1.898c-.099.114-.238.172-.378.172z"/><path d="m2.698 4.106c-.116 0-.233-.04-.327-.122-.209-.181-.231-.497-.05-.705 1.807-2.083 4.424-3.278 7.179-3.278s5.372 1.195 7.179 3.278c.181.209.159.524-.05.705s-.524.159-.705-.05c-1.617-1.864-3.958-2.933-6.423-2.933s-4.807 1.069-6.424 2.933c-.099.114-.238.172-.378.172z"/></svg>