<svg height="20" viewBox="0 0 20 20" width="20" xmlns="http://www.w3.org/2000/svg"><path d="m19.854 8.646c-.195-.195-.512-.195-.707 0l-1.149 1.149c-.051-2.06-.878-3.99-2.341-5.452-1.511-1.511-3.52-2.343-5.657-2.343-2.974 0-5.686 1.635-7.077 4.266-.129.244-.036.547.208.676s.547.036.676-.208c1.217-2.303 3.59-3.734 6.193-3.734 3.789 0 6.885 3.027 6.997 6.789l-1.143-1.143c-.195-.195-.512-.195-.707 0s-.195.512 0 .707l2 2c.098.098.226.146.354.146s.256-.049.354-.146l2-2c.195-.195.195-.512 0-.707z"/><path d="m16.869 13.058c-.244-.129-.547-.036-.676.208-1.217 2.303-3.59 3.734-6.193 3.734-3.789 0-6.885-3.027-6.997-6.789l1.143 1.143c.098.098.226.146.354.146s.256-.049.354-.146c.195-.195.195-.512 0-.707l-2-2c-.195-.195-.512-.195-.707 0l-2 2c-.195.195-.195.512 0 .707s.512.195.707 0l1.149-1.149c.051 2.06.878 3.99 2.341 5.452 1.511 1.511 3.52 2.343 5.657 2.343 2.974 0 5.686-1.635 7.077-4.266.129-.244.036-.547-.208-.676z"/><path d="m10.5 13c-.276 0-.5-.224-.5-.5v-4.5h-.5c-.276 0-.5-.224-.5-.5s.224-.5.5-.5h1c.276 0 .5.224.5.5v5c0 .276-.224.5-.5.5z"/></svg>