<svg height="20" viewBox="0 0 20 20" width="20" xmlns="http://www.w3.org/2000/svg"><path d="m17.354 3.146-3-3c-.195-.195-.512-.195-.707 0s-.195.512 0 .707l2.146 2.146h-13.293c-.827 0-1.5.673-1.5 1.5v9c0 .276.224.5.5.5s.5-.224.5-.5v-9c0-.276.224-.5.5-.5h13.293l-2.146 2.146c-.195.195-.195.512 0 .707.098.098.226.146.354.146s.256-.049.354-.146l3-3c.195-.195.195-.512 0-.707z"/><path d="m17.5 6c-.276 0-.5.224-.5.5v9c0 .276-.224.5-.5.5h-13.293l2.146-2.146c.195-.195.195-.512 0-.707s-.512-.195-.707 0l-3 3c-.195.195-.195.512 0 .707l3 3c.098.098.226.146.354.146s.256-.049.354-.146c.195-.195.195-.512 0-.707l-2.146-2.146h13.293c.827 0 1.5-.673 1.5-1.5v-9c0-.276-.224-.5-.5-.5z"/></svg>