<svg height="20" viewBox="0 0 20 20" width="20" xmlns="http://www.w3.org/2000/svg"><path d="m17.071 2.929c-1.889-1.889-4.4-2.929-7.071-2.929-3.094 0-5.975 1.425-7.853 3.807v-1.307c0-.276-.224-.5-.5-.5s-.5.224-.5.5v2.972c0 .229.155.428.377.485.097.025.195.019.284-.011l1.353-.461 1.5-.511c.261-.089.401-.373.312-.634s-.373-.401-.634-.312l-1.49.508c1.688-2.208 4.32-3.534 7.151-3.534 4.963 0 9 4.037 9 9s-4.037 9-9 9c-3.316 0-6.354-1.815-7.928-4.737-.131-.243-.434-.334-.677-.203s-.334.434-.203.677c1.749 3.246 5.125 5.263 8.809 5.263 2.671 0 5.182-1.04 7.071-2.929s2.929-4.4 2.929-7.071-1.04-5.182-2.929-7.071z"/></svg>