<svg height="20" viewBox="0 0 20 20" width="20" xmlns="http://www.w3.org/2000/svg"><path d="m10 20c-3.67 0-7.039-2.005-8.793-5.233-.132-.243-.042-.546.201-.678s.546-.042.678.201c1.578 2.905 4.611 4.71 7.914 4.71 4.963 0 9-4.037 9-9s-4.037-9-9-9c-3.316 0-6.354 1.815-7.928 4.737-.118.219-.38.318-.614.232s-.368-.332-.315-.575l.869-4c.059-.27.325-.441.595-.383s.441.325.382.595l-.353 1.627c1.869-2.035 4.525-3.233 7.365-3.233 2.671 0 5.182 1.04 7.071 2.929s2.929 4.4 2.929 7.071-1.04 5.182-2.929 7.071-4.4 2.929-7.071 2.929z"/></svg>