<svg height="20" viewBox="0 0 20 20" width="20" xmlns="http://www.w3.org/2000/svg"><path d="m.501 20c-.034 0-.069-.003-.103-.011-.27-.057-.443-.322-.386-.592l4-19c.057-.27.322-.443.592-.386s.443.322.386.592l-4 19c-.05.236-.257.397-.489.397z"/><path d="m18.499 20c-.231 0-.439-.162-.489-.397l-4-19c-.057-.27.116-.535.386-.592s.535.116.592.386l4 19c.057.27-.116.535-.386.592-.035.007-.069.011-.103.011z"/><path d="m9.5 3c-.276 0-.5-.224-.5-.5v-2c0-.276.224-.5.5-.5s.5.224.5.5v2c0 .276-.224.5-.5.5z"/><path d="m9.5 10c-.276 0-.5-.224-.5-.5v-4c0-.276.224-.5.5-.5s.5.224.5.5v4c0 .276-.224.5-.5.5z"/><path d="m9.5 20c-.276 0-.5-.224-.5-.5v-6c0-.276.224-.5.5-.5s.5.224.5.5v6c0 .276-.224.5-.5.5z"/></svg>