<svg height="20" viewBox="0 0 20 20" width="20" xmlns="http://www.w3.org/2000/svg"><path d="m18.777 5.084-3-2c-.082-.055-.179-.084-.277-.084h-4.5v-1.5c0-.827-.673-1.5-1.5-1.5h-2c-.827 0-1.5.673-1.5 1.5v1.5h-5.5c-.276 0-.5.224-.5.5v4c0 .276.224.5.5.5h5.5v1h-1.5c-.099 0-.195.029-.277.084l-3 2c-.139.093-.223.249-.223.416s.084.323.223.416l3 2c.082.055.179.084.277.084h1.5v5.5c0 .276.224.5.5.5h4c.276 0 .5-.224.5-.5v-5.5h3.5c.276 0 .5-.224.5-.5v-4c0-.276-.224-.5-.5-.5h-3.5v-1h4.5c.099 0 .195-.029.277-.084l3-2c.139-.093.223-.249.223-.416s-.084-.323-.223-.416zm-11.777-3.584c0-.276.224-.5.5-.5h2c.276 0 .5.224.5.5v1.5h-3zm3 17.5h-3v-5h3zm4-6h-9.349l-2.25-1.5 2.25-1.5h9.349zm-4-4h-3v-1h3zm5.349-2h-14.349v-3h14.349l2.25 1.5z"/></svg>