<svg height="20" viewBox="0 0 20 20" width="20" xmlns="http://www.w3.org/2000/svg"><path d="m13 9.086v-.586c0-1.378-1.122-2.5-2.5-2.5s-2.5 1.122-2.5 2.5v.586c-.582.206-1 .762-1 1.414v3c0 .827.673 1.5 1.5 1.5h4c.827 0 1.5-.673 1.5-1.5v-3c0-.652-.418-1.208-1-1.414zm-2.5-2.086c.827 0 1.5.673 1.5 1.5v.5h-3v-.5c0-.827.673-1.5 1.5-1.5zm2.5 6.5c0 .276-.224.5-.5.5h-4c-.276 0-.5-.224-.5-.5v-3c0-.276.224-.5.5-.5h4c.276 0 .5.224.5.5z"/><path d="m10.5 20c-1.776 0-3.508-.493-5.009-1.426-1.459-.907-2.647-2.193-3.435-3.717-.127-.245-.031-.547.215-.674s.547-.031.674.215c1.468 2.839 4.363 4.603 7.556 4.603 4.687 0 8.5-3.813 8.5-8.5s-3.813-8.5-8.5-8.5-8.5 3.813-8.5 8.5c0 .253-.188.465-.439.496s-.485-.13-.546-.375l-1-4c-.067-.268.096-.539.364-.606s.539.096.606.364l.377 1.508c.437-1.536 1.26-2.944 2.42-4.104 1.794-1.794 4.18-2.782 6.718-2.782s4.923.988 6.718 2.783c1.794 1.794 2.782 4.18 2.782 6.717s-.988 4.923-2.782 6.718c-1.794 1.794-4.18 2.782-6.718 2.782z"/></svg>