<svg height="20" viewBox="0 0 20 20" width="20" xmlns="http://www.w3.org/2000/svg"><path d="m17.5 3h-8.5v-.5c0-.827-.673-1.5-1.5-1.5h-2c-.827 0-1.5.673-1.5 1.5v.5h-2.5c-.827 0-1.5.673-1.5 1.5v2c0 .827.673 1.5 1.5 1.5h2.5v10.5c0 .827.673 1.5 1.5 1.5h2c.827 0 1.5-.673 1.5-1.5v-10.5h8.5c.827 0 1.5-.673 1.5-1.5v-2c0-.827-.673-1.5-1.5-1.5zm-12.5-.5c0-.276.224-.5.5-.5h2c.276 0 .5.224.5.5v.5h-3zm3 7.5h-.5c-.276 0-.5.224-.5.5s.224.5.5.5h.5v2h-.5c-.276 0-.5.224-.5.5s.224.5.5.5h.5v2h-.5c-.276 0-.5.224-.5.5s.224.5.5.5h.5v1.5c0 .276-.224.5-.5.5h-2c-.276 0-.5-.224-.5-.5v-10.5h3zm10-3.5c0 .276-.224.5-.5.5h-1.5v-.5c0-.276-.224-.5-.5-.5s-.5.224-.5.5v.5h-2v-.5c0-.276-.224-.5-.5-.5s-.5.224-.5.5v.5h-2v-.5c0-.276-.224-.5-.5-.5s-.5.224-.5.5v.5h-2v-.5c0-.276-.224-.5-.5-.5s-.5.224-.5.5v.5h-2v-.5c0-.276-.224-.5-.5-.5s-.5.224-.5.5v.5h-1.5c-.276 0-.5-.224-.5-.5v-2c0-.276.224-.5.5-.5h16c.276 0 .5.224.5.5z"/></svg>