<svg height="20" viewBox="0 0 20 20" width="20" xmlns="http://www.w3.org/2000/svg"><path d="m17.5 7h-16c-.827 0-1.5.673-1.5 1.5v3c0 .827.673 1.5 1.5 1.5h16c.827 0 1.5-.673 1.5-1.5v-3c0-.827-.673-1.5-1.5-1.5zm.5 4.5c0 .276-.224.5-.5.5h-1.5v-1.5c0-.276-.224-.5-.5-.5s-.5.224-.5.5v1.5h-2v-2.5c0-.276-.224-.5-.5-.5s-.5.224-.5.5v2.5h-2v-1.5c0-.276-.224-.5-.5-.5s-.5.224-.5.5v1.5h-2v-2.5c0-.276-.224-.5-.5-.5s-.5.224-.5.5v2.5h-2v-1.5c0-.276-.224-.5-.5-.5s-.5.224-.5.5v1.5h-1.5c-.276 0-.5-.224-.5-.5v-3c0-.276.224-.5.5-.5h16c.276 0 .5.224.5.5z"/></svg>