<svg height="20" viewBox="0 0 20 20" width="20" xmlns="http://www.w3.org/2000/svg"><path d="m6.5 20c-.075 0-.151-.017-.223-.053-.247-.123-.347-.424-.224-.671l2-4c.123-.247.424-.347.671-.224s.347.424.224.671l-2 4c-.088.175-.264.277-.448.277z"/><path d="m1.5 18c-.095 0-.192-.027-.277-.084-.23-.153-.292-.464-.139-.693l2-3c.153-.23.464-.292.693-.139s.292.464.139.693l-2 3c-.096.145-.255.223-.417.223z"/><path d="m18 2.5c0-.827-.673-1.5-1.5-1.5-.803 0-1.46.634-1.498 1.427l-8.646 2.594c-.264.079-.415.358-.335.623.065.217.264.356.479.356.048 0 .096-.007.144-.021l8.646-2.594c.003.005.007.009.01.014l-5.216 7.824c-.153.23-.091.54.139.693.085.057.182.084.277.084.162 0 .32-.078.416-.223l4.515-6.773-1.419 6.387c-.06.27.11.537.38.597.037.008.073.012.109.012.229 0 .436-.159.488-.392l1.693-7.62c.742-.09 1.319-.723 1.319-1.489zm-1.5.5c-.276 0-.5-.224-.5-.5s.224-.5.5-.5.5.224.5.5-.224.5-.5.5z"/><path d="m11.628 5.5c.179.163.358.329.537.5z"/><path d="m12.164 6.5c-.124 0-.249-.046-.346-.139-.173-.166-.351-.331-.527-.491-.205-.185-.22-.502-.035-.706s.502-.22.706-.035c.183.166.367.337.547.509.199.191.206.507.015.707-.098.103-.23.154-.361.154z"/><path d="m16.921 11.266c-.129-.244-.432-.337-.676-.207s-.337.432-.207.676c.977 1.841 1.22 3.349.633 3.936-.517.517-1.759.394-3.323-.328-1.763-.813-3.744-2.272-5.578-4.107s-3.293-3.816-4.107-5.578c-.722-1.564-.844-2.806-.328-3.323.407-.407 1.166-.349 1.731-.228.898.192 1.993.682 3.168 1.42.234.147.543.076.689-.158s.076-.543-.158-.689c-1.273-.799-2.48-1.335-3.491-1.55-1.463-.312-2.247.099-2.647.499-.695.695-1.171 1.578-1.416 2.626-.232.994-.245 2.085-.037 3.243.425 2.376 1.723 4.748 3.654 6.679.437.437.903.847 1.386 1.219.091.07.198.104.305.104.15 0 .298-.067.396-.195.169-.219.128-.533-.091-.701-.449-.346-.883-.728-1.289-1.134-1.788-1.788-2.987-3.972-3.377-6.148-.182-1.014-.169-1.97.025-2.813.123.486.313 1.01.571 1.568.862 1.867 2.391 3.95 4.308 5.867s4 3.446 5.867 4.308c.566.261 1.098.454 1.589.576-1.258.295-2.765.174-4.352-.384-.261-.092-.546.045-.638.306s.045.546.306.638c.589.207 1.178.36 1.757.458l.422 1.771c.055.23.26.384.486.384.038 0 .077-.004.116-.014.269-.064.434-.334.37-.602l-.338-1.42c.153.008.304.013.454.013.306 0 .606-.017.899-.052 1.358-.161 2.526-.696 3.377-1.547.951-.951.789-2.767-.457-5.112z"/></svg>