<svg height="20" viewBox="0 0 20 20" width="20" xmlns="http://www.w3.org/2000/svg"><path d="m9.5 15.085c-.401 0-.778-.156-1.061-.438l-2.586-2.586c-.283-.283-.438-.659-.438-1.061s.156-.778.438-1.061l4.586-4.586c.283-.283.659-.438 1.061-.438s.778.156 1.061.438l2.586 2.586c.585.585.585 1.536 0 2.121l-4.586 4.586c-.283.283-.659.438-1.061.438zm2-9.17c-.134 0-.26.052-.354.145l-4.586 4.586c-.094.094-.145.219-.145.354s.052.26.145.353l2.586 2.586c.094.094.219.145.354.145s.26-.052.354-.145l4.586-4.586c.195-.195.195-.512 0-.707l-2.586-2.586c-.094-.094-.219-.145-.354-.145z"/><path d="m5.5 9.5c-.128 0-.256-.049-.354-.146l-4-4c-.195-.195-.195-.512 0-.707l4-4c.195-.195.512-.195.707 0l4 4c.195.195.195.512 0 .707s-.512.195-.707 0l-3.646-3.646-3.293 3.293 3.646 3.646c.195.195.195.512 0 .707-.098.098-.226.146-.354.146z"/><path d="m15.5 19.5c-.128 0-.256-.049-.354-.146l-4-4c-.195-.195-.195-.512 0-.707s.512-.195.707 0l3.646 3.646 3.293-3.293-3.646-3.646c-.195-.195-.195-.512 0-.707s.512-.195.707 0l4 4c.195.195.195.512 0 .707l-4 4c-.098.098-.226.146-.354.146z"/><path d="m17 7h-1.5c-.276 0-.5-.224-.5-.5s.224-.5.5-.5h1.293l-2.793-2.793v1.293c0 .276-.224.5-.5.5s-.5-.224-.5-.5v-1.5c0-.674.361-.896.516-.96s.568-.163 1.044.314l3.086 3.086c.476.477.378.889.314 1.044s-.287.516-.96.516z"/><path d="m7 16c-.128 0-.256-.049-.354-.146l-2-2c-.195-.195-.195-.512 0-.707s.512-.195.707 0l2 2c.195.195.195.512 0 .707-.098.098-.226.146-.354.146z"/><path d="m6 18c-.128 0-.256-.049-.354-.146l-3-3c-.195-.195-.195-.512 0-.707s.512-.195.707 0l3 3c.195.195.195.512 0 .707-.098.098-.226.146-.354.146z"/><path d="m5 20c-.128 0-.256-.049-.354-.146l-4-4c-.195-.195-.195-.512 0-.707s.512-.195.707 0l4 4c.195.195.195.512 0 .707-.098.098-.226.146-.354.146z"/></svg>