<svg height="20" viewBox="0 0 20 20" width="20" xmlns="http://www.w3.org/2000/svg"><path d="m17.138 3.058c.297-.605 1.027-1.516 1.716-2.205.143-.143.186-.358.108-.545s-.26-.309-.462-.309h-4c-.202 0-.384.122-.462.309s-.035.402.108.545c.688.689 1.419 1.6 1.716 2.205-1.626.301-2.862 1.729-2.862 3.442 0 3.584-2.916 6.5-6.5 6.5-1.712 0-3.141 1.236-3.442 2.862-.605-.297-1.516-1.027-2.205-1.716-.143-.143-.358-.186-.545-.108s-.309.26-.309.462v4c0 .202.122.384.309.462.062.026.127.038.191.038.13 0 .258-.051.354-.146.689-.688 1.6-1.419 2.205-1.716.301 1.626 1.729 2.862 3.442 2.862 1.822 0 3.59-.357 5.255-1.061 1.608-.68 3.051-1.653 4.291-2.893s2.213-2.683 2.893-4.291c.704-1.665 1.061-3.433 1.061-5.255 0-1.712-1.236-3.141-2.862-3.442zm.229-2.058c-.084.099-.171.204-.258.313-.244.305-.447.586-.61.846-.163-.26-.366-.541-.61-.846-.087-.109-.174-.213-.258-.313h1.735zm-16.054 16.11c-.109.087-.213.174-.313.258v-1.735c.099.084.204.171.313.258.305.244.586.447.846.61-.26.163-.541.366-.846.61zm5.187 1.89c-1.378 0-2.5-1.122-2.5-2.5s1.122-2.5 2.5-2.5c.753 0 1.489-.11 2.19-.323l.337.985c.071.208.265.338.473.338.054 0 .108-.009.162-.027.261-.089.4-.374.311-.635l-.348-1.016c.652-.299 1.262-.694 1.813-1.177l.709.709c.098.098.226.147.354.147s.256-.049.353-.147c.195-.195.195-.512 0-.707l-.709-.709c.483-.551.878-1.161 1.177-1.813l1.016.348c.054.018.108.027.162.027.208 0 .402-.131.473-.338.089-.261-.05-.546-.311-.635l-.985-.337c.213-.701.323-1.437.323-2.19 0-1.378 1.122-2.5 2.5-2.5s2.5 1.122 2.5 2.5c0 6.893-5.607 12.5-12.5 12.5z"/></svg>