<svg height="20" viewBox="0 0 20 20" width="20" xmlns="http://www.w3.org/2000/svg"><path d="m13 3.5c0 .276-.224.5-.5.5s-.5-.224-.5-.5.224-.5.5-.5.5.224.5.5z"/><path d="m19.844.501c-.196-.318-.561-.5-1-.5h-.008c-2.811 0-4.669 0-6.168.46-1.555.477-2.649 1.426-3.775 3.276l-8.626 13.651c-.438.694-.276 1.604.361 2.028l.75.5c.082.055.179.084.277.084h2.844c.276 0 .5-.224.5-.5v-1.5h1.5c.276 0 .5-.224.5-.5v-1.5h1.5c.276 0 .5-.224.5-.5v-1.5h1.5c.276 0 .5-.224.5-.5v-1.5h1.5c.276 0 .5-.224.5-.5v-1.5h1.5c.276 0 .5-.224.5-.5v-4.5c0-1.103.897-2 2-2h.844c.734 0 1.566-.514 1.895-1.171l.105-.211c.197-.393.197-.8 0-1.118zm-7.344 8.499c-.276 0-.5.224-.5.5v1.5h-1.5c-.276 0-.5.224-.5.5v1.5h-1.5c-.276 0-.5.224-.5.5v1.5h-1.5c-.276 0-.5.224-.5.5v1.5h-1.5c-.276 0-.5.224-.5.5v1.5h-2.192l-.624-.416c-.187-.124-.219-.428-.071-.662l8.371-13.248 4.516 2.615v1.712h-1.5zm6.449-7.828-.105.211c-.162.323-.639.618-1 .618h-.844c-1.654 0-3 1.346-3 3v1.133l-3.981-2.305c1.869-2.827 3.609-2.827 8.817-2.827h.008c.084 0 .131.017.148.027.001.02-.005.069-.042.144z"/></svg>