<svg height="20" viewBox="0 0 20 20" width="20" xmlns="http://www.w3.org/2000/svg"><path d="m16.5 4c-.173 0-.341-.09-.433-.25-.138-.239-.056-.545.183-.683l1.732-1c.239-.138.545-.056.683.183s.056.545-.183.683l-1.732 1c-.079.045-.165.067-.25.067z"/><path d="m18.5 17h-1.5v-10.036c1.694-.243 3-1.704 3-3.464 0-1.93-1.57-3.5-3.5-3.5s-3.5 1.57-3.5 3.5c0 1.76 1.306 3.221 3 3.464v10.036h-14.5c-.827 0-1.5.673-1.5 1.5s.673 1.5 1.5 1.5h17c.827 0 1.5-.673 1.5-1.5s-.673-1.5-1.5-1.5zm-4.5-13.5c0-1.378 1.122-2.5 2.5-2.5s2.5 1.122 2.5 2.5-1.122 2.5-2.5 2.5-2.5-1.122-2.5-2.5zm4.5 15.5h-17c-.276 0-.5-.224-.5-.5s.224-.5.5-.5h17c.276 0 .5.224.5.5s-.224.5-.5.5z"/><path d="m13.816 10.868-.684-2.051c-.155-.465-.642-.816-1.132-.816h-3c0-.551-.449-1-1-1h-7c-.551 0-1 .449-1 1v6c0 .551.449 1 1 1h1.086c.206.582.762 1 1.414 1s1.208-.418 1.414-1h3.086c.182 0 .353-.049.5-.135.147.085.318.135.5.135h1.086c.206.582.762 1 1.414 1s1.208-.418 1.414-1h.086c.551 0 1-.449 1-1v-2c0-.331-.079-.818-.184-1.132zm-1.632-1.736.289.868h-1.473v-1h1c.06 0 .165.076.184.132zm-8.684 5.868c-.276 0-.5-.224-.5-.5s.224-.5.5-.5.5.224.5.5-.224.5-.5.5zm1.414-1c-.206-.582-.762-1-1.414-1s-1.208.418-1.414 1h-1.086v-6h7v6zm6.586 1c-.276 0-.5-.224-.5-.5s.224-.5.5-.5.5.224.5.5-.224.5-.5.5zm1.414-1c-.206-.582-.762-1-1.414-1s-1.208.418-1.414 1h-1.086v-5h1v1.5c0 .276.224.5.5.5h2.306l.061.184c.071.212.132.593.132.816h-.5c-.276 0-.5.224-.5.5s.224.5.5.5h.5v1h-.086z"/></svg>