<svg height="20" viewBox="0 0 20 20" width="20" xmlns="http://www.w3.org/2000/svg"><path d="m10 11.086v-1.586c0-.276-.224-.5-.5-.5s-.5.224-.5.5v1.586c-.582.206-1 .762-1 1.414 0 .827.673 1.5 1.5 1.5s1.5-.673 1.5-1.5c0-.652-.418-1.208-1-1.414zm-.5 1.914c-.276 0-.5-.224-.5-.5s.224-.5.5-.5.5.224.5.5-.224.5-.5.5z"/><path d="m9.5 8c-2.481 0-4.5 2.019-4.5 4.5s2.019 4.5 4.5 4.5 4.5-2.019 4.5-4.5-2.019-4.5-4.5-4.5zm.5 7.964v-.464c0-.276-.224-.5-.5-.5s-.5.224-.5.5v.464c-1.531-.22-2.744-1.434-2.964-2.964h.464c.276 0 .5-.224.5-.5s-.224-.5-.5-.5h-.464c.243-1.694 1.704-3 3.464-3s3.221 1.306 3.464 3h-.464c-.276 0-.5.224-.5.5s.224.5.5.5h.464c-.22 1.531-1.434 2.744-2.964 2.964z"/><path d="m17.5 0h-16c-.276 0-.5.224-.5.5v1c0 1.378 1.122 2.5 2.5 2.5h4.5v1.149c-1.431.289-2.747.991-3.803 2.047-1.417 1.417-2.197 3.3-2.197 5.303v6c0 .827.673 1.5 1.5 1.5h12c.827 0 1.5-.673 1.5-1.5v-6c0-2.003-.78-3.887-2.197-5.303-1.056-1.056-2.372-1.758-3.804-2.047l-.001-1.149h4.501c1.378 0 2.5-1.122 2.5-2.5v-1c0-.276-.224-.5-.5-.5zm-1.5 12.5v6c0 .276-.224.5-.5.5h-12c-.276 0-.5-.224-.5-.5v-6c0-3.584 2.916-6.5 6.5-6.5s6.5 2.916 6.5 6.5zm-6-7.483c-.166-.011-.332-.017-.5-.017s-.334.006-.5.017v-1.017h.999zm7-3.517c0 .827-.673 1.5-1.5 1.5h-12c-.827 0-1.5-.673-1.5-1.5v-.5h15z"/></svg>