<svg height="20" viewBox="0 0 20 20" width="20" xmlns="http://www.w3.org/2000/svg"><path d="m10 8.086v-1.586c0-.276-.224-.5-.5-.5s-.5.224-.5.5v1.586c-.582.206-1 .762-1 1.414 0 .827.673 1.5 1.5 1.5s1.5-.673 1.5-1.5c0-.652-.418-1.208-1-1.414zm-.5 1.914c-.276 0-.5-.224-.5-.5s.224-.5.5-.5.5.224.5.5-.224.5-.5.5z"/><path d="m9.5 5c-2.481 0-4.5 2.019-4.5 4.5s2.019 4.5 4.5 4.5 4.5-2.019 4.5-4.5-2.019-4.5-4.5-4.5zm.5 7.964v-.464c0-.276-.224-.5-.5-.5s-.5.224-.5.5v.464c-1.531-.22-2.744-1.434-2.964-2.964h.464c.276 0 .5-.224.5-.5s-.224-.5-.5-.5h-.464c.243-1.694 1.704-3 3.464-3s3.221 1.306 3.464 3h-.464c-.276 0-.5.224-.5.5s.224.5.5.5h.464c-.22 1.531-1.434 2.744-2.964 2.964z"/><path d="m13.5 3h-1.5v-.5c0-1.378-1.122-2.5-2.5-2.5s-2.5 1.122-2.5 2.5v.5h-1.5c-1.378 0-2.5 1.122-2.5 2.5v8c0 1.378 1.122 2.5 2.5 2.5h3.5v1.5c0 .276.224.5.5.5s.5.224.5.5-.224.5-.5.5-.5-.224-.5-.5-.224-.5-.5-.5-.5.224-.5.5c0 .827.673 1.5 1.5 1.5s1.5-.673 1.5-1.5c0-.652-.418-1.208-1-1.414v-1.086h3.5c1.378 0 2.5-1.122 2.5-2.5v-8c0-1.378-1.122-2.5-2.5-2.5zm-5.5-.5c0-.827.673-1.5 1.5-1.5s1.5.673 1.5 1.5v.5h-3zm7 11c0 .827-.673 1.5-1.5 1.5h-8c-.827 0-1.5-.673-1.5-1.5v-8c0-.827.673-1.5 1.5-1.5h8c.827 0 1.5.673 1.5 1.5z"/></svg>