<svg height="20" viewBox="0 0 20 20" width="20" xmlns="http://www.w3.org/2000/svg"><path d="m8.5 12c-.132 0-.26-.053-.353-.147s-.147-.222-.147-.353.053-.261.147-.353c.093-.093.222-.147.353-.147s.261.053.353.147c.093.093.147.222.147.353s-.053.261-.147.353c-.093.093-.222.147-.353.147z"/><path d="m19.313 14.915c-.748-1.183-1.946-1.919-3.126-1.919-.488 0-.955.132-1.351.382-.632.399-1.043 1.058-1.174 1.869l-1.308-2.016c-.003-.004-.006-.009-.008-.013l-8.427-12.99c-.092-.142-.25-.228-.419-.228h-.001c-.17.001-.328.087-.42.23l-.742 1.158c-.393.614-.452 1.572-.136 2.23l4.416 9.197c.319.665 1.146 1.185 1.884 1.185l3.159-.003 2.578 3.975c.022.037.044.074.067.11.748 1.183 1.946 1.919 3.126 1.919.488 0 .955-.132 1.35-.382.69-.436 1.117-1.181 1.203-2.097.081-.867-.157-1.793-.671-2.607zm-10.813-1.915c-.359 0-.827-.295-.982-.618l-4.416-9.197c-.163-.34-.127-.94.077-1.257l.323-.505 7.508 11.574-2.511.003zm10.489 4.428c-.056.6-.32 1.078-.742 1.345-.238.151-.513.227-.816.227-.773 0-1.605-.498-2.166-1.283l-.175-.27c-.355-.602-.518-1.264-.46-1.879.056-.6.32-1.078.742-1.345.238-.151.513-.227.816-.227.828 0 1.723.57 2.281 1.453.397.628.582 1.33.521 1.979z"/><path d="m13.5 11.917c-.073 0-.146-.016-.216-.049-.249-.12-.354-.418-.234-.667l3.848-8.016c.163-.34.127-.94-.077-1.257l-.323-.505-4.578 7.057c-.15.232-.46.298-.692.147s-.298-.46-.147-.692l5-7.708c.092-.142.25-.228.419-.228h.001c.17.001.328.087.42.23l.742 1.158c.393.614.452 1.572.136 2.23l-3.848 8.016c-.086.179-.265.284-.451.284z"/><path d="m7.042 15.081c-.232-.15-.541-.084-.692.147l-.013.02c-.131-.812-.542-1.47-1.174-1.869-.395-.25-.862-.382-1.351-.382-1.18 0-2.378.735-3.126 1.919-.514.813-.753 1.739-.671 2.607.086.916.513 1.66 1.203 2.097.395.25.862.382 1.35.382 1.18 0 2.378-.735 3.126-1.919.023-.036.045-.073.067-.11l1.427-2.2c.15-.232.084-.541-.147-.692zm-4.473 3.919c-.303 0-.578-.076-.816-.227-.422-.267-.686-.744-.742-1.345-.061-.649.124-1.351.521-1.979.558-.883 1.453-1.453 2.281-1.453.303 0 .578.076.816.227.422.267.686.744.742 1.345.058.614-.106 1.277-.46 1.878l-.175.27c-.561.785-1.393 1.283-2.166 1.283z"/></svg>