<svg height="20" viewBox="0 0 20 20" width="20" xmlns="http://www.w3.org/2000/svg"><path d="m18.646 15.439-4.586-4.586c-.487-.487-1.265-.854-1.811-.854-.122 0-.209-.034-.25-.061v-.439c0-.276-.224-.5-.5-.5-.138 0-.263.056-.354.147l-.646.646-6.793-6.793.146-.146c.195-.195.195-.512 0-.707l-2-2c-.195-.195-.512-.195-.707 0l-1 1c-.195.195-.195.512 0 .707l2 2c.098.098.226.146.354.146s.256-.049.354-.146l.146-.146 6.793 6.793-.646.646c-.091.09-.147.216-.147.354 0 .276.224.5.5.5h.439c.026.041.061.128.061.25 0 .546.367 1.324.854 1.811l4.586 4.586c.292.292.677.439 1.061.439s.768-.146 1.061-.439l1.086-1.086c.585-.585.585-1.536 0-2.121zm-17.439-13.939.293-.293 1.293 1.293-.293.293zm9.793 10.75c0-.458-.188-.851-.474-1.069l.655-.655c.217.287.611.474 1.069.474.251 0 .788.245 1.104.561l2.939 2.939-1.793 1.793-2.939-2.939c-.316-.316-.561-.852-.561-1.104zm6.939 4.604-1.086 1.086c-.195.195-.512.195-.707 0l-.939-.939 1.793-1.793.939.939c.195.195.195.512 0 .707z"/></svg>