<svg height="20" viewBox="0 0 20 20" width="20" xmlns="http://www.w3.org/2000/svg"><path d="m3.5 19h-2c-.827 0-1.5-.673-1.5-1.5v-2c0-.827.673-1.5 1.5-1.5h2c.827 0 1.5.673 1.5 1.5v2c0 .827-.673 1.5-1.5 1.5zm-2-4c-.276 0-.5.224-.5.5v2c0 .276.224.5.5.5h2c.276 0 .5-.224.5-.5v-2c0-.276-.224-.5-.5-.5z"/><path d="m3.5 12h-2c-.827 0-1.5-.673-1.5-1.5v-2c0-.827.673-1.5 1.5-1.5h2c.827 0 1.5.673 1.5 1.5v2c0 .827-.673 1.5-1.5 1.5zm-2-4c-.276 0-.5.224-.5.5v2c0 .276.224.5.5.5h2c.276 0 .5-.224.5-.5v-2c0-.276-.224-.5-.5-.5z"/><path d="m18.5 11c-.276 0-.5-.224-.5-.5v-2c0-.276-.224-.5-.5-.5h-2c-.276 0-.5-.224-.5-.5s.224-.5.5-.5h2c.827 0 1.5.673 1.5 1.5v2c0 .276-.224.5-.5.5z"/><path d="m3.5 5h-2c-.827 0-1.5-.673-1.5-1.5v-2c0-.827.673-1.5 1.5-1.5h2c.827 0 1.5.673 1.5 1.5v2c0 .827-.673 1.5-1.5 1.5zm-2-4c-.276 0-.5.224-.5.5v2c0 .276.224.5.5.5h2c.276 0 .5-.224.5-.5v-2c0-.276-.224-.5-.5-.5z"/><path d="m11.5 4c-.276 0-.5-.224-.5-.5v-2c0-.276-.224-.5-.5-.5h-2c-.276 0-.5.224-.5.5s-.224.5-.5.5-.5-.224-.5-.5c0-.827.673-1.5 1.5-1.5h2c.827 0 1.5.673 1.5 1.5v2c0 .276-.224.5-.5.5z"/><path d="m17.5 5h-2c-.827 0-1.5-.673-1.5-1.5v-2c0-.827.673-1.5 1.5-1.5h2c.827 0 1.5.673 1.5 1.5v2c0 .827-.673 1.5-1.5 1.5zm-2-4c-.276 0-.5.224-.5.5v2c0 .276.224.5.5.5h2c.276 0 .5-.224.5-.5v-2c0-.276-.224-.5-.5-.5z"/><path d="m13 20c-.198 0-.386-.119-.464-.314l-1.697-4.242-2.963 3.386c-.137.157-.357.212-.552.139s-.324-.26-.324-.468v-15c0-.198.117-.377.298-.457s.392-.046.539.087l11 10c.153.139.205.358.13.55s-.26.32-.466.32h-4.261l1.726 4.314c.103.256-.022.547-.279.65l-2.5 1c-.061.024-.124.036-.186.036zm-2-6c.028 0 .056.002.084.007.172.029.315.146.38.307l1.814 4.536 1.572-.629-1.814-4.536c-.062-.154-.043-.329.05-.466s.248-.22.414-.22h3.707l-9.207-8.37v12.539l2.624-2.999c.096-.109.233-.171.376-.171z"/></svg>