<svg height="20" viewBox="0 0 20 20" width="20" xmlns="http://www.w3.org/2000/svg"><path d="m9.5 20c-2.538 0-4.923-.988-6.718-2.782s-2.782-4.18-2.782-6.717c0-1.483.332-2.904.988-4.223.123-.247.423-.348.67-.225s.348.423.225.67c-.586 1.179-.883 2.45-.883 3.777 0 4.687 3.813 8.5 8.5 8.5s8.5-3.813 8.5-8.5-3.813-8.5-8.5-8.5c-.253 0-.465-.188-.496-.439s.13-.485.375-.546l4-1c.268-.067.539.096.606.364s-.096.539-.364.606l-1.508.377c1.536.437 2.944 1.26 4.104 2.42 1.794 1.794 2.782 4.18 2.782 6.718s-.988 4.923-2.782 6.717-4.18 2.782-6.717 2.782z"/><path d="m9.5 11.027c-.088 0-.178-.023-.258-.072l-5-3.027c-.236-.143-.312-.45-.169-.687s.45-.312.687-.169l5 3.027c.236.143.312.45.169.687-.094.155-.259.241-.428.241z"/></svg>