<svg height="20" viewBox="0 0 20 20" width="20" xmlns="http://www.w3.org/2000/svg"><path d="m17.5 9h-1c-.276 0-.5-.224-.5-.5s.224-.5.5-.5h1c.276 0 .5.224.5.5s-.224.5-.5.5z"/><path d="m17.5 13h-1c-.276 0-.5-.224-.5-.5s.224-.5.5-.5h1c.276 0 .5.224.5.5s-.224.5-.5.5z"/><path d="m17.5 17h-1c-.276 0-.5-.224-.5-.5s.224-.5.5-.5h1c.276 0 .5.224.5.5s-.224.5-.5.5z"/><path d="m20 7.5c0-.637-.251-1.566-.572-2.116l-2.492-4.272c-.37-.634-1.202-1.112-1.936-1.112h-10c-.734 0-1.566.478-1.936 1.112l-2.492 4.272c-.321.55-.572 1.479-.572 2.116v2c0 .384.145.734.383 1-.238.266-.383.616-.383 1v2c0 .384.145.734.383 1-.238.266-.383.616-.383 1v3c0 .827.673 1.5 1.5 1.5h17c.827 0 1.5-.673 1.5-1.5v-3c0-.384-.145-.734-.383-1 .238-.266.383-.616.383-1v-2c0-.384-.145-.734-.383-1 .238-.266.383-.616.383-1zm-1 4v2c0 .276-.224.5-.5.5h-17c-.276 0-.5-.224-.5-.5v-2c0-.276.224-.5.5-.5h17c.276 0 .5.224.5.5zm-17.5-1.5c-.276 0-.5-.224-.5-.5v-2c0-.276.224-.5.5-.5h17c.276 0 .5.224.5.5v2c0 .276-.224.5-.5.5zm2.428-8.384c.188-.322.699-.616 1.072-.616h10c.373 0 .884.293 1.072.616l2.492 4.272c.021.036.042.076.063.118-.042-.004-.084-.006-.127-.006h-17c-.043 0-.085.002-.127.006.021-.042.042-.081.063-.118zm15.072 16.884c0 .276-.224.5-.5.5h-17c-.276 0-.5-.224-.5-.5v-3c0-.276.224-.5.5-.5h17c.276 0 .5.224.5.5z"/><path d="m3 12.5c0 .276-.224.5-.5.5s-.5-.224-.5-.5.224-.5.5-.5.5.224.5.5z"/><path d="m5 12.5c0 .276-.224.5-.5.5s-.5-.224-.5-.5.224-.5.5-.5.5.224.5.5z"/><path d="m7 12.5c0 .276-.224.5-.5.5s-.5-.224-.5-.5.224-.5.5-.5.5.224.5.5z"/><path d="m9 12.5c0 .276-.224.5-.5.5s-.5-.224-.5-.5.224-.5.5-.5.5.224.5.5z"/><path d="m15 8.5c0 .276-.224.5-.5.5s-.5-.224-.5-.5.224-.5.5-.5.5.224.5.5z"/><path d="m15 12.5c0 .276-.224.5-.5.5s-.5-.224-.5-.5.224-.5.5-.5.5.224.5.5z"/><path d="m15 16.5c0 .276-.224.5-.5.5s-.5-.224-.5-.5.224-.5.5-.5.5.224.5.5z"/></svg>