<svg height="20" viewBox="0 0 20 20" width="20" xmlns="http://www.w3.org/2000/svg"><path d="m18.5 18h-17c-.827 0-1.5-.673-1.5-1.5v-13c0-.827.673-1.5 1.5-1.5h11c.276 0 .5.224.5.5s-.224.5-.5.5h-11c-.276 0-.5.224-.5.5v13c0 .276.224.5.5.5h17c.276 0 .5-.224.5-.5v-7c0-.276.224-.5.5-.5s.5.224.5.5v7c0 .827-.673 1.5-1.5 1.5z"/><path d="m19.354 6.146-4-4c-.195-.195-.512-.195-.707 0s-.195.512 0 .707l3.146 3.146h-6.293c-1.721 0-3.346.62-4.575 1.747-1.241 1.138-1.925 2.648-1.925 4.253v.5c0 .276.224.5.5.5s.5-.224.5-.5v-.5c0-2.757 2.467-5 5.5-5h6.293l-3.146 3.146c-.195.195-.195.512 0 .707.098.098.226.146.354.146s.256-.049.354-.146l4-4c.195-.195.195-.512 0-.707z"/></svg>