<svg height="20" viewBox="0 0 20 20" width="20" xmlns="http://www.w3.org/2000/svg"><path d="m9.5 14c-1.93 0-3.5-1.57-3.5-3.5s1.57-3.5 3.5-3.5 3.5 1.57 3.5 3.5-1.57 3.5-3.5 3.5zm0-6c-1.378 0-2.5 1.122-2.5 2.5s1.122 2.5 2.5 2.5 2.5-1.122 2.5-2.5-1.122-2.5-2.5-2.5z"/><path d="m3.5 11h-3c-.276 0-.5-.224-.5-.5s.224-.5.5-.5h2.519c.256-3.351 3.065-6 6.481-6 2.182 0 4.207 1.086 5.416 2.906.153.23.09.54-.14.693s-.54.09-.693-.14c-1.024-1.54-2.737-2.459-4.584-2.459-3.033 0-5.5 2.467-5.5 5.5 0 .276-.224.5-.5.5z"/><path d="m9.5 17c-2.182 0-4.207-1.086-5.416-2.906-.153-.23-.09-.54.14-.693s.54-.09.693.14c1.024 1.54 2.737 2.459 4.584 2.459 3.033 0 5.5-2.467 5.5-5.5 0-.276.224-.5.5-.5h3c.276 0 .5.224.5.5s-.224.5-.5.5h-2.519c-.256 3.351-3.065 6-6.481 6z"/></svg>