<svg height="20" viewBox="0 0 20 20" width="20" xmlns="http://www.w3.org/2000/svg"><path d="m16 12c-1.384 0-2.606.707-3.325 1.779l-4.902-2.451c.147-.416.227-.862.227-1.328s-.08-.912-.227-1.328l4.902-2.451c.718 1.072 1.941 1.779 3.325 1.779 2.206 0 4-1.794 4-4s-1.794-4-4-4-4 1.794-4 4c0 .465.08.912.227 1.327l-4.902 2.451c-.718-1.072-1.941-1.778-3.325-1.778-2.206 0-4 1.794-4 4s1.794 4 4 4c1.384 0 2.606-.707 3.325-1.779l4.902 2.451c-.147.416-.227.862-.227 1.328 0 2.206 1.794 4 4 4s4-1.794 4-4-1.794-4-4-4zm0-11c1.654 0 3 1.346 3 3s-1.346 3-3 3-3-1.346-3-3 1.346-3 3-3zm-12 12c-1.654 0-3-1.346-3-3s1.346-3 3-3 3 1.346 3 3-1.346 3-3 3zm12 6c-1.654 0-3-1.346-3-3s1.346-3 3-3 3 1.346 3 3-1.346 3-3 3z"/></svg>