<svg height="20" viewBox="0 0 20 20" width="20" xmlns="http://www.w3.org/2000/svg"><path d="m9.5 20c-.053 0-.107-.009-.158-.026-1.839-.613-4.147-2.651-5.88-5.193-1.579-2.316-3.462-6.154-3.462-11.282 0-.276.224-.5.5-.5 2.814 0 7.238-1.926 8.723-2.916.168-.112.387-.112.555 0 1.485.99 5.909 2.916 8.723 2.916.276 0 .5.224.5.5 0 5.128-1.883 8.965-3.462 11.282-1.733 2.541-4.041 4.58-5.88 5.193-.051.017-.105.026-.158.026zm-8.494-16.016c.113 4.631 1.832 8.108 3.282 10.235 1.769 2.594 3.856 4.23 5.212 4.751 1.356-.521 3.443-2.156 5.212-4.751 1.45-2.127 3.169-5.604 3.282-10.235-1.628-.102-3.442-.662-4.73-1.14-1.418-.525-2.849-1.193-3.764-1.751-.915.558-2.346 1.226-3.764 1.751-1.289.477-3.102 1.038-4.73 1.14z"/><path d="m13.325 12.12-3.057-2.62 3.057-2.62c.21-.18.234-.495.054-.705s-.495-.234-.705-.054l-3.175 2.721-3.175-2.721c-.21-.18-.525-.155-.705.054s-.155.525.054.705l3.057 2.62-3.057 2.62c-.21.18-.234.495-.054.705.099.115.239.175.38.175.115 0 .231-.04.325-.12l3.175-2.721 3.175 2.721c.094.081.21.12.325.12.141 0 .281-.059.38-.175.18-.21.155-.525-.054-.705z"/></svg>