<svg height="20" viewBox="0 0 20 20" width="20" xmlns="http://www.w3.org/2000/svg"><path d="m18.5 20c-.707 0-1.29-.583-1.854-1.146-.38-.38-.854-.854-1.146-.854-.276 0-.696.431-1.066.811-.542.557-1.157 1.189-1.934 1.189-.767 0-1.349-.614-1.863-1.156-.393-.415-.8-.844-1.137-.844-.355 0-.813.471-1.217.886-.533.548-1.084 1.114-1.783 1.114-.707 0-1.29-.583-1.854-1.146-.38-.38-.854-.854-1.146-.854s-.766.473-1.146.854c-.564.564-1.146 1.146-1.854 1.146-.276 0-.5-.224-.5-.5s.224-.5.5-.5c.293 0 .766-.473 1.146-.854.564-.564 1.146-1.146 1.854-1.146s1.29.583 1.854 1.146c.38.38.854.854 1.146.854.276 0 .696-.431 1.066-.811.542-.557 1.157-1.189 1.934-1.189.767 0 1.349.614 1.863 1.156.393.415.8.844 1.137.844.355 0 .813-.471 1.217-.886.533-.548 1.084-1.114 1.783-1.114.707 0 1.29.583 1.854 1.146.38.38.854.854 1.146.854.276 0 .5.224.5.5s-.224.5-.5.5z"/><path d="m18.5 16c-.293 0-.766-.473-1.146-.854-.42-.42-.85-.85-1.335-1.042.051-.757.244-2.595.966-5.483.01-.04.015-.08.015-.121 0-.464-.397-.851-1.37-1.338-.188-.094-.398-.192-.63-.293v-1.869c0-.416-.378-.665-1.076-.979-.428-.192-1.019-.421-1.759-.68-.847-.296-1.7-.566-2.165-.71v-2.13c0-.276-.224-.5-.5-.5s-.5.224-.5.5v2.13c-.464.142-1.315.407-2.159.69-.735.246-1.323.458-1.748.63-.68.275-1.094.474-1.094.9v2.019c-.232.101-.442.199-.63.293-.973.487-1.37.874-1.37 1.338 0 .041.005.082.015.121.722 2.888.915 4.726.966 5.483-.485.192-.915.623-1.335 1.042-.38.38-.854.854-1.146.854-.276 0-.5.224-.5.5s.224.5.5.5c.707 0 1.29-.583 1.854-1.146.38-.38.854-.854 1.146-.854s.766.473 1.146.854c.564.564 1.146 1.146 1.854 1.146.699 0 1.25-.566 1.783-1.114.404-.415.862-.886 1.217-.886.337 0 .744.429 1.137.844.514.542 1.096 1.156 1.863 1.156.777 0 1.392-.631 1.934-1.189.37-.38.79-.811 1.066-.811.293 0 .766.473 1.146.854.564.564 1.146 1.146 1.854 1.146.276 0 .5-.224.5-.5s-.224-.5-.5-.5zm-6.921-11.804c1.664.572 2.234.867 2.421.985v1.281c-.26-.1-.537-.203-.832-.308-1.274-.455-2.56-.848-3.168-1.029v-1.448c.417.131.99.316 1.579.518zm-6.579.886c.533-.276 2.301-.881 4-1.407v1.451c-.609.181-1.894.574-3.168 1.029-.294.105-.571.208-.832.308v-1.38zm8.717 10.032c-.404.415-.862.886-1.217.886-.337 0-.744-.429-1.137-.844-.514-.542-1.096-1.156-1.863-1.156-.777 0-1.392.631-1.934 1.189-.37.38-.79.811-1.066.811-.293 0-.766-.473-1.146-.854-.43-.43-.871-.871-1.37-1.056-.047-.767-.233-2.608-.957-5.544.118-.115.497-.398 1.667-.886 0 0 .001 0 .001-.001.45-.187 1.016-.405 1.73-.655 1.347-.472 2.657-.862 3.075-.984.417.122 1.724.511 3.071.983.715.25 1.282.468 1.733.656.001.001.003.001.004.002 1.169.487 1.548.77 1.666.885-.724 2.938-.91 4.779-.957 5.546-.481.182-.895.607-1.299 1.022z"/></svg>