<svg height="20" viewBox="0 0 20 20" width="20" xmlns="http://www.w3.org/2000/svg"><path d="m5.5 7c-.132 0-.26-.053-.353-.147s-.147-.222-.147-.353.053-.261.147-.353c.093-.093.222-.147.353-.147s.261.053.353.147c.093.093.147.222.147.353s-.053.261-.147.353c-.093.093-.222.147-.353.147z"/><path d="m8.5 7h-1c-.276 0-.5-.224-.5-.5s.224-.5.5-.5h1c.276 0 .5.224.5.5s-.224.5-.5.5z"/><path d="m11.5 7h-1c-.276 0-.5-.224-.5-.5s.224-.5.5-.5h1c.276 0 .5.224.5.5s-.224.5-.5.5z"/><path d="m13.5 7c-.132 0-.261-.053-.353-.147s-.147-.222-.147-.353.053-.261.147-.353c.093-.093.222-.147.353-.147s.26.053.353.147c.093.093.147.222.147.353s-.053.26-.147.353c-.093.093-.222.147-.353.147z"/><path d="m16.172 20.01c-.594 0-1.11-.223-1.533-.664-.78-.813-.841-2.14-.138-3.021.471-.591 1.332-.997 2.464-.623-.057-.569-.203-1.14-.562-1.441-.291-.244-.721-.311-1.316-.205-.916.162-1.625.837-2.447 1.617-1.148 1.091-2.449 2.328-4.641 2.328-1.207 0-1.843-.636-2.354-1.146-.477-.477-.854-.854-1.646-.854-1.061 0-2.631 1.338-3.146 1.854-.195.195-.512.195-.707 0s-.195-.512 0-.707c.022-.022.536-.534 1.247-1.051 1-.727 1.877-1.096 2.607-1.096 1.207 0 1.843.636 2.354 1.146.477.477.854.854 1.646.854 1.792 0 2.89-1.044 3.952-2.053.86-.817 1.749-1.662 2.961-1.877.892-.158 1.609-.015 2.133.424.846.709.954 1.979.954 3.006 0 .18-.097.346-.254.435s-.349.086-.504-.006c-.836-.501-1.55-.494-1.96.02-.34.427-.407 1.2.078 1.705.24.25.507.363.841.356 1.088-.023 2.479-1.336 2.923-1.84.182-.207.498-.227.706-.045s.228.498.046.705c-.019.022-.471.534-1.126 1.054-.92.731-1.77 1.109-2.524 1.126-.018 0-.035.001-.053.001z"/><path d="m7.5 20.01c-.052 0-.104-.008-.156-.025-.38-.125-.686-.29-.982-.449-.534-.288-.995-.536-1.862-.536-.645 0-1.408.617-1.647.854-.196.194-.512.194-.707-.002s-.195-.511 0-.706c.117-.117 1.18-1.146 2.354-1.146 1.119 0 1.766.349 2.337.656.269.145.523.282.819.379.262.086.405.369.319.631-.069.211-.265.344-.475.344z"/><path d="m17.608 9.012c-.034-.008-.207-.046-.489-.103l.864-3.281c.067-.255-.075-.518-.325-.602l-3-1c-.051-.017-.104-.026-.158-.026h-.88c-.268-.138-1.018-.531-1.776-1-1.662-1.028-1.83-1.461-1.844-1.511v-.989c0-.276-.224-.5-.5-.5s-.5.224-.5.5v.989c-.014.05-.182.483-1.844 1.511-.757.468-1.507.862-1.776 1h-.88c-.054 0-.107.009-.158.026l-3 1c-.25.083-.393.347-.325.602l.864 3.281c-.282.057-.455.096-.489.103-.229.051-.392.254-.392.488 0 1.578.288 3.311.857 5.148.066.215.264.352.478.352.049 0 .099-.007.148-.022.264-.082.412-.362.33-.625-.49-1.584-.76-3.078-.805-4.448 1.101-.225 4.28-.828 6.993-.898v6.493c0 .276.224.5.5.5s.5-.224.5-.5v-6.493c2.712.07 5.892.673 6.993.898-.026.791-.128 1.629-.303 2.497-.055.271.12.534.391.589s.534-.12.589-.391c.219-1.083.33-2.125.33-3.099 0-.234-.163-.437-.392-.488zm-6.373-5.213c.11.069.22.136.328.201h-1.563v-1.062c.327.264.741.552 1.235.861zm-3.47 0c.494-.309.908-.597 1.235-.861v1.062h-1.563c.108-.065.218-.132.328-.201zm-5.662 2.027 2.478-.826h9.838l2.478.826-.762 2.892c-1.629-.299-4.325-.718-6.635-.718s-5.006.419-6.635.718z"/></svg>