<svg height="20" viewBox="0 0 20 20" width="20" xmlns="http://www.w3.org/2000/svg"><path d="m13.5 19h-8c-.827 0-1.5-.673-1.5-1.5v-9.306l-2.342.781c-.262.087-.545-.054-.632-.316l-1-3c-.079-.236.028-.494.251-.605l6-3c.155-.077.339-.069.486.022s.237.252.237.425c0 1.378 1.122 2.5 2.5 2.5s2.5-1.122 2.5-2.5c0-.173.09-.334.237-.425s.331-.099.486-.022l6 3c.223.111.329.369.251.605l-1 3c-.087.262-.37.404-.632.316l-2.342-.781v9.306c0 .827-.673 1.5-1.5 1.5zm-9-12c.104 0 .206.032.292.094.13.094.208.245.208.406v10c0 .276.224.5.5.5h8c.276 0 .5-.224.5-.5v-10c0-.161.077-.312.208-.406s.298-.12.45-.069l2.526.842.705-2.114-4.973-2.487c-.351 1.562-1.749 2.733-3.415 2.733s-3.065-1.171-3.415-2.733l-4.973 2.487.705 2.114 2.526-.842c.052-.017.105-.026.158-.026z"/></svg>