<svg height="20" viewBox="0 0 20 20" width="20" xmlns="http://www.w3.org/2000/svg"><path d="m17.244 4.712c-.18-.184-.359-.346-.484-.456-.074-.542-.376-1.08-.906-1.61-1.601-1.6-2.729-1.646-2.853-1.646-.002 0-.004 0-.006 0-.167.002-.322.087-.414.227-1.379 2.115-3.44 5.227-4.585 6.861.036-.308.039-.54-.016-.728-.339-1.156-1.857-1.348-1.921-1.356-.216-.026-.423.091-.513.288-.208.455-.396 1.651-.711 3.725-.055.362-.112.738-.171 1.12-.494 3.197-.554 3.259-2.092 4.84-.191.196-.407.419-.647.671-.405.425-.703.956-.84 1.494-.141.555-.091 1.04.135 1.332.365.469.79.52.871.526.011.001.022.001.033.001.054 0 .108-.009.159-.026.101-.034 2.497-.86 5.447-3.807 2.778-2.774 3.373-3.944 3.767-4.718.137-.269.227-.446.379-.622.257-.296.822-.911 1.476-1.622.041-.045.083-.09.125-.136l.635.777c.09.11.222.176.363.183.008 0 .016.001.024.001.133 0 .261-.053.355-.148.008-.008.766-.774 1.514-1.592 1.508-1.649 1.631-2.013 1.631-2.29 0-.357-.233-.754-.756-1.288zm-6.122 5.461c-.232.268-.363.525-.515.823-.365.717-.917 1.802-3.583 4.464-2.356 2.353-4.35 3.279-4.906 3.507-.028-.02-.061-.05-.098-.094-.058-.165.017-.894.628-1.536.236-.248.451-.469.64-.663.798-.821 1.279-1.316 1.61-2.052.312-.696.478-1.552.753-3.333.059-.383.116-.759.171-1.123.181-1.197.368-2.426.517-3.071.277.096.595.268.678.54.025.139-.056.632-.099.898-.115.707-.178 1.096.054 1.37.107.125.262.197.426.197.239 0 .406-.149.461-.197.119-.106.398-.354 3.029-4.298.993-1.489 1.955-2.956 2.346-3.553.34.103 1.017.408 1.91 1.301.882.881.725 1.482.219 2.114-.451.562-1.725 1.948-2.748 3.061-.659.717-1.229 1.337-1.495 1.644zm4.408-2.448c-.37.402-.735.784-.997 1.055l-.372-.455c.835-.912 1.627-1.787 1.984-2.232.174-.217.312-.434.414-.651.206.215.365.411.423.53-.083.147-.385.594-1.452 1.752z"/></svg>