<svg height="20" viewBox="0 0 20 20" width="20" xmlns="http://www.w3.org/2000/svg"><path d="m18.968 12.324-3-8c-.073-.195-.26-.324-.468-.324h-12c-.208 0-.395.129-.468.324l-3 8c-.09.24.016.508.245.623l6 3c.216.108.479.046.624-.147l2.6-3.467 2.6 3.467c.097.13.247.2.4.2.076 0 .152-.017.223-.053l6-3c.229-.114.334-.383.245-.623zm-15.121-7.324h11.307l.375 1h-12.057zm8.803 9.866-2.75-3.666c-.094-.126-.243-.2-.4-.2s-.306.074-.4.2l-2.75 3.666-5.224-2.612 1.97-5.254h4.577c-.055.074-.109.153-.16.235-.35.561-.493 1.12-.499 1.144-.067.268.096.539.364.606s.539-.096.606-.364c.004-.016.435-1.621 1.515-1.621 1.084 0 1.508 1.595 1.515 1.622.057.227.261.378.484.378.04 0 .081-.005.122-.015.268-.067.431-.338.364-.606-.006-.024-.148-.583-.499-1.144-.051-.082-.105-.161-.16-.235h4.577l1.97 5.254-5.224 2.612z"/></svg>