<svg height="20" viewBox="0 0 20 20" width="20" xmlns="http://www.w3.org/2000/svg"><path d="m19.561 3.439-3-3c-.283-.283-.66-.439-1.061-.439s-.777.156-1.061.439c-.283.283-.439.66-.439 1.061v2.293l-4 4-.146-.146c-.195-.195-.512-.195-.707 0l-.74.74-1.939-1.939c-.283-.283-.659-.438-1.061-.438s-.778.156-1.061.438l-2.699 2.699c-1.016 1.016-1.646 2.099-1.646 4.354 0 2.058.984 5.032 1.026 5.158.05.149.167.266.316.316.126.042 3.101 1.026 5.158 1.026 2.254 0 3.337-.63 4.354-1.646l2.699-2.699c.283-.283.438-.659.438-1.061s-.156-.778-.438-1.061l-1.939-1.939.74-.74c.094-.094.146-.221.146-.354s-.053-.26-.146-.354l-.146-.146 4-4h2.293c.401 0 .777-.156 1.061-.439s.439-.66.439-1.061-.156-.777-.439-1.061zm-10.061 5.268 1.793 1.793-3.211 3.211c-.188.188-.439.291-.707.291s-.519-.103-.707-.291l-.379-.379c-.39-.39-.39-1.024 0-1.414zm3.346 5.533c.195.195.195.512 0 .707l-2.699 2.699c-.878.878-1.719 1.354-3.646 1.354-1.577 0-3.863-.668-4.602-.898-.23-.739-.898-3.023-.898-4.602 0-1.927.476-2.769 1.354-3.646l2.699-2.699c.195-.195.512-.195.707 0l1.939 1.939-2.117 2.117c-.78.78-.78 2.049 0 2.828l.379.379c.377.377.879.584 1.414.584s1.038-.207 1.414-.584l2.117-2.117zm-2.139-5.74 3.793-3.793.793.793-3.793 3.793zm8.147-3.646c-.094.094-.22.146-.354.146h-2.293l-1.207-1.207v-2.293c0-.134.052-.259.147-.354s.22-.146.353-.146.259.052.354.146l3 3c.094.094.146.22.146.354s-.052.259-.147.354z"/></svg>