<svg height="20" viewBox="0 0 20 20" width="20" xmlns="http://www.w3.org/2000/svg"><path d="m15.5 11c-.827 0-1.5-.673-1.5-1.5s.673-1.5 1.5-1.5 1.5.673 1.5 1.5-.673 1.5-1.5 1.5zm0-2c-.276 0-.5.224-.5.5s.224.5.5.5.5-.224.5-.5-.224-.5-.5-.5z"/><path d="m13.5 5h-8c-.276 0-.5-.224-.5-.5s.224-.5.5-.5h8c.276 0 .5.224.5.5s-.224.5-.5.5z"/><path d="m17.5 6h-1.5v-4.5c0-.827-.673-1.5-1.5-1.5h-10c-.827 0-1.5.673-1.5 1.5v4.5h-1.5c-.827 0-1.5.673-1.5 1.5v9c0 .827.673 1.5 1.5 1.5h1.5v1.5c0 .276.224.5.5.5s.5-.224.5-.5v-5.5h1v4.5c0 .276.224.5.5.5s.5-.224.5-.5v-4.5h1v5.5c0 .276.224.5.5.5s.5-.224.5-.5v-5.5h1v4.5c0 .276.224.5.5.5s.5-.224.5-.5v-4.5h1v5.5c0 .276.224.5.5.5s.5-.224.5-.5v-5.5h1v4.5c0 .276.224.5.5.5s.5-.224.5-.5v-4.5h1v5.5c0 .276.224.5.5.5s.5-.224.5-.5v-1.5h1.5c.827 0 1.5-.673 1.5-1.5v-9c0-.827-.673-1.5-1.5-1.5zm-13.5-4.5c0-.276.224-.5.5-.5h10c.276 0 .5.224.5.5v4.5h-11zm14 15c0 .276-.224.5-.5.5h-1.5v-3h.5c.276 0 .5-.224.5-.5s-.224-.5-.5-.5h-14c-.276 0-.5.224-.5.5s.224.5.5.5h.5v3h-1.5c-.276 0-.5-.224-.5-.5v-9c0-.276.224-.5.5-.5h16c.276 0 .5.224.5.5z"/><path d="m13.5 3h-8c-.276 0-.5-.224-.5-.5s.224-.5.5-.5h8c.276 0 .5.224.5.5s-.224.5-.5.5z"/></svg>