<svg height="20" viewBox="0 0 20 20" width="20" xmlns="http://www.w3.org/2000/svg"><path d="m15.5 17c-.209 0-.404-.132-.474-.342-.087-.262.054-.545.316-.632l.847-.282c-3.262-.766-5.195-3.129-7.075-5.427-2.237-2.734-4.35-5.317-8.613-5.317-.276 0-.5-.224-.5-.5s.224-.5.5-.5c4.737 0 7.101 2.889 9.387 5.683 2.237 2.734 4.35 5.317 8.613 5.317.245 0 .454.178.494.42s-.103.477-.335.554l-3 1c-.052.017-.106.026-.158.026z"/><path d="m10.755 9c-.117 0-.234-.041-.329-.124-.208-.182-.229-.498-.047-.706 1.491-1.703 3.228-3.305 5.811-3.913l-.849-.283c-.262-.087-.404-.37-.316-.632s.37-.404.632-.316l3 1c.233.078.375.312.335.554s-.248.42-.494.42c-3.333 0-5.356 1.531-7.368 3.829-.099.113-.237.171-.376.171z"/><path d="m.5 16c-.276 0-.5-.224-.5-.5s.224-.5.5-.5c3.333 0 5.356-1.531 7.368-3.829.182-.208.498-.229.706-.047s.229.498.047.706c-1.896 2.166-4.193 4.171-8.121 4.171z"/></svg>