<svg height="20" viewBox="0 0 20 20" width="20" xmlns="http://www.w3.org/2000/svg"><path d="m17.071 2.929c-1.889-1.889-4.4-2.929-7.071-2.929s-5.182 1.04-7.071 2.929-2.929 4.4-2.929 7.071 1.04 5.182 2.929 7.071 4.4 2.929 7.071 2.929 5.182-1.04 7.071-2.929 2.929-4.4 2.929-7.071-1.04-5.182-2.929-7.071zm-16.071 7.071c0-1.004.165-1.97.47-2.873l5.701 5.701c.012.012.024.023.037.033.048.047.098.093.149.138h-5.843c-.333-.939-.515-1.948-.515-3zm9 3c-1.654 0-3-1.346-3-3s1.346-3 3-3 3 1.346 3 3-1.346 3-3 3zm2.791-5.862c-.048-.047-.098-.093-.148-.138h5.843c.333.939.515 1.948.515 3 0 1.004-.165 1.97-.47 2.873l-5.701-5.701c-.012-.012-.025-.023-.037-.034zm5.27-1.138h-8.061c-.084 0-.168.003-.251.008l4.129-4.129c1.811.868 3.288 2.325 4.183 4.121zm-5.188-4.53-5.701 5.701c-.012.012-.022.024-.032.036-.048.049-.094.099-.139.15v-5.843c.939-.333 1.949-.515 3-.515 1.004 0 1.97.165 2.873.47zm-6.873.469v8.061.001c0 .084.003.167.008.25l-4.129-4.129c.868-1.811 2.325-3.288 4.121-4.183zm-4.061 12.061h8.061.002c.084 0 .167-.003.249-.008l-4.129 4.129c-1.811-.868-3.288-2.325-4.183-4.121zm5.188 4.53 5.701-5.701c.012-.012.023-.025.034-.038.047-.048.093-.098.138-.148v5.843c-.939.333-1.948.515-3 .515-1.004 0-1.97-.165-2.873-.47zm6.873-.469v-8.061c0-.001 0-.002 0-.002 0-.083-.003-.166-.008-.248l4.129 4.129c-.868 1.811-2.325 3.288-4.121 4.183z"/></svg>