<svg height="20" viewBox="0 0 20 20" width="20" xmlns="http://www.w3.org/2000/svg"><path d="m20 15.49v-4.989-4.997c0-.002 0-.003 0-.005v-4.998c0-.276-.224-.5-.5-.5h-5.008c-.001 0-.002 0-.003 0h-10.986c-.002 0-.004 0-.005 0h-2.998c-.276 0-.5.224-.5.5v4.009.001 9.987.005 4.998c0 .276.224.5.5.5h4.997.003s.002 0 .003 0h10.994.003s.002 0 .003 0h2.997c.276 0 .5-.224.5-.5v-4.009c0-.001 0-.001 0-.002zm-3.424 3.51-8.537-2.668-4.602-4.602-2.437-7.311v-3.419h2.424l8.537 2.668 4.602 4.602 2.437 7.311v3.419zm-5.869 0-1.144-1.144 3.661 1.144zm-4.847 0-.856-2.569 2.502.782 1.787 1.787zm-4.86-11.419.856 2.568-.856-.856zm0 3.126 1.563 1.563.875 2.624-2.438-.762zm3.144 3.144 1.838 1.838-1.368-.427zm5.149-12.851 1.144 1.144-3.661-1.144zm4.847 0 .856 2.569-2.502-.782-1.787-1.787zm4.86 8.293-1.563-1.563-.875-2.624 2.438.762zm-3.144-3.144-1.838-1.838 1.368.427zm2.288 3.702.856.856v1.712zm.856-5.031-2.828-.884-.979-2.936h3.806v3.82zm-18 10.36 2.828.884.979 2.936h-3.806v-3.82z"/></svg>