<svg height="20" viewBox="0 0 20 20" width="20" xmlns="http://www.w3.org/2000/svg"><path d="m18.5 19h-2c-.276 0-.5-.224-.5-.5v-17c0-.276.224-.5.5-.5h2c.276 0 .5.224.5.5v17c0 .276-.224.5-.5.5zm-1.5-1h1v-16h-1z"/><path d="m14.5 19h-2c-.276 0-.5-.224-.5-.5v-12c0-.276.224-.5.5-.5h2c.276 0 .5.224.5.5v12c0 .276-.224.5-.5.5zm-1.5-1h1v-11h-1z"/><path d="m10.5 19h-2c-.276 0-.5-.224-.5-.5v-8c0-.276.224-.5.5-.5h2c.276 0 .5.224.5.5v8c0 .276-.224.5-.5.5zm-1.5-1h1v-7h-1z"/><path d="m6.5 19h-2c-.276 0-.5-.224-.5-.5v-5c0-.276.224-.5.5-.5h2c.276 0 .5.224.5.5v5c0 .276-.224.5-.5.5zm-1.5-1h1v-4h-1z"/><path d="m2.5 19h-2c-.276 0-.5-.224-.5-.5v-3c0-.276.224-.5.5-.5h2c.276 0 .5.224.5.5v3c0 .276-.224.5-.5.5zm-1.5-1h1v-2h-1z"/><path d="m6 4.086v-.586c0-1.378-1.122-2.5-2.5-2.5s-2.5 1.122-2.5 2.5v.586c-.582.206-1 .762-1 1.414v3c0 .827.673 1.5 1.5 1.5h4c.827 0 1.5-.673 1.5-1.5v-3c0-.652-.418-1.208-1-1.414zm-2.5-2.086c.827 0 1.5.673 1.5 1.5v.5h-3v-.5c0-.827.673-1.5 1.5-1.5zm2.5 6.5c0 .276-.224.5-.5.5h-4c-.276 0-.5-.224-.5-.5v-3c0-.276.224-.5.5-.5h4c.276 0 .5.224.5.5z"/></svg>