<svg height="20" viewBox="0 0 20 20" width="20" xmlns="http://www.w3.org/2000/svg"><path d="m2.5 19h-2c-.276 0-.5-.224-.5-.5v-3c0-.276.224-.5.5-.5h2c.276 0 .5.224.5.5v3c0 .276-.224.5-.5.5zm-1.5-1h1v-2h-1z"/><path d="m6.5 19h-2c-.276 0-.5-.224-.5-.5v-5c0-.276.224-.5.5-.5h2c.276 0 .5.224.5.5v5c0 .276-.224.5-.5.5zm-1.5-1h1v-4h-1z"/><path d="m10.5 19h-2c-.276 0-.5-.224-.5-.5v-8c0-.276.224-.5.5-.5h2c.276 0 .5.224.5.5v8c0 .276-.224.5-.5.5zm-1.5-1h1v-7h-1z"/><path d="m14.5 19h-2c-.276 0-.5-.224-.5-.5v-12c0-.276.224-.5.5-.5h2c.276 0 .5.224.5.5v12c0 .276-.224.5-.5.5zm-1.5-1h1v-11h-1z"/><path d="m18.5 19h-2c-.276 0-.5-.224-.5-.5v-17c0-.276.224-.5.5-.5h2c.276 0 .5.224.5.5v17c0 .276-.224.5-.5.5zm-1.5-1h1v-16h-1z"/></svg>