<svg height="20" viewBox="0 0 20 20" width="20" xmlns="http://www.w3.org/2000/svg"><path d="m15.5 20h-11c-.827 0-1.5-.673-1.5-1.5v-11.5c0-.688.367-1.574.854-2.061l3.086-3.086c.487-.487 1.373-.854 2.061-.854h6.5c.827 0 1.5.673 1.5 1.5v16c0 .827-.673 1.5-1.5 1.5zm-6.5-18c-.415 0-1.06.267-1.354.561l-3.086 3.086c-.293.293-.561.939-.561 1.354v11.5c0 .276.224.5.5.5h11c.276 0 .5-.224.5-.5v-16c0-.276-.224-.5-.5-.5h-6.5z"/><path d="m13 9h-6c-1.103 0-2 .897-2 2v5c0 1.103.897 2 2 2h6c1.103 0 2-.897 2-2v-5c0-1.103-.897-2-2-2zm1 2v2h-2v-3h1c.551 0 1 .449 1 1zm-5 2v-3h2v3zm2 1v3h-2v-3zm-4-4h1v3h-2v-2c0-.551.449-1 1-1zm-1 6v-2h2v3h-1c-.551 0-1-.449-1-1zm7 1h-1v-3h2v2c0 .551-.449 1-1 1z"/></svg>