<svg height="20" viewBox="0 0 20 20" width="20" xmlns="http://www.w3.org/2000/svg"><path d="m9.5 7c-.276 0-.5-.224-.5-.5v-3c0-.276.224-.5.5-.5s.5.224.5.5v3c0 .276-.224.5-.5.5z"/><path d="m18.5 13h-2c-.276 0-.5-.224-.5-.5s.224-.5.5-.5h2c.276 0 .5.224.5.5s-.224.5-.5.5z"/><path d="m2.5 13h-2c-.276 0-.5-.224-.5-.5s.224-.5.5-.5h2c.276 0 .5.224.5.5s-.224.5-.5.5z"/><path d="m15 15.086v-1.586c0-3.033-2.467-5.5-5.5-5.5s-5.5 2.467-5.5 5.5v1.586c-.582.206-1 .762-1 1.414 0 .827.673 1.5 1.5 1.5h10c.827 0 1.5-.673 1.5-1.5 0-.652-.418-1.208-1-1.414zm-5.5-6.086c2.481 0 4.5 2.019 4.5 4.5v1.5h-9v-1.5c0-2.481 2.019-4.5 4.5-4.5zm5 8h-10c-.276 0-.5-.224-.5-.5s.224-.5.5-.5h10c.276 0 .5.224.5.5s-.224.5-.5.5z"/><path d="m14.5 8.5c-.128 0-.256-.049-.354-.146-.195-.195-.195-.512 0-.707l2-2c.195-.195.512-.195.707 0s.195.512 0 .707l-2 2c-.098.098-.226.146-.354.146z"/><path d="m4.5 8.5c-.128 0-.256-.049-.354-.146l-2-2c-.195-.195-.195-.512 0-.707s.512-.195.707 0l2 2c.195.195.195.512 0 .707-.098.098-.226.146-.354.146z"/></svg>