<svg height="20" viewBox="0 0 20 20" width="20" xmlns="http://www.w3.org/2000/svg"><path d="m17 13.05v-1.55c0-.827-.673-1.5-1.5-1.5h-5.5v-2.05c1.14-.232 2-1.242 2-2.45 0-1.378-1.122-2.5-2.5-2.5s-2.5 1.122-2.5 2.5c0 1.207.86 2.217 2 2.45v2.05h-5.5c-.827 0-1.5.673-1.5 1.5v1.55c-1.14.232-2 1.242-2 2.45 0 1.378 1.122 2.5 2.5 2.5s2.5-1.122 2.5-2.5c0-1.207-.86-2.217-2-2.45v-1.55c0-.276.224-.5.5-.5h5.5v2.05c-1.14.232-2 1.242-2 2.45 0 1.378 1.122 2.5 2.5 2.5s2.5-1.122 2.5-2.5c0-1.207-.86-2.217-2-2.45v-2.05h5.5c.276 0 .5.224.5.5v1.55c-1.14.232-2 1.242-2 2.45 0 1.378 1.122 2.5 2.5 2.5s2.5-1.122 2.5-2.5c0-1.207-.86-2.217-2-2.45zm-9-7.55c0-.827.673-1.5 1.5-1.5s1.5.673 1.5 1.5-.673 1.5-1.5 1.5-1.5-.673-1.5-1.5zm-4 10c0 .827-.673 1.5-1.5 1.5s-1.5-.673-1.5-1.5.673-1.5 1.5-1.5 1.5.673 1.5 1.5zm7 0c0 .827-.673 1.5-1.5 1.5s-1.5-.673-1.5-1.5.673-1.5 1.5-1.5 1.5.673 1.5 1.5zm5.5 1.5c-.827 0-1.5-.673-1.5-1.5s.673-1.5 1.5-1.5 1.5.673 1.5 1.5-.673 1.5-1.5 1.5z"/></svg>