<svg height="20" viewBox="0 0 20 20" width="20" xmlns="http://www.w3.org/2000/svg"><path d="m14.5 20c-.276 0-.5-.224-.5-.5v-3c0-1.324.809-2.63 1.842-2.974.617-.206 1.158-1.152 1.158-2.026v-2c0-4.136-3.364-7.5-7.5-7.5s-7.5 3.364-7.5 7.5v2c0 .873.541 1.82 1.158 2.026 1.033.344 1.842 1.651 1.842 2.974v3c0 .276-.224.5-.5.5s-.5-.224-.5-.5v-3c0-.873-.541-1.82-1.158-2.026-1.033-.344-1.842-1.651-1.842-2.974v-2c0-2.27.884-4.405 2.49-6.01s3.74-2.49 6.01-2.49 4.405.884 6.01 2.49 2.49 3.74 2.49 6.01v2c0 1.324-.809 2.63-1.842 2.974-.617.206-1.158 1.152-1.158 2.026v3c0 .276-.224.5-.5.5z"/><path d="m6.5 20c-.276 0-.5-.224-.5-.5v-2c0-.276.224-.5.5-.5s.5.224.5.5v2c0 .276-.224.5-.5.5z"/><path d="m8.5 20c-.276 0-.5-.224-.5-.5v-2c0-.276.224-.5.5-.5s.5.224.5.5v2c0 .276-.224.5-.5.5z"/><path d="m10.5 20c-.276 0-.5-.224-.5-.5v-2c0-.276.224-.5.5-.5s.5.224.5.5v2c0 .276-.224.5-.5.5z"/><path d="m12.5 20c-.276 0-.5-.224-.5-.5v-2c0-.276.224-.5.5-.5s.5.224.5.5v2c0 .276-.224.5-.5.5z"/><path d="m12.5 13c-1.378 0-2.5-1.122-2.5-2.5s1.122-2.5 2.5-2.5 2.5 1.122 2.5 2.5-1.122 2.5-2.5 2.5zm0-4c-.827 0-1.5.673-1.5 1.5s.673 1.5 1.5 1.5 1.5-.673 1.5-1.5-.673-1.5-1.5-1.5z"/><path d="m6.5 13c-1.378 0-2.5-1.122-2.5-2.5s1.122-2.5 2.5-2.5 2.5 1.122 2.5 2.5-1.122 2.5-2.5 2.5zm0-4c-.827 0-1.5.673-1.5 1.5s.673 1.5 1.5 1.5 1.5-.673 1.5-1.5-.673-1.5-1.5-1.5z"/><path d="m10.438 15.786c-.108 0-.224-.021-.346-.061-.148-.049-.363-.077-.592-.077s-.444.028-.592.077c-.122.041-.238.061-.346.061-.268 0-.492-.124-.614-.341-.11-.195-.176-.536.138-1.059l.471-.785c.227-.379.571-.596.943-.596s.716.217.943.596l.471.785c.314.523.248.865.138 1.059-.123.217-.347.341-.614.341zm-.938-1.139c.144 0 .285.008.42.024l-.334-.557c-.037-.062-.069-.091-.086-.104-.017.013-.049.042-.086.104l-.334.557c.134-.016.276-.024.42-.024z"/></svg>