<svg height="20" viewBox="0 0 20 20" width="20" xmlns="http://www.w3.org/2000/svg"><path d="m10.5 20h-1c-.827 0-1.5-.673-1.5-1.5v-1.5c0-.276.224-.5.5-.5s.5.224.5.5v1.5c0 .276.224.5.5.5h1c.276 0 .5-.224.5-.5v-1.5c0-.276.224-.5.5-.5s.5.224.5.5v1.5c0 .827-.673 1.5-1.5 1.5z"/><path d="m14.5 0h-1c-.827 0-1.5.673-1.5 1.5v2.5c0 1.103-.897 2-2 2s-2-.897-2-2v-2.5c0-.827-.673-1.5-1.5-1.5h-1c-.827 0-1.5.673-1.5 1.5v2.5c0 1.333.428 2.595 1.238 3.65.706.919 1.676 1.623 2.762 2.008v3.842c0 .276.224.5.5.5s.5-.224.5-.5v-4.207c0-.224-.149-.42-.364-.481-2.141-.606-3.636-2.584-3.636-4.812h2c0 1.654 1.346 3 3 3s3-1.346 3-3h2c0 2.228-1.495 4.206-3.636 4.812-.215.061-.364.257-.364.481v4.207c0 .276.224.5.5.5s.5-.224.5-.5v-3.842c1.086-.385 2.057-1.088 2.762-2.008.81-1.055 1.238-2.317 1.238-3.65v-2.5c0-.827-.673-1.5-1.5-1.5zm-9.5 3v-1.5c0-.276.224-.5.5-.5h1c.276 0 .5.224.5.5v1.5zm8 0v-1.5c0-.276.224-.5.5-.5h1c.276 0 .5.224.5.5v1.5z"/><path d="m10 16c-1.87 0-3.628-.728-4.95-2.05s-2.05-3.08-2.05-4.95v-5.5c0-.276.224-.5.5-.5s.5.224.5.5v5.5c0 3.308 2.692 6 6 6s6-2.692 6-6v-5.5c0-.276.224-.5.5-.5s.5.224.5.5v5.5c0 1.87-.728 3.628-2.05 4.95s-3.08 2.05-4.95 2.05z"/></svg>