<svg height="20" viewBox="0 0 20 20" width="20" xmlns="http://www.w3.org/2000/svg"><path d="m14.5 20h-9c-.827 0-1.5-.673-1.5-1.5v-17c0-.827.673-1.5 1.5-1.5h9c.827 0 1.5.673 1.5 1.5v17c0 .827-.673 1.5-1.5 1.5zm-9-19c-.276 0-.5.224-.5.5v17c0 .276.224.5.5.5h9c.276 0 .5-.224.5-.5v-17c0-.276-.224-.5-.5-.5z"/><path d="m13.5 16h-7c-.276 0-.5-.224-.5-.5v-13c0-.276.224-.5.5-.5h7c.276 0 .5.224.5.5v13c0 .276-.224.5-.5.5zm-6.5-1h6v-12h-6z"/><path d="m10.5 18h-1c-.276 0-.5-.224-.5-.5s.224-.5.5-.5h1c.276 0 .5.224.5.5s-.224.5-.5.5z"/><path d="m2.5 18c-.183 0-.36-.101-.448-.277l-1-2c-.07-.141-.07-.306 0-.447l.888-1.776-.888-1.776c-.07-.141-.07-.306 0-.447l.888-1.776-.888-1.776c-.07-.141-.07-.306 0-.447l.888-1.776-.888-1.776c-.07-.141-.07-.306 0-.447l1-2c.123-.247.424-.347.671-.224s.347.424.224.671l-.888 1.776.888 1.776c.07.141.07.306 0 .447l-.888 1.776.888 1.776c.07.141.07.306 0 .447l-.888 1.776.888 1.776c.07.141.07.306 0 .447l-.888 1.776.888 1.776c.123.247.023.547-.224.671-.072.036-.148.053-.223.053z"/><path d="m17.5 18c-.075 0-.151-.017-.223-.053-.247-.123-.347-.424-.224-.671l.888-1.776-.888-1.776c-.07-.141-.07-.306 0-.447l.888-1.776-.888-1.776c-.07-.141-.07-.306 0-.447l.888-1.776-.888-1.776c-.07-.141-.07-.306 0-.447l.888-1.776-.888-1.776c-.123-.247-.023-.547.224-.671s.547-.023.671.224l1 2c.07.141.07.306 0 .447l-.888 1.776.888 1.776c.07.141.07.306 0 .447l-.888 1.776.888 1.776c.07.141.07.306 0 .447l-.888 1.776.888 1.776c.07.141.07.306 0 .447l-1 2c-.088.175-.264.276-.448.277z"/></svg>