<svg height="20" viewBox="0 0 20 20" width="20" xmlns="http://www.w3.org/2000/svg"><path d="m13.5 16h-7c-.276 0-.5-.224-.5-.5v-1c0-.276.224-.5.5-.5s.5.224.5.5v.5h6v-.5c0-.276.224-.5.5-.5s.5.224.5.5v1c0 .276-.224.5-.5.5z"/><path d="m13.5 5c-.276 0-.5-.224-.5-.5v-1.5h-6v1.5c0 .276-.224.5-.5.5s-.5-.224-.5-.5v-2c0-.276.224-.5.5-.5h7c.276 0 .5.224.5.5v2c0 .276-.224.5-.5.5z"/><path d="m10.5 18h-1c-.276 0-.5-.224-.5-.5s.224-.5.5-.5h1c.276 0 .5.224.5.5s-.224.5-.5.5z"/><path d="m14.5 20h-9c-.827 0-1.5-.673-1.5-1.5v-4c0-.276.224-.5.5-.5s.5.224.5.5v4c0 .276.224.5.5.5h9c.276 0 .5-.224.5-.5v-4c0-.276.224-.5.5-.5s.5.224.5.5v4c0 .827-.673 1.5-1.5 1.5z"/><path d="m15.5 5c-.276 0-.5-.224-.5-.5v-3c0-.276-.224-.5-.5-.5h-9c-.276 0-.5.224-.5.5v3c0 .276-.224.5-.5.5s-.5-.224-.5-.5v-3c0-.827.673-1.5 1.5-1.5h9c.827 0 1.5.673 1.5 1.5v3c0 .276-.224.5-.5.5z"/><path d="m6 13c-.128 0-.256-.049-.354-.146l-3-3c-.195-.195-.195-.512 0-.707l3-3c.195-.195.512-.195.707 0s.195.512 0 .707l-2.646 2.646 2.646 2.646c.195.195.195.512 0 .707-.098.098-.226.146-.354.146z"/><path d="m14 13c-.128 0-.256-.049-.354-.146-.195-.195-.195-.512 0-.707l2.646-2.646-2.646-2.646c-.195-.195-.195-.512 0-.707s.512-.195.707 0l3 3c.195.195.195.512 0 .707l-3 3c-.098.098-.226.146-.354.146z"/><path d="m8.5 13c-.075 0-.151-.017-.223-.053-.247-.123-.347-.424-.224-.671l3-6c.123-.247.424-.347.671-.224s.347.424.224.671l-3 6c-.088.175-.264.277-.448.277z"/></svg>