<svg height="20" viewBox="0 0 20 20" width="20" xmlns="http://www.w3.org/2000/svg"><path d="m14.5 20h-9c-.827 0-1.5-.673-1.5-1.5v-6c0-.276.224-.5.5-.5s.5.224.5.5v6c0 .276.224.5.5.5h9c.276 0 .5-.224.5-.5v-17c0-.276-.224-.5-.5-.5h-4c-.276 0-.5-.224-.5-.5s.224-.5.5-.5h4c.827 0 1.5.673 1.5 1.5v17c0 .827-.673 1.5-1.5 1.5z"/><path d="m13.5 16h-7c-.276 0-.5-.224-.5-.5v-3c0-.276.224-.5.5-.5s.5.224.5.5v2.5h6v-12h-.5c-.276 0-.5-.224-.5-.5s.224-.5.5-.5h1c.276 0 .5.224.5.5v13c0 .276-.224.5-.5.5z"/><path d="m10.5 18h-1c-.276 0-.5-.224-.5-.5s.224-.5.5-.5h1c.276 0 .5.224.5.5s-.224.5-.5.5z"/><path d="m5.5 11c-3.033 0-5.5-2.467-5.5-5.5s2.467-5.5 5.5-5.5 5.5 2.467 5.5 5.5-2.467 5.5-5.5 5.5zm0-10c-2.481 0-4.5 2.019-4.5 4.5s2.019 4.5 4.5 4.5 4.5-2.019 4.5-4.5-2.019-4.5-4.5-4.5z"/><path d="m5.5 4c-.276 0-.5-.224-.5-.5v-1c0-.276.224-.5.5-.5s.5.224.5.5v1c0 .276-.224.5-.5.5z"/><path d="m5.5 9c-.276 0-.5-.224-.5-.5v-3c0-.276.224-.5.5-.5s.5.224.5.5v3c0 .276-.224.5-.5.5z"/></svg>