<svg height="20" viewBox="0 0 20 20" width="20" xmlns="http://www.w3.org/2000/svg"><path d="m12.5 16h-5c-.827 0-1.5-.673-1.5-1.5v-9c0-.827.673-1.5 1.5-1.5h5c.827 0 1.5.673 1.5 1.5v9c0 .827-.673 1.5-1.5 1.5zm-5-11c-.276 0-.5.224-.5.5v9c0 .276.224.5.5.5h5c.276 0 .5-.224.5-.5v-9c0-.276-.224-.5-.5-.5z"/><path d="m10.5 14h-1c-.276 0-.5-.224-.5-.5s.224-.5.5-.5h1c.276 0 .5.224.5.5s-.224.5-.5.5z"/><path d="m15.5 6c-.276 0-.5-.224-.5-.5 0-1.378-1.122-2.5-2.5-2.5-.276 0-.5-.224-.5-.5s.224-.5.5-.5c1.93 0 3.5 1.57 3.5 3.5 0 .276-.224.5-.5.5z"/><path d="m17.5 6c-.276 0-.5-.224-.5-.5 0-2.481-2.019-4.5-4.5-4.5-.276 0-.5-.224-.5-.5s.224-.5.5-.5c3.033 0 5.5 2.467 5.5 5.5 0 .276-.224.5-.5.5z"/><path d="m7.5 18c-1.93 0-3.5-1.57-3.5-3.5 0-.276.224-.5.5-.5s.5.224.5.5c0 1.378 1.122 2.5 2.5 2.5.276 0 .5.224.5.5s-.224.5-.5.5z"/><path d="m7.5 20c-3.033 0-5.5-2.467-5.5-5.5 0-.276.224-.5.5-.5s.5.224.5.5c0 2.481 2.019 4.5 4.5 4.5.276 0 .5.224.5.5s-.224.5-.5.5z"/></svg>