<svg height="20" viewBox="0 0 20 20" width="20" xmlns="http://www.w3.org/2000/svg"><path d="m10.5 18h-1c-.276 0-.5-.224-.5-.5s.224-.5.5-.5h1c.276 0 .5.224.5.5s-.224.5-.5.5z"/><path d="m14.5 20h-9c-.827 0-1.5-.673-1.5-1.5v-17c0-.827.673-1.5 1.5-1.5h9c.827 0 1.5.673 1.5 1.5v17c0 .827-.673 1.5-1.5 1.5zm-9-19c-.276 0-.5.224-.5.5v17c0 .276.224.5.5.5h9c.276 0 .5-.224.5-.5v-17c0-.276-.224-.5-.5-.5z"/><path d="m13.5 16h-7c-.276 0-.5-.224-.5-.5v-13c0-.276.224-.5.5-.5h7c.276 0 .5.224.5.5v13c0 .276-.224.5-.5.5zm-6.5-1h6v-12h-6z"/></svg>