<svg height="20" viewBox="0 0 20 20" width="20" xmlns="http://www.w3.org/2000/svg"><path d="m18.5 10h-1.793l1.146-1.146c.195-.195.195-.512 0-.707s-.512-.195-.707 0l-1.854 1.854h-4.586l3-3h2.793c.276 0 .5-.224.5-.5s-.224-.5-.5-.5h-1.793l1.646-1.646c.195-.195.195-.512 0-.707s-.512-.195-.707 0l-1.646 1.646v-1.793c0-.276-.224-.5-.5-.5s-.5.224-.5.5v2.793l-3 3v-4.586l1.854-1.854c.195-.195.195-.512 0-.707s-.512-.195-.707 0l-1.146 1.146v-1.793c0-.276-.224-.5-.5-.5s-.5.224-.5.5v1.793l-1.146-1.146c-.195-.195-.512-.195-.707 0s-.195.512 0 .707l1.854 1.854v4.586l-3-3v-2.793c0-.276-.224-.5-.5-.5s-.5.224-.5.5v1.793l-1.646-1.646c-.195-.195-.512-.195-.707 0s-.195.512 0 .707l1.646 1.646h-1.793c-.276 0-.5.224-.5.5s.224.5.5.5h2.793l3 3h-4.586l-1.854-1.854c-.195-.195-.512-.195-.707 0s-.195.512 0 .707l1.146 1.146h-1.793c-.276 0-.5.224-.5.5s.224.5.5.5h1.793l-1.146 1.146c-.195.195-.195.512 0 .707.098.098.226.146.354.146s.256-.049.354-.146l1.854-1.854h4.586l-3 3h-2.793c-.276 0-.5.224-.5.5s.224.5.5.5h1.793l-1.646 1.646c-.195.195-.195.512 0 .707.098.098.226.146.354.146s.256-.049.354-.146l1.646-1.646v1.793c0 .276.224.5.5.5s.5-.224.5-.5v-2.793l3-3v4.586l-1.854 1.854c-.195.195-.195.512 0 .707s.512.195.707 0l1.146-1.146v1.793c0 .276.224.5.5.5s.5-.224.5-.5v-1.793l1.146 1.146c.098.098.226.146.354.146s.256-.049.354-.146c.195-.195.195-.512 0-.707l-1.854-1.854v-4.586l3 3v2.793c0 .276.224.5.5.5s.5-.224.5-.5v-1.793l1.646 1.646c.098.098.226.146.354.146s.256-.049.354-.146c.195-.195.195-.512 0-.707l-1.646-1.646h1.793c.276 0 .5-.224.5-.5s-.224-.5-.5-.5h-2.793l-3-3h4.586l1.854 1.854c.098.098.226.146.354.146s.256-.049.354-.146c.195-.195.195-.512 0-.707l-1.146-1.146h1.793c.276 0 .5-.224.5-.5s-.224-.5-.5-.5z"/></svg>