<svg height="20" viewBox="0 0 20 20" width="20" xmlns="http://www.w3.org/2000/svg"><path d="m17.5 10h-2.348l.772-1.235c.146-.234.075-.543-.159-.689s-.543-.075-.689.159l-.826 1.322-1.598-2.557h1.848c.276 0 .5-.224.5-.5s-.224-.5-.5-.5h-1.879l1.311-2.248c.139-.239.059-.545-.18-.684s-.545-.059-.684.18l-1.333 2.285-.811-1.298c-.146-.234-.455-.305-.689-.159s-.305.455-.159.689l.772 1.235h-2.696l.772-1.235c.146-.234.075-.543-.159-.689s-.543-.075-.689.159l-.811 1.298-1.333-2.285c-.139-.238-.445-.319-.684-.18s-.319.445-.18.684l1.311 2.248h-1.879c-.276 0-.5.224-.5.5s.224.5.5.5h1.848l-1.598 2.557-.826-1.322c-.146-.234-.455-.305-.689-.159s-.305.455-.159.689l.772 1.235h-2.348c-.276 0-.5.224-.5.5s.224.5.5.5h2.348l-.772 1.235c-.146.234-.075.543.159.689.082.051.174.076.265.076.167 0 .33-.083.424-.235l.826-1.322 1.598 2.557h-1.848c-.276 0-.5.224-.5.5s.224.5.5.5h1.879l-1.311 2.248c-.139.239-.059.545.18.684.079.046.166.068.251.068.172 0 .339-.089.432-.248l1.333-2.285.811 1.298c.095.152.258.235.424.235.091 0 .182-.025.265-.076.234-.146.305-.455.159-.689l-.772-1.235h2.696l-.772 1.235c-.146.234-.075.543.159.689.082.051.174.076.265.076.167 0 .33-.083.424-.235l.811-1.298 1.333 2.285c.093.159.26.248.432.248.086 0 .172-.022.251-.068.239-.139.319-.445.18-.684l-1.311-2.248h1.879c.276 0 .5-.224.5-.5s-.224-.5-.5-.5h-1.848l1.598-2.557.826 1.322c.095.152.258.235.424.235.091 0 .182-.025.265-.076.234-.146.305-.455.159-.689l-.772-1.235h2.348c.276 0 .5-.224.5-.5s-.224-.5-.5-.5zm-6.027 4h-3.946l-2.188-3.5 2.188-3.5h3.946l2.188 3.5z"/></svg>