<svg height="20" viewBox="0 0 20 20" width="20" xmlns="http://www.w3.org/2000/svg"><path d="m12.5 6c-.276 0-.5-.224-.5-.5v-3c0-.276.224-.5.5-.5s.5.224.5.5v3c0 .276-.224.5-.5.5z"/><path d="m14.5 6c-.276 0-.5-.224-.5-.5v-3c0-.276.224-.5.5-.5s.5.224.5.5v3c0 .276-.224.5-.5.5z"/><path d="m16.5 6c-.276 0-.5-.224-.5-.5v-3c0-.276.224-.5.5-.5s.5.224.5.5v3c0 .276-.224.5-.5.5z"/><path d="m17.5 0h-6c-.827 0-1.5.673-1.5 1.5v5c0 .356-.294.816-.617.966l-6.592 3.048c-.004.002-.008.004-.013.006-.821.408-1.515 1.034-2.006 1.81-.505.798-.772 1.721-.772 2.67 0 2.757 2.243 5 5 5 .779 0 1.526-.175 2.22-.519l9.695-4.664c1.169-.563 2.086-2.02 2.086-3.318v-10c0-.827-.673-1.5-1.5-1.5zm-16.5 15c0-1.138.471-2.189 1.277-2.933 2.137.371 3.723 2.24 3.723 4.433 0 .897-.26 1.754-.753 2.492-.082.005-.164.008-.247.008-2.206 0-4-1.794-4-4zm5.783 3.581c-.002.001-.004.002-.006.003-.076.038-.153.073-.23.105.298-.685.452-1.425.452-2.189 0-2.345-1.484-4.386-3.604-5.164l6.406-2.962c.672-.311 1.198-1.133 1.198-1.873v-5c0-.276.224-.5.5-.5h6c.276 0 .5.224.5.5v6.523c-2.799.253-5 2.613-5 5.477 0 .666.117 1.311.346 1.924l-6.563 3.157zm9.698-4.665-2.229 1.072c-.167-.476-.252-.974-.252-1.489 0-2.312 1.753-4.223 4-4.472v2.472c0 .914-.696 2.02-1.519 2.416z"/></svg>