<svg height="20" viewBox="0 0 20 20" width="20" xmlns="http://www.w3.org/2000/svg"><path d="m8.854 14.646c-.195-.195-.512-.195-.707 0l-3.146 3.146v-17.293c0-.276-.224-.5-.5-.5s-.5.224-.5.5v17.293l-3.146-3.146c-.195-.195-.512-.195-.707 0s-.195.512 0 .707l4 4c.098.098.226.146.354.146s.256-.049.354-.146l4-4c.195-.195.195-.512 0-.707z"/><path d="m12.5 15c-.183 0-.36-.101-.448-.277-.123-.247-.023-.547.224-.671l.597-.298c-2.241-.695-3.873-2.788-3.873-5.254 0-3.033 2.467-5.5 5.5-5.5s5.5 2.467 5.5 5.5c0 .276-.224.5-.5.5s-.5-.224-.5-.5c0-2.481-2.019-4.5-4.5-4.5s-4.5 2.019-4.5 4.5 2.019 4.5 4.5 4.5c.232 0 .433.159.487.385s-.056.458-.263.562l-2 1c-.072.036-.148.053-.223.053z"/><path d="m14.5 10c-.076 0-.152-.017-.223-.053l-2-1c-.247-.123-.347-.424-.224-.671s.424-.347.671-.224l1.678.839 1.745-1.745c.195-.195.512-.195.707 0s.195.512 0 .707l-2 2c-.096.096-.224.146-.354.146z"/></svg>