<svg height="20" viewBox="0 0 20 20" width="20" xmlns="http://www.w3.org/2000/svg"><path d="m8.854 14.646c-.195-.195-.512-.195-.707 0l-3.146 3.146v-17.293c0-.276-.224-.5-.5-.5s-.5.224-.5.5v17.293l-3.146-3.146c-.195-.195-.512-.195-.707 0s-.195.512 0 .707l4 4c.098.098.226.146.354.146s.256-.049.354-.146l4-4c.195-.195.195-.512 0-.707z"/><path d="m19.96 7.303-3-7c-.079-.184-.26-.303-.46-.303s-.381.119-.46.303l-3 7c-.109.254.009.548.263.657s.548-.009.657-.263l1.156-2.697h2.769l1.156 2.697c.081.19.266.303.46.303.066 0 .133-.013.197-.041.254-.109.371-.403.263-.657zm-4.416-3.303.956-2.231.956 2.231z"/><path d="m18.5 20h-4c-.178 0-.343-.095-.432-.249s-.09-.344-.002-.499l3.573-6.252h-3.138c-.276 0-.5-.224-.5-.5s.224-.5.5-.5h4c.178 0 .343.095.432.249s.09.344.002.499l-3.573 6.252h3.138c.276 0 .5.224.5.5s-.224.5-.5.5z"/></svg>