<svg height="20" viewBox="0 0 20 20" width="20" xmlns="http://www.w3.org/2000/svg"><path d="m8.854 14.646c-.195-.195-.512-.195-.707 0l-3.146 3.146v-17.293c0-.276-.224-.5-.5-.5s-.5.224-.5.5v17.293l-3.146-3.146c-.195-.195-.512-.195-.707 0s-.195.512 0 .707l4 4c.098.098.226.146.354.146s.256-.049.354-.146l4-4c.195-.195.195-.512 0-.707z"/><path d="m13.5 5h-2c-.276 0-.5-.224-.5-.5v-2c0-.276.224-.5.5-.5h2c.276 0 .5.224.5.5v2c0 .276-.224.5-.5.5zm-1.5-1h1v-1h-1z"/><path d="m15.5 9h-4c-.276 0-.5-.224-.5-.5v-2c0-.276.224-.5.5-.5h4c.276 0 .5.224.5.5v2c0 .276-.224.5-.5.5zm-3.5-1h3v-1h-3z"/><path d="m17.5 13h-6c-.276 0-.5-.224-.5-.5v-2c0-.276.224-.5.5-.5h6c.276 0 .5.224.5.5v2c0 .276-.224.5-.5.5zm-5.5-1h5v-1h-5z"/><path d="m19.5 17h-8c-.276 0-.5-.224-.5-.5v-2c0-.276.224-.5.5-.5h8c.276 0 .5.224.5.5v2c0 .276-.224.5-.5.5zm-7.5-1h7v-1h-7z"/></svg>