<svg height="20" viewBox="0 0 20 20" width="20" xmlns="http://www.w3.org/2000/svg"><path d="m13.5 20h-8c-.232 0-.433-.159-.487-.385s.056-.458.263-.562c1.117-.559 1.914-1.432 2.368-2.595.037-.094.069-.186.099-.276-.805.529-1.753.818-2.744.818-2.757 0-5-2.243-5-5 0-1.392.523-2.641 1.598-3.819.915-1.002 2.116-1.835 3.278-2.641 2.121-1.471 4.124-2.861 4.124-5.04 0-.276.224-.5.5-.5s.5.224.5.5c0 2.179 2.003 3.569 4.124 5.04 1.162.806 2.363 1.639 3.278 2.641 1.075 1.177 1.598 2.426 1.598 3.819 0 2.757-2.243 5-5 5-.991 0-1.939-.289-2.744-.818.029.09.062.182.099.276.454 1.163 1.251 2.037 2.368 2.595.207.104.316.336.263.562s-.255.385-.487.385zm-6.399-1h4.798c-.654-.604-1.16-1.353-1.491-2.22-.403-1.055-.408-1.916-.408-1.952 0-.212.133-.401.333-.471s.422-.008.556.157c.764.944 1.898 1.486 3.112 1.486 2.206 0 4-1.794 4-4 0-2.554-2.159-4.052-4.446-5.638-1.607-1.115-3.253-2.257-4.054-3.811-.802 1.555-2.448 2.697-4.054 3.811-2.286 1.586-4.446 3.084-4.446 5.638 0 2.206 1.794 4 4 4 1.213 0 2.347-.542 3.112-1.486.133-.165.356-.228.556-.157s.333.26.333.471c0 .036-.005.897-.408 1.952-.331.866-.837 1.616-1.491 2.22z"/></svg>