<svg height="20" viewBox="0 0 20 20" width="20" xmlns="http://www.w3.org/2000/svg"><path d="m9.5 15c-.401 0-.777-.156-1.061-.439-.402-.402-3.064-4.252-3.594-5.019-.137-.199-.113-.467.058-.637s.439-.195.637-.058c.768.529 4.617 3.191 5.019 3.594.283.283.439.66.439 1.061s-.156.777-.439 1.061c-.283.283-.66.439-1.061.439zm-2.239-3.739c.945 1.344 1.73 2.436 1.886 2.593.094.094.22.146.353.146s.259-.052.354-.146c.195-.195.195-.512 0-.707-.157-.155-1.248-.941-2.593-1.885z"/><path d="m16.218 5.783c-1.794-1.794-4.18-2.783-6.718-2.783s-4.923.988-6.717 2.783-2.782 4.18-2.782 6.717c0 1.889.553 3.714 1.6 5.278.093.139.249.222.416.222h14.969c.167 0 .323-.083.416-.222 1.047-1.564 1.6-3.389 1.6-5.278 0-2.538-.988-4.923-2.782-6.717zm.494 11.217h-14.425c-.755-1.207-1.19-2.577-1.273-4h.485c.276 0 .5-.224.5-.5s-.224-.5-.5-.5h-.485c.25-4.29 3.695-7.735 7.985-7.985v.485c0 .276.224.5.5.5s.5-.224.5-.5v-.485c4.29.25 7.735 3.695 7.985 7.985h-.485c-.276 0-.5.224-.5.5s.224.5.5.5h.485c-.083 1.423-.518 2.793-1.273 4z"/></svg>