<svg height="20" viewBox="0 0 20 20" width="20" xmlns="http://www.w3.org/2000/svg"><path d="m9.5 15c-.827 0-1.5-.673-1.5-1.5 0-.569.84-5.173 1.008-6.09.044-.237.25-.41.492-.41s.448.172.492.41c.168.917 1.008 5.521 1.008 6.09 0 .827-.673 1.5-1.5 1.5zm0-4.666c-.283 1.619-.499 2.946-.5 3.167 0 .276.224.5.5.5s.5-.224.5-.5c-.001-.221-.217-1.548-.5-3.166z"/><path d="m16.218 5.783c-1.794-1.794-4.18-2.783-6.718-2.783s-4.923.988-6.717 2.783-2.782 4.18-2.782 6.717c0 1.889.553 3.714 1.6 5.278.093.139.249.222.416.222h14.969c.167 0 .323-.083.416-.222 1.047-1.564 1.6-3.389 1.6-5.278 0-2.538-.988-4.923-2.782-6.717zm.494 11.217h-14.425c-.755-1.207-1.19-2.577-1.273-4h.485c.276 0 .5-.224.5-.5s-.224-.5-.5-.5h-.485c.25-4.29 3.695-7.735 7.985-7.985v.485c0 .276.224.5.5.5s.5-.224.5-.5v-.485c4.29.25 7.735 3.695 7.985 7.985h-.485c-.276 0-.5.224-.5.5s.224.5.5.5h.485c-.083 1.423-.518 2.793-1.273 4z"/></svg>