<svg height="20" viewBox="0 0 20 20" width="20" xmlns="http://www.w3.org/2000/svg"><path d="m4.5 14c-.276 0-.5.224-.5.5v.001c-.418-.315-.938-.501-1.5-.501-1.378 0-2.5 1.122-2.5 2.5s1.122 2.5 2.5 2.5c.562 0 1.082-.187 1.5-.501v.001c0 .276.224.5.5.5s.5-.224.5-.5v-4c0-.276-.224-.5-.5-.5zm-2 4c-.827 0-1.5-.673-1.5-1.5s.673-1.5 1.5-1.5 1.5.673 1.5 1.5-.673 1.5-1.5 1.5z"/><path d="m8.5 14c-.562 0-1.082.187-1.5.501v-4.001c0-.276-.224-.5-.5-.5s-.5.224-.5.5v8c0 .276.224.5.5.5s.5-.224.5-.5v-.001c.418.315.938.501 1.5.501 1.378 0 2.5-1.122 2.5-2.5s-1.122-2.5-2.5-2.5zm0 4c-.827 0-1.5-.673-1.5-1.5s.673-1.5 1.5-1.5 1.5.673 1.5 1.5-.673 1.5-1.5 1.5z"/><path d="m14.5 19c-1.378 0-2.5-1.122-2.5-2.5s1.122-2.5 2.5-2.5c.439 0 .872.116 1.25.335.239.138.321.444.183.683s-.444.321-.683.183c-.227-.131-.486-.2-.75-.2-.827 0-1.5.673-1.5 1.5s.673 1.5 1.5 1.5c.264 0 .523-.069.75-.2.239-.138.545-.057.683.182s.057.545-.182.683c-.379.219-.811.335-1.25.335z"/><path d="m11.5 10.5c-.128 0-.256-.049-.354-.146l-3-3c-.195-.195-.195-.512 0-.707s.512-.195.707 0l2.646 2.646 6.646-6.646c.195-.195.512-.195.707 0s.195.512 0 .707l-7 7c-.098.098-.226.146-.354.146z"/></svg>