<svg height="20" viewBox="0 0 20 20" width="20" xmlns="http://www.w3.org/2000/svg"><path d="m19.581 15.066-6.131-7.189 2.522-7.212c.079-.225-.012-.474-.217-.595s-.467-.082-.626.095l-4.246 4.703-4.002-4.692c-.158-.185-.427-.23-.636-.105s-.298.382-.211.609l2.577 6.705-8.152 9.029c-.3.329-.458.697-.458 1.087 0 .744.574 1.408 1.615 1.871.912.406 2.115.629 3.385.629s2.473-.223 3.385-.629c.836-.371 1.37-.873 1.548-1.441l1.3-3.718.819 2.132c.11.358.429.814 1.275 1.176.722.309 1.671.48 2.672.48s1.95-.17 2.672-.48c1.156-.495 1.328-1.165 1.328-1.52 0-.226-.07-.579-.419-.934zm-5.372-12.391-1.511 4.321-1.161-1.361zm-1.893 5.414-1.126 3.22-1.426-3.711 1.097-1.215zm-4.302-5.044 2.193 2.571-.845.936zm-.035 15.412c-.787.35-1.845.543-2.979.543s-2.192-.193-2.979-.543c-.63-.28-1.021-.647-1.021-.957s.391-.677 1.021-.957c.787-.35 1.845-.543 2.979-.543s2.192.193 2.979.543c.63.28 1.021.647 1.021.957s-.391.677-1.021.957zm1.462-2.148c-.264-.256-.619-.486-1.056-.68-.912-.406-2.115-.629-3.385-.629-.745 0-1.467.077-2.12.223l6.132-6.792 1.667 4.338zm3.626-7.339 4.4 5.159c-.46-.084-.957-.129-1.468-.129-1.001 0-1.95.17-2.672.48-.32.137-.564.288-.751.441l-.833-2.168 1.323-3.783zm2.933 8.03c-1.861 0-3-.647-3-1s1.139-1 3-1 3 .647 3 1-1.139 1-3 1z"/></svg>