<svg height="20" viewBox="0 0 20 20" width="20" xmlns="http://www.w3.org/2000/svg"><path d="m10.95 8.069c-.126-.538-.488-1.024-1.051-1.399-.526-.351-1.187-.574-1.899-.645v-1.025h.5c.276 0 .5-.224.5-.5v-2c0-.276-.224-.5-.5-.5h-2c-.276 0-.5.224-.5.5v2c0 .276.224.5.5.5h.5v1.025c-.711.071-1.372.294-1.899.645-.563.375-.925.862-1.051 1.399-.608.192-1.05.761-1.05 1.431v9c0 .827.673 1.5 1.5 1.5h6c.827 0 1.5-.673 1.5-1.5v-9c0-.67-.442-1.239-1.05-1.431zm-3.95-5.069h1v1h-1zm.5 4c1.065 0 1.999.424 2.351 1h-4.702c.352-.576 1.286-1 2.351-1zm3 12h-6c-.276 0-.5-.224-.5-.5v-9c0-.276.224-.5.5-.5h6c.276 0 .5.224.5.5v1.5h-2.5c-.276 0-.5.224-.5.5v5c0 .276.224.5.5.5h2.5v1.5c0 .276-.224.5-.5.5zm.5-7v4h-2v-4z"/><path d="m10.5 4c-.132 0-.261-.053-.353-.147s-.147-.222-.147-.353.053-.261.147-.353c.093-.093.222-.147.353-.147s.261.053.353.147c.093.093.147.222.147.353s-.053.26-.147.353c-.093.093-.222.147-.353.147z"/><path d="m12.5 3c-.132 0-.261-.053-.353-.147s-.147-.222-.147-.353.053-.26.147-.353c.093-.093.222-.147.353-.147s.26.053.353.147c.093.093.147.222.147.353s-.053.261-.147.353c-.093.093-.222.147-.353.147z"/><path d="m14.5 2c-.132 0-.261-.053-.353-.147s-.147-.222-.147-.353.053-.261.147-.353c.093-.093.222-.147.353-.147s.26.053.353.147c.093.093.147.222.147.353s-.053.261-.147.353c-.093.093-.222.147-.353.147z"/><path d="m14.5 4c-.132 0-.261-.053-.353-.147s-.147-.222-.147-.353.053-.261.147-.353c.093-.093.222-.147.353-.147s.26.053.353.147c.093.093.147.222.147.353s-.053.261-.147.353c-.093.093-.222.147-.353.147z"/><path d="m12.5 5c-.132 0-.261-.053-.353-.147s-.147-.222-.147-.353.053-.26.147-.353c.093-.093.222-.147.353-.147s.26.053.353.147c.093.093.147.222.147.353s-.053.261-.147.353c-.093.093-.222.147-.353.147z"/><path d="m14.5 6c-.132 0-.261-.053-.353-.147s-.147-.222-.147-.353.053-.261.147-.353c.093-.093.222-.147.353-.147s.26.053.353.147c.093.093.147.222.147.353s-.053.261-.147.353c-.093.093-.222.147-.353.147z"/><path d="m16.5 3c-.132 0-.26-.053-.353-.147s-.147-.222-.147-.353.053-.26.147-.353c.093-.093.222-.147.353-.147s.261.053.353.147c.093.093.147.222.147.353s-.053.261-.147.353c-.093.093-.222.147-.353.147z"/><path d="m16.5 1c-.132 0-.261-.053-.353-.147s-.147-.222-.147-.353.053-.261.147-.353c.093-.093.222-.147.353-.147s.261.053.353.147c.093.093.147.222.147.353s-.053.261-.147.353c-.093.093-.222.147-.353.147z"/><path d="m16.5 5c-.132 0-.261-.053-.353-.147s-.147-.222-.147-.353.053-.26.147-.353c.093-.093.222-.147.353-.147s.261.053.353.147c.093.093.147.222.147.353s-.053.261-.147.353c-.093.093-.222.147-.353.147z"/><path d="m16.5 7c-.132 0-.261-.053-.353-.147s-.147-.222-.147-.353.053-.261.147-.353c.093-.093.222-.147.353-.147s.261.053.353.147c.093.093.147.222.147.353s-.053.261-.147.353c-.093.093-.222.147-.353.147z"/></svg>