<svg height="20" viewBox="0 0 20 20" width="20" xmlns="http://www.w3.org/2000/svg"><path d="m17.5 20h-16c-.276 0-.5-.224-.5-.5s.224-.5.5-.5h16c.276 0 .5.224.5.5s-.224.5-.5.5z"/><path d="m17.5 14h-4.5c-.542 0-1-.687-1-1.5v-5.037c1.195-.693 2-1.986 2-3.463 0-2.206-1.794-4-4-4s-4 1.794-4 4c0 1.478.805 2.77 2 3.463v5.037c0 .813-.458 1.5-1 1.5h-5.5c-.827 0-1.5.673-1.5 1.5v1c0 .827.673 1.5 1.5 1.5h16c.827 0 1.5-.673 1.5-1.5v-1c0-.827-.673-1.5-1.5-1.5zm-10.5-10c0-1.654 1.346-3 3-3s3 1.346 3 3-1.346 3-3 3-3-1.346-3-3zm2 8.5v-4.627c.32.083.655.127 1 .127s.68-.044 1-.127v4.627c0 .562.149 1.082.401 1.5h-2.802c.252-.418.401-.938.401-1.5zm9 4c0 .276-.224.5-.5.5h-16c-.276 0-.5-.224-.5-.5v-1c0-.276.224-.5.5-.5h16c.276 0 .5.224.5.5z"/><path d="m8.5 4c-.055 0-.112-.009-.167-.029-.26-.092-.397-.378-.305-.638.201-.568.737-1.104 1.305-1.305.26-.092.546.044.638.305s-.044.546-.305.638c-.283.1-.595.412-.695.695-.073.205-.265.334-.471.334z"/></svg>