<svg height="20" viewBox="0 0 20 20" width="20" xmlns="http://www.w3.org/2000/svg"><path d="m15.5 19c-.082 0-.164-.02-.239-.061l-3-1.636c-.242-.132-.332-.436-.2-.678s.436-.332.678-.2l2.098 1.145-.165-.987c-.045-.272.139-.53.411-.575s.53.139.575.411l.333 2c.031.189-.048.379-.203.49-.086.061-.188.093-.29.093z"/><path d="m14.833 15c-.24 0-.452-.173-.493-.418l-.333-2c-.027-.159.025-.322.14-.436l1-1c.195-.195.512-.195.707 0s.195.512 0 .707l-.818.818.291 1.746c.045.272-.139.53-.411.575-.028.005-.055.007-.083.007z"/><path d="m17.5 10c-.128 0-.256-.049-.354-.146-.195-.195-.195-.512 0-.707l.313-.313-2.042-.34c-.272-.045-.456-.303-.411-.575s.303-.456.575-.411l3 .5c.185.031.337.162.394.341s.01.374-.123.506l-1 1c-.098.098-.226.147-.354.147z"/><path d="m13.501 8.167c-.027 0-.055-.002-.083-.007l-1-.167c-.158-.026-.293-.127-.365-.27l-1-2c-.123-.247-.023-.547.224-.671s.547-.023.671.224l.886 1.772.749.125c.272.045.456.303.411.575-.041.244-.253.418-.493.418z"/><path d="m4.5 19c-.102 0-.204-.031-.29-.093-.156-.111-.235-.301-.203-.49l.958-5.746-3.818-3.818c-.132-.132-.18-.328-.123-.506s.209-.31.394-.341l5.749-.958 2.386-4.772c.085-.169.258-.276.447-.276.189 0 .363.107.447.276l.5 1c.123.247.023.547-.224.671s-.547.023-.671-.224l-.053-.106-2.053 4.106c-.072.143-.207.243-.365.27l-5.042.84 3.313 3.313c.114.114.166.276.14.436l-.831 4.987 4.599-2.508c.149-.081.33-.081.479 0l.5.273c.242.132.332.436.199.678s-.436.332-.678.199l-.261-.142-5.261 2.869c-.075.041-.157.061-.239.061z"/></svg>