<svg height="20" viewBox="0 0 20 20" width="20" xmlns="http://www.w3.org/2000/svg"><path d="m15.5 19c-.082 0-.164-.02-.239-.061l-5.261-2.869-5.261 2.869c-.168.092-.373.079-.529-.032s-.235-.301-.203-.49l.958-5.746-3.818-3.818c-.132-.132-.18-.328-.123-.506s.209-.31.394-.341l5.749-.958 2.386-4.772c.085-.169.258-.276.447-.276s.363.107.447.276l2.386 4.772 5.749.958c.185.031.337.162.394.341s.01.374-.123.506l-3.818 3.818.958 5.746c.031.189-.048.379-.203.49-.086.061-.188.093-.29.093zm-5.5-4c.082 0 .165.02.239.061l4.599 2.508-.831-4.987c-.027-.159.025-.322.14-.436l3.313-3.313-5.042-.84c-.158-.026-.293-.127-.365-.27l-2.053-4.106-2.053 4.106c-.072.143-.207.243-.365.27l-5.042.84 3.313 3.313c.114.114.166.276.14.436l-.831 4.987 4.599-2.508c.075-.041.157-.061.239-.061z"/></svg>