<svg height="20" viewBox="0 0 20 20" width="20" xmlns="http://www.w3.org/2000/svg"><path d="m18.863 4.549c-.483-.78-1.108-1.393-1.857-1.82-.85-.484-1.861-.73-3.005-.73-2.499 0-4.077 1.093-5.344 1.971-.829.575-1.484 1.029-2.156 1.029-.646 0-1.127-.037-1.551-.069-.327-.025-.609-.046-.9-.046-.572 0-1.083.089-1.708.297-1.488.496-2.342 1.888-2.342 3.818v2.5c0 .441.083 1.144.476 1.992.37.796.919 1.514 1.633 2.136.834.726 1.873 1.295 3.087 1.692 1.382.452 2.998.681 4.804.681 3.481 0 6.132-.732 7.881-2.177 1.844-1.523 2.119-3.362 2.119-4.323v-2.5c0-.976-.148-2.852-1.137-4.451zm-16.205 1.582c.524-.175.927-.246 1.391-.246.253 0 .517.02.824.043.42.032.943.072 1.627.072.985 0 1.831-.586 2.726-1.207 1.213-.841 2.587-1.793 4.774-1.793 4.639 0 5 4.592 5 6 0 1.503-.877 5-9 5-3.163 0-5.671-.655-7.254-1.894-1.62-1.268-1.746-2.698-1.746-3.106 0-.865.215-2.388 1.658-2.869zm7.342 10.869c-3.132 0-5.634-.736-7.234-2.127-1.174-1.021-1.666-2.22-1.752-3.098.309.405.681.779 1.115 1.119.829.649 1.867 1.156 3.083 1.508 1.371.397 2.982.598 4.787.598 3.5 0 6.145-.643 7.86-1.91.433-.32.804-.679 1.11-1.073-.293 2.497-2.763 4.983-8.97 4.983z"/><path d="m17.996 8.434c-.025-.189-.156-.348-.337-.408-.457-.152-1.015-.404-1.595-.708.234-.129.463-.257.685-.384.24-.137.323-.442.186-.682s-.442-.323-.682-.186c-.387.221-.795.446-1.218.673-.529-.319-1.036-.657-1.458-.977.461-.291.875-.582 1.236-.871.216-.173.251-.487.078-.703s-.487-.251-.703-.078c-.401.321-.878.647-1.415.971-.194-.126-.456-.104-.626.066-.103.103-.151.241-.145.376-.729.398-1.543.79-2.412 1.165-.264-.183-.523-.375-.777-.578-.216-.172-.53-.138-.703.078s-.138.53.078.703c.104.083.21.165.315.245-1.247.491-2.579.942-3.929 1.324-.589-.412-1.172-.858-1.754-1.344-.212-.177-.527-.148-.704.064s-.148.527.064.704c.382.318.763.62 1.146.907-.312.078-.624.151-.935.22-.27.06-.44.327-.38.597.052.233.258.392.488.392.036 0 .072-.004.109-.012.585-.13 1.182-.278 1.783-.441.563.378 1.134.726 1.718 1.048-.627.188-1.199.33-1.691.412-.272.045-.456.303-.411.575.041.245.253.418.493.418.027 0 .055-.002.083-.007.79-.132 1.746-.397 2.792-.753.62.292 1.258.559 1.922.804-.224.1-.346.351-.277.593.063.22.263.363.481.363.045 0 .092-.006.138-.019.425-.121.843-.258 1.252-.405.482.145.977.281 1.489.409.041.01.082.015.122.015.224 0 .428-.152.485-.379.067-.268-.096-.539-.364-.606-.069-.017-.136-.035-.204-.052 1.023-.453 1.967-.952 2.795-1.431.01.004.02.008.03.012.373.145.725.282 1.073.421.061.024.124.036.186.036.198 0 .386-.119.464-.314.103-.256-.022-.547-.279-.65-.13-.052-.261-.104-.392-.155.592-.37 1.094-.704 1.484-.964.159-.106.244-.293.218-.482zm-5.341-2.127c.382.312.849.644 1.353.968-.594.303-1.208.604-1.829.897-.531-.255-1.059-.532-1.575-.837.742-.337 1.429-.681 2.052-1.028zm-6.986 2.872c1.291-.393 2.574-.848 3.772-1.342.014-.006.028-.012.042-.018.501.324 1.014.617 1.53.887-1.231.551-2.458 1.052-3.578 1.45-.604-.299-1.191-.624-1.766-.979zm5.191 2.342c-.742-.233-1.449-.49-2.129-.774 1.116-.429 2.292-.933 3.449-1.469.615.283 1.229.539 1.831.781-.946.516-2.012 1.032-3.15 1.462zm4.263-2.098c-.572-.224-1.16-.458-1.752-.712.562-.274 1.112-.552 1.642-.83.48.272.965.522 1.415.727-.382.248-.821.526-1.305.815z"/></svg>