<svg height="20" viewBox="0 0 20 20" width="20" xmlns="http://www.w3.org/2000/svg"><path d="m18 9.5v-1c0-.078-.018-.154-.053-.224l-2-4c-.085-.169-.258-.276-.447-.276h-12c-.189 0-.363.107-.447.276l-2 4c-.035.069-.053.146-.053.224v1c0 .816.393 1.542 1 1.999v6.501h-.5c-.276 0-.5.224-.5.5s.224.5.5.5h16c.276 0 .5-.224.5-.5s-.224-.5-.5-.5h-.5v-6.501c.607-.457 1-1.182 1-1.999zm-6.5 1.5c-.827 0-1.5-.673-1.5-1.5v-.5h3v.5c0 .827-.673 1.5-1.5 1.5zm-9.5-1.5v-.5h3v.5c0 .827-.673 1.5-1.5 1.5s-1.5-.673-1.5-1.5zm7-4.5v3h-2.86l.75-3zm3.11 0 .75 3h-2.86v-3zm-6.11 4h3v.5c0 .827-.673 1.5-1.5 1.5s-1.5-.673-1.5-1.5zm8 0h3v.5c0 .827-.673 1.5-1.5 1.5s-1.5-.673-1.5-1.5zm2.691-1h-2.801l-.75-3h2.051zm-12.882-3h2.051l-.75 3h-2.801zm-.809 6.95c.162.033.329.05.5.05.817 0 1.544-.394 2-1.002.456.608 1.183 1.002 2 1.002s1.544-.394 2-1.002c.361.48.89.827 1.5.951v6.05h-8v-6.05zm13 6.05h-4v-6.05c.61-.124 1.139-.471 1.5-.951.456.608 1.183 1.002 2 1.002.171 0 .338-.017.5-.05v6.05z"/><path d="m14 14.5c0 .276-.224.5-.5.5s-.5-.224-.5-.5.224-.5.5-.5.5.224.5.5z"/><path d="m4.5 15c-.128 0-.256-.049-.354-.146-.195-.195-.195-.512 0-.707l1-1c.195-.195.512-.195.707 0s.195.512 0 .707l-1 1c-.098.098-.226.146-.354.146z"/><path d="m5.5 17c-.128 0-.256-.049-.354-.146-.195-.195-.195-.512 0-.707l3-3c.195-.195.512-.195.707 0s.195.512 0 .707l-3 3c-.098.098-.226.146-.354.146z"/><path d="m8.5 17c-.128 0-.256-.049-.354-.146-.195-.195-.195-.512 0-.707l1-1c.195-.195.512-.195.707 0s.195.512 0 .707l-1 1c-.098.098-.226.146-.354.146z"/></svg>