<svg height="20" viewBox="0 0 20 20" width="20" xmlns="http://www.w3.org/2000/svg"><path d="m17.5 16h-2c-.276 0-.5-.224-.5-.5s.224-.5.5-.5h2c.276 0 .5-.224.5-.5v-6c0-.276.224-.5.5-.5s.5.224.5.5v6c0 .827-.673 1.5-1.5 1.5z"/><path d="m3.5 16h-2c-.827 0-1.5-.673-1.5-1.5v-12c0-.827.673-1.5 1.5-1.5h9c.276 0 .5.224.5.5s-.224.5-.5.5h-9c-.276 0-.5.224-.5.5v12c0 .276.224.5.5.5h2c.276 0 .5.224.5.5s-.224.5-.5.5z"/><path d="m9.5 19c-.827 0-1.5-.673-1.5-1.5s.673-1.5 1.5-1.5 1.5.673 1.5 1.5-.673 1.5-1.5 1.5zm0-2c-.276 0-.5.224-.5.5s.224.5.5.5.5-.224.5-.5-.224-.5-.5-.5z"/><path d="m6.053 15.968c-.086 0-.174-.022-.254-.07-.238-.14-.317-.447-.176-.685.391-.662.949-1.216 1.612-1.603.685-.399 1.468-.61 2.264-.61s1.58.211 2.264.61c.664.387 1.221.942 1.612 1.603.141.238.062.544-.176.685s-.544.062-.685-.176c-.628-1.062-1.783-1.722-3.016-1.722s-2.388.66-3.016 1.722c-.093.158-.26.246-.431.246z"/><path d="m15.107 13.808c-.152 0-.302-.069-.401-.2-1.241-1.657-3.139-2.608-5.206-2.608s-3.965.95-5.206 2.608c-.166.221-.479.266-.7.1s-.266-.479-.1-.7c.684-.913 1.581-1.67 2.594-2.189 1.063-.544 2.211-.82 3.412-.82s2.35.276 3.412.82c1.013.518 1.91 1.275 2.594 2.189.166.221.121.534-.1.7-.09.067-.195.1-.299.1z"/><path d="m16.207 4 2.146-2.146c.195-.195.195-.512 0-.707s-.512-.195-.707 0l-2.146 2.146-2.146-2.146c-.195-.195-.512-.195-.707 0s-.195.512 0 .707l2.146 2.146-2.146 2.146c-.195.195-.195.512 0 .707.098.098.226.146.354.146s.256-.049.354-.146l2.146-2.146 2.146 2.146c.098.098.226.146.354.146s.256-.049.354-.146c.195-.195.195-.512 0-.707l-2.146-2.146z"/></svg>