<svg height="20" viewBox="0 0 20 20" width="20" xmlns="http://www.w3.org/2000/svg"><path d="m16 7h1v1h-1z"/><path d="m16 19h1v1h-1z"/><path d="m14 19h1v1h-1z"/><path d="m12 19h1v1h-1z"/><path d="m10 19h1v1h-1z"/><path d="m8 19h1v1h-1z"/><path d="m18 15h1v1h-1z"/><path d="m18 13h1v1h-1z"/><path d="m18 17h1v1h-1z"/><path d="m18 9h1v1h-1z"/><path d="m18 11h1v1h-1z"/><path d="m6 17h1v1h-1z"/><path d="m14 7h1v1h-1z"/><path d="m11.5 1h-10c-.827 0-1.5.673-1.5 1.5v10c0 .827.673 1.5 1.5 1.5h5.5v-5.5c0-.276.224-.5.5-.5h5.5v-5.5c0-.827-.673-1.5-1.5-1.5zm-4 6c-.827 0-1.5.673-1.5 1.5v4.5h-4.5c-.276 0-.5-.224-.5-.5v-10c0-.276.224-.5.5-.5h10c.276 0 .5.224.5.5v4.5z"/><path d="m6 15h1v1h-1z"/><path d="m18 7h1v1h-1z"/><path d="m18 19h1v1h-1z"/><path d="m6 19h1v1h-1z"/></svg>