<svg height="20" viewBox="0 0 20 20" width="20" xmlns="http://www.w3.org/2000/svg"><path d="m14.5 12h-6.5c-1.103 0-2-.897-2-2s.897-2 2-2c.946 0 1.77.671 1.959 1.596.055.271.32.445.59.39s.445-.32.39-.59c-.284-1.388-1.52-2.396-2.939-2.396-1.654 0-3 1.346-3 3 0 .768.29 1.469.766 2h-3.766c-.551 0-1-.449-1-1s.449-1 1-1c.423 0 .802.268.943.667.092.26.378.397.638.305s.397-.378.305-.638c-.282-.797-1.04-1.333-1.886-1.333-1.103 0-2 .897-2 2s.897 2 2 2h12.5c.276 0 .5-.224.5-.5s-.224-.5-.5-.5z"/><path d="m4 18c-1.103 0-2-.897-2-2s.897-2 2-2h8.5c.276 0 .5.224.5.5s-.224.5-.5.5h-8.5c-.551 0-1 .449-1 1s.449 1 1 1c.423 0 .802-.268.943-.667.092-.26.378-.397.638-.305s.397.378.305.638c-.282.797-1.04 1.333-1.886 1.333z"/><path d="m15.5 17h-6c-.276 0-.5-.224-.5-.5s.224-.5.5-.5h6c.276 0 .5.224.5.5s-.224.5-.5.5z"/><path d="m15.964 11c-.085 0-.171-.022-.25-.067-.239-.138-.321-.444-.182-.683.306-.529.468-1.134.468-1.75 0-1.93-1.57-3.5-3.5-3.5-.853 0-1.676.311-2.315.875-.207.183-.523.163-.706-.044s-.163-.523.044-.706c.822-.725 1.879-1.125 2.976-1.125 2.481 0 4.5 2.019 4.5 4.5 0 .791-.208 1.569-.602 2.25-.093.16-.261.25-.433.25z"/><path d="m12.5 3c-.276 0-.5-.224-.5-.5v-1c0-.276.224-.5.5-.5s.5.224.5.5v1c0 .276-.224.5-.5.5z"/><path d="m7.5 4c-.128 0-.256-.049-.354-.146l-1-1c-.195-.195-.195-.512 0-.707s.512-.195.707 0l1 1c.195.195.195.512 0 .707-.098.098-.226.146-.354.146z"/><path d="m17.5 4c-.128 0-.256-.049-.354-.146-.195-.195-.195-.512 0-.707l1-1c.195-.195.512-.195.707 0s.195.512 0 .707l-1 1c-.098.098-.226.146-.354.146z"/><path d="m19.5 9h-1c-.276 0-.5-.224-.5-.5s.224-.5.5-.5h1c.276 0 .5.224.5.5s-.224.5-.5.5z"/><path d="m18.5 14c-.128 0-.256-.049-.354-.146l-1-1c-.195-.195-.195-.512 0-.707s.512-.195.707 0l1 1c.195.195.195.512 0 .707-.098.098-.226.146-.354.146z"/></svg>