<svg height="20" viewBox="0 0 20 20" width="20" xmlns="http://www.w3.org/2000/svg"><path d="m9.5 6c-.276 0-.5-.224-.5-.5v-2c0-.276.224-.5.5-.5s.5.224.5.5v2c0 .276-.224.5-.5.5z"/><path d="m4.5 11h-2c-.276 0-.5-.224-.5-.5s.224-.5.5-.5h2c.276 0 .5.224.5.5s-.224.5-.5.5z"/><path d="m16.5 11h-2c-.276 0-.5-.224-.5-.5s.224-.5.5-.5h2c.276 0 .5.224.5.5s-.224.5-.5.5z"/><path d="m9.5 18c-.276 0-.5-.224-.5-.5v-2c0-.276.224-.5.5-.5s.5.224.5.5v2c0 .276-.224.5-.5.5z"/><path d="m9.5 8c1.378 0 2.5 1.122 2.5 2.5s-1.122 2.5-2.5 2.5-2.5-1.122-2.5-2.5 1.122-2.5 2.5-2.5zm0-1c-1.933 0-3.5 1.567-3.5 3.5s1.567 3.5 3.5 3.5 3.5-1.567 3.5-3.5-1.567-3.5-3.5-3.5z"/><path d="m12.786 7.214c-.128 0-.256-.049-.354-.146-.195-.195-.195-.512 0-.707l1.414-1.414c.195-.195.512-.195.707 0s.195.512 0 .707l-1.414 1.414c-.098.098-.226.146-.354.146z"/><path d="m6.214 7.214c-.128 0-.256-.049-.354-.146l-1.414-1.414c-.195-.195-.195-.512 0-.707s.512-.195.707 0l1.414 1.414c.195.195.195.512 0 .707-.098.098-.226.146-.354.146z"/><path d="m14.2 16.2c-.128 0-.256-.049-.354-.146l-1.414-1.414c-.195-.195-.195-.512 0-.707s.512-.195.707 0l1.414 1.414c.195.195.195.512 0 .707-.098.098-.226.146-.354.146z"/><path d="m4.8 16.2c-.128 0-.256-.049-.354-.146-.195-.195-.195-.512 0-.707l1.414-1.414c.195-.195.512-.195.707 0s.195.512 0 .707l-1.414 1.414c-.098.098-.226.146-.354.146z"/></svg>