<svg height="20" viewBox="0 0 20 20" width="20" xmlns="http://www.w3.org/2000/svg"><path d="m9.5 5c-.276 0-.5-.224-.5-.5v-3c0-.276.224-.5.5-.5s.5.224.5.5v3c0 .276-.224.5-.5.5z"/><path d="m3.5 11h-3c-.276 0-.5-.224-.5-.5s.224-.5.5-.5h3c.276 0 .5.224.5.5s-.224.5-.5.5z"/><path d="m18.5 11h-3c-.276 0-.5-.224-.5-.5s.224-.5.5-.5h3c.276 0 .5.224.5.5s-.224.5-.5.5z"/><path d="m9.5 20c-.276 0-.5-.224-.5-.5v-3c0-.276.224-.5.5-.5s.5.224.5.5v3c0 .276-.224.5-.5.5z"/><path d="m9.5 7.007c.935 0 1.814.363 2.475 1.024s1.025 1.536 1.025 2.469-.364 1.809-1.025 2.469-1.54 1.024-2.475 1.024-1.814-.363-2.475-1.024c-.661-.66-1.025-1.536-1.025-2.469s.364-1.809 1.025-2.469 1.54-1.024 2.475-1.024zm0-1c-2.485 0-4.5 2.011-4.5 4.493s2.015 4.493 4.5 4.493 4.5-2.011 4.5-4.493c0-2.481-2.015-4.493-4.5-4.493z"/><path d="m5.507 6.507c-.128 0-.256-.049-.354-.146l-2.121-2.121c-.195-.195-.195-.512 0-.707s.512-.195.707 0l2.121 2.121c.195.195.195.512 0 .707-.098.098-.226.146-.354.146z"/><path d="m3.386 17.614c-.128 0-.256-.049-.354-.146-.195-.195-.195-.512 0-.707l2.121-2.121c.195-.195.512-.195.707 0s.195.512 0 .707l-2.121 2.121c-.098.098-.226.146-.354.146z"/><path d="m13.493 6.507c-.128 0-.256-.049-.354-.146-.195-.195-.195-.512 0-.707l2.121-2.121c.195-.195.512-.195.707 0s.195.512 0 .707l-2.121 2.121c-.098.098-.226.146-.354.146z"/><path d="m15.614 17.614c-.128 0-.256-.049-.354-.146l-2.121-2.121c-.195-.195-.195-.512 0-.707s.512-.195.707 0l2.121 2.121c.195.195.195.512 0 .707-.098.098-.226.146-.354.146z"/></svg>