<svg height="20" viewBox="0 0 20 20" width="20" xmlns="http://www.w3.org/2000/svg"><path d="m9.5 15c-2.481 0-4.5-2.019-4.5-4.5s2.019-4.5 4.5-4.5 4.5 2.019 4.5 4.5-2.019 4.5-4.5 4.5zm0-8c-1.93 0-3.5 1.57-3.5 3.5s1.57 3.5 3.5 3.5 3.5-1.57 3.5-3.5-1.57-3.5-3.5-3.5z"/><path d="m5.507 6.507c-.128 0-.256-.049-.354-.146l-2.121-2.121c-.195-.195-.195-.512 0-.707s.512-.195.707 0l2.121 2.121c.195.195.195.512 0 .707-.098.098-.226.146-.354.146z"/><path d="m3.386 17.614c-.128 0-.256-.049-.354-.146-.195-.195-.195-.512 0-.707l2.121-2.121c.195-.195.512-.195.707 0s.195.512 0 .707l-2.121 2.121c-.098.098-.226.146-.354.146z"/><path d="m13.493 6.507c-.128 0-.256-.049-.354-.146-.195-.195-.195-.512 0-.707l2.121-2.121c.195-.195.512-.195.707 0s.195.512 0 .707l-2.121 2.121c-.098.098-.226.146-.354.146z"/><path d="m9.5 5c-.276 0-.5-.224-.5-.5v-3c0-.276.224-.5.5-.5s.5.224.5.5v3c0 .276-.224.5-.5.5z"/><path d="m3.5 11h-3c-.276 0-.5-.224-.5-.5s.224-.5.5-.5h3c.276 0 .5.224.5.5s-.224.5-.5.5z"/><path d="m9.5 20c-.276 0-.5-.224-.5-.5v-3c0-.276.224-.5.5-.5s.5.224.5.5v3c0 .276-.224.5-.5.5z"/><path d="m18.5 11h-3c-.276 0-.5-.224-.5-.5s.224-.5.5-.5h3c.276 0 .5.224.5.5s-.224.5-.5.5z"/><path d="m16.5 14c-1.378 0-2.5 1.122-2.5 2.5v3c0 .276.224.5.5.5s.5-.224.5-.5v-1.5h3v1.5c0 .276.224.5.5.5s.5-.224.5-.5v-3c0-1.378-1.122-2.5-2.5-2.5zm-1.5 3v-.5c0-.827.673-1.5 1.5-1.5s1.5.673 1.5 1.5v.5z"/></svg>