<svg height="20" viewBox="0 0 20 20" width="20" xmlns="http://www.w3.org/2000/svg"><path d="m9.5 16c-.827 0-1.5-.673-1.5-1.5s.673-1.5 1.5-1.5 1.5.673 1.5 1.5-.673 1.5-1.5 1.5zm0-2c-.276 0-.5.224-.5.5s.224.5.5.5.5-.224.5-.5-.224-.5-.5-.5z"/><path d="m17.5 3h-16c-.827 0-1.5.673-1.5 1.5v3c0 .652.418 1.208 1 1.414v.586c0 2.27.884 4.405 2.49 6.01s3.74 2.49 6.01 2.49 4.405-.884 6.01-2.49 2.49-3.74 2.49-6.01v-.586c.582-.206 1-.762 1-1.414v-3c0-.827-.673-1.5-1.5-1.5zm-10.5 13.571v-2.071c0-1.378 1.122-2.5 2.5-2.5s2.5 1.122 2.5 2.5v2.071c-.782.277-1.624.429-2.5.429s-1.718-.152-2.5-.429zm6-.439v-1.632c0-1.93-1.57-3.5-3.5-3.5s-3.5 1.57-3.5 3.5v1.632c-2.377-1.26-4-3.759-4-6.632v-.5h15v.5c0 2.872-1.623 5.372-4 6.632zm5-8.632c0 .276-.224.5-.5.5h-16c-.276 0-.5-.224-.5-.5v-3c0-.276.224-.5.5-.5h16c.276 0 .5.224.5.5z"/></svg>