<svg height="20" viewBox="0 0 20 20" width="20" xmlns="http://www.w3.org/2000/svg"><path d="m13.006 5.5c0 .276-.225.5-.503.5s-.503-.224-.503-.5.225-.5.503-.5.503.224.503.5z"/><path d="m19.5 14c-.276 0-.5.224-.5.5v1.5h-3.5c-.827 0-1.5-.673-1.5-1.5v-2.293l2.647-2.646c.585-.585.585-1.536 0-2.121l-.441-.441c.525-.588.506-1.494-.059-2.059l-2.586-2.586c-.283-.283-.659-.438-1.061-.438s-.778.156-1.061.438l-10.793 10.793c-.143.143-.186.358-.108.545s.26.309.462.309h2.793l-.646.646c-.195.195-.195.512 0 .707l2 2c.098.098.226.146.354.146s.256-.049.354-.146l.646-.646.439.439c.292.292.677.439 1.061.439s.768-.146 1.061-.439l3.939-3.939v1.293c0 1.378 1.122 2.5 2.5 2.5h3.5v1.5c0 .276.224.5.5.5s.5-.224.5-.5v-4c0-.276-.224-.5-.5-.5zm-7.354-10.939c.094-.094.219-.145.354-.145s.26.052.354.145l2.586 2.586c.195.195.195.512 0 .707l-6.646 6.646h-6.586l9.939-9.939zm-6.646 13.232-1.293-1.293.293-.293 1.293 1.293zm2.854.146c-.195.195-.512.195-.707 0l-2.439-2.439h3.793c.133 0 .26-.053.354-.146l6.146-6.146.439.439c.195.195.195.512 0 .707l-7.586 7.586z"/></svg>