<svg height="20" viewBox="0 0 20 20" width="20" xmlns="http://www.w3.org/2000/svg"><path d="m13 9c-1.103 0-2-.897-2-2s.897-2 2-2 2 .897 2 2-.897 2-2 2zm0-3c-.551 0-1 .449-1 1s.449 1 1 1 1-.449 1-1-.449-1-1-1z"/><path d="m5.5 9c-.162 0-.32-.078-.417-.223-.153-.23-.091-.54.139-.693l3-2c.221-.147.518-.096.677.116l1.5 2c.166.221.121.534-.1.7s-.534.121-.7-.1l-1.216-1.622-2.606 1.738c-.085.057-.182.084-.277.084z"/><path d="m17.5 13c-.152 0-.301-.069-.4-.199-.014-.018-1.392-1.801-3.601-1.801-1.144 0-2.19.465-3.297.957-1.154.513-2.347 1.043-3.703 1.043-2.719 0-4.333-2.11-4.4-2.2-.166-.221-.121-.534.1-.7s.534-.121.7.1c.013.017 1.391 1.8 3.6 1.8 1.144 0 2.19-.465 3.297-.957 1.154-.513 2.347-1.043 3.703-1.043 2.719 0 4.333 2.11 4.4 2.2.166.221.121.534-.1.7-.09.067-.195.1-.3.1z"/><path d="m17.5 16c-.152 0-.301-.069-.4-.199-.014-.018-1.392-1.801-3.601-1.801-1.144 0-2.19.465-3.297.957-1.154.513-2.347 1.043-3.703 1.043-2.719 0-4.333-2.11-4.4-2.2-.166-.221-.121-.534.1-.7s.534-.121.7.1c.013.017 1.391 1.8 3.6 1.8 1.144 0 2.19-.465 3.297-.957 1.154-.513 2.347-1.043 3.703-1.043 2.719 0 4.333 2.11 4.4 2.2.166.221.121.534-.1.7-.09.067-.195.1-.3.1z"/></svg>