<svg height="20" viewBox="0 0 20 20" width="20" xmlns="http://www.w3.org/2000/svg"><path d="m19.854 8.646c-.195-.195-.512-.195-.707 0l-1.149 1.149c-.051-2.06-.878-3.99-2.341-5.452-.017-.017-.033-.033-.05-.049l1.271-1.467c.181-.209.158-.524-.05-.705s-.524-.158-.705.05l-1.27 1.466c-1.387-1.062-3.075-1.638-4.852-1.638-2.974 0-5.686 1.635-7.077 4.266-.129.244-.036.547.208.676s.547.036.676-.208c1.217-2.303 3.59-3.734 6.193-3.734 1.571 0 3.024.521 4.193 1.398l-9.142 10.548c-1.221-1.221-1.993-2.89-2.048-4.736l1.143 1.143c.098.098.226.146.354.146s.256-.049.354-.146c.195-.195.195-.512 0-.707l-2-2c-.195-.195-.512-.195-.707 0l-2 2c-.195.195-.195.512 0 .707s.512.195.707 0l1.149-1.149c.051 2.06.878 3.99 2.341 5.452.017.017.033.033.05.049l-1.271 1.467c-.181.209-.158.524.05.705.095.082.211.122.327.122.14 0 .279-.058.378-.173l1.27-1.466c1.387 1.062 3.075 1.638 4.852 1.638 2.974 0 5.686-1.635 7.077-4.266.129-.244.036-.547-.208-.676s-.547-.036-.676.208c-1.217 2.303-3.59 3.734-6.193 3.734-1.572 0-3.024-.521-4.193-1.398l9.142-10.548c1.221 1.221 1.993 2.89 2.048 4.736l-1.143-1.143c-.195-.195-.512-.195-.707 0s-.195.512 0 .707l2 2c.098.098.226.146.354.146s.256-.049.354-.146l2-2c.195-.195.195-.512 0-.707z"/></svg>