<svg height="20" viewBox="0 0 20 20" width="20" xmlns="http://www.w3.org/2000/svg"><path d="m18.854 5.646-.5-.5-4-4-.5-.5c-.195-.195-.512-.195-.707 0s-.195.512 0 .707l.146.146-2.293 2.293-.146-.146-1.5-1.5c-.195-.195-.512-.195-.707 0s-.195.512 0 .707l1.146 1.146-7.646 7.646c-.118.118-.169.288-.137.452.019.097.44 2.157 1.314 3.371l-2.677 2.677c-.195.195-.195.512 0 .707.098.098.226.146.354.146s.256-.049.354-.146l2.677-2.677c1.215.874 3.274 1.295 3.371 1.314.033.007.065.01.098.01.131 0 .259-.052.354-.146l7.647-7.646 1.646 1.646c.098.098.226.146.354.146s.256-.049.354-.146c.195-.195.195-.512 0-.707l-2-2-.146-.146 2.293-2.293.146.146c.098.098.226.146.354.146s.256-.049.354-.146c.195-.195.195-.512 0-.707zm-11.514 10.807c-.793-.187-2.335-.655-2.986-1.307-.65-.65-1.118-2.193-1.306-2.987l7.453-7.453 4.293 4.293-7.453 7.453zm7.66-8.66-3.293-3.293 2.293-2.293 3.293 3.293z"/></svg>