<svg height="20" viewBox="0 0 20 20" width="20" xmlns="http://www.w3.org/2000/svg"><path d="m16.5 20h-13c-.827 0-1.5-.673-1.5-1.5v-17c0-.827.673-1.5 1.5-1.5h13c.827 0 1.5.673 1.5 1.5v17c0 .827-.673 1.5-1.5 1.5zm-13-19c-.276 0-.5.224-.5.5v17c0 .276.224.5.5.5h13c.276 0 .5-.224.5-.5v-17c0-.276-.224-.5-.5-.5z"/><path d="m10.5 18h-1c-.276 0-.5-.224-.5-.5s.224-.5.5-.5h1c.276 0 .5.224.5.5s-.224.5-.5.5z"/><path d="m15.5 16h-11c-.276 0-.5-.224-.5-.5v-13c0-.276.224-.5.5-.5h11c.276 0 .5.224.5.5v13c0 .276-.224.5-.5.5zm-10.5-1h10v-12h-10z"/></svg>