<svg height="20" viewBox="0 0 20 20" width="20" xmlns="http://www.w3.org/2000/svg"><path d="m7.5 19.085c-.401 0-.778-.156-1.061-.438l-5.086-5.086c-.283-.283-.438-.659-.438-1.061s.156-.778.438-1.061l8.586-8.586c.487-.487 1.372-.854 2.061-.854h4.5c.827 0 1.5.673 1.5 1.5v4.5c0 .688-.367 1.574-.853 2.061l-8.586 8.586c-.283.283-.659.438-1.061.438zm4.5-16.085c-.415 0-1.06.267-1.353.561l-8.586 8.586c-.094.094-.145.219-.145.354s.052.26.145.353l5.086 5.086c.094.094.219.145.354.145s.26-.052.354-.145l8.586-8.586c.293-.293.561-.939.561-1.354v-4.5c0-.276-.224-.5-.5-.5h-4.5z"/><path d="m14.5 7c-.827 0-1.5-.673-1.5-1.5s.673-1.5 1.5-1.5 1.5.673 1.5 1.5-.673 1.5-1.5 1.5zm0-2c-.276 0-.5.224-.5.5s.224.5.5.5.5-.224.5-.5-.224-.5-.5-.5z"/></svg>