<svg height="20" viewBox="0 0 20 20" width="20" xmlns="http://www.w3.org/2000/svg"><path d="m5.5 13c-1.378 0-2.5-1.122-2.5-2.5s1.122-2.5 2.5-2.5 2.5 1.122 2.5 2.5-1.122 2.5-2.5 2.5zm0-4c-.827 0-1.5.673-1.5 1.5s.673 1.5 1.5 1.5 1.5-.673 1.5-1.5-.673-1.5-1.5-1.5z"/><path d="m14.5 13c-1.378 0-2.5-1.122-2.5-2.5s1.122-2.5 2.5-2.5 2.5 1.122 2.5 2.5-1.122 2.5-2.5 2.5zm0-4c-.827 0-1.5.673-1.5 1.5s.673 1.5 1.5 1.5 1.5-.673 1.5-1.5-.673-1.5-1.5-1.5z"/><path d="m11.5 7h-6c-.276 0-.5-.224-.5-.5s.224-.5.5-.5h6c.276 0 .5.224.5.5s-.224.5-.5.5z"/><path d="m18.5 4h-17c-.827 0-1.5.673-1.5 1.5v10c0 .827.673 1.5 1.5 1.5h14.997.004s.001 0 .002 0h1.998c.827 0 1.5-.673 1.5-1.5v-10c0-.827-.673-1.5-1.5-1.5zm-14.191 12 .5-1h10.382l.5 1zm14.691-.5c0 .276-.224.5-.5.5h-1.691l-.862-1.724c-.085-.169-.258-.276-.447-.276h-11c-.189 0-.363.107-.447.276l-.862 1.724h-1.691c-.276 0-.5-.224-.5-.5v-10c0-.276.224-.5.5-.5h17c.276 0 .5.224.5.5z"/></svg>