<svg height="20" viewBox="0 0 20 20" width="20" xmlns="http://www.w3.org/2000/svg"><path d="m8 7c-1.001 0-1.95-.17-2.672-.48-1.156-.495-1.328-1.165-1.328-1.52s.173-1.025 1.328-1.52c.722-.309 1.671-.48 2.672-.48s1.95.17 2.672.48c1.156.495 1.328 1.165 1.328 1.52s-.173 1.025-1.328 1.52c-.722.309-1.671.48-2.672.48zm0-3c-1.861 0-3 .647-3 1s1.139 1 3 1 3-.647 3-1-1.139-1-3-1z"/><path d="m19.859 8.253c-.067-.07-1.59-1.625-3.933-2.561.049-.227.074-.457.074-.691 0-1.385-.866-2.667-2.439-3.611-1.493-.896-3.468-1.389-5.561-1.389s-4.067.493-5.561 1.389c-1.573.944-2.439 2.226-2.439 3.611s.866 2.667 2.439 3.611c.18.108.367.21.561.306v2.167c-.847.421-1.557.952-2.064 1.548-.612.719-.936 1.538-.936 2.368 0 1.385.866 2.667 2.439 3.611 1.493.896 3.468 1.389 5.561 1.389 1.896 0 3.731-.415 5.168-1.169 1.199-.629 2.065-1.463 2.504-2.397.357.272.726.581 1.107.926 1.332 1.209 2.321 2.439 2.331 2.451.097.121.242.188.391.188.055 0 .111-.009.165-.028.2-.07.334-.259.334-.472v-10.9c0-.13-.05-.254-.141-.348zm-18.859-3.253c0-1.019.694-1.997 1.954-2.753 1.34-.804 3.132-1.247 5.046-1.247s3.706.443 5.046 1.247c1.26.756 1.954 1.734 1.954 2.753 0 .28-.053.557-.155.826-.001.002-.001.003-.002.005s-.001.002-.001.003c-.271.71-.886 1.372-1.796 1.919-.232.139-.478.267-.735.384-.009.004-.018.008-.027.012-1.224.552-2.713.85-4.285.85-1.57 0-3.057-.298-4.281-.849-.01-.005-.021-.01-.032-.015-.257-.117-.502-.245-.734-.384-1.26-.756-1.954-1.734-1.954-2.753zm7 5c1.427 0 2.798-.229 4-.659v5.159c0 .311-.391.677-1.021.957-.787.35-1.845.543-2.979.543s-2.192-.193-2.979-.543c-.63-.28-1.021-.647-1.021-.957v-5.159c1.202.43 2.573.659 4 .659zm4.703 7.946c-1.296.68-2.966 1.054-4.703 1.054-1.914 0-3.706-.443-5.046-1.247-1.26-.756-1.954-1.734-1.954-2.753 0-1.027.735-2.032 2-2.78v2.28c0 .744.574 1.408 1.615 1.871.912.406 2.115.629 3.385.629s2.473-.223 3.385-.629c.785-.349 1.304-.812 1.512-1.338.568.09 1.22.366 1.938.818-.311.795-1.055 1.529-2.132 2.095zm6.297.218c-.409-.444-.937-.987-1.539-1.534-1.692-1.539-3.19-2.408-4.461-2.592v-5.121c.193-.096.381-.198.561-.306.931-.558 1.614-1.235 2.017-1.982 1.744.704 3.014 1.802 3.423 2.183v9.352z"/></svg>