<svg height="20" viewBox="0 0 20 20" width="20" xmlns="http://www.w3.org/2000/svg"><path d="m17.733 12.649c-.188-.314-.475-.523-.829-.604-.37-.085-.769-.017-1.117.096.137-.742.189-1.299.205-1.516.005-.044.007-.085.007-.125 0-.006 0-.012-.001-.019 0-.002 0-.005 0-.007-.016-.702-.666-1.28-1.934-1.719-1.059-.367-2.524-.62-4.125-.714-.276-.016-.512.194-.528.47s.194.512.47.528c1.512.088 2.881.323 3.856.661 1.005.348 1.25.688 1.262.792-.001.007-.001.016-.002.027-.03.139-.374.54-1.685.914-1.279.365-2.988.567-4.812.567s-3.534-.201-4.812-.567c-1.311-.375-1.655-.776-1.685-.914-.001-.011-.002-.02-.002-.028.021-.231.88-.939 3.57-1.304.274-.037.465-.289.428-.563s-.289-.465-.563-.428c-1.226.166-2.272.43-3.025.763-.924.409-1.399.919-1.411 1.516v.003c0 .007-.001.014-.001.021 0 .039.002.081.007.125.035.467.233 2.503 1.094 4.568 1.311 3.145 3.523 4.808 6.399 4.808 1.845 0 3.418-.685 4.654-2.006.046-.007.091-.02.135-.04.04-.019.993-.463 2.029-1.138 1.451-.945 2.319-1.857 2.581-2.71.157-.511.1-1.014-.166-1.456zm-9.233 6.351c-2.468 0-4.307-1.403-5.467-4.171-.434-1.037-.69-2.084-.839-2.891.337.169.745.322 1.218.457 1.366.39 3.172.605 5.087.605s3.722-.215 5.087-.605c.473-.135.881-.288 1.218-.457-.148.808-.404 1.855-.839 2.891-1.16 2.767-2.999 4.171-5.467 4.171zm8.442-5.188c-.185.604-.953 1.371-2.161 2.159-.121.079-.241.155-.359.227.17-.316.329-.652.477-1.006.263-.631.464-1.258.617-1.84.299-.172.838-.408 1.164-.333.09.021.146.062.195.144.12.2.142.407.067.648z"/><path d="m9.494 11h.016c.276-.006.497-.234.491-.51s-.233-.496-.509-.49c-.007 0-.688.001-1.117-.425-.249-.247-.376-.609-.376-1.075 0-1.44.359-2.096.74-2.791.374-.682.76-1.388.76-2.709 0-1.6-.53-2.678-.553-2.724-.124-.247-.424-.347-.671-.224s-.347.424-.224.671c.004.009.447.91.447 2.276 0 1.065-.295 1.604-.637 2.229-.404.738-.863 1.575-.863 3.271 0 .748.229 1.352.681 1.794.694.68 1.671.706 1.814.706z"/></svg>