<svg height="20" viewBox="0 0 20 20" width="20" xmlns="http://www.w3.org/2000/svg"><path d="m20 6.5c0-.841-.878-1.5-2-1.5-.036 0-.071.001-.106.002-1.603.042-2.188 1.036-2.754 1.999-.257.437-.519.882-.885 1.305-.172-.629-.254-1.216-.254-1.806 0-.147-.063-.278-.164-.369.123-.226.164-.442.164-.631 0-.455-.248-1.115-1.427-1.672-.665-.314-1.523-.548-2.503-.687.009-.094.015-.187.015-.277 0-.538-.172-.993-.498-1.317-.365-.363-.899-.547-1.586-.547s-1.221.184-1.586.547c-.326.324-.498.78-.498 1.317 0 .09.005.183.015.277-.866.123-1.636.32-2.262.581-.096-.112-.216-.233-.363-.343-.582-.436-1.283-.481-1.972-.126-.736.379-1.545 1.274-1.22 3.385.19 1.235.687 2.436.926 3.013l.033.081c-.014.036-.029.072-.043.108-.506 1.269-1.03 2.582-1.03 3.659 0 2.106.831 3.82 2.404 4.958 1.394 1.009 3.329 1.542 5.596 1.542s4.203-.533 5.596-1.542c1.572-1.138 2.404-2.853 2.404-4.958 0-.186-.015-.374-.045-.571.045-.055.089-.113.133-.172.489-.663.884-1.52 1.265-2.348.498-1.082 1.012-2.198 1.629-2.596.612-.254 1.019-.741 1.019-1.313zm-1 0c0 .092-.079.202-.221.296-.084.034-.165.073-.244.118-.149.052-.329.086-.535.086-.61 0-1-.296-1-.5 0-.197.365-.481.941-.499.019 0 .039-.001.059-.001.61 0 1 .296 1 .5zm-12.077-3.785c.036-.333.191-.715 1.077-.715s1.041.382 1.077.715c.022.205-.004.448-.072.704-.002.007-.004.014-.006.021-.068.248-.174.509-.315.761-.276.496-.57.753-.685.795-.115-.042-.409-.299-.685-.795-.141-.255-.248-.517-.316-.767-.001-.005-.002-.009-.004-.014-.068-.257-.094-.5-.072-.706zm-.367 2.166c.26.418.794 1.119 1.444 1.119s1.184-.701 1.444-1.119c.153-.246.282-.504.383-.764.917.123 1.73.337 2.319.615.629.297.854.591.854.767 0 .238-.396.622-1.282.944-.985.358-2.306.556-3.718.556s-2.733-.197-3.718-.556c-.885-.322-1.282-.706-1.282-.944 0-.176.224-.47.854-.767.589-.278 1.402-.493 2.319-.615.101.259.229.517.383.764zm-5.454 1.606c-.188-1.223.044-2.012.689-2.344.342-.176.626-.169.895.022.025.018.049.037.072.056-.61.454-.758.927-.758 1.278 0 .188.041.404.164.631-.1.091-.164.223-.164.369 0 .527-.167 1.166-.4 1.843-.195-.542-.397-1.2-.498-1.856zm6.898 12.513c-4.383 0-7-2.056-7-5.5 0-.885.487-2.107.959-3.288.447-1.121.907-2.276 1.017-3.283.255.159.571.312.965.455 1.092.397 2.534.616 4.06.616s2.968-.219 4.06-.616c.387-.141.701-.292.953-.449.041.685.178 1.373.422 2.117-.066.048-.135.095-.207.141-.769.497-1.229 1.359-1.229 2.306 0 .642.192 1.251.539 1.714.375.499.907.786 1.461.786.351 0 .682-.081.995-.245-.127 3.29-2.721 5.245-6.995 5.245zm8.445-9.01c-.681 1.48-1.386 3.01-2.445 3.01-.542 0-1-.687-1-1.5 0-.606.288-1.154.771-1.466.203-.131.387-.267.556-.407.003-.003.006-.005.01-.008.828-.688 1.285-1.465 1.665-2.111.07-.119.136-.232.201-.339.253.39.723.679 1.3.786-.388.579-.719 1.297-1.059 2.035z"/></svg>