<svg height="20" viewBox="0 0 20 20" width="20" xmlns="http://www.w3.org/2000/svg"><path d="m16.218 3.782c-1.794-1.794-4.18-2.782-6.718-2.782s-4.923.988-6.717 2.782-2.782 4.18-2.782 6.717c0 2.538.988 4.923 2.782 6.717s4.18 2.782 6.717 2.782 4.923-.988 6.718-2.782c1.794-1.794 2.782-4.18 2.782-6.717s-.988-4.923-2.782-6.717zm-2.218 6.718c0-2.019.706-3.943 1.997-5.474 1.249 1.48 2.003 3.39 2.003 5.474s-.754 3.994-2.003 5.474c-1.292-1.531-1.997-3.454-1.997-5.474zm-10.997-5.474c1.292 1.531 1.997 3.454 1.997 5.474s-.706 3.943-1.997 5.474c-1.249-1.48-2.003-3.39-2.003-5.474s.754-3.994 2.003-5.474zm.692 11.677c1.49-1.725 2.305-3.908 2.305-6.203s-.815-4.478-2.305-6.203c1.52-1.424 3.562-2.297 5.805-2.297s4.284.873 5.805 2.297c-1.49 1.725-2.305 3.908-2.305 6.203s.815 4.478 2.305 6.203c-1.52 1.424-3.562 2.297-5.805 2.297s-4.284-.873-5.805-2.297z"/></svg>