<svg height="20" viewBox="0 0 20 20" width="20" xmlns="http://www.w3.org/2000/svg"><path d="m19.994 17.42c-.026-.159-.126-.295-.27-.367l-.927-.464-3.443-3.443c-.044-.044-.089-.088-.135-.134-1.001-.994-2.514-2.496-3.359-6.613-.301-1.44-1.064-2.851-2.126-3.913-1.627-1.627-3.367-2.487-5.034-2.487-1.248 0-2.39.483-3.304 1.397-1.031 1.031-1.518 2.385-1.37 3.811.156 1.507 1.007 3.073 2.46 4.526 1.068 1.068 2.488 1.826 3.913 2.125v.001c4.117.844 5.619 2.357 6.613 3.359.046.046.091.091.134.135l3.443 3.443.464.927c.072.144.208.244.367.27.027.004.053.006.08.006.132 0 .259-.052.353-.146l2-2c.114-.114.166-.275.14-.434zm-10.634-6.767-1.403-1.403 1.293-1.293 1.403 1.403c-.139.284-.317.538-.536.757-.233.233-.491.407-.757.536zm-3.403-3.403 1.293-1.293 1.293 1.293-1.293 1.293zm.586 2-1.221 1.221c-.571-.249-1.118-.58-1.609-.977l1.536-1.537 1.293 1.293zm4.342-2.626c.017.082.032.165.045.247.08.493.091.96.038 1.39l-1.012-1.012.872-.872c.019.077.037.154.053.231.001.005.002.01.003.015zm-1.635-.081-1.293-1.293 1.537-1.537c.396.489.727 1.036.976 1.609l-1.22 1.22zm-2-2-1.293-1.293 1.403-1.403c.485.301.971.681 1.45 1.136zm-.707.707-1.293 1.293-1.293-1.293 1.293-1.293zm-.115-3.885-1.178 1.178-1.434-1.434c.285-.072.581-.109.884-.109.563 0 1.142.124 1.728.365zm-3.604.166 1.719 1.719-1.293 1.293-1.721-1.721c.157-.252.348-.492.574-.718.224-.224.465-.415.72-.573zm-1.719 2.282 1.438 1.437-1.176 1.176c-.378-.913-.468-1.801-.262-2.613zm.744 3.545 1.401-1.401 1.293 1.293-1.56 1.56c-.456-.481-.834-.967-1.134-1.452zm4.528 3.472.873-.873 1.01 1.01c-.194.024-.379.033-.547.033-.337 0-.682-.035-1.028-.102-.028-.006-.056-.012-.084-.018-.074-.016-.149-.032-.223-.051zm3.084.868c.521-.198.979-.491 1.362-.874.384-.384.677-.843.874-1.361.824 2.146 1.843 3.281 2.594 4.038l-.792.792c-.757-.751-1.893-1.771-4.039-2.595zm8.176 6.958-.19-.38c-.024-.048-.056-.092-.094-.13l-3.146-3.146.793-.793 3.146 3.146c.038.038.082.07.13.094l.38.19z"/><path d="m2.5 20c-1.378 0-2.5-1.122-2.5-2.5s1.122-2.5 2.5-2.5 2.5 1.122 2.5 2.5-1.122 2.5-2.5 2.5zm0-4c-.827 0-1.5.673-1.5 1.5s.673 1.5 1.5 1.5 1.5-.673 1.5-1.5-.673-1.5-1.5-1.5z"/></svg>