<svg height="20" viewBox="0 0 20 20" width="20" xmlns="http://www.w3.org/2000/svg"><path d="m16.5 19h-14c-.276 0-.5-.224-.5-.5s.224-.5.5-.5h14c.276 0 .5.224.5.5s-.224.5-.5.5z"/><path d="m15.96 15.303-2.57-5.996c-.001-.001-.001-.003-.002-.004l-3.428-8c-.079-.184-.26-.303-.46-.303s-.381.119-.46.303l-3.428 8c-.001.002-.001.003-.002.005l-2.57 5.996c-.109.254.009.548.263.657s.548-.009.657-.263l2.442-5.697h6.198l2.442 5.697c.081.19.266.303.46.303.066 0 .133-.013.197-.041.254-.109.371-.403.263-.657zm-9.13-6.303 2.67-6.231 2.67 6.231h-5.341z"/></svg>