<svg height="20" viewBox="0 0 20 20" width="20" xmlns="http://www.w3.org/2000/svg"><path d="m.5 2c-.132 0-.26-.053-.353-.147s-.147-.222-.147-.353.053-.261.147-.353c.093-.093.222-.147.353-.147s.261.053.353.147c.093.093.147.222.147.353s-.053.26-.147.353-.222.147-.353.147z"/><path d="m2.5 2c-.132 0-.26-.053-.353-.147s-.147-.222-.147-.353.053-.261.147-.353c.093-.093.222-.147.353-.147s.261.053.353.147c.093.093.147.222.147.353s-.053.26-.147.353-.222.147-.353.147z"/><path d="m4.5 2c-.132 0-.261-.053-.353-.147s-.147-.222-.147-.353.053-.26.147-.353.222-.147.353-.147.261.053.353.147c.093.093.147.222.147.353s-.053.261-.147.353c-.093.093-.222.147-.353.147z"/><path d="m6.5 2c-.132 0-.26-.053-.353-.147s-.147-.222-.147-.353.053-.26.147-.353.222-.147.353-.147.26.053.353.147.147.222.147.353-.053.26-.147.353-.222.147-.353.147z"/><path d="m8.5 2c-.132 0-.26-.053-.353-.147s-.147-.222-.147-.353.053-.261.147-.353c.093-.093.222-.147.353-.147s.26.053.353.147c.093.093.147.222.147.353s-.053.261-.147.353c-.093.093-.222.147-.353.147z"/><path d="m18.5 2h-8c-.276 0-.5-.224-.5-.5s.224-.5.5-.5h8c.276 0 .5.224.5.5s-.224.5-.5.5z"/><path d="m.5 4c-.132 0-.26-.053-.353-.147s-.147-.222-.147-.353.053-.261.147-.353c.093-.093.222-.147.353-.147s.261.053.353.147c.093.093.147.222.147.353s-.053.261-.147.353c-.093.093-.222.147-.353.147z"/><path d="m2.5 4c-.132 0-.261-.053-.353-.147s-.147-.222-.147-.353.053-.261.147-.353c.093-.093.222-.147.353-.147s.261.053.353.147c.093.093.147.222.147.353s-.053.26-.147.353c-.093.093-.222.147-.353.147z"/><path d="m4.5 4c-.132 0-.26-.053-.353-.147s-.147-.222-.147-.353.053-.261.147-.353c.093-.093.222-.147.353-.147s.261.053.353.147c.093.093.147.222.147.353s-.053.261-.147.353c-.093.093-.222.147-.353.147z"/><path d="m6.5 4c-.132 0-.261-.053-.353-.147s-.147-.222-.147-.353.053-.261.147-.353c.093-.093.222-.147.353-.147s.261.053.353.147c.093.093.147.222.147.353s-.053.26-.147.353c-.093.093-.222.147-.353.147z"/><path d="m8.5 4c-.132 0-.26-.053-.353-.147s-.147-.222-.147-.353.053-.26.147-.353c.093-.093.222-.147.353-.147s.26.053.353.147c.093.093.147.222.147.353s-.053.261-.147.353c-.093.093-.222.147-.353.147z"/><path d="m18.5 4h-8c-.276 0-.5-.224-.5-.5s.224-.5.5-.5h8c.276 0 .5.224.5.5s-.224.5-.5.5z"/><path d="m.5 6c-.132 0-.261-.053-.353-.147s-.147-.222-.147-.353.053-.261.147-.353c.093-.093.222-.147.353-.147s.26.053.353.147.147.222.147.353-.053.261-.147.353c-.093.093-.222.147-.353.147z"/><path d="m2.5 6c-.132 0-.26-.053-.353-.147s-.147-.222-.147-.353.053-.26.147-.353.222-.147.353-.147.261.053.353.147c.093.093.147.222.147.353s-.053.261-.147.353c-.093.093-.222.147-.353.147z"/><path d="m4.5 6c-.132 0-.26-.053-.353-.147s-.147-.222-.147-.353.053-.261.147-.353c.093-.093.222-.147.353-.147s.26.053.353.147c.093.093.147.222.147.353s-.053.261-.147.353c-.093.093-.222.147-.353.147z"/><path d="m6.5 6c-.132 0-.261-.053-.353-.147s-.147-.222-.147-.353.053-.261.147-.353c.093-.093.222-.147.353-.147s.261.053.353.147c.093.093.147.222.147.353s-.053.26-.147.353c-.093.093-.222.147-.353.147z"/><path d="m8.5 6c-.132 0-.26-.053-.353-.147s-.147-.222-.147-.353.053-.261.147-.353c.093-.093.222-.147.353-.147s.261.053.353.147c.093.093.147.222.147.353s-.053.261-.147.353c-.093.093-.222.147-.353.147z"/><path d="m18.5 6h-8c-.276 0-.5-.224-.5-.5s.224-.5.5-.5h8c.276 0 .5.224.5.5s-.224.5-.5.5z"/><path d="m.5 8c-.132 0-.26-.053-.353-.147s-.147-.222-.147-.353.053-.261.147-.353c.093-.093.222-.147.353-.147s.261.053.353.147c.093.093.147.222.147.353s-.053.261-.147.353c-.093.093-.222.147-.353.147z"/><path d="m2.5 8c-.132 0-.261-.053-.353-.147s-.147-.222-.147-.353.053-.261.147-.353c.093-.093.222-.147.353-.147s.261.053.353.147c.093.093.147.222.147.353s-.053.261-.147.353c-.093.093-.222.147-.353.147z"/><path d="m4.5 8c-.132 0-.261-.053-.353-.147s-.147-.222-.147-.353.053-.261.147-.353c.093-.093.222-.147.353-.147s.261.053.353.147c.093.093.147.222.147.353s-.053.26-.147.353c-.093.093-.222.147-.353.147z"/><path d="m6.5 8c-.132 0-.26-.053-.353-.147s-.147-.222-.147-.353.053-.261.147-.353c.093-.093.222-.147.353-.147s.26.053.353.147c.093.093.147.222.147.353s-.053.261-.147.353c-.093.093-.222.147-.353.147z"/><path d="m8.5 8c-.132 0-.261-.053-.353-.147s-.147-.222-.147-.353.053-.26.147-.353.222-.147.353-.147.26.053.353.147c.093.093.147.222.147.353s-.053.261-.147.353c-.093.093-.222.147-.353.147z"/><path d="m18.5 8h-8c-.276 0-.5-.224-.5-.5s.224-.5.5-.5h8c.276 0 .5.224.5.5s-.224.5-.5.5z"/><path d="m.5 10c-.132 0-.26-.053-.353-.147s-.147-.222-.147-.353.053-.261.147-.353c.093-.093.222-.147.353-.147s.261.053.353.147c.093.093.147.222.147.353s-.053.26-.147.353-.222.147-.353.147z"/><path d="m2.5 10c-.132 0-.26-.053-.353-.147s-.147-.222-.147-.353.053-.261.147-.353c.093-.093.222-.147.353-.147s.261.053.353.147c.093.093.147.222.147.353s-.053.261-.147.353c-.093.093-.222.147-.353.147z"/><path d="m4.5 10c-.132 0-.26-.053-.353-.147s-.147-.222-.147-.353.053-.261.147-.353c.093-.093.222-.147.353-.147s.261.053.353.147c.093.093.147.222.147.353s-.053.26-.147.353-.222.147-.353.147z"/><path d="m6.5 10c-.132 0-.26-.053-.353-.147s-.147-.222-.147-.353.053-.261.147-.353c.093-.093.222-.147.353-.147s.261.053.353.147c.093.093.147.222.147.353s-.053.26-.147.353-.222.147-.353.147z"/><path d="m8.5 10c-.132 0-.26-.053-.353-.147s-.147-.222-.147-.353.053-.26.147-.353c.093-.093.222-.147.353-.147s.261.053.353.147c.093.093.147.222.147.353s-.053.261-.147.353c-.093.093-.222.147-.353.147z"/><path d="m18.5 10h-8c-.276 0-.5-.224-.5-.5s.224-.5.5-.5h8c.276 0 .5.224.5.5s-.224.5-.5.5z"/><path d="m.5 20c-.276 0-.5-.224-.5-.5v-8c0-.276.224-.5.5-.5s.5.224.5.5v8c0 .276-.224.5-.5.5z"/><path d="m2.5 20c-.276 0-.5-.224-.5-.5v-8c0-.276.224-.5.5-.5s.5.224.5.5v8c0 .276-.224.5-.5.5z"/><path d="m4.5 20c-.276 0-.5-.224-.5-.5v-8c0-.276.224-.5.5-.5s.5.224.5.5v8c0 .276-.224.5-.5.5z"/><path d="m6.5 20c-.276 0-.5-.224-.5-.5v-8c0-.276.224-.5.5-.5s.5.224.5.5v8c0 .276-.224.5-.5.5z"/><path d="m8.5 20c-.276 0-.5-.224-.5-.5v-8c0-.276.224-.5.5-.5s.5.224.5.5v8c0 .276-.224.5-.5.5z"/><path d="m18.5 11h-8c-.276 0-.5.224-.5.5v8c0 .276.224.5.5.5h8c.276 0 .5-.224.5-.5v-8c0-.276-.224-.5-.5-.5zm-4.5 4h-1v-1h1zm1-1h1v1h-1zm-3 1h-1v-1h1zm0 1v1h-1v-1zm1 0h1v1h-1zm2 0h1v1h-1zm2 0h1v1h-1zm0-1v-1h1v1zm0-2v-1h1v1zm-1 0h-1v-1h1zm-2 0h-1v-1h1zm-2 0h-1v-1h1zm-1 5h1v1h-1zm2 0h1v1h-1zm2 0h1v1h-1zm2 0h1v1h-1z"/></svg>