<svg height="20" viewBox="0 0 20 20" width="20" xmlns="http://www.w3.org/2000/svg"><path d="m6.96 16.303-1.284-2.996c-.001-.001-.001-.003-.002-.004l-1.714-4c-.079-.184-.26-.303-.46-.303s-.381.119-.46.303l-1.714 4c-.001.001-.001.003-.002.004l-1.284 2.996c-.109.254.009.548.263.657s.548-.009.657-.263l1.156-2.697h2.769l1.156 2.697c.081.19.266.303.46.303.066 0 .133-.013.197-.041.254-.109.371-.403.263-.657zm-4.416-3.303.956-2.231.956 2.231z"/><path d="m19.962 16.308-2.083-5c-.001-.001-.001-.003-.002-.004l-2.915-6.996c-.078-.186-.26-.308-.462-.308s-.384.121-.462.308l-2.915 6.996c-.001.001-.001.003-.002.004l-2.083 5c-.106.255.014.548.269.654s.548-.014.654-.269l1.955-4.692h5.167l1.955 4.692c.08.192.266.308.462.308.064 0 .129-.012.192-.039.255-.106.375-.399.269-.654zm-7.629-5.308 2.167-5.2 2.167 5.2h-4.333z"/></svg>