<svg height="20" viewBox="0 0 20 20" width="20" xmlns="http://www.w3.org/2000/svg"><path d="m17.5 5h-15c-.276 0-.5-.224-.5-.5s.224-.5.5-.5h15c.276 0 .5.224.5.5s-.224.5-.5.5z"/><path d="m17.5 17h-15c-.276 0-.5-.224-.5-.5s.224-.5.5-.5h15c.276 0 .5.224.5.5s-.224.5-.5.5z"/><path d="m15.5 8h-13c-.276 0-.5.224-.5.5s.224.5.5.5h13c.827 0 1.5.673 1.5 1.5s-.673 1.5-1.5 1.5h-5.293l1.146-1.146c.195-.195.195-.512 0-.707s-.512-.195-.707 0l-2 2c-.195.195-.195.512 0 .707l2 2c.098.098.226.146.354.146s.256-.049.354-.146c.195-.195.195-.512 0-.707l-1.146-1.146h5.293c1.378 0 2.5-1.122 2.5-2.5s-1.122-2.5-2.5-2.5z"/><path d="m6.5 13h-4c-.276 0-.5-.224-.5-.5s.224-.5.5-.5h4c.276 0 .5.224.5.5s-.224.5-.5.5z"/></svg>