<svg height="20" viewBox="0 0 20 20" width="20" xmlns="http://www.w3.org/2000/svg"><path d="m13.5 1h-12c-.276 0-.5.224-.5.5s.224.5.5.5h5.41l-1.903 11.418c-.045.272.139.53.411.575.028.005.056.007.083.007.24 0 .452-.173.493-.418l1.93-11.582h5.576c.276 0 .5-.224.5-.5s-.224-.5-.5-.5z"/><path d="m10.5 16h-9c-.276 0-.5.224-.5.5s.224.5.5.5h9c.276 0 .5-.224.5-.5s-.224-.5-.5-.5z"/><path d="m15.707 16.5 1.646-1.646c.195-.195.195-.512 0-.707s-.512-.195-.707 0l-1.646 1.646-1.646-1.646c-.195-.195-.512-.195-.707 0s-.195.512 0 .707l1.646 1.646-1.646 1.646c-.195.195-.195.512 0 .707.098.098.226.146.354.146s.256-.049.354-.146l1.646-1.646 1.646 1.646c.098.098.226.146.354.146s.256-.049.354-.146c.195-.195.195-.512 0-.707l-1.646-1.646z"/></svg>