<svg height="20" viewBox="0 0 20 20" width="20" xmlns="http://www.w3.org/2000/svg"><path d="m11.5 8c-.171 0-.338-.088-.431-.246-.009-.014-.469-.754-1.069-.754-.602 0-1.064.744-1.068.752-.139.239-.445.319-.684.18s-.319-.445-.18-.684c.03-.051.742-1.248 1.932-1.248s1.902 1.197 1.932 1.248c.139.239.059.545-.18.684-.079.046-.166.068-.251.068z"/><path d="m16.5 8c-.172 0-.339-.089-.432-.248-.003-.006-.465-.752-1.068-.752s-1.064.744-1.068.752c-.139.239-.445.319-.684.18s-.319-.445-.18-.684c.03-.051.742-1.248 1.932-1.248s1.902 1.197 1.932 1.248c.139.239.059.545-.18.684-.079.046-.166.068-.251.068z"/><path d="m12.5 14c-2.283 0-3.401-2.183-3.447-2.276-.077-.155-.069-.339.022-.486s.252-.237.425-.237h6c.173 0 .334.09.425.237s.099.331.022.486c-.046.093-1.164 2.276-3.447 2.276zm-2.032-2c.426.472 1.11 1 2.032 1s1.606-.528 2.032-1h-4.065z"/><path d="m19.792 2.095c-.13-.094-.298-.12-.45-.069-.029.01-2.978.974-6.842.974s-6.784-.964-6.813-.974c-.152-.051-.32-.026-.451.068s-.208.245-.209.405c0 .06 0 1.002.119 2.386-2.638-.256-4.441-.853-4.46-.859-.152-.051-.32-.026-.451.068s-.208.244-.208.405c0 .093.001 2.312.445 5.01.262 1.592.626 3.018 1.081 4.238.58 1.554 1.313 2.782 2.18 3.65 1.061 1.064 2.329 1.603 3.767 1.603 1.636 0 3.043-.693 4.187-2.06.264.04.535.06.813.06 1.763 0 3.259-.803 4.447-2.387.911-1.215 1.639-2.894 2.163-4.991.88-3.519.89-6.976.89-7.121 0-.161-.077-.311-.208-.405zm-12.292 15.905c-1.179 0-2.179-.428-3.059-1.308-2.836-2.84-3.316-9.403-3.398-11.52.813.218 2.307.558 4.204.727.058.506.131 1.048.224 1.61.067.405.14.799.22 1.181-.185.165-.424.309-.692.309-.603 0-1.065-.746-1.068-.752-.139-.238-.445-.319-.684-.18s-.319.445-.18.684c.03.051.742 1.248 1.932 1.248.356 0 .669-.106.934-.257.182.717.389 1.387.619 2.003.189.507.395.98.617 1.417-1.301.509-2.079 2.037-2.117 2.113-.077.155-.069.339.022.486s.252.237.425.237h3.932c.37.272.761.489 1.172.65-.885.907-1.906 1.35-3.104 1.35zm.867-3h-1.943c.306-.387.74-.811 1.245-.952.22.348.453.665.697.952zm9.769-5.606c-.492 1.963-1.163 3.519-1.993 4.624-1.002 1.334-2.194 1.982-3.643 1.982-.97 0-1.818-.29-2.578-.882-.005-.004-.01-.008-.016-.012-.159-.125-.313-.262-.465-.414-.405-.406-.762-.887-1.076-1.421-.007-.013-.014-.026-.022-.039-1.869-3.205-2.23-8.251-2.299-10.06 1.113.299 3.499.827 6.456.827 2.962 0 5.364-.53 6.483-.829-.047 1.174-.218 3.714-.847 6.223z"/></svg>