<svg height="20" viewBox="0 0 20 20" width="20" xmlns="http://www.w3.org/2000/svg"><path d="m13.5 3h-1c-.276 0-.5-.224-.5-.5s.224-.5.5-.5h1c.276 0 .5.224.5.5s-.224.5-.5.5z"/><path d="m14.5 5h-2c-.276 0-.5-.224-.5-.5s.224-.5.5-.5h2c.276 0 .5.224.5.5s-.224.5-.5.5z"/><path d="m13.5 7h-1c-.276 0-.5-.224-.5-.5s.224-.5.5-.5h1c.276 0 .5.224.5.5s-.224.5-.5.5z"/><path d="m14.5 9h-2c-.276 0-.5-.224-.5-.5s.224-.5.5-.5h2c.276 0 .5.224.5.5s-.224.5-.5.5z"/><path d="m13.5 11h-1c-.276 0-.5-.224-.5-.5s.224-.5.5-.5h1c.276 0 .5.224.5.5s-.224.5-.5.5z"/><path d="m9 14.086v-9.586c0-.276-.224-.5-.5-.5s-.5.224-.5.5v9.586c-.582.206-1 .762-1 1.414 0 .827.673 1.5 1.5 1.5s1.5-.673 1.5-1.5c0-.652-.418-1.208-1-1.414zm-.5 1.914c-.276 0-.5-.224-.5-.5s.224-.5.5-.5.5.224.5.5-.224.5-.5.5z"/><path d="m8.5 20c-2.481 0-4.5-2.019-4.5-4.5 0-1.503.759-2.911 2-3.742v-9.258c0-1.378 1.122-2.5 2.5-2.5s2.5 1.122 2.5 2.5v9.258c1.241.831 2 2.239 2 3.742 0 2.481-2.019 4.5-4.5 4.5zm0-19c-.827 0-1.5.673-1.5 1.5v9.535c0 .178-.095.343-.25.433-1.08.625-1.75 1.786-1.75 3.032 0 1.93 1.57 3.5 3.5 3.5s3.5-1.57 3.5-3.5c0-1.246-.671-2.407-1.75-3.032-.154-.089-.25-.254-.25-.433v-9.535c0-.827-.673-1.5-1.5-1.5z"/></svg>