<svg height="20" viewBox="0 0 20 20" width="20" xmlns="http://www.w3.org/2000/svg"><path d="m17 8c0 .871-.56 1.614-1.339 1.887.214.318.339.701.339 1.113 0 1.103-.897 2-2 2h-3v5c0 1.103-.897 2-2 2s-2-.897-2-2v-5c-.124 0-1.225-.018-1.854-.646-.495-.495-.865-1.091-1.131-1.823-.342-.938-.515-2.126-.515-3.531 0-1.211.178-2.56.501-3.798.186-.712.581-1.991 1.145-2.555.628-.628 1.73-.646 1.854-.646h6c1.103 0 2 .897 2 2 0 .412-.125.794-.339 1.113.779.274 1.339 1.016 1.339 1.887 0 .412-.125.794-.339 1.113.779.274 1.339 1.016 1.339 1.887zm-9 10c0 .551.449 1 1 1s1-.449 1-1v-5h-2zm7-11h-4.5c-.276 0-.5-.224-.5-.5s.224-.5.5-.5h3.5c.551 0 1-.449 1-1s-.449-1-1-1h-4c-.276 0-.5-.224-.5-.5s.224-.5.5-.5h3c.551 0 1-.449 1-1s-.449-1-1-1h-5.999c-.207.001-.863.069-1.148.353-.545.545-1.354 3.156-1.354 5.647 0 3.293 1.019 4.312 1.354 4.646.285.285.94.352 1.148.354h6.999c.551 0 1-.449 1-1s-.449-1-1-1h-3.5c-.276 0-.5-.224-.5-.5s.224-.5.5-.5h4.5c.551 0 1-.449 1-1s-.449-1-1-1z"/></svg>