<svg height="20" viewBox="0 0 20 20" width="20" xmlns="http://www.w3.org/2000/svg"><path d="m19.436 9.255c-.487-.868-1.145-1.069-1.834-1.213-.381-.08-1.006-.064-1.668-.047-.424.011-1.061.027-1.233-.016-.074-.039-.259-.16-.339-.431-.094-.319-.073-.917.564-1.959.212-.347.34-.942.342-1.589.002-.723-.154-1.401-.438-1.907-.401-.715-1.034-1.092-1.831-1.092-.191 0-.365.109-.449.28-.386.789-1.184 2.518-1.956 4.191-.682 1.479-1.327 2.876-1.542 3.306-.046.091-.086.176-.125.258-.193.404-.288.588-.52.713-.271.147-.751.226-1.496.247-.208-.579-.762-.995-1.412-.995h-4c-.827 0-1.5.673-1.5 1.5v8c0 .827.673 1.5 1.5 1.5h4c.649 0 1.204-.415 1.412-.994.58.018 1.66.082 2.445.316 1.539.46 3.015.674 4.643.674h.016.016c1.259 0 2.17-.001 2.917-.205.821-.224 1.409-.677 1.968-1.515.34-.509 1.084-2.419 1.084-4.777 0-1.951 0-3.24-.564-4.245zm-13.936 9.745h-4c-.276 0-.5-.224-.5-.5v-8c0-.276.224-.5.5-.5h4c.276 0 .5.224.5.5v8c0 .276-.224.5-.5.5zm12.584-1.277c-.848 1.271-1.592 1.274-4.051 1.274-.006 0-.012 0-.017 0h-.016c-1.549 0-2.893-.195-4.357-.632-.869-.26-2-.335-2.643-.357v-7.016c.896-.029 1.473-.143 1.884-.365.528-.286.731-.711.946-1.162.037-.078.076-.159.117-.242.222-.444.87-1.848 1.556-3.334.648-1.403 1.371-2.972 1.794-3.856.28.07.494.248.661.547.198.354.311.87.31 1.416-.001.495-.099.913-.195 1.07-.666 1.088-.891 2.019-.67 2.765.198.668.682.961.881 1.056.268.128.694.131 1.676.106.522-.013 1.17-.03 1.438.026.646.135.905.259 1.166.724.436.777.436 1.962.436 3.755 0 2.147-.681 3.87-.916 4.223z"/></svg>