<svg height="20" viewBox="0 0 20 20" width="20" xmlns="http://www.w3.org/2000/svg"><path d="m19.5 16h-19c-.276 0-.5-.224-.5-.5v-3c0-.276.224-.5.5-.5.827 0 1.5-.673 1.5-1.5s-.673-1.5-1.5-1.5c-.276 0-.5-.224-.5-.5v-3c0-.276.224-.5.5-.5h19c.276 0 .5.224.5.5v3c0 .276-.224.5-.5.5-.827 0-1.5.673-1.5 1.5s.673 1.5 1.5 1.5c.276 0 .5.224.5.5v3c0 .276-.224.5-.5.5zm-18.5-1h18v-2.05c-1.14-.232-2-1.242-2-2.45s.86-2.217 2-2.45v-2.05h-18v2.05c1.14.232 2 1.242 2 2.45s-.86 2.217-2 2.45z"/><path d="m15.5 14h-11c-.276 0-.5-.224-.5-.5v-6c0-.276.224-.5.5-.5h11c.276 0 .5.224.5.5v6c0 .276-.224.5-.5.5zm-10.5-1h10v-5h-10z"/></svg>