<svg height="20" viewBox="0 0 20 20" width="20" xmlns="http://www.w3.org/2000/svg"><path d="m12.995 17.426-1.959-13.14c.296-.272.592-.62.888-1.045.557-.801.917-1.591.932-1.624.18-.397.166-.805-.037-1.121s-.57-.497-1.005-.497h-4.625c-.435 0-.802.181-1.005.497s-.217.724-.037 1.121c.015.033.375.823.932 1.624.292.42.585.765.877 1.035l-1.948 13.151c-.028.191.056.382.217.489l3 2c.084.056.181.084.277.084s.193-.028.277-.084l3-2c.161-.107.246-.298.217-.49zm-5.939-16.222c-.048-.105-.037-.16-.033-.166s.049-.038.165-.038h4.625c.116 0 .161.032.165.038s.015.061-.033.166c-.306.676-1.012 1.884-1.719 2.465-.025.017-.049.035-.071.056-.224.17-.446.274-.655.274-.428 0-1.009-.481-1.594-1.319-.507-.726-.847-1.469-.85-1.476zm2.444 17.695-2.459-1.639 1.834-12.38c.209.08.418.12.625.12.203 0 .408-.039.613-.116l1.845 12.376-2.459 1.639z"/></svg>