<svg height="20" viewBox="0 0 20 20" width="20" xmlns="http://www.w3.org/2000/svg"><path d="m15.51 5.49c-.015-.015-.031-.03-.047-.046l1.413-1.615c.182-.208.161-.524-.047-.706s-.524-.161-.706.047l-1.412 1.613c-1.355-1.056-2.985-1.67-4.713-1.769 0-.005.001-.01.001-.015v-1h.5c.276 0 .5-.224.5-.5s-.224-.5-.5-.5h-2c-.276 0-.5.224-.5.5s.224.5.5.5h.5v1c0 .005.001.01.001.015-2.083.12-4.024.988-5.511 2.475-1.605 1.605-2.49 3.74-2.49 6.01s.884 4.405 2.49 6.01c.015.015.031.03.047.046l-1.413 1.615c-.182.208-.161.524.047.706.095.083.212.124.329.124.139 0 .278-.058.376-.171l1.412-1.613c1.484 1.157 3.3 1.784 5.212 1.784 2.27 0 4.405-.884 6.01-2.49s2.49-3.74 2.49-6.01-.884-4.405-2.49-6.01zm-13.51 6.01c0-4.136 3.364-7.5 7.5-7.5 1.709 0 3.287.575 4.549 1.542l-4.049 4.628v-4.669c0-.276-.224-.5-.5-.5s-.5.224-.5.5v5.812l-4.802 5.488c-1.357-1.358-2.198-3.233-2.198-5.3zm7.5 7.5c-1.709 0-3.287-.575-4.549-1.542l9.851-11.258c1.358 1.358 2.198 3.233 2.198 5.3 0 4.136-3.364 7.5-7.5 7.5z"/></svg>