<svg height="20" viewBox="0 0 20 20" width="20" xmlns="http://www.w3.org/2000/svg"><path d="m5.5 8c-.128 0-.256-.049-.354-.146l-2-2c-.195-.195-.195-.512 0-.707s.512-.195.707 0l2 2c.195.195.195.512 0 .707-.098.098-.226.146-.354.146z"/><path d="m13.5 18h-7c-.827 0-1.5-.673-1.5-1.5v-2c0-.276.224-.5.5-.5s.5.224.5.5v2c0 .276.224.5.5.5h7c.276 0 .5-.224.5-.5v-7c0-.276-.224-.5-.5-.5h-1c-.276 0-.5-.224-.5-.5s.224-.5.5-.5h1c.827 0 1.5.673 1.5 1.5v7c0 .827-.673 1.5-1.5 1.5z"/><path d="m18.968 17.148c-.193 0-.39-.05-.586-.148l-1.211-.606c-.657-.328-1.171-1.16-1.171-1.894v-3c0-.734.514-1.566 1.171-1.894l1.211-.606c.196-.098.393-.148.586-.148.598 0 1.032.483 1.032 1.148v6c0 .316-.092.592-.267.799-.19.225-.462.349-.765.349zm0-7.296c-.016 0-.063.004-.139.042l-1.211.606c-.323.162-.618.638-.618 1v3c0 .362.295.838.618 1l1.211.606c.076.038.123.042.139.042h.005c.01-.017.027-.064.027-.148v-6c0-.084-.017-.131-.027-.148-.001 0-.003 0-.005 0z"/><path d="m5.5 13c-3.033 0-5.5-2.467-5.5-5.5 0-.88.202-1.72.599-2.499.182-.356.404-.692.659-1.001h-.758c-.276 0-.5-.224-.5-.5s.224-.5.5-.5h2c.215 0 .406.138.474.342s-.002.429-.174.558c-1.144.859-1.8 2.172-1.8 3.6 0 2.481 2.019 4.5 4.5 4.5s4.5-2.019 4.5-4.5-2.019-4.5-4.5-4.5c-.276 0-.5-.224-.5-.5s.224-.5.5-.5c3.033 0 5.5 2.467 5.5 5.5s-2.467 5.5-5.5 5.5z"/></svg>