<svg height="20" viewBox="0 0 20 20" width="20" xmlns="http://www.w3.org/2000/svg"><path d="m15.51 5.49c-1.487-1.487-3.428-2.355-5.51-2.475v-1.015h.5c.276 0 .5-.224.5-.5s-.224-.5-.5-.5h-2c-.276 0-.5.224-.5.5s.224.5.5.5h.5v1.015c-2.082.12-4.023.988-5.51 2.475-1.605 1.605-2.49 3.74-2.49 6.01s.884 4.405 2.49 6.01c1.605 1.605 3.74 2.49 6.01 2.49s4.405-.884 6.01-2.49c1.605-1.605 2.49-3.74 2.49-6.01s-.884-4.405-2.49-6.01zm-6.01 13.51c-4.136 0-7.5-3.364-7.5-7.5s3.364-7.5 7.5-7.5 7.5 3.364 7.5 7.5-3.364 7.5-7.5 7.5z"/><path d="m9.5 12c-.276 0-.5-.224-.5-.5v-6c0-.276.224-.5.5-.5s.5.224.5.5v6c0 .276-.224.5-.5.5z"/></svg>