<svg height="20" viewBox="0 0 20 20" width="20" xmlns="http://www.w3.org/2000/svg"><path d="m18.5 18h-9c-.827 0-1.5-.673-1.5-1.5v-3c0-.276.224-.5.5-.5s.5.224.5.5v3c0 .276.224.5.5.5h9c.276 0 .5-.224.5-.5v-6c0-.276-.224-.5-.5-.5h-1c-.133 0-.26-.053-.354-.146l-.854-.854h-3.793c-.276 0-.5-.224-.5-.5s.224-.5.5-.5h4c.133 0 .26.053.354.146l.854.854h.793c.827 0 1.5.673 1.5 1.5v6c0 .827-.673 1.5-1.5 1.5z"/><path d="m14 16c-1.654 0-3-1.346-3-3s1.346-3 3-3 3 1.346 3 3-1.346 3-3 3zm0-5c-1.103 0-2 .897-2 2s.897 2 2 2 2-.897 2-2-.897-2-2-2z"/><path d="m10.398 6.992c-.233 0-.441-.163-.489-.4-.362-1.769-1.739-3.143-3.508-3.503-.271-.055-.445-.319-.391-.589s.319-.446.589-.391c1.056.214 2.02.732 2.787 1.498s1.286 1.728 1.502 2.784c.055.271-.119.535-.39.59-.034.007-.067.01-.101.01z"/><path d="m.601 7c-.033 0-.066-.003-.1-.01-.271-.055-.445-.319-.391-.589.215-1.058.734-2.022 1.501-2.79s1.732-1.286 2.79-1.501c.271-.055.535.12.589.391s-.12.535-.391.589c-1.772.36-3.15 1.737-3.509 3.509-.048.237-.257.401-.489.401z"/><path d="m4.501 12.9c-.033 0-.066-.003-.1-.01-1.058-.215-2.022-.734-2.79-1.501s-1.286-1.732-1.501-2.79c-.055-.271.12-.534.391-.589s.535.12.589.391c.36 1.772 1.737 3.15 3.509 3.509.271.055.445.319.391.589-.048.237-.257.401-.489.401z"/><path d="m6.499 12.9c-.233 0-.441-.164-.489-.401-.055-.271.12-.534.391-.589 1.772-.36 3.15-1.737 3.509-3.509.055-.271.319-.446.589-.391s.445.319.391.589c-.215 1.058-.734 2.022-1.501 2.79s-1.732 1.286-2.79 1.501c-.034.007-.067.01-.1.01z"/><path d="m5.5 8c-.128 0-.256-.049-.354-.146l-2-2c-.195-.195-.195-.512 0-.707s.512-.195.707 0l2 2c.195.195.195.512 0 .707-.098.098-.226.146-.354.146z"/></svg>