<svg height="20" viewBox="0 0 20 20" width="20" xmlns="http://www.w3.org/2000/svg"><path d="m19.5 11.382-1.106-2.211c-.328-.657-1.16-1.171-1.894-1.171h-1.796c.893-2.563 2.226-5.24 2.244-5.276.083-.167.067-.367-.043-.518-.049-.067-1.225-1.641-3.526-1.066-.772.193-1.313.651-1.791 1.056-.531.449-.95.804-1.588.804-.68 0-1.535-.244-2.363-.481-.893-.255-1.817-.519-2.637-.519-.981 0-1.473.381-1.713.7-.274.365-.287.73-.287.8 0 .042.005.084.016.124.021.081.419 1.602 1.694 4.376h-1.21c-.734 0-1.566.514-1.894 1.171l-1.106 2.211c-.28.561-.5 1.491-.5 2.118v4c0 .827.673 1.5 1.5 1.5h17c.827 0 1.5-.673 1.5-1.5v-4c0-.627-.22-1.557-.5-2.118zm-15.412-8.082c.147-.196.463-.3.912-.3.68 0 1.535.244 2.363.481.893.255 1.817.519 2.637.519 1.004 0 1.657-.553 2.234-1.041.433-.367.842-.713 1.388-.849 1.189-.297 1.944.182 2.278.479-.532 1.097-2.261 4.783-2.813 7.411h-1.031c.171-.983.694-2.667.919-3.342.087-.262-.054-.545-.316-.632s-.545.054-.632.316c-.091.273-.796 2.41-.981 3.658h-2.224c-.426-.997-.831-2.604-.835-2.621-.067-.268-.338-.431-.606-.364s-.431.338-.364.606c.017.067.337 1.34.729 2.379h-.94c-1.953-3.768-2.662-6.074-2.795-6.538.011-.039.033-.102.079-.162zm-1.588 6.318c.162-.323.638-.618 1-.618h1.683c.155.32.321.653.497 1h-.179c-.276 0-.5.224-.5.5s.224.5.5.5h9c.276 0 .5-.224.5-.5s-.224-.5-.5-.5h-.39c.073-.319.164-.655.268-1h2.122c.362 0 .838.295 1 .618l1.106 2.211c.028.055.055.117.081.183-.061-.008-.123-.012-.187-.012h-17c-.063 0-.125.004-.187.012.026-.066.053-.128.081-.183l1.106-2.211zm16.5 7.882c0 .276-.224.5-.5.5h-17c-.276 0-.5-.224-.5-.5v-4c0-.276.224-.5.5-.5h17c.276 0 .5.224.5.5z"/></svg>