<svg height="20" viewBox="0 0 20 20" width="20" xmlns="http://www.w3.org/2000/svg"><path d="m13 17h-6c-1.87 0-3.628-.728-4.95-2.05s-2.05-3.08-2.05-4.95.728-3.628 2.05-4.95 3.08-2.05 4.95-2.05h6c1.87 0 3.628.728 4.95 2.05s2.05 3.08 2.05 4.95-.728 3.628-2.05 4.95-3.08 2.05-4.95 2.05zm-6-13c-3.308 0-6 2.692-6 6s2.692 6 6 6h6c3.308 0 6-2.692 6-6s-2.692-6-6-6z"/><path d="m7 14c-2.206 0-4-1.794-4-4s1.794-4 4-4 4 1.794 4 4-1.794 4-4 4zm0-7c-1.654 0-3 1.346-3 3s1.346 3 3 3 3-1.346 3-3-1.346-3-3-3z"/></svg>