<svg height="20" viewBox="0 0 20 20" width="20" xmlns="http://www.w3.org/2000/svg"><path d="m14.5 20c-.076 0-.153-.017-.224-.053l-3.894-1.947h-9.882c-.276 0-.5-.224-.5-.5v-14c0-.276.224-.5.5-.5h9.882l3.894-1.947c.155-.077.339-.069.486.022s.237.252.237.425v18c0 .173-.09.334-.237.425-.08.05-.171.075-.263.075zm-13.5-3h9.5c.078 0 .154.018.224.053l3.276 1.638v-16.382l-3.276 1.638c-.069.035-.146.053-.224.053h-9.5z"/><path d="m19.5 18h-3c-.276 0-.5-.224-.5-.5s.224-.5.5-.5h2.5v-13h-2.5c-.276 0-.5-.224-.5-.5s.224-.5.5-.5h3c.276 0 .5.224.5.5v14c0 .276-.224.5-.5.5z"/><path d="m8.354 10.146-2-2c-.195-.195-.512-.195-.707 0s-.195.512 0 .707l1.146 1.146h-4.293c-.276 0-.5.224-.5.5s.224.5.5.5h4.293l-1.146 1.146c-.195.195-.195.512 0 .707.098.098.226.146.354.146s.256-.049.354-.146l2-2c.195-.195.195-.512 0-.707z"/><path d="m10.5 7c-.276 0-.5-.224-.5-.5v-1c0-.276.224-.5.5-.5s.5.224.5.5v1c0 .276-.224.5-.5.5z"/><path d="m10.5 10c-.276 0-.5-.224-.5-.5v-1c0-.276.224-.5.5-.5s.5.224.5.5v1c0 .276-.224.5-.5.5z"/><path d="m10.5 13c-.276 0-.5-.224-.5-.5v-1c0-.276.224-.5.5-.5s.5.224.5.5v1c0 .276-.224.5-.5.5z"/><path d="m10.5 16c-.276 0-.5-.224-.5-.5v-1c0-.276.224-.5.5-.5s.5.224.5.5v1c0 .276-.224.5-.5.5z"/></svg>