<svg height="20" viewBox="0 0 20 20" width="20" xmlns="http://www.w3.org/2000/svg"><path d="m5.5 10c-.281 0-.807-.136-1.171-1.047-.212-.53-.329-1.224-.329-1.953s.117-1.424.329-1.953c.364-.911.89-1.047 1.171-1.047s.807.136 1.171 1.047c.212.53.329 1.224.329 1.953s-.117 1.424-.329 1.953c-.364.911-.89 1.047-1.171 1.047zm0-4.988c-.164.129-.5.814-.5 1.988s.336 1.859.5 1.988c.164-.129.5-.814.5-1.988s-.336-1.859-.5-1.988z"/><path d="m14.5 1h-9c-1.963 0-3.5 2.636-3.5 6 0 .167.004.333.011.496l-.011 11.003c0 .173.089.334.237.426.08.05.172.075.263.075.076 0 .153-.018.224-.053l1.776-.888 1.776.888c.141.07.306.07.447 0l1.776-.888 1.776.888c.141.07.306.07.447 0l1.776-.888 1.776.888c.155.078.339.069.486-.022s.237-.252.237-.425v-5.558c1.718-.404 3-2.869 3-5.942 0-3.364-1.537-6-3.5-6zm-10.682 2.35c.468-.858 1.081-1.35 1.682-1.35s1.214.492 1.682 1.35c.527.967.818 2.263.818 3.65s-.29 2.683-.818 3.65c-.468.858-1.081 1.35-1.682 1.35s-1.214-.492-1.682-1.35c-.467-.856-.748-1.971-.806-3.179l.001-.964c.06-1.199.341-2.306.805-3.157zm8.906 13.703c-.141-.07-.306-.07-.447 0l-1.776.888-1.776-.888c-.141-.07-.306-.07-.447 0l-1.776.888-1.776-.888c-.141-.07-.306-.07-.447 0l-1.276.638.007-6.44c.63 1.086 1.508 1.75 2.493 1.75h8.5v4.691l-1.276-.638zm3.458-6.403c-.468.858-1.081 1.35-1.682 1.35h-7.04c.935-1.066 1.54-2.89 1.54-5s-.605-3.934-1.54-5h7.04c.601 0 1.214.492 1.682 1.35.527.967.818 2.263.818 3.65s-.29 2.683-.818 3.65z"/></svg>