<svg height="20" viewBox="0 0 20 20" width="20" xmlns="http://www.w3.org/2000/svg"><path d="m7 7v-1c0-.551-.449-1-1-1h-1c-.551 0-1 .449-1 1v3.5c0 .276.224.5.5.5s.5-.224.5-.5v-1.5h.191l.862 1.724c.088.175.264.277.448.277.075 0 .151-.017.223-.053.247-.123.347-.424.224-.671l-.659-1.319c.412-.124.712-.506.712-.958zm-2-1h1v1h-1z"/><path d="m8.5 10c-.276 0-.5-.224-.5-.5v-4c0-.276.224-.5.5-.5s.5.224.5.5v4c0 .276-.224.5-.5.5z"/><path d="m10.5 10c-.276 0-.5-.224-.5-.5v-3.5c0-.551.449-1 1-1h1c.551 0 1 .449 1 1v1c0 .551-.449 1-1 1h-1v1.5c0 .276-.224.5-.5.5zm.5-3h1v-1h-1z"/><path d="m17.51 2.49c-1.605-1.605-3.74-2.49-6.01-2.49h-3c-2.27 0-4.405.884-6.01 2.49s-2.49 3.74-2.49 6.01v10c0 .827.673 1.5 1.5 1.5h17c.827 0 1.5-.673 1.5-1.5v-10c0-2.27-.884-4.405-2.49-6.01zm-16.51 16.01v-10c0-4.136 3.364-7.5 7.5-7.5s7.5 3.364 7.5 7.5v10c0 .276-.224.5-.5.5h-14c-.276 0-.5-.224-.5-.5zm18 0c0 .276-.224.5-.5.5h-1.586c.056-.157.086-.325.086-.5v-10c0-2.27-.884-4.405-2.49-6.01-.554-.554-1.171-1.022-1.834-1.397 3.579.566 6.324 3.672 6.324 7.407z"/><path d="m14.923 14.233c-.111-.175-.318-.264-.521-.224-.187.037-.368.056-.536.056-.872 0-1.402-.503-1.962-1.036-.533-.506-1.084-1.03-1.903-1.03-.597 0-1.133.263-1.5.679-.367-.416-.903-.679-1.5-.679-.819 0-1.37.524-1.903 1.03-.561.533-1.09 1.036-1.962 1.036-.169 0-.349-.019-.536-.056-.203-.041-.411.048-.521.224s-.101.401.023.567c1.157 1.543 2.642 1.867 3.685 1.867.621 0 1.115-.117 1.355-.187.531-.154 1.018-.542 1.36-1.028.343.486.83.873 1.36 1.028.24.07.734.187 1.355.187 1.042 0 2.528-.324 3.685-1.867.124-.166.134-.391.023-.567zm-8.063 1.287c-.188.055-.579.147-1.076.147-.585 0-1.349-.131-2.069-.654.935-.179 1.556-.768 2.07-1.258.492-.468.815-.755 1.214-.755.551 0 1 .449 1 1 0 .611-.554 1.349-1.14 1.52zm4.355.147c-.497 0-.887-.092-1.076-.147-.586-.17-1.14-.909-1.14-1.52 0-.551.449-1 1-1 .4 0 .722.287 1.214.755.515.489 1.135 1.079 2.07 1.257-.721.523-1.485.654-2.069.654z"/></svg>