<svg height="20" viewBox="0 0 20 20" width="20" xmlns="http://www.w3.org/2000/svg"><path d="m7 8v-1c0-.551-.449-1-1-1h-1c-.551 0-1 .449-1 1v3.5c0 .276.224.5.5.5s.5-.224.5-.5v-1.5h.191l.862 1.724c.088.175.264.277.448.277.075 0 .151-.017.223-.053.247-.123.347-.424.224-.671l-.659-1.319c.412-.124.712-.506.712-.958zm-2-1h1v1h-1z"/><path d="m8.5 11c-.276 0-.5-.224-.5-.5v-4c0-.276.224-.5.5-.5s.5.224.5.5v4c0 .276-.224.5-.5.5z"/><path d="m10.5 11c-.276 0-.5-.224-.5-.5v-3.5c0-.551.449-1 1-1h1c.551 0 1 .449 1 1v1c0 .551-.449 1-1 1h-1v1.5c0 .276-.224.5-.5.5zm.5-3h1v-1h-1z"/><path d="m17.51 2.49c-1.605-1.605-3.74-2.49-6.01-2.49h-3c-2.27 0-4.405.884-6.01 2.49s-2.49 3.74-2.49 6.01v10c0 .827.673 1.5 1.5 1.5h17c.827 0 1.5-.673 1.5-1.5v-10c0-2.27-.884-4.405-2.49-6.01zm-16.51 16.01v-10c0-4.136 3.364-7.5 7.5-7.5s7.5 3.364 7.5 7.5v10c0 .276-.224.5-.5.5h-14c-.276 0-.5-.224-.5-.5zm18 0c0 .276-.224.5-.5.5h-1.586c.056-.157.086-.325.086-.5v-10c0-2.27-.884-4.405-2.49-6.01-.554-.554-1.171-1.022-1.834-1.397 3.579.566 6.324 3.672 6.324 7.407z"/></svg>