<svg height="20" viewBox="0 0 20 20" width="20" xmlns="http://www.w3.org/2000/svg"><path d="m9.5 20c-2.538 0-4.923-.988-6.718-2.782s-2.782-4.18-2.782-6.717c0-2.538.988-4.923 2.782-6.718s4.18-2.783 6.718-2.783 4.923.988 6.718 2.783 2.782 4.18 2.782 6.718-.988 4.923-2.782 6.717-4.18 2.782-6.718 2.782zm0-18c-4.687 0-8.5 3.813-8.5 8.5s3.813 8.5 8.5 8.5 8.5-3.813 8.5-8.5-3.813-8.5-8.5-8.5z"/><path d="m12.5 8c-.827 0-1.5-.673-1.5-1.5s.673-1.5 1.5-1.5 1.5.673 1.5 1.5-.673 1.5-1.5 1.5zm0-2c-.276 0-.5.224-.5.5s.224.5.5.5.5-.224.5-.5-.224-.5-.5-.5z"/><path d="m13.5 12h-8c-.276 0-.5.224-.5.5s.224.5.5.5h3.5v1c0 1.103.897 2 2 2s2-.897 2-2v-1h.5c.276 0 .5-.224.5-.5s-.224-.5-.5-.5zm-1.5 2c0 .551-.449 1-1 1s-1-.449-1-1v-1h2z"/><path d="m7.724 6.053c-.247-.123-.547-.023-.671.224-.004.007-.381.724-1.053.724-.671 0-1.05-.719-1.054-.726l.001.003c-.082-.164-.251-.277-.447-.277-.276 0-.5.224-.5.5 0 .08.019.156.053.223.001.002.003.006.006.011.001.002.002.004.003.006.083.157.71 1.26 1.938 1.26 1.294 0 1.921-1.224 1.947-1.276.123-.247.023-.547-.224-.671z"/></svg>