<svg height="20" viewBox="0 0 20 20" width="20" xmlns="http://www.w3.org/2000/svg"><path d="m1.5 14c-.276 0-.5-.224-.5-.5v-3c0-.276.224-.5.5-.5s.5.224.5.5v3c0 .276-.224.5-.5.5z"/><path d="m3.5 14c-.276 0-.5-.224-.5-.5v-3c0-.276.224-.5.5-.5s.5.224.5.5v3c0 .276-.224.5-.5.5z"/><path d="m5.5 14c-.276 0-.5-.224-.5-.5v-3c0-.276.224-.5.5-.5s.5.224.5.5v3c0 .276-.224.5-.5.5z"/><path d="m7.5 14c-.276 0-.5-.224-.5-.5v-3c0-.276.224-.5.5-.5s.5.224.5.5v3c0 .276-.224.5-.5.5z"/><path d="m19.5 18h-18c-.827 0-1.5-.673-1.5-1.5s.673-1.5 1.5-1.5h18c.276 0 .5.224.5.5s-.224.5-.5.5h-18c-.276 0-.5.224-.5.5s.224.5.5.5h18c.276 0 .5.224.5.5s-.224.5-.5.5z"/><path d="m9.5 14c-.276 0-.5-.224-.5-.5v-3c0-.276.224-.5.5-.5s.5.224.5.5v3c0 .276-.224.5-.5.5z"/><path d="m9 9h-6c-1.654 0-3-1.346-3-3s1.346-3 3-3h.5c.276 0 .5.224.5.5s-.224.5-.5.5-.5.224-.5.5.224.5.5.5h5.5c1.103 0 2 .897 2 2s-.897 2-2 2zm-6.98-4.743c-.608.343-1.02.996-1.02 1.743 0 1.103.897 2 2 2h6c.551 0 1-.449 1-1s-.449-1-1-1h-5.5c-.827 0-1.5-.673-1.5-1.5 0-.083.007-.164.02-.243z"/></svg>