<svg height="20" viewBox="0 0 20 20" width="20" xmlns="http://www.w3.org/2000/svg"><path d="m10 5c-2.571 0-4.993-.212-6.821-.597-.914-.192-1.639-.42-2.156-.677-.679-.338-1.024-.751-1.024-1.226s.344-.888 1.024-1.226c.516-.257 1.242-.485 2.156-.677 1.827-.385 4.249-.597 6.821-.597 1.223 0 2.414.048 3.542.142.275.023.48.265.457.54s-.265.48-.54.457c-1.1-.092-2.263-.138-3.458-.138-2.383 0-4.65.188-6.384.528-2.139.42-2.547.881-2.609.972.061.091.47.552 2.609.972 1.733.341 4.001.528 6.384.528s4.65-.188 6.384-.528c2.266-.445 2.59-.936 2.616-.984.007-.27.228-.488.5-.488.276 0 .5.224.5.5 0 .475-.344.888-1.024 1.226-.516.257-1.242.485-2.156.677-1.827.385-4.249.597-6.821.597z"/><path d="m9 17c-1.27 0-2.473-.223-3.385-.629-1.041-.463-1.615-1.127-1.615-1.871 0-.276.224-.5.5-.5s.5.224.5.5c0 .311.391.677 1.021.957.787.35 1.845.543 2.979.543s2.192-.193 2.979-.543c.63-.28 1.021-.647 1.021-.957 0-.276.224-.5.5-.5s.5.224.5.5c0 .744-.574 1.408-1.615 1.871-.912.406-2.115.629-3.385.629z"/><path d="m10 20c-2.243 0-4-1.098-4-2.5 0-.276.224-.5.5-.5s.5.224.5.5c0 .709 1.232 1.5 3 1.5s3-.791 3-1.5c0-.276.224-.5.5-.5s.5.224.5.5c0 1.402-1.757 2.5-4 2.5z"/><path d="m9 11c-2.046 0-3.975-.214-5.432-.603-1.704-.454-2.568-1.093-2.568-1.897 0-.276.224-.5.5-.5s.5.224.5.5c0 .094.31.527 1.826.931 1.376.367 3.213.569 5.174.569s3.799-.202 5.174-.569c1.516-.404 1.826-.837 1.826-.931 0-.276.224-.5.5-.5s.5.224.5.5c0 .805-.864 1.443-2.568 1.897-1.457.389-3.387.603-5.432.603z"/><path d="m8.5 14c-1.655 0-3.218-.217-4.401-.611-1.735-.578-2.099-1.346-2.099-1.889 0-.276.224-.5.5-.5s.5.224.5.5c0 .162.296.567 1.415.94 1.084.361 2.534.56 4.085.56s3.001-.199 4.085-.56c1.12-.373 1.415-.778 1.415-.94 0-.276.224-.5.5-.5s.5.224.5.5c0 .542-.364 1.31-2.099 1.889-1.183.394-2.746.611-4.401.611z"/><path d="m9.5 8c-2.439 0-4.738-.212-6.472-.598-2.037-.453-3.028-1.075-3.028-1.902 0-.276.224-.5.5-.5.274 0 .497.221.5.494.043.132.573.583 2.43.972 1.643.344 3.799.534 6.07.534s4.427-.19 6.07-.534c1.857-.389 2.387-.84 2.43-.972.003-.273.226-.494.5-.494.276 0 .5.224.5.5 0 .827-.99 1.45-3.028 1.902-1.734.385-4.033.598-6.472.598z"/></svg>