<svg height="20" viewBox="0 0 20 20" width="20" xmlns="http://www.w3.org/2000/svg"><path d="m10 7c-1.103 0-2-.897-2-2s.897-2 2-2 2 .897 2 2-.897 2-2 2zm0-3c-.551 0-1 .449-1 1s.449 1 1 1 1-.449 1-1-.449-1-1-1z"/><path d="m10 12c-1.103 0-2-.897-2-2s.897-2 2-2 2 .897 2 2-.897 2-2 2zm0-3c-.551 0-1 .449-1 1s.449 1 1 1 1-.449 1-1-.449-1-1-1z"/><path d="m10 17c-1.103 0-2-.897-2-2s.897-2 2-2 2 .897 2 2-.897 2-2 2zm0-3c-.551 0-1 .449-1 1s.449 1 1 1 1-.449 1-1-.449-1-1-1z"/><path d="m16.224 11.572c.81-.405 1.776-1.267 1.776-3.072 0-.276-.224-.5-.5-.5h-2.5v-1.046c.327-.051.775-.157 1.224-.382.81-.405 1.776-1.267 1.776-3.072 0-.276-.224-.5-.5-.5h-2.55c-.232-1.14-1.242-2-2.45-2h-5c-1.207 0-2.217.86-2.45 2h-2.55c-.276 0-.5.224-.5.5 0 1.805.966 2.667 1.776 3.072.449.224.897.331 1.224.382v1.046h-2.5c-.276 0-.5.224-.5.5 0 1.805.966 2.667 1.776 3.072.449.224.897.331 1.224.382v1.046h-2.5c-.276 0-.5.224-.5.5 0 1.805.966 2.667 1.776 3.072.469.235.937.34 1.267.388.217 1.159 1.236 2.039 2.457 2.039h5c1.221 0 2.24-.88 2.457-2.039.33-.048.798-.154 1.267-.388.81-.405 1.776-1.267 1.776-3.072 0-.276-.224-.5-.5-.5h-2.5v-1.046c.327-.051.775-.157 1.224-.382zm-12.028-5.908c-.658-.339-1.047-.897-1.161-1.664h1.965v1.939c-.233-.047-.521-.129-.804-.275zm0 5c-.658-.339-1.047-.897-1.161-1.664h1.965v1.939c-.233-.047-.521-.129-.804-.275zm-1.161 3.336h1.965v1.939c-.233-.047-.521-.129-.804-.275-.658-.339-1.047-.897-1.161-1.664zm10.965 2.5c0 .827-.673 1.5-1.5 1.5h-5c-.827 0-1.5-.673-1.5-1.5v-13c0-.827.673-1.5 1.5-1.5h5c.827 0 1.5.673 1.5 1.5zm2.965-7.5c-.114.767-.503 1.325-1.161 1.664-.283.146-.571.228-.804.275v-1.939zm-1.161-3.336c-.283.146-.571.228-.804.275v-1.939h1.965c-.114.767-.503 1.325-1.161 1.664zm1.161 8.336c-.114.767-.503 1.325-1.161 1.664-.283.146-.571.228-.804.275v-1.939z"/></svg>