<svg height="20" viewBox="0 0 20 20" width="20" xmlns="http://www.w3.org/2000/svg"><path d="m19.854 13.439-.717-5.02c-.114-.796-.832-1.419-1.636-1.419h-4c-.827 0-1.5.673-1.5 1.5v8.5h-6.269c-.346-.597-.992-1-1.731-1s-1.385.403-1.731 1h-1.769c-.276 0-.5.224-.5.5s.224.5.5.5h1.5c0 1.103.897 2 2 2s2-.897 2-2h6.086c.206.582.762 1 1.414 1h.769c.346.597.992 1 1.731 1s1.385-.403 1.731-1h.769c.827 0 1.5-.673 1.5-1.5v-2c0-.571-.066-1.495-.146-2.061zm-15.854 5.561c-.551 0-1-.449-1-1s.449-1 1-1 1 .449 1 1-.449 1-1 1zm14.638-7h-3.638v-2h3.352zm-2.638 7c-.551 0-1-.449-1-1s.449-1 1-1 1 .449 1 1-.449 1-1 1zm2.5-1h-.5c0-1.103-.897-2-2-2s-2 .897-2 2h-.5c-.276 0-.5-.224-.5-.5v-9c0-.276.224-.5.5-.5h4c.302 0 .604.262.646.561l.063.439h-3.709c-.276 0-.5.224-.5.5v3c0 .276.224.5.5.5h4.281l.083.581c.053.374.101.938.123 1.419h-.487c-.276 0-.5.224-.5.5s.224.5.5.5h.5v1.5c0 .276-.224.5-.5.5z"/></svg>