<svg height="20" viewBox="0 0 20 20" width="20" xmlns="http://www.w3.org/2000/svg"><path d="m14.5 15h-10c-1.378 0-2.5-1.122-2.5-2.5v-10c0-1.378 1.122-2.5 2.5-2.5h10c1.378 0 2.5 1.122 2.5 2.5v10c0 1.378-1.122 2.5-2.5 2.5zm-10-14c-.827 0-1.5.673-1.5 1.5v10c0 .827.673 1.5 1.5 1.5h10c.827 0 1.5-.673 1.5-1.5v-10c0-.827-.673-1.5-1.5-1.5z"/><path d="m18.947 19.276-2-4c-.123-.247-.424-.347-.671-.224s-.347.424-.224.671l.138.276h-13.382l.138-.276c.123-.247.023-.547-.224-.671s-.547-.023-.671.224l-2 4c-.123.247-.023.547.224.671.072.036.148.053.223.053.183 0 .36-.101.448-.277l.362-.724h16.382l.362.724c.088.175.264.277.448.277.075 0 .151-.017.223-.053.247-.123.347-.424.224-.671zm-17.138-1.276.5-1h14.382l.5 1z"/><path d="m5.5 13c-.827 0-1.5-.673-1.5-1.5s.673-1.5 1.5-1.5 1.5.673 1.5 1.5-.673 1.5-1.5 1.5zm0-2c-.276 0-.5.224-.5.5s.224.5.5.5.5-.224.5-.5-.224-.5-.5-.5z"/><path d="m13.5 13c-.827 0-1.5-.673-1.5-1.5s.673-1.5 1.5-1.5 1.5.673 1.5 1.5-.673 1.5-1.5 1.5zm0-2c-.276 0-.5.224-.5.5s.224.5.5.5.5-.224.5-.5-.224-.5-.5-.5z"/><path d="m12.5 3h-6c-.276 0-.5-.224-.5-.5s.224-.5.5-.5h6c.276 0 .5.224.5.5s-.224.5-.5.5z"/><path d="m14.5 4h-10c-.276 0-.5.224-.5.5v4c0 .276.224.5.5.5h10c.276 0 .5-.224.5-.5v-4c0-.276-.224-.5-.5-.5zm-9.5 1h4v3h-4zm9 3h-4v-3h4z"/></svg>