<svg height="20" viewBox="0 0 20 20" width="20" xmlns="http://www.w3.org/2000/svg"><path d="m15.5 7c-.276 0-.5.224-.5.5v2c0 .276-.224.5-.5.5h-2.5v-2.5c0-.276-.224-.5-.5-.5s-.5.224-.5.5v2.5h-1.05c-.199-.978-.972-1.75-1.95-1.95v-.55c0-.276-.224-.5-.5-.5s-.5.224-.5.5v.55c-.978.199-1.75.972-1.95 1.95h-1.05v-2.5c0-.276-.224-.5-.5-.5s-.5.224-.5.5v6c0 .276.224.5.5.5s.5-.224.5-.5v-2.5h1.05c.199.978.972 1.75 1.95 1.95v.55c0 .276.224.5.5.5s.5-.224.5-.5v-.55c.978-.199 1.75-.972 1.95-1.95h1.05v2.5c0 .276.224.5.5.5s.5-.224.5-.5v-2.5h2.5c.827 0 1.5-.673 1.5-1.5v-2c0-.276-.224-.5-.5-.5zm-8 5c-.827 0-1.5-.673-1.5-1.5s.673-1.5 1.5-1.5 1.5.673 1.5 1.5-.673 1.5-1.5 1.5z"/><path d="m4.5 20h-2c-.276 0-.5-.224-.5-.5v-2c0-.276.224-.5.5-.5h1.5v-1h-1.5c-.276 0-.5-.224-.5-.5s.224-.5.5-.5h2c.276 0 .5.224.5.5v2c0 .276-.224.5-.5.5h-1.5v1h1.5c.276 0 .5.224.5.5s-.224.5-.5.5z"/><path d="m8.5 1h-2c-.276 0-.5.224-.5.5s.224.5.5.5h1.5v1h-1.5c-.276 0-.5.224-.5.5s.224.5.5.5h1.5v1h-1.641c-.276 0-.5.224-.5.5s.224.5.5.5h2.141c.276 0 .5-.224.5-.5v-4c0-.276-.224-.5-.5-.5z"/><path d="m8.5 15c-.276 0-.5.224-.5.5v1.5h-1v-1.5c0-.276-.224-.5-.5-.5s-.5.224-.5.5v2c0 .276.224.5.5.5h1.5v1.5c0 .276.224.5.5.5s.5-.224.5-.5v-4c0-.276-.224-.5-.5-.5z"/><path d="m12.5 6h-2c-.276 0-.5-.224-.5-.5s.224-.5.5-.5h1.5v-1h-1.5c-.276 0-.5-.224-.5-.5v-2c0-.276.224-.5.5-.5h2c.276 0 .5.224.5.5s-.224.5-.5.5h-1.5v1h1.5c.276 0 .5.224.5.5v2c0 .276-.224.5-.5.5z"/><path d="m12.5 20h-2c-.276 0-.5-.224-.5-.5v-4c0-.276.224-.5.5-.5h2c.276 0 .5.224.5.5s-.224.5-.5.5h-1.5v1h1.5c.276 0 .5.224.5.5v2c0 .276-.224.5-.5.5zm-1.5-1h1v-1h-1z"/><path d="m16.5 6c-.128 0-.256-.049-.353-.146l-1.147-1.146v.793c0 .276-.224.5-.5.5s-.5-.224-.5-.5v-1.996c0-.002 0-.005 0-.007v-1.996c0-.276.224-.5.5-.5h2c.276 0 .5.224.5.5v2c0 .276-.224.5-.5.5h-.793l1.146 1.146c.195.195.195.512 0 .707-.098.098-.226.146-.354.146zm-1.5-3h1v-1h-1z"/><path d="m4.5 5h-.5v-3.5c0-.276-.224-.5-.5-.5h-1c-.276 0-.5.224-.5.5s.224.5.5.5h.5v3h-.5c-.276 0-.5.224-.5.5s.224.5.5.5h2c.276 0 .5-.224.5-.5s-.224-.5-.5-.5z"/></svg>