<svg height="20" viewBox="0 0 20 20" width="20" xmlns="http://www.w3.org/2000/svg"><path d="m18.5 4c.276 0 .5-.224.5-.5v-2c0-.276-.224-.5-.5-.5h-2c-.276 0-.5.224-.5.5v.5h-5v-.5c0-.276-.224-.5-.5-.5h-2c-.276 0-.5.224-.5.5v.5h-5v-.5c0-.276-.224-.5-.5-.5h-2c-.276 0-.5.224-.5.5v2c0 .276.224.5.5.5h.5v5h-.5c-.276 0-.5.224-.5.5v2c0 .276.224.5.5.5h.5v5h-.5c-.276 0-.5.224-.5.5v2c0 .276.224.5.5.5h2c.276 0 .5-.224.5-.5v-.5h5v.5c0 .276.224.5.5.5h2c.276 0 .5-.224.5-.5v-.5h5v.5c0 .276.224.5.5.5h2c.276 0 .5-.224.5-.5v-2c0-.276-.224-.5-.5-.5h-.5v-5h.5c.276 0 .5-.224.5-.5v-2c0-.276-.224-.5-.5-.5h-.5v-5zm-1.5-2h1v1h-1zm-8 0h1v1h-1zm-8 0h1v1h-1zm0 8h1v1h-1zm1 9h-1v-1h1zm8 0h-1v-1h1zm8 0h-1v-1h1zm0-8h-1v-1h1zm-1-2h-.5c-.276 0-.5.224-.5.5v2c0 .276.224.5.5.5h.5v5h-.5c-.276 0-.5.224-.5.5v.5h-5v-.5c0-.276-.224-.5-.5-.5h-2c-.276 0-.5.224-.5.5v.5h-5v-.5c0-.276-.224-.5-.5-.5h-.5v-5h.5c.276 0 .5-.224.5-.5v-2c0-.276-.224-.5-.5-.5h-.5v-5h.5c.276 0 .5-.224.5-.5v-.5h5v.5c0 .276.224.5.5.5h2c.276 0 .5-.224.5-.5v-.5h5v.5c0 .276.224.5.5.5h.5z"/><path d="m11.5 10h-1.5v-1.5c0-.276-.224-.5-.5-.5s-.5.224-.5.5v1.5h-1.5c-.276 0-.5.224-.5.5s.224.5.5.5h1.5v1.5c0 .276.224.5.5.5s.5-.224.5-.5v-1.5h1.5c.276 0 .5-.224.5-.5s-.224-.5-.5-.5z"/></svg>