<svg height="20" viewBox="0 0 20 20" width="20" xmlns="http://www.w3.org/2000/svg"><path d="m15.5 2h-3.5v-.5c0-.827-.673-1.5-1.5-1.5h-2c-.827 0-1.5.673-1.5 1.5v.5h-3.5c-.827 0-1.5.673-1.5 1.5v1c0 .652.418 1.208 1 1.414v12.586c0 .827.673 1.5 1.5 1.5h10c.827 0 1.5-.673 1.5-1.5v-12.586c.582-.206 1-.762 1-1.414v-1c0-.827-.673-1.5-1.5-1.5zm-7.5-.5c0-.276.224-.5.5-.5h2c.276 0 .5.224.5.5v.5h-3zm6.5 17.5h-10c-.276 0-.5-.224-.5-.5v-12.5h11v12.5c0 .276-.224.5-.5.5zm1.5-14.5c0 .276-.224.5-.5.5h-12c-.276 0-.5-.224-.5-.5v-1c0-.276.224-.5.5-.5h12c.276 0 .5.224.5.5z"/><path d="m12.5 7c-.276 0-.5.224-.5.5v10c0 .276.224.5.5.5s.5-.224.5-.5v-10c0-.276-.224-.5-.5-.5z"/><path d="m9.5 7c-.276 0-.5.224-.5.5v10c0 .276.224.5.5.5s.5-.224.5-.5v-10c0-.276-.224-.5-.5-.5z"/><path d="m6.5 7c-.276 0-.5.224-.5.5v10c0 .276.224.5.5.5s.5-.224.5-.5v-10c0-.276-.224-.5-.5-.5z"/></svg>