<svg height="20" viewBox="0 0 20 20" width="20" xmlns="http://www.w3.org/2000/svg"><path d="m18.5 2h-5.75l-1.35-1.8c-.094-.126-.243-.2-.4-.2h-2c-.157 0-.306.074-.4.2l-1.35 1.8h-5.75c-.276 0-.5.224-.5.5s.224.5.5.5h17c.276 0 .5-.224.5-.5s-.224-.5-.5-.5zm-9.25-1h1.5l.75 1h-3z"/><path d="m17.582 4.007c-.272-.045-.53.139-.575.411l-2.336 14.014c-.051.303-.364.569-.671.569h-8c-.307 0-.621-.266-.671-.569l-2.336-14.014c-.045-.272-.303-.456-.575-.411s-.456.303-.411.575l2.336 14.014c.131.787.859 1.404 1.658 1.404h8c.798 0 1.526-.617 1.658-1.404l2.336-14.014c.045-.272-.139-.53-.411-.575z"/></svg>