<svg height="20" viewBox="0 0 20 20" width="20" xmlns="http://www.w3.org/2000/svg"><path d="m11.5 3c-.276 0-.5-.224-.5-.5v-1c0-.276-.224-.5-.5-.5h-2c-.276 0-.5.224-.5.5v1c0 .276-.224.5-.5.5s-.5-.224-.5-.5v-1c0-.827.673-1.5 1.5-1.5h2c.827 0 1.5.673 1.5 1.5v1c0 .276-.224.5-.5.5z"/><path d="m17.51 2.69c-.282-.327-.689-.608-1.212-.833-.88-.38-2.11-.627-3.759-.754-.275-.021-.516.185-.537.46s.185.516.46.537c1.516.117 2.673.344 3.44.675.168.072.31.147.431.221-1.167.536-3.647 1.005-6.832 1.005-3.213 0-5.686-.47-6.844-1.009.123-.077.269-.152.442-.227.765-.328 1.922-.553 3.44-.667.275-.021.482-.261.461-.536s-.261-.482-.536-.461c-1.651.125-2.88.369-3.759.746-.523.224-.931.504-1.213.83-.325.377-.491.818-.491 1.31v2.515c0 .489.336.916 1 1.277v9.723c0 .307.134.763.77 1.193.396.268.949.504 1.643.702 1.366.39 3.172.605 5.087.605s3.722-.215 5.087-.605c.694-.198 1.246-.434 1.643-.702.637-.43.77-.886.77-1.193v-9.723c.664-.361 1-.788 1-1.277v-2.5c0-.492-.165-.933-.49-1.31zm-1.51 14.81c0 .117-.31.54-1.688.933-1.279.365-2.988.567-4.812.567s-3.534-.201-4.812-.567c-1.378-.394-1.688-.816-1.688-.933v-9.307c.222.072.463.141.722.206 1.55.387 3.602.601 5.778.601s4.229-.213 5.778-.601c.259-.065.499-.134.722-.206zm1-11c0 .026-.065.16-.383.348-.356.211-.903.412-1.581.581-1.472.368-3.438.571-5.536.571s-4.063-.203-5.536-.571c-.678-.17-1.225-.37-1.581-.581-.318-.188-.383-.322-.383-.348v-2.515c0-.061.004-.127.017-.197.733.39 1.747.643 2.549.796 1.431.272 3.138.416 4.934.416 3.261 0 6.08-.466 7.48-1.21.015.075.02.146.02.21z"/><path d="m14.5 17.4c-.276 0-.5-.224-.5-.5v-7c0-.276.224-.5.5-.5s.5.224.5.5v7c0 .276-.224.5-.5.5z"/><path d="m12.5 17.807c-.276 0-.5-.224-.5-.5v-7c0-.276.224-.5.5-.5s.5.224.5.5v7c0 .276-.224.5-.5.5z"/><path d="m10.5 18c-.276 0-.5-.224-.5-.5v-7c0-.276.224-.5.5-.5s.5.224.5.5v7c0 .276-.224.5-.5.5z"/><path d="m8.5 18c-.276 0-.5-.224-.5-.5v-7c0-.276.224-.5.5-.5s.5.224.5.5v7c0 .276-.224.5-.5.5z"/><path d="m6.5 17.807c-.276 0-.5-.224-.5-.5l.001-7c0-.276.224-.5.5-.5.276 0 .5.224.5.5l-.001 7c0 .276-.224.5-.5.5z"/><path d="m4.5 17.4c-.276 0-.5-.224-.5-.5v-7c0-.276.224-.5.5-.5.276 0 .5.224.5.5v7c0 .276-.224.5-.5.5z"/></svg>