<svg height="20" viewBox="0 0 20 20" width="20" xmlns="http://www.w3.org/2000/svg"><path d="m16.975 6.407c-.141-1.689-.884-3.256-2.113-4.443-1.312-1.267-3.038-1.964-4.862-1.964-1.87 0-3.628.728-4.95 2.05-1.181 1.181-1.887 2.71-2.025 4.355-1.823.784-3.025 2.589-3.025 4.595 0 2.757 2.243 5 5 5 .864 0 1.716-.224 2.464-.648.1-.057.197-.117.292-.18.635 1.562.142 2.387-.297 3.122-.236.396-.46.769-.46 1.206 0 .276.224.5.5.5h5c.276 0 .5-.224.5-.5 0-.437-.223-.81-.46-1.206-.439-.735-.931-1.559-.298-3.12.803.532 1.756.826 2.757.826 2.757 0 5-2.243 5-5 0-2.056-1.247-3.826-3.025-4.593zm-8.771 12.593c.036-.063.075-.127.114-.193.502-.839 1.251-2.094.241-4.296.177-.179.34-.371.488-.575.315.043.634.064.953.064s.637-.022.952-.064c.149.206.313.399.488.577-1.008 2.201-.259 3.455.242 4.294.039.066.078.13.114.193zm6.796-4c-1.384 0-2.651-.701-3.389-1.874-.001-.001-.002-.002-.002-.003-.006-.009-.012-.018-.018-.026-.004-.005-.007-.011-.011-.016-.005-.006-.01-.012-.015-.018-.006-.007-.012-.014-.018-.021-.002-.002-.005-.004-.007-.007-.068-.067-.152-.112-.242-.132-.003-.001-.005-.001-.008-.001-.013-.003-.027-.005-.04-.007-.003 0-.006 0-.008-.001-.014-.001-.027-.003-.041-.003-.002 0-.004 0-.006 0-.015 0-.029 0-.044.001-.001 0-.003 0-.004.001-.015.001-.031.003-.046.006-.001 0-.001 0-.001 0-.678.125-1.391.132-2.073.021-.224-.1-.493-.022-.627.192-.001.001-.001.002-.002.003s-.001.001-.001.002c-.737 1.179-2.005 1.882-3.394 1.882-2.206 0-4-1.794-4-4 0-1.452.789-2.774 2.02-3.476.027.368.083.734.167 1.091.054.23.26.385.486.385.038 0 .077-.004.115-.013.269-.063.435-.333.372-.602-.107-.451-.161-.917-.161-1.385 0-3.308 2.692-6 6-6 3.009 0 5.494 2.185 5.931 5.087-.302-.057-.613-.087-.931-.087-.185 0-.372.01-.555.031-.274.03-.472.277-.442.552s.278.472.552.442c.147-.016.297-.024.445-.024 2.206 0 4 1.794 4 4s-1.794 4-4 4z"/></svg>