<svg height="20" viewBox="0 0 20 20" width="20" xmlns="http://www.w3.org/2000/svg"><path d="m19.794 13.421-.004-.021c0-.001 0-.002-.001-.003l-.399-1.997c0-.001 0-.002-.001-.003l-.203-1.015c-.155-.775-.896-1.383-1.686-1.383h-4c-.175 0-.343.031-.5.086v-.586c0-.827-.673-1.5-1.5-1.5h-10c-.827 0-1.5.673-1.5 1.5v8c0 .827.673 1.5 1.5 1.5h1.5c0 1.103.897 2 2 2s2-.897 2-2h5.086c.206.582.762 1 1.414 1h.769c.346.597.992 1 1.731 1s1.385-.403 1.731-1h.769c.827 0 1.5-.673 1.5-1.5v-2c0-.579-.092-1.511-.206-2.079zm-1.104-.421h-2.69v-1h2.49zm-13.69 6c-.551 0-1-.449-1-1s.449-1 1-1 1 .449 1 1-.449 1-1 1zm1.731-2c-.346-.597-.992-1-1.731-1s-1.385.403-1.731 1h-1.769c-.276 0-.5-.224-.5-.5v-8c0-.276.224-.5.5-.5h10c.276 0 .5.224.5.5v8.5zm9.269 2c-.551 0-1-.449-1-1s.449-1 1-1 1 .449 1 1-.449 1-1 1zm2.5-1h-.5c0-1.103-.897-2-2-2s-2 .897-2 2h-.5c-.276 0-.5-.224-.5-.5v-7c0-.276.224-.5.5-.5h4c.314 0 .644.27.706.579l.084.421h-2.79c-.276 0-.5.224-.5.5v2c0 .276.224.5.5.5h3.378c.045.313.082.675.103 1h-.481c-.276 0-.5.224-.5.5s.224.5.5.5h.5v1.5c0 .276-.224.5-.5.5z"/></svg>