<svg height="20" viewBox="0 0 20 20" width="20" xmlns="http://www.w3.org/2000/svg"><path d="m19.615 4.014c-.226-.054-.458.055-.562.262-.019.037-1.901 3.724-4.553 3.724h-4.5v-1h.5c.276 0 .5-.224.5-.5s-.224-.5-.5-.5h-2c-.276 0-.5.224-.5.5s.224.5.5.5h.5v1h-3v-1h.5c.276 0 .5-.224.5-.5s-.224-.5-.5-.5h-2c-.276 0-.5.224-.5.5s.224.5.5.5h.5v1h-3.485c-.128-.049-.406-.402-.568-.724-.104-.207-.336-.316-.562-.263s-.385.255-.385.487v4c0 .232.159.433.385.486s.458-.055.562-.262c.162-.322.44-.675.568-.724h.521c-.024.165-.036.332-.036.5 0 1.36.791 2.588 2 3.162v.838c0 .276.224.5.5.5h2c.276 0 .5-.224.5-.5v-.5h1v.5c0 .276.224.5.5.5h2c.276 0 .5-.224.5-.5v-.5h.5c1.93 0 3.5-1.57 3.5-3.5 0-.156-.01-.31-.03-.461 2.402.392 4.066 3.65 4.083 3.685.086.172.261.276.447.276.038 0 .077-.004.115-.013.226-.053.385-.255.385-.487v-10c0-.232-.159-.433-.385-.486zm-16.615 7.486c0-.169.017-.336.05-.5h.95v2.5c-.617-.464-1-1.201-1-2zm2 3.5v-4h1v4zm3-3h-1v-1h1zm-1 2v-1h1v1zm4.5 0h-1c-.276 0-.5.224-.5.5v.5h-1v-4h1v1.5c0 .276.224.5.5.5h1c.827 0 1.5-.673 1.5-1.5s-.673-1.5-1.5-1.5h-10c-.179 0-.347.056-.5.144v-1.289c.153.089.321.144.5.144h10c1.378 0 2.5 1.122 2.5 2.5s-1.122 2.5-2.5 2.5zm-.5-2v-1h.5c.276 0 .5.224.5.5s-.224.5-.5.5zm8 .782c-.902-1.201-2.406-2.698-4.337-2.779-.179-.376-.422-.716-.717-1.004h.553c2.01 0 3.573-1.548 4.5-2.782v6.565z"/></svg>