<svg height="20" viewBox="0 0 20 20" width="20" xmlns="http://www.w3.org/2000/svg"><path d="m18.5 5h-7.185l3.517-3.126c.206-.183.225-.499.042-.706s-.499-.225-.706-.042l-4.174 3.71-3.169-2.716c-.21-.18-.525-.155-.705.054s-.155.525.054.705l2.474 2.12h-7.148c-.827 0-1.5.673-1.5 1.5v12c0 .827.673 1.5 1.5 1.5h17c.827 0 1.5-.673 1.5-1.5v-12c0-.827-.673-1.5-1.5-1.5zm.5 13.5c0 .276-.224.5-.5.5h-17c-.276 0-.5-.224-.5-.5v-12c0-.276.224-.5.5-.5h17c.276 0 .5.224.5.5z"/><path d="m12.5 18h-9c-.827 0-1.5-.673-1.5-1.5v-8c0-.827.673-1.5 1.5-1.5h9c.827 0 1.5.673 1.5 1.5v8c0 .827-.673 1.5-1.5 1.5zm-9-10c-.276 0-.5.224-.5.5v8c0 .276.224.5.5.5h9c.276 0 .5-.224.5-.5v-8c0-.276-.224-.5-.5-.5z"/><path d="m16.5 11c-.827 0-1.5-.673-1.5-1.5s.673-1.5 1.5-1.5 1.5.673 1.5 1.5-.673 1.5-1.5 1.5zm0-2c-.276 0-.5.224-.5.5s.224.5.5.5.5-.224.5-.5-.224-.5-.5-.5z"/><path d="m16.5 15c-.827 0-1.5-.673-1.5-1.5s.673-1.5 1.5-1.5 1.5.673 1.5 1.5-.673 1.5-1.5 1.5zm0-2c-.276 0-.5.224-.5.5s.224.5.5.5.5-.224.5-.5-.224-.5-.5-.5z"/></svg>