<svg height="20" viewBox="0 0 20 20" width="20" xmlns="http://www.w3.org/2000/svg"><path d="m17.5 7h-.5v-.5c0-.827-.673-1.5-1.5-1.5h-.5v-3.5c0-.827-.673-1.5-1.5-1.5h-10c-.827 0-1.5.673-1.5 1.5v3.5h-.5c-.827 0-1.5.673-1.5 1.5v12c0 .827.673 1.5 1.5 1.5h14c.827 0 1.5-.673 1.5-1.5v-7.5h.5c.827 0 1.5-.673 1.5-1.5v-1c0-.827-.673-1.5-1.5-1.5zm-6 3c.276 0 .5.224.5.5s-.224.5-.5.5h-6c-.276 0-.5-.224-.5-.5s.224-.5.5-.5.5-.224.5-.5-.224-.5-.5-.5h-2c-.276 0-.5-.224-.5-.5v-.5h11v.5c0 .276-.224.5-.5.5h-2c-.276 0-.5.224-.5.5s.224.5.5.5zm-8-9h10c.276 0 .5.224.5.5v5.5h-11v-5.5c0-.276.224-.5.5-.5zm12.5 17.5c0 .276-.224.5-.5.5h-14c-.276 0-.5-.224-.5-.5v-12c0-.276.224-.5.5-.5h.5v2.5c0 .827.673 1.5 1.5 1.5h.586c-.055.156-.086.325-.086.5 0 .827.673 1.5 1.5 1.5h6c.827 0 1.5-.673 1.5-1.5 0-.175-.03-.344-.086-.5h.586c.827 0 1.5-.673 1.5-1.5v-2.5h.5c.276 0 .5.224.5.5zm2-9c0 .276-.224.5-.5.5h-.5v-2h.5c.276 0 .5.224.5.5z"/><path d="m3 13.5c0 .276-.224.5-.5.5s-.5-.224-.5-.5.224-.5.5-.5.5.224.5.5z"/><path d="m5 13.5c0 .276-.224.5-.5.5s-.5-.224-.5-.5.224-.5.5-.5.5.224.5.5z"/><path d="m7 13.5c0 .276-.224.5-.5.5s-.5-.224-.5-.5.224-.5.5-.5.5.224.5.5z"/><path d="m11 13.5c0 .276-.224.5-.5.5s-.5-.224-.5-.5.224-.5.5-.5.5.224.5.5z"/><path d="m13 13.5c0 .276-.224.5-.5.5s-.5-.224-.5-.5.224-.5.5-.5.5.224.5.5z"/><path d="m15 13.5c0 .276-.224.5-.5.5s-.5-.224-.5-.5.224-.5.5-.5.5.224.5.5z"/><path d="m4 15.5c0 .276-.224.5-.5.5s-.5-.224-.5-.5.224-.5.5-.5.5.224.5.5z"/><path d="m6 15.5c0 .276-.224.5-.5.5s-.5-.224-.5-.5.224-.5.5-.5.5.224.5.5z"/><path d="m10 15.5c0 .276-.224.5-.5.5s-.5-.224-.5-.5.224-.5.5-.5.5.224.5.5z"/><path d="m12 15.5c0 .276-.224.5-.5.5s-.5-.224-.5-.5.224-.5.5-.5.5.224.5.5z"/><path d="m14 15.5c0 .276-.224.5-.5.5s-.5-.224-.5-.5.224-.5.5-.5.5.224.5.5z"/><path d="m12.5 18h-8c-.276 0-.5-.224-.5-.5s.224-.5.5-.5h8c.276 0 .5.224.5.5s-.224.5-.5.5z"/><path d="m9 13.5c0 .276-.224.5-.5.5s-.5-.224-.5-.5.224-.5.5-.5.5.224.5.5z"/><path d="m8 15.5c0 .276-.224.5-.5.5s-.5-.224-.5-.5.224-.5.5-.5.5.224.5.5z"/><path d="m7.5 3h-3c-.276 0-.5-.224-.5-.5s.224-.5.5-.5h3c.276 0 .5.224.5.5s-.224.5-.5.5z"/><path d="m12.5 5h-8c-.276 0-.5-.224-.5-.5s.224-.5.5-.5h8c.276 0 .5.224.5.5s-.224.5-.5.5z"/></svg>