<svg height="20" viewBox="0 0 20 20" width="20" xmlns="http://www.w3.org/2000/svg"><path d="m15.51 3.49c-1.605-1.605-3.74-2.49-6.01-2.49s-4.405.884-6.01 2.49-2.49 3.74-2.49 6.01c0 .276.224.5.5.5s.5-.224.5-.5c0-.827.673-1.5 1.5-1.5s1.5.673 1.5 1.5c0 .276.224.5.5.5s.5-.224.5-.5c0-.827.673-1.5 1.5-1.5s1.5.673 1.5 1.5v8c0 .276-.224.5-.5.5s-.5-.224-.5-.5-.224-.5-.5-.5-.5.224-.5.5c0 .827.673 1.5 1.5 1.5s1.5-.673 1.5-1.5v-8c0-.827.673-1.5 1.5-1.5s1.5.673 1.5 1.5c0 .276.224.5.5.5s.5-.224.5-.5c0-.827.673-1.5 1.5-1.5s1.5.673 1.5 1.5c0 .276.224.5.5.5s.5-.224.5-.5c0-2.27-.884-4.405-2.49-6.01zm-.01 3.51c-.817 0-1.544.394-2 1.002-.456-.608-1.183-1.002-2-1.002s-1.544.394-2 1.002c-.456-.608-1.183-1.002-2-1.002s-1.544.394-2 1.002c-.456-.608-1.183-1.002-2-1.002-.422 0-.819.105-1.168.29.945-3.06 3.801-5.29 7.168-5.29s6.222 2.23 7.168 5.29c-.349-.185-.746-.29-1.168-.29z"/></svg>