<svg height="20" viewBox="0 0 20 20" width="20" xmlns="http://www.w3.org/2000/svg"><path d="m5.5 6c-.128 0-.256-.049-.354-.146l-2-2c-.195-.195-.195-.512 0-.707s.512-.195.707 0l2 2c.195.195.195.512 0 .707-.098.098-.226.146-.354.146z"/><path d="m4.5 8h-3c-.276 0-.5-.224-.5-.5s.224-.5.5-.5h3c.276 0 .5.224.5.5s-.224.5-.5.5z"/><path d="m7.5 5c-.276 0-.5-.224-.5-.5v-3c0-.276.224-.5.5-.5s.5.224.5.5v3c0 .276-.224.5-.5.5z"/><path d="m16.5 17c-.128 0-.256-.049-.354-.146l-2-2c-.195-.195-.195-.512 0-.707s.512-.195.707 0l2 2c.195.195.195.512 0 .707-.098.098-.226.146-.354.146z"/><path d="m18.5 13h-3c-.276 0-.5-.224-.5-.5s.224-.5.5-.5h3c.276 0 .5.224.5.5s-.224.5-.5.5z"/><path d="m12.5 19c-.276 0-.5-.224-.5-.5v-3c0-.276.224-.5.5-.5s.5.224.5.5v3c0 .276-.224.5-.5.5z"/><path d="m14 11c-.185 0-.372-.01-.555-.031-.274-.03-.472-.277-.442-.552s.278-.473.552-.442c.147.016.296.024.445.024 2.206 0 4-1.794 4-4s-1.794-4-4-4-4 1.794-4 4c0 .149.008.298.024.445.03.274-.168.522-.442.552s-.522-.168-.552-.442c-.02-.183-.03-.37-.03-.555 0-2.757 2.243-5 5-5s5 2.243 5 5-2.243 5-5 5z"/><path d="m6 19c-2.757 0-5-2.243-5-5s2.243-5 5-5c.185 0 .372.01.555.031.274.03.472.277.442.552s-.277.472-.552.442c-.147-.016-.296-.024-.445-.024-2.206 0-4 1.794-4 4s1.794 4 4 4 4-1.794 4-4c0-.148-.008-.298-.024-.445-.03-.274.168-.522.442-.552s.522.168.552.442c.02.183.031.37.031.555 0 2.757-2.243 5-5 5z"/></svg>