<svg height="20" viewBox="0 0 20 20" width="20" xmlns="http://www.w3.org/2000/svg"><path d="m13.5 11.5c-.128 0-.256-.049-.354-.146-.195-.195-.195-.512 0-.707l3.068-3.068c.507-.507.786-1.18.786-1.896s-.279-1.39-.786-1.896c-1.046-1.046-2.747-1.046-3.793 0l-3.068 3.068c-.195.195-.512.195-.707 0s-.195-.512 0-.707l3.068-3.068c1.436-1.436 3.772-1.436 5.207 0 .695.695 1.078 1.62 1.078 2.604s-.383 1.908-1.078 2.604l-3.068 3.068c-.098.098-.226.147-.354.147z"/><path d="m4.682 19c-.983 0-1.908-.383-2.604-1.078-1.436-1.436-1.436-3.772 0-5.207l3.068-3.068c.195-.195.512-.195.707 0s.195.512 0 .707l-3.068 3.068c-1.046 1.046-1.046 2.747 0 3.793.507.507 1.18.786 1.896.786s1.39-.279 1.896-.786l3.068-3.068c.195-.195.512-.195.707 0s.195.512 0 .707l-3.068 3.068c-.695.695-1.62 1.078-2.604 1.078z"/><path d="m5.5 7c-.128 0-.256-.049-.354-.146l-2-2c-.195-.195-.195-.512 0-.707s.512-.195.707 0l2 2c.195.195.195.512 0 .707-.098.098-.226.146-.354.146z"/><path d="m7.5 6c-.276 0-.5-.224-.5-.5v-3c0-.276.224-.5.5-.5s.5.224.5.5v3c0 .276-.224.5-.5.5z"/><path d="m4.5 9h-3c-.276 0-.5-.224-.5-.5s.224-.5.5-.5h3c.276 0 .5.224.5.5s-.224.5-.5.5z"/><path d="m15.5 17c-.128 0-.256-.049-.354-.146l-2-2c-.195-.195-.195-.512 0-.707s.512-.195.707 0l2 2c.195.195.195.512 0 .707-.098.098-.226.146-.354.146z"/><path d="m17.5 13h-3c-.276 0-.5-.224-.5-.5s.224-.5.5-.5h3c.276 0 .5.224.5.5s-.224.5-.5.5z"/><path d="m11.5 19c-.276 0-.5-.224-.5-.5v-3c0-.276.224-.5.5-.5s.5.224.5.5v3c0 .276-.224.5-.5.5z"/></svg>