<svg height="20" viewBox="0 0 20 20" width="20" xmlns="http://www.w3.org/2000/svg"><path d="m17.5 19h-16c-.827 0-1.5-.673-1.5-1.5v-2c0-.276.224-.5.5-.5s.5.224.5.5v2c0 .276.224.5.5.5h16c.276 0 .5-.224.5-.5v-2c0-.276.224-.5.5-.5s.5.224.5.5v2c0 .827-.673 1.5-1.5 1.5z"/><path d="m14.854 8.646-5-5c-.195-.195-.512-.195-.707 0l-5 5c-.195.195-.195.512 0 .707s.512.195.707 0l4.146-4.146v10.293c0 .276.224.5.5.5s.5-.224.5-.5v-10.293l4.146 4.146c.098.098.226.146.354.146s.256-.049.354-.146c.195-.195.195-.512 0-.707z"/></svg>