<svg height="20" viewBox="0 0 20 20" width="20" xmlns="http://www.w3.org/2000/svg"><path d="m13.854 4.646-4-4c-.195-.195-.512-.195-.707 0l-4 4c-.195.195-.195.512 0 .707s.512.195.707 0l3.146-3.146v10.293c0 .276.224.5.5.5s.5-.224.5-.5v-10.293l3.146 3.146c.098.098.226.146.354.146s.256-.049.354-.146c.195-.195.195-.512 0-.707z"/><path d="m9.5 20c-2.488 0-4.834-.542-6.607-1.527-1.866-1.037-2.893-2.447-2.893-3.973 0-2.641 3.128-4.953 7.437-5.496.272-.034.521.157.558.428s-.151.522-.422.563c-1.321.197-2.519.634-3.371 1.232-.776.544-1.203 1.174-1.203 1.774 0 .725.647 1.464 1.774 2.028 1.254.627 2.932.972 4.726.972s3.472-.345 4.726-.972c1.127-.564 1.774-1.303 1.774-2.028 0-.6-.427-1.23-1.203-1.774-.852-.598-2.049-1.035-3.371-1.232-.271-.04-.459-.291-.422-.563s.286-.462.558-.428c4.31.543 7.437 2.855 7.437 5.496 0 1.525-1.027 2.936-2.893 3.973-1.773.985-4.119 1.527-6.607 1.527zm-7.374-7.757c-.716.681-1.126 1.457-1.126 2.257 0 1.146.845 2.246 2.379 3.098 1.627.904 3.801 1.402 6.121 1.402s4.494-.498 6.121-1.402c1.534-.852 2.379-1.953 2.379-3.098 0-.8-.411-1.576-1.126-2.257.083.249.126.502.126.757 0 1.134-.826 2.172-2.327 2.922-1.39.695-3.227 1.078-5.173 1.078s-3.783-.383-5.173-1.078c-1.5-.75-2.327-1.788-2.327-2.922 0-.254.043-.508.126-.757z"/></svg>