<svg height="20" viewBox="0 0 20 20" width="20" xmlns="http://www.w3.org/2000/svg"><path d="m14 6.501v-5.501c0-.551-.449-1-1-1h-6c-.551 0-1 .449-1 1v5.501c-.607.457-1 1.182-1 1.999v9c0 1.378 1.122 2.5 2.5 2.5h5c1.378 0 2.5-1.122 2.5-2.5v-9c0-.816-.393-1.542-1-1.999zm-7-5.501h6v5.05c-.162-.033-.329-.05-.5-.05h-5c-.171 0-.338.017-.5.05zm7 16.5c0 .827-.673 1.5-1.5 1.5h-5c-.827 0-1.5-.673-1.5-1.5v-9c0-.827.673-1.5 1.5-1.5h5c.827 0 1.5.673 1.5 1.5z"/><path d="m11.5 5c-.276 0-.5-.224-.5-.5v-1c0-.276.224-.5.5-.5s.5.224.5.5v1c0 .276-.224.5-.5.5z"/><path d="m8.5 5c-.276 0-.5-.224-.5-.5v-1c0-.276.224-.5.5-.5s.5.224.5.5v1c0 .276-.224.5-.5.5z"/><path d="m13 17.5c0 .276-.224.5-.5.5s-.5-.224-.5-.5.224-.5.5-.5.5.224.5.5z"/></svg>