<svg height="20" viewBox="0 0 20 20" width="20" xmlns="http://www.w3.org/2000/svg"><path d="m9.5 11c-3.033 0-5.5-2.467-5.5-5.5s2.467-5.5 5.5-5.5 5.5 2.467 5.5 5.5-2.467 5.5-5.5 5.5zm0-10c-2.481 0-4.5 2.019-4.5 4.5s2.019 4.5 4.5 4.5 4.5-2.019 4.5-4.5-2.019-4.5-4.5-4.5z"/><path d="m17.5 20h-16c-.827 0-1.5-.673-1.5-1.5 0-.068.014-1.685 1.225-3.3.705-.94 1.67-1.687 2.869-2.219 1.464-.651 3.283-.981 5.406-.981s3.942.33 5.406.981c1.199.533 2.164 1.279 2.869 2.219 1.211 1.615 1.225 3.232 1.225 3.3 0 .827-.673 1.5-1.5 1.5zm-8-7c-3.487 0-6.06.953-7.441 2.756-1.035 1.351-1.058 2.732-1.059 2.746 0 .274.224.498.5.498h16c.276 0 .5-.224.5-.5 0-.012-.023-1.393-1.059-2.744-1.382-1.803-3.955-2.756-7.441-2.756z"/></svg>