<svg height="20" viewBox="0 0 20 20" width="20" xmlns="http://www.w3.org/2000/svg"><path d="m18.5 18h-11c-.827 0-1.5-.673-1.5-1.5 0-.048.011-1.19.924-2.315.525-.646 1.241-1.158 2.128-1.522 1.071-.44 2.4-.662 3.948-.662s2.876.223 3.948.662c.887.364 1.603.876 2.128 1.522.914 1.125.924 2.267.924 2.315 0 .827-.673 1.5-1.5 1.5zm-11.5-1.497c.001.275.225.497.5.497h11c.275 0 .499-.223.5-.497-.001-.035-.032-.895-.739-1.734-.974-1.157-2.793-1.768-5.261-1.768s-4.287.612-5.261 1.768c-.707.84-.738 1.699-.739 1.734z"/><path d="m13 11c-2.206 0-4-1.794-4-4s1.794-4 4-4 4 1.794 4 4-1.794 4-4 4zm0-7c-1.654 0-3 1.346-3 3s1.346 3 3 3 3-1.346 3-3-1.346-3-3-3z"/><path d="m4.5 18h-3c-.827 0-1.5-.673-1.5-1.5 0-.037.008-.927.663-1.8.378-.505.894-.904 1.533-1.188.764-.34 1.708-.512 2.805-.512.179 0 .356.005.527.014.276.015.487.25.473.526s-.25.488-.526.473c-.153-.008-.312-.012-.473-.012-3.894 0-3.997 2.379-4 2.503.001.274.225.497.5.497h3c.276 0 .5.224.5.5s-.224.5-.5.5z"/><path d="m5 12c-1.654 0-3-1.346-3-3s1.346-3 3-3 3 1.346 3 3-1.346 3-3 3zm0-5c-1.103 0-2 .897-2 2s.897 2 2 2 2-.897 2-2-.897-2-2-2z"/></svg>