<svg height="20" viewBox="0 0 20 20" width="20" xmlns="http://www.w3.org/2000/svg"><path d="m9.5 11c-3.033 0-5.5-2.467-5.5-5.5s2.467-5.5 5.5-5.5 5.5 2.467 5.5 5.5-2.467 5.5-5.5 5.5zm0-10c-2.481 0-4.5 2.019-4.5 4.5s2.019 4.5 4.5 4.5 4.5-2.019 4.5-4.5-2.019-4.5-4.5-4.5z"/><path d="m11.5 20h-10c-.827 0-1.5-.673-1.5-1.5 0-.068.014-1.685 1.225-3.3.705-.94 1.67-1.687 2.869-2.219 1.464-.651 3.283-.981 5.406-.981.351 0 .698.011 1.031.031.276.017.485.255.468.53s-.255.486-.53.468c-.313-.019-.639-.029-.969-.029-3.487 0-6.06.953-7.441 2.756-1.035 1.351-1.058 2.732-1.059 2.746 0 .274.224.498.5.498h10c.276 0 .5.224.5.5s-.224.5-.5.5z"/><path d="m15.5 20c-2.481 0-4.5-2.019-4.5-4.5s2.019-4.5 4.5-4.5 4.5 2.019 4.5 4.5-2.019 4.5-4.5 4.5zm0-8c-1.93 0-3.5 1.57-3.5 3.5s1.57 3.5 3.5 3.5 3.5-1.57 3.5-3.5-1.57-3.5-3.5-3.5z"/><path d="m17.5 16h-4c-.276 0-.5-.224-.5-.5s.224-.5.5-.5h4c.276 0 .5.224.5.5s-.224.5-.5.5z"/></svg>