<svg height="20" viewBox="0 0 20 20" width="20" xmlns="http://www.w3.org/2000/svg"><path d="m18.927 16.158c-.357-.381-.791-.713-1.296-.997-.303-.604-.898-1.399-2.058-2.033-.475-.26-1.012-.475-1.607-.646 1.213-.688 2.034-1.991 2.034-3.482 0-1.619-.967-3.017-2.354-3.645-.297-.658-.763-1.221-1.36-1.637-.203-.142-.418-.263-.64-.364-.297-.657-.763-1.22-1.36-1.636-.673-.469-1.463-.717-2.286-.717-2.206 0-4 1.794-4 4 0 .823.248 1.613.717 2.286.416.597.979 1.063 1.636 1.36.101.223.222.437.364.64.188.269.406.511.648.724-1.498.047-2.797.263-3.869.644-1.009.359-1.824.865-2.424 1.504-1.061 1.131-1.073 2.293-1.073 2.342 0 .827.673 1.5 1.5 1.5h.568c-.066.291-.068.481-.068.5 0 .827.673 1.5 1.5 1.5h.568c-.066.291-.068.481-.068.5 0 .827.673 1.5 1.5 1.5h13c.827 0 1.5-.673 1.5-1.5 0-.049-.012-1.211-1.073-2.342zm-3.927-7.158c0 1.654-1.346 3-3 3s-3-1.346-3-3 1.346-3 3-3 3 1.346 3 3zm-10-4c0-1.654 1.346-3 3-3 .866 0 1.679.382 2.24 1.008-.08-.005-.159-.008-.24-.008-2.206 0-4 1.794-4 4 0 .08.003.16.008.24-.626-.561-1.008-1.374-1.008-2.24zm2 2c0-1.654 1.346-3 3-3 .865 0 1.678.382 2.239 1.007-.079-.005-.159-.007-.239-.007-2.206 0-4 1.794-4 4 0 .08.003.16.007.239-.626-.561-1.007-1.374-1.007-2.239zm-5.5 8c-.275 0-.498-.223-.5-.497.001-.055.037-.879.855-1.716.797-.815 2.51-1.787 6.145-1.787.183 0 .364.003.542.008.22.378.5.716.827 1.002-1.499.047-2.799.263-3.872.644-1.009.359-1.824.865-2.424 1.504-.267.285-.467.572-.618.842zm2 2c-.275 0-.498-.223-.5-.497.002-.056.038-.88.855-1.716.797-.815 2.51-1.787 6.145-1.787 3.035 0 4.753.668 5.725 1.417-1.067-.277-2.315-.417-3.725-.417-1.768 0-3.283.22-4.503.654-1.009.359-1.824.865-2.424 1.504-.267.285-.467.572-.618.842zm15 2h-13c-.275 0-.498-.223-.5-.497.001-.055.037-.879.855-1.716.797-.815 2.51-1.787 6.145-1.787s5.348.972 6.145 1.787c.818.837.853 1.661.855 1.716-.002.274-.225.497-.5.497z"/></svg>