<svg height="20" viewBox="0 0 20 20" width="20" xmlns="http://www.w3.org/2000/svg"><path d="m9.5 11c-3.033 0-5.5-2.467-5.5-5.5s2.467-5.5 5.5-5.5 5.5 2.467 5.5 5.5-2.467 5.5-5.5 5.5zm0-10c-2.481 0-4.5 2.019-4.5 4.5s2.019 4.5 4.5 4.5 4.5-2.019 4.5-4.5-2.019-4.5-4.5-4.5z"/><path d="m11.5 20h-10c-.827 0-1.5-.673-1.5-1.5 0-.068.014-1.685 1.225-3.3.705-.94 1.67-1.687 2.869-2.219 1.464-.651 3.283-.981 5.406-.981 1.104 0 2.135.09 3.064.267.271.052.449.313.398.585s-.313.449-.585.398c-.867-.165-1.835-.249-2.877-.249-3.516 0-6.101.968-7.475 2.8-1.013 1.351-1.025 2.687-1.025 2.7 0 .276.224.5.5.5h10c.276 0 .5.224.5.5s-.224.5-.5.5z"/><path d="m19 14.086v-.586c0-1.378-1.122-2.5-2.5-2.5s-2.5 1.122-2.5 2.5v.586c-.582.206-1 .762-1 1.414v3c0 .827.673 1.5 1.5 1.5h4c.827 0 1.5-.673 1.5-1.5v-3c0-.652-.418-1.208-1-1.414zm-2.5-2.086c.827 0 1.5.673 1.5 1.5v.5h-3v-.5c0-.827.673-1.5 1.5-1.5zm2.5 6.5c0 .276-.224.5-.5.5h-4c-.276 0-.5-.224-.5-.5v-3c0-.276.224-.5.5-.5h4c.276 0 .5.224.5.5z"/></svg>