<svg height="20" viewBox="0 0 20 20" width="20" xmlns="http://www.w3.org/2000/svg"><path d="m11.5 18h-4c-.827 0-1.5-.673-1.5-1.5 0-.073.012-.741.43-1.558.383-.749 1.197-1.771 2.9-2.387.26-.094.546.04.64.3s-.04.546-.3.64c-2.597.94-2.668 2.904-2.67 3.006.001.275.225.498.5.498h4c.276 0 .5.224.5.5s-.224.5-.5.5z"/><path d="m10.525 9.975c-.128 0-.256-.049-.354-.146-.756-.755-1.172-1.76-1.172-2.828 0-2.206 1.794-4 4-4s4 1.794 4 4c0 .191-.014.383-.041.571-.039.273-.292.463-.566.424s-.463-.292-.424-.566c.02-.141.03-.285.03-.429 0-1.654-1.346-3-3-3s-3 1.346-3 3c0 .801.312 1.555.879 2.121.195.195.195.512 0 .707-.098.098-.226.146-.354.146z"/><path d="m4.5 18h-3c-.827 0-1.5-.673-1.5-1.5 0-.037.008-.927.663-1.8.378-.505.894-.904 1.533-1.188.764-.34 1.708-.512 2.805-.512.179 0 .356.005.527.014.276.015.487.25.473.526s-.25.488-.526.473c-.153-.008-.312-.012-.473-.012-3.895 0-3.997 2.38-4 2.503.001.274.225.497.5.497h3c.276 0 .5.224.5.5s-.224.5-.5.5z"/><path d="m5 12c-1.654 0-3-1.346-3-3s1.346-3 3-3 3 1.346 3 3-1.346 3-3 3zm0-5c-1.103 0-2 .897-2 2s.897 2 2 2 2-.897 2-2-.897-2-2-2z"/><path d="m15.5 18c-2.481 0-4.5-2.019-4.5-4.5s2.019-4.5 4.5-4.5 4.5 2.019 4.5 4.5-2.019 4.5-4.5 4.5zm0-8c-1.93 0-3.5 1.57-3.5 3.5s1.57 3.5 3.5 3.5 3.5-1.57 3.5-3.5-1.57-3.5-3.5-3.5z"/><path d="m17.5 14h-4c-.276 0-.5-.224-.5-.5s.224-.5.5-.5h4c.276 0 .5.224.5.5s-.224.5-.5.5z"/></svg>