<svg height="20" viewBox="0 0 20 20" width="20" xmlns="http://www.w3.org/2000/svg"><path d="m18.361 2.391-.891-1.336c-.401-.601-1.248-1.055-1.971-1.055h-12c-.723 0-1.57.453-1.971 1.055l-.891 1.336c-.358.537-.639 1.464-.639 2.109v14c0 .827.673 1.5 1.5 1.5h16c.827 0 1.5-.673 1.5-1.5v-14c0-.646-.281-1.572-.639-2.109zm-16-.782c.213-.319.755-.609 1.139-.609h12c.383 0 .926.29 1.139.609l.891 1.336c.012.018.024.037.036.056-.022-.001-.043-.002-.065-.002h-16c-.022 0-.043.001-.065.002.012-.019.024-.038.036-.056l.891-1.336zm15.639 16.891c0 .276-.224.5-.5.5h-16c-.276 0-.5-.224-.5-.5v-14c0-.276.224-.5.5-.5h16c.276 0 .5.224.5.5z"/><path d="m16.5 11c.276 0 .5-.224.5-.5v-3c0-.276-.224-.5-.5-.5h-.5v-.5c0-.827-.673-1.5-1.5-1.5h-11c-.827 0-1.5.673-1.5 1.5v10c0 .827.673 1.5 1.5 1.5h11c.827 0 1.5-.673 1.5-1.5v-.5h.5c.276 0 .5-.224.5-.5v-3c0-.276-.224-.5-.5-.5h-.5v-1zm-.5-1h-1v-2h1zm0 5h-1v-2h1zm-1-3h-.5c-.276 0-.5.224-.5.5v3c0 .276.224.5.5.5h.5v.5c0 .276-.224.5-.5.5h-11c-.276 0-.5-.224-.5-.5v-10c0-.276.224-.5.5-.5h11c.276 0 .5.224.5.5v.5h-.5c-.276 0-.5.224-.5.5v3c0 .276.224.5.5.5h.5z"/><path d="m8.5 13c-.827 0-1.5-.673-1.5-1.5 0-.206.059-.581.567-1.458.257-.443.51-.811.521-.826.093-.135.247-.216.411-.216s.318.081.411.216c.011.015.264.383.521.826.509.877.567 1.252.567 1.458 0 .827-.673 1.5-1.5 1.5zm0-2.573c-.288.485-.496.921-.5 1.074 0 .275.224.499.5.499s.5-.224.5-.5c-.004-.153-.212-.588-.5-1.073z"/><path d="m8.5 7c-2.481 0-4.5 2.019-4.5 4.5s2.019 4.5 4.5 4.5 4.5-2.019 4.5-4.5-2.019-4.5-4.5-4.5zm2.802 6.595-.449-.449c-.195-.195-.512-.195-.707 0s-.195.512 0 .707l.449.449c-.458.343-1.003.577-1.595.662v-.464c0-.276-.224-.5-.5-.5s-.5.224-.5.5v.464c-.592-.085-1.137-.319-1.595-.662l.449-.449c.195-.195.195-.512 0-.707s-.512-.195-.707 0l-.449.449c-.343-.458-.577-1.003-.662-1.595h.464c.276 0 .5-.224.5-.5s-.224-.5-.5-.5h-.464c.085-.592.319-1.137.662-1.595l.449.449c.098.098.226.146.354.146s.256-.049.354-.146c.195-.195.195-.512 0-.707l-.449-.449c.458-.343 1.003-.577 1.595-.662v.464c0 .276.224.5.5.5s.5-.224.5-.5v-.464c.592.085 1.137.319 1.595.662l-.449.449c-.195.195-.195.512 0 .707.098.098.226.146.354.146s.256-.049.354-.146l.449-.449c.343.458.577 1.003.662 1.595h-.464c-.276 0-.5.224-.5.5s.224.5.5.5h.464c-.085.592-.319 1.137-.662 1.595z"/></svg>