<svg height="20" viewBox="0 0 20 20" width="20" xmlns="http://www.w3.org/2000/svg"><path d="m18.5 10.01c-.228 0-.445.052-.639.144l-2.861-2.861v-1.793c0-.276-.224-.5-.5-.5h-1.793l-2.854-2.854c.094-.196.147-.415.147-.646 0-.827-.673-1.5-1.5-1.5s-1.5.673-1.5 1.5.673 1.5 1.5 1.5c.231 0 .45-.053.646-.147l1.355 1.355c-1.161-.284-2.423-.265-3.773.058-1.594.382-3.016 1.123-4.041 1.77-.058-.023-.121-.036-.187-.036h-2c-.276 0-.5.224-.5.5v2c0 .276.224.5.5.5h2c.276 0 .5-.224.5-.5v-1.477c2.089-1.369 5.808-3.131 9-1.097v1.574c0 .276.224.5.5.5h1.573c2.092 3.293.058 7.23-1.097 9h-1.476c-.276 0-.5.224-.5.5v2c0 .276.224.5.5.5h2c.276 0 .5-.224.5-.5v-2c0-.066-.013-.129-.036-.187.646-1.025 1.387-2.447 1.77-4.041.324-1.351.343-2.612.058-3.773l1.36 1.361c-.094.196-.147.415-.147.646 0 .824.671 1.495 1.495 1.495s1.495-.671 1.495-1.495-.671-1.495-1.495-1.495zm-16.5-2.01h-1v-1h1zm11 11h-1v-1h1zm-5-17.5c0-.276.224-.5.5-.5s.5.224.5.5-.224.5-.5.5-.5-.224-.5-.5zm5 4.5h1v1h-1zm5.5 6c-.273 0-.495-.222-.495-.495s.222-.495.495-.495.495.222.495.495-.222.495-.495.495z"/></svg>