<svg height="20" viewBox="0 0 20 20" width="20" xmlns="http://www.w3.org/2000/svg"><path d="m13.653 14.881c-.145 0-.289-.063-.388-.184-.174-.214-.142-.529.072-.703 1.057-.859 1.663-2.133 1.663-3.493s-.606-2.633-1.662-3.493c-.214-.174-.247-.489-.072-.703s.489-.247.703-.072c1.291 1.05 2.031 2.606 2.031 4.269s-.74 3.218-2.031 4.269c-.093.075-.204.112-.315.112z"/><path d="m15.545 17.209c-.145 0-.289-.063-.388-.184-.174-.214-.142-.529.072-.703 1.761-1.432 2.771-3.554 2.771-5.821s-1.01-4.389-2.771-5.821c-.214-.174-.247-.489-.072-.703s.489-.247.703-.072c1.995 1.623 3.14 4.028 3.14 6.597s-1.144 4.974-3.14 6.597c-.093.075-.204.112-.315.112z"/><path d="m11.762 12.552c-.145 0-.289-.063-.388-.184-.174-.214-.142-.529.072-.703.352-.287.554-.711.554-1.164s-.202-.878-.554-1.164c-.214-.174-.247-.489-.072-.703s.489-.247.703-.072c.587.477.923 1.184.923 1.94s-.337 1.463-.923 1.94c-.093.075-.204.112-.315.112z"/><path d="m8.15 3.207c-.247 0-.494.104-.736.309l-4.098 3.483h-1.816c-.827 0-1.5.673-1.5 1.5v4c0 .827.673 1.5 1.5 1.5h1.816l4.098 3.483c.241.205.489.309.736.309.272 0 .516-.132.67-.362.119-.179.18-.408.18-.68v-12.5c0-.72-.427-1.043-.85-1.043zm-7.15 9.293v-4c0-.276.224-.5.5-.5h1.5v5h-1.5c-.276 0-.5-.224-.5-.5zm7 4.169-4-3.4v-5.538l4-3.4z"/></svg>