<svg height="20" viewBox="0 0 20 20" width="20" xmlns="http://www.w3.org/2000/svg"><path d="m9 4c-1.103 0-2-.897-2-2s.897-2 2-2 2 .897 2 2-.897 2-2 2zm0-3c-.551 0-1 .449-1 1s.449 1 1 1 1-.449 1-1-.449-1-1-1z"/><path d="m12.5 20c-.198 0-.386-.119-.464-.314l-1.942-4.856-2.871-1.914c-.16-.107-.245-.296-.218-.487l.865-6.055-2.941 1.47-.944 3.777c-.067.268-.338.431-.606.364s-.431-.338-.364-.606l1-4c.035-.142.131-.261.261-.326l4-2c.166-.083.365-.067.516.042s.229.292.203.476l-.955 6.688 2.738 1.825c.084.056.149.136.187.23l2 5c.103.256-.022.547-.279.65-.061.024-.124.036-.186.036z"/><path d="m3.5 20c-.095 0-.192-.027-.277-.084-.23-.153-.292-.464-.139-.693l1.983-2.974.986-1.972c.123-.247.424-.347.671-.224s.347.424.224.671l-1 2c-.009.019-.02.037-.031.054l-2 3c-.096.144-.255.223-.417.223z"/><path d="m15.5 10c-.04 0-.081-.005-.122-.015l-4-1c-.088-.022-.168-.067-.232-.132l-1-1c-.195-.195-.195-.512 0-.707s.512-.195.707 0l.902.902 3.866.966c.268.067.431.338.364.606-.057.227-.261.379-.485.379z"/></svg>