<svg height="20" viewBox="0 0 20 20" width="20" xmlns="http://www.w3.org/2000/svg"><path d="m17.5 9h-.5v-2.5c0-.827-.673-1.5-1.5-1.5h-2.5v-4.5c0-.276-.224-.5-.5-.5h-10c-.276 0-.5.224-.5.5v4.55c-1.14.232-2 1.242-2 2.45v11c0 .827.673 1.5 1.5 1.5h16c.827 0 1.5-.673 1.5-1.5v-8c0-.827-.673-1.5-1.5-1.5zm-14.5-8h9v6h-9zm-1 5.086v1.414c0 .276.224.5.5.5h12c.276 0 .5-.224.5-.5s-.224-.5-.5-.5h-1.5v-1h2.5c.276 0 .5.224.5.5v2.5h-13.5c-.827 0-1.5-.673-1.5-1.5 0-.652.418-1.208 1-1.414zm16 12.414c0 .276-.224.5-.5.5h-16c-.276 0-.5-.224-.5-.5v-9.001c.418.315.938.501 1.5.501h15c.276 0 .5.224.5.5z"/><path d="m10.5 3h-.5v-.5c0-.276-.224-.5-.5-.5h-2c-.276 0-.5.224-.5.5v1.5h-1v-1.5c0-.276-.224-.5-.5-.5s-.5.224-.5.5v.5h-.5c-.276 0-.5.224-.5.5s.224.5.5.5h.5v.5c0 .276.224.5.5.5h2c.276 0 .5-.224.5-.5v-1.5h1v1.5c0 .276.224.5.5.5s.5-.224.5-.5v-.5h.5c.276 0 .5-.224.5-.5s-.224-.5-.5-.5z"/><path d="m16.5 18h-4c-.276 0-.5-.224-.5-.5s.224-.5.5-.5h4c.276 0 .5.224.5.5s-.224.5-.5.5z"/></svg>