<svg height="20" viewBox="0 0 20 20" width="20" xmlns="http://www.w3.org/2000/svg"><path d="m18.5 7c.276 0 .5-.224.5-.5s-.224-.5-.5-.5h-2.5v-3h2.5c.276 0 .5-.224.5-.5s-.224-.5-.5-.5h-18c-.276 0-.5.224-.5.5s.224.5.5.5h5.5v3h-5.5c-.276 0-.5.224-.5.5s.224.5.5.5h2.5v3h-2.5c-.276 0-.5.224-.5.5s.224.5.5.5h5.5v3h-5.5c-.276 0-.5.224-.5.5s.224.5.5.5h2.5v3h-2.5c-.276 0-.5.224-.5.5s.224.5.5.5h18c.276 0 .5-.224.5-.5s-.224-.5-.5-.5h-5.5v-3h5.5c.276 0 .5-.224.5-.5s-.224-.5-.5-.5h-2.5v-3h2.5c.276 0 .5-.224.5-.5s-.224-.5-.5-.5h-5.5v-3zm-11.5-4h8v3h-8zm5 15h-8v-3h8zm3-4h-8v-3h8zm-3-4h-8v-3h8z"/></svg>