<svg height="20" viewBox="0 0 20 20" width="20" xmlns="http://www.w3.org/2000/svg"><path d="m2.5 20h-2c-.276 0-.5-.224-.5-.5s.224-.5.5-.5h1.5v-2h-1.5c-.276 0-.5-.224-.5-.5s.224-.5.5-.5h2c.276 0 .5.224.5.5v3c0 .276-.224.5-.5.5z"/><path d="m11.5 20h-7c-.276 0-.5-.224-.5-.5v-3c0-.276.224-.5.5-.5h7c.276 0 .5.224.5.5v3c0 .276-.224.5-.5.5zm-6.5-1h6v-2h-6z"/><path d="m18.5 20h-5c-.276 0-.5-.224-.5-.5v-3c0-.276.224-.5.5-.5h5c.276 0 .5.224.5.5s-.224.5-.5.5h-4.5v2h4.5c.276 0 .5.224.5.5s-.224.5-.5.5z"/><path d="m14.5 15h-7c-.276 0-.5-.224-.5-.5v-3c0-.276.224-.5.5-.5h7c.276 0 .5.224.5.5v3c0 .276-.224.5-.5.5zm-6.5-1h6v-2h-6z"/><path d="m18.5 15h-2c-.276 0-.5-.224-.5-.5v-3c0-.276.224-.5.5-.5h2c.276 0 .5.224.5.5s-.224.5-.5.5h-1.5v2h1.5c.276 0 .5.224.5.5s-.224.5-.5.5z"/><path d="m5.5 15h-5c-.276 0-.5-.224-.5-.5s.224-.5.5-.5h4.5v-2h-4.5c-.276 0-.5-.224-.5-.5s.224-.5.5-.5h5c.276 0 .5.224.5.5v3c0 .276-.224.5-.5.5z"/><path d="m2.5 10h-2c-.276 0-.5-.224-.5-.5s.224-.5.5-.5h1.5v-2h-1.5c-.276 0-.5-.224-.5-.5s.224-.5.5-.5h2c.276 0 .5.224.5.5v3c0 .276-.224.5-.5.5z"/><path d="m11.5 10h-7c-.276 0-.5-.224-.5-.5v-3c0-.276.224-.5.5-.5h7c.276 0 .5.224.5.5v3c0 .276-.224.5-.5.5zm-6.5-1h6v-2h-6z"/><path d="m18.5 10h-5c-.276 0-.5-.224-.5-.5v-3c0-.276.224-.5.5-.5h5c.276 0 .5.224.5.5s-.224.5-.5.5h-4.5v2h4.5c.276 0 .5.224.5.5s-.224.5-.5.5z"/><path d="m14.5 5h-7c-.276 0-.5-.224-.5-.5v-3c0-.276.224-.5.5-.5h7c.276 0 .5.224.5.5v3c0 .276-.224.5-.5.5zm-6.5-1h6v-2h-6z"/><path d="m18.5 5h-2c-.276 0-.5-.224-.5-.5v-3c0-.276.224-.5.5-.5h2c.276 0 .5.224.5.5s-.224.5-.5.5h-1.5v2h1.5c.276 0 .5.224.5.5s-.224.5-.5.5z"/><path d="m5.5 5h-5c-.276 0-.5-.224-.5-.5s.224-.5.5-.5h4.5v-2h-4.5c-.276 0-.5-.224-.5-.5s.224-.5.5-.5h5c.276 0 .5.224.5.5v3c0 .276-.224.5-.5.5z"/></svg>