<svg height="20" viewBox="0 0 20 20" width="20" xmlns="http://www.w3.org/2000/svg"><path d="m15.5 9h-.675c-.298-1.255-.96-2.371-1.87-3.228l-.752-3.403c-.169-.767-.918-1.369-1.704-1.369h-4c-.786 0-1.534.601-1.704 1.369l-.752 3.403c-1.258 1.186-2.045 2.867-2.045 4.728s.787 3.542 2.045 4.728l.752 3.403c.169.767.918 1.369 1.704 1.369h4c.786 0 1.534-.601 1.704-1.369l.752-3.403c.909-.857 1.572-1.973 1.87-3.228h.675c.827 0 1.5-.673 1.5-1.5s-.673-1.5-1.5-1.5zm-9.727-6.416c.068-.306.414-.584.727-.584h4c.313 0 .66.278.727.584l.503 2.277c-.952-.548-2.055-.861-3.23-.861s-2.278.313-3.23.861zm5.454 15.832c-.068.306-.414.584-.727.584h-4c-.313 0-.66-.278-.727-.584l-.503-2.277c.952.548 2.055.861 3.23.861s2.278-.313 3.23-.861zm-2.727-2.416c-3.033 0-5.5-2.467-5.5-5.5s2.467-5.5 5.5-5.5 5.5 2.467 5.5 5.5-2.467 5.5-5.5 5.5zm7-5h-.519c.013-.165.019-.332.019-.5s-.006-.335-.019-.5h.519c.276 0 .5.224.5.5s-.224.5-.5.5z"/><path d="m8.5 11c-.076 0-.153-.017-.224-.053l-2-1c-.247-.123-.347-.424-.224-.671s.424-.347.671-.224l1.74.87 2.759-1.839c.23-.153.54-.091.693.139s.091.54-.139.693l-3 2c-.084.056-.18.084-.277.084z"/></svg>