<svg height="20" viewBox="0 0 20 20" width="20" xmlns="http://www.w3.org/2000/svg"><path d="m10 3.086v-1.586c0-.276-.224-.5-.5-.5s-.5.224-.5.5v1.586c-.582.206-1 .762-1 1.414 0 .827.673 1.5 1.5 1.5s1.5-.673 1.5-1.5c0-.652-.418-1.208-1-1.414zm-.5 1.914c-.276 0-.5-.224-.5-.5s.224-.5.5-.5.5.224.5.5-.224.5-.5.5z"/><path d="m16.5 1h-4.175c-.773-.625-1.756-1-2.825-1s-2.052.375-2.825 1h-4.175c-1.378 0-2.5 1.122-2.5 2.5v14c0 1.378 1.122 2.5 2.5 2.5h14c1.378 0 2.5-1.122 2.5-2.5v-14c0-1.378-1.122-2.5-2.5-2.5zm-7 0c1.76 0 3.221 1.306 3.464 3h-.464c-.276 0-.5.224-.5.5s.224.5.5.5h.464c-.22 1.531-1.434 2.744-2.964 2.964v-.464c0-.276-.224-.5-.5-.5s-.5.224-.5.5v.464c-1.531-.22-2.744-1.434-2.964-2.964h.464c.276 0 .5-.224.5-.5s-.224-.5-.5-.5h-.464c.243-1.694 1.704-3 3.464-3zm8.5 16.5c0 .827-.673 1.5-1.5 1.5h-14c-.827 0-1.5-.673-1.5-1.5v-14c0-.827.673-1.5 1.5-1.5h3.26c-.48.716-.76 1.576-.76 2.5 0 2.481 2.019 4.5 4.5 4.5s4.5-2.019 4.5-4.5c0-.924-.28-1.784-.76-2.5h3.26c.827 0 1.5.673 1.5 1.5z"/><path d="m15.5 13h-4c-.276 0-.5-.224-.5-.5s.224-.5.5-.5h4c.276 0 .5.224.5.5s-.224.5-.5.5z"/><path d="m15.5 15h-4c-.276 0-.5-.224-.5-.5s.224-.5.5-.5h4c.276 0 .5.224.5.5s-.224.5-.5.5z"/><path d="m15.5 17h-4c-.276 0-.5-.224-.5-.5s.224-.5.5-.5h4c.276 0 .5.224.5.5s-.224.5-.5.5z"/><path d="m7.5 13h-4c-.276 0-.5-.224-.5-.5s.224-.5.5-.5h4c.276 0 .5.224.5.5s-.224.5-.5.5z"/><path d="m15.5 11h-3c-.276 0-.5-.224-.5-.5s.224-.5.5-.5h3c.276 0 .5.224.5.5s-.224.5-.5.5z"/><path d="m6.5 11h-3c-.276 0-.5-.224-.5-.5s.224-.5.5-.5h3c.276 0 .5.224.5.5s-.224.5-.5.5z"/><path d="m7.5 15h-4c-.276 0-.5-.224-.5-.5s.224-.5.5-.5h4c.276 0 .5.224.5.5s-.224.5-.5.5z"/><path d="m7.5 17h-4c-.276 0-.5-.224-.5-.5s.224-.5.5-.5h4c.276 0 .5.224.5.5s-.224.5-.5.5z"/></svg>