<svg height="20" viewBox="0 0 20 20" width="20" xmlns="http://www.w3.org/2000/svg"><path d="m17.854 13.146c-.195-.195-.512-.195-.707 0l-.651.651-2.729-2.656c-.002-.002-.003-.003-.005-.004-.007-.007-.015-.013-.022-.019-.006-.005-.011-.009-.017-.014s-.013-.01-.02-.014c-.007-.005-.014-.01-.021-.014-.006-.003-.011-.007-.017-.01-.008-.005-.017-.01-.026-.014-.006-.003-.011-.005-.017-.008-.009-.004-.018-.008-.027-.012-.007-.003-.014-.005-.021-.007-.008-.003-.016-.006-.024-.008s-.018-.004-.027-.006c-.007-.001-.013-.003-.02-.004-.01-.002-.02-.003-.031-.004-.006-.001-.011-.002-.017-.002-.01-.001-.02-.001-.03-.001-.006 0-.012 0-.019 0-.009 0-.018.001-.026.002s-.016.001-.023.002-.015.002-.022.003c-.009.002-.019.003-.028.005-.002.001-.004.001-.007.001l-3.945.953c-.106.026-.199.013-.26-.035s-.095-.135-.095-.244v-1.688h3.5c.276 0 .5-.224.5-.5s-.224-.5-.5-.5h-3.5v-3.05c.162.033.329.05.5.05 1.378 0 2.5-1.122 2.5-2.5s-1.122-2.5-2.5-2.5-2.5 1.122-2.5 2.5c0 .816.393 1.542 1 1.999v6.189c0 .416.174.792.476 1.03.218.172.49.262.777.262.111 0 .223-.013.336-.041l3.677-.888 2.885 2.808c.097.094.223.142.349.142.128 0 .256-.049.354-.146l1-1c.195-.195.195-.512 0-.707zm-8.354-11.146c.827 0 1.5.673 1.5 1.5s-.673 1.5-1.5 1.5-1.5-.673-1.5-1.5.673-1.5 1.5-1.5z"/><path d="m7.5 20c-3.584 0-6.5-2.916-6.5-6.5 0-1.547.552-3.045 1.556-4.22.992-1.161 2.363-1.939 3.862-2.191.272-.046.53.138.576.41s-.138.53-.41.576c-2.655.446-4.583 2.727-4.583 5.424 0 3.033 2.467 5.5 5.5 5.5 2.697 0 4.978-1.927 5.424-4.583.046-.272.304-.456.576-.41s.456.303.41.576c-.251 1.498-1.029 2.87-2.191 3.862-1.174 1.003-2.673 1.556-4.22 1.556z"/></svg>