<svg height="20" viewBox="0 0 20 20" width="20" xmlns="http://www.w3.org/2000/svg"><path d="m10.5 16c-.827 0-1.5-.673-1.5-1.5s.673-1.5 1.5-1.5 1.5.673 1.5 1.5-.673 1.5-1.5 1.5zm0-2c-.276 0-.5.224-.5.5s.224.5.5.5.5-.224.5-.5-.224-.5-.5-.5z"/><path d="m13.947 12.968c-.171 0-.338-.088-.431-.246-.188-.318-.424-.603-.701-.848-.207-.183-.227-.499-.044-.706s.499-.227.706-.044c.356.314.659.681.9 1.089.141.238.062.544-.176.685-.08.047-.167.07-.254.07z"/><path d="m9.5 11.126c-.223 0-.426-.15-.484-.376-.069-.267.092-.54.36-.609.731-.188 1.518-.188 2.249 0 .267.069.428.341.36.609s-.342.428-.609.36c-.569-.146-1.183-.146-1.751 0-.042.011-.084.016-.125.016z"/><path d="m7.053 12.968c-.086 0-.174-.022-.254-.07-.238-.14-.317-.447-.176-.685.241-.408.544-.774.9-1.089.207-.183.523-.163.706.044s.163.523-.044.706c-.277.245-.513.53-.701.848-.093.158-.26.246-.431.246z"/><path d="m16.107 10.808c-.152 0-.302-.069-.401-.2-.508-.678-1.133-1.243-1.857-1.68-.237-.142-.313-.45-.17-.686s.45-.313.686-.17c.835.503 1.556 1.155 2.141 1.937.166.221.121.534-.1.7-.09.067-.195.1-.299.1z"/><path d="m12.001 8.161c-.035 0-.071-.004-.107-.012-.909-.199-1.878-.198-2.787 0-.27.059-.536-.112-.595-.382s.112-.536.382-.595c1.049-.229 2.164-.229 3.213 0 .27.059.441.325.382.595-.051.234-.258.393-.488.393z"/><path d="m4.893 10.808c-.104 0-.209-.033-.299-.1-.221-.166-.266-.479-.1-.7.585-.781 1.306-1.433 2.141-1.936.237-.143.544-.066.686.17s.066.544-.17.686c-.724.437-1.349 1.002-1.857 1.679-.098.131-.248.2-.401.2z"/><path d="m18.243 8.671c-.145 0-.288-.063-.387-.183-.838-1.024-1.904-1.88-3.081-2.474-.247-.124-.346-.425-.221-.672s.425-.346.672-.221c1.32.666 2.466 1.586 3.405 2.734.175.214.143.529-.07.704-.093.076-.205.113-.316.113z"/><path d="m12.501 5.2c-.033 0-.066-.003-.1-.01-1.243-.252-2.558-.252-3.801 0-.271.055-.535-.12-.589-.391s.12-.535.391-.589c1.373-.279 2.826-.279 4.199 0 .271.055.446.319.391.589-.048.237-.257.401-.49.401z"/><path d="m2.757 8.671c-.111 0-.223-.037-.316-.113-.214-.175-.245-.49-.07-.704.939-1.148 2.085-2.067 3.405-2.734.247-.124.547-.025.672.221s.025.547-.221.672c-1.178.594-2.243 1.45-3.081 2.474-.099.121-.242.183-.387.183z"/></svg>