<svg height="20" viewBox="0 0 20 20" width="20" xmlns="http://www.w3.org/2000/svg"><path d="m10.5 16c-.827 0-1.5-.673-1.5-1.5s.673-1.5 1.5-1.5 1.5.673 1.5 1.5-.673 1.5-1.5 1.5zm0-2c-.276 0-.5.224-.5.5s.224.5.5.5.5-.224.5-.5-.224-.5-.5-.5z"/><path d="m18.243 8.671c-.145 0-.288-.063-.387-.183-1.814-2.217-4.495-3.488-7.356-3.488-.64 0-1.279.064-1.901.19-.271.055-.535-.12-.589-.391s.12-.535.391-.589c.687-.139 1.393-.21 2.099-.21 3.162 0 6.125 1.405 8.13 3.855.175.214.143.529-.07.704-.093.076-.205.113-.316.113z"/><path d="m7 7.086v-.586c0-1.378-1.122-2.5-2.5-2.5s-2.5 1.122-2.5 2.5v.586c-.582.206-1 .762-1 1.414v3c0 .827.673 1.5 1.5 1.5h4c.827 0 1.5-.673 1.5-1.5v-3c0-.652-.418-1.208-1-1.414zm-2.5-2.086c.827 0 1.5.673 1.5 1.5v.5h-3v-.5c0-.827.673-1.5 1.5-1.5zm2.5 6.5c0 .276-.224.5-.5.5h-4c-.276 0-.5-.224-.5-.5v-3c0-.276.224-.5.5-.5h4c.276 0 .5.224.5.5z"/><path d="m13.947 12.968c-.171 0-.338-.088-.431-.246-.628-1.062-1.783-1.722-3.016-1.722-.297 0-.591.037-.875.11-.267.069-.54-.092-.609-.36s.092-.54.36-.609c.366-.094.744-.142 1.125-.142.797 0 1.58.211 2.264.61.664.387 1.221.942 1.612 1.603.141.238.062.544-.176.685-.08.047-.167.07-.254.07z"/><path d="m16.107 10.808c-.152 0-.302-.069-.401-.2-1.241-1.657-3.139-2.608-5.206-2.608-.311 0-.624.022-.929.066-.273.039-.527-.151-.566-.424s.151-.527.424-.566c.352-.05.712-.076 1.071-.076 1.202 0 2.35.276 3.412.82 1.013.518 1.91 1.275 2.594 2.189.166.221.121.534-.1.7-.09.067-.195.1-.299.1z"/></svg>