<svg height="20" viewBox="0 0 20 20" width="20" xmlns="http://www.w3.org/2000/svg"><path d="m10.5 16c-.827 0-1.5-.673-1.5-1.5s.673-1.5 1.5-1.5 1.5.673 1.5 1.5-.673 1.5-1.5 1.5zm0-2c-.276 0-.5.224-.5.5s.224.5.5.5.5-.224.5-.5-.224-.5-.5-.5z"/><path d="m13.947 12.968c-.171 0-.338-.088-.431-.246-.628-1.062-1.783-1.722-3.016-1.722-.276 0-.5-.224-.5-.5s.224-.5.5-.5c.797 0 1.58.211 2.264.61.664.387 1.221.942 1.612 1.603.141.238.062.544-.176.685-.08.047-.167.07-.254.07z"/><path d="m16.107 10.808c-.152 0-.302-.069-.401-.2-1.241-1.657-3.139-2.608-5.206-2.608-.276 0-.5-.224-.5-.5s.224-.5.5-.5c1.202 0 2.35.276 3.412.82 1.013.518 1.91 1.275 2.594 2.189.166.221.121.534-.1.7-.09.067-.195.1-.299.1z"/><path d="m18.243 8.671c-.145 0-.288-.063-.387-.183-1.814-2.217-4.495-3.488-7.356-3.488-.64 0-1.279.064-1.901.19-.271.055-.535-.12-.589-.391s.12-.535.391-.589c.687-.139 1.393-.21 2.099-.21 3.162 0 6.125 1.405 8.13 3.855.175.214.143.529-.07.704-.093.076-.205.113-.316.113z"/><path d="m4.5 14c-2.481 0-4.5-2.019-4.5-4.5s2.019-4.5 4.5-4.5 4.5 2.019 4.5 4.5-2.019 4.5-4.5 4.5zm0-8c-1.93 0-3.5 1.57-3.5 3.5s1.57 3.5 3.5 3.5 3.5-1.57 3.5-3.5-1.57-3.5-3.5-3.5z"/><path d="m4.5 10c-.276 0-.5-.224-.5-.5v-2c0-.276.224-.5.5-.5.276 0 .5.224.5.5v2c0 .276-.224.5-.5.5z"/><path d="m4.5 12c-.132 0-.26-.053-.353-.147s-.147-.222-.147-.353.053-.261.147-.353c.093-.093.222-.147.353-.147s.26.053.353.147c.093.093.147.222.147.353s-.053.261-.147.353c-.093.093-.222.147-.353.147z"/></svg>