<svg height="20" viewBox="0 0 20 20" width="20" xmlns="http://www.w3.org/2000/svg"><path d="m10.5 16c-.827 0-1.5-.673-1.5-1.5s.673-1.5 1.5-1.5 1.5.673 1.5 1.5-.673 1.5-1.5 1.5zm0-2c-.276 0-.5.224-.5.5s.224.5.5.5.5-.224.5-.5-.224-.5-.5-.5z"/><path d="m18.243 8.671c-.145 0-.288-.063-.387-.183-.838-1.024-1.904-1.88-3.081-2.474-.247-.124-.346-.425-.221-.672s.425-.346.672-.221c1.32.666 2.466 1.586 3.405 2.734.175.214.143.529-.07.704-.093.076-.205.113-.316.113z"/><path d="m12.501 5.2c-.033 0-.066-.003-.1-.01-1.243-.252-2.558-.252-3.801 0-.271.055-.535-.12-.589-.391s.12-.535.391-.589c1.373-.279 2.826-.279 4.199 0 .271.055.446.319.391.589-.048.237-.257.401-.49.401z"/><path d="m2.757 8.671c-.111 0-.223-.037-.316-.113-.214-.175-.245-.49-.07-.704.939-1.148 2.085-2.067 3.405-2.734.247-.124.547-.025.672.221s.025.547-.221.672c-1.178.594-2.243 1.45-3.081 2.474-.099.121-.242.183-.387.183z"/><path d="m7.053 12.968c-.086 0-.174-.022-.254-.07-.238-.14-.317-.447-.176-.685.391-.662.949-1.216 1.612-1.603.685-.399 1.468-.61 2.264-.61s1.58.211 2.264.61c.664.387 1.221.942 1.612 1.603.141.238.062.544-.176.685s-.544.062-.685-.176c-.628-1.062-1.783-1.722-3.016-1.722s-2.388.66-3.016 1.722c-.093.158-.26.246-.431.246z"/><path d="m16.107 10.808c-.152 0-.302-.069-.401-.2-1.241-1.657-3.139-2.608-5.206-2.608s-3.965.95-5.206 2.608c-.166.221-.479.266-.7.1s-.266-.479-.1-.7c.684-.913 1.581-1.67 2.594-2.189 1.063-.544 2.211-.82 3.412-.82s2.35.276 3.412.82c1.013.518 1.91 1.275 2.594 2.189.166.221.121.534-.1.7-.09.067-.195.1-.299.1z"/></svg>