<svg height="20" viewBox="0 0 20 20" width="20" xmlns="http://www.w3.org/2000/svg"><path d="m10.5 16c-.827 0-1.5-.673-1.5-1.5s.673-1.5 1.5-1.5 1.5.673 1.5 1.5-.673 1.5-1.5 1.5zm0-2c-.276 0-.5.224-.5.5s.224.5.5.5.5-.224.5-.5-.224-.5-.5-.5z"/><path d="m13.947 12.968c-.171 0-.338-.088-.431-.246-.188-.318-.424-.603-.701-.848-.207-.183-.227-.499-.044-.706s.499-.227.706-.044c.356.314.659.681.9 1.089.141.238.062.544-.176.685-.08.047-.167.07-.254.07z"/><path d="m11.5 11.126c-.041 0-.083-.005-.125-.016-.284-.073-.579-.11-.876-.11-.276 0-.5-.224-.5-.5s.224-.5.5-.5c.381 0 .759.048 1.125.142.267.069.428.341.36.609-.058.226-.261.376-.484.376z"/><path d="m16.107 10.808c-.152 0-.302-.069-.401-.2-.508-.678-1.133-1.243-1.857-1.68-.237-.142-.313-.45-.17-.686s.45-.313.686-.17c.835.503 1.556 1.155 2.141 1.937.166.221.121.534-.1.7-.09.067-.195.1-.299.1z"/><path d="m12.001 8.161c-.035 0-.071-.004-.107-.012-.455-.099-.923-.15-1.393-.15-.276 0-.5-.224-.5-.5s.224-.5.5-.5c.542 0 1.082.058 1.607.173.27.059.441.325.382.595-.051.234-.258.393-.488.393z"/><path d="m18.243 8.671c-.145 0-.288-.063-.387-.183-.838-1.024-1.904-1.88-3.081-2.474-.247-.124-.346-.425-.221-.672s.425-.346.672-.221c1.32.666 2.466 1.586 3.405 2.734.175.214.143.529-.07.704-.093.076-.205.113-.316.113z"/><path d="m12.501 5.2c-.033 0-.066-.003-.1-.01-1.243-.252-2.558-.252-3.801 0-.271.055-.535-.12-.589-.391s.12-.535.391-.589c1.373-.279 2.826-.279 4.199 0 .271.055.446.319.391.589-.048.237-.257.401-.49.401z"/><path d="m4.5 14c-2.481 0-4.5-2.019-4.5-4.5s2.019-4.5 4.5-4.5 4.5 2.019 4.5 4.5-2.019 4.5-4.5 4.5zm0-8c-1.93 0-3.5 1.57-3.5 3.5s1.57 3.5 3.5 3.5 3.5-1.57 3.5-3.5-1.57-3.5-3.5-3.5z"/><path d="m4.5 10c-.276 0-.5-.224-.5-.5v-2c0-.276.224-.5.5-.5.276 0 .5.224.5.5v2c0 .276-.224.5-.5.5z"/><path d="m4.5 12c-.132 0-.26-.053-.353-.147s-.147-.222-.147-.353.053-.261.147-.353c.093-.093.222-.147.353-.147s.26.053.353.147c.093.093.147.222.147.353s-.053.261-.147.353c-.093.093-.222.147-.353.147z"/></svg>