<svg height="20" viewBox="0 0 20 20" width="20" xmlns="http://www.w3.org/2000/svg"><path d="m18.5 1h-17c-.827 0-1.5.673-1.5 1.5v15c0 .827.673 1.5 1.5 1.5h17c.827 0 1.5-.673 1.5-1.5v-15c0-.827-.673-1.5-1.5-1.5zm-17 1h17c.276 0 .5.224.5.5v2.5h-18v-2.5c0-.276.224-.5.5-.5zm17 16h-17c-.276 0-.5-.224-.5-.5v-11.5h18v11.5c0 .276-.224.5-.5.5z"/><path d="m3 3.5c0 .276-.224.5-.5.5s-.5-.224-.5-.5.224-.5.5-.5.5.224.5.5z"/><path d="m5 3.5c0 .276-.224.5-.5.5s-.5-.224-.5-.5.224-.5.5-.5.5.224.5.5z"/><path d="m7 3.5c0 .276-.224.5-.5.5s-.5-.224-.5-.5.224-.5.5-.5.5.224.5.5z"/></svg>