<svg height="20" viewBox="0 0 20 20" width="20" xmlns="http://www.w3.org/2000/svg"><path d="m19.5 15h-8c-.276 0-.5-.224-.5-.5s.224-.5.5-.5h8c.276 0 .5.224.5.5s-.224.5-.5.5z"/><path d="m18.5 10h-8.5c-1.654 0-3-1.346-3-3s1.346-3 3-3c1.483 0 2.76 1.105 2.97 2.571.039.273.293.463.566.424s.463-.292.424-.566c-.135-.944-.607-1.811-1.328-2.442-.728-.637-1.663-.987-2.632-.987-2.206 0-4 1.794-4 4 0 1.194.526 2.266 1.357 3h-4.857c-.827 0-1.5-.673-1.5-1.5s.673-1.5 1.5-1.5c.534 0 1.032.287 1.3.75.138.239.444.321.683.182s.321-.444.182-.683c-.446-.771-1.276-1.25-2.165-1.25-1.378 0-2.5 1.122-2.5 2.5s1.122 2.5 2.5 2.5h16c.276 0 .5-.224.5-.5s-.224-.5-.5-.5z"/><path d="m4.5 17c-1.378 0-2.5-1.122-2.5-2.5s1.122-2.5 2.5-2.5h11c.276 0 .5.224.5.5s-.224.5-.5.5h-11c-.827 0-1.5.673-1.5 1.5s.673 1.5 1.5 1.5c.534 0 1.032-.287 1.3-.75.138-.239.444-.321.683-.182s.321.444.182.683c-.446.771-1.276 1.25-2.165 1.25z"/></svg>