<svg height="20" viewBox="0 0 20 20" width="20" xmlns="http://www.w3.org/2000/svg"><path d="m9.5 5c-1.378 0-2.5-1.122-2.5-2.5s1.122-2.5 2.5-2.5 2.5 1.122 2.5 2.5-1.122 2.5-2.5 2.5zm0-4c-.827 0-1.5.673-1.5 1.5s.673 1.5 1.5 1.5 1.5-.673 1.5-1.5-.673-1.5-1.5-1.5z"/><path d="m13.596 11.303c.295.295.694.464 1.095.464.362 0 .698-.136.944-.382.54-.54.503-1.454-.082-2.039l-2.492-2.492c-.487-.487-1.373-.854-2.061-.854h-3c-.688 0-1.574.367-2.061.854l-2.492 2.492c-.274.274-.438.632-.461 1.006-.024.392.114.768.379 1.033.246.246.582.382.944.382.401 0 .8-.169 1.095-.464l1.825-1.825.217.869-3.093 3.093c-.477.476-.378.889-.314 1.044s.287.516.961.516h2v3.5c0 .827.673 1.5 1.5 1.5.384 0 .734-.145 1-.383.266.238.616.383 1 .383.827 0 1.5-.673 1.5-1.5v-3.5h2c.674 0 .896-.361.96-.516s.162-.568-.314-1.044l-3.093-3.093.217-.869 1.825 1.825zm-5.096 7.697c-.276 0-.5-.224-.5-.5v-3.5h1v3.5c0 .276-.224.5-.5.5zm2.5-.5c0 .276-.224.5-.5.5s-.5-.224-.5-.5v-3.5h1zm-.354-7.646 3.146 3.146h-8.586l3.146-3.146c.124-.124.174-.304.132-.475l-.5-2c-.044-.175-.178-.313-.352-.361s-.36.001-.487.128l-2.449 2.449c-.109.109-.25.171-.388.171-.067 0-.163-.015-.237-.089-.086-.086-.092-.203-.088-.265.008-.129.07-.26.17-.36l2.492-2.492c.293-.293.939-.561 1.354-.561h3c.415 0 1.06.267 1.354.561l2.492 2.492c.192.192.229.478.082.625-.074.074-.169.089-.237.089-.138 0-.279-.062-.388-.171l-2.449-2.449c-.127-.127-.313-.176-.487-.128s-.308.186-.352.361l-.5 2c-.043.17.007.351.132.475z"/></svg>