<svg height="20" viewBox="0 0 20 20" width="20" xmlns="http://www.w3.org/2000/svg"><path d="m17.5 20h-15c-.147 0-.287-.065-.382-.177s-.136-.26-.112-.405c.272-1.632.55-2.669 1.238-3.473.687-.803 1.741-1.317 3.638-1.773.365-.088.918-.726 1.084-1.417.12-.5.022-.891-.292-1.161-1.037-.889-1.414-2.224-1.548-3.187-.162-1.168-.034-2.235.166-2.774.193-.523.492-.633.708-.633.444 0 1.795 0 2.649-.854.094-.094.221-.146.354-.146s.26.053.354.146c.854.854 2.201.854 2.644.854.216 0 .515.11.708.633.199.539.328 1.606.166 2.774-.134.963-.511 2.298-1.548 3.187-.333.286-.443.679-.325 1.168.164.682.735 1.318 1.117 1.41 1.897.456 2.951.97 3.638 1.773.688.804.966 1.841 1.238 3.473.024.145-.017.293-.112.405s-.235.177-.382.177zm-14.404-1h13.809c-.458-2.434-1.046-3.14-4.021-3.856-.796-.192-1.611-1.135-1.855-2.148-.207-.859.023-1.627.646-2.161.912-.782 1.168-2.105 1.239-2.824.096-.964-.034-1.717-.136-2.012-.611-.011-1.803-.102-2.776-.837-.974.735-2.168.826-2.78.837-.102.296-.231 1.048-.136 2.012.071.719.327 2.042 1.239 2.824.605.519.823 1.284.614 2.154-.246 1.022-1.046 1.969-1.822 2.155-2.975.716-3.564 1.422-4.021 3.856z"/><path d="m13.5 13c-.183 0-.36-.101-.448-.277-.123-.247-.023-.547.224-.671.919-.46 2.51-.779 3.435-.936-.9-1.712-1.375-3.504-1.765-4.975-.153-.577-.285-1.075-.421-1.483-.439-1.318-1.397-2.271-2.562-2.55-.672-.161-1.31-.064-1.625.248-.094.092-.22.144-.351.144-.001 0-.002 0-.003 0-.133-.001-.259-.054-.353-.149-.295-.299-.929-.399-1.577-.248-1.173.273-2.137 1.228-2.579 2.555-.137.41-.269.91-.423 1.488-.391 1.476-.868 3.273-1.774 4.99.994.193 2.742.565 3.445.917.247.123.347.424.224.671s-.424.347-.671.224c-.696-.348-3.025-.807-3.863-.955-.162-.029-.3-.135-.368-.285s-.059-.324.026-.465c1.065-1.776 1.591-3.759 2.014-5.353.158-.594.294-1.108.44-1.548.553-1.66 1.788-2.861 3.302-3.213.814-.189 1.602-.094 2.162.244.575-.342 1.379-.435 2.207-.237.689.165 1.343.517 1.891 1.016.627.572 1.093 1.308 1.387 2.19.146.438.282.95.439 1.543.423 1.595.949 3.581 2.015 5.358.087.144.095.322.022.474s-.217.256-.384.279c-.027.004-2.668.364-3.843.952-.072.036-.148.053-.223.053z"/></svg>