<svg height="20" viewBox="0 0 20 20" width="20" xmlns="http://www.w3.org/2000/svg"><path d="m16.75 20.013c-.602 0-1.169-.232-1.597-.655-.001-.001-.002-.002-.002-.002l-7.71-7.709c-.619.234-1.27.352-1.941.352-3.033 0-5.5-2.467-5.5-5.5 0-.789.164-1.551.486-2.264.068-.15.204-.256.366-.286s.327.022.443.138l2.912 2.912h1.793v-1.793l-2.919-2.919c-.116-.116-.168-.282-.138-.443s.136-.298.286-.366c.693-.313 1.478-.479 2.272-.479 3.033 0 5.5 2.467 5.5 5.5 0 .663-.12 1.312-.357 1.936l7.704 7.704c.43.425.668.992.671 1.596s-.231 1.173-.656 1.604c-.428.434-1.001.673-1.613.673zm-.894-1.365c.239.236.557.366.894.366.342 0 .662-.133.901-.376s.369-.56.368-.897-.134-.653-.375-.89c-.001-.001-.002-.002-.002-.002l-7.942-7.942c-.147-.147-.188-.37-.102-.56.267-.591.402-1.212.402-1.847 0-2.481-2.019-4.5-4.5-4.5-.392 0-.78.049-1.15.143l2.504 2.504c.094.094.146.221.146.354v2.5c0 .276-.224.5-.5.5h-2.5c-.133 0-.26-.053-.354-.146l-2.5-2.5c-.098.371-.147.754-.147 1.146 0 2.481 2.019 4.5 4.5 4.5.646 0 1.269-.134 1.852-.397.19-.086.412-.045.56.102l7.944 7.943z"/></svg>