<svg height="16" viewBox="0 0 16 16" width="16" xmlns="http://www.w3.org/2000/svg"><path d="m7 11v-8c0-.55228475.44771525-1 1-1h2c.5522847 0 1 .44771525 1 1v9c0 1.1045695-.8954305 2-2 2h-3c-1.1045695 0-2-.8954305-2-2v-7c0-.55228475-.44771525-1-1-1-.55228475 0-1 .44771525-1 1v7c0 2.209139 1.790861 4 4 4h3c2.209139 0 4-1.790861 4-4v-9c0-1.65685425-1.3431458-3-3-3h-2c-1.65685425 0-3 1.34314575-3 3v9c0 .5522847.44771525 1 1 1h3c.55228475 0 1-.4477153 1-1v-7c0-.55228475-.44771525-1-1-1-.55228475 0-1 .44771525-1 1v6z"/></svg>