<svg height="20" viewBox="0 0 20 20" width="20" xmlns="http://www.w3.org/2000/svg"><path d="m2 5.23606798v12.76393202h16v-12.76393202.76393202h-16zm.23606798-1.23606798h15.52786402l-1-2h-13.52786402zm-2.23606798 0 2-4h16l2 4v16h-20zm3.56719453 5.3603803c-.19903254-.51517423.05725094-1.09415322.57242517-1.29318577.51517423-.19903254 1.09415322.05725094 1.29318577.57242517.03277811.0848426.11421436.26289835.24625539.50207628.2253328.40816582.50546167.81732859.84019389 1.19619702.92770634 1.0500293 2.07708732 1.662107 3.50342575 1.662107 1.4263384 0 2.5757194-.6120777 3.5034258-1.662107.3347322-.37886843.6148611-.7880312.8401939-1.19619702.132041-.23917793.2134772-.41723368.2462554-.50207628.1990325-.51517423.7780115-.77145771 1.2931857-.57242517.5151743.19903255.7714577.77801154.5724252 1.29318577-.2323716.60146862-.7009412 1.4502316-1.4532416 2.3017267-1.2810567 1.4499707-2.9484283 2.337893-5.0022444 2.337893-2.05381611 0-3.72118772-.8879223-5.00224436-2.337893-.75230039-.8514951-1.22087007-1.70025808-1.45324161-2.3017267z"/></svg>