<svg height="20" viewBox="0 0 20 20" width="20" xmlns="http://www.w3.org/2000/svg"><path d="m4.59102524 18h10.81794956l2.076923-9h-14.97179564zm-.1460128-11 .05995037-.59950372c.07354144-.7354144.31773572-1.78196132.85061-2.84770988.93649391-1.87298781 2.47023207-3.0527864 4.64442719-3.0527864 2.1741951 0 3.7079333 1.17979859 4.6444272 3.0527864.5328743 1.06574856.7770685 2.11229548.85061 2.84770988l.0599504.59950372h3.4532093c.5477577 0 .8919877.43253326.7663155.97711289l-2.5490248 11.04577421c-.1245334.5396446-.6754364.9771129-1.2323331.9771129h-11.98630903c-.5560654 0-1.10666084-.4325333-1.23233306-.9771129l-2.54902482-11.04577421c-.12453336-.53964455.22981799-.97711289.76631552-.97711289zm2.00997512 0h7.09002484l-.0400496-.40049628c-.0115679-.11567918-.0479423-.3471523-.119429-.6535241-.1201001-.51471465-.2947003-1.02824459-.529961-1.49876602-.6260061-1.25201219-1.5297679-1.9472136-2.8555728-1.9472136-1.32580488 0-2.22956672.69520141-2.85557281 1.9472136-.23526072.47052143-.4098609.98405137-.52996098 1.49876602-.07148675.3063718-.1078611.53784492-.11942902.6535241z"/></svg>