<svg height="20" viewBox="0 0 20 20" width="20" xmlns="http://www.w3.org/2000/svg"><path d="m17.0043286 18c-.0042506-.0000034-.0043286-9.99414134-.0043286-9.99414134 0-.0053719-14.0043286-.00585866-14.0043286-.00585866.00425062.00000343.0043286 9.9941413.0043286 9.9941413 0 .0053719 14.0043286.0058587 14.0043286.0058587zm-12.38901838-12c.00236717-.01991297.00480508-.04001449.00731526-.06030085.09586715-.77476301.26886914-1.55150667.54215576-2.28770735.82809287-2.23078079 2.41080513-3.6519918 4.83521876-3.6519918 2.4244136 0 4.0071259 1.42121101 4.8352188 3.6519918.2732866.73620068.4462886 1.51294434.5421557 2.28770735.0025102.02028636.0049481.04038788.0073153.06030085h1.6202209c1.1018574 0 1.9950893.89706013 1.9950893 2.00585866v9.98828264c0 1.1078052-.8926228 2.0058587-1.9950893 2.0058587h-14.00982141c-1.10185739 0-1.99508929-.8970601-1.99508929-2.0058587v-9.98828264c0-1.10780515.8926228-2.00585866 1.99508929-2.00585866zm2.01691399 0h6.73555159c-.0815522-.56889269-.2145474-1.13209334-.40754-1.6519918-.5639526-1.51921921-1.4869222-2.3480082-2.9602358-2.3480082-1.47331364 0-2.3962832.82878899-2.96023578 2.3480082-.19299261.51989846-.32598782 1.08309911-.40754001 1.6519918z"/></svg>