<svg height="16" viewBox="0 0 16 16" width="16" xmlns="http://www.w3.org/2000/svg"><path d="m3 7v-1c0-3.84270808 1.72583354-6 5-6 3.2741665 0 5 2.15729192 5 6v1h1.6125741c.5522848 0 1 .44771525 1 1 0 .1074821-.0173279.2142613-.0513167.31622777l-2.3333333 7.00000003c-.1361141.4083421-.5182529.6837722-.9486833.6837722h-8.55848158c-.43043041 0-.81256925-.2754301-.9486833-.6837722l-2.33333333-7.00000003c-.17464777-.52394332.10851221-1.0902633.63245553-1.26491107.10196647-.03398882.20874567-.0513167.31622777-.0513167zm2 0h6v-1c0-2.82395859-.9408331-4-3-4-2.05916687 0-3 1.17604141-3 4zm-2.22514823 2 1.66666667 5h7.11696316l1.6666666-5z"/></svg>