<svg height="16" viewBox="0 0 16 16" width="16" xmlns="http://www.w3.org/2000/svg"><path d="m3.04213865 5c.28237868-3.21494151 1.97953336-5 4.95786135-5 2.978328 0 4.6754827 1.78505849 4.9578614 5h2.0421386c.5522847 0 1 .44771525 1 1v9c0 .5522847-.4477153 1-1 1h-14c-.55228475 0-1-.4477153-1-1v-9c0-.55228475.44771525-1 1-1zm2.00403448 0h5.90765377c-.2116871-2.10451118-1.15698313-3-2.9538269-3s-2.74213985.89548882-2.95382687 3zm-2.04617313 2h-1v7h12v-7h-1v1c0 .55228475-.4477153 1-1 1s-1-.44771525-1-1v-1h-6v1c0 .55228475-.44771525 1-1 1s-1-.44771525-1-1z" fill-rule="evenodd"/></svg>