<svg height="20" viewBox="0 0 20 20" width="20" xmlns="http://www.w3.org/2000/svg"><path d="m5.14837496 5c.08348503-.67976609.21095405-1.24026469.40294174-1.81622777.68171836-2.04515507 2.1456547-3.18377223 4.4486833-3.18377223s3.7669649 1.13861716 4.4486833 3.18377223c.1919877.57596308.3194567 1.13646168.4029417 1.81622777h2.1475033c.5527662 0 1.0008717.44892021 1.0008717 1.00748397v12.98503203c0 .5564181-.4446309 1.007484-1.0008717 1.007484h-13.99825664c-.55276616 0-1.00087166-.4489202-1.00087166-1.007484v-12.98503203c0-.55641803.44463086-1.00748397 1.00087166-1.00748397zm2.04175299 0h5.61974405c-.3158796-2.25906477-1.092683-3-2.809872-3-1.71718904 0-2.49399238.74093523-2.80987205 3zm-2.17005789 2h-1.02007006v11h12v-11h-1.0200701c.0148202.57573398.0200701 1.23295172.0200701 2 0 .55228475-.4477153 1-1 1s-1-.44771525-1-1c0-.73583535-.0094156-1.40057364-.0318158-2h-5.93636844c-.02240015.59942636-.03181576 1.26416465-.03181576 2 0 .55228475-.44771525 1-1 1s-1-.44771525-1-1c0-.76704828.0052499-1.42426602.02007006-2z"/></svg>