<svg height="16" viewBox="0 0 23 16" width="23" xmlns="http://www.w3.org/2000/svg"><path d="m14.3134915 3.33614849h5.9319071v-1.69948956h-5.9319071zm1.405272 3.70821346c-.3779879.38459397-.6163705.90561485-.7138308 1.56306264h4.6135592c-.0487301-.70162413-.2884298-1.23174014-.7125137-1.59684454-.4293521-.3625058-.9574814-.54310905-1.5896563-.54310905-.684856 0-1.2195706.19229698-1.5975584.57689095zm4.0037738-2.28157773c.7151478.31443156 1.3038606.81336427 1.7674555 1.49419954.4227669.60027842.6940752 1.29670534.8178761 2.08798144.0724367.4625522.1014114 1.13299304.0895581 2.004826h-7.4583458c.0447791 1.0121578.3977433 1.722877 1.0720631 2.1295591.4082796.2533643.8995321.3806961 1.4763916.3806961.6071513 0 1.1036719-.1546172 1.4842938-.4625522.209408-.1676102.3937923-.3988863.551836-.6951276h2.732839c-.0724367.5976798-.4043284 1.2070534-.9917242 1.825522-.9166535.9809745-2.2007586 1.4721114-3.8509983 1.4721114-1.3631269 0-2.5655761-.4131787-3.6047135-1.2421346-1.0444055-.8276566-1.5633156-2.1763341-1.5633156-4.04213454 0-1.75016241.47018-3.09234339 1.409223-4.02654292.9416771-.93160093 2.1599306-1.40064966 3.6600288-1.40064966.8916299 0 1.6937017.15851508 2.4075324.47424594zm-16.96335762 3.88102088v3.641949h3.36106279c.60056608 0 1.06942907-.0805569 1.40263788-.2403713.60715124-.2988399.91006834-.8653364.91006834-1.7046867 0-.71201861-.29238086-1.19925758-.88109366-1.46561489-.32925772-.14812065-.79153555-.22607889-1.38419945-.23127611zm0-5.2725754v3.01308585h3.36633092c.59924904 0 1.0878675-.11303945 1.46453833-.33911833.37403677-.22607889.56237218-.62626451.56237218-1.19795824 0-.63795824-.2476018-1.05763341-.74280541-1.26292343-.42935207-.14162413-.97460285-.21308585-1.63706938-.21308585zm7.51761222-.91600928c.4227669.58078886.6348089 1.27461717.6348089 2.08408352 0 .83285383-.212042 1.50459397-.640077 2.01132251-.2396996.28324826-.59134688.54310905-1.05625877.77698376.70592854.25466357 1.23800897.65614849 1.60019247 1.20575406.3582324.54830626.5386657 1.21614849.5386657 2.00092803 0 .8094664-.2054569 1.5357773-.6176875 2.1776335-.2607721.4248723-.5873958.7834802-.97987098 1.0745243-.44120535.3339211-.96143254.5612993-1.56331565.6860325-.60188311.1234339-1.25249636.1832019-1.95579085.1832019h-6.23745822v-13.6556845h6.68919981c1.68843358.02468677 2.88298058.50932715 3.58759209 1.45522042z" fill="#1769ff" fill-rule="evenodd"/></svg>