<svg height="16" viewBox="0 0 16 16" width="16" xmlns="http://www.w3.org/2000/svg"><path d="m3.10925208 4.52346564c-.69846111.98081887-1.10925208 2.18070393-1.10925208 3.47653436 0 3.3137085 2.6862915 6 6 6 1.29583043 0 2.4957155-.410791 3.4765344-1.1092521zm1.41421356-1.41421356 8.36728226 8.36728232c.6984611-.9808189 1.1092521-2.18070397 1.1092521-3.4765344 0-3.3137085-2.6862915-6-6-6-1.29583043 0-2.49571549.41079097-3.47653436 1.10925208zm3.47653436 12.89074792c-4.418278 0-8-3.581722-8-8s3.581722-8 8-8 8 3.581722 8 8-3.581722 8-8 8z"/></svg>