<svg height="16" viewBox="0 0 16 16" width="16" xmlns="http://www.w3.org/2000/svg"><path d="m.99052845 1.73676599.56361347-.56361348 4.14772049 4.14772049c-.5530294.5530294 0 1.6590882 1.6590882 3.31817639 1.65908819 1.65908821 2.76514699 2.21211761 3.31817639 1.65908821l4.1477205 4.1477205-.5635607.5635607.0000123.0000123c-.1832569.1832569-.4220376.3006747-.6790607.3339206-2.6541817.3433184-5.55815505-1.061905-8.71192009-4.21567-3.15372572-3.15372574-4.55895333-6.05766601-4.21568285-8.71182085l-.00003523-.00000455c.03324308-.25703422.1506638-.4958259.33392822-.67909031zm.56361347-.56361348.8295441-.82954409c.45814456-.45814456 1.20094364-.45814456 1.6590882 0l2.48863229 2.48863229c.45814455.45814455.45814455 1.20094364 0 1.65908819l-.8295441.8295441zm9.12498508 9.12498509.8295441-.82954411c.4581446-.45814455 1.2009436-.45814455 1.6590882 0l2.4886323 2.48863231c.4581445.4581445.4581445 1.2009436 0 1.6590882l-.8295441.8295441z" fill-rule="evenodd"/></svg>