<svg height="16" viewBox="0 0 16 16" width="16" xmlns="http://www.w3.org/2000/svg"><path d="m5.5 16c-.82842712 0-1.5-.6715729-1.5-1.5s.67157288-1.5 1.5-1.5 1.5.6715729 1.5 1.5-.67157288 1.5-1.5 1.5zm6 0c-.8284271 0-1.5-.6715729-1.5-1.5s.6715729-1.5 1.5-1.5 1.5.6715729 1.5 1.5-.6715729 1.5-1.5 1.5zm-9.30217161-13h-2.19782839v-2h3c.46869865 0 .87451205.32553199.97618706.78306954l1.82598455 8.21693046h5.44352699l1.4285714-5h-4.67427c-.55228475 0-1-.44771525-1-1s.44771525-1 1-1h6c.0929165 0 .1853797.01294992.2747211.03847605.531035.15172429.8385271.70521007.6868028 1.23624508l-2 6.99999997c-.1226575.4293016-.5150435.7252789-.9615239.7252789h-7c-.46869865 0-.87451205-.325532-.97618706-.7830695z" fill-rule="evenodd"/></svg>