<svg height="20" viewBox="0 0 20 20" width="20" xmlns="http://www.w3.org/2000/svg"><path d="m5.52759168 16h8.94481662l1.9090909-7h-12.76299843zm10.45247042-9h3.0281348c.5477577 0 .9918031.44386482.9918031 1 0 .55228475-.4553056 1-.9918031 1h-.5536514l-2.1935632 8.0430649c-.1441365.5285007-.7167433.9569351-1.2634556.9569351h-9.99505341c-.55365071 0-1.12007685-.431213-1.26345558-.9569351l-2.19356316-8.0430649h-.55365144c-.54775773 0-.99180311-.44386482-.99180311-1 0-.55228475.45530558-1 .99180311-1h3.03053877l2.34166224-5.02171088c.23271244-.49905344.82364129-.7160308 1.32767093-.48099792.50053997.23340562.71484637.8332086.48494465 1.32623444l-1.94752198 4.17647436h7.54420858l-1.947522-4.17647436c-.2299017-.49302584-.0155953-1.09282882.4849447-1.32623444.5040296-.23503288 1.0949585-.01805552 1.3276709.48099792z"/></svg>