<svg height="20" viewBox="0 0 20 20" width="20" xmlns="http://www.w3.org/2000/svg"><path d="m16.0046024 13h-8.00498742c-.61932113 0-1.24078516-.5297836-1.34348038-1.1459549l-1.33948135-7.03688815c-.26321782-1.57930689-1.72163793-2.81715695-3.31769669-2.81715695h-.99895656c-.55228475 0-1 .44771525-1 1s.44771525 1 1 1h.99895656c.6175755 0 1.24228833.53023187 1.34490884 1.14595493l1.33948135 7.03688807c.26299427 1.5779656 1.71663094 2.817157 3.31626823 2.817157h8.00498742c.9943419 0 1.9588466-.7320167 2.2308195-1.6839216l1.4522041-6.08271457c.3332438-1.16635327-.4704346-2.23336383-1.6803132-2.23336383h-9.49982748c-.55641878 0-1.00748532.44386482-1.00748532 1 0 .55228475.45030359 1 .99407666 1h9.18019334l-1.361896 5.7666362c-.0273186.0956151-.2088162.2333638-.3077716.2333638zm-8.5046024 6c-.82842712 0-1.5-.6715729-1.5-1.5s.67157288-1.5 1.5-1.5 1.5.6715729 1.5 1.5-.67157288 1.5-1.5 1.5zm8 0c-.8284271 0-1.5-.6715729-1.5-1.5s.6715729-1.5 1.5-1.5 1.5.6715729 1.5 1.5-.6715729 1.5-1.5 1.5z" fill-rule="evenodd"/></svg>