<svg height="20" viewBox="0 0 20 20" width="20" xmlns="http://www.w3.org/2000/svg"><path d="m5.06323869 3h12.94407411c1.2098786 0 2.013557 1.06701056 1.6803132 2.23336383l-1.4522041 5.08271457c-.2719729.9519049-1.2364776 1.6839216-2.2308195 1.6839216h-9.31413962c.16775957.5515692.7393628 1 1.3091522 1h8.00038502c.5522847 0 1 .4477153 1 1s-.4477153 1-1 1h-8.00038502c-1.59963729 0-3.05327396-1.2391914-3.31626823-2.817157l-1.33948135-8.03688807c-.10262051-.61572306-.72733334-1.14595493-1.34490884-1.14595493h-.99895656c-.55228475 0-1-.44771525-1-1s.44771525-1 1-1h.99895656c1.30774345 0 2.52308354.83102751 3.06428213 2zm.45055507 2 .83333333 5h9.65747531c.0989554 0 .280453-.13774868.3077716-.23336383l1.361896-4.76663617zm1.98620624 14c-.82842712 0-1.5-.6715729-1.5-1.5s.67157288-1.5 1.5-1.5 1.5.6715729 1.5 1.5-.67157288 1.5-1.5 1.5zm7 0c-.8284271 0-1.5-.6715729-1.5-1.5s.6715729-1.5 1.5-1.5 1.5.6715729 1.5 1.5-.6715729 1.5-1.5 1.5z" fill-rule="evenodd"/></svg>