<svg height="16" viewBox="0 0 16 16" width="16" xmlns="http://www.w3.org/2000/svg"><path d="m9.9641038 10.7512723 2.0358962 1.5116935v-2.42202814c1.2374773-.84039149 2-2.0517116 2-3.34093766 0-2.38309619-2.6054201-4.5-6-4.5-3.39457992 0-6 2.11690381-6 4.5s2.60542008 4.5 6 4.5c.69270776 0 1.3525536-.0881514 1.9641038-.2487277zm4.0358962.0481923v5.2005354l-4.64026195-3.093508c-.44192631.0614803-.89622881.093508-1.35973805.093508-4.418278 0-8-2.9101491-8-6.5 0-3.58985087 3.581722-6.5 8-6.5s8 2.91014913 8 6.5c0 1.64847552-.7552732 3.15362319-2 4.2994646z"/></svg>