<svg height="16" viewBox="0 0 16 16" width="16" xmlns="http://www.w3.org/2000/svg"><path d="m11.8181925 13.6661767c-.0696184-.4120171-.4337038-2.4175436-1.3302758-4.87929916 2.2061504-.35275443 4.1168931.25210182 4.2580114.29819507-.3038748 1.90393319-1.3942494 3.54541709-2.9277356 4.58110409zm-3.81772211 1.1664413c-1.65390721 0-3.17045922-.587924-4.3530311-1.5662296.09031575.0733729.15334862.1194661.15334862.1194661s1.30957841-2.8558998 5.36155701-4.26785815c.01505262-.00564407.03104604-.00940678.04609866-.01411017.96148642 2.49750132 1.35755862 4.58957022 1.45916392 5.18690102-.81942734.3480511-1.72164407.5418308-2.66713711.5418308zm-6.83295113-6.83308834c0-.07243224.00376315-.1439238.00564473-.21541537.12136179.00282204 3.49691304.07901699 7.01452343-.97360221.19568413.38285614.38290116.7732377.55412477 1.16173791-.09031575.02445764-.17969071.05173731-.26906567.08183902-3.68695244 1.19089894-5.55724114 4.50773119-5.55724114 4.50773119s.00282237.002822.00282237.0037627c-1.08849298-1.2106532-1.75080849-2.81074722-1.75080849-4.56605324zm3.91744575-6.17743547c.09125655.12134752 1.35473629 1.834323 2.53730817 3.93579869-3.28053154.87200894-6.12830011.83720383-6.30799083.8343818.44311166-2.11652655 1.86464397-3.87089188 3.77068266-4.77018049zm1.27853237-.45528838c0 .00094068-.00094079.00188136-.00094079.00188136s-.0084671.00188135-.02069736.00376271c.00752632-.00188136.01411184-.00282204.02163815-.00564407zm6.14899752 1.5069669c-.0169342.02539832-.9897102 1.5069669-3.56935384 2.47304368-1.16751926-2.14568758-2.45075557-3.85019695-2.55330158-3.98565465.51649321-.12511024 1.05556535-.19283909 1.61063091-.19283909 1.72917035 0 3.30875521.64530543 4.51202451 1.70545006zm2.3181043 5.0580281c-.0987829-.0216356-2.4112425-.51925451-4.7585112-.22388147-.0489211-.11664413-.09690131-.23422894-.14770392-.35181375-.14205915-.33488153-.29540778-.66600035-.45440113-.9914751 2.69818305-1.10153448 3.79326155-2.68469634 3.80643265-2.70350991.9577233 1.16361926 1.5381902 2.64989124 1.5541836 4.27068023zm1.0075851-1.541772c-.1053684-.51361044-.263421-1.02063614-.4675722-1.50414487-.1994473-.47410194-.4487564-.93127168-.7375786-1.3583397-.2850591-.42330531-.6143353-.82215298-.9755983-1.18337351-.3622038-.36216121-.7601576-.69045799-1.1844535-.97642424-.4271182-.28972897-.8843417-.53712741-1.3584994-.7384326-.4835656-.20318655-.9897101-.36122053-1.50338099-.46563584-.52684189-.10817802-1.0687364-.16367805-1.61063092-.16367805-.5428353 0-1.08472981.05550003-1.6115717.16367805-.51367084.10441531-1.01981537.26244929-1.50338096.46563584-.4741577.20130519-.9313812.44870363-1.35944023.7384326-.42335509.28596625-.82130888.61426303-1.18351267.97642424-.36126301.36122053-.6895984.7600682-.97559829 1.18337351-.28882225.42706802-.53813135.88423776-.73757864 1.3583397-.20509202.48350873-.3622038.99053443-.46757218 1.50414487-.10724995.52583926-.16181572 1.06767006-.16181572 1.60950085 0 .54371215.05456577 1.08554295.16181572 1.61232289.10536838.51361045.26248016 1.01969545.46757218 1.50226355.19944729.4741019.44875639.933153.73757864 1.360221.28599989.4233053.61433528.8202716.97559829 1.1833735.36220379.3612206.76015758.6885767 1.18351267.9754836.42805903.2887883.88528253.5371274 1.35944023.7374919.48356559.2050679.98971012.3612205 1.50338096.4656358.52684189.1091187 1.0687364.1636781 1.6115717.1636781.54189452 0 1.08378903-.0545594 1.61063092-.1636781.51367089-.1044153 1.01981539-.2605679 1.50338099-.4656358.4741577-.2003645.9313812-.4487036 1.3584994-.7374919.4242959-.2869069.8222497-.614263 1.1844535-.9754836.361263-.3631019.6905392-.7600682.9755983-1.1833735.2888222-.427068.5381313-.8861191.7375786-1.360221.2041512-.4825681.3622038-.9886531.4675722-1.50226355.1072499-.52677994.1618157-1.06861074.1618157-1.61232289 0-.54183079-.0545658-1.08366159-.1618157-1.60950085z" fill="#ec4989" fill-rule="evenodd"/></svg>