<svg height="16" viewBox="0 0 16 16" width="16" xmlns="http://www.w3.org/2000/svg"><path d="m8.54611842 16h-7.66304125c-.48785295 0-.88307717-.3954695-.88307717-.8831324v-14.23379728c0-.48778708.3952863-.88307032.88307717-.88307032h14.23390773c.4876667 0 .8830151.39528324.8830151.88307032v14.23379728c0 .487725-.3954105.8831324-.8830151.8831324h-4.0772165v-6.19608178h2.0797387l.3114113-2.41472301h-2.39115v-1.54164808c0-.69911803.1941355-1.1755439 1.1966615-1.1755439l1.2786739-.00055875v-2.15974763c-.2211418-.0294274-.980176-.09517343-1.8632531-.09517343-1.84357263 0-3.10573228 1.12531866-3.10573228 3.19187953v1.78079226h-2.08507782v2.41472301h2.08507782z" fill="#4460a0" fill-rule="evenodd"/></svg>