<svg height="16" viewBox="0 0 16 16" width="16" xmlns="http://www.w3.org/2000/svg"><path d="m7.98742138 6.61386139v2.77227722s2.68455342-.00360396 3.77763522-.00360396c-.5919245 1.79719805-1.512327 2.77588115-3.77763522 2.77588115-2.29249685 0-4.081761-1.861792-4.081761-4.1584158 0-2.29662376 1.78926415-4.15841584 4.081761-4.15841584 1.21207548 0 1.99487422.42679208 2.71291822 1.02165346.5747673-.57580198.5267547-.65786138 1.9890629-2.04129703-1.2413396-1.13192079-2.89120124-1.82194059-4.70198112-1.82194059-3.85906289 0-6.98742138 3.1339901-6.98742138 7 0 3.8659406 3.12835849 7 6.98742138 7 5.76822012 0 7.17808802-5.03168317 6.71069182-8.38613861z" fill="#dd4b39" fill-rule="evenodd"/></svg>