<svg height="16" viewBox="0 0 16 16" width="16" xmlns="http://www.w3.org/2000/svg"><path d="m3.85905482 10.5257215h6.49999998c1.196617 0 2.1666667-.97004972 2.1666667-2.16666668s-.9700497-2.16666666-2.1666667-2.16666666h-2.16666664v-2.16666667c0-1.19661696-.97004971-2.16666667-2.16666667-2.16666667s-2.16666667.97004971-2.16666667 2.16666667zm6.49999998 2.1666667h-8.66666664v-8.66666671c0-2.39323392 1.94009941-4.33333334 4.33333333-4.33333334 2.39323391 0 4.33333331 1.94009942 4.33333331 4.33333334 2.3932339 0 4.3333334 1.94009942 4.3333334 4.33333333 0 2.39323388-1.9400995 4.33333338-4.3333334 4.33333338z" transform="matrix(.70710678 -.70710678 .70710678 .70710678 -1.979185 7.606602)"/></svg>