<svg height="16" viewBox="0 0 16 16" width="16" xmlns="http://www.w3.org/2000/svg" xmlns:xlink="http://www.w3.org/1999/xlink"><radialGradient id="a" cx="1.163903%" cy="98.836097%" r="139.775349%"><stop offset="0" stop-color="#ffc800"/><stop offset=".486454468" stop-color="#ff2a7b"/><stop offset="1" stop-color="#a000bc"/></radialGradient><path d="m8.00001588 0c2.17265372 0 2.44508882.00920925 3.29837392.04814217.8515067.03883765 1.4330552.17408667 1.9419142.37186335.5260707.20441369.9722115.47796031 1.4169867.92270379.4447435.44477523.7182901.89091598.9227355 1.41698671.197745.50885894.332994 1.09040748.3718316 1.94191421.0389329.85328506.0481422 1.12572022.0481422 3.29840565 0 2.17265372-.0092093 2.44508882-.0481422 3.29837392-.0388376.8515067-.1740866 1.4330552-.3718316 1.9419142-.2044454.5260707-.477992.9722115-.9227355 1.4169867-.4447752.4447435-.890916.7182901-1.4169867.9227355-.508859.197745-1.0904075.332994-1.9419142.3718316-.8532851.0389329-1.1257202.0481422-3.29837392.0481422-2.17268543 0-2.44512059-.0092093-3.29840565-.0481422-.85150673-.0388376-1.43305527-.1740866-1.94191421-.3718316-.52607073-.2044454-.97221148-.477992-1.41698671-.9227355-.44474348-.4447752-.7182901-.890916-.92270379-1.4169867-.19777668-.508859-.3330257-1.0904075-.37186335-1.9419142-.03893292-.8532851-.04814217-1.1257202-.04814217-3.29837392 0-2.17268543.00920925-2.44512059.04814217-3.29840565.03883765-.85150673.17408667-1.43305527.37186335-1.94191421.20441369-.52607073.47796031-.97221148.92270379-1.41698671.44477523-.44474348.89091598-.7182901 1.41698671-.92270379.50885894-.19777668 1.09040748-.3330257 1.94191421-.37186335.85328506-.03893292 1.12572022-.04814217 3.29840565-.04814217zm0 1.44143887c-2.13610246 0-2.38913467.0081613-3.23270238.04664963-.7799921.03556678-1.20358605.16589361-1.48548451.27545198-.37341939.14512515-.63991616.31848143-.91984575.59844276-.27996133.27992959-.45331761.54642636-.59844276.91984575-.10955837.28189846-.2398852.70549241-.27545198 1.48548451-.03848833.84356771-.04664963 1.09659992-.04664963 3.23270238 0 2.13607072.0081613 2.38910292.04664963 3.23267062.03556678.7799921.16589361 1.2035861.27545198 1.4854845.14512515.3734194.31851318.6399162.59844276.9198458.27992959.2799613.54642636.4533176.91984575.5984427.28189846.1095584.70549241.2398852 1.48548451.275452.84347244.0384883 1.09644114.0466496 3.23270238.0466496 2.13622952 0 2.38922992-.0081613 3.23267062-.0466496.7799921-.0355668 1.2035861-.1658936 1.4854845-.275452.3734194-.1451251.6399162-.3184814.9198458-.5984427.2799613-.2799296.4533176-.5464264.5984427-.9198458.1095584-.2818984.2398852-.7054924.275452-1.4854845.0384883-.8435677.0466496-1.0965999.0466496-3.23267062 0-2.13610246-.0081613-2.38913467-.0466496-3.23270238-.0355668-.7799921-.1658936-1.20358605-.275452-1.48548451-.1451251-.37341939-.3184814-.63991616-.5984427-.91984575-.2799296-.27996133-.5464264-.45331761-.9198458-.59844276-.2818984-.10955837-.7054924-.2398852-1.4854845-.27545198-.8435677-.03848833-1.0965999-.04664963-3.23267062-.04664963zm0 2.4504556c2.26884272 0 4.10808962 1.8392469 4.10808962 4.10812141 0 2.26884272-1.8392469 4.10808962-4.10808962 4.10808962-2.26887451 0-4.10812141-1.8392469-4.10812141-4.10808962 0-2.26887451 1.8392469-4.10812141 4.10812141-4.10812141zm0 6.77477223c1.47275033 0 2.66665082-1.19390049 2.66665082-2.66665082 0-1.47278209-1.19390049-2.66668255-2.66665082-2.66668255-1.47278209 0-2.66668255 1.19390046-2.66668255 2.66668255 0 1.47275033 1.19390046 2.66665082 2.66668255 2.66665082zm5.23041202-6.9370774c0 .53019901-.4298182.95998539-.9600172.95998539-.5301673 0-.9599854-.42978638-.9599854-.95998539 0-.53019902.4298181-.96001715.9599854-.96001715.530199 0 .9600172.42981813.9600172.96001715z" fill="url(#a)" fill-rule="evenodd"/></svg>