<svg height="16" viewBox="0 0 16 16" width="16" xmlns="http://www.w3.org/2000/svg"><path d="m16 15.5454545h-3.5362183v-5.1133089c0-1.3384016-.5531514-2.25209123-1.7695202-2.25209123-.93038568 0-1.44778925.61657751-1.6886171 1.21080175-.09031044.21328738-.07619943.5103995-.07619943.80751158v5.3470868h-3.50329257s.04515522-9.05772842 0-9.88107361h3.50329257v1.55075762c.20696143-.67804897 1.32643463-1.64575899 3.11288803-1.64575899 2.2163688 0 3.957667 1.42129498 3.957667 4.48182928zm-14.11665099-11.11702278h-.02257761c-1.12888052 0-1.8607714-.75535401-1.8607714-1.71281878 0-.97609249.75352775-1.71561294 1.90498589-1.71561294 1.1505174 0 1.8579492.73765768 1.88052681 1.71281878 0 .95746477-.73000941 1.71561294-1.90216369 1.71561294zm-1.47977422 1.23594917h3.11853245v9.88107361h-3.11853245z" fill="#007ebb" fill-rule="evenodd"/></svg>