<svg height="16" viewBox="0 0 16 16" width="16" xmlns="http://www.w3.org/2000/svg"><path d="m8.77817459 9.77817459h4.00000001v-4h-4.00000001v-1.00296986c0-.55064454.45097518-.99703014.99077797-.99703014h4.01844404c.5471916 0 .990778.45303631.990778.99703014v6.00593977c0 .5506445-.4509752.9970301-.990778.9970301h-4.01844404c-.54719156 0-.99077797-.4530363-.99077797-.9970301zm-2-4h-4v4h4v1.00296991c0 .5506445-.45097518.9970301-.99077797.9970301h-4.01844406c-.54719156 0-.99077797-.4530363-.99077797-.9970301v-6.00593977c0-.55064454.45097518-.99703014.99077797-.99703014h4.01844406c.54719157 0 .99077797.45303631.99077797.99703014zm-3 1h8.00000001v2h-8.00000001z" fill-rule="evenodd" transform="matrix(.70710678 -.70710678 .70710678 .70710678 -3.221826 7.778175)"/></svg>