<svg height="16" viewBox="0 0 16 16" width="16" xmlns="http://www.w3.org/2000/svg"><path d="m12.4199285 10.8391071 3.2713969 3.2713969c.4115661.4115661.4115661 1.0788466 0 1.4904127s-1.0788466.4115661-1.4904127 0l-3.2573956-3.2573956c-1.14199306.8523301-2.55871405 1.3569312-4.09329095 1.3569312-3.78327543 0-6.85022615-3.0669507-6.85022615-6.85022615 0-3.78327543 3.06695072-6.85022615 6.85022615-6.85022615 3.78327545 0 6.85022615 3.06695072 6.85022615 6.85022615 0 1.48814524-.4745276 2.86545861-1.2805238 3.98888095zm-5.56970235.7535833c2.61919069 0 4.74246425-2.12327356 4.74246425-4.74246425 0-2.61919068-2.12327356-4.74246426-4.74246425-4.74246426-2.61919068 0-4.74246426 2.12327358-4.74246426 4.74246426 0 2.61919069 2.12327358 4.74246425 4.74246426 4.74246425z"/></svg>