<svg height="20" viewBox="0 0 20 20" width="20" xmlns="http://www.w3.org/2000/svg"><path d="m14.3198574 12.9056439 5.2115716 5.2115715c.3887269.388727.3899925 1.0177122-.0032544 1.4109592-.3905243.3905243-1.0293102.3849034-1.4109592.0032544l-5.2115715-5.2115716c-1.3546838 1.053061-3.05693245 1.6801426-4.9056439 1.6801426-4.418278 0-8-3.581722-8-8s3.581722-8 8-8 8 3.581722 8 8c0 1.84871145-.6270816 3.5509601-1.6801426 4.9056439zm-6.3198574 1.0943561c3.3137085 0 6-2.6862915 6-6s-2.6862915-6-6-6-6 2.6862915-6 6 2.6862915 6 6 6z" fill-rule="evenodd"/></svg>