<svg height="16" viewBox="0 0 16 16" width="16" xmlns="http://www.w3.org/2000/svg"><path d="m12.6372232 1.20648115c.6783857.76698801.8673862 1.6124748.6798977 2.85845534 0 0-.0317521.191497-.0514081.29149544-.6607456 3.36694739-2.9221992 4.5309292-5.81113435 4.5309292h-1.47017163c-.35280087 0-.65116961.25499602-.70660974.60049062l.02419206-.15299761-.77716992 4.88992356h-3.09406363c-.26460065 0-.46670515-.2344963-.42537705-.4934923l2.08706915-13.13079478c.05544013-.3454946.35582488-.60049062.70912975-.60049062h5.01178836c1.7272123 0 3.0769276.36199434 3.8238574 1.20648115zm1.4631156 3.49619537c.5735535.71648881.6849377 1.70747332.4530972 2.88945485-.5780895 2.94495403-2.5567983 3.96343803-5.08335658 3.96343803h-.39060096c-.30844877 0-.57153741.2229966-.61941753.5254918l-.03175208.1704974-.49190521 3.0909517-.02520007.1319979c-.04838412.3024953-.31096876.5254918-.61992153.5254918h-2.13847727l.98330642-6.22790269h1.31846726c3.63586495 0 5.92705465-1.75447259 6.64576035-5.06942079z" fill="#022b87" fill-rule="evenodd"/></svg>