<svg height="16" viewBox="0 0 16 16" width="16" xmlns="http://www.w3.org/2000/svg"><path d="m8.00047039 0c-4.41794555 0-8.00047039 3.58158405-8.00047039 8.00047039 0 3.27488681 1.97001235 6.08972781 4.78955724 7.32686541-.02257894-.5578879-.00376316-1.2296113.138296-1.8373611.15428941-.6491445 1.02922326-4.35867582 1.02922326-4.35867582s-.25495384-.51084848-.25495384-1.26630211c0-1.18539425.68771682-2.07067678 1.5428941-2.07067678.72722996 0 1.07908508.54659846 1.07908508 1.20138766 0 .73099312-.46663139 1.82513083-.7065326 2.83836067-.20038808.84953258.42523666 1.54101248 1.26253895 1.54101248 1.51561121 0 2.53636741-1.94649257 2.53636741-4.25330741 0-1.75269007-1.1806903-3.06509085-3.32851182-3.06509085-2.42629506 0-3.93814312 1.80913742-3.93814312 3.82995238 0 .6980655.20509202 1.1891574.52684189 1.56923619.14864468.17592756.16840125.24554595.11477627.44687482-.03763156.14582227-.12606574.50144057-.16275651.64161817-.05362498.2022696-.21732228.2756512-.39983536.2003881-1.11859823-.4562827-1.63885459-1.68024935-1.63885459-3.05662378 0-2.27200565 1.91638737-4.99841242 5.71717528-4.99841242 3.05474216 0 5.06520846 2.21179514 5.06520846 4.58352443 0 3.13847237-1.744223 5.48291877-4.31728114 5.48291877-.86270359 0-1.67554536-.4666314-1.95401893-.9962956 0 0-.46474981 1.8430058-.56259188 2.1986241-.16934203.6162168-.50144058 1.2333745-.80531545 1.7131769.71970365.2126183 1.47986123.3283354 2.26730169.3283354 4.41794551 0 7.99952961-3.5815841 7.99952961-7.99952961 0-4.41888634-3.5815841-8.00047039-7.99952961-8.00047039" fill="#cc2127" fill-rule="evenodd"/></svg>