<svg height="16" viewBox="0 0 16 16" width="16" xmlns="http://www.w3.org/2000/svg"><g fill-rule="evenodd"><path d="m0 10.5c0 1.9329966 1.56700338 3.5 3.5 3.5s3.5-1.5670034 3.5-3.5c0-1.93299662-1.56700338-3.5-3.5-3.5-.36702208 0-.72084959.05649267-1.05326142.16125692.66578014-1.28396861 2.00706995-2.16125692 3.55326142-2.16125692.34529957 0 .68038008.043753 1 .12601749v-2.04305905c-.32520847-.05455964-.65928779-.08295844-1-.08295844-3.3137085 0-6 2.6862915-6 6h.16840779-.16840779z" transform="matrix(-1 0 0 -1 7 17)"/><path d="m9 10.5c0 1.9329966 1.5670034 3.5 3.5 3.5s3.5-1.5670034 3.5-3.5c0-1.93299662-1.5670034-3.5-3.5-3.5-.3670221 0-.7208496.05649267-1.0532614.16125692.6657801-1.28396861 2.0070699-2.16125692 3.5532614-2.16125692.3452996 0 .6803801.043753 1 .12601749v-2.04305905c-.3252085-.05455964-.6592878-.08295844-1-.08295844-3.3137085 0-6 2.6862915-6 6h.16840779-.16840779z" transform="matrix(-1 0 0 -1 25 17)"/></g></svg>