<svg height="16" viewBox="0 0 16 16" width="16" xmlns="http://www.w3.org/2000/svg"><path d="m15.9919502 4.15977624c-.0696161 1.54022838-1.1590142 3.64570381-3.2606682 6.31735746-2.1750332 2.7936428-4.01797868 4.189533-5.52413271 4.189533-.93135071 0-1.72064692-.8492674-2.36506635-2.5533895-.43180806-1.5635087-.86079384-3.12701748-1.29166114-4.68587014-.47978673-1.7050533-.99344076-2.55711434-1.5428436-2.55711434-.1194763 0-.53623223.2486342-1.25497156.74683383l-.75260664-.9600819c.78835545-.68444247 1.5654218-1.37167859 2.33213981-2.05705228 1.04988626-.89955297 1.83918247-1.3716786 2.36600711-1.42103295 1.24180095-.11919543 2.0075782.72169104 2.296391 2.51986577.30762796 1.94158172.52400237 3.14843539.64347867 3.62149223.35936967 1.60913823.75260664 2.41184492 1.18347394 2.41184492.33396919 0 .83633412-.51961756 1.50615407-1.55978388.6698199-1.04202875 1.0263673-1.83356086 1.0752867-2.37925242.0959573-.89955297-.2624716-1.34653581-1.0752867-1.34653581-.38288867 0-.77800715.08008443-1.18347398.24770299.79023697-2.53197155 2.29545028-3.76303679 4.51940288-3.6913333 1.6472677.0456295 2.4252749 1.09976404 2.3283767 3.15681632" fill="#00b2ea" fill-rule="evenodd"/></svg>