<svg height="16" viewBox="0 0 16 16" width="16" xmlns="http://www.w3.org/2000/svg"><path d="m6.348 9.75663868-.0005-4.52739148 4.323 2.27150072zm9.492-5.31191778s-.1565-1.11032123-.636-1.59926541c-.6085-.64202248-1.2905-.64504377-1.603-.68230625-2.239-.16314924-5.5975-.16314924-5.5975-.16314924h-.007s-3.3585 0-5.5975.16314924c-.313.03726248-.9945.04028377-1.6035.68230625-.4795.48894418-.6355 1.59926541-.6355 1.59926541s-.16 1.30418685-.16 2.60787015v1.22261222c0 1.30418685.16 2.60787013.16 2.60787013s.156 1.1103212.6355 1.5992654c.609.6420225 1.4085.6218806 1.7645.6888524 1.28.1238726 5.44.1621421 5.44.1621421s3.362-.0050354 5.601-.1681847c.3125-.037766.9945-.0407873 1.603-.6828098.4795-.4889442.636-1.5992654.636-1.5992654s.16-1.30368328.16-2.60787013v-1.22261222c0-1.3036833-.16-2.60787015-.16-2.60787015z" fill="#ce1312" fill-rule="evenodd"/></svg>