<?xml version="1.0" encoding="utf-8"?>
<!-- Generator: Adobe Illustrator 22.0.1, SVG Export Plug-In . SVG Version: 6.00 Build 0)  -->
<svg version="1.1" id="Layer_1" xmlns="http://www.w3.org/2000/svg" xmlns:xlink="http://www.w3.org/1999/xlink" x="0px" y="0px"
	 viewBox="0 0 67 65" style="enable-background:new 0 0 67 65;" xml:space="preserve">
<style type="text/css">
	.st0{fill:none;stroke:url(#Path_3_);stroke-width:2;}
	.st1{fill:none;stroke:#002242;}
	.st2{fill:none;stroke:#002242;stroke-width:2;}
</style>
<title>Logo@3x</title>
<desc>Created with Sketch.</desc>
<g id="Page-1">
	<g id="larabuilder-001" transform="translate(-816.000000, -319.000000)">
		<g id="builder-organize" transform="translate(817.000000, 320.000000)">
			
				<radialGradient id="Path_3_" cx="-179.9337" cy="180.7892" r="1.2471" gradientTransform="matrix(-43.5556 -22.4479 -22.4479 43.5556 -3715.4019 -11874.6641)" gradientUnits="userSpaceOnUse">
				<stop  offset="0" style="stop-color:#F74608"/>
				<stop  offset="1" style="stop-color:#B41E3C"/>
			</radialGradient>
			<polyline id="Path" class="st0" points="17.3,39.6 0,39.6 0,5 56.5,5 56.5,39.6 43.4,39.6 			"/>
			<path id="Shape" class="st1" d="M33.2,33.9l-3.5,3.5l-3.5-3.5 M33.2,19.8l-3.5-3.5l-3.5,3.5"/>
			<path id="Path_1_" class="st1" d="M30,16.3v21.2"/>
			<path id="Shape_1_" class="st1" d="M22.6,30.4l-3.5-3.5l3.5-3.5 M36.7,30.4l3.5-3.5l-3.5-3.5"/>
			<path id="Path_2_" class="st1" d="M40.3,27.2H19.1"/>
			<path id="Shape_2_" class="st2" d="M50.3,53h5.6 M39.2,53h5.6 M28,53h5.6 M16.9,53h5.6 M7.8,49.6V53h3.5 M65,49.6V53h-3.5
				 M7.8,39.9v5.5 M65,39.9v5.5 M65,28.8v5.5 M61.5,19.8H65v3.5"/>
		</g>
	</g>
</g>
</svg>
